<?xml version="1.0" encoding="utf-8"?>
<!-- Generator: Adobe Illustrator 26.0.2, SVG Export Plug-In . SVG Version: 6.00 Build 0)  -->
<svg version="1.1" id="Layer_1" xmlns="http://www.w3.org/2000/svg" xmlns:xlink="http://www.w3.org/1999/xlink" x="0px" y="0px"
	 viewBox="0 0 100 100" style="enable-background:new 0 0 100 100;" xml:space="preserve">
<style type="text/css">
	.st0{enable-background:new    ;}
	.st1{fill:url(#SVGID_1_);}
	.st2{fill:#EC2605;}
	.st3{fill:#515153;}
	.st4{fill:#F8F8F8;}
	.st5{fill:#2C2C2C;}
	.st6{fill:#050505;}
	.st7{fill:#A3A3A3;}
	.st8{fill:#C3C7C9;}
	.st9{opacity:0.4;fill:#FFFFFF;}
	.st10{fill:#142C4D;stroke:#142C4D;stroke-miterlimit:10;}
	.st11{opacity:0.25;fill:#3F3A3D;}
	.st12{opacity:0.15;fill:#3F3A3D;}
	.st13{fill:#142C4D;}
	.st14{fill:none;stroke:#00A7CD;stroke-width:4.8936;stroke-miterlimit:10;}
	.st15{fill:none;stroke:#FAFCFF;stroke-width:2.5862;stroke-miterlimit:10;}
	.st16{opacity:0.16;fill:#FFFFFF;enable-background:new    ;}
</style>
<g class="st0">
	
		<linearGradient id="SVGID_1_" gradientUnits="userSpaceOnUse" x1="49.8" y1="-0.277" x2="49.8" y2="97.5378" gradientTransform="matrix(1 0 0 -1 0 102)">
		<stop  offset="0.4735" style="stop-color:#A3DFED"/>
		<stop  offset="0.4794" style="stop-color:#5DD1E8"/>
	</linearGradient>
	<path class="st1" d="M84.1,97.2H15.6c-3.8,0-6.9-3.1-6.9-6.9l-5.8-80c0-3.8,3.1-6.9,6.9-6.9h80c3.8,0,6.9,3.1,6.9,6.9l-5.8,80
		C91,94.1,87.9,97.2,84.1,97.2z"/>
</g>
<g>
	<g>
		<g>
			<path class="st2" d="M35.1,86.1L35,85.9c-0.3-0.8-0.5-1.7-0.5-2.6V29.8c0-0.9,0.2-1.8,0.5-2.6l0.8-2.1l14-0.7L64,25.1l0.8,2.2
				c0.3,0.9,0.4,1.7,0.4,2.6v53.4c0,0.9-0.2,1.8-0.5,2.7l-0.1,0.2l-14.5,1L35.1,86.1z"/>
			<path class="st3" d="M49.8,24.7l14,0.7l0.7,2c0.3,0.8,0.4,1.7,0.4,2.5v53.4c0,0.9-0.2,1.7-0.5,2.6l-14.3,1l-14.9-1
				c-0.3-0.8-0.5-1.7-0.5-2.5V29.8c0-0.9,0.2-1.7,0.4-2.6l0.7-1.9L49.8,24.7 M49.8,24.1L49.8,24.1l-13.9,0.7l-0.3,0l-0.1,0.3
				l-0.7,1.9c-0.3,0.9-0.5,1.8-0.5,2.7v53.5c0,0.9,0.2,1.8,0.5,2.7l0.1,0.3l0.3,0l14.9,1l0,0l0,0l14.3-1l0.3,0L65,86
				c0.3-0.9,0.5-1.8,0.5-2.8V29.9c0-0.9-0.2-1.8-0.5-2.7l-0.7-2l-0.1-0.3l-0.3,0L49.8,24.1L49.8,24.1L49.8,24.1z"/>
		</g>
		<path class="st4" d="M57.7,19.7L57.7,19.7c0-0.5-0.5-0.9-1.1-1l-4.4-0.2c-1.5-0.1-2.9-0.1-4.4,0l-4.5,0.2c-0.6,0-1.1,0.4-1.1,1v0
			c0,0.5-0.4,0.8-0.9,1c-5.1,1.2-4.9,3.5-4.9,3.5v0.8L63.4,25l0-0.9c0,0,0.2-2.2-4.9-3.5C58,20.5,57.7,20.1,57.7,19.7z"/>
		<path class="st3" d="M33.9,85.6c0,0.3,0.2,0.6,0.6,0.8c1.3,0.4,5,1,15.4,0.9c10.6-0.1,14.1-0.6,15.3-1c0.3-0.1,0.6-0.3,0.6-0.6
			v-0.1c0-0.3-0.3-0.4-0.6-0.3c-1.2,0.4-4.8,1-15.1,1c-10.5,0-14.2-0.7-15.5-1.1C34.2,85.1,33.9,85.3,33.9,85.6L33.9,85.6z"/>
		<path class="st3" d="M64.9,25.3c0-0.1-0.1-0.3-0.2-0.3c-0.7-0.4-3.2-1.1-14.7-1.1c-10.7,0.1-13.8,0.7-14.7,1
			c-0.2,0.1-0.3,0.2-0.3,0.4v0.4c0,0.2,0.2,0.3,0.4,0.2c0.9-0.3,4-1,14.6-1c10.7,0,13.4,0.7,14.4,1.1c0.2,0.1,0.5,0,0.5-0.2
			L64.9,25.3z"/>
		<g>
			<path class="st3" d="M45.9,18l0.3-4.2c0-0.3,0.3-0.5,0.5-0.4l1.6,0.2c1.1,0.1,2.2,0.1,3.3,0l1.7-0.2c0.3,0,0.5,0.2,0.5,0.4
				l0.2,4.1L45.9,18z"/>
			<path class="st5" d="M45.9,18l0.3-4.2c0-0.1,0.1-0.2,0.3-0.2l1.1,0.2c1.6,0.3,3.2,0.3,4.8,0l1.1-0.2c0.1,0,0.3,0.1,0.3,0.2
				l0.2,4.1L45.9,18z"/>
			<path class="st6" d="M48.8,18.5H51V14l-0.9,0c-0.1,0-0.2,0-0.2,0l-1,0V18.5z"/>
			<path class="st5" d="M54.9,18.6h-10v-0.1c0-0.2,0.2-0.4,0.4-0.5l1.9-0.2c1.8-0.1,3.6-0.1,5.4,0l1.8,0.2c0.2,0,0.4,0.2,0.4,0.5
				V18.6z"/>
			<path class="st6" d="M48.4,18.6h2.9l-0.1-0.8c-0.9,0-1.9,0-2.8,0L48.4,18.6z"/>
			<rect x="49.7" y="14.1" class="st7" width="0.2" height="3.7"/>
			<rect x="50" y="17.8" class="st7" width="0.2" height="0.8"/>
		</g>
		<path class="st8" d="M57.7,19.7L57.7,19.7c0-0.5-0.5-0.9-1.1-1l-4.4-0.2c-1.5-0.1-2.9-0.1-4.4,0l-4.5,0.2c-0.6,0-1.1,0.4-1.1,1v0
			c0,0.5-0.4,0.8-0.9,1c-5.1,1.2,22.5,1.2,17.3,0C58,20.5,57.7,20.1,57.7,19.7z"/>
		<path class="st9" d="M38.5,29.1L38.5,29.1c-0.4,0-0.8,0.4-0.8,0.8v51.4c0,0.4,0.4,0.8,0.8,0.8h0c0.4,0,0.8-0.4,0.8-0.8V29.9
			C39.3,29.5,38.9,29.1,38.5,29.1z"/>
	</g>
	<g>
		<path class="st4" d="M57.7,19.7L57.7,19.7c0-0.5-0.5-0.9-1.1-1l-4.4-0.2c-1.5-0.1-2.9-0.1-4.4,0l-4.5,0.2c-0.6,0-1.1,0.4-1.1,1v0
			c0,0.5-0.4,0.8-0.9,1c-5.1,1.2-4.9,3.5-4.9,3.5v0.8L63.4,25l0-0.9c0,0,0.2-2.2-4.9-3.5C58,20.5,57.7,20.1,57.7,19.7z"/>
		<path class="st10" d="M64.5,85.8l-14.3,1l-14.9-1l0,0c-0.3-0.8-0.5-1.7-0.5-2.5V29.8c0-0.9,0.2-1.7,0.4-2.6l0.7-1.9l13.9-0.7
			l14,0.7l0.7,2c0.3,0.8,0.4,1.7,0.4,2.5v53.4C65,84.1,64.8,85,64.5,85.8L64.5,85.8z"/>
		<polygon class="st11" points="64,25.3 64,85.9 57.3,86.3 57.3,25 		"/>
		<polygon class="st12" points="64,25.3 64,85.9 62.5,86.3 62.5,25 		"/>
		<path class="st13" d="M33.5,85.4c0,0.5,0.2,0.9,0.6,1.1c1.3,0.5,5.1,1.4,15.8,1.3c10.9-0.1,14.4-0.9,15.6-1.3
			c0.3-0.1,0.6-0.5,0.6-0.9v-0.1c0-0.3-0.3-0.6-0.6-0.5c-1.2,0.5-4.9,1.3-15.5,1.3c-10.7,0-14.5-1-15.8-1.5
			c-0.3-0.1-0.7,0.1-0.7,0.5L33.5,85.4z"/>
		<path class="st13" d="M65.1,25.4c0-0.2-0.1-0.3-0.2-0.4c-0.7-0.5-3.3-1.5-15-1.3c-10.9,0.1-14.1,0.9-15,1.3
			c-0.2,0.1-0.4,0.3-0.4,0.6V26c0,0.2,0.2,0.3,0.4,0.2c0.9-0.4,4.1-1.3,14.9-1.2c10.9,0,13.6,0.9,14.7,1.4c0.2,0.1,0.5-0.1,0.5-0.3
			L65.1,25.4z"/>
		<g>
			<path class="st3" d="M45.9,18l0.3-4.2c0-0.3,0.3-0.5,0.5-0.4l1.6,0.2c1.1,0.1,2.2,0.1,3.3,0l1.7-0.2c0.3,0,0.5,0.2,0.5,0.4
				l0.2,4.1L45.9,18z"/>
			<path class="st5" d="M45.9,18l0.3-4.2c0-0.1,0.1-0.2,0.3-0.2l1.1,0.2c1.6,0.3,3.2,0.3,4.8,0l1.1-0.2c0.1,0,0.3,0.1,0.3,0.2
				l0.2,4.1L45.9,18z"/>
			<path class="st6" d="M48.8,18.5H51V14l-0.9,0c-0.1,0-0.2,0-0.2,0l-1,0V18.5z"/>
			<path class="st5" d="M54.9,18.6h-10v-0.1c0-0.2,0.2-0.4,0.4-0.5l1.9-0.2c1.8-0.1,3.6-0.1,5.4,0l1.8,0.2c0.2,0,0.4,0.2,0.4,0.5
				V18.6z"/>
			<path class="st6" d="M48.4,18.6h2.9l-0.1-0.8c-0.9,0-1.9,0-2.8,0L48.4,18.6z"/>
			<rect x="49.7" y="14.1" class="st7" width="0.2" height="3.7"/>
			<rect x="50" y="17.8" class="st7" width="0.2" height="0.8"/>
		</g>
		<path class="st8" d="M57.7,19.7L57.7,19.7c0-0.5-0.5-0.9-1.1-1l-4.4-0.2c-1.5-0.1-2.9-0.1-4.4,0l-4.5,0.2c-0.6,0-1.1,0.4-1.1,1v0
			c0,0.5-0.4,0.8-0.9,1c-5.1,1.2,22.5,1.2,17.3,0C58,20.5,57.7,20.1,57.7,19.7z"/>
		<path class="st9" d="M38.5,29.1L38.5,29.1c-0.4,0-0.8,0.4-0.8,0.8v51.4c0,0.4,0.4,0.8,0.8,0.8h0c0.4,0,0.8-0.4,0.8-0.8V29.9
			C39.3,29.5,38.9,29.1,38.5,29.1z"/>
	</g>
</g>
<g>
	<path class="st14" d="M83.5,96.4H16.2c-3.7,0-6.8-3.1-6.8-6.8L3.8,11c0-3.7,3.1-6.8,6.8-6.8h78.6c3.7,0,6.8,3.1,6.8,6.8l-5.7,78.6
		C90.3,93.4,87.2,96.4,83.5,96.4z"/>
</g>
<g class="st0">
	<path class="st15" d="M84.7,97.2H15.3c-3.9,0-7-3.2-7-7L2.4,9.8c0-3.9,3.2-7,7-7h81.1c3.9,0,7,3.2,7,7l-5.8,80.4
		C91.7,94.1,88.6,97.2,84.7,97.2z"/>
</g>
<path class="st16" d="M78,38.2l-13.2-1.3c-10.3-1-20.7,0.4-30.3,4.1l-16,6.2c-4.4,1.7-9.2-1.4-9.5-6L7.4,16
	c-0.3-4.6,3.3-8.4,7.9-8.4h73.5c2,0,3.6,1.7,3.5,3.7l-1,15.6C90.8,33.8,84.8,38.9,78,38.2z"/>
</svg>
