<?xml version="1.0" encoding="utf-8"?>
<!-- Generator: Adobe Illustrator 26.0.2, SVG Export Plug-In . SVG Version: 6.00 Build 0)  -->
<svg version="1.1" id="Layer_1" xmlns="http://www.w3.org/2000/svg" xmlns:xlink="http://www.w3.org/1999/xlink" x="0px" y="0px"
	 viewBox="0 0 100 100" style="enable-background:new 0 0 100 100;" xml:space="preserve">
<style type="text/css">
	.st0{enable-background:new    ;}
	.st1{fill:url(#SVGID_1_);}
	.st2{fill:#43ADAF;}
	.st3{fill:#142C4D;}
	.st4{fill:#5656C1;}
	.st5{opacity:0.3;fill:#FFFFFF;enable-background:new    ;}
	.st6{fill:#7C7679;}
	.st7{fill:#168989;}
	.st8{fill:#AEDCDD;}
	.st9{opacity:0.34;}
	.st10{fill:#3F3A3D;}
	.st11{opacity:0.41;}
	.st12{fill:none;stroke:#00A7CD;stroke-width:4.8936;stroke-miterlimit:10;}
	.st13{fill:none;stroke:#FAFCFF;stroke-width:2.5862;stroke-miterlimit:10;}
	.st14{opacity:0.16;fill:#FFFFFF;enable-background:new    ;}
	.st15{fill:#EC2605;}
	.st16{fill:#515153;}
	.st17{fill:#F8F8F8;}
	.st18{fill:#2C2C2C;}
	.st19{fill:#050505;}
	.st20{fill:#A3A3A3;}
	.st21{fill:#C3C7C9;}
	.st22{opacity:0.4;fill:#FFFFFF;}
</style>
<g class="st0">
	
		<linearGradient id="SVGID_1_" gradientUnits="userSpaceOnUse" x1="49.8" y1="-0.277" x2="49.8" y2="97.5378" gradientTransform="matrix(1 0 0 -1 0 102)">
		<stop  offset="0.4735" style="stop-color:#A3DFED"/>
		<stop  offset="0.4794" style="stop-color:#5DD1E8"/>
	</linearGradient>
	<path class="st1" d="M84.1,97.2H15.6c-3.8,0-6.9-3.1-6.9-6.9l-5.8-80c0-3.8,3.1-6.9,6.9-6.9h80c3.8,0,6.9,3.1,6.9,6.9l-5.8,80
		C91,94.1,87.9,97.2,84.1,97.2z"/>
</g>
<g id="eBikeHandles_00000044899175088111284820000005264886752099291545_">
	<g>
		<g>
			<path class="st2" d="M329.2,33.7c-0.3,0-0.6-0.1-0.8-0.3c0,0-0.1-0.1-0.2-0.1c-0.5-0.1-0.9-0.3-1-0.8l-0.1-0.3l0.2-0.3l0.3-0.5
				c-1,0.2-2.1,0.2-3,0.2c-1.4,0-2.7-0.2-4-0.6c-0.3-0.1-0.6-0.3-0.8-0.6c-0.2-0.3-0.2-0.7-0.1-1c0.1-0.2,0.2-0.5,0.5-0.7
				c0.2-0.2,0.6-0.2,0.8-0.2c0.1,0,0.2,0,0.3,0c1.2,0.3,2.4,0.5,3.6,0.5c2.1,0,4.3-0.5,6.7-1.3c0.1,0,0.3-0.1,0.5-0.1
				c0.5,0,0.8,0.2,1,0.6c0.3,0.5,0.3,1.2,0,1.6l-2.8,3.5C329.9,33.6,329.5,33.7,329.2,33.7z"/>
			<path class="st3" d="M331.9,28.4c0.2,0,0.3,0.1,0.5,0.2c0.1,0.2,0.1,0.5,0,0.7l-2.8,3.5c-0.1,0.1-0.2,0.2-0.4,0.2
				c-0.1,0-0.2,0-0.3-0.1c-0.2-0.2-1.2-0.3-1-0.7l1.8-2.2c-1.8,0.6-3.5,0.8-5.1,0.8c-1.3,0-2.5-0.2-3.9-0.6
				c-0.3-0.1-0.5-0.3-0.5-0.7c0-0.1,0.1-0.2,0.2-0.3s0.2-0.1,0.3-0.1h0.1c1.3,0.3,2.5,0.5,3.8,0.5c2.2,0,4.5-0.5,6.9-1.4
				C331.8,28.4,331.9,28.4,331.9,28.4 M331.9,26.9L331.9,26.9L331.9,26.9c-0.2,0-0.5,0-0.7,0.1c-2.3,0.8-4.4,1.3-6.5,1.3
				c-1.2,0-2.3-0.1-3.5-0.5c-0.1,0-0.3-0.1-0.6-0.1c-0.5,0-0.9,0.1-1.3,0.5c-0.3,0.2-0.6,0.7-0.7,1.2c-0.1,0.6-0.1,1,0.2,1.6
				c0.2,0.5,0.7,0.8,1.3,0.9c1.5,0.3,2.9,0.6,4.3,0.6c0.6,0,1.2,0,1.6-0.1c0,0.1,0,0.3,0,0.5c0.2,0.8,0.9,1.2,1.5,1.4
				c0,0,0.1,0,0.1,0.1c0.3,0.2,0.8,0.3,1.2,0.3c0.6,0,1.3-0.2,1.6-0.8l2.8-3.5c0.6-0.7,0.6-1.7,0.1-2.5
				C333.2,27.2,332.6,26.9,331.9,26.9L331.9,26.9L331.9,26.9z"/>
		</g>
	</g>
	<g>
		<path class="st4" d="M334.2,35.4L334.2,35.4l-5.5-1.2c-0.1,0-0.2-0.1-0.3-0.2l-1.8-2.4c-0.1-0.2-0.1-0.5,0-0.7
			c0.1-0.2,0.3-0.3,0.6-0.3c0,0,0,0,0.1,0l4.8,0.6c0.1,0,0.3,0.1,0.5,0.2l2.4,3c0.1,0.2,0.2,0.5,0,0.7
			C334.7,35.3,334.5,35.4,334.2,35.4z"/>
		<path class="st3" d="M327,31.2l4.8,0.6l2.4,3l-5.4-1.2L327,31.2 M327,29.9c-0.5,0-0.9,0.2-1.2,0.7c-0.2,0.5-0.2,1,0.1,1.4l1.8,2.4
			c0.2,0.2,0.5,0.5,0.7,0.5l5.4,1.2c0.1,0,0.2,0,0.2,0c0.5,0,0.8-0.2,1-0.6c0.2-0.5,0.2-1-0.1-1.5l-2.4-3c-0.2-0.2-0.5-0.5-0.8-0.5
			L327,29.9C327.1,29.9,327.1,29.9,327,29.9L327,29.9z"/>
	</g>
	<polygon class="st5" points="327,31.2 331.8,31.7 334.2,34.8 328.8,33.6 	"/>
	<g>
		<g>
			<path class="st6" d="M336.9,36.2c-1-1.4-2.9-1.7-4.4-0.8l-20.4,13.4c-1.3,0.8-1.7,2.3-1.4,3.6l-0.1-0.1c-1-1.5-0.6-3.5,0.9-4.5
				l20.4-13.4c1.5-1,3.5-0.6,4.5,0.9C336.7,35.7,336.9,35.9,336.9,36.2z"/>
		</g>
		<path d="M335.6,39.8l-20.4,13.4c-0.6,0.3-1.2,0.6-1.7,0.6c-1,0-2-0.5-2.7-1.3l0,0c-0.3-1.4,0.1-2.8,1.4-3.6l20.3-13.5
			c1.4-0.9,3.3-0.6,4.4,0.8C337.3,37.5,336.9,39,335.6,39.8z"/>
		<path d="M335.6,39.8l-20.4,13.4c-0.6,0.3-1.2,0.6-1.7,0.6c-1,0-2-0.5-2.7-1.3l0,0c-0.3-1.4,0.1-2.8,1.4-3.6l20.3-13.5
			c1.4-0.9,3.3-0.6,4.4,0.8C337.3,37.5,336.9,39,335.6,39.8z"/>
		<g>
			<path class="st6" d="M321.2,64.1c-0.6-1.4-0.1-2.9,0.9-3.7l11.7-9.4l-2.5-10.6l-18.2,0.1c-1.8,0-3.2-1.5-3.2-3.2s1.4-3.2,3.2-3.2
				l20.7-0.1c1.5,0,2.8,1,3.1,2.5l3.6,15.1c0.3,1.2-0.1,2.5-1.2,3.2L328,64l2.7,6.6l-6.3,1.8L321.2,64.1z"/>
			<path class="st3" d="M333.8,34.6c1.2,0,2.2,0.8,2.4,2l3.6,15.1c0.2,0.9-0.1,2-0.8,2.5l-11.8,9.6l2.7,6.3l-1.2,0.3l-3.7,1
				l-3.1-7.6c-0.5-1-0.1-2.2,0.7-2.9l12-9.7l-2.8-11.6L313,39.7l0,0c-1.4,0-2.5-1.2-2.5-2.5s1.2-2.5,2.4-2.5L333.8,34.6L333.8,34.6
				 M333.8,33.1L333.8,33.1l-20.9,0.1c-1,0-2.1,0.5-2.8,1.2c-0.7,0.8-1.2,1.7-1.2,2.8c0,2.2,1.8,3.9,4,3.9l17.8-0.1l2.3,9.6
				l-11.3,9.1c-1.4,1.2-1.8,3-1.2,4.6l3.1,7.6l0.5,1.3l1.3-0.3l3.7-1l1.2-0.3l1.6-0.5l-0.6-1.5l-2.2-5.3l10.9-8.9
				c1.2-0.9,1.7-2.5,1.4-4l-3.6-15.1C337.2,34.4,335.6,33.1,333.8,33.1L333.8,33.1z"/>
		</g>
		<g>
			<path class="st2" d="M312.7,39.8c-0.7,0-1.3-0.2-1.8-0.6c-0.9-0.6-1.5-1.6-1.5-2.7v-0.2l0,0c0-0.9,0.3-1.7,0.9-2.3
				c0.6-0.7,1.5-1,2.4-1l20.5-0.1c1.8,0,3.3,1.5,3.3,3.3c0,0.3,0,0.7-0.1,0.9c-0.3,1.4-1.7,2.4-3.2,2.4L312.7,39.8z"/>
			<path class="st3" d="M333.2,33.6c1.5,0,2.8,1.2,2.8,2.8c0,0.2,0,0.6-0.1,0.8c-0.3,1.2-1.4,2-2.7,2l-20.5,0.1l0,0
				c-0.6,0-1-0.1-1.5-0.5c-0.7-0.5-1.2-1.3-1.3-2.2l0,0v-0.1c0-1.5,1.2-2.8,2.8-2.8L333.2,33.6L333.2,33.6 M333.2,32.3L333.2,32.3
				L333.2,32.3l-20.5,0.1c-1,0-2.1,0.5-2.8,1.2s-1,1.6-1.2,2.5l0,0v0.5c0.1,1.3,0.7,2.4,1.8,3.1c0.7,0.5,1.4,0.7,2.2,0.7l20.5-0.1
				c1.7,0,3.3-1.2,3.8-2.9c0.1-0.3,0.1-0.7,0.1-1.2C337.2,34.2,335.4,32.3,333.2,32.3L333.2,32.3z"/>
		</g>
		<path class="st7" d="M336,36.3c0,0.2,0,0.6-0.1,0.8c-0.3,1.2-1.4,2-2.7,2l-20.5,0.1c-0.6,0-1-0.1-1.5-0.5c-0.5-0.3-0.9-0.8-1-1.4
			c0.3,0.2,0.8,0.2,1.3,0.2l21.7-0.1c1.3,0,2.4-0.8,2.8-2l0,0C336,35.9,336,36.1,336,36.3z"/>
		<g>
			<path class="st8" d="M336,36.3c0,0.2,0,0.5-0.1,0.8c-0.3-1.2-1.4-2-2.7-2l-20.5,0.1c-1.3,0-2.3,0.8-2.7,2c0-0.2-0.1-0.3-0.1-0.6
				l0,0v-0.1c0-1.5,1.2-2.8,2.8-2.8l20.5-0.1C334.7,33.6,336,34.8,336,36.3z"/>
		</g>
		<g class="st9">
			<path class="st10" d="M339,54.1l-11.8,9.6l2.7,6.3l-1.2,0.3l-3-7.1l11.8-9.6c0.7-0.6,1-1.6,0.8-2.5L334.7,36
				c-0.1-0.6-0.5-1-0.9-1.4c1.2,0,2.2,0.8,2.4,2l3.6,15.1C340.1,52.5,339.8,53.5,339,54.1z"/>
		</g>
		<g>
			<path class="st2" d="M313.5,54.4c-1.3,0-2.4-0.6-3.2-1.6l-0.1-0.2l0,0c-0.6-0.9-0.8-2-0.6-3c0.2-1,0.8-2,1.7-2.5l20.4-13.4
				c0.7-0.5,1.4-0.7,2.2-0.7c1.4,0,2.7,0.7,3.3,1.8c0.2,0.3,0.3,0.7,0.5,1c0.5,1.6-0.1,3.5-1.6,4.5l-20.4,13.6
				C315,54.2,314.2,54.4,313.5,54.4z"/>
			<path class="st3" d="M333.8,33.9c1,0,2.1,0.5,2.7,1.5c0.2,0.2,0.3,0.6,0.3,0.8c0.5,1.4-0.1,2.9-1.3,3.7l-20.4,13.4
				c-0.6,0.3-1.2,0.6-1.7,0.6c-1,0-2-0.5-2.7-1.3l0,0l-0.1-0.1c-1-1.5-0.6-3.5,0.9-4.5l20.4-13.4C332.6,34,333.2,33.9,333.8,33.9
				 M333.8,32.4L333.8,32.4c-0.9,0-1.8,0.2-2.7,0.8l-20.4,13.4c-1,0.7-1.7,1.7-2.1,3c-0.2,1.2,0,2.3,0.6,3.3l0,0l0.2,0.3
				c0.9,1.3,2.3,2,3.8,2c0.9,0,1.8-0.2,2.5-0.8L336.1,41c1.7-1.2,2.5-3.3,2-5.3c-0.1-0.5-0.3-0.8-0.6-1.3
				C336.9,33.2,335.4,32.4,333.8,32.4L333.8,32.4z"/>
		</g>
		<g>
			<path class="st8" d="M336.2,35c-1-0.5-2.2-0.5-3.2,0.2l-20.4,13.4c-1.5,1-2,3-0.9,4.5l0.1,0.1l0,0c0,0.1,0.1,0.1,0.2,0.2
				c-0.5-0.2-0.8-0.6-1.2-0.9l0,0l-0.1-0.1c-1-1.5-0.6-3.5,0.9-4.5L332,34.5C333.4,33.5,335.2,33.8,336.2,35z"/>
		</g>
		<path class="st7" d="M335.6,39.8l-20.4,13.4c-0.6,0.3-1.2,0.6-1.7,0.6c-0.2,0-0.5,0-0.7-0.1c-0.3-1.4,0.1-2.9,1.4-3.7l20.4-13.4
			c0.7-0.5,1.6-0.6,2.4-0.5C337.3,37.5,336.8,39,335.6,39.8z"/>
		<g>
			<path class="st4" d="M331.2,43.6c-0.2,0-0.3-0.1-0.6-0.2c-0.1-0.1-0.2-0.4-0.2-0.6v-2.7c0-0.3,0.1-0.6,0.5-0.7l6.3-3
				c0.1,0,0.2-0.1,0.3-0.1s0.2,0,0.3,0.1c0.2,0.1,0.3,0.3,0.3,0.6l0.3,5.5c0,0.2-0.1,0.3-0.2,0.6c-0.1,0.1-0.3,0.2-0.6,0.2
				C337.9,43.5,331.2,43.6,331.2,43.6z"/>
			<g>
				<path class="st3" d="M337.6,37.1l0.3,5.5l-6.7,0.2v-2.7L337.6,37.1 M337.6,35.7c-0.2,0-0.5,0-0.7,0.1l-6.3,3
					c-0.6,0.2-0.8,0.8-0.8,1.4v2.7c0,0.5,0.1,0.8,0.5,1c0.2,0.2,0.7,0.5,1,0.5l0,0l6.7-0.2c0.5,0,0.8-0.2,1-0.5s0.5-0.7,0.3-1.2
					L339,37c0-0.5-0.3-0.9-0.7-1.2C338.2,35.8,337.9,35.7,337.6,35.7L337.6,35.7z"/>
			</g>
		</g>
		<g class="st11">
			<polygon class="st10" points="331.2,40.1 331.2,42.9 337.2,42.9 337.6,41.2 			"/>
		</g>
		<g>
			<path class="st2" d="M313.4,54.2c-0.5,0-0.8-0.1-1.3-0.2c-1.7-0.7-2.8-2.8-2.3-4.5c0.3-1.4,1.5-2.3,2.8-2.3
				c0.5,0,0.8,0.1,1.3,0.2c1.7,0.7,2.8,2.8,2.3,4.5C315.9,53.3,314.8,54.2,313.4,54.2z"/>
			<path class="st3" d="M312.7,47.8c0.3,0,0.7,0.1,1,0.2c1.4,0.6,2.3,2.3,2,3.8c-0.2,1.2-1.2,1.8-2.2,1.8c-0.3,0-0.7-0.1-1-0.2
				c-1.4-0.6-2.3-2.3-2-3.8C310.7,48.4,311.6,47.8,312.7,47.8 M312.7,46.4L312.7,46.4c-1.7,0-3.1,1.2-3.5,2.9
				c-0.5,2.1,0.7,4.5,2.7,5.3c0.5,0.2,1,0.3,1.5,0.3c1.7,0,3.1-1.2,3.5-2.9c0.5-2.1-0.7-4.5-2.7-5.3
				C313.7,46.5,313.1,46.4,312.7,46.4L312.7,46.4z"/>
		</g>
		<ellipse transform="matrix(0.8924 -0.4513 0.4513 0.8924 10.8415 146.6991)" class="st7" cx="313" cy="50.6" rx="2.5" ry="3"/>
	</g>
	<g>
		<g>
			<path class="st2" d="M329.9,52.1c-0.3,0-0.7-0.1-0.9-0.2c-0.3-0.2-0.6-0.6-0.7-1c-0.1-0.5,0-0.9,0.2-1.3c2.4-3.7,5.2-6.3,9.3-8.6
				l-2.3-0.2c-0.3,0-0.6-0.2-0.7-0.5c-0.2-0.5,0-1,0.3-1.7c0.1-0.2,0.2-0.5,0.2-0.6c0.1-0.8,0.8-1.4,1.6-1.4c0.1,0,0.2,0,0.2,0
				l7.3,1.2c0.7,0.1,1.3,0.7,1.4,1.5c0.1,0.7-0.3,1.5-1,1.7c-6.2,2.5-10.6,6-13.6,10.5C330.9,51.8,330.4,52.1,329.9,52.1L329.9,52.1
				z"/>
			<path class="st3" d="M336.9,37.3h0.1l7.3,1.2c0.5,0.1,0.7,0.3,0.8,0.8c0,0.5-0.2,0.8-0.6,0.9c-6.3,2.7-10.9,6.1-13.9,10.8
				c-0.1,0.2-0.5,0.3-0.7,0.5c0,0,0,0-0.1,0c-0.2,0-0.3,0-0.5-0.1c-0.5-0.2-0.6-0.8-0.2-1.3c2.8-4.3,5.9-6.9,11.2-9.6l-4.7-0.6
				c-0.5-0.1,0.5-1.4,0.5-1.8C336.1,37.6,336.4,37.3,336.9,37.3 M336.9,35.8L336.9,35.8c-1.2,0-2.2,0.8-2.4,2c0,0.1-0.1,0.2-0.2,0.3
				c-0.3,0.7-0.7,1.5-0.3,2.4c0.2,0.5,0.7,0.8,1.3,0.9l0,0l0,0h0.1c-3.2,2.1-5.5,4.5-7.7,7.7c-0.3,0.6-0.5,1.2-0.3,1.8
				c0.1,0.6,0.5,1.2,1,1.5c0.3,0.2,0.8,0.3,1.3,0.3h0.1c0.8,0,1.5-0.5,1.8-1c2.9-4.4,7.1-7.7,13.3-10.3c1-0.5,1.6-1.5,1.5-2.5
				s-0.9-2-2.1-2.1L336.9,35.8C337.1,35.8,337,35.8,336.9,35.8L336.9,35.8z"/>
		</g>
	</g>
	<g>
		<path class="st4" d="M335.9,41l-4.5-0.5c-0.3,0-0.6-0.2-0.7-0.6c-0.1-0.4,0.1-0.6,0.3-0.8l5.5-3.5c0.1-0.1,0.2-0.1,0.3-0.1h0.1
			l3.5,0.5c0.3,0,0.6,0.2,0.6,0.6s0,0.6-0.2,0.8l-4.5,3.5C336.3,40.8,336.1,41,335.9,41C336,41,335.9,41,335.9,41z"/>
		<path class="st3" d="M336.9,36.2l3.5,0.5l-4.5,3.5l-4.5-0.5L336.9,36.2 M336.9,34.7c-0.2,0-0.6,0.1-0.8,0.2l-5.5,3.5
			c-0.6,0.3-0.8,1-0.7,1.6s0.7,1,1.3,1.2l4.5,0.5h0.1c0.3,0,0.7-0.1,0.9-0.3l4.5-3.5c0.5-0.3,0.7-1,0.6-1.6c-0.1-0.6-0.7-1-1.3-1.2
			l-3.5-0.5C337.1,34.7,337,34.7,336.9,34.7L336.9,34.7z"/>
	</g>
	<polygon class="st5" points="340.5,36.7 331.5,39.7 336.9,36.2 	"/>
</g>
<g>
	<path class="st12" d="M83.5,96.4H16.2c-3.7,0-6.8-3.1-6.8-6.8L3.8,11c0-3.7,3.1-6.8,6.8-6.8h78.6c3.7,0,6.8,3.1,6.8,6.8l-5.7,78.6
		C90.3,93.4,87.2,96.4,83.5,96.4z"/>
</g>
<g class="st0">
	<path class="st13" d="M84.7,97.2H15.3c-3.9,0-7-3.2-7-7L2.4,9.8c0-3.9,3.2-7,7-7h81.1c3.9,0,7,3.2,7,7l-5.8,80.4
		C91.7,94.1,88.6,97.2,84.7,97.2z"/>
</g>
<path class="st14" d="M78,38.2l-13.2-1.3c-10.3-1-20.7,0.4-30.3,4.1l-16,6.2c-4.4,1.7-9.2-1.4-9.5-6L7.4,16
	c-0.3-4.6,3.3-8.4,7.9-8.4h73.5c2,0,3.6,1.7,3.5,3.7l-1,15.6C90.8,33.8,84.8,38.9,78,38.2z"/>
<g>
	<g>
		<g>
			<path class="st15" d="M175.1,139.2l-0.1-0.4c-0.8-2.1-1.2-4.3-1.2-6.4V0.4c0-2.2,0.4-4.4,1.1-6.5l1.9-5.2l34.6-1.7l35,1.7
				l1.9,5.3c0.7,2.1,1.1,4.3,1.1,6.4v131.7c0,2.2-0.4,4.5-1.2,6.6l-0.1,0.4l-35.8,2.4L175.1,139.2z"/>
			<path class="st16" d="M211.4-12.3l34.5,1.7l1.8,4.9c0.7,2,1.1,4.1,1.1,6.2v131.7c0,2.2-0.4,4.3-1.1,6.4l-35.3,2.4l-36.7-2.4
				c-0.8-2-1.1-4.1-1.1-6.2V0.4c0-2.1,0.4-4.3,1.1-6.3l1.8-4.8L211.4-12.3 M211.4-13.6L211.4-13.6l-34.2,1.7l-0.9,0l-0.3,0.8
				l-1.8,4.8c-0.8,2.2-1.2,4.5-1.2,6.8v131.9c0,2.3,0.4,4.5,1.2,6.7l0.3,0.8l0.8,0.1l36.7,2.4l0.1,0l0.1,0l35.3-2.4l0.8-0.1l0.3-0.8
				c0.8-2.2,1.2-4.5,1.2-6.8V0.5c0-2.2-0.4-4.5-1.1-6.6l-1.8-4.9l-0.3-0.8l-0.9,0L211.4-13.6L211.4-13.6L211.4-13.6z"/>
		</g>
		<path class="st17" d="M230.8-24.6L230.8-24.6c0-1.3-1.2-2.3-2.7-2.4l-10.9-0.4c-3.6-0.1-7.2-0.1-10.8,0l-11.1,0.4
			c-1.5,0.1-2.7,1.1-2.7,2.4v0c0,1.1-0.9,2.1-2.2,2.4c-12.6,3-12,8.5-12,8.5v1.9l66.8,0.3l0-2.2c0,0,0.6-5.5-12-8.5
			C231.7-22.5,230.8-23.5,230.8-24.6z"/>
		<path class="st16" d="M172,138c-0.1,0.8,0.6,1.6,1.5,1.9c3.1,1,12.2,2.5,38.1,2.3c26.2-0.2,34.8-1.6,37.7-2.4
			c0.8-0.2,1.4-0.9,1.4-1.5v-0.1c0-0.6-0.8-1-1.5-0.8c-3,0.9-11.7,2.4-37.3,2.4c-25.9-0.1-35-1.7-38.2-2.7c-0.8-0.2-1.6,0.2-1.7,0.9
			L172,138z"/>
		<path class="st16" d="M248.5-10.6c0-0.3-0.2-0.7-0.5-0.9c-1.8-0.9-8-2.8-36.2-2.6c-26.5,0.2-34.1,1.7-36.2,2.4
			c-0.5,0.2-0.9,0.6-0.9,1.1v1c0,0.4,0.5,0.6,0.9,0.5c2.2-0.9,9.8-2.5,36.1-2.4c26.4,0.1,33,1.8,35.6,2.8c0.5,0.2,1.2-0.1,1.2-0.6
			L248.5-10.6z"/>
		<g>
			<path class="st16" d="M201.6-28.8l0.7-10.2c0-0.6,0.6-1.1,1.3-1l3.9,0.5c2.7,0.3,5.4,0.3,8.1,0l4.1-0.5c0.7-0.1,1.2,0.4,1.3,1.1
				l0.5,10.1L201.6-28.8z"/>
			<path class="st18" d="M201.6-28.8l0.7-10.2c0-0.3,0.3-0.6,0.7-0.5l2.7,0.5c3.9,0.7,7.8,0.7,11.7,0.1l2.8-0.5
				c0.3-0.1,0.7,0.2,0.7,0.5l0.6,10.1L201.6-28.8z"/>
			<path class="st19" d="M208.9-27.4h5.3v-11.2l-2.3,0.1c-0.2,0-0.4,0-0.6,0l-2.5-0.1V-27.4z"/>
			<path class="st18" d="M223.9-27.3h-24.6v-0.3c0-0.6,0.4-1.1,1-1.1l4.6-0.4c4.5-0.2,8.9-0.2,13.4,0l4.5,0.4c0.6,0.1,1,0.5,1,1.1
				V-27.3z"/>
			<path class="st19" d="M208-27.3h7.2l-0.2-1.9c-2.3-0.1-4.6-0.1-7,0L208-27.3z"/>
			<rect x="211.1" y="-38.4" class="st20" width="0.4" height="9.2"/>
			<rect x="211.8" y="-29.2" class="st20" width="0.6" height="1.9"/>
		</g>
		<path class="st21" d="M230.8-24.6L230.8-24.6c0-1.3-1.2-2.3-2.7-2.4l-10.9-0.4c-3.6-0.1-7.2-0.1-10.8,0l-11.1,0.4
			c-1.5,0.1-2.7,1.1-2.7,2.4v0c0,1.1-0.9,2.1-2.2,2.4c-12.6,3,55.4,3,42.7,0C231.7-22.5,230.8-23.5,230.8-24.6z"/>
		<path class="st22" d="M183.7-1.4h-0.4c-1,0-1.8,0.8-1.8,1.8v127.1c0,1,0.8,1.8,1.8,1.8h0.4c1,0,1.8-0.8,1.8-1.8V0.4
			C185.4-0.6,184.6-1.4,183.7-1.4z"/>
	</g>
	<g>
		<g>
			<path class="st15" d="M175.1,139.2l-0.1-0.4c-0.8-2.1-1.2-4.3-1.2-6.4V0.4c0-2.2,0.4-4.4,1.1-6.5l1.9-5.2l34.6-1.7l35,1.7
				l1.9,5.3c0.7,2.1,1.1,4.3,1.1,6.4v131.7c0,2.2-0.4,4.5-1.2,6.6l-0.1,0.4l-35.8,2.4L175.1,139.2z"/>
			<path class="st16" d="M211.4-12.3l34.5,1.7l1.8,4.9c0.7,2,1.1,4.1,1.1,6.2v131.7c0,2.2-0.4,4.3-1.1,6.4l-35.3,2.4l-36.7-2.4
				c-0.8-2-1.1-4.1-1.1-6.2V0.4c0-2.1,0.4-4.3,1.1-6.3l1.8-4.8L211.4-12.3 M211.4-13.6L211.4-13.6l-34.2,1.7l-0.9,0l-0.3,0.8
				l-1.8,4.8c-0.8,2.2-1.2,4.5-1.2,6.8v131.9c0,2.3,0.4,4.5,1.2,6.7l0.3,0.8l0.8,0.1l36.7,2.4l0.1,0l0.1,0l35.3-2.4l0.8-0.1l0.3-0.8
				c0.8-2.2,1.2-4.5,1.2-6.8V0.5c0-2.2-0.4-4.5-1.1-6.6l-1.8-4.9l-0.3-0.8l-0.9,0L211.4-13.6L211.4-13.6L211.4-13.6z"/>
		</g>
		<path class="st17" d="M230.8-24.6L230.8-24.6c0-1.3-1.2-2.3-2.7-2.4l-10.9-0.4c-3.6-0.1-7.2-0.1-10.8,0l-11.1,0.4
			c-1.5,0.1-2.7,1.1-2.7,2.4v0c0,1.1-0.9,2.1-2.2,2.4c-12.6,3-12,8.5-12,8.5v1.9l66.8,0.3l0-2.2c0,0,0.6-5.5-12-8.5
			C231.7-22.5,230.8-23.5,230.8-24.6z"/>
		<path class="st16" d="M172,138c-0.1,0.8,0.6,1.6,1.5,1.9c3.1,1,12.2,2.5,38.1,2.3c26.2-0.2,34.8-1.6,37.7-2.4
			c0.8-0.2,1.4-0.9,1.4-1.5v-0.1c0-0.6-0.8-1-1.5-0.8c-3,0.9-11.7,2.4-37.3,2.4c-25.9-0.1-35-1.7-38.2-2.7c-0.8-0.2-1.6,0.2-1.7,0.9
			L172,138z"/>
		<path class="st16" d="M248.5-10.6c0-0.3-0.2-0.7-0.5-0.9c-1.8-0.9-8-2.8-36.2-2.6c-26.5,0.2-34.1,1.7-36.2,2.4
			c-0.5,0.2-0.9,0.6-0.9,1.1v1c0,0.4,0.5,0.6,0.9,0.5c2.2-0.9,9.8-2.5,36.1-2.4c26.4,0.1,33,1.8,35.6,2.8c0.5,0.2,1.2-0.1,1.2-0.6
			L248.5-10.6z"/>
		<g>
			<path class="st16" d="M201.6-28.8l0.7-10.2c0-0.6,0.6-1.1,1.3-1l3.9,0.5c2.7,0.3,5.4,0.3,8.1,0l4.1-0.5c0.7-0.1,1.2,0.4,1.3,1.1
				l0.5,10.1L201.6-28.8z"/>
			<path class="st18" d="M201.6-28.8l0.7-10.2c0-0.3,0.3-0.6,0.7-0.5l2.7,0.5c3.9,0.7,7.8,0.7,11.7,0.1l2.8-0.5
				c0.3-0.1,0.7,0.2,0.7,0.5l0.6,10.1L201.6-28.8z"/>
			<path class="st19" d="M208.9-27.4h5.3v-11.2l-2.3,0.1c-0.2,0-0.4,0-0.6,0l-2.5-0.1V-27.4z"/>
			<path class="st18" d="M223.9-27.3h-24.6v-0.3c0-0.6,0.4-1.1,1-1.1l4.6-0.4c4.5-0.2,8.9-0.2,13.4,0l4.5,0.4c0.6,0.1,1,0.5,1,1.1
				V-27.3z"/>
			<path class="st19" d="M208-27.3h7.2l-0.2-1.9c-2.3-0.1-4.6-0.1-7,0L208-27.3z"/>
			<rect x="211.1" y="-38.4" class="st20" width="0.4" height="9.2"/>
			<rect x="211.8" y="-29.2" class="st20" width="0.6" height="1.9"/>
		</g>
		<path class="st21" d="M230.8-24.6L230.8-24.6c0-1.3-1.2-2.3-2.7-2.4l-10.9-0.4c-3.6-0.1-7.2-0.1-10.8,0l-11.1,0.4
			c-1.5,0.1-2.7,1.1-2.7,2.4v0c0,1.1-0.9,2.1-2.2,2.4c-12.6,3,55.4,3,42.7,0C231.7-22.5,230.8-23.5,230.8-24.6z"/>
		<path class="st22" d="M183.7-1.4h-0.4c-1,0-1.8,0.8-1.8,1.8v127.1c0,1,0.8,1.8,1.8,1.8h0.4c1,0,1.8-0.8,1.8-1.8V0.4
			C185.4-0.6,184.6-1.4,183.7-1.4z"/>
	</g>
</g>
</svg>
