<?xml version="1.0" encoding="utf-8"?>
<!-- Generator: Adobe Illustrator 26.0.2, SVG Export Plug-In . SVG Version: 6.00 Build 0)  -->
<svg version="1.1" id="Layer_1" xmlns="http://www.w3.org/2000/svg" xmlns:xlink="http://www.w3.org/1999/xlink" x="0px" y="0px"
	 viewBox="0 0 100 100" style="enable-background:new 0 0 100 100;" xml:space="preserve">
<style type="text/css">
	.st0{enable-background:new    ;}
	.st1{fill:url(#SVGID_1_);}
	.st2{fill:#C9C5C7;}
	.st3{fill:#142C4D;}
	.st4{opacity:0.5;}
	.st5{fill:#565254;}
	.st6{fill:#A09A9D;}
	.st7{fill:#7C7679;}
	.st8{fill:#3A3739;}
	.st9{fill:#EE0000;}
	.st10{fill:#AEDCDD;}
	.st11{opacity:0.3;}
	.st12{fill:#565254;stroke:#142C4D;stroke-width:1.802;stroke-linecap:round;stroke-linejoin:round;stroke-miterlimit:10;}
	.st13{fill:none;stroke:#00A7CD;stroke-width:4.8936;stroke-miterlimit:10;}
	.st14{fill:none;stroke:#FAFCFF;stroke-width:2.5862;stroke-miterlimit:10;}
	.st15{opacity:0.16;fill:#FFFFFF;}
</style>
<g>
	<g class="st0">
		<linearGradient id="SVGID_1_" gradientUnits="userSpaceOnUse" x1="49.8643" y1="102.277" x2="49.8643" y2="4.4622">
			<stop  offset="0.4735" style="stop-color:#A3DFED"/>
			<stop  offset="0.4794" style="stop-color:#5DD1E8"/>
		</linearGradient>
		<path class="st1" d="M84.1,97.2H15.6c-3.8,0-6.9-3.1-6.9-6.9l-5.8-80c0-3.8,3.1-6.9,6.9-6.9h80c3.8,0,6.9,3.1,6.9,6.9l-5.8,80
			C91,94.1,87.9,97.2,84.1,97.2z"/>
	</g>
	<g id="lowRiderSaddle_00000139276480956769627430000009147234140689244843_">
		<g>
			<g>
				<g>
					<path class="st2" d="M56.5,63.7c-1.3,0-2.4-0.8-2.8-2l-2.4-7.4c-0.2-0.7-0.2-1.5,0.2-2.2s1-1.2,1.7-1.5
						c0.3-0.1,0.6-0.1,0.9-0.1c1.3,0,2.4,0.8,2.8,2l2.4,7.4c0.2,0.7,0.2,1.5-0.2,2.2s-1,1.2-1.7,1.5C57.1,63.6,56.8,63.7,56.5,63.7z
						"/>
					<path class="st3" d="M54,51.1c0.9,0,1.8,0.6,2.1,1.6l2.4,7.4c0.4,1.2-0.3,2.5-1.4,2.8C56.9,63,56.6,63,56.4,63
						c-0.9,0-1.8-0.6-2.1-1.6L51.9,54c-0.4-1.2,0.3-2.5,1.4-2.8C53.6,51.1,53.8,51.1,54,51.1 M54,49.8L54,49.8
						c-0.4,0-0.8,0.1-1.1,0.2c-1.9,0.6-2.9,2.7-2.3,4.5l2.4,7.4c0.5,1.5,1.9,2.5,3.4,2.5c0.4,0,0.8-0.1,1.1-0.2
						c1.9-0.6,2.9-2.7,2.3-4.5l-2.4-7.4C57,50.8,55.6,49.8,54,49.8L54,49.8z"/>
				</g>
			</g>
			<g class="st4">
				<path class="st3" d="M57.1,55.5l-4,2.4L51.8,54c-0.4-1.2,0.3-2.5,1.4-2.8c1.2-0.4,2.5,0.3,2.8,1.4L57.1,55.5z"/>
			</g>
			<g>
				<g>
					<path class="st2" d="M51.4,68c-0.4,0-0.8-0.2-1.2-0.6c-0.3-0.4-0.5-0.8-0.5-1.2c0-0.3,0.1-0.5,0.3-0.6l5.6-4.6
						c0.2-0.1,0.4-0.2,0.6-0.2c0.4,0,0.8,0.2,1.2,0.6c0.3,0.4,0.5,0.8,0.5,1.2c0,0.3-0.1,0.5-0.3,0.6L52,67.8
						C51.8,67.9,51.6,68,51.4,68z"/>
					<g>
						<path class="st3" d="M56.3,61.3c0.3,0,0.6,0.2,0.9,0.5c0.4,0.4,0.5,0.9,0.2,1.1l-5.6,4.6c-0.1,0.1-0.2,0.1-0.3,0.1
							c-0.3,0-0.6-0.2-0.9-0.5l0,0c-0.4-0.4-0.5-0.9-0.2-1.1l5.6-4.6C56.1,61.3,56.2,61.3,56.3,61.3 M56.3,60.4
							c-0.3,0-0.6,0.1-0.9,0.3l-5.6,4.6c-0.3,0.2-0.4,0.6-0.5,0.9c0,0.5,0.2,1,0.6,1.5c0.4,0.5,1,0.8,1.5,0.8c0.3,0,0.6-0.1,0.9-0.3
							l5.6-4.6c0.3-0.2,0.4-0.6,0.5-0.9c0-0.5-0.2-1-0.6-1.5C57.4,60.6,56.8,60.4,56.3,60.4L56.3,60.4z"/>
					</g>
				</g>
				<g>
					<path class="st5" d="M50.3,66.9c-0.4,0-0.8-0.2-1.1-0.6c-0.5-0.6-0.6-1.4-0.2-1.8l5.1-5.2c0.2-0.2,0.4-0.2,0.6-0.2
						c0.4,0,0.8,0.2,1.1,0.6c0.5,0.6,0.6,1.4,0.2,1.8l-5.1,5.2C50.7,66.8,50.5,66.9,50.3,66.9L50.3,66.9z"/>
					<g>
						<path class="st3" d="M54.7,59.5c0.2,0,0.5,0.2,0.8,0.4l0,0c0.4,0.4,0.5,1,0.2,1.2l-5.1,5.2c-0.1,0.1-0.2,0.1-0.3,0.1
							c-0.2,0-0.5-0.2-0.8-0.4c-0.4-0.4-0.5-1-0.2-1.2l5.1-5.2C54.4,59.5,54.5,59.5,54.7,59.5 M54.7,58.6c-0.4,0-0.7,0.1-0.9,0.4
							l-5.1,5.2c-0.6,0.6-0.5,1.6,0.2,2.4c0.4,0.5,0.9,0.8,1.5,0.8c0.4,0,0.7-0.1,0.9-0.4l5.1-5.2c0.6-0.6,0.5-1.6-0.2-2.4
							C55.7,58.8,55.2,58.6,54.7,58.6L54.7,58.6z"/>
					</g>
				</g>
				<g>
					<path class="st6" d="M48.7,65.3c-0.4,0-0.8-0.2-1.2-0.6c-0.3-0.4-0.5-0.8-0.5-1.2c0-0.3,0.1-0.5,0.3-0.6l5.6-4.6
						c0.2-0.1,0.4-0.2,0.6-0.2c0.4,0,0.8,0.2,1.2,0.6c0.3,0.4,0.5,0.8,0.5,1.2c0,0.3-0.1,0.5-0.3,0.6l-5.6,4.6
						C49.1,65.2,48.9,65.3,48.7,65.3z"/>
					<g>
						<path class="st3" d="M53.6,58.6c0.3,0,0.6,0.2,0.9,0.5c0.4,0.4,0.5,0.9,0.2,1.1l-5.6,4.6c-0.1,0.1-0.2,0.1-0.3,0.1
							c-0.3,0-0.6-0.2-0.9-0.5c-0.4-0.4-0.5-0.9-0.2-1.1l5.6-4.6C53.4,58.6,53.5,58.6,53.6,58.6 M53.6,57.7c-0.3,0-0.6,0.1-0.9,0.3
							l-5.6,4.6c-0.3,0.2-0.4,0.6-0.5,0.9c0,0.5,0.2,1,0.6,1.5c0.4,0.5,1,0.8,1.5,0.8c0.3,0,0.6-0.1,0.9-0.3l5.6-4.6
							c0.3-0.2,0.4-0.6,0.5-0.9c0-0.5-0.2-1-0.6-1.5C54.7,57.9,54.1,57.7,53.6,57.7L53.6,57.7z"/>
					</g>
				</g>
				<g>
					<path class="st5" d="M47.9,64.4c-0.4,0-0.8-0.2-1.1-0.5c-0.6-0.6-0.7-1.3-0.4-1.8l4.6-5.7c0.2-0.2,0.4-0.3,0.7-0.3
						c0.4,0,0.8,0.2,1.1,0.5c0.6,0.6,0.7,1.3,0.4,1.8l-4.6,5.7C48.4,64.2,48.1,64.4,47.9,64.4L47.9,64.4z"/>
					<g>
						<path class="st3" d="M51.7,56.6c0.2,0,0.5,0.1,0.8,0.4l0,0c0.4,0.4,0.6,0.9,0.3,1.2l-4.6,5.7C48.1,64,48,64,47.9,64
							c-0.2,0-0.5-0.1-0.8-0.4l0,0c-0.4-0.4-0.6-0.9-0.3-1.2l4.6-5.7C51.4,56.6,51.5,56.6,51.7,56.6 M51.7,55.7
							c-0.4,0-0.8,0.2-1,0.5l-4.6,5.7c-0.5,0.6-0.3,1.7,0.4,2.4c0.4,0.4,0.9,0.6,1.4,0.6c0.4,0,0.8-0.2,1-0.5l4.6-5.7
							c0.5-0.6,0.3-1.7-0.4-2.4C52.7,55.9,52.2,55.7,51.7,55.7L51.7,55.7z"/>
					</g>
				</g>
				<g>
					<path class="st7" d="M46,62.4c-0.4,0-0.8-0.2-1.2-0.6c-0.3-0.4-0.5-0.8-0.5-1.2c0-0.3,0.1-0.5,0.3-0.6l5.6-4.6
						c0.2-0.1,0.4-0.2,0.6-0.2c0.4,0,0.8,0.2,1.2,0.6c0.3,0.4,0.5,0.8,0.5,1.2c0,0.3-0.1,0.5-0.3,0.6l-5.6,4.6
						C46.4,62.3,46.2,62.4,46,62.4z"/>
					<g>
						<path class="st3" d="M50.8,55.6c0.3,0,0.6,0.2,0.9,0.5c0.4,0.4,0.5,0.9,0.2,1.1l-5.6,4.6c-0.1,0.1-0.2,0.1-0.3,0.1
							c-0.3,0-0.6-0.2-0.9-0.5c-0.4-0.4-0.5-0.9-0.2-1.1l5.6-4.6C50.6,55.7,50.7,55.6,50.8,55.6 M50.8,54.7c-0.3,0-0.6,0.1-0.9,0.3
							l-5.6,4.6c-0.3,0.2-0.4,0.6-0.5,0.9c0,0.5,0.2,1,0.6,1.5c0.4,0.5,1,0.8,1.5,0.8c0.3,0,0.6-0.1,0.9-0.3l5.6-4.6
							c0.3-0.2,0.4-0.6,0.5-0.9c0-0.5-0.2-1-0.6-1.5C51.9,55,51.3,54.7,50.8,54.7L50.8,54.7z"/>
					</g>
				</g>
				<g>
					<path class="st8" d="M45,61.4c-0.4,0-0.8-0.2-1.1-0.5c-0.6-0.6-0.7-1.3-0.3-1.8l4.7-5.5c0.2-0.2,0.4-0.3,0.7-0.3
						c0.4,0,0.8,0.2,1.1,0.5c0.6,0.6,0.7,1.3,0.3,1.8l-4.7,5.5C45.5,61.3,45.3,61.4,45,61.4L45,61.4z"/>
					<g>
						<path class="st3" d="M49,53.7c0.2,0,0.5,0.1,0.8,0.4c0.4,0.4,0.5,0.9,0.3,1.2l-4.7,5.5c-0.1,0.1-0.2,0.1-0.3,0.1
							c-0.2,0-0.5-0.1-0.8-0.4c-0.4-0.4-0.5-0.9-0.3-1.2l4.7-5.5C48.7,53.7,48.8,53.7,49,53.7 M49,52.8c-0.4,0-0.8,0.2-1,0.5
							l-4.7,5.5c-0.5,0.6-0.4,1.7,0.4,2.4c0.4,0.4,0.9,0.6,1.4,0.6c0.4,0,0.8-0.2,1-0.5l4.7-5.5c0.5-0.6,0.4-1.7-0.4-2.4
							C50,53,49.5,52.8,49,52.8L49,52.8z"/>
					</g>
				</g>
				<g>
					<path class="st7" d="M45.3,57.6c-0.4,0-0.9-0.4-1.1-0.9c-0.2-0.4-0.2-0.8-0.1-1.1c0.1-0.2,0.2-0.3,0.4-0.4l6.8-2.5
						c0.1,0,0.2,0,0.2,0c0.4,0,0.9,0.4,1.1,0.9c0.2,0.4,0.2,0.8,0.1,1.1c-0.1,0.2-0.2,0.3-0.4,0.4l-6.8,2.5
						C45.5,57.6,45.4,57.6,45.3,57.6z"/>
					<g>
						<path class="st3" d="M51.7,52.9c0.3,0,0.6,0.3,0.8,0.7c0.2,0.5,0.1,1-0.2,1.1l-6.8,2.5h-0.1c-0.3,0-0.6-0.3-0.8-0.7
							c-0.2-0.5-0.1-1,0.2-1.1l6.8-2.5C51.6,52.9,51.6,52.9,51.7,52.9 M51.7,52.3c-0.1,0-0.2,0-0.4,0.1l-6.8,2.5
							c-0.3,0.1-0.5,0.3-0.6,0.6c-0.2,0.4-0.2,0.9,0.1,1.4c0.3,0.7,0.8,1.1,1.4,1.1c0.1,0,0.2,0,0.4-0.1l6.8-2.5
							c0.3-0.1,0.5-0.3,0.6-0.6c0.2-0.4,0.2-0.9-0.1-1.4C52.8,52.7,52.2,52.3,51.7,52.3L51.7,52.3z"/>
					</g>
				</g>
			</g>
			<g>
				<g>
					<g>
						<path class="st3" d="M38.3,61.8c-3.5,0-6.6-1.3-7.9-1.9c-2.8-1.2-5.8-5.3-7-7.7c-0.3-0.6-0.6-1.2-0.8-1.8
							c-0.6-1.7-0.7-4.3,0.5-6.4c0.9-1.5,2.5-2.4,4.5-2.7c1.4-0.2,3.4-0.4,5.8-0.7c6.1-0.6,14.4-1.4,19-3.1c0.7-0.3,1.6-0.6,2.6-1
							c4.6-1.8,10.8-4.2,15.7-4.2c5.5,0,7.1,3.1,7.5,5.7v0.1v0.1c0,4.2-4,5.8-9.9,8.2c-5.8,2.3-13.7,5.5-22.3,12.7
							C43.7,60.9,41.2,61.8,38.3,61.8z"/>
						<path class="st3" d="M70.6,33.3c3.4,0,6,1.3,6.6,5v0.1c0,7.2-14.7,5.8-31.9,20.2c-2.2,1.8-4.7,2.5-7,2.5
							c-3.2,0-6.1-1.2-7.6-1.8c-2.4-1-5.2-4.6-6.6-7.3c-0.3-0.6-0.6-1.1-0.7-1.6c-0.9-2.6-0.6-7.2,4.3-7.9
							c4.9-0.7,18.5-1.5,24.9-3.8C56.7,37,64.8,33.3,70.6,33.3 M70.6,31.5L70.6,31.5c-5.1,0-11.4,2.5-16.1,4.3c-1,0.4-1.8,0.7-2.6,1
							c-4.5,1.6-12.7,2.5-18.7,3.1c-2.4,0.2-4.4,0.4-5.9,0.7c-2.9,0.4-4.4,2-5.1,3.2c-1.4,2.3-1.2,5.2-0.6,7.1
							c0.2,0.6,0.5,1.2,0.8,1.9c1.1,2.2,4.2,6.7,7.5,8.1c1.4,0.6,4.6,1.9,8.3,1.9c3.1,0,5.9-1,8.1-2.9c8.5-7,16.3-10.2,22.1-12.5
							c6.1-2.5,10.5-4.2,10.5-9v-0.1v-0.2V38C78.1,32.3,73.4,31.5,70.6,31.5L70.6,31.5z"/>
					</g>
					<g>
						<path class="st9" d="M77.2,38.3c0,7.2-14.7,5.8-31.9,20.2c-0.1,0.1-0.2,0.1-0.2,0.2c-1.3,1-2.7,1.6-4,2
							c-0.7,0.2-1.4,0.3-2.2,0.3c-1.3,0.1-2.5-0.1-3.6-0.3c-1.9-0.4-3.5-1-4.5-1.5c-2.2-0.9-4.6-3.9-6.1-6.5
							c0.7-1.4,1.1-2.4,3.5-3.2c2-0.5,5.6-0.4,9.4-0.4c1.2,0,2.5,0,3.7,0c0.7,0,1.4,0,2.1-0.1c1.3-0.1,2.6-0.2,3.7-0.4
							c0.7-0.1,1.4-0.3,2-0.5C53.6,46.3,70.6,38.9,77.2,38.3z"/>
					</g>
				</g>
				<path class="st10" d="M41.2,48.9l-2.3,12c-1.3,0.1-2.5-0.1-3.6-0.3L37.5,49C38.7,49,39.9,49,41.2,48.9z"/>
				<path class="st10" d="M47,48.4l-2,10.2c-1.3,1-2.7,1.6-4,2l2.3-11.8C44.6,48.8,45.9,48.6,47,48.4z"/>
				<g class="st11">
					<path class="st3" d="M77.2,38.5c-0.3,7-14.8,5.8-31.9,20c-0.1,0.1-0.2,0.1-0.2,0.2c-1.3,1-2.7,1.6-4,2
						c-0.7,0.2-1.4,0.3-2.2,0.3c-1.3,0.1-2.5-0.1-3.6-0.3c-1.9-0.4-3.5-1-4.5-1.5c-1.5-0.6-3.2-2.3-4.5-4.1c0.6,0.4,1.1,0.7,1.7,0.9
						c1.1,0.4,2.9,1.1,5,1.5c1.2,0.2,2.6,0.4,4,0.3c0.8,0,1.6-0.1,2.4-0.3c1.5-0.3,3-0.9,4.4-2c0.1-0.1,0.2-0.1,0.3-0.2
						C59.1,43.7,72.6,42.4,77.2,38.5z"/>
				</g>
				<path class="st10" d="M67.2,33.6C63,35.3,55.2,39,50,40.3c-6.7,1.7-17.2,2.4-22.1,3.2c-4.6,0.7-4.6,5.4-3.9,8
					c-0.2-0.5-0.4-0.9-0.5-1.3c-0.9-2.6-0.6-7.2,4.3-7.9c4.9-0.7,18.5-1.5,24.9-3.8C55.9,37.2,61.9,34.6,67.2,33.6z"/>
			</g>
		</g>
		<path class="st12" d="M58.7,54.5"/>
	</g>
	<g>
		<path class="st13" d="M83.5,96.4H16.2c-3.7,0-6.8-3.1-6.8-6.8L3.8,11c0-3.7,3.1-6.8,6.8-6.8h78.6c3.7,0,6.8,3.1,6.8,6.8l-5.7,78.6
			C90.3,93.4,87.2,96.4,83.5,96.4z"/>
	</g>
	<g class="st0">
		<path class="st14" d="M84.7,97.2H15.3c-3.9,0-7-3.2-7-7L2.4,9.8c0-3.9,3.2-7,7-7h81.1c3.9,0,7,3.2,7,7l-5.8,80.4
			C91.7,94.1,88.6,97.2,84.7,97.2z"/>
	</g>
	<path class="st15" d="M78,38.2l-13.2-1.3c-10.3-1-20.7,0.4-30.3,4.1l-16,6.2c-4.4,1.7-9.2-1.4-9.5-6L7.4,16
		c-0.3-4.6,3.3-8.4,7.9-8.4h73.5c2,0,3.6,1.7,3.5,3.7l-1,15.6C90.8,33.8,84.8,38.9,78,38.2z"/>
</g>
</svg>
