<?xml version="1.0" encoding="utf-8"?>
<!-- Generator: Adobe Illustrator 26.0.2, SVG Export Plug-In . SVG Version: 6.00 Build 0)  -->
<svg version="1.1" id="Layer_1" xmlns="http://www.w3.org/2000/svg" xmlns:xlink="http://www.w3.org/1999/xlink" x="0px" y="0px"
	 viewBox="0 0 100 100" style="enable-background:new 0 0 100 100;" xml:space="preserve">
<style type="text/css">
	.st0{enable-background:new    ;}
	.st1{fill:url(#SVGID_1_);}
	.st2{fill:#EE0000;}
	.st3{fill:#142C4D;}
	.st4{opacity:0.6;}
	.st5{fill:#FFFFFF;}
	.st6{opacity:0.2;}
	.st7{fill:none;stroke:#00A7CD;stroke-width:4.8936;stroke-miterlimit:10;}
	.st8{fill:none;stroke:#FAFCFF;stroke-width:2.5862;stroke-miterlimit:10;}
	.st9{opacity:0.16;fill:#FFFFFF;}
</style>
<g>
	<g class="st0">
		<linearGradient id="SVGID_1_" gradientUnits="userSpaceOnUse" x1="49.8643" y1="102.277" x2="49.8643" y2="4.4622">
			<stop  offset="0.4735" style="stop-color:#A3DFED"/>
			<stop  offset="0.4794" style="stop-color:#5DD1E8"/>
		</linearGradient>
		<path class="st1" d="M84.1,97.2H15.6c-3.8,0-6.9-3.1-6.9-6.9l-5.8-80c0-3.8,3.1-6.9,6.9-6.9h80c3.8,0,6.9,3.1,6.9,6.9l-5.8,80
			C91,94.1,87.9,97.2,84.1,97.2z"/>
	</g>
	<g id="triSeat_00000178163565147610292710000015424833377724614837_">
		<g>
			<path class="st2" d="M26.7,57.6c-2.9,0-3.8-2-4.1-2.9L19,46.1c-0.4-0.8-0.2-1.8,0.2-2.6c0.5-0.7,1.4-1.2,2.2-1.2h11
				c3.4,0,5.9,0.2,8.6,0.5c3.2,0.4,6.4,0.6,11.4,0.6c5.4,0,12.5,0,17.6-0.1c4.4,0,8.4,2.4,10.5,6c0.6,0.9,0.6,2,0,3.1
				c-0.5,0.9-1.4,1.5-2.5,1.6c-1.7,0-3.1,0-4.5,0c-21.1,0-34.3,0.9-44.3,3.3C28.2,57.5,27.4,57.6,26.7,57.6z"/>
			<path class="st3" d="M32.5,43.3c7.2,0,10.5,1.1,20,1.1c5.4,0,12.5,0,17.6-0.1c0,0,0,0,0.1,0c4,0,7.7,2.1,9.7,5.5l0,0
				c0.8,1.3-0.1,3.1-1.7,3.2c-1.5,0-3.1,0-4.5,0c-20,0-34.1,0.8-44.6,3.3c-0.9,0.2-1.6,0.4-2.2,0.4c-2.1,0-2.7-1.2-3.2-2.2l-3.5-8.6
				c-0.7-1.3,0.1-2.5,1.4-2.5H32.5 M32.5,41.3H21.6c-1.3,0-2.5,0.6-3.1,1.6c-0.7,1.1-0.8,2.4-0.4,3.5l3.5,8.6
				c0.4,0.9,1.4,3.5,5.1,3.5c0.8,0,1.8-0.1,2.7-0.4c9.9-2.2,23.1-3.2,44.1-3.2c1.4,0,2.9,0,4.5,0h0.1h0.1c1.4-0.1,2.7-0.9,3.3-2.1
				c0.7-1.3,0.6-2.7-0.1-4c-2.4-4-6.7-6.5-11.3-6.5h-0.1c-5.1-0.1-12.1-0.1-17.6-0.1c-5,0-8.1-0.4-11.3-0.6
				C38.5,41.6,35.9,41.3,32.5,41.3L32.5,41.3z"/>
		</g>
		<g>
			<path class="st3" d="M30.1,49.4c0.6,0.6,1.2,0.8,1.8,0.8c0.7,0,1.1-0.2,1.1-0.7c0-0.4-0.2-0.6-0.8-0.7L31,48.5
				c-0.9-0.1-1.4-0.6-1.4-1.4c0-0.9,0.8-1.6,2.1-1.6c0.8,0,1.7,0.2,2.2,0.7l-0.6,0.9c-0.6-0.5-1.1-0.6-1.7-0.6
				c-0.6,0-0.9,0.2-0.9,0.6s0.2,0.5,0.7,0.6l0.9,0.1c1.1,0.1,1.5,0.7,1.5,1.5c0,1.1-0.8,1.7-2.2,1.7c-0.8,0-1.8-0.4-2.4-0.9
				L30.1,49.4z"/>
			<path class="st3" d="M34.3,49.8c0-0.7,0.6-1.2,1.6-1.2c0.4,0,0.7,0,0.9,0.1v-0.2c0-0.5-0.2-0.7-0.8-0.7c-0.4,0-0.7,0.1-1.2,0.4
				l-0.4-0.7c0.6-0.2,1.2-0.5,1.8-0.5c1.1,0,1.6,0.6,1.6,1.4V51h-1.1v-0.4c-0.4,0.2-0.7,0.4-1.2,0.4C34.9,51,34.3,50.5,34.3,49.8z
				 M36,50.3c0.4,0,0.6-0.1,0.8-0.2v-0.6c-0.2-0.1-0.6-0.1-0.8-0.1c-0.5,0-0.7,0.2-0.7,0.5S35.6,50.3,36,50.3z"/>
			<path class="st3" d="M41.4,50.6c-0.4,0.2-0.7,0.4-1.2,0.4c-1.2,0-2-0.9-2-2c0-1.2,0.9-2,2-2c0.4,0,0.7,0.1,1.1,0.4v-1.6l1.1-0.2
				V51h-1.1v-0.4H41.4z M40.4,50.2c0.4,0,0.7-0.1,0.9-0.4v-1.7c-0.2-0.2-0.6-0.4-0.9-0.4c-0.7,0-1.2,0.5-1.2,1.2
				C39.3,49.6,39.8,50.2,40.4,50.2z"/>
			<path class="st3" d="M45.9,50.6c-0.4,0.2-0.7,0.4-1.2,0.4c-1.2,0-2-0.9-2-2c0-1.2,0.9-2,2-2c0.4,0,0.8,0.1,1.1,0.4v-1.6l1.1-0.2
				V51h-1.1v-0.4H45.9z M45,50.2c0.4,0,0.7-0.1,0.9-0.4v-1.7c-0.2-0.2-0.6-0.4-0.9-0.4c-0.7,0-1.2,0.5-1.2,1.2
				C43.8,49.6,44.2,50.2,45,50.2z"/>
			<path class="st3" d="M48.6,51h-1.1v-5.3l1.1-0.2V51z"/>
			<path class="st3" d="M51.2,51c-1.2,0-2.1-0.9-2.1-2c0-1.2,0.9-2,2-2c1.2,0,2,0.9,2,2.1v0.2h-2.9c0.1,0.5,0.6,0.8,1.2,0.8
				c0.4,0,0.7-0.1,0.8-0.4l0.7,0.6C52.3,50.9,51.8,51,51.2,51z M50.1,48.6H52c-0.1-0.5-0.5-0.8-0.9-0.8
				C50.6,47.8,50.3,48.1,50.1,48.6z"/>
			<path class="st3" d="M55.7,49.4c0,0.5,0.4,0.8,0.8,0.8c0.4,0,0.6-0.1,0.8-0.4V47h1.1v4h-1.2v-0.4c-0.4,0.2-0.7,0.4-1.1,0.4
				c-0.9,0-1.5-0.7-1.5-1.5V47h1.1V49.4z"/>
			<path class="st3" d="M58.9,47h1.1v0.4c0.4-0.2,0.7-0.4,1.2-0.4c1.2,0,2,0.9,2,2c0,1.2-0.9,2-2,2c-0.4,0-0.8-0.1-1.1-0.4v1.9H59
				V47H58.9z M59.8,48.2v1.5c0.2,0.2,0.6,0.4,0.9,0.4c0.7,0,1.2-0.5,1.2-1.2c0-0.7-0.5-1.2-1.2-1.2C60.4,47.8,60,47.9,59.8,48.2z"/>
		</g>
		<g class="st4">
			<path class="st5" d="M75.7,45.8c-0.2,0-0.5,0-0.7,0c-5.5,0-13.3,0.1-19.3,0.1c-10.4,0-14-1.2-21.9-1.2h-12
				c-0.8,0-1.4,0.5-1.8,1.1v-0.1c-0.5-1.2,0.4-2.4,1.7-2.4h10.8c7.2,0,10.5,1.1,20,1.1c5.4,0,12.5,0,17.6-0.1
				C72.1,44.3,73.9,44.9,75.7,45.8z"/>
		</g>
		<g class="st6">
			<path d="M80,50.9c0,1.1-0.8,2-2,2.1c-22.4-0.1-37.7,0.7-49,3.3c-4,0.9-5-0.5-5.5-2l-0.9-2.6c0.7,1.1,1.9,1.9,5.1,1.1
				c11.3-2.6,26.6-3.4,49-3.3c0.9,0,1.7-0.6,1.9-1.4c0.5,0.6,0.9,1.2,1.3,1.8C79.8,50.2,80,50.5,80,50.9z"/>
		</g>
		<g>
			<path class="st3" d="M27.5,49.1L27.5,49.1l-0.9-1.3c-0.4-0.5-1.2-0.6-1.5,0l-0.4,0.4l-0.6-0.2c-0.4-0.1-0.5-0.6-0.2-0.8l1.1-1.3
				c0.4-0.5,1.2-0.5,1.5,0l1.8,2.4C28.6,48.6,28.1,49.4,27.5,49.1z"/>
			<path class="st3" d="M27.5,51.6l-3.3-1.2c-0.4-0.1-0.5-0.6-0.2-0.8l0.6-0.8l0.4-0.5c0.5-0.5,1.2-0.5,1.6,0l0.9,1.3l0.7,1.1
				C28.6,51.1,28.1,51.8,27.5,51.6z"/>
		</g>
	</g>
	<g>
		<path class="st7" d="M83.5,96.4H16.2c-3.7,0-6.8-3.1-6.8-6.8L3.8,11c0-3.7,3.1-6.8,6.8-6.8h78.6c3.7,0,6.8,3.1,6.8,6.8l-5.7,78.6
			C90.3,93.4,87.2,96.4,83.5,96.4z"/>
	</g>
	<g class="st0">
		<path class="st8" d="M84.7,97.2H15.3c-3.9,0-7-3.2-7-7L2.4,9.8c0-3.9,3.2-7,7-7h81.1c3.9,0,7,3.2,7,7l-5.8,80.4
			C91.7,94.1,88.6,97.2,84.7,97.2z"/>
	</g>
	<path class="st9" d="M78,38.2l-13.2-1.3c-10.3-1-20.7,0.4-30.3,4.1l-16,6.2c-4.4,1.7-9.2-1.4-9.5-6L7.4,16
		c-0.3-4.6,3.3-8.4,7.9-8.4h73.5c2,0,3.6,1.7,3.5,3.7l-1,15.6C90.8,33.8,84.8,38.9,78,38.2z"/>
</g>
</svg>
