<?xml version="1.0" encoding="utf-8"?>
<!-- Generator: Adobe Illustrator 26.0.2, SVG Export Plug-In . SVG Version: 6.00 Build 0)  -->
<svg version="1.1" id="Layer_1" xmlns="http://www.w3.org/2000/svg" xmlns:xlink="http://www.w3.org/1999/xlink" x="0px" y="0px"
	 viewBox="0 0 100 100" style="enable-background:new 0 0 100 100;" xml:space="preserve">
<style type="text/css">
	.st0{enable-background:new    ;}
	.st1{fill:url(#SVGID_1_);}
	.st2{fill:#666666;}
	.st3{fill:#142C4D;}
	.st4{opacity:0.5;}
	.st5{fill:#5656C1;}
	.st6{fill:#FFFFFF;}
	.st7{fill:none;stroke:#00A7CD;stroke-width:4.8936;stroke-miterlimit:10;}
	.st8{fill:none;stroke:#FAFCFF;stroke-width:2.5862;stroke-miterlimit:10;}
	.st9{opacity:0.16;fill:#FFFFFF;}
</style>
<g>
	<g class="st0">
		<linearGradient id="SVGID_1_" gradientUnits="userSpaceOnUse" x1="49.8643" y1="102.277" x2="49.8643" y2="4.4622">
			<stop  offset="0.4735" style="stop-color:#A3DFED"/>
			<stop  offset="0.4794" style="stop-color:#5DD1E8"/>
		</linearGradient>
		<path class="st1" d="M84.1,97.2H15.6c-3.8,0-6.9-3.1-6.9-6.9l-5.8-80c0-3.8,3.1-6.9,6.9-6.9h80c3.8,0,6.9,3.1,6.9,6.9l-5.8,80
			C91,94.1,87.9,97.2,84.1,97.2z"/>
	</g>
	<g id="streetSaddle_00000111887634898553672040000018104788031862160021_">
		<g>
			<g>
				<g>
					<path class="st2" d="M40.9,59c-1.7,0-3.3-0.7-4.5-1.9L32,52.5l2.5-2.4l4.4,4.5c0.5,0.5,1.3,0.8,2,0.8h11c0.5,0,1-0.1,1.4-0.4
						l12.8-7.7l1.8,3L55.1,58c-1,0.6-2.1,0.9-3.3,0.9H40.9V59z"/>
					<path class="st3" d="M65.9,48.4l1,1.7l-12.1,7.3c-0.9,0.5-1.9,0.8-2.9,0.8h-11c-1.5,0-2.9-0.6-4-1.7l-3.9-4l1.4-1.4l3.9,4
						c0.7,0.7,1.6,1.1,2.5,1.1h11c0.6,0,1.3-0.2,1.8-0.5L65.9,48.4 M66.4,46.3l-1.3,0.8L53,54.5c-0.3,0.2-0.7,0.3-1.1,0.3h-11
						c-0.5,0-1.1-0.2-1.5-0.6l-3.9-4l-1-1.1l-1.1,1L32,51.5l-1.1,1l1,1.1l3.9,4c1.3,1.4,3.2,2.1,5.1,2.1h11c1.3,0,2.5-0.4,3.6-1
						l12.1-7.3l1.3-0.8l-0.8-1.3l-1-1.7L66.4,46.3L66.4,46.3z"/>
				</g>
				<g class="st4">
					<path d="M41.4,56.3l-3.2,1.3c-0.5-0.3-0.9-0.6-1.3-1l-3.9-4l1.4-1.4l3.9,4c0.7,0.7,1.6,1.1,2.5,1.1H41.4z"/>
				</g>
				<g class="st4">
					<polygon points="66.9,50.1 60.4,54 56.9,53.8 65.9,48.4 					"/>
				</g>
			</g>
			<g>
				<path class="st5" d="M36.3,54.2c-3,0-5.5-1.2-7.3-3.6c-1.8-2.4-3.8-3.5-5.4-4.4c-0.4-0.3-0.9-0.5-1.2-0.7
					C21.6,45,21.2,44,21.5,43s1.1-1.6,2.1-1.6c0.1,0,0.2,0,0.3,0c5.3,0.6,18.7,2.2,25.1,2.2c0.6,0,1.2,0,1.8,0h4.5
					c17.7,0,23.4,0.9,23.4,3.7c0,1.5-1.4,2.3-14,2.3c-1.7,0-3.2,0-4.6,0c-1,0-2,0-2.7,0c-5.1,0-12,1.9-14.3,2.9
					C41.9,53.1,39.2,54.2,36.3,54.2z"/>
				<path class="st3" d="M23.5,42.4L23.5,42.4c5.6,0.6,19,2.2,25.5,2.3c0.6,0,1.2,0,1.9,0c1.3,0,2.9,0,4.5,0
					c9.5,0,22.4,0.2,22.4,2.7c0,1.1-6.9,1.2-13,1.2c-2.9,0-5.6,0-7.3,0c-5.2,0-12.2,2-14.7,3c-1.3,0.6-3.9,1.6-6.5,1.6
					c-2.3,0-4.6-0.7-6.5-3.2c-2.5-3.3-5.2-4.3-6.9-5.4C21.9,43.9,22.4,42.4,23.5,42.4 M23.5,40.3L23.5,40.3c-1.4,0-2.6,0.9-3.1,2.3
					c-0.4,1.4,0.1,2.9,1.3,3.7c0.4,0.3,0.8,0.5,1.3,0.8c1.6,0.9,3.3,1.9,5.1,4.2c2,2.6,4.8,4,8.1,4c3.1,0,6.1-1.2,7.3-1.8
					c2.4-1,9.2-2.9,13.9-2.9c0.7,0,1.6,0,2.7,0c1.4,0,3,0,4.6,0c3.9,0,6.8-0.1,8.9-0.2c2.7-0.2,6.1-0.4,6.1-3.1
					c0-3.7-5.2-4.7-24.4-4.7h-2.5h-2c-0.7,0-1.3,0-1.8,0c-6.4,0-19.7-1.6-25.1-2.3C23.8,40.3,23.6,40.3,23.5,40.3L23.5,40.3z"/>
			</g>
		</g>
		<path class="st6" d="M77.8,47.3L77.8,47.3l-24-0.5c-7,0-11.4,1.5-16.2,1.5s-9.8-0.4-11.3-1.6c-1.3-1-2.5-1.5-3.4-2.1
			c-1-0.7-0.4-2.4,0.7-2.2c5.5,0.6,18.9,2.2,25.4,2.3C57.3,44.7,77.8,44.2,77.8,47.3z"/>
	</g>
	<g>
		<path class="st7" d="M83.5,96.4H16.2c-3.7,0-6.8-3.1-6.8-6.8L3.8,11c0-3.7,3.1-6.8,6.8-6.8h78.6c3.7,0,6.8,3.1,6.8,6.8l-5.7,78.6
			C90.3,93.4,87.2,96.4,83.5,96.4z"/>
	</g>
	<g class="st0">
		<path class="st8" d="M84.7,97.2H15.3c-3.9,0-7-3.2-7-7L2.4,9.8c0-3.9,3.2-7,7-7h81.1c3.9,0,7,3.2,7,7l-5.8,80.4
			C91.7,94.1,88.6,97.2,84.7,97.2z"/>
	</g>
	<path class="st9" d="M78,38.2l-13.2-1.3c-10.3-1-20.7,0.4-30.3,4.1l-16,6.2c-4.4,1.7-9.2-1.4-9.5-6L7.4,16
		c-0.3-4.6,3.3-8.4,7.9-8.4h73.5c2,0,3.6,1.7,3.5,3.7l-1,15.6C90.8,33.8,84.8,38.9,78,38.2z"/>
</g>
</svg>
