<?xml version="1.0" encoding="utf-8"?>
<!-- Generator: Adobe Illustrator 26.0.2, SVG Export Plug-In . SVG Version: 6.00 Build 0)  -->
<svg version="1.1" id="Layer_1" xmlns="http://www.w3.org/2000/svg" xmlns:xlink="http://www.w3.org/1999/xlink" x="0px" y="0px"
	 viewBox="0 0 100 100" style="enable-background:new 0 0 100 100;" xml:space="preserve">
<style type="text/css">
	.st0{enable-background:new    ;}
	.st1{fill:url(#SVGID_1_);}
	.st2{fill:#4F4249;}
	.st3{fill:#142C4D;}
	.st4{fill:#7C7679;}
	.st5{fill:#EE0000;}
	.st6{opacity:0.6;}
	.st7{fill:#FFFFFF;}
	.st8{fill:#585D68;}
	.st9{fill:#AEDCDD;}
	.st10{fill:#43ADAF;}
	.st11{fill:none;stroke:#00A7CD;stroke-width:4.8936;stroke-miterlimit:10;}
	.st12{fill:none;stroke:#FAFCFF;stroke-width:2.5862;stroke-miterlimit:10;}
	.st13{opacity:0.16;fill:#FFFFFF;}
</style>
<g>
	<g class="st0">
		<linearGradient id="SVGID_1_" gradientUnits="userSpaceOnUse" x1="49.8643" y1="102.277" x2="49.8643" y2="4.4622">
			<stop  offset="0.4735" style="stop-color:#A3DFED"/>
			<stop  offset="0.4794" style="stop-color:#5DD1E8"/>
		</linearGradient>
		<path class="st1" d="M84.1,97.2H15.6c-3.8,0-6.9-3.1-6.9-6.9l-5.8-80c0-3.8,3.1-6.9,6.9-6.9h80c3.8,0,6.9,3.1,6.9,6.9l-5.8,80
			C91,94.1,87.9,97.2,84.1,97.2z"/>
	</g>
	<g id="eBikeSaddle_00000080171392748912851520000004430867237086799550_">
		<g>
			<g>
				<g>
					<path class="st2" d="M32.8,56.3c-0.7,0-1.3-0.6-1.3-1.3c0-0.7,0.6-1.3,1.3-1.3H38l5.1-4c0.2-0.2,0.5-0.3,0.8-0.3
						c0.4,0,0.8,0.2,1,0.5s0.3,0.6,0.3,1c0,0.3-0.2,0.7-0.5,0.9l-5.5,4.3c-0.2,0.2-0.5,0.3-0.8,0.3h-5.6V56.3z"/>
					<path class="st3" d="M43.8,49.8c0.3,0,0.5,0.1,0.7,0.3c0.3,0.4,0.2,0.9-0.1,1.2l-5.5,4.3c-0.2,0.1-0.3,0.2-0.5,0.2h-5.6
						c-0.5,0-0.9-0.4-0.9-0.9s0.4-0.9,0.9-0.9h5.3l5.2-4.1C43.5,49.9,43.6,49.8,43.8,49.8 M43.8,49c-0.4,0-0.8,0.1-1.1,0.4l-5,3.9
						h-5c-1,0-1.7,0.8-1.7,1.7s0.8,1.7,1.7,1.7h5.6c0.4,0,0.8-0.1,1.1-0.4l5.5-4.3c0.4-0.3,0.6-0.7,0.6-1.2c0.1-0.5-0.1-0.9-0.4-1.3
						C44.9,49.2,44.4,49,43.8,49L43.8,49z"/>
				</g>
			</g>
			<g>
				<g>
					<path class="st4" d="M34.5,58c-0.7,0-1.3-0.6-1.3-1.3c0-0.7,0.6-1.3,1.3-1.3h4.9l5.1-8c0.2-0.4,0.7-0.6,1.1-0.6
						c0.2,0,0.5,0.1,0.7,0.2c0.6,0.4,0.8,1.2,0.4,1.8l-5.5,8.6C41,57.8,40.6,58,40.1,58L34.5,58z"/>
					<path class="st3" d="M45.6,47.2c0.2,0,0.3,0,0.5,0.1c0.4,0.3,0.5,0.8,0.3,1.2l-5.5,8.6c-0.2,0.3-0.4,0.4-0.7,0.4h-5.6
						c-0.5,0-0.9-0.4-0.9-0.9s0.4-0.9,0.9-0.9h5.1l5.2-8.2C45,47.3,45.3,47.2,45.6,47.2 M45.6,46.3L45.6,46.3
						c-0.6,0-1.1,0.3-1.5,0.8l-4.9,7.8h-4.7c-1,0-1.7,0.8-1.7,1.7c0,1,0.8,1.7,1.7,1.7h5.6c0.6,0,1.1-0.3,1.5-0.8l5.5-8.6
						c0.2-0.4,0.3-0.9,0.2-1.3c-0.1-0.5-0.4-0.8-0.8-1.1C46.2,46.4,45.9,46.3,45.6,46.3L45.6,46.3z"/>
				</g>
			</g>
			<g>
				<path class="st2" d="M46.4,48.1v0.1c0,0.1-0.1,0.2-0.1,0.3l-2.5,4l-3,4.7c-0.2,0.3-0.4,0.4-0.7,0.4h-5.6h-0.1h-0.1
					c-0.1,0-0.1,0-0.2-0.1c0.1-0.4,0.4-0.8,0.9-0.8h5.1l2.4-3.7l0.2-0.4l-1,0.1l2.9-4.6l0.3-0.5c0.3-0.4,0.8-0.5,1.2-0.3
					c0.1,0,0.1,0.1,0.2,0.2C46.3,47.6,46.4,47.9,46.4,48.1z"/>
			</g>
			<g>
				<path class="st5" d="M33.2,62.4c-1.7,0-3.1-1.4-3.1-3.1v-5.6c0-1.7,1.4-3.1,3.1-3.1c0.5,0,1,0.4,1,1v9.9
					C34.2,62,33.7,62.4,33.2,62.4z"/>
				<g>
					<path class="st3" d="M33.2,51.5v9.9c-1.2,0-2.2-1-2.2-2.2v-5.6C31,52.5,32,51.5,33.2,51.5 M33.2,49.6c-2.3,0-4.1,1.8-4.1,4.1
						v5.6c0,2.3,1.8,4.1,4.1,4.1c1.1,0,1.9-0.9,1.9-1.9v-9.9C35.1,50.5,34.3,49.6,33.2,49.6L33.2,49.6z"/>
				</g>
			</g>
			<g class="st6">
				<path class="st7" d="M33.2,60.6v0.9H33c-1.1,0-1.9-0.9-1.9-1.9v-6.1c0-0.5,0.2-0.9,0.5-1.3c0,0.1,0,0.3,0,0.4v6.1
					C31.5,59.7,32.2,60.5,33.2,60.6z"/>
			</g>
		</g>
		<g>
			<path class="st8" d="M53.3,46.6l0.1,0.2c-1.4,0.2-2.8,0.5-4.2,0.8c-0.2-1,0.4-2,1.5-2.4C51.7,44.9,52.9,45.5,53.3,46.6z"/>
		</g>
		<g>
			<path class="st4" d="M51.9,60.5c-4-12.6-4-12.7-4-12.8l-0.1-0.8l0.8-0.2c1.4-0.3,2.8-0.6,4.3-0.8l0.7-0.1L58,59.5l-5.8,1.8
				L51.9,60.5z"/>
			<path class="st3" d="M53,46.8L56.9,59l-4.1,1.3c0,0-4-12.5-4-12.7C50.2,47.3,51.6,47,53,46.8 M54.2,44.8L52.7,45
				c-1.5,0.2-2.9,0.5-4.3,0.8l-1.6,0.3l0.2,1.6c0,0.2,0,0.3,4.1,12.9l0.5,1.6l1.6-0.5l4.1-1.3l1.7-0.5l-0.5-1.7L54.6,46L54.2,44.8
				L54.2,44.8z"/>
		</g>
		<g>
			<path class="st2" d="M54.7,52.1l-3.9,2c-1-3.2-2-6.4-2-6.5c1.5-0.3,2.9-0.6,4.3-0.8L54.7,52.1z"/>
		</g>
		<g>
			<g>
				<g>
					<path class="st9" d="M38.5,50.7c-4.4,0-8.3-1.6-9.8-2.1c-2-0.8-3.8-2.7-4.8-4.1c-0.4-0.6-0.9-1.4-1.1-2.1c-0.2-1,0-2.1,0.7-2.9
						s2.1-1.8,5-1.8c0.2,0,0.4,0,0.6,0c1.3,0.1,3.3,0.2,5.6,0.4c4.8,0.4,10.8,0.8,15.4,0.8c1.2,0,2.2,0,3.1-0.1
						c0.7-0.1,1.6-0.1,2.6-0.2c3.1-0.3,6.9-0.6,10.5-0.6c6,0,9.3,0.9,10.6,2.8c0.4,0.6,0.5,1.2,0.5,1.9v0.1v0.1
						c-0.8,2.5-4.6,2.8-10.9,3.4c-3.5,0.3-7.9,0.7-12.9,1.6c-1.4,0.2-2.8,0.5-4.2,0.8c-2.1,0.5-4.1,1-6.2,1.6
						C41.7,50.5,40.1,50.7,38.5,50.7z"/>
					<path class="st3" d="M28.4,38.4c0.2,0,0.4,0,0.6,0c4.1,0.2,14.1,1.2,21,1.2c1.2,0,2.2,0,3.2-0.1c3-0.2,8.3-0.8,13-0.8
						c4.5,0,8.6,0.5,9.8,2.4c0.3,0.4,0.4,0.8,0.4,1.4c-1,3.1-9.9,2.1-23.1,4.4c-1.4,0.2-2.8,0.5-4.2,0.8c-2,0.4-4.1,1-6.2,1.6
						c-1.5,0.4-3,0.6-4.4,0.6c-4.1,0-7.8-1.4-9.5-2.1c-1.7-0.7-3.4-2.4-4.4-3.8c-0.5-0.7-0.8-1.4-0.9-1.8
						C23.3,40.7,24.2,38.4,28.4,38.4 M28.4,36.6c-3.3,0-4.9,1.2-5.6,2.2c-0.8,1.1-1.1,2.4-0.8,3.7c0.2,0.7,0.6,1.5,1.2,2.4
						c1.1,1.6,3,3.6,5.2,4.4c1.5,0.6,5.6,2.2,10.1,2.2c1.7,0,3.4-0.2,4.9-0.7c2-0.6,4.1-1.1,6.1-1.6c1.4-0.3,2.8-0.6,4.2-0.8
						c4.9-0.9,9.3-1.3,12.8-1.6c6.7-0.6,10.7-0.9,11.6-4l0.1-0.2v-0.2c0-0.9-0.2-1.7-0.6-2.4c-1.4-2.2-4.9-3.1-11.3-3.1
						c-3.6,0-7.5,0.3-10.6,0.6c-1,0.1-1.9,0.2-2.6,0.2c-0.9,0.1-1.9,0.1-3,0.1c-4.6,0-10.5-0.4-15.3-0.8c-2.3-0.2-4.3-0.3-5.6-0.4
						C28.9,36.6,28.6,36.6,28.4,36.6L28.4,36.6z"/>
				</g>
				<path class="st10" d="M76.4,42.4c-1,3.1-9.9,2.1-23.1,4.4c-1.4,0.2-2.8,0.5-4.2,0.8c-2,0.4-4.1,1-6.2,1.6
					c-5.7,1.7-11.6-0.6-13.9-1.5c-1.7-0.7-3.4-2.4-4.4-3.8c0.1-1.6,1.6-3.5,6.1-3.3c5.3,0.2,19.9,1.7,27.2,1.2
					c4.2-0.3,12.1-1.2,18.2-0.8C76.3,41.4,76.4,41.9,76.4,42.4z"/>
			</g>
		</g>
	</g>
	<g>
		<path class="st11" d="M83.5,96.4H16.2c-3.7,0-6.8-3.1-6.8-6.8L3.8,11c0-3.7,3.1-6.8,6.8-6.8h78.6c3.7,0,6.8,3.1,6.8,6.8l-5.7,78.6
			C90.3,93.4,87.2,96.4,83.5,96.4z"/>
	</g>
	<g class="st0">
		<path class="st12" d="M84.7,97.2H15.3c-3.9,0-7-3.2-7-7L2.4,9.8c0-3.9,3.2-7,7-7h81.1c3.9,0,7,3.2,7,7l-5.8,80.4
			C91.7,94.1,88.6,97.2,84.7,97.2z"/>
	</g>
	<path class="st13" d="M78,38.2l-13.2-1.3c-10.3-1-20.7,0.4-30.3,4.1l-16,6.2c-4.4,1.7-9.2-1.4-9.5-6L7.4,16
		c-0.3-4.6,3.3-8.4,7.9-8.4h73.5c2,0,3.6,1.7,3.5,3.7l-1,15.6C90.8,33.8,84.8,38.9,78,38.2z"/>
</g>
</svg>
