<?xml version="1.0" encoding="utf-8"?>
<!-- Generator: Adobe Illustrator 26.0.2, SVG Export Plug-In . SVG Version: 6.00 Build 0)  -->
<svg version="1.1" id="Layer_1" xmlns="http://www.w3.org/2000/svg" xmlns:xlink="http://www.w3.org/1999/xlink" x="0px" y="0px"
	 viewBox="0 0 100 100" style="enable-background:new 0 0 100 100;" xml:space="preserve">
<style type="text/css">
	.st0{enable-background:new    ;}
	.st1{fill:url(#SVGID_1_);}
	.st2{fill:#FAAA4F;}
	.st3{fill:#142C4D;}
	.st4{fill:#EE0000;}
	.st5{opacity:0.2;}
	.st6{opacity:0.6;}
	.st7{fill:#FFFFFF;}
	.st8{fill:none;stroke:#00A7CD;stroke-width:4.8936;stroke-miterlimit:10;}
	.st9{fill:none;stroke:#FAFCFF;stroke-width:2.5862;stroke-miterlimit:10;}
	.st10{opacity:0.16;fill:#FFFFFF;}
</style>
<g>
	<g class="st0">
		<linearGradient id="SVGID_1_" gradientUnits="userSpaceOnUse" x1="49.8643" y1="102.277" x2="49.8643" y2="4.4622">
			<stop  offset="0.4735" style="stop-color:#A3DFED"/>
			<stop  offset="0.4794" style="stop-color:#5DD1E8"/>
		</linearGradient>
		<path class="st1" d="M84.1,97.2H15.6c-3.8,0-6.9-3.1-6.9-6.9l-5.8-80c0-3.8,3.1-6.9,6.9-6.9h80c3.8,0,6.9,3.1,6.9,6.9l-5.8,80
			C91,94.1,87.9,97.2,84.1,97.2z"/>
	</g>
	<g id="wagonSeat_00000077305946903041416400000010725338019019541377_">
		<g>
			<g>
				<path class="st2" d="M61,78.9c-1.4,0-2.6-0.9-3-2.2l-2.4-7.4c-0.5-1.6,0.4-3.4,2-4c0.3-0.1,0.6-0.2,1-0.2c1.4,0,2.6,0.9,3,2.2
					l2.4,7.4c0.3,0.8,0.2,1.7-0.2,2.4c-0.4,0.8-1,1.3-1.8,1.6C61.7,78.9,61.3,78.9,61,78.9z"/>
				<path class="st3" d="M58.6,66.2c0.9,0,1.8,0.6,2.1,1.6l2.4,7.4c0.4,1.2-0.3,2.4-1.4,2.8c-0.2,0.1-0.5,0.1-0.7,0.1
					c-0.9,0-1.8-0.6-2.1-1.6l-2.4-7.4c-0.4-1.2,0.3-2.4,1.4-2.8C58.1,66.2,58.4,66.2,58.6,66.2 M58.6,64.4L58.6,64.4
					c-0.4,0-0.8,0.1-1.3,0.2c-2.1,0.7-3.3,3-2.6,5.1l2.4,7.4c0.5,1.7,2.1,2.8,3.8,2.8c0.4,0,0.8-0.1,1.3-0.2c2.1-0.7,3.3-3,2.6-5.1
					l-2.4-7.4C61.9,65.5,60.3,64.4,58.6,64.4L58.6,64.4z"/>
			</g>
		</g>
		<g>
			<g>
				<g>
					<path class="st2" d="M35.1,60.8c-4.5,0-8.2-3.7-8.2-8.2V42.3h4.9v10.3c0,1.8,1.4,3.2,3.2,3.2h3v4.9L35.1,60.8L35.1,60.8z"/>
					<path class="st3" d="M31,43.2v9.4c0,2.3,1.9,4.1,4.1,4.1h2.1v3.1h-2.1c-4,0-7.3-3.3-7.3-7.3v-9.4H31 M32.8,41.4H31h-3.1h-1.8
						v1.8v9.4c0,5,4.1,9.1,9.1,9.1h2.1h1.8v-1.8v-3.1V55h-1.8h-2.1c-1.3,0-2.3-1-2.3-2.3v-9.4L32.8,41.4L32.8,41.4z"/>
				</g>
			</g>
			<g>
				<path class="st4" d="M26,49.3c-2.7,0-5-2.2-5-5V25.2c0-2.3,1.9-4.2,4.2-4.2h3.6c3,0,5.5,2.2,5.8,5.2l2.3,18.7
					c0.1,1.1-0.2,2.3-1,3.2c-0.8,0.9-1.9,1.4-3,1.4H26V49.3z"/>
				<g>
					<path class="st3" d="M28.9,21.9c2.5,0,4.6,1.9,4.9,4.4L36.1,45c0.2,1.9-1.2,3.5-3.1,3.5h-7c-2.2,0-4.1-1.8-4.1-4.1V25.2
						c0-1.8,1.5-3.3,3.3-3.3H28.9 M28.9,20.1h-3.6c-2.8,0-5.1,2.3-5.1,5.1v19.1c0,3.2,2.6,5.9,5.9,5.9h7c1.4,0,2.7-0.6,3.7-1.7
						c0.9-1.1,1.4-2.5,1.2-3.9L35.6,26C35.2,22.7,32.3,20.1,28.9,20.1L28.9,20.1z"/>
				</g>
			</g>
			<g class="st5">
				<path d="M33,48.4h-7c-1.4,0-2.7-0.7-3.4-1.8c0.1,0,0.2,0,0.2,0h7c1.9,0,3.3-1.6,3.1-3.5l-2.3-18.7c-0.1-1-0.5-1.8-1.1-2.5
					c2.2,0.3,3.9,2.1,4.2,4.3L36,44.9C36.4,46.8,34.9,48.4,33,48.4z"/>
			</g>
			<g class="st6">
				<path class="st7" d="M31.8,22.8c-0.1,0-0.3,0-0.4,0h-3.8c-1.9,0-3.4,1.5-3.4,3.4V46c0,0.8,0.2,1.6,0.6,2.2
					c-1.7-0.5-2.9-2.1-2.9-3.9V25.2c0-1.8,1.5-3.3,3.3-3.3h3.6C30,21.9,31,22.2,31.8,22.8z"/>
			</g>
			<g>
				<path class="st4" d="M50.7,72.7c-4.8,0-8.8-3-10.3-4.1c-2.7-2-5-8-5.2-11.1c-0.1-1.7,0.3-4.2,1.9-5.8c1.1-1.2,2.6-1.8,4.4-1.8
					c0.3,0,0.5,0,0.8,0c1.3,0.1,2.5,0.3,3.7,0.5c2.2,0.3,4.2,0.6,6.8,0.6c1.4,0,2.8-0.1,4.3-0.2l0.8-0.1c2.2-0.2,5.3-0.5,8.3-0.5
					c5.5,0,9.2,1.1,11.2,3.3c1.3,1.5,1.9,3.4,1.7,5.7v0.1v0.1c-1.1,4.3-2,4.7-6.2,5.8c-3.1,0.8-8.2,2.3-17.1,6.5
					C54,72.3,52.4,72.7,50.7,72.7L50.7,72.7z"/>
				<g>
					<path class="st3" d="M41.4,50.7c0.2,0,0.5,0,0.7,0c3.7,0.4,6.5,1,10.5,1c1.3,0,2.7-0.1,4.4-0.2c2.3-0.2,5.7-0.6,9-0.6
						c6.3,0,12.6,1.4,12,8c-1.7,7-2.6,2.1-22.8,11.8c-1.5,0.7-3.1,1-4.5,1c-4.4,0-8.1-2.7-9.8-4c-2.5-1.9-4.7-7.7-4.9-10.4
						C35.9,54.8,37,50.7,41.4,50.7 M41.4,48.9L41.4,48.9c-2,0-3.8,0.7-5,2.1c-1.8,1.9-2.2,4.6-2.1,6.5c0.2,3.2,2.6,9.5,5.6,11.7
						c1.6,1.2,5.8,4.3,10.8,4.3c1.8,0,3.6-0.4,5.3-1.2c8.8-4.2,13.9-5.6,16.9-6.5c4.4-1.2,5.7-1.8,6.9-6.5v-0.1v-0.1
						c0.3-2.6-0.4-4.8-1.9-6.4c-2.2-2.4-6.1-3.6-11.9-3.6c-3,0-6.1,0.3-8.4,0.6l-0.8,0.1C55.3,50,53.9,50,52.6,50
						c-2.5,0-4.6-0.3-6.7-0.6c-1.2-0.2-2.4-0.3-3.7-0.5C42,48.9,41.7,48.9,41.4,48.9L41.4,48.9L41.4,48.9z"/>
				</g>
			</g>
			<g class="st6">
				<path class="st7" d="M75.9,53.4C70.2,52,62.2,52.7,57.4,53c-8.1,0.6-11.9-0.5-17.8-1.1c-0.6-0.1-1.1-0.1-1.6,0
					c0.9-0.8,2.2-1.3,4-1.1c4.9,0.5,8.1,1.5,14.9,0.8C62.1,51,71.7,49.8,75.9,53.4z"/>
			</g>
			<g class="st5">
				<path d="M78,59c-1.7,7-2.6,2.1-22.8,11.8c-6.2,3-12-1.3-14.3-2.9c-2.3-1.7-4.3-6.6-4.8-9.5c0.8,1.7,1.9,3.3,3,4.1
					c2.2,1.7,8.1,5.9,14.3,2.9c20.2-9.7,21.1-4.7,22.8-11.8l0,0C77.5,54.8,78.2,56.5,78,59z"/>
			</g>
		</g>
	</g>
	<g>
		<path class="st8" d="M83.5,96.4H16.2c-3.7,0-6.8-3.1-6.8-6.8L3.8,11c0-3.7,3.1-6.8,6.8-6.8h78.6c3.7,0,6.8,3.1,6.8,6.8l-5.7,78.6
			C90.3,93.4,87.2,96.4,83.5,96.4z"/>
	</g>
	<g class="st0">
		<path class="st9" d="M84.7,97.2H15.3c-3.9,0-7-3.2-7-7L2.4,9.8c0-3.9,3.2-7,7-7h81.1c3.9,0,7,3.2,7,7l-5.8,80.4
			C91.7,94.1,88.6,97.2,84.7,97.2z"/>
	</g>
	<path class="st10" d="M78,38.2l-13.2-1.3c-10.3-1-20.7,0.4-30.3,4.1l-16,6.2c-4.4,1.7-9.2-1.4-9.5-6L7.4,16
		c-0.3-4.6,3.3-8.4,7.9-8.4h73.5c2,0,3.6,1.7,3.5,3.7l-1,15.6C90.8,33.8,84.8,38.9,78,38.2z"/>
</g>
</svg>
