<?xml version="1.0" encoding="utf-8"?>
<!-- Generator: Adobe Illustrator 26.0.2, SVG Export Plug-In . SVG Version: 6.00 Build 0)  -->
<svg version="1.1" id="bikeWheels" xmlns="http://www.w3.org/2000/svg" xmlns:xlink="http://www.w3.org/1999/xlink" x="0px" y="0px"
	 width="700px" height="150px" viewBox="0 0 700 150" style="enable-background:new 0 0 700 150;" xml:space="preserve">
<style type="text/css">
	.st0{fill:none;stroke:#333333;stroke-width:0.901;stroke-miterlimit:10;}
	.st1{fill:#EE0000;stroke:#142C4D;stroke-width:1.3515;stroke-miterlimit:10;}
	.st2{opacity:0.3;}
	.st3{fill:#142C4D;}
	.st4{fill:#27579A;}
	.st5{fill:#EE0000;}
	.st6{fill:none;stroke:#142C4D;stroke-width:0.8993;stroke-miterlimit:10;}
	.st7{fill:#AEDCDD;}
	.st8{fill:#FAAA4F;}
	.st9{fill:none;stroke:#FCD4D4;stroke-width:0.8993;stroke-miterlimit:10;}
	.st10{fill:none;stroke:#FFE7BD;stroke-width:0.8993;stroke-miterlimit:10;}
	.st11{fill:none;stroke:#FCD4D4;stroke-width:1.3489;stroke-miterlimit:10;}
	.st12{fill:none;stroke:#333333;stroke-width:0.848;stroke-miterlimit:10;}
	.st13{opacity:0.2;enable-background:new    ;}
	.st14{opacity:0.8;}
	.st15{fill:none;stroke:#2B1010;stroke-width:0.8642;stroke-miterlimit:10;}
	.st16{fill:#272B33;}
	.st17{fill:#0C1726;}
	.st18{fill:#BAB1B5;}
	.st19{fill:#030B21;}
	.st20{opacity:0.65;fill:#BAB1B5;enable-background:new    ;}
	.st21{opacity:0.5;fill:#BAB1B5;enable-background:new    ;}
	.st22{fill:#79C4C6;}
	.st23{fill:#2B1010;}
	.st24{fill:#5656C1;stroke:#142C4D;stroke-width:2.0528;stroke-miterlimit:10;}
	.st25{fill:#666666;}
	.st26{opacity:0.1;enable-background:new    ;}
</style>
<g id="lowRiderWheels_00000097465788560843414110000006691510793729031080_">
	<g>
		<g>
			<line class="st0" x1="361.4" y1="48.3" x2="364.7" y2="2.8"/>
			<line class="st0" x1="366.3" y1="45.7" x2="393.4" y2="13.6"/>
			<polyline class="st0" points="404.6,23.9 368.1,49.3 379.9,6.3 			"/>
			<line class="st0" x1="411.5" y1="37" x2="372.7" y2="58.7"/>
			<line class="st0" x1="374" y1="63.4" x2="416.9" y2="51.5"/>
			<line class="st0" x1="414.2" y1="83.4" x2="374" y2="61.4"/>
			<polyline class="st0" points="406.5,95.6 369.6,71.7 382.2,114.5 			"/>
			<polyline class="st0" points="397,107.3 364.7,74.7 368.1,121.1 			"/>
			<polyline class="st0" points="353.2,118.8 355.6,74 324.5,107.8 			"/>
			<polyline class="st0" points="338.5,115.4 349.5,72.4 314,97.9 			"/>
			<polyline class="st0" points="305.1,84.8 344.4,63.4 300.6,54.6 			"/>
			<polyline class="st0" points="300.6,70.4 344.4,59.3 303.3,38.4 			"/>
			<polyline class="st0" points="311.4,26.2 350.6,49.3 335.8,7.8 			"/>
			<polyline class="st0" points="322.5,15.2 355.3,45.3 351.6,2.8 			"/>
		</g>
		<g>
			<g>
				<path d="M358.9,128.9c-35.2,0-63.7-28.6-63.7-63.7s28.6-63.7,63.7-63.7s63.7,28.6,63.7,63.7S394.1,128.9,358.9,128.9z
					 M358.9,12.7c-28.9,0-52.5,23.5-52.5,52.5s23.5,52.5,52.5,52.5c28.9,0,52.5-23.5,52.5-52.5S387.9,12.7,358.9,12.7z"/>
			</g>
		</g>
		<g>
			<path class="st1" d="M358.9,118.3c-29.3,0-53.2-23.8-53.2-53.2s23.8-53.2,53.2-53.2s53.2,23.8,53.2,53.2S388.2,118.3,358.9,118.3
				z M358.9,21.4c-24.1,0-43.8,19.6-43.8,43.8s19.6,43.8,43.8,43.8c24.1,0,43.8-19.6,43.8-43.8S383,21.4,358.9,21.4z"/>
		</g>
		<g class="st2">
			<path class="st3" d="M411.4,65.1c0,28.9-23.5,52.5-52.5,52.5c-18.4,0-34.7-9.5-44-24l8.3-3.3c7.9,11.2,21,18.5,35.8,18.5
				c24.1,0,43.8-19.6,43.8-43.8c0-1.6-0.1-3.3-0.3-4.9l8.6-1.3C411.3,61,411.4,63,411.4,65.1z"/>
		</g>
		<g>
			<g>
				<path class="st4" d="M360.3,81.8c-11.2,0-20.3-9.1-20.3-20.3s9.1-20.3,20.3-20.3s20.3,9.1,20.3,20.3S371.4,81.8,360.3,81.8z"/>
				<path class="st3" d="M360.3,42.2c10.7,0,19.4,8.7,19.4,19.4S371,81,360.3,81s-19.4-8.7-19.4-19.4S349.6,42.2,360.3,42.2
					 M360.3,40.4c-11.7,0-21.2,9.5-21.2,21.2s9.5,21.2,21.2,21.2s21.2-9.5,21.2-21.2S371.9,40.4,360.3,40.4L360.3,40.4z"/>
			</g>
			<g>
				<path class="st5" d="M360.3,76.9c-8.4,0-15.3-6.9-15.3-15.3s6.9-15.3,15.3-15.3c8.4,0,15.3,6.9,15.3,15.3S368.7,76.9,360.3,76.9
					z"/>
				<path class="st3" d="M360.3,47.1c8,0,14.4,6.5,14.4,14.4s-6.5,14.4-14.4,14.4c-8,0-14.4-6.5-14.4-14.4S352.3,47.1,360.3,47.1
					 M360.3,45.3c-8.9,0-16.2,7.3-16.2,16.2s7.3,16.2,16.2,16.2s16.2-7.3,16.2-16.2S369.2,45.3,360.3,45.3L360.3,45.3z"/>
			</g>
			<g>
				<path class="st4" d="M360.3,72.8c-6.2,0-11.3-5.1-11.3-11.3s5.1-11.3,11.3-11.3s11.3,5.1,11.3,11.3S366.5,72.8,360.3,72.8z"/>
				<path class="st3" d="M360.3,51.2c5.7,0,10.4,4.6,10.4,10.4S366.1,72,360.3,72s-10.4-4.6-10.4-10.4S354.5,51.2,360.3,51.2
					 M360.3,49.4c-6.7,0-12.2,5.5-12.2,12.2s5.5,12.2,12.2,12.2s12.2-5.5,12.2-12.2S367,49.4,360.3,49.4L360.3,49.4z"/>
			</g>
		</g>
	</g>
</g>
<g id="wagonWheels_00000105384243931602524450000011939747136184735120_">
	<g>
		<line class="st6" x1="476.9" y1="50.3" x2="452.1" y2="25.5"/>
		<line class="st6" x1="483.6" y1="46.6" x2="475.7" y2="12.4"/>
		<line class="st6" x1="491.2" y1="47" x2="502.7" y2="13.8"/>
		<line class="st6" x1="497.4" y1="51.4" x2="524.7" y2="29.3"/>
		<line class="st6" x1="500.4" y1="58.4" x2="535.2" y2="54.2"/>
		<line class="st6" x1="500.2" y1="62.8" x2="534.6" y2="70"/>
		<line class="st6" x1="493.4" y1="72.1" x2="510.5" y2="102.7"/>
		<line class="st6" x1="485.6" y1="73.8" x2="482.9" y2="108.8"/>
		<line class="st6" x1="479.3" y1="71.7" x2="460.6" y2="101.4"/>
		<line class="st6" x1="499.2" y1="65.9" x2="530.9" y2="80.9"/>
		<line class="st6" x1="474.3" y1="66.2" x2="443" y2="81.9"/>
		<line class="st6" x1="473.1" y1="62.4" x2="438.5" y2="68.5"/>
		<line class="st6" x1="474" y1="54.7" x2="441.7" y2="41"/>
		<line class="st6" x1="479.8" y1="48.1" x2="462.2" y2="17.7"/>
		<line class="st6" x1="488.4" y1="46.3" x2="492.7" y2="11.5"/>
		<line class="st6" x1="494" y1="48.3" x2="512.5" y2="18.5"/>
		<line class="st6" x1="499.4" y1="54.6" x2="531.6" y2="40.8"/>
		<line class="st6" x1="472.9" y1="58.7" x2="438" y2="55.4"/>
		<line class="st6" x1="475.7" y1="51.6" x2="447.9" y2="30.3"/>
		<line class="st6" x1="496.5" y1="50.3" x2="521.3" y2="25.5"/>
		<line class="st6" x1="496.5" y1="69.8" x2="521.3" y2="94.6"/>
		<line class="st6" x1="489.8" y1="73.5" x2="497.7" y2="107.7"/>
		<line class="st6" x1="482.2" y1="73.1" x2="470.7" y2="106.2"/>
		<line class="st6" x1="475.9" y1="68.7" x2="448.6" y2="90.7"/>
		<line class="st6" x1="497.7" y1="68.4" x2="525.5" y2="89.8"/>
		<line class="st6" x1="476.9" y1="69.8" x2="452.1" y2="94.6"/>
		<g>
			<g>
				<circle class="st7" cx="486.7" cy="60" r="13.5"/>
				<g>
					<path class="st3" d="M486.7,47.4c7,0,12.6,5.6,12.6,12.6s-5.6,12.6-12.6,12.6S474.1,67,474.1,60
						C474.1,53.1,479.7,47.4,486.7,47.4 M486.7,45.6c-7.9,0-14.4,6.5-14.4,14.4s6.5,14.4,14.4,14.4s14.4-6.5,14.4-14.4
						S494.6,45.6,486.7,45.6L486.7,45.6z"/>
				</g>
			</g>
			<g>
				<circle class="st3" cx="486.7" cy="60" r="9.9"/>
			</g>
			<g>
				<circle class="st7" cx="486.7" cy="60" r="7.7"/>
				<g>
					<path class="st3" d="M486.7,52.8c4,0,7.2,3.2,7.2,7.2s-3.2,7.2-7.2,7.2s-7.2-3.2-7.2-7.2S482.7,52.8,486.7,52.8 M486.7,51.8
						c-4.5,0-8.2,3.7-8.2,8.2s3.7,8.2,8.2,8.2s8.2-3.7,8.2-8.2S491.2,51.8,486.7,51.8L486.7,51.8z"/>
				</g>
			</g>
			<g>
				<g>
					<path d="M486.7,118.5c-32.2,0-58.5-26.2-58.5-58.5s26.2-58.5,58.5-58.5s58.5,26.2,58.5,58.5S518.9,118.5,486.7,118.5z
						 M486.7,11.9c-26.5,0-48.1,21.6-48.1,48.1s21.6,48.1,48.1,48.1s48.1-21.6,48.1-48.1S513.2,11.9,486.7,11.9z"/>
				</g>
			</g>
			<g>
				<g>
					<g>
						<g>
							<path class="st5" d="M486.7,111.3c-28.3,0-51.3-23-51.3-51.3s23-51.3,51.3-51.3S538,31.7,538,60S515,111.3,486.7,111.3z
								 M486.7,17.8c-23.3,0-42.2,19-42.2,42.2s19,42.2,42.2,42.2s42.2-19,42.2-42.2S510,17.8,486.7,17.8z"/>
							<path class="st3" d="M486.7,9.6c27.8,0,50.4,22.6,50.4,50.4s-22.6,50.4-50.4,50.4S436.3,87.8,436.3,60S458.9,9.6,486.7,9.6
								 M486.7,103.2c23.8,0,43.1-19.4,43.1-43.1c0-23.8-19.4-43.1-43.1-43.1c-23.8,0-43.1,19.4-43.1,43.1
								C443.5,83.8,462.9,103.2,486.7,103.2 M486.7,7.8c-28.8,0-52.2,23.4-52.2,52.2s23.4,52.2,52.2,52.2
								c28.8,0,52.2-23.4,52.2-52.2S515.5,7.8,486.7,7.8L486.7,7.8z M486.7,101.4c-22.8,0-41.3-18.5-41.3-41.3s18.5-41.3,41.3-41.3
								S528,37.3,528,60.1S509.5,101.4,486.7,101.4L486.7,101.4z"/>
						</g>
					</g>
				</g>
			</g>
			<g>
				<path class="st8" d="M486.7,107.5c-26.4,0-47.9-21.5-47.9-47.9s21.5-47.9,47.9-47.9s47.9,21.5,47.9,47.9
					S513.1,107.5,486.7,107.5z M486.7,13.9c-25.2,0-45.6,20.5-45.6,45.6s20.5,45.6,45.6,45.6c25.2,0,45.6-20.5,45.6-45.6
					S511.9,13.9,486.7,13.9z"/>
			</g>
			<g class="st2">
				<path class="st3" d="M537.1,60c0,27.8-22.6,50.4-50.4,50.4c-21.1,0-39.2-13-46.7-31.4l6.9-2.2c6.6,15.5,21.9,26.3,39.7,26.3
					c23.8,0,43.1-19.4,43.1-43.1c0-3.1-0.3-6.1-0.9-9l6.9-2.2C536.6,52.4,537.1,56.2,537.1,60z"/>
			</g>
			<g>
				<g>
					<path class="st5" d="M465.4,86.4c-1.2,0-2.3-0.5-3-1.4l-7-8.8c-0.6-0.8-0.9-1.8-0.8-2.8s0.6-1.9,1.4-2.6
						c0.7-0.5,1.5-0.8,2.4-0.8c1.2,0,2.3,0.5,3,1.4l7,8.8c0.6,0.8,0.9,1.8,0.8,2.8s-0.6,1.9-1.4,2.6
						C467.1,86.1,466.2,86.4,465.4,86.4z"/>
					<g>
						<path class="st3" d="M458.4,70.6c0.9,0,1.8,0.4,2.5,1.2l7,8.8c1.1,1.4,0.9,3.3-0.5,4.4l0,0c-0.6,0.5-1.3,0.7-2,0.7
							c-0.9,0-1.8-0.4-2.5-1.2l-7-8.8c-1.1-1.4-0.9-3.3,0.5-4.4C457,70.8,457.7,70.6,458.4,70.6 M458.4,69.3L458.4,69.3
							c-1,0-2,0.3-2.8,1c-0.9,0.7-1.5,1.8-1.7,3c-0.1,1.2,0.2,2.4,1,3.3l7,8.8c0.9,1.1,2.1,1.7,3.5,1.7c1,0,2-0.3,2.8-1
							c0.9-0.7,1.5-1.8,1.7-3c0.1-1.2-0.2-2.4-1-3.3l-7-8.8C461,69.9,459.7,69.3,458.4,69.3L458.4,69.3z"/>
					</g>
				</g>
				<polyline class="st9" points="456.2,76 458.8,73.9 461.1,72.2 				"/>
				<polyline class="st9" points="464.5,76.4 462.2,78.2 459.5,80.3 				"/>
				<polyline class="st10" points="462.7,84.2 465.1,82 467.4,80.1 				"/>
				<polyline class="st11" points="467.4,84.9 465.1,82 462.2,78.2 458.8,73.9 456.6,71.1 				"/>
			</g>
		</g>
	</g>
</g>
<g id="triWheels">
	<g>
		<line class="st12" x1="77.5" y1="56.8" x2="77.5" y2="17"/>
		<line class="st12" x1="79" y1="57.4" x2="104.5" y2="27.2"/>
		<polyline class="st12" points="115,36.9 80.7,60.8 91.7,20.3 		"/>
		<line class="st12" x1="121.4" y1="49.3" x2="85" y2="69.6"/>
		<line class="st12" x1="86.2" y1="74.1" x2="126.5" y2="62.8"/>
		<line class="st12" x1="124" y1="92.9" x2="86.2" y2="72.2"/>
		<polyline class="st12" points="116.8,104.4 82,81.9 93.9,122.2 		"/>
		<polyline class="st12" points="107.9,115.4 77.5,84.8 80.7,128.4 		"/>
		<polyline class="st12" points="66.6,126.3 68.9,84 39.6,115.8 		"/>
		<polyline class="st12" points="52.8,123 63.1,82.6 29.7,106.6 		"/>
		<polyline class="st12" points="21.4,94.2 58.3,74.1 17.1,65.8 		"/>
		<polyline class="st12" points="17.1,80.6 58.3,70.2 19.7,50.5 		"/>
		<polyline class="st12" points="27.3,39.1 64.2,60.8 50.2,21.7 		"/>
		<polyline class="st12" points="37.7,28.7 66.6,58.2 65.1,17 		"/>
		<g>
			<path class="st7" d="M71.8,138.3c-36.9,0-67-30.1-67-67s30.1-67,67-67s67,30.1,67,67S108.8,138.3,71.8,138.3z M71.8,17.9
				c-29.5,0-53.4,24-53.4,53.4s24,53.4,53.4,53.4s53.4-24,53.4-53.4S101.3,17.9,71.8,17.9z"/>
			<path class="st3" d="M71.8,5.2c36.5,0,66.1,29.6,66.1,66.1s-29.6,66.1-66.1,66.1S5.7,107.8,5.7,71.3S35.3,5.2,71.8,5.2
				 M71.8,125.6c30,0,54.3-24.3,54.3-54.3S101.8,17,71.8,17S17.5,41.3,17.5,71.3S41.9,125.6,71.8,125.6 M71.8,3.5
				C34.4,3.5,4,33.9,4,71.3s30.4,67.8,67.8,67.8s67.8-30.4,67.8-67.8S109.2,3.5,71.8,3.5L71.8,3.5z M71.8,123.9
				c-29,0-52.6-23.6-52.6-52.6s23.6-52.6,52.6-52.6s52.6,23.6,52.6,52.6S100.8,123.9,71.8,123.9L71.8,123.9z"/>
		</g>
		<g>
			<path class="st3" d="M78.3,15.3l0.9-5.1l3.6,0.6l-0.2,1.1l-2.5-0.4l-0.2,0.9l1.5,0.3l-0.2,1.1l-1.5-0.3l-0.4,2.1L78.3,15.3z"/>
			<path class="st3" d="M85.5,16.8l-0.1-1.1l-1.9-0.5l-0.6,0.9l-1.2-0.3l3.3-4.5l1.1,0.3l0.7,5.5L85.5,16.8z M85.2,14.6L85,13.4
				c0-0.2,0-0.3,0-0.5c0,0.1-0.1,0.2-0.3,0.4l-0.7,1L85.2,14.6z"/>
			<path class="st3" d="M88.9,18c-0.5-0.2-0.8-0.4-1.1-0.8c-0.3-0.4-0.4-0.8-0.4-1.3h1.1c0,0.3,0.1,0.5,0.2,0.7s0.3,0.3,0.5,0.4
				c0.2,0.1,0.4,0.1,0.6,0.1s0.3-0.1,0.3-0.3c0-0.1,0-0.2,0-0.3c-0.1-0.1-0.1-0.2-0.2-0.3s-0.2-0.2-0.4-0.3
				c-0.1-0.1-0.2-0.2-0.3-0.2c-0.1-0.1-0.2-0.1-0.3-0.2c-0.1-0.1-0.2-0.2-0.3-0.3c-0.1-0.1-0.1-0.2-0.2-0.3s-0.1-0.2-0.1-0.3
				s0-0.2,0-0.4c0-0.1,0-0.3,0.1-0.4c0.1-0.4,0.4-0.7,0.8-0.8c0.4-0.2,0.9-0.1,1.4,0c0.4,0.2,0.8,0.4,1,0.7s0.3,0.7,0.3,1.1h-1.1
				c0-0.4-0.2-0.7-0.6-0.8s-0.6-0.1-0.7,0.2c0,0.1,0,0.1,0,0.2c0,0.1,0.1,0.1,0.2,0.2c0.1,0.1,0.2,0.1,0.2,0.2
				c0.1,0,0.2,0.1,0.3,0.2c0.1,0.1,0.3,0.2,0.3,0.3c0.1,0.1,0.2,0.2,0.3,0.3c0.1,0.1,0.2,0.2,0.3,0.3c0.1,0.1,0.1,0.2,0.2,0.4
				c0.1,0.1,0.1,0.3,0.1,0.5s0,0.3-0.1,0.5c-0.2,0.5-0.5,0.8-0.9,0.9C89.9,18.2,89.4,18.1,88.9,18z"/>
			<path class="st3" d="M95.4,16l-1.7,3.8l-1-0.5l1.7-3.8L93,14.9l0.4-1l3.8,1.7l-0.4,1L95.4,16z"/>
			<path class="st3" d="M98,21.9l2.7-4.5l3.1,1.9l-0.5,0.9l-2.1-1.3l-0.5,0.8l1.3,0.8l-0.5,0.9l-1.3-0.8l-1.1,1.8L98,21.9z"/>
			<path class="st3" d="M103.3,25.4c-0.3-0.2-0.5-0.4-0.6-0.6c-0.2-0.2-0.3-0.5-0.3-0.7s0-0.5,0-0.8s0.1-0.5,0.2-0.7
				s0.2-0.5,0.4-0.7c0.2-0.2,0.3-0.4,0.5-0.6c0.2-0.2,0.4-0.3,0.6-0.4c0.2-0.1,0.5-0.2,0.7-0.2s0.5,0,0.8,0c0.3,0.1,0.5,0.2,0.8,0.4
				s0.6,0.5,0.7,0.8c0.2,0.3,0.2,0.6,0.2,0.9c0,0.3-0.1,0.6-0.2,0.9c-0.1,0.3-0.3,0.6-0.5,0.9c-0.2,0.3-0.4,0.5-0.7,0.7
				c-0.2,0.2-0.5,0.4-0.8,0.5s-0.6,0.1-1,0.1C104,25.8,103.6,25.7,103.3,25.4z M103.9,24.6c0.2,0.2,0.4,0.2,0.7,0.2
				c0.2,0,0.5-0.1,0.7-0.3c0.2-0.1,0.4-0.3,0.5-0.5c0.2-0.2,0.3-0.4,0.4-0.7c0.1-0.2,0.1-0.5,0.1-0.7s-0.2-0.4-0.4-0.6
				s-0.5-0.2-0.7-0.2s-0.5,0.1-0.7,0.3c-0.2,0.1-0.4,0.3-0.5,0.5s-0.2,0.3-0.3,0.5c-0.1,0.2-0.1,0.3-0.1,0.5s0,0.4,0.1,0.5
				C103.6,24.3,103.8,24.4,103.9,24.6z"/>
			<path class="st3" d="M105.9,27.3l3.4-3.9l1.9,1.7c0.5,0.4,0.7,0.8,0.7,1.2s-0.2,0.8-0.5,1.2c-0.2,0.2-0.5,0.4-0.8,0.5
				s-0.6,0.1-0.9,0l-0.6,2.2l-1-0.8l0.5-2l-0.8-0.7l-1.2,1.4L105.9,27.3z M108.7,25.9l1.1,0.9c0.3,0.3,0.6,0.2,0.8-0.1
				c0.1-0.1,0.2-0.3,0.2-0.4c0-0.1-0.1-0.3-0.2-0.4l-1.1-0.9L108.7,25.9z"/>
			<path class="st3" d="M110.4,31.3l3.1-4.4l0.8,0.9l-1.7,2.3c0,0,0,0.1-0.1,0.1l-0.1,0.1c0,0,0.1,0,0.1-0.1l0.1-0.1l2.5-1.4
				l0.7,0.7l-1.6,2.4l-0.1,0.1c0,0.1-0.1,0.1-0.1,0.1s0,0,0.1,0c0,0,0.1,0,0.1-0.1h0.1l2.4-1.5l0.8,0.9l-4.6,2.7l-0.7-0.8l1.6-2.5
				c0,0,0.1-0.1,0.2-0.2c-0.1,0.1-0.2,0.2-0.2,0.2l-2.6,1.5L110.4,31.3z"/>
			<path class="st3" d="M115.9,37.9l0.6-0.9l-1.2-1.6l-1,0.3l-0.7-1l5.4-1.5l0.7,0.9l-2.9,4.8L115.9,37.9z M117.1,36.1l0.6-1
				c0.1-0.2,0.2-0.3,0.3-0.4c-0.1,0-0.2,0.1-0.4,0.1l-1.2,0.3L117.1,36.1z"/>
			<path class="st3" d="M117,39.5l4.4-2.7l1.3,2.2c0.3,0.5,0.4,1,0.3,1.4s-0.4,0.7-0.8,1c-0.3,0.2-0.6,0.2-0.9,0.3
				c-0.3,0-0.6-0.1-0.9-0.3l-1.2,1.9l-0.7-1.1l1.1-1.8l-0.5-0.9l-1.6,1L117,39.5z M120.1,38.9l0.7,1.2c0.2,0.3,0.5,0.4,0.8,0.2
				c0.1-0.1,0.2-0.2,0.3-0.3c0.1-0.1,0-0.3-0.1-0.5l-0.7-1.2L120.1,38.9z"/>
			<path class="st3" d="M124.4,41.6l0.9,1.7c0.2,0.4,0.3,0.8,0.3,1.1s0,0.7-0.2,1c-0.1,0.3-0.3,0.5-0.5,0.8
				c-0.2,0.2-0.5,0.4-0.8,0.6c-0.2,0.1-0.5,0.2-0.7,0.2c-0.2,0.1-0.5,0.1-0.7,0.1s-0.5-0.1-0.8-0.2c-0.2-0.1-0.5-0.3-0.7-0.5
				s-0.4-0.5-0.6-0.8l-0.8-1.7L124.4,41.6z M121.6,45.2c0.2,0.4,0.5,0.6,0.8,0.7c0.4,0.1,0.7,0,1.1-0.2s0.6-0.4,0.8-0.8
				c0.2-0.3,0.2-0.7,0-1l-0.4-0.9l-2.7,1.4L121.6,45.2z"/>
		</g>
		<g>
			<path d="M72,141.5c-38.6,0-70-31.4-70-70s31.4-70,70-70s70,31.4,70,70S110.6,141.5,72,141.5z M72,7.9C36.9,7.9,8.4,36.4,8.4,71.5
				s28.5,63.6,63.6,63.6s63.6-28.5,63.6-63.6S107.1,7.9,72,7.9z"/>
		</g>
		<g>
			<g>
				<path class="st7" d="M72,88.1c-9.1,0-16.5-7.4-16.5-16.5S62.9,55,72,55s16.5,7.4,16.5,16.5S81.2,88.1,72,88.1z"/>
				<path class="st3" d="M72,55.8c8.7,0,15.7,7,15.7,15.7s-7,15.7-15.7,15.7s-15.7-7-15.7-15.7C56.4,62.9,63.4,55.8,72,55.8
					 M72,54.1c-9.6,0-17.4,7.8-17.4,17.4S62.4,88.9,72,88.9s17.4-7.8,17.4-17.4S81.6,54.1,72,54.1L72,54.1z"/>
			</g>
			<g>
				<path class="st3" d="M72,85.2c-7.5,0-13.7-6.1-13.7-13.7S64.4,57.8,72,57.8c7.5,0,13.7,6.1,13.7,13.7S79.6,85.2,72,85.2z"/>
				<g>
					<path class="st3" d="M72,58.2c7.4,0,13.4,6,13.4,13.4S79.4,85,72,85s-13.4-6-13.4-13.4S64.7,58.2,72,58.2 M72,57.5
						c-7.7,0-14,6.3-14,14s6.3,14,14,14s14-6.3,14-14S79.8,57.5,72,57.5L72,57.5z"/>
				</g>
			</g>
			<g>
				<path class="st7" d="M72,83.5c-6.6,0-12-5.4-12-12s5.4-12,12-12s12,5.4,12,12S78.7,83.5,72,83.5z"/>
				<path class="st3" d="M72,60.2c6.3,0,11.4,5.1,11.4,11.4C83.4,77.9,78.3,83,72,83s-11.4-5.1-11.4-11.4
					C60.7,65.2,65.8,60.2,72,60.2 M72,58.9c-6.9,0-12.6,5.7-12.6,12.6S65.1,84.1,72,84.1s12.6-5.7,12.6-12.6S79,58.9,72,58.9
					L72,58.9z"/>
			</g>
			<g>
				<path class="st3" d="M72,81.4c-5.4,0-9.9-4.4-9.9-9.9s4.4-9.9,9.9-9.9s9.9,4.4,9.9,9.9S77.5,81.4,72,81.4z"/>
				<g>
					<path class="st3" d="M72,62c5.3,0,9.5,4.3,9.5,9.5S77.2,81,72,81s-9.5-4.3-9.5-9.5S66.8,62,72,62 M72,61.3
						c-5.6,0-10.2,4.6-10.2,10.2S66.4,81.7,72,81.7s10.2-4.6,10.2-10.2S77.7,61.3,72,61.3L72,61.3z"/>
				</g>
			</g>
			<g>
				<path class="st7" d="M72,79.8c-4.6,0-8.3-3.7-8.3-8.3s3.7-8.3,8.3-8.3c4.6,0,8.3,3.7,8.3,8.3S76.6,79.8,72,79.8z"/>
				<path class="st3" d="M72,63.7c4.3,0,7.8,3.5,7.8,7.8s-3.5,7.8-7.8,7.8s-7.8-3.5-7.8-7.8S67.7,63.7,72,63.7 M72,62.8
					c-4.8,0-8.7,3.9-8.7,8.7s3.9,8.7,8.7,8.7s8.7-3.9,8.7-8.7S76.8,62.8,72,62.8L72,62.8z"/>
			</g>
			<g>
				<path class="st3" d="M72,78c-3.6,0-6.5-2.9-6.5-6.5S68.4,65,72,65s6.5,2.9,6.5,6.5S75.6,78,72,78z"/>
				<path class="st3" d="M72,65.4c3.4,0,6.1,2.8,6.1,6.1c0,3.4-2.8,6.1-6.1,6.1c-3.4,0-6.1-2.8-6.1-6.1C65.9,68.1,68.6,65.4,72,65.4
					 M72,64.7c-3.8,0-6.8,3.1-6.8,6.8s3.1,6.8,6.8,6.8s6.8-3.1,6.8-6.8S75.8,64.7,72,64.7L72,64.7z"/>
			</g>
		</g>
		<path class="st13" d="M57.6,77.6c3.4,8,12.6,11.7,20.6,8.3c7.4-3.2,11.2-11.4,8.9-18.9c-7.2,4.7-8.2,5.7-13.8,7
			c-4.4,1.1-7.4,1.5-16.4,1.4C57,76.2,57.3,76.9,57.6,77.6z"/>
		<path class="st13" d="M135.6,71.5c0,35.1-28.5,63.6-63.6,63.6c-33.5,0-61-26-63.4-58.9c0,0,9-1.4,9.1-0.4
			c2.3,27.8,25.6,49.7,54.1,49.7c30,0,54.3-24.3,54.3-54.3c0-11.4-3.5-21.9-9.5-30.7c-0.9-1.2,6.5-7,6.5-7
			C131,44.2,135.6,57.3,135.6,71.5z"/>
		<path class="st13" d="M135.9,75.5c-2.1,35-32.4,61.7-67.4,59.6c-15.6-1-29.5-7.5-40-17.5l8.6-4.8c8.6,7.3,19.6,12,31.7,12.7
			c29.9,1.8,55.7-20.9,57.5-50.8c0.2-3.7,0.1-7.4-0.4-10.9l8.8-4.9C135.8,64.2,136.2,69.8,135.9,75.5z"/>
		<g>
			<g class="st14">
				<path class="st7" d="M58.5,5.5c-0.3,0-0.6-0.2-0.6-0.5c-0.1-0.3,0.2-0.7,0.5-0.8c4.5-0.9,9.2-1.4,13.9-1.4
					c0.4,0,0.6,0.3,0.6,0.6S72.6,4,72.3,4c-4.6,0-9.2,0.5-13.6,1.4C58.6,5.5,58.5,5.5,58.5,5.5z"/>
			</g>
			<g class="st14">
				<path class="st7" d="M4.5,64.3C4.4,64.3,4.4,64.3,4.5,64.3c-0.4,0-0.7-0.4-0.6-0.7c0.2-1.6,0.4-3.2,0.7-4.7
					C9.4,33.2,28.9,12.2,54.1,5.3c0.3-0.1,0.7,0.1,0.8,0.4s-0.1,0.7-0.4,0.8C29.7,13.3,10.7,33.9,5.9,59.1c-0.3,1.5-0.5,3.1-0.7,4.6
					C5.1,64.1,4.8,64.3,4.5,64.3z"/>
			</g>
			<g class="st14">
				<path class="st7" d="M4,69.7L4,69.7c-0.4,0-0.6-0.3-0.6-0.7c0-0.9,0.1-1.9,0.2-2.9c0-0.4,0.3-0.6,0.7-0.6c0.4,0,0.6,0.3,0.6,0.7
					c-0.1,0.9-0.1,1.9-0.2,2.8C4.7,69.5,4.4,69.7,4,69.7z"/>
			</g>
			<g class="st14">
				<path class="st7" d="M4,72.4c-0.4,0-0.6-0.3-0.6-0.6v-0.5c0-0.3,0.3-0.6,0.6-0.6l0,0c0.4,0,0.6,0.3,0.6,0.6v0.5
					C4.6,72.1,4.3,72.4,4,72.4z"/>
			</g>
		</g>
	</g>
</g>
<g id="eBikeWheels_00000047033556651304084470000014373662460792936833_">
	<g>
		<g>
			<g>
				<line class="st15" x1="605" y1="66.9" x2="577.4" y2="52.7"/>
			</g>
			<line class="st15" x1="605" y1="66.9" x2="580.4" y2="47.1"/>
			<line class="st15" x1="607.6" y1="63.5" x2="581.7" y2="42.3"/>
			<line class="st15" x1="608.9" y1="60.4" x2="572.2" y2="63.5"/>
			<line class="st15" x1="609.4" y1="63" x2="573.5" y2="73.8"/>
			<line class="st15" x1="610.2" y1="58.7" x2="586.9" y2="38.4"/>
			<line class="st15" x1="620.2" y1="52.2" x2="586.9" y2="38.4"/>
			<line class="st15" x1="612" y1="57" x2="605.9" y2="24.6"/>
			<line class="st15" x1="612" y1="57" x2="600.3" y2="27.2"/>
			<line class="st15" x1="620.2" y1="52.2" x2="592.5" y2="33.7"/>
			<line class="st15" x1="607.6" y1="73.8" x2="580" y2="102.8"/>
			<line class="st15" x1="608.9" y1="77.3" x2="588.6" y2="110.1"/>
			<line class="st15" x1="610.2" y1="82.1" x2="574.8" y2="90.3"/>
			<line class="st15" x1="610.7" y1="79.5" x2="573.5" y2="80.3"/>
			<line class="st15" x1="615" y1="85.1" x2="614.1" y2="125.3"/>
			<line class="st15" x1="623.2" y1="85.9" x2="592.5" y2="114.5"/>
			<line class="st15" x1="624.9" y1="90.3" x2="600.3" y2="120.5"/>
			<line class="st15" x1="621.5" y1="88.1" x2="623.2" y2="125.7"/>
			<line class="st15" x1="626.2" y1="88.1" x2="650.4" y2="117.5"/>
			<line class="st15" x1="635.7" y1="84.6" x2="629.2" y2="124.4"/>
			<line class="st15" x1="638.3" y1="82.1" x2="640.9" y2="120.5"/>
			<line class="st15" x1="631" y1="85.1" x2="658.6" y2="110.1"/>
			<line class="st15" x1="662.1" y1="108.4" x2="643.9" y2="76"/>
			<line class="st15" x1="635.7" y1="82.1" x2="671.2" y2="89.4"/>
			<line class="st15" x1="669.4" y1="97.6" x2="643.5" y2="68.2"/>
			<line class="st15" x1="624.9" y1="50.1" x2="637.9" y2="25.4"/>
			<line class="st15" x1="623.2" y1="51.4" x2="631.4" y2="23.7"/>
			<line class="st15" x1="631" y1="52.2" x2="623.6" y2="22.9"/>
			<line class="st15" x1="631" y1="52.2" x2="616.7" y2="24.2"/>
			<line class="st15" x1="640.9" y1="60" x2="647" y2="28.9"/>
			<line class="st15" x1="632.3" y1="54.4" x2="662.5" y2="41.9"/>
			<line class="st15" x1="643.5" y1="66.9" x2="666.4" y2="50.1"/>
			<line class="st15" x1="671.2" y1="57.4" x2="643.1" y2="71.2"/>
			<line class="st15" x1="673.3" y1="63.5" x2="635.7" y2="59.2"/>
		</g>
		<g>
			<g>
				<g>
					<path class="st16" d="M623.2,144.9c-39.2,0-71.1-31.9-71.1-71.1S584,2.7,623.2,2.7s71.1,31.9,71.1,71.1
						S662.4,144.9,623.2,144.9z M623.2,23.1c-28,0-50.8,22.8-50.8,50.8s22.8,50.8,50.8,50.8S674,101.9,674,73.9
						C674,45.8,651.2,23.1,623.2,23.1z"/>
					<path d="M623.2,4.1c38.5,0,69.8,31.3,69.8,69.8s-31.3,69.8-69.8,69.8s-69.8-31.3-69.8-69.8S584.7,4.1,623.2,4.1 M623.2,125.9
						c28.7,0,52.1-23.4,52.1-52.1s-23.4-52.1-52.1-52.1s-52.1,23.4-52.1,52.1C571.1,102.6,594.5,125.9,623.2,125.9 M623.2,1.5
						c-39.9,0-72.4,32.5-72.4,72.4s32.5,72.4,72.4,72.4s72.4-32.5,72.4-72.4S663.1,1.5,623.2,1.5L623.2,1.5z M623.2,123.3
						c-27.3,0-49.5-22.2-49.5-49.5s22.2-49.5,49.5-49.5s49.5,22.2,49.5,49.5S650.5,123.3,623.2,123.3L623.2,123.3z"/>
				</g>
			</g>
			<g>
				<g>
					<path class="st16" d="M623.2,144.1c-38.7,0-70.2-31.5-70.2-70.2s31.5-70.2,70.2-70.2s70.2,31.5,70.2,70.2
						S661.9,144.1,623.2,144.1z M623.2,22.2c-28.5,0-51.6,23.2-51.6,51.6c0,28.5,23.2,51.6,51.6,51.6c28.5,0,51.6-23.2,51.6-51.6
						S651.7,22.2,623.2,22.2z"/>
					<path class="st3" d="M623.2,4.1c38.5,0,69.8,31.3,69.8,69.8s-31.3,69.8-69.8,69.8s-69.8-31.3-69.8-69.8S584.7,4.1,623.2,4.1
						 M623.2,125.9c28.7,0,52.1-23.4,52.1-52.1s-23.4-52.1-52.1-52.1s-52.1,23.4-52.1,52.1C571.1,102.6,594.5,125.9,623.2,125.9
						 M623.2,3.2c-39,0-70.6,31.7-70.6,70.6s31.7,70.6,70.6,70.6s70.6-31.7,70.6-70.6S662.1,3.2,623.2,3.2L623.2,3.2z M623.2,125
						C595,125,572,102,572,73.8s23-51.2,51.2-51.2s51.2,23,51.2,51.2S651.4,125,623.2,125L623.2,125z"/>
				</g>
			</g>
			<g>
				<path class="st17" d="M693,73.8c0,38.5-31.3,69.8-69.8,69.8c-20,0-38.1-8.5-50.8-22c12.5,11.8,29.3,19,47.8,19
					c38.5,0,69.8-31.3,69.8-69.8c0-18.5-7.2-35.3-19-47.8C684.5,35.8,693,53.8,693,73.8z"/>
			</g>
			<path class="st18" d="M680.3,33.8c-12.8-16-32.5-26.3-54.5-26.3c-38.5,0-69.8,31.3-69.8,69.8c0,14.9,4.7,28.7,12.7,40
				c-9.5-11.9-15.2-27.1-15.2-43.5c0-38.5,31.3-69.8,69.8-69.8C646.8,4.1,667.7,15.8,680.3,33.8z"/>
			<path class="st18" d="M677.9,77.3c0,28.7-23.4,52.1-52.1,52.1c-17.8,0-33.5-9-42.9-22.7c9.6,11.7,24.1,19.2,40.3,19.2
				c28.7,0,52.1-23.4,52.1-52.1c0-10.9-3.4-21-9.1-29.4C673.5,53.4,677.9,64.8,677.9,77.3z"/>
			<g>
				<g>
					<path class="st19" d="M624.8,50.1c-11.1,0-20.1,9-20.1,20.1s9,20.1,20.1,20.1s20.1-9,20.1-20.1S635.9,50.1,624.8,50.1z
						 M637.8,70.2c0,2.5-0.7,4.9-2,6.9L631,73c0.4-0.9,0.6-1.8,0.6-2.8c0-0.7-0.1-1.4-0.3-2.1l5.2-3.5
						C637.4,66.3,637.8,68.2,637.8,70.2z M623.1,70.9C623.1,71,623.1,71,623.1,70.9L623.1,70.9C623.1,70.9,623.1,70.8,623.1,70.9
						L623.1,70.9z M623.3,71.3L623.3,71.3C623.3,71.2,623.3,71.2,623.3,71.3C623.3,71.2,623.3,71.3,623.3,71.3z M626,68.7
						C626.1,68.7,626.1,68.7,626,68.7C626.1,68.8,626.1,68.8,626,68.7C626.1,68.8,626.1,68.8,626,68.7L626,68.7
						c-0.1-0.1-0.1-0.1-0.2-0.1c0,0-0.1,0-0.1-0.1l0,0c0,0,0.1,0,0.1,0.1l0,0C625.9,68.6,626,68.7,626,68.7L626,68.7z M626.6,70.8
						C626.7,70.7,626.7,70.7,626.6,70.8c0-0.1,0-0.1,0-0.1V70.8C626.7,70.7,626.6,70.8,626.6,70.8z M625.3,72L625.3,72L625.3,72
						L625.3,72C625.2,72,625.2,72,625.3,72z M625.6,71.9L625.6,71.9L625.6,71.9L625.6,71.9C625.5,72,625.5,72,625.6,71.9
						C625.5,71.9,625.5,71.9,625.6,71.9z M625.7,71.9L625.7,71.9L625.7,71.9L625.7,71.9L625.7,71.9z M625.9,71.7l0.1-0.1
						C626,71.7,626,71.7,625.9,71.7L625.9,71.7L625.9,71.7c-0.1,0.1-0.1,0.1-0.2,0.1C625.8,71.8,625.9,71.8,625.9,71.7z M624.7,68.3
						L624.7,68.3c-0.1,0-0.2,0-0.3,0h-0.1c-0.2,0.1-0.3,0.1-0.5,0.2c0,0,0,0-0.1,0l0,0l0,0l0.4-0.3L624.7,68.3z M624.8,57.2
						c3.8,0,7.3,1.7,9.6,4.3l-5.2,3.5c-1.2-1-2.7-1.6-4.4-1.6c-0.1,0-0.1,0-0.2,0l-1.9-6C623.4,57.3,624.1,57.2,624.8,57.2z
						 M619.1,58.5l1.9,6c-1.4,0.9-2.4,2.3-2.8,4l-6.3,0.2C612.5,64.2,615.2,60.4,619.1,58.5z M612.1,72.5l6.3-0.2
						c0.5,1.6,1.6,3,3.1,3.8l-1.5,6.1C615.9,80.5,612.8,76.9,612.1,72.5z M624.8,83.2c-0.4,0-0.9,0-1.3-0.1L625,77
						c1.3,0,2.5-0.5,3.6-1.1l4.8,4.1C631.1,82,628.1,83.2,624.8,83.2z"/>
				</g>
			</g>
		</g>
		<g>
			<g>
				<g>
					<path class="st16" d="M623.2,144.9c-39.2,0-71.1-31.9-71.1-71.1S584,2.7,623.2,2.7s71.1,31.9,71.1,71.1
						S662.4,144.9,623.2,144.9z M623.2,23.1c-28,0-50.8,22.8-50.8,50.8s22.8,50.8,50.8,50.8S674,101.9,674,73.9
						C674,45.8,651.2,23.1,623.2,23.1z"/>
					<path d="M623.2,4.1c38.5,0,69.8,31.3,69.8,69.8s-31.3,69.8-69.8,69.8s-69.8-31.3-69.8-69.8S584.7,4.1,623.2,4.1 M623.2,125.9
						c28.7,0,52.1-23.4,52.1-52.1s-23.4-52.1-52.1-52.1s-52.1,23.4-52.1,52.1C571.1,102.6,594.5,125.9,623.2,125.9 M623.2,1.5
						c-39.9,0-72.4,32.5-72.4,72.4s32.5,72.4,72.4,72.4s72.4-32.5,72.4-72.4S663.1,1.5,623.2,1.5L623.2,1.5z M623.2,123.3
						c-27.3,0-49.5-22.2-49.5-49.5s22.2-49.5,49.5-49.5s49.5,22.2,49.5,49.5S650.5,123.3,623.2,123.3L623.2,123.3z"/>
				</g>
			</g>
			<g>
				<g>
					<path class="st16" d="M623.2,144.1c-38.7,0-70.2-31.5-70.2-70.2s31.5-70.2,70.2-70.2s70.2,31.5,70.2,70.2
						S661.9,144.1,623.2,144.1z M623.2,22.2c-28.5,0-51.6,23.2-51.6,51.6c0,28.5,23.2,51.6,51.6,51.6c28.5,0,51.6-23.2,51.6-51.6
						S651.7,22.2,623.2,22.2z"/>
					<path class="st3" d="M623.2,4.1c38.5,0,69.8,31.3,69.8,69.8s-31.3,69.8-69.8,69.8s-69.8-31.3-69.8-69.8S584.7,4.1,623.2,4.1
						 M623.2,125.9c28.7,0,52.1-23.4,52.1-52.1s-23.4-52.1-52.1-52.1s-52.1,23.4-52.1,52.1C571.1,102.6,594.5,125.9,623.2,125.9
						 M623.2,3.2c-39,0-70.6,31.7-70.6,70.6s31.7,70.6,70.6,70.6s70.6-31.7,70.6-70.6S662.1,3.2,623.2,3.2L623.2,3.2z M623.2,125
						C595,125,572,102,572,73.8s23-51.2,51.2-51.2s51.2,23,51.2,51.2S651.4,125,623.2,125L623.2,125z"/>
				</g>
			</g>
			<g>
				<path class="st17" d="M693,73.8c0,38.5-31.3,69.8-69.8,69.8c-20,0-38.1-8.5-50.8-22c12.5,11.8,29.3,19,47.8,19
					c38.5,0,69.8-31.3,69.8-69.8c0-18.5-7.2-35.3-19-47.8C684.5,35.8,693,53.8,693,73.8z"/>
			</g>
			<path class="st20" d="M680.3,33.8c-12.8-16-32.5-26.3-54.5-26.3c-38.5,0-69.8,31.3-69.8,69.8c0,14.9,4.7,28.7,12.7,40
				c-9.5-11.9-15.2-27.1-15.2-43.5c0-38.5,31.3-69.8,69.8-69.8C646.8,4.1,667.7,15.8,680.3,33.8z"/>
			<path class="st21" d="M677.9,77.3c0,28.7-23.4,52.1-52.1,52.1c-17.8,0-33.5-9-42.9-22.7c9.6,11.7,24.1,19.2,40.3,19.2
				c28.7,0,52.1-23.4,52.1-52.1c0-10.9-3.4-21-9.1-29.4C673.5,53.4,677.9,64.8,677.9,77.3z"/>
			<g>
				<g>
					<path class="st19" d="M624.8,50.1c-11.1,0-20.1,9-20.1,20.1s9,20.1,20.1,20.1s20.1-9,20.1-20.1S635.9,50.1,624.8,50.1z
						 M637.8,70.2c0,2.5-0.7,4.9-2,6.9L631,73c0.4-0.9,0.6-1.8,0.6-2.8c0-0.7-0.1-1.4-0.3-2.1l5.2-3.5
						C637.4,66.3,637.8,68.2,637.8,70.2z M623.1,70.9C623.1,71,623.1,71,623.1,70.9L623.1,70.9C623.1,70.9,623.1,70.8,623.1,70.9
						L623.1,70.9z M623.3,71.3L623.3,71.3C623.3,71.2,623.3,71.2,623.3,71.3C623.3,71.2,623.3,71.3,623.3,71.3z M626,68.7
						C626.1,68.7,626.1,68.7,626,68.7C626.1,68.8,626.1,68.8,626,68.7C626.1,68.8,626.1,68.8,626,68.7L626,68.7
						c-0.1-0.1-0.1-0.1-0.2-0.1c0,0-0.1,0-0.1-0.1l0,0c0,0,0.1,0,0.1,0.1l0,0C625.9,68.6,626,68.7,626,68.7L626,68.7z M626.6,70.8
						C626.7,70.7,626.7,70.7,626.6,70.8c0-0.1,0-0.1,0-0.1V70.8C626.7,70.7,626.6,70.8,626.6,70.8z M625.3,72L625.3,72L625.3,72
						L625.3,72C625.2,72,625.2,72,625.3,72z M625.6,71.9L625.6,71.9L625.6,71.9L625.6,71.9C625.5,72,625.5,72,625.6,71.9
						C625.5,71.9,625.5,71.9,625.6,71.9z M625.7,71.9L625.7,71.9L625.7,71.9L625.7,71.9L625.7,71.9z M625.9,71.7l0.1-0.1
						C626,71.7,626,71.7,625.9,71.7L625.9,71.7L625.9,71.7c-0.1,0.1-0.1,0.1-0.2,0.1C625.8,71.8,625.9,71.8,625.9,71.7z M624.7,68.3
						L624.7,68.3c-0.1,0-0.2,0-0.3,0h-0.1c-0.2,0.1-0.3,0.1-0.5,0.2c0,0,0,0-0.1,0l0,0l0,0l0.4-0.3L624.7,68.3z M624.8,57.2
						c3.8,0,7.3,1.7,9.6,4.3l-5.2,3.5c-1.2-1-2.7-1.6-4.4-1.6c-0.1,0-0.1,0-0.2,0l-1.9-6C623.4,57.3,624.1,57.2,624.8,57.2z
						 M619.1,58.5l1.9,6c-1.4,0.9-2.4,2.3-2.8,4l-6.3,0.2C612.5,64.2,615.2,60.4,619.1,58.5z M612.1,72.5l6.3-0.2
						c0.5,1.6,1.6,3,3.1,3.8l-1.5,6.1C615.9,80.5,612.8,76.9,612.1,72.5z M624.8,83.2c-0.4,0-0.9,0-1.3-0.1L625,77
						c1.3,0,2.5-0.5,3.6-1.1l4.8,4.1C631.1,82,628.1,83.2,624.8,83.2z"/>
				</g>
			</g>
		</g>
	</g>
</g>
<g id="streetWheels">
	<g>
		<path class="st22" d="M283.1,72.5c0,35.6-28.9,64.5-64.5,64.5c-29,0-53.6-19.2-61.7-45.5c-1.8-6-2.8-12.4-2.8-19
			C154.1,36.9,183,8,218.6,8c26.6,0,49.4,16.1,59.3,39C281.3,54.8,283.1,63.4,283.1,72.5z"/>
		<g>
			<path d="M217.1,119c0.7,1.3,1.6,2.7,2.3,3.7h0.7l-0.1-3.8h2l0.2,9.2c-0.8,0.3-1.8,0.4-2.7,0.5c-2.6,0.1-4-1-4-2.9
				c0-1.2,0.7-2.2,1.9-2.5l0,0c-0.8-1-1.8-2.7-2.5-4L217.1,119z M219.3,127c0.4,0,0.7-0.1,0.9-0.1l-0.1-3.1h-0.9
				c-0.9,0-1.7,0.5-1.7,1.6C217.6,126.7,218.5,127.1,219.3,127z"/>
			<path d="M210.6,118.3c2.1,0.3,3.1,2.1,2.7,4.3c-0.3,2.2-1.9,3.6-3.9,3.2c-2-0.3-3.1-2.1-2.7-4.3S208.5,118,210.6,118.3z
				 M209.7,124.3c1,0.2,1.5-0.8,1.7-2.1s0-2.3-1-2.5c-1-0.1-1.5,0.7-1.7,2C208.5,123.1,208.7,124.2,209.7,124.3z"/>
			<path d="M203.4,116.6c1.8,0.6,2.7,1.6,2.2,3.2c-0.5,1.7-2.2,1.8-4,1.3c-0.3-0.1-0.5-0.2-0.7-0.2c-0.2,0.8-0.1,1.3,0.8,1.6
				c0.7,0.2,1.4,0.3,2,0.2l-0.1,1.5c-0.5,0-1.5,0-2.5-0.4c-1.6-0.5-2.3-1.6-2-3c0.1-0.3,0.1-0.5,0.2-0.8l1.3-3.8
				C201.1,116,202.2,116.2,203.4,116.6z M201.3,119.7c0.2,0.1,0.4,0.2,0.7,0.2c0.8,0.2,1.5,0.1,1.7-0.7c0.2-0.7-0.1-1.1-0.9-1.4
				c-0.4-0.1-0.6-0.2-0.9-0.2L201.3,119.7z"/>
			<path d="M196.3,113.6c2,1,2.6,2.9,1.5,5s-2.9,2.8-4.6,1.9c-0.5-0.2-0.8-0.5-1-0.8l-1.6,3l-1.7-0.9l4.7-9
				C194.2,112.8,195.3,113,196.3,113.6z M192.8,118.4c0.1,0.2,0.4,0.4,0.7,0.6c1,0.5,1.9-0.1,2.5-1.3c0.7-1.3,0.6-2.3-0.4-2.9
				c-0.3-0.2-0.6-0.3-0.8-0.3L192.8,118.4z"/>
			<path d="M183.9,104.2l1.2,1.2c-0.5,1-1.1,2.2-1.7,3.3c-0.2,0.3-0.4,0.6-0.5,0.7c1.2-0.7,2.8-1.7,4-2.3l1.2,1.2
				c-0.9,2-2.1,4.4-3.5,6.8l-1.5-1.4c0.7-1.2,1.5-2.4,2.1-3.6c0.2-0.4,0.4-0.6,0.5-0.8l-0.5,0.3c-1.3,0.8-2.7,1.6-3.9,2.4l-1.1-1.1
				c0.8-1.3,1.5-2.6,2.2-3.9c0.1-0.2,0.3-0.4,0.3-0.5c-0.1,0-0.4,0.3-0.7,0.5c-1.2,0.7-2.5,1.5-3.6,2.2l-1.4-1.3
				C179.5,106.4,181.9,105.2,183.9,104.2z"/>
			<path d="M180.6,99.7c1.1,1.6,1.2,2.9-0.2,3.9c-1.4,1-2.8,0.1-4-1.3c-0.2-0.2-0.3-0.5-0.4-0.6c-0.6,0.5-0.9,1-0.3,1.8
				c0.4,0.6,1,1.1,1.4,1.3l-1,1.1c-0.4-0.3-1.2-0.9-1.8-1.8c-1-1.4-0.9-2.6,0.2-3.6c0.2-0.2,0.4-0.4,0.7-0.5l3.3-2.3
				C179.1,98,179.9,98.7,180.6,99.7z M177.1,101c0.1,0.2,0.3,0.4,0.5,0.6c0.5,0.6,1.1,1,1.8,0.5c0.6-0.4,0.6-1,0.1-1.7
				c-0.2-0.3-0.4-0.5-0.6-0.7L177.1,101z"/>
			<path d="M171.1,95.4c0.1,0.4,0.2,0.6,0.3,0.9c0.2,0.4,0.4,0.7,0.6,0.8l5.2-2.7l0.9,1.8l-6.1,3.2c-0.5-0.4-1.1-1.1-1.7-2.1
				c-0.2-0.4-0.5-1-0.6-1.5C170.2,95.6,170.7,95.5,171.1,95.4z"/>
			<path d="M168.9,89.7c0,0.4,0.1,0.6,0.2,0.9c0.2,0.5,0.4,0.7,0.5,0.9l5.4-2l0.7,1.9l-6.5,2.4c-0.5-0.5-1-1.2-1.4-2.3
				c-0.2-0.4-0.3-1-0.4-1.5C167.9,89.8,168.4,89.8,168.9,89.7z"/>
			<path d="M165.8,87.4c0.2,0.6-0.1,1.2-0.7,1.4s-1.2-0.2-1.3-0.8c-0.2-0.6,0.1-1.2,0.7-1.4C165.1,86.4,165.6,86.8,165.8,87.4z
				 M174,86.2l-7.1,1.9l-0.5-1.9l7.1-1.9L174,86.2z"/>
			<path d="M172.8,79.8c0.3,2.1-1.1,3.5-3.3,3.8c-2.2,0.3-3.9-0.8-4.2-2.8c-0.3-2.1,1.1-3.5,3.3-3.8
				C170.8,76.7,172.5,77.7,172.8,79.8z M166.7,80.6c0.1,1,1.2,1.2,2.5,1.1c1.3-0.2,2.2-0.7,2.1-1.6c-0.1-1-1.1-1.2-2.4-1
				C167.5,79.1,166.6,79.6,166.7,80.6z"/>
			<path d="M166.4,71c-0.1,0.4-0.1,0.6-0.1,0.9c0,0.5,0.1,0.8,0.1,1l5.8,0.1v2l-6.9-0.1c-0.3-0.6-0.5-1.5-0.5-2.6
				c0-0.5,0.1-1.1,0.2-1.6C165.5,70.8,165.9,70.9,166.4,71z"/>
		</g>
		<path class="st23" d="M218.6,7c36.2,0,65.5,29.3,65.5,65.5S254.8,138,218.6,138s-65.5-29.3-65.5-65.5S182.5,7,218.6,7 M218.6,1.5
			c-19,0-36.8,7.4-50.2,20.8c-13.4,13.4-20.8,31.2-20.8,50.2s7.4,36.8,20.8,50.2s31.2,20.8,50.2,20.8s36.8-7.4,50.2-20.8
			c13.4-13.4,20.8-31.2,20.8-50.2s-7.4-36.8-20.8-50.2C255.4,8.9,237.6,1.5,218.6,1.5L218.6,1.5z"/>
		<path class="st24" d="M218.6,12.1c33.4,0,60.4,27.1,60.4,60.4s-27.1,60.4-60.4,60.4s-60.4-27.1-60.4-60.4S185.3,12.1,218.6,12.1
			 M218.6,7c-17.5,0-33.9,6.8-46.3,19.2S153.1,55,153.1,72.5s6.8,33.9,19.2,46.3c12.4,12.4,28.8,19.2,46.3,19.2s33.9-6.8,46.3-19.2
			c12.4-12.4,19.2-28.8,19.2-46.3s-6.8-33.9-19.2-46.3C252.6,13.8,236.1,7,218.6,7L218.6,7z"/>
		<g>
			<circle class="st25" cx="218.6" cy="72.5" r="17.8"/>
			<path class="st3" d="M218.6,55.5c9.4,0,17,7.6,17,17s-7.6,17-17,17s-17-7.6-17-17S209.2,55.5,218.6,55.5 M218.6,54
				c-10.2,0-18.5,8.3-18.5,18.5S208.4,91,218.6,91s18.5-8.3,18.5-18.5S228.8,54,218.6,54L218.6,54z"/>
		</g>
		<g class="st2">
			<circle cx="219.9" cy="73.7" r="13.2"/>
		</g>
		<g>
			<circle class="st25" cx="218.6" cy="72.5" r="13.2"/>
			<path class="st3" d="M218.6,60c6.9,0,12.5,5.6,12.5,12.5S225.5,85,218.6,85s-12.5-5.6-12.5-12.5S211.7,60,218.6,60 M218.6,58.5
				c-7.7,0-14,6.3-14,14s6.3,14,14,14s14-6.3,14-14S226.3,58.5,218.6,58.5L218.6,58.5z"/>
		</g>
		<g class="st2">
			<circle cx="219.4" cy="73.7" r="10.8"/>
		</g>
		<g>
			<circle class="st25" cx="218.6" cy="72.5" r="10.5"/>
			<path class="st3" d="M218.6,62.7c5.4,0,9.8,4.4,9.8,9.8c0,5.4-4.4,9.8-9.8,9.8s-9.8-4.4-9.8-9.8
				C208.9,67.1,213.2,62.7,218.6,62.7 M218.6,61.2c-6.2,0-11.2,5-11.2,11.2s5,11.2,11.2,11.2s11.2-5,11.2-11.2
				S224.8,61.2,218.6,61.2L218.6,61.2z"/>
		</g>
		<path class="st26" d="M283.1,72.5c0,35.6-28.9,64.5-64.5,64.5c-29,0-53.6-19.2-61.7-45.5l121-44.5
			C281.3,54.8,283.1,63.4,283.1,72.5z"/>
	</g>
</g>
</svg>
