<?xml version="1.0" encoding="utf-8"?>
<!-- Generator: Adobe Illustrator 26.0.2, SVG Export Plug-In . SVG Version: 6.00 Build 0)  -->
<svg version="1.1" id="bikeFrames" xmlns="http://www.w3.org/2000/svg" xmlns:xlink="http://www.w3.org/1999/xlink" x="0px" y="0px"
	 width="420px" height="75px" viewBox="0 0 420 75" style="enable-background:new 0 0 420 75;" xml:space="preserve">
<style type="text/css">
	.st0{fill:#EE0000;}
	.st1{fill:#8F0000;}
	.st2{fill:#FFFFFF;}
	.st3{fill:#142C4D;}
	.st4{fill:#93D3E6;}
	.st5{fill:#4CB6D6;}
	.st6{opacity:0.3;}
	.st7{fill:none;stroke:#4D4D4D;stroke-width:4.5051;stroke-linecap:round;stroke-linejoin:round;stroke-miterlimit:10;}
	.st8{fill:#DD00FF;}
	.st9{fill:none;stroke:#EE0000;stroke-width:1.7985;stroke-linecap:round;stroke-linejoin:round;stroke-miterlimit:10;}
	.st10{fill:none;stroke:#142C4D;stroke-width:1.7985;stroke-linecap:round;stroke-miterlimit:10;}
	.st11{fill:none;stroke:#FAAA4F;stroke-width:1.3489;stroke-linecap:round;stroke-linejoin:round;stroke-miterlimit:10;}
	.st12{fill:#7C7679;}
	.st13{opacity:0.2;}
	.st14{opacity:0.6;}
	.st15{opacity:0.23;}
	.st16{opacity:0.5;}
	.st17{fill:#EE0000;stroke:#142C4D;stroke-width:1.7985;stroke-miterlimit:10;}
	.st18{fill:#AEDCDD;stroke:#142C4D;stroke-width:1.6961;stroke-linecap:round;stroke-linejoin:round;stroke-miterlimit:10;}
	.st19{fill:#71AFAF;}
	.st20{fill:#27579A;}
	.st21{fill:#AEDCDD;}
	.st22{opacity:0.57;}
	.st23{fill:#142C4D;stroke:#142C4D;stroke-width:1.6961;stroke-miterlimit:10;}
	.st24{fill:#08192D;}
	.st25{fill:#43ADAF;}
	.st26{fill:#5656C1;}
	.st27{opacity:0.3;fill:#FFFFFF;}
	.st28{fill:#168989;}
	.st29{opacity:0.34;}
	.st30{fill:#3F3A3D;}
	.st31{opacity:0.41;}
	.st32{fill:#666666;}
	.st33{fill:#281D1D;}
	.st34{fill:#EADFDF;}
	.st35{fill:#79C4C6;}
	.st36{fill:#0C514F;}
	.st37{fill:#C3F4F4;}
	.st38{fill:#666666;stroke:#000000;stroke-width:2;stroke-miterlimit:10;}
	.st39{opacity:0.51;}
	.st40{opacity:0.51;fill:#281D1D;}
	.st41{fill:#37CCD3;}
</style>
<g id="lowRiderHandles_00000001623035948438096200000009237475482095423159_">
	<g>
		<g>
			<path class="st0" d="M244.8,20.5c-1.3,0.2-2.6-0.4-3.1-1.7c-0.7-1.5,0-3.2,1.4-3.9l6.7-3.1c1.5-0.7,3.2,0,3.9,1.4
				c0.7,1.5,0,3.2-1.4,3.9l-6.7,3.1C245.3,20.4,245.1,20.5,244.8,20.5z"/>
			<path class="st1" d="M252.3,17.2l-6.7,3.1c-0.2,0.1-0.5,0.2-0.8,0.2c-1,0.2-1.9-0.2-2.6-0.9c0.1,0,0.2,0,0.3,0
				c0.3,0,0.5-0.1,0.8-0.2l6.7-3.1c1.5-0.7,2.1-2.4,1.4-3.9c-0.1-0.3-0.3-0.6-0.5-0.8c1.2-0.1,2.3,0.6,2.8,1.7
				C254.4,14.8,253.8,16.5,252.3,17.2z"/>
			<path class="st2" d="M254,14.3c-0.8-1.2-2.3-1.7-3.7-1.1l-6.7,3.1c-1.1,0.5-1.8,1.7-1.7,2.9c-0.1-0.1-0.1-0.2-0.2-0.3
				c-0.7-1.5,0-3.2,1.4-3.9l6.7-3.1c1.5-0.7,3.2,0,3.9,1.4C253.9,13.6,254,14,254,14.3z"/>
			<path class="st3" d="M244.4,21.3c-1.4,0-2.7-0.8-3.3-2.1c-0.8-1.8,0-3.9,1.8-4.8l6.7-3.1c1.8-0.8,3.9,0,4.8,1.8
				c0.8,1.8,0,3.9-1.8,4.8l-6.7,3.1c-0.3,0.1-0.6,0.2-0.9,0.3C244.7,21.2,244.6,21.3,244.4,21.3z M251.1,12.3
				c-0.3,0-0.6,0.1-0.9,0.2l-6.7,3.1c-1.1,0.5-1.6,1.9-1.1,3c0.4,0.9,1.4,1.4,2.4,1.3l0,0c0.2,0,0.4-0.1,0.6-0.2l6.7-3.1
				c1.1-0.5,1.6-1.9,1.1-3C252.8,12.8,251.9,12.3,251.1,12.3z"/>
		</g>
	</g>
	<g>
		<g>
			<ellipse transform="matrix(0.9875 -0.1578 0.1578 0.9875 0.9567 40.0083)" class="st0" cx="252.4" cy="14" rx="5" ry="5.5"/>
			<ellipse transform="matrix(0.9875 -0.1578 0.1578 0.9875 0.8218 40.1091)" class="st1" cx="253" cy="14.9" rx="4.5" ry="4.9"/>
			<path class="st3" d="M252.6,20.1c-1.2,0-2.4-0.4-3.4-1.2c-1.2-1-2-2.4-2.3-4c-0.3-1.6,0.1-3.2,0.9-4.5c0.9-1.3,2.2-2.2,3.7-2.4
				c3.1-0.5,6,1.8,6.6,5.2v0c0.3,1.6-0.1,3.2-0.9,4.5c-0.9,1.3-2.2,2.2-3.7,2.4C253.1,20.1,252.8,20.1,252.6,20.1z M252.3,9.2
				c-0.2,0-0.4,0-0.6,0c-1.1,0.2-2.1,0.8-2.8,1.8c-0.7,1-0.9,2.3-0.7,3.6c0.2,1.3,0.8,2.4,1.8,3.1c0.9,0.8,2.1,1.1,3.2,0.9
				c1.1-0.2,2.1-0.8,2.8-1.8c0.7-1,0.9-2.3,0.7-3.6C256.3,10.9,254.4,9.2,252.3,9.2z"/>
		</g>
	</g>
	<g>
		<g>
			<g>
				<path class="st4" d="M277.3,60.8c-1.2,0-2.3-0.7-2.7-1.8l-17.9-43.5l-2.9,1c-0.3,0.1-0.6,0.1-0.8,0.1c-1.1,0-2.1-0.8-2.5-2.1
					l0-0.1c-0.5-1.6,0.1-3.1,1.6-3.5l5.5-1.8c0.3-0.1,0.6-0.1,0.9-0.1c1.1,0,2,0.6,2.6,1.5c0.1,0.1,0.1,0.2,0.2,0.3l19,46
					c0.6,1.5-0.1,3.2-1.6,3.8c-0.3,0.1-0.6,0.2-1,0.2L277.3,60.8z"/>
				<path class="st3" d="M258.3,9.6c0.8,0,1.6,0.4,2,1.1c0,0.1,0.1,0.2,0.1,0.2l3,7.4L279.4,57c0.5,1.1-0.1,2.5-1.2,2.9
					c-0.2,0.1-0.5,0.2-0.8,0.2c0,0-0.1,0-0.1,0c-0.9,0-1.7-0.5-2.1-1.4L259,19.5l-2-4.9l-3.5,1.2c-0.2,0.1-0.4,0.1-0.6,0.1
					c-0.9,0-1.5-0.6-1.9-1.6c0,0,0,0,0,0c-0.4-1.2-0.1-2.4,1.1-2.8l5.5-1.8C257.9,9.6,258.1,9.6,258.3,9.6 M258.3,8.2L258.3,8.2
					c-0.4,0-0.8,0.1-1.1,0.2l-5.5,1.8c-1.7,0.6-2.5,2.3-2,4.2v0.1l0.1,0.2c0.5,1.5,1.7,2.4,3.1,2.4c0.3,0,0.7-0.1,1.1-0.2l2.3-0.8
					l1.5,3.7L274,59.3c0.6,1.4,1.9,2.2,3.3,2.2c0.1,0,0.1,0,0.2,0c0.4,0,0.8-0.1,1.2-0.3c1.8-0.8,2.7-2.9,2-4.7l-15.9-38.6l-3-7.4
					c-0.1-0.1-0.1-0.3-0.2-0.4C260.8,8.9,259.6,8.2,258.3,8.2L258.3,8.2z"/>
			</g>
			<path class="st5" d="M278.2,60c-0.2,0.1-0.5,0.2-0.8,0.2c-0.9,0-1.8-0.5-2.2-1.4l-5.4-13.2L274,44l5.4,13
				C279.9,58.2,279.3,59.5,278.2,60z"/>
			<g class="st6">
				<path class="st3" d="M278.2,60c-0.2,0.1-0.5,0.2-0.8,0.2c-0.9,0-1.8-0.5-2.2-1.4l-2.4-5.8l3.9-2.3l2.6,6.4
					C279.9,58.2,279.3,59.5,278.2,60z"/>
			</g>
			<g>
				<path class="st5" d="M263,17.5l-4.4,1.1l-1.6-4l-3.5,1.2c-1.2,0.4-2.1-0.3-2.5-1.5c0,0,0,0,0,0l9.3-3.5c0,0.1,0.1,0.2,0.1,0.2
					L263,17.5z"/>
				<g class="st6">
					<polygon class="st3" points="258.2,17.2 262.8,16.6 261.3,12.9 257,14.6 					"/>
				</g>
			</g>
		</g>
	</g>
	<g>
		<g>
			<g>
				<path class="st4" d="M264.8,64.6c-0.3-0.8-0.3-1.6,0.1-2.4c0.4-0.8,1-1.3,1.8-1.5l14.3-4L263.5,8.3c-0.3-0.7-0.2-1.5,0.1-2.2
					c0.3-0.7,0.9-1.2,1.7-1.5c0.3-0.1,0.7-0.2,1-0.2c1.2,0,2.3,0.8,2.8,1.9l18.6,51.4c0.3,0.8,0.2,1.6-0.2,2.3
					c-0.4,0.7-1,1.3-1.8,1.5l-14.2,3.9l2.4,5.8l-5.6,1.8L264.8,64.6z"/>
				<path class="st3" d="M266.2,5c0.9,0,1.8,0.6,2.1,1.5l1.3,3.6l17.3,47.8c0.2,0.6,0.2,1.2-0.1,1.8c-0.3,0.6-0.8,1-1.4,1.1
					l-14.9,4.1l2.4,5.9l-2.2,0.7l-2.1,0.7l-3.2-7.9c-0.2-0.6-0.2-1.3,0.1-1.8c0.3-0.6,0.8-1,1.4-1.2l15-4.2L267,15.9l-1.7-4.7
					L264.1,8c-0.4-1.2,0.2-2.5,1.4-2.9C265.7,5.1,266,5,266.2,5 M266.2,3.7c-0.4,0-0.8,0.1-1.2,0.2c-1.9,0.7-2.8,2.7-2.2,4.6
					l1.1,3.2l1.7,4.7l14.4,39.9L266.5,60c-1,0.3-1.8,1-2.3,1.9c-0.5,0.9-0.5,2-0.1,3l3.2,7.9l0.5,1.2l1.2-0.4l2.1-0.7l2.2-0.7
					l1.4-0.5l-0.6-1.3l-1.8-4.5l13.4-3.7c1-0.3,1.8-0.9,2.2-1.8c0.5-0.9,0.5-1.9,0.2-2.9L270.9,9.6L269.6,6
					C269.1,4.6,267.8,3.7,266.2,3.7L266.2,3.7z"/>
			</g>
			<path class="st5" d="M286.8,59.7c-0.3,0.6-0.8,1-1.4,1.1l-14.9,4.1l2.4,5.9l-2.2,0.7l-3-7.6l18-5.4L270.7,17l-2.8,0.7l-2.6-6.5
				l4.4-1.1l17.3,47.8C287.2,58.5,287.1,59.1,286.8,59.7z"/>
			<g class="st6">
				<polygon class="st3" points="267.2,15.8 271.8,15.2 270.3,12 266.1,13.7 				"/>
			</g>
			<g class="st6">
				<path class="st3" d="M286.8,59.7c-0.3,0.6-0.8,1-1.4,1.1l-14.9,4.1l2.3,5.6l-2.3,0.4l-2.8-7l3.2-1l14.7-4.4L287,58
					C287.1,58.5,287.1,59.1,286.8,59.7z"/>
			</g>
		</g>
	</g>
	<path class="st7" d="M255.5,13.1"/>
	<g>
		<g>
			<circle class="st0" cx="265.5" cy="7.9" r="6"/>
			<path class="st1" d="M271.5,8.7c-0.5,3.3-3.6,5.6-6.9,5.1c-2.1-0.3-3.8-1.7-4.6-3.5c0.8,0.7,1.9,1.3,3.1,1.4
				c3.3,0.5,6.4-1.8,6.9-5.1c0.2-1.2,0-2.4-0.5-3.4C271,4.6,271.8,6.6,271.5,8.7z"/>
			<path class="st3" d="M265.5,14.6c-3.7,0-6.7-3-6.7-6.7s3-6.7,6.7-6.7s6.7,3,6.7,6.7S269.2,14.6,265.5,14.6z M265.5,2.5
				c-3,0-5.4,2.4-5.4,5.4s2.4,5.4,5.4,5.4s5.4-2.4,5.4-5.4S268.4,2.5,265.5,2.5z"/>
		</g>
	</g>
	<g>
		<path class="st8" d="M266.7,3.6l-0.9-0.3C266.1,3.4,266.4,3.5,266.7,3.6z"/>
	</g>
	<g>
		<g>
			<path class="st0" d="M267.6,9c-0.3,0.8-0.8,1.5-1.6,1.8l-5.8,3l-2.9-5.6l5.8-3c0.7-0.4,1.6-0.4,2.4-0.2c0.8,0.3,1.5,0.8,1.8,1.6
				C267.8,7.4,267.9,8.2,267.6,9z"/>
			<path class="st1" d="M267.8,8c0,0.3,0,0.7-0.2,1c-0.3,0.8-0.8,1.5-1.6,1.8l-5.8,3l-0.6-1.2l7.3-4.1C267.3,8.4,267.5,8.2,267.8,8z
				"/>
			<path class="st2" d="M266.1,4.6c-0.3-0.2-0.6-0.3-0.9-0.4c-0.8-0.2-1.7-0.1-2.4,0.3l-5.7,3.3l0.7,1.1l7.4-4
				C265.5,4.8,265.8,4.6,266.1,4.6z"/>
			<path class="st3" d="M268.6,6c-0.5-1.1-1.5-1.9-2.6-2.2c-1.1-0.4-2.4-0.3-3.4,0.3l-7.1,3.6l4.1,8l7.1-3.6
				c1.1-0.5,1.9-1.5,2.2-2.6S269.2,7.1,268.6,6z M260.2,13.8l-2.9-5.6l5.8-3c0.7-0.4,1.6-0.4,2.4-0.2c0.8,0.3,1.5,0.8,1.8,1.6
				c0.4,0.8,0.5,1.6,0.2,2.4c-0.3,0.8-0.8,1.5-1.6,1.8L260.2,13.8z"/>
		</g>
		<g>
			<circle class="st0" cx="258.2" cy="11.3" r="3.8"/>
			<path class="st3" d="M258.2,15.8c-0.5,0-0.9-0.1-1.4-0.2c-1.1-0.4-2.1-1.2-2.6-2.2l0,0c-1.1-2.2-0.2-4.9,2-6.1
				c2.2-1.1,4.9-0.2,6.1,2c1.1,2.2,0.2,4.9-2,6.1C259.6,15.7,258.9,15.8,258.2,15.8z M255.4,12.8c0.4,0.8,1,1.3,1.8,1.6
				c0.8,0.3,1.7,0.2,2.4-0.2c1.5-0.8,2.2-2.7,1.4-4.2c-0.8-1.5-2.7-2.2-4.2-1.4C255.2,9.3,254.6,11.2,255.4,12.8L255.4,12.8z"/>
		</g>
	</g>
</g>
<g id="wagonHandles_00000055707997246483192420000008454162380231624349_">
	<g>
		<path class="st9" d="M330.9,24.4c1.4,10.1-1.9,17.3-6.5,23.7"/>
		<path class="st10" d="M331.3,24.5c-5.2,8.8-12.2,12.4-19.8,14.5"/>
		<path class="st11" d="M331.4,24.5c-3.5,9.6-9.7,14.5-16.8,17.9"/>
		<path class="st10" d="M330.9,24.4c-0.9,10.1-5.6,16.5-11.5,21.7"/>
		<path class="st9" d="M331.1,24.4c-2,10-7.4,15.8-13.8,20.3"/>
		<path class="st11" d="M331.4,24.4c0.3,10.2-3.6,17-8.9,22.9"/>
	</g>
	<g>
		<g>
			<path class="st12" d="M348.8,72.9l-7.6-18.6c-0.5-1.2-0.1-2.5,0.9-3.4l14.9-12.2l-6.2-6.5c-1.1-1.2-1.1-3,0.1-4.1
				c0.3-0.3,0.7-0.5,1-0.6c0.1,0,0.1,0,0.2-0.1c0.1,0,0.2-0.1,0.3-0.1c0.1,0,0.3,0,0.5,0c0.3,0,0.6,0,0.9,0.1
				c0.5,0.1,0.9,0.4,1.2,0.8l8.4,8.8c0.6,0.6,0.9,1.4,0.8,2.2c-0.1,0.8-0.4,1.6-1.1,2.1L347.3,54l7.7,18.9H348.8z"/>
			<path class="st3" d="M352.7,27.9c0.2,0,0.4,0,0.7,0.1c0.4,0.1,0.7,0.3,1,0.6l8.4,8.8c0.4,0.5,0.7,1.1,0.6,1.7
				c0,0.6-0.3,1.2-0.8,1.6l-16,13.1l7.5,18.4h-4.9L341.7,54c-0.4-0.9-0.1-2,0.7-2.6l15.4-12.6l-6.7-7.1c-0.9-0.9-0.8-2.3,0.1-3.2
				c0.2-0.2,0.5-0.4,0.8-0.5c0.1,0,0.1,0,0.2-0.1c0.1,0,0.1,0,0.2,0C352.5,27.9,352.6,27.9,352.7,27.9 M352.7,26.6
				c-0.2,0-0.4,0-0.6,0.1c-0.1,0-0.2,0-0.3,0.1c-0.1,0-0.2,0.1-0.3,0.1c-0.4,0.1-0.9,0.4-1.2,0.8c-1.4,1.4-1.5,3.6-0.1,5.1l5.7,6
				l-14.3,11.7c-1.2,1-1.7,2.7-1.1,4.1l7.5,18.2l0.3,0.8h0.9h4.9h2l-0.8-1.9l-7.1-17.5l15.3-12.5c0.8-0.6,1.2-1.6,1.3-2.6
				c0.1-1-0.3-2-1-2.7l-8.4-8.8c-0.4-0.4-1-0.8-1.5-1C353.5,26.6,353.1,26.6,352.7,26.6L352.7,26.6z"/>
		</g>
	</g>
	<path class="st13" d="M362.6,40.7l-16,13.1l7.5,18.4h-2.3l-7.9-19.3l16-13.1c0.5-0.4,0.8-1,0.8-1.6c0-0.6-0.2-1.2-0.6-1.7L352,28
		c0.1,0,0.1,0,0.2-0.1c0.1,0,0.1,0,0.2,0c0.3-0.1,0.7,0,1,0.1c0.4,0.1,0.7,0.3,1,0.6l8.4,8.8c0.4,0.5,0.7,1.1,0.6,1.7
		C363.3,39.7,363,40.3,362.6,40.7z"/>
	<g>
		<g>
			<path class="st0" d="M352.6,33.1c-0.7,0-1.4-0.2-1.9-0.7l-18.1-3.7c-0.3-0.1-0.6-0.2-0.9-0.3c-1.2-0.7-1.8-2-1.6-3.4
				c0.3-1.5,1.6-2.5,3.1-2.5c0.2,0,0.4,0,0.6,0.1l19.3,3.9c1.2,0.2,2.1,1.1,2.4,2.3l0.1,0.4c0.4,1.7-0.6,3.4-2.3,3.8
				C353.1,33,352.8,33.1,352.6,33.1z"/>
			<path class="st3" d="M333.2,23.4c0.1,0,0.3,0,0.5,0l19.3,3.9c0.8,0.2,1.5,0.8,1.7,1.6l0.1,0.3c0.3,1.2-0.4,2.4-1.6,2.7
				c-0.2,0-0.4,0.1-0.6,0.1c-0.6,0-1.1-0.2-1.5-0.6l-18.3-3.7c-0.2,0-0.4-0.1-0.6-0.2c-0.8-0.5-1.3-1.4-1.1-2.4
				C331.2,24.1,332.1,23.4,333.2,23.4 M333.2,21.6L333.2,21.6c-1.9,0-3.6,1.4-4,3.2c-0.4,1.7,0.4,3.5,2,4.3c0.4,0.2,0.8,0.3,1.2,0.4
				l17.9,3.7c0.7,0.5,1.5,0.7,2.3,0.7c0.3,0,0.7,0,1-0.1c2.2-0.6,3.5-2.8,2.9-4.9l-0.1-0.3c-0.4-1.5-1.6-2.6-3.1-3L334,21.7
				C333.7,21.6,333.5,21.6,333.2,21.6L333.2,21.6z"/>
		</g>
	</g>
	<g class="st14">
		<g>
			<path class="st2" d="M353.6,31.9c0.3-0.5,0.4-1.1,0.2-1.6l-0.1-0.3c-0.2-0.8-0.9-1.5-1.7-1.6l-19.3-3.9c-0.5-0.1-1.1,0-1.5,0.2
				c0.5-0.8,1.4-1.3,2.4-1.1l19.3,3.9c0.8,0.2,1.5,0.8,1.7,1.6l0.1,0.3C355,30.4,354.5,31.4,353.6,31.9z"/>
		</g>
	</g>
	<g class="st15">
		<path d="M353.1,32.1c-0.8,0.2-1.5,0-2.1-0.5l-18.3-3.7c-0.2,0-0.4-0.1-0.6-0.2c-0.8-0.5-1.3-1.4-1.1-2.4c0-0.2,0.1-0.5,0.3-0.7
			c0.2,0.3,0.5,0.6,0.9,0.8c0.2,0.1,0.4,0.2,0.6,0.2l18.3,3.7c0.5,0.5,1.3,0.7,2.1,0.5c0.6-0.2,1.1-0.6,1.4-1.1
			c0,0.1,0.1,0.2,0.1,0.3l0.1,0.3C355.1,30.6,354.3,31.8,353.1,32.1z"/>
	</g>
	<g>
		<g>
			<path class="st0" d="M334.7,41.4c-1.2,0-2.3-0.7-2.9-1.8c-0.7-1.6-0.1-3.5,1.5-4.2l17.8-8.3c0.4-0.2,0.9-0.3,1.3-0.3
				c0.7,0,1.4,0.2,2,0.7l0.3,0.2c1.4,1.1,1.6,3.1,0.5,4.4c-0.6,0.7-1.5,1.2-2.4,1.2c0,0,0,0-0.1,0L336,41.1
				c-0.3,0.1-0.6,0.2-0.9,0.3C334.9,41.4,334.8,41.4,334.7,41.4z"/>
			<path class="st3" d="M352.5,27.7c0.5,0,1,0.2,1.4,0.5l0.3,0.2c1,0.8,1.1,2.2,0.3,3.2c-0.4,0.5-1.1,0.8-1.8,0.8
				c-0.1,0-0.2,0-0.2,0l-16.9,7.9c-0.2,0.1-0.4,0.2-0.7,0.2c-0.1,0-0.2,0-0.3,0c-0.8,0-1.7-0.5-2-1.3c-0.5-1.1,0-2.5,1.1-3l17.8-8.3
				C351.9,27.8,352.2,27.7,352.5,27.7 M352.5,25.9c-0.6,0-1.2,0.1-1.7,0.4L333,34.6c-2,0.9-2.9,3.4-2,5.4c0.7,1.4,2.1,2.3,3.7,2.3
				c0.2,0,0.4,0,0.5,0c0.4-0.1,0.8-0.2,1.2-0.3l16.5-7.7c1.2,0,2.3-0.6,3-1.5c1.4-1.7,1.1-4.3-0.6-5.7l-0.3-0.2
				C354.3,26.2,353.4,25.9,352.5,25.9L352.5,25.9z"/>
		</g>
	</g>
	<g class="st13">
		<path d="M354.5,31.6c-0.5,0.6-1.3,0.9-2,0.8l-16.9,7.9c-0.2,0.1-0.4,0.2-0.7,0.2c-0.9,0.1-1.9-0.4-2.3-1.3
			c-0.1-0.1-0.1-0.2-0.1-0.4c0.3,0.1,0.6,0.1,0.9,0.1c0.2,0,0.4-0.1,0.7-0.2l16.9-7.9c0.7,0.1,1.5-0.2,2-0.8
			c0.5-0.6,0.6-1.4,0.4-2.1c0.2,0.1,0.4,0.2,0.6,0.3l0.3,0.2C355.2,29.2,355.3,30.6,354.5,31.6z"/>
	</g>
	<g class="st16">
		<g>
			<path class="st2" d="M334.4,39.2c0.2,0.5,0.7,0.9,1.1,1.1c-0.2,0.1-0.4,0.1-0.6,0.2c-0.9,0.1-1.9-0.4-2.3-1.3
				c-0.5-1.1,0-2.5,1.1-3l17.8-8.3c0.6-0.3,1.3-0.3,1.9,0c0,0,0,0-0.1,0l-17.8,8.3C334.4,36.8,333.9,38.1,334.4,39.2z"/>
		</g>
	</g>
	<circle class="st17" cx="334.6" cy="38.5" r="2.7"/>
	<g>
		<path class="st9" d="M334.1,38.4c3.6,9.5,2,17.3-1.1,24.5"/>
		<path class="st10" d="M334.5,38.4c-3.1,9.7-9.2,14.8-16.1,18.6"/>
		<path class="st11" d="M334.5,38.4c-1.3,10.1-6.2,16.3-12.3,21.2"/>
		<path class="st10" d="M334.1,38.4c1.4,10.1-1.8,17.3-6.4,23.7"/>
		<path class="st9" d="M334.3,38.4c0.3,10.2-3.7,17-9,22.9"/>
		<path class="st11" d="M334.5,38.3c2.6,9.8,0.3,17.4-3.5,24.3"/>
	</g>
</g>
<g id="triHandles_00000052784437709885703770000007912044441334009239_">
	<g>
		<path class="st18" d="M81.7,44.4c-2.2,0-4.5-0.5-6.8-0.9c-5.4-1.1-18.1-1.8-35.9,0c-1.2,0.1-2.2-0.7-2.3-1.9
			c-0.1-1.2,0.7-2.2,1.9-2.3c18.3-1.8,31.5-1.1,37.2,0c6,1.2,9.6,2,14.4-3.9c5.6-6.9,18-17.2,18.5-17.7c0.9-0.7,2.2-0.6,3,0.3
			c0.7,0.9,0.6,2.2-0.3,3c-0.1,0.1-12.6,10.5-17.9,17.1C89.4,43,85.5,44.4,81.7,44.4z"/>
	</g>
	<path class="st19" d="M110.8,20.3c-0.1,0.1-12.7,10.6-18.1,17.2c-3.4,4.2-6.8,6-11.1,6c-2.2,0-4.3-0.4-6.6-0.9
		c-3-0.6-8.3-1.1-15.4-1.1c-5.8,0-12.7,0.3-20.8,1.1c-0.7,0.1-1.3-0.4-1.4-1.1c0-0.1,0-0.3,0-0.4c0.3,0.2,0.6,0.3,0.9,0.3
		c8-0.8,15-1.1,20.8-1.1c7.1,0,12.4,0.5,15.4,1.1c2.3,0.5,4.4,0.9,6.6,0.9c4.3,0,7.7-1.9,11.1-6c5.4-6.7,17.9-17.1,18.1-17.2
		c0.2-0.2,0.4-0.4,0.4-0.7c0.1,0.1,0.1,0.1,0.2,0.2C111.4,19.1,111.4,19.9,110.8,20.3z"/>
	<g>
		<g>
			<path class="st0" d="M14,46.7c-0.1,0-0.2,0-0.3-0.1c-0.2-0.1-0.4-0.2-0.5-0.5c-0.1-0.2-0.1-0.4,0-0.6c1.5-3.6,5.6-5.8,12.1-6.5
				c1.3-0.1,2.7-0.2,4.2-0.2c2.7,0,4.7,0.2,4.9,0.3c0.5,0.1,0.8,0.5,0.7,0.9c-0.1,0.4-0.4,0.7-0.8,0.7l-0.1,0
				c-0.2,0-2.1-0.2-4.6-0.2c-4.6,0-12.7,0.7-14.7,5.6C14.6,46.5,14.3,46.7,14,46.7z"/>
			<path class="st3" d="M29.4,39.2c2.8,0,4.8,0.2,4.8,0.3c0.2,0,0.4,0.2,0.4,0.5c0,0.2-0.2,0.4-0.4,0.4c0,0,0,0-0.1,0
				c-0.1,0-2-0.2-4.7-0.2c-5.2,0-13.1,0.9-15.1,5.9c-0.1,0.2-0.2,0.3-0.4,0.3c-0.1,0-0.1,0-0.2,0c-0.2-0.1-0.3-0.3-0.2-0.6
				c1.4-3.4,5.5-5.6,11.7-6.2C26.7,39.3,28.2,39.2,29.4,39.2 M29.4,38.4c-1.5,0-2.9,0.1-4.2,0.2c-6.6,0.7-10.9,3-12.4,6.8
				c-0.1,0.3-0.1,0.7,0,1c0.1,0.3,0.4,0.6,0.7,0.7c0.2,0.1,0.3,0.1,0.5,0.1c0.5,0,1-0.3,1.2-0.8c1.9-4.7,9.8-5.4,14.3-5.4
				c2.6,0,4.5,0.2,4.6,0.2c0,0,0.1,0,0.2,0c0.6,0,1.2-0.5,1.3-1.1c0-0.3-0.1-0.7-0.3-0.9c-0.2-0.3-0.5-0.4-0.8-0.5
				C34.3,38.6,32.2,38.4,29.4,38.4L29.4,38.4z"/>
		</g>
	</g>
	<g>
		<g>
			<path class="st0" d="M17.1,49.6c-0.1,0-0.1,0-0.2,0c-0.2-0.1-0.4-0.2-0.5-0.4c-0.1-0.2-0.2-0.4-0.1-0.6c0.9-3.8,4.7-6.6,11-8.2
				c4.6-1.2,9-1.3,9-1.3c0,0,0,0,0,0c0.5,0,0.9,0.4,0.9,0.8c0,0.2-0.1,0.4-0.2,0.6c-0.2,0.2-0.4,0.3-0.6,0.3
				c-0.2,0-16.5,0.6-18.4,8.2c-0.1,0.3-0.4,0.6-0.7,0.6L17.1,49.6z"/>
			<path class="st3" d="M36.3,39.5c0.2,0,0.4,0.2,0.4,0.4c0,0.2-0.2,0.4-0.4,0.4c-0.2,0-16.8,0.5-18.8,8.5c0,0.2-0.2,0.3-0.3,0.3
				c0,0,0,0-0.1,0c0,0-0.1,0-0.1,0c-0.2-0.1-0.4-0.3-0.3-0.5c0.9-3.6,4.6-6.3,10.7-7.9C31.9,39.6,36.3,39.5,36.3,39.5
				C36.3,39.5,36.3,39.5,36.3,39.5 M36.3,38.7L36.3,38.7L36.3,38.7c-0.2,0-4.6,0.1-9.1,1.3c-6.4,1.6-10.3,4.6-11.3,8.5
				c-0.1,0.3,0,0.7,0.1,1c0.2,0.3,0.5,0.5,0.8,0.6c0.1,0,0.2,0,0.3,0c0.1,0,0.1,0,0.2,0c0.5-0.1,0.9-0.5,1.1-1
				c1.8-7.3,17.8-7.9,18-7.9c0.3,0,0.6-0.1,0.9-0.4c0.2-0.2,0.4-0.6,0.4-0.9C37.6,39.2,37,38.7,36.3,38.7L36.3,38.7z"/>
		</g>
	</g>
	<g>
		<path class="st20" d="M31.4,41.3c-0.5-0.3-0.7-0.8-0.7-1.4c0-0.8,0.6-1.5,1.4-1.7l4-0.8l-1.6,5.9L31.4,41.3z"/>
		<path class="st3" d="M35.4,38l-1.3,4.7l-2.5-1.7c-0.3-0.2-0.6-0.6-0.6-1.1c0-0.6,0.4-1.1,1-1.3L35.4,38 M36.5,36.9l-1.3,0.3
			l-3.3,0.6c-1,0.2-1.7,1.1-1.7,2.1c0,0.7,0.3,1.4,0.9,1.8l2.5,1.7l1,0.7l0.3-1.2l1.3-4.7L36.5,36.9L36.5,36.9z"/>
	</g>
	<g>
		<path class="st20" d="M34.5,46.5v-1.7c0-5.8,4.7-10.6,10.6-10.6h6.3c2.8,0,5.1,2.3,5.1,5.1v7.2H34.5z"/>
		<path class="st3" d="M51.4,35c2.4,0,4.3,1.9,4.3,4.3v6.3H35.4v-0.9c0-5.4,4.3-9.7,9.7-9.7H51.4 M51.4,33.3h-6.3
			c-6.3,0-11.4,5.1-11.4,11.4v0.9v1.7h1.7h20.4h1.7v-1.7v-6.3C57.4,36,54.7,33.3,51.4,33.3L51.4,33.3z"/>
	</g>
	<g class="st14">
		<path class="st21" d="M55.1,36.3c-0.1,0-0.2,0-0.3,0H43.4c-4.4,0-8,3.2-8,7.1v1.4h-0.1v-2.7c0-3.9,3.2-7.1,7.1-7.1h10.1
			C53.6,35,54.5,35.5,55.1,36.3z"/>
	</g>
	<g>
		<path class="st20" d="M2.4,53.8c0.1-0.3,2.7-7.1,8.8-7.5L27.5,45c0.1,0,0.3,0,0.4,0c5.2,0,5.6,8.4,5.6,8.8l0,0.9L1.9,55L2.4,53.8z
			"/>
		<path class="st3" d="M27.9,45.8c4.5,0,4.7,7.9,4.7,7.9L3.1,54.1c0,0,2.4-6.6,8.1-7l16.3-1.3C27.7,45.8,27.8,45.8,27.9,45.8
			 M27.9,44.1L27.9,44.1c-0.2,0-0.3,0-0.5,0l-16.3,1.3c-6.6,0.5-9.4,7.8-9.5,8.1l-0.9,2.3l2.5,0l29.5-0.3l1.7,0l-0.1-1.7
			C34.2,50.2,32.7,44.1,27.9,44.1L27.9,44.1z"/>
	</g>
	<g class="st22">
		<path class="st3" d="M31.6,49c0.4,1,0.6,2,0.8,2.8c0.2,1.1,0.2,1.9,0.2,1.9l-6.2,0.1L14.5,54L3.3,53.9c0.3-0.6,1-2.2,2.3-3.6
			L31.6,49"/>
	</g>
	<g>
		<path class="st20" d="M23.6,54.6v-6.3c0-0.1,0-1.5,1.2-2.8c1.1-1.1,2.8-1.7,5.1-1.7h28.2c1.5,0,2.9,0.6,3.8,1.8
			c1,1.2,1,2.9,0.1,4.1l-1.5,2L51.2,55L23.6,54.6z"/>
		<path class="st3" d="M58.1,44.8c1.2,0,2.4,0.5,3.2,1.5c0.7,0.9,0.8,2.1,0.1,3L60,51.1l-8.9,3l-26.6-0.3l0-5.4c0,0-0.1-3.6,5.4-3.6
			H58.1 M58.1,43.1H29.9c-2.5,0-4.4,0.7-5.7,2c-1.4,1.5-1.5,3.2-1.4,3.4l0,5.4l0,1.7l1.7,0L51,55.8l0.3,0l0.3-0.1l8.9-3l0.5-0.2
			l0.3-0.4l1.4-1.8c1.2-1.6,1.1-3.7-0.1-5.2C61.4,43.8,59.8,43.1,58.1,43.1L58.1,43.1z"/>
	</g>
	<g class="st22">
		<path class="st3" d="M58,49h-7l-26.6-0.3v5.1l26.6,0.3l8.9-3l1.4-1.8c0.3-0.4,0.5-1,0.5-1.5c0-0.6-0.2-1.1-0.6-1.6
			C61.3,46.3,61.2,49,58,49z"/>
	</g>
	<g>
		<path class="st21" d="M52.1,54.3c-0.2,0-0.3,0-0.5-0.1l-8.3-5.5c-0.3-0.2-0.4-0.6-0.3-1c0.1-0.4,0.4-0.6,0.8-0.6h10.6
			c0.2,0,0.3,0,0.5,0.1l8.3,5.5c0.3,0.2,0.4,0.6,0.3,1c-0.1,0.4-0.4,0.6-0.8,0.6H52.1z"/>
		<g>
			<path class="st3" d="M54.5,48l8.3,5.5H52.1L43.9,48H54.5 M54.5,46.3H43.9c-0.7,0-1.4,0.5-1.6,1.2c-0.2,0.7,0.1,1.5,0.7,1.9
				l8.3,5.5c0.3,0.2,0.6,0.3,0.9,0.3h10.6c0.7,0,1.4-0.5,1.6-1.2c0.2-0.7-0.1-1.5-0.7-1.9l-8.3-5.5C55.1,46.4,54.8,46.3,54.5,46.3
				L54.5,46.3z"/>
		</g>
	</g>
	<g>
		<g>
			<path class="st0" d="M53,60.7c-2.2,0-4-1.8-4-4s1.8-4,4-4h22.3c2.2,0,4,1.8,4,4s-1.8,4-4,4H53z"/>
			<path class="st3" d="M75.4,53.5c1.8,0,3.2,1.4,3.2,3.2s-1.4,3.2-3.2,3.2H53c-1.8,0-3.2-1.4-3.2-3.2s1.4-3.2,3.2-3.2H75.4
				 M75.4,51.8H53c-2.7,0-4.9,2.2-4.9,4.9s2.2,4.9,4.9,4.9h22.3c2.7,0,4.9-2.2,4.9-4.9S78,51.8,75.4,51.8L75.4,51.8z"/>
		</g>
	</g>
	<g class="st14">
		<path class="st2" d="M71.8,53.5c-0.3,0.4-0.6,0.8-0.8,1.2H52.3c-0.6,0-1.3,0-1.8,0.1C51,54,52,53.5,53,53.5H71.8z"/>
	</g>
	<g class="st13">
		<path d="M78.5,56.7c0,1.8-1.4,3.2-3.2,3.2H53c-1.5,0-2.8-1.1-3.1-2.5h25c1.5,0,2.8-0.8,3.3-1.9C78.4,55.8,78.5,56.2,78.5,56.7z"/>
	</g>
	<g>
		<g>
			<path class="st3" d="M75.5,62.4c-3.2,0-5.7-2.6-5.7-5.7c0-0.8,0.2-1.5,0.5-2.3c0.9-2.1,3-3.5,5.3-3.5h22.4c3.2,0,5.7,2.6,5.7,5.7
				c0,0.1,0,0.2,0,0.3c0,0.1,0,0.2,0,0.3c0,0,0,0.1,0,0.2c0,0.1,0,0.2,0,0.3c0,0.1,0,0.2-0.1,0.3c-0.6,2.6-2.9,4.4-5.6,4.4H75.5z"/>
			<path class="st3" d="M97.9,51.8c2.7,0,4.9,2.2,4.9,4.9c0,0.1,0,0.2,0,0.3c0,0.1,0,0.1,0,0.2c0,0.1,0,0.1,0,0.2c0,0.1,0,0.1,0,0.2
				c0,0.1,0,0.2-0.1,0.3c-0.5,2.1-2.4,3.7-4.7,3.7H75.5c-2.7,0-4.9-2.2-4.9-4.9c0-0.7,0.1-1.3,0.4-1.9c0.8-1.7,2.5-2.9,4.5-2.9H97.9
				 M97.9,50.1H75.5c-2.6,0-5,1.6-6,4c-0.4,0.8-0.5,1.7-0.5,2.6c0,3.6,2.9,6.6,6.6,6.6h22.4c3,0,5.7-2.1,6.4-5
				c0-0.2,0.1-0.3,0.1-0.4c0-0.1,0-0.2,0-0.3c0-0.1,0-0.2,0-0.2c0-0.1,0-0.2,0-0.3l0,0l0,0c0-0.1,0-0.2,0-0.4
				C104.5,53,101.5,50.1,97.9,50.1L97.9,50.1z"/>
		</g>
	</g>
	<g class="st14">
		<path class="st21" d="M102.8,56.7c0,0.1,0,0.2,0,0.3c0,0.1,0,0.1,0,0.2c0,0.1,0,0.1,0,0.2c0,0.1,0,0.1,0,0.2c0,0.1,0,0.2-0.1,0.3
			c-0.5-2.1-2.4-3.7-4.7-3.7H73.4c-0.9,0-1.7,0.2-2.4,0.6c0.8-1.7,2.5-2.9,4.5-2.9h22.4C100.6,51.8,102.8,54,102.8,56.7z"/>
	</g>
	<g>
		<g>
			<path class="st21" d="M79.5,72.9c-0.5,0-1-0.2-1.3-0.5c-0.5-0.5-0.4-1-0.3-1.2c0.5-1.3,3.5-1.9,10.4-2.8c2.5-0.3,5-0.7,6.9-1.1
				c1.2-0.3,2.3-1,3.1-2l3.1-5.9l-3.8-5.4c-0.7-1-0.4-2.3,0.5-2.9c0.5-0.3,1.1-0.5,1.7-0.5c1,0,1.9,0.5,2.4,1.3l4.3,6.1
				c0.6,0.9,0.6,2.1-0.1,3l-6.4,8.5c-0.4,0.5-0.9,0.9-1.6,1c-3.7,0.7-15.3,2.2-18.9,2.5C79.6,72.8,79.6,72.9,79.5,72.9z"/>
			<path class="st3" d="M99.9,51.1c0.7,0,1.5,0.4,1.9,1l4.3,6.1c0.5,0.7,0.5,1.6,0,2.2l-6.4,8.5c-0.3,0.4-0.7,0.6-1.2,0.7
				c-3.8,0.7-15.2,2.2-18.9,2.5c0,0-0.1,0-0.1,0c-0.3,0-0.6-0.1-0.8-0.3c-1.9-2.1,10.6-2.8,16.7-4.1c1.4-0.3,2.6-1.1,3.4-2.2
				l3.3-6.3l-4-5.7c-0.5-0.7-0.3-1.6,0.4-2.1C98.9,51.2,99.4,51.1,99.9,51.1 M99.9,49.8C99.9,49.8,99.9,49.8,99.9,49.8
				c-0.7,0-1.5,0.2-2.1,0.6c-0.6,0.4-1,1-1.1,1.8c-0.1,0.7,0,1.5,0.4,2.1l3.5,5.1l-2.9,5.5c-0.7,0.8-1.6,1.4-2.6,1.7
				c-1.8,0.4-4.4,0.8-6.8,1.1c-7.6,1.1-10.3,1.6-10.9,3.3c-0.2,0.6-0.1,1.3,0.4,1.8c0.4,0.5,1.1,0.7,1.7,0.7c0.1,0,0.1,0,0.2,0
				c3.8-0.3,15.2-1.8,19-2.5c0.8-0.1,1.5-0.6,2-1.2l6.4-8.5c0.8-1.1,0.9-2.6,0.1-3.7l-4.3-6.1C102.2,50.4,101,49.8,99.9,49.8
				L99.9,49.8z"/>
		</g>
	</g>
	<path class="st23" d="M90.6,36.2l3.7,0.7c0.6,0.1,1.2,0,1.6-0.4l12.6-11.5c0.7-0.7,1.1-1.6,1-2.6v0c-0.1-1.3-1.3-2.3-2.6-2.2
		l-2,0.2c-1,0.1-2,0.6-2.7,1.3L90,34.6C89.5,35.1,89.8,36.1,90.6,36.2z"/>
	<path class="st24" d="M108.4,25.1L95.8,36.5c-0.4,0.4-1,0.6-1.6,0.4l-3.7-0.7c-0.8-0.2-1.1-1.1-0.5-1.7l0.1-0.1l2,0.4
		c0.6,0.1,1.2-0.1,1.6-0.4L106.3,23c0.7-0.7,1.1-1.6,1-2.6c0,0,0,0,0,0c1.1,0.1,2,1,2.1,2.1C109.5,23.4,109.1,24.4,108.4,25.1z"/>
	<g>
		<circle class="st0" cx="100.2" cy="52.8" r="1.3"/>
		<path class="st3" d="M100.2,52c0.5,0,0.8,0.4,0.8,0.8s-0.4,0.8-0.8,0.8c-0.5,0-0.8-0.4-0.8-0.8S99.8,52,100.2,52 M100.2,51.1
			c-0.9,0-1.7,0.8-1.7,1.7s0.8,1.7,1.7,1.7c0.9,0,1.7-0.8,1.7-1.7S101.2,51.1,100.2,51.1L100.2,51.1z"/>
	</g>
</g>
<g id="eBikeHandles_00000044899175088111284820000005264886752099291545_">
	<g>
		<g>
			<path class="st25" d="M401.2,39.5c-0.3,0-0.5-0.1-0.7-0.3c0,0-0.1-0.1-0.2-0.1c-0.4-0.1-0.8-0.3-0.9-0.7l-0.1-0.3l0.2-0.3
				l0.3-0.4c-0.9,0.2-1.8,0.2-2.6,0.2c-1.2,0-2.3-0.2-3.5-0.5c-0.3-0.1-0.5-0.3-0.7-0.5c-0.2-0.3-0.2-0.6-0.1-0.9
				c0.1-0.2,0.2-0.4,0.4-0.6c0.2-0.2,0.5-0.2,0.7-0.2c0.1,0,0.2,0,0.3,0c1,0.3,2.1,0.4,3.1,0.4c1.8,0,3.7-0.4,5.8-1.1
				c0.1,0,0.3-0.1,0.4-0.1c0.4,0,0.7,0.2,0.9,0.5c0.3,0.4,0.3,1,0,1.4l-2.4,3C401.8,39.4,401.5,39.5,401.2,39.5z"/>
			<path class="st3" d="M403.6,34.9c0.2,0,0.3,0.1,0.4,0.2c0.1,0.2,0.1,0.4,0,0.6l-2.4,3c-0.1,0.1-0.2,0.2-0.4,0.2
				c-0.1,0-0.2,0-0.3-0.1c-0.2-0.2-1-0.3-0.9-0.6l1.6-1.9c-1.6,0.5-3,0.7-4.4,0.7c-1.1,0-2.2-0.2-3.4-0.5c-0.3-0.1-0.4-0.3-0.4-0.6
				c0-0.1,0.1-0.2,0.2-0.3c0.1-0.1,0.2-0.1,0.3-0.1c0,0,0.1,0,0.1,0c1.1,0.3,2.2,0.4,3.3,0.4c1.9,0,3.9-0.4,6-1.2
				C403.5,34.9,403.6,34.9,403.6,34.9 M403.6,33.6C403.6,33.6,403.6,33.6,403.6,33.6C403.6,33.6,403.6,33.6,403.6,33.6
				c-0.2,0-0.4,0-0.6,0.1c-2,0.7-3.8,1.1-5.6,1.1c-1,0-2-0.1-3-0.4c-0.1,0-0.3-0.1-0.5-0.1c-0.4,0-0.8,0.1-1.1,0.4
				c-0.3,0.2-0.5,0.6-0.6,1c-0.1,0.5-0.1,0.9,0.2,1.4c0.2,0.4,0.6,0.7,1.1,0.8c1.3,0.3,2.5,0.5,3.7,0.5c0.5,0,1,0,1.4-0.1
				c0,0.1,0,0.3,0,0.4c0.2,0.7,0.8,1,1.3,1.2c0,0,0.1,0,0.1,0.1c0.3,0.2,0.7,0.3,1,0.3c0.5,0,1.1-0.2,1.4-0.7l2.4-3
				c0.5-0.6,0.5-1.5,0.1-2.2C404.7,33.9,404.2,33.6,403.6,33.6L403.6,33.6L403.6,33.6z"/>
		</g>
	</g>
	<g>
		<path class="st26" d="M405.6,41c0,0-0.1,0-0.1,0l-4.7-1c-0.1,0-0.2-0.1-0.3-0.2l-1.6-2.1c-0.1-0.2-0.1-0.4,0-0.6
			c0.1-0.2,0.3-0.3,0.5-0.3c0,0,0,0,0.1,0l4.2,0.5c0.1,0,0.3,0.1,0.4,0.2l2.1,2.6c0.1,0.2,0.2,0.4,0,0.6C406,40.9,405.8,41,405.6,41
			z"/>
		<path class="st3" d="M399.3,37.3l4.2,0.5l2.1,2.6l-4.7-1L399.3,37.3 M399.3,36.2c-0.4,0-0.8,0.2-1,0.6c-0.2,0.4-0.2,0.9,0.1,1.2
			l1.6,2.1c0.2,0.2,0.4,0.4,0.6,0.4l4.7,1c0.1,0,0.2,0,0.2,0c0.4,0,0.7-0.2,0.9-0.5c0.2-0.4,0.2-0.9-0.1-1.3l-2.1-2.6
			c-0.2-0.2-0.4-0.4-0.7-0.4l-4.2-0.5C399.4,36.2,399.4,36.2,399.3,36.2L399.3,36.2z"/>
	</g>
	<polygon class="st27" points="399.3,37.3 403.5,37.8 405.6,40.5 400.9,39.4 	"/>
	<g>
		<g>
			<path class="st12" d="M407.9,41.7c-0.9-1.2-2.5-1.5-3.8-0.7l-17.7,11.6c-1.1,0.7-1.5,2-1.2,3.1c0,0-0.1-0.1-0.1-0.1
				c-0.9-1.3-0.5-3,0.8-3.9l17.7-11.6c1.3-0.9,3-0.5,3.9,0.8C407.7,41.2,407.9,41.4,407.9,41.7z"/>
		</g>
		<path d="M406.8,44.8l-17.7,11.6c-0.5,0.3-1,0.5-1.5,0.5c-0.9,0-1.7-0.4-2.3-1.1c0,0,0,0,0,0c-0.3-1.2,0.1-2.4,1.2-3.1L404.1,41
			c1.2-0.8,2.9-0.5,3.8,0.7C408.3,42.8,407.9,44.1,406.8,44.8z"/>
		<path d="M406.8,44.8l-17.7,11.6c-0.5,0.3-1,0.5-1.5,0.5c-0.9,0-1.7-0.4-2.3-1.1c0,0,0,0,0,0c-0.3-1.2,0.1-2.4,1.2-3.1L404.1,41
			c1.2-0.8,2.9-0.5,3.8,0.7C408.3,42.8,407.9,44.1,406.8,44.8z"/>
		<g>
			<path class="st12" d="M394.3,65.9c-0.5-1.2-0.1-2.5,0.8-3.2l10.1-8.2l-2.2-9.2l-15.8,0.1c-1.6,0-2.8-1.3-2.8-2.8
				c0-1.5,1.2-2.8,2.8-2.8l18-0.1c1.3,0,2.4,0.9,2.7,2.2l3.1,13.1c0.3,1-0.1,2.2-1,2.8l-9.8,8l2.3,5.7l-5.4,1.6L394.3,65.9z"/>
			<path class="st3" d="M405.2,40.3c1,0,1.9,0.7,2.1,1.7l3.1,13.1c0.2,0.8-0.1,1.7-0.7,2.2l-10.2,8.3l2.3,5.5l-1,0.3l-3.2,0.9
				l-2.7-6.6c-0.4-0.9-0.1-1.9,0.6-2.5l10.4-8.4l-2.4-10.1l-16.3,0.1h0c-1.2,0-2.2-1-2.2-2.2c0-1.2,1-2.2,2.1-2.2L405.2,40.3
				L405.2,40.3 M405.2,39L405.2,39l-18.1,0.1c-0.9,0-1.8,0.4-2.4,1c-0.6,0.7-1,1.5-1,2.4c0,1.9,1.6,3.4,3.5,3.4l15.3-0.1l2,8.3
				l-9.8,7.9c-1.2,1-1.6,2.6-1,4l2.7,6.6l0.4,1.1l1.1-0.3l3.2-0.9l1-0.3l1.4-0.4l-0.5-1.3l-1.9-4.6l9.5-7.7c1-0.8,1.5-2.2,1.2-3.5
				l-3.1-13.1C408.2,40.1,406.8,39,405.2,39L405.2,39z"/>
		</g>
		<g>
			<path class="st25" d="M386.9,44.8c-0.6,0-1.1-0.2-1.6-0.5c-0.8-0.5-1.3-1.4-1.3-2.3l0-0.2l0,0c0-0.8,0.3-1.5,0.8-2
				c0.5-0.6,1.3-0.9,2.1-0.9l17.8-0.1c1.6,0,2.9,1.3,2.9,2.9c0,0.3,0,0.6-0.1,0.8c-0.3,1.2-1.5,2.1-2.8,2.1L386.9,44.8z"/>
			<path class="st3" d="M404.7,39.4c1.3,0,2.4,1,2.4,2.4c0,0.2,0,0.5-0.1,0.7c-0.3,1-1.2,1.7-2.3,1.7l-17.8,0.1c0,0,0,0,0,0
				c-0.5,0-0.9-0.1-1.3-0.4c-0.6-0.4-1-1.1-1.1-1.9c0,0,0,0,0,0c0,0,0-0.1,0-0.1c0-1.3,1-2.4,2.4-2.4L404.7,39.4
				C404.7,39.4,404.7,39.4,404.7,39.4 M404.7,38.3L404.7,38.3L404.7,38.3l-17.8,0.1c-0.9,0-1.8,0.4-2.4,1c-0.6,0.6-0.9,1.4-1,2.2
				l0,0l0,0.4c0.1,1.1,0.6,2.1,1.6,2.7c0.6,0.4,1.2,0.6,1.9,0.6l17.8-0.1c1.5,0,2.9-1,3.3-2.5c0.1-0.3,0.1-0.6,0.1-1
				C408.2,39.9,406.6,38.3,404.7,38.3L404.7,38.3z"/>
		</g>
		<path class="st28" d="M407.1,41.8c0,0.2,0,0.5-0.1,0.7c-0.3,1-1.2,1.7-2.3,1.7l-17.8,0.1c-0.5,0-0.9-0.1-1.3-0.4
			c-0.4-0.3-0.8-0.7-0.9-1.2c0.3,0.2,0.7,0.2,1.1,0.2l18.8-0.1c1.1,0,2.1-0.7,2.4-1.7c0,0,0,0,0,0C407.1,41.4,407.1,41.6,407.1,41.8
			z"/>
		<g>
			<path class="st21" d="M407.1,41.8c0,0.2,0,0.4-0.1,0.7c-0.3-1-1.2-1.7-2.3-1.7l-17.8,0.1c-1.1,0-2,0.7-2.3,1.7
				c0-0.2-0.1-0.3-0.1-0.5c0,0,0,0,0,0c0,0,0-0.1,0-0.1c0-1.3,1-2.4,2.4-2.4l17.8-0.1C406,39.4,407.1,40.5,407.1,41.8z"/>
		</g>
		<g class="st29">
			<path class="st30" d="M409.7,57.2l-10.2,8.3l2.3,5.5l-1,0.3l-2.6-6.2l10.2-8.3c0.6-0.5,0.9-1.4,0.7-2.2L406,41.5
				c-0.1-0.5-0.4-0.9-0.8-1.2c1,0,1.9,0.7,2.1,1.7l3.1,13.1C410.7,55.8,410.4,56.7,409.7,57.2z"/>
		</g>
		<g>
			<path class="st25" d="M387.6,57.5c-1.1,0-2.1-0.5-2.8-1.4l-0.1-0.2v0c-0.5-0.8-0.7-1.7-0.5-2.6c0.2-0.9,0.7-1.7,1.5-2.2
				l17.7-11.6c0.6-0.4,1.2-0.6,1.9-0.6c1.2,0,2.3,0.6,2.9,1.6c0.2,0.3,0.3,0.6,0.4,0.9c0.4,1.4-0.1,3-1.4,3.9L389.5,57
				C388.9,57.3,388.2,57.5,387.6,57.5z"/>
			<path class="st3" d="M405.2,39.7c0.9,0,1.8,0.4,2.3,1.3c0.2,0.2,0.3,0.5,0.3,0.7c0.4,1.2-0.1,2.5-1.1,3.2l-17.7,11.6
				c-0.5,0.3-1,0.5-1.5,0.5c-0.9,0-1.7-0.4-2.3-1.1c0,0,0,0,0,0c0,0-0.1-0.1-0.1-0.1c-0.9-1.3-0.5-3,0.8-3.9l17.7-11.6
				C404.2,39.8,404.7,39.7,405.2,39.7 M405.2,38.4L405.2,38.4c-0.8,0-1.6,0.2-2.3,0.7l-17.7,11.6c-0.9,0.6-1.5,1.5-1.8,2.6
				c-0.2,1,0,2,0.5,2.9v0l0.2,0.3c0.8,1.1,2,1.7,3.3,1.7c0.8,0,1.6-0.2,2.2-0.7l17.7-11.6c1.5-1,2.2-2.9,1.7-4.6
				c-0.1-0.4-0.3-0.7-0.5-1.1C407.9,39.1,406.6,38.4,405.2,38.4L405.2,38.4z"/>
		</g>
		<g>
			<path class="st21" d="M407.3,40.6c-0.9-0.4-1.9-0.4-2.8,0.2l-17.7,11.6c-1.3,0.9-1.7,2.6-0.8,3.9c0,0,0.1,0.1,0.1,0.1
				c0,0,0,0,0,0c0,0.1,0.1,0.1,0.2,0.2c-0.4-0.2-0.7-0.5-1-0.8c0,0,0,0,0,0c0,0-0.1-0.1-0.1-0.1c-0.9-1.3-0.5-3,0.8-3.9l17.7-11.6
				C404.9,39.3,406.4,39.6,407.3,40.6z"/>
		</g>
		<path class="st28" d="M406.8,44.8l-17.7,11.6c-0.5,0.3-1,0.5-1.5,0.5c-0.2,0-0.4,0-0.6-0.1c-0.3-1.2,0.1-2.5,1.2-3.2l17.7-11.6
			c0.6-0.4,1.4-0.5,2.1-0.4C408.3,42.8,407.8,44.1,406.8,44.8z"/>
		<g>
			<path class="st26" d="M403,48.1c-0.2,0-0.3-0.1-0.5-0.2c-0.1-0.1-0.2-0.3-0.2-0.5v-2.3c0-0.3,0.1-0.5,0.4-0.6l5.5-2.6
				c0.1,0,0.2-0.1,0.3-0.1c0.1,0,0.2,0,0.3,0.1c0.2,0.1,0.3,0.3,0.3,0.5l0.3,4.8c0,0.2-0.1,0.3-0.2,0.5c-0.1,0.1-0.3,0.2-0.5,0.2
				C408.8,48,403,48.1,403,48.1z"/>
			<g>
				<path class="st3" d="M408.5,42.5l0.3,4.8l-5.8,0.2v-2.3L408.5,42.5 M408.5,41.2c-0.2,0-0.4,0-0.6,0.1l-5.5,2.6
					c-0.5,0.2-0.7,0.7-0.7,1.2v2.3c0,0.4,0.1,0.7,0.4,0.9c0.2,0.2,0.6,0.4,0.9,0.4c0,0,0,0,0,0l5.8-0.2c0.4,0,0.7-0.2,0.9-0.4
					c0.2-0.3,0.4-0.6,0.3-1l-0.3-4.8c0-0.4-0.3-0.8-0.6-1C409,41.3,408.8,41.2,408.5,41.2L408.5,41.2z"/>
			</g>
		</g>
		<g class="st31">
			<polygon class="st30" points="403,45.1 403,47.5 408.2,47.5 408.5,46 			"/>
		</g>
		<g>
			<path class="st25" d="M387.5,57.3c-0.4,0-0.7-0.1-1.1-0.2c-1.5-0.6-2.4-2.4-2-3.9c0.3-1.2,1.3-2,2.4-2c0.4,0,0.7,0.1,1.1,0.2
				c1.5,0.6,2.4,2.4,2,3.9C389.7,56.5,388.7,57.3,387.5,57.3z"/>
			<path class="st3" d="M386.9,51.7c0.3,0,0.6,0.1,0.9,0.2c1.2,0.5,2,2,1.7,3.3c-0.2,1-1,1.6-1.9,1.6c-0.3,0-0.6-0.1-0.9-0.2
				c-1.2-0.5-2-2-1.7-3.3C385.2,52.3,386,51.7,386.9,51.7 M386.9,50.5L386.9,50.5c-1.5,0-2.7,1-3,2.5c-0.4,1.8,0.6,3.9,2.3,4.6
				c0.4,0.2,0.9,0.3,1.3,0.3c1.5,0,2.7-1,3-2.5c0.4-1.8-0.6-3.9-2.3-4.6C387.8,50.6,387.3,50.5,386.9,50.5L386.9,50.5z"/>
		</g>
		
			<ellipse transform="matrix(0.8924 -0.4513 0.4513 0.8924 17.2028 180.5794)" class="st28" cx="387.2" cy="54.2" rx="2.2" ry="2.6"/>
	</g>
	<g>
		<g>
			<path class="st25" d="M401.8,55.5c-0.3,0-0.6-0.1-0.8-0.2c-0.3-0.2-0.5-0.5-0.6-0.9c-0.1-0.4,0-0.8,0.2-1.1
				c2.1-3.2,4.5-5.5,8.1-7.5l-2-0.2c-0.3,0-0.5-0.2-0.6-0.4c-0.2-0.4,0-0.9,0.3-1.5c0.1-0.2,0.2-0.4,0.2-0.5
				c0.1-0.7,0.7-1.2,1.4-1.2c0.1,0,0.2,0,0.2,0l6.3,1c0.6,0.1,1.1,0.6,1.2,1.3c0.1,0.6-0.3,1.3-0.9,1.5c-5.4,2.2-9.2,5.2-11.8,9.1
				C402.7,55.2,402.3,55.5,401.8,55.5L401.8,55.5z"/>
			<path class="st3" d="M407.9,42.6c0,0,0.1,0,0.1,0l6.3,1c0.4,0.1,0.6,0.3,0.7,0.7c0,0.4-0.2,0.7-0.5,0.8
				c-5.5,2.3-9.5,5.3-12.1,9.4c-0.1,0.2-0.4,0.3-0.6,0.4c0,0,0,0-0.1,0c-0.2,0-0.3,0-0.4-0.1c-0.4-0.2-0.5-0.7-0.2-1.1
				c2.4-3.7,5.1-6,9.7-8.3l-4.1-0.5c-0.4-0.1,0.4-1.2,0.4-1.6C407.2,42.9,407.5,42.6,407.9,42.6 M407.9,41.3L407.9,41.3
				c-1,0-1.9,0.7-2.1,1.7c0,0.1-0.1,0.2-0.2,0.3c-0.3,0.6-0.6,1.3-0.3,2.1c0.2,0.4,0.6,0.7,1.1,0.8l0,0l0,0l0.1,0
				c-2.8,1.8-4.8,3.9-6.7,6.7c-0.3,0.5-0.4,1-0.3,1.6c0.1,0.5,0.4,1,0.9,1.3c0.3,0.2,0.7,0.3,1.1,0.3c0,0,0.1,0,0.1,0
				c0.7,0,1.3-0.4,1.6-0.9c2.5-3.8,6.2-6.7,11.5-8.9c0.9-0.4,1.4-1.3,1.3-2.2c-0.1-0.9-0.8-1.7-1.8-1.8l-6.3-1
				C408.1,41.3,408,41.3,407.9,41.3L407.9,41.3z"/>
		</g>
	</g>
	<g>
		<path class="st26" d="M407,45.8l-3.9-0.4c-0.3,0-0.5-0.2-0.6-0.5c-0.1-0.3,0.1-0.5,0.3-0.7l4.8-3c0.1-0.1,0.2-0.1,0.3-0.1
			c0,0,0.1,0,0.1,0l3,0.4c0.3,0,0.5,0.2,0.5,0.5s0,0.5-0.2,0.7l-3.9,3C407.4,45.7,407.2,45.8,407,45.8C407.1,45.8,407,45.8,407,45.8
			z"/>
		<path class="st3" d="M407.9,41.7l3,0.4l-3.9,3l-3.9-0.4L407.9,41.7 M407.9,40.4c-0.2,0-0.5,0.1-0.7,0.2l-4.8,3
			c-0.5,0.3-0.7,0.9-0.6,1.4c0.1,0.5,0.6,0.9,1.1,1l3.9,0.4c0,0,0.1,0,0.1,0c0.3,0,0.6-0.1,0.8-0.3l3.9-3c0.4-0.3,0.6-0.9,0.5-1.4
			s-0.6-0.9-1.1-1l-3-0.4C408.1,40.4,408,40.4,407.9,40.4L407.9,40.4z"/>
	</g>
	<polygon class="st27" points="411,42.1 403.2,44.7 407.9,41.7 	"/>
</g>
<g id="streetHandles_00000177477447584132017640000010558410977298531482_">
	<g>
		<path class="st3" d="M200.4,51.1c-0.2,0.2-0.4,0.3-0.7,0.3c-0.2,0-0.3-0.1-0.5-0.2l0,0c-0.5-0.4-4.1-2.9-6.2-6.8
			c-0.8-1.4-1.1-2.9-1.4-4.1c-0.5-2.2-0.8-3.4-3.2-3.7c-0.5-0.1-0.7-0.5-0.7-0.9c0-0.2,0.1-0.5,0.4-0.6l2.3-1.5l0.3,0.1
			c3.5,0.8,3.7,3.2,3.9,5.5c0.1,1.2,0.3,2.5,0.8,3.8c1.4,3.6,4.4,6.4,4.8,6.9c0,0,0.1,0,0.1,0.1C200.6,50.3,200.7,50.8,200.4,51.1z"
			/>
		<g>
			<path class="st32" d="M174.8,32.4h5.9c2,0,3.7-1.2,4.4-3.1l0.3-0.8c0.3-0.8,1-1.2,1.8-1.2c0.6,0,1.2,0.3,1.6,0.9l2.7,4.1
				c0.9,1.4,0.7,3.2-0.6,4.3l-7.2,6.3L174.8,32.4z"/>
			<path class="st3" d="M187.3,28.2c0.3,0,0.6,0.1,0.8,0.4l2.7,4.1c0.6,1,0.5,2.2-0.4,3l-6.4,5.6l-6.9-8h3.7c2.4,0,4.5-1.5,5.4-3.7
				l0.3-0.8C186.6,28.4,186.9,28.2,187.3,28.2 M187.3,26.2L187.3,26.2c-1.2,0-2.3,0.7-2.7,1.9l-0.3,0.8c-0.5,1.4-2,2.4-3.5,2.4H177
				h-4.4l2.9,3.3l6.9,8l1.3,1.5l1.5-1.3l6.4-5.6c1.6-1.4,1.9-3.8,0.8-5.6l-2.7-4.1C189.2,26.7,188.3,26.2,187.3,26.2L187.3,26.2z"/>
		</g>
		<path class="st33" d="M190.4,35.7l-6.4,5.6l-0.5-0.6l-0.4-1.5c3.5-1.8,6.3-3.9,7.7-6.5C191.4,33.7,191.3,35,190.4,35.7z"/>
		<path class="st34" d="M188.1,28.7c-0.2,0.1-0.4,0.3-0.6,0.6l-0.4,0.9c-0.9,2.4-3.3,4-6,4h-3.5l-0.7-0.8h3.7c2.4,0,4.5-1.5,5.4-3.7
			l0.3-0.8C186.7,28.1,187.6,28,188.1,28.7L188.1,28.7z"/>
		<g>
			<g>
				<path class="st32" d="M173.9,32.1h-13c-0.6,0-1.1,0.5-1.1,1.1v5.5c0,0.6,0.5,1.1,1.1,1.1h13c4.6,0,5,4.8,5,6.2
					c0,2.7-1,5.5-2.8,7.5c-2.1,2.3-5.1,3.6-8.7,3.6h-1.2c-1.5,0-2.6,1.2-2.6,2.6v2.5c0,1.5,1.2,2.6,2.6,2.6h1.2
					c7.4,0,12-3.3,14.5-6.2c3-3.4,4.8-8,4.8-12.6C186.7,37.9,181.4,32.1,173.9,32.1z M181.3,58.2c-2.4,2.7-6.7,5.9-13.8,5.9h-1.2
					c-1,0-1.8-0.8-1.8-1.8v-2.5c0-1,0.8-1.8,1.8-1.8h1.2c3.8,0,7.1-1.3,9.3-3.8c1.9-2.2,3-5.1,3-8c0-3.4-1.5-7.1-5.8-7.1h-13
					c-0.2,0-0.3-0.1-0.3-0.3v-5.5c0-0.2,0.1-0.3,0.3-0.3h13c7,0,11.9,5.4,11.9,13.2C185.8,50.5,184.2,54.9,181.3,58.2z"/>
				<path class="st3" d="M173.9,31.3h-13c-1.1,0-1.9,0.9-1.9,1.9v5.5c0,1.1,0.9,1.9,1.9,1.9h13c3.8,0,4.2,3.8,4.2,5.4
					c0,2.5-1,5.1-2.6,6.9c-1.9,2.2-4.7,3.3-8.1,3.3h-1.2c-1.9,0-3.5,1.6-3.5,3.5v2.5c0,1.9,1.6,3.5,3.5,3.5h1.2
					c7.7,0,12.5-3.5,15.1-6.4c3.2-3.6,5-8.4,5-13.2C187.5,37.4,181.9,31.3,173.9,31.3z M167.4,64.1h-1.2c-1,0-1.8-0.8-1.8-1.8v-2.5
					c0-1,0.8-1.8,1.8-1.8h1.2c3.8,0,7.1-1.3,9.3-3.8c1.9-2.2,3-5.1,3-8c0-3.4-1.5-7.1-5.8-7.1h-13c-0.2,0-0.3-0.1-0.3-0.3v-5.5
					c0-0.2,0.1-0.3,0.3-0.3h13c7,0,11.9,5.4,11.9,13.2c0,4.4-1.7,8.8-4.6,12.1C178.9,60.9,174.5,64.1,167.4,64.1z"/>
				<path class="st35" d="M185.8,46.1c0,0.3,0,0.6,0,0.8v0c-0.2,4.1-1.8,8.2-4.6,11.3c-2.4,2.7-6.7,5.9-13.8,5.9h-1.2
					c-1,0-1.8-0.8-1.8-1.8v-2.5c0-1,0.8-1.8,1.8-1.8h1.2c3.8,0,7.1-1.3,9.3-3.8c1.8-2,2.8-4.6,3-7.2c0-0.3,0-0.5,0-0.8
					c0-3.4-1.5-7.1-5.8-7.1h-13c-0.2,0-0.3-0.1-0.3-0.3v-5.5c0-0.2,0.1-0.3,0.3-0.3h13C181,32.9,185.8,38.3,185.8,46.1z"/>
				<path class="st28" d="M185.8,46.1c0,0.3,0,0.5,0,0.8v0c-0.1,2.7-0.9,5.4-2.1,7.7c-0.6,0-0.9-0.5-0.8-1.6c0.1-2.8-1.4-4.7-3.2-6
					c0,0,0-0.1,0-0.2c0-0.3,0-0.5,0-0.8c0-3.4-1.5-7.1-5.8-7.1h-0.2l-0.5-2l7.9-1.7C184.1,37.6,185.8,41.4,185.8,46.1z"/>
				<path class="st28" d="M176.4,39.5c-0.7-0.3-1.5-0.5-2.5-0.5h-13c-0.2,0-0.3-0.1-0.3-0.3v-0.5h12.1
					C174.3,38.2,175.5,38.7,176.4,39.5z"/>
				<path class="st28" d="M185.8,46.1c0,0.3,0,0.6,0,0.8v0c-0.2,4.1-1.8,8.2-4.6,11.3c-2.4,2.7-6.7,5.9-13.8,5.9h-1.2
					c-0.6,0-1.2-0.3-1.5-0.8c0.1,0,0.2,0,0.3,0h1.2c7.1,0,11.5-3.2,13.8-5.9c2.7-3.1,4.4-7.1,4.6-11.3v0c0-0.3,0-0.6,0-0.8
					c0-4.7-1.8-8.6-4.8-10.9C183.5,36.5,185.8,40.8,185.8,46.1z"/>
				<path class="st36" d="M185.8,44.9l-6.2-0.7c-0.3-1.8-1.2-3.5-2.8-4.4h7.8C185.2,41.2,185.7,43,185.8,44.9z"/>
				<path class="st37" d="M178.2,51.9c-0.5,1.1-1.1,2.1-1.9,3c-2.2,2.5-5.4,3.8-9.3,3.8h-1.2c-0.6,0-1.1,0.2-1.4,0.6
					c0.2-0.8,0.9-1.5,1.8-1.5h1.2c3.8,0,7.1-1.3,9.3-3.8C177.3,53.5,177.8,52.7,178.2,51.9z"/>
				<path class="st37" d="M179.2,34.1c-1.1-0.2-2.3-0.4-3.5-0.4H161c-0.2,0-0.3,0.1-0.3,0.3v-0.8c0-0.2,0.1-0.3,0.3-0.3h13
					C175.9,32.9,177.7,33.3,179.2,34.1z"/>
			</g>
		</g>
		<path class="st38" d="M190.8,31.9"/>
	</g>
	<g>
		<g>
			<path class="st32" d="M175.3,71c-2.5,0-4.5-2-4.5-4.5s2-4.5,4.5-4.5c4.5,0,8.2-1.5,10.8-4.5c2.2-2.5,3.5-5.9,3.5-9.4
				c0-1.9-0.5-7.9-6.4-7.9h-36.6c0.5,1.5,1.1,3.3,1.7,5.3c0.3,1,0.1,2.1-0.5,2.9c-0.9,1.3-2.7,2.1-4.5,2.1c-1.8,0-3.1-0.9-3.5-2.3
				c-2.1-6.6-3.4-10.8-3.6-11.3c-0.4-1.4-0.2-2.9,0.7-4s2.2-1.8,3.6-1.8h42.8c9,0,15.4,7,15.4,16.9c0,5.6-2.1,11.2-5.8,15.3
				C189.9,66.9,184.3,71,175.3,71z"/>
			<path class="st3" d="M183.3,32c8.6,0,14.6,6.6,14.6,16.2c0,5.4-2,10.8-5.6,14.8c-2.9,3.3-8.3,7.2-17,7.2c-2.1,0-3.8-1.7-3.8-3.8
				s1.7-3.8,3.8-3.8c4.7,0,8.7-1.6,11.4-4.7c2.4-2.7,3.7-6.2,3.7-9.9c0-1.4-0.3-8.7-7.1-8.7h-37.6c0.5,1.7,1.2,3.8,2,6.3
				c0.7,2.3-2,4.1-4.3,4.1c-1.3,0-2.4-0.5-2.8-1.8c-2.2-6.9-3.6-11.2-3.6-11.3c-0.4-1.1-0.1-2.4,0.6-3.3s1.8-1.5,3-1.5H183.3
				 M183.3,30.5h-42.8c-1.7,0-3.2,0.8-4.2,2.1c-1,1.3-1.3,3.1-0.8,4.7c0,0,1.3,4.3,3.6,11.3c0.6,1.8,2.2,2.8,4.3,2.8
				c2,0,4.1-1,5.1-2.4c0.8-1.1,1-2.4,0.6-3.6c-0.5-1.6-1-3.1-1.4-4.3h35.6c5.2,0,5.6,5.5,5.6,7.2c0,3.2-1.2,6.5-3.3,8.9
				c-2.4,2.7-6,4.2-10.3,4.2c-2.9,0-5.2,2.4-5.2,5.3c0,2.9,2.4,5.2,5.2,5.2c9.3,0,15-4.2,18.1-7.7c3.8-4.3,6-10.1,6-15.8
				C199.4,37.8,192.8,30.5,183.3,30.5L183.3,30.5z"/>
		</g>
	</g>
	<g>
		<path class="st34" d="M197.9,48.2c0,0.2,0,0.5,0,0.7c-0.2-9.2-6.2-15.6-14.6-15.6h-42.8c-1.2,0-2.3,0.6-3,1.5
			c-0.4,0.5-0.6,1-0.7,1.6c-0.2-1,0.1-2,0.7-2.8c0.7-1,1.8-1.5,3-1.5h42.8C191.9,32,197.9,38.6,197.9,48.2z"/>
	</g>
	<g class="st39">
		<path class="st33" d="M183.3,39.5h-37.6c0.5,1.7,1.2,3.9,2,6.3c1.1,3.4-5.3,5.7-6.9,2.8c2.4,0.4,5.7-1.5,4.9-4.1
			c-0.8-2.5-1.5-4.6-2-6.3h37.6c2.1,0,3.6,0.7,4.7,1.7C185.2,39.7,184.4,39.5,183.3,39.5z"/>
	</g>
	<g>
		<path class="st3" d="M215.8,54.3c-0.2,0.2-0.5,0.4-0.8,0.3c-0.2,0-0.4-0.1-0.6-0.2l0,0c-0.7-0.5-5-3.6-7.6-8.3
			c-1-1.8-1.4-3.5-1.7-5c-0.6-2.7-1-4.2-3.9-4.5c-0.6-0.1-0.9-0.6-0.9-1.1c0-0.3,0.2-0.6,0.5-0.8l2.8-1.8l0.4,0.1
			c4.2,1,4.5,3.9,4.8,6.7c0.1,1.4,0.3,3,1,4.7c1.7,4.5,5.4,7.9,5.9,8.4c0,0,0.1,0.1,0.1,0.1C216.1,53.3,216.1,53.9,215.8,54.3z"/>
		<g>
			<path class="st32" d="M184.9,31.5h6.7c2.5,0,4.8-1.6,5.7-3.9l0.4-1c0.3-0.8,1.1-1.4,2-1.4c0.7,0,1.4,0.4,1.8,1l3.3,5
				c1.1,1.6,0.8,3.7-0.7,5l-8.7,7.5L184.9,31.5z"/>
			<path class="st3" d="M199.7,26.2c0.4,0,0.7,0.2,0.9,0.5l3.3,5c0.8,1.2,0.6,2.8-0.5,3.7l-7.9,6.9l-8.5-9.8h4.5
				c2.9,0,5.6-1.8,6.6-4.6l0.4-1C198.8,26.5,199.3,26.2,199.7,26.2 M199.7,24.2L199.7,24.2c-1.3,0-2.5,0.8-2.9,2l-0.4,1
				c-0.7,2-2.6,3.3-4.7,3.3h-4.5h-4.4l2.9,3.3l8.5,9.8l1.3,1.5l1.5-1.3l7.9-6.9c1.8-1.6,2.2-4.3,0.8-6.3l-3.3-5
				C201.7,24.7,200.8,24.2,199.7,24.2L199.7,24.2z"/>
		</g>
		<path class="st40" d="M203.5,35.4l-7.9,6.9l-0.6-0.7l-0.4-1.9c4.4-2.2,7.7-4.8,9.4-8C204.8,32.9,204.6,34.5,203.5,35.4z"/>
		<path class="st34" d="M200.7,26.8c-0.3,0.1-0.5,0.4-0.7,0.7l-0.4,1.1c-1.2,2.9-4.1,4.9-7.4,4.9H188l-0.8-1h4.5
			c2.9,0,5.6-1.8,6.6-4.6l0.4-1C199,26.1,200.2,26,200.7,26.8L200.7,26.8z"/>
		<g>
			<g>
				<path class="st32" d="M183.3,31h-16c-0.7,0-1.4,0.6-1.4,1.4v6.8c0,0.7,0.6,1.4,1.4,1.4h16c5.7,0,6.1,5.9,6.1,7.7
					c0,3.4-1.3,6.7-3.5,9.2c-2.5,2.9-6.2,4.4-10.6,4.4h-1.5c-1.8,0-3.2,1.5-3.2,3.2v3c0,1.8,1.5,3.2,3.2,3.2h1.5
					c9.1,0,14.7-4.1,17.7-7.6c3.7-4.2,5.9-9.8,5.9-15.5C198.9,38,192.5,31,183.3,31z M192.3,63c-2.9,3.3-8.3,7.2-17,7.2h-1.5
					c-1.2,0-2.2-1-2.2-2.2v-3c0-1.2,1-2.2,2.2-2.2h1.5c4.7,0,8.7-1.6,11.4-4.7c2.4-2.6,3.7-6.2,3.7-9.9c0-4.2-1.9-8.7-7.1-8.7h-16
					c-0.2,0-0.4-0.2-0.4-0.4v-6.8c0-0.2,0.2-0.4,0.4-0.4h16c8.6,0,14.6,6.6,14.6,16.2C197.9,53.6,195.9,59,192.3,63z"/>
				<path class="st3" d="M183.3,30h-16c-1.3,0-2.4,1.1-2.4,2.4v6.8c0,1.3,1.1,2.4,2.4,2.4h16c4.6,0,5.1,4.7,5.1,6.7
					c0,3.1-1.2,6.2-3.2,8.5c-2.4,2.6-5.8,4-9.9,4h-1.5c-2.3,0-4.2,1.9-4.2,4.2v3c0,2.3,1.9,4.2,4.2,4.2h1.5c9.5,0,15.3-4.3,18.5-7.9
					c3.9-4.4,6.1-10.3,6.1-16.2C199.9,37.5,193.1,30,183.3,30z M175.3,70.2h-1.5c-1.2,0-2.2-1-2.2-2.2v-3c0-1.2,1-2.2,2.2-2.2h1.5
					c4.7,0,8.7-1.6,11.4-4.7c2.4-2.6,3.7-6.2,3.7-9.9c0-4.2-1.9-8.7-7.1-8.7h-16c-0.2,0-0.4-0.2-0.4-0.4v-6.8c0-0.2,0.2-0.4,0.4-0.4
					h16c8.6,0,14.6,6.6,14.6,16.2c0,5.4-2,10.8-5.6,14.8C189.4,66.3,184.1,70.2,175.3,70.2z"/>
				<path class="st35" d="M197.9,48.2c0,0.3,0,0.7,0,1v0c-0.2,5.1-2.2,10.1-5.6,13.8c-2.9,3.3-8.3,7.2-17,7.2h-1.5
					c-1.2,0-2.2-1-2.2-2.2v-3c0-1.2,1-2.2,2.2-2.2h1.5c4.7,0,8.7-1.6,11.4-4.7c2.2-2.4,3.5-5.6,3.7-8.9c0-0.3,0-0.6,0-1
					c0-4.2-1.9-8.7-7.1-8.7h-16c-0.2,0-0.4-0.2-0.4-0.4v-6.8c0-0.2,0.2-0.4,0.4-0.4h16C191.9,32,197.9,38.6,197.9,48.2z"/>
				<path class="st28" d="M186.4,40.1c-0.9-0.4-1.9-0.6-3-0.6h-16c-0.2,0-0.4-0.2-0.4-0.4v-0.6h14.8
					C183.8,38.5,185.3,39.1,186.4,40.1z"/>
				<path class="st28" d="M197.9,48.2c0,0.3,0,0.7,0,1v0c-0.2,5.1-2.2,10.1-5.6,13.8c-2.9,3.3-8.3,7.2-17,7.2h-1.5
					c-0.8,0-1.5-0.4-1.9-1c0.1,0,0.3,0,0.4,0h1.5c8.7,0,14.1-3.9,17-7.2c3.3-3.8,5.4-8.7,5.6-13.8v0c0-0.3,0-0.7,0-1
					c0-5.8-2.2-10.5-5.9-13.3C195.1,36.4,197.9,41.6,197.9,48.2z"/>
				<path class="st37" d="M188.6,55.3c-0.6,1.3-1.4,2.6-2.4,3.7c-2.7,3.1-6.7,4.7-11.4,4.7h-1.5c-0.7,0-1.3,0.3-1.7,0.8
					c0.2-1,1.1-1.8,2.2-1.8h1.5c4.7,0,8.7-1.6,11.4-4.7C187.5,57.2,188.1,56.3,188.6,55.3z"/>
				<path class="st37" d="M189.8,33.5c-1.4-0.3-2.8-0.5-4.3-0.5h-18.1c-0.2,0-0.4,0.2-0.4,0.4v-1c0-0.2,0.2-0.4,0.4-0.4h16
					C185.7,32,187.9,32.5,189.8,33.5z"/>
			</g>
		</g>
		<path class="st38" d="M204.1,30.7"/>
	</g>
	<path class="st41" d="M175.3,44.9"/>
</g>
</svg>
