<?xml version="1.0" encoding="utf-8"?>
<!-- Generator: Adobe Illustrator 26.0.2, SVG Export Plug-In . SVG Version: 6.00 Build 0)  -->
<svg version="1.1" id="bikeFrames" xmlns="http://www.w3.org/2000/svg" xmlns:xlink="http://www.w3.org/1999/xlink" x="0px" y="0px"
	 width="310px" height="62px" viewBox="0 0 310 62" style="enable-background:new 0 0 310 62;" xml:space="preserve">
<style type="text/css">
	.st0{fill:#C9C5C7;}
	.st1{fill:#142C4D;}
	.st2{opacity:0.5;}
	.st3{fill:#565254;}
	.st4{fill:#A09A9D;}
	.st5{fill:#7C7679;}
	.st6{fill:#3A3739;}
	.st7{fill:#EE0000;}
	.st8{fill:#AEDCDD;}
	.st9{opacity:0.3;}
	.st10{fill:#565254;stroke:#142C4D;stroke-width:1.802;stroke-linecap:round;stroke-linejoin:round;stroke-miterlimit:10;}
	.st11{fill:#FAAA4F;}
	.st12{opacity:0.2;}
	.st13{opacity:0.6;}
	.st14{fill:#FFFFFF;}
	.st15{fill:#4F4249;}
	.st16{fill:#585D68;}
	.st17{fill:#43ADAF;}
	.st18{fill:#666666;}
	.st19{fill:#5656C1;}
</style>
<g id="lowRiderSaddle_00000139276480956769627430000009147234140689244843_">
	<g>
		<g>
			<g>
				<path class="st0" d="M160.8,33.1c-1.3,0-2.4-0.8-2.8-2l-2.4-7.4c-0.2-0.7-0.2-1.5,0.2-2.2c0.4-0.7,1-1.2,1.7-1.5
					c0.3-0.1,0.6-0.1,0.9-0.1c1.3,0,2.4,0.8,2.8,2l2.4,7.4c0.2,0.7,0.2,1.5-0.2,2.2c-0.4,0.7-1,1.2-1.7,1.5
					C161.4,33,161.1,33.1,160.8,33.1z"/>
				<path class="st1" d="M158.3,20.5c0.9,0,1.8,0.6,2.1,1.6l2.4,7.4c0.4,1.2-0.3,2.5-1.4,2.8c-0.2,0.1-0.5,0.1-0.7,0.1
					c-0.9,0-1.8-0.6-2.1-1.6l-2.4-7.4c-0.4-1.2,0.3-2.5,1.4-2.8C157.9,20.5,158.1,20.5,158.3,20.5 M158.3,19.2
					C158.3,19.2,158.3,19.2,158.3,19.2c-0.4,0-0.8,0.1-1.1,0.2c-1.9,0.6-2.9,2.7-2.3,4.5l2.4,7.4c0.5,1.5,1.9,2.5,3.4,2.5
					c0.4,0,0.8-0.1,1.1-0.2c1.9-0.6,2.9-2.7,2.3-4.5l-2.4-7.4C161.3,20.2,159.9,19.2,158.3,19.2L158.3,19.2z"/>
			</g>
		</g>
		<g class="st2">
			<path class="st1" d="M161.4,24.9l-4,2.4l-1.3-3.9c-0.4-1.2,0.3-2.5,1.4-2.8c1.2-0.4,2.5,0.3,2.8,1.4L161.4,24.9z"/>
		</g>
		<g>
			<g>
				<path class="st0" d="M155.7,37.4c-0.4,0-0.8-0.2-1.2-0.6c-0.3-0.4-0.5-0.8-0.5-1.2c0-0.3,0.1-0.5,0.3-0.6l5.6-4.6
					c0.2-0.1,0.4-0.2,0.6-0.2c0.4,0,0.8,0.2,1.2,0.6c0.3,0.4,0.5,0.8,0.5,1.2c0,0.3-0.1,0.5-0.3,0.6l-5.6,4.6
					C156.1,37.3,155.9,37.4,155.7,37.4z"/>
				<g>
					<path class="st1" d="M160.6,30.7c0.3,0,0.6,0.2,0.9,0.5c0.4,0.4,0.5,0.9,0.2,1.1l-5.6,4.6c-0.1,0.1-0.2,0.1-0.3,0.1
						c-0.3,0-0.6-0.2-0.9-0.5v0c-0.4-0.4-0.5-0.9-0.2-1.1l5.6-4.6C160.4,30.7,160.5,30.7,160.6,30.7 M160.6,29.8
						c-0.3,0-0.6,0.1-0.9,0.3l-5.6,4.6c-0.3,0.2-0.4,0.6-0.5,0.9c0,0.5,0.2,1,0.6,1.5c0.4,0.5,1,0.8,1.5,0.8c0.3,0,0.6-0.1,0.9-0.3
						l5.6-4.6c0.3-0.2,0.4-0.6,0.5-0.9c0-0.5-0.2-1-0.6-1.5C161.7,30,161.1,29.8,160.6,29.8L160.6,29.8z"/>
				</g>
			</g>
			<g>
				<path class="st3" d="M154.6,36.3c-0.4,0-0.8-0.2-1.1-0.6c-0.5-0.6-0.6-1.4-0.2-1.8l5.1-5.2c0.2-0.2,0.4-0.2,0.6-0.2
					c0.4,0,0.8,0.2,1.1,0.6c0.5,0.6,0.6,1.4,0.2,1.8l-5.1,5.2C155,36.2,154.8,36.3,154.6,36.3L154.6,36.3z"/>
				<g>
					<path class="st1" d="M159,28.9c0.2,0,0.5,0.2,0.8,0.4v0c0.4,0.4,0.5,1,0.2,1.2l-5.1,5.2c-0.1,0.1-0.2,0.1-0.3,0.1
						c-0.2,0-0.5-0.2-0.8-0.4c-0.4-0.4-0.5-1-0.2-1.2l5.1-5.2C158.7,28.9,158.8,28.9,159,28.9 M159,28c-0.4,0-0.7,0.1-0.9,0.4
						l-5.1,5.2c-0.6,0.6-0.5,1.6,0.2,2.4c0.4,0.5,0.9,0.8,1.5,0.8c0.4,0,0.7-0.1,0.9-0.4l5.1-5.2c0.6-0.6,0.5-1.6-0.2-2.4
						C160,28.2,159.5,28,159,28L159,28z"/>
				</g>
			</g>
			<g>
				<path class="st4" d="M153,34.7c-0.4,0-0.8-0.2-1.2-0.6c-0.3-0.4-0.5-0.8-0.5-1.2c0-0.3,0.1-0.5,0.3-0.6l5.6-4.6
					c0.2-0.1,0.4-0.2,0.6-0.2c0.4,0,0.8,0.2,1.2,0.6c0.3,0.4,0.5,0.8,0.5,1.2c0,0.3-0.1,0.5-0.3,0.6l-5.6,4.6
					C153.4,34.6,153.2,34.7,153,34.7z"/>
				<g>
					<path class="st1" d="M157.9,28c0.3,0,0.6,0.2,0.9,0.5c0.4,0.4,0.5,0.9,0.2,1.1l-5.6,4.6c-0.1,0.1-0.2,0.1-0.3,0.1
						c-0.3,0-0.6-0.2-0.9-0.5c-0.4-0.4-0.5-0.9-0.2-1.1l5.6-4.6C157.7,28,157.8,28,157.9,28 M157.9,27.1c-0.3,0-0.6,0.1-0.9,0.3
						l-5.6,4.6c-0.3,0.2-0.4,0.6-0.5,0.9c0,0.5,0.2,1,0.6,1.5c0.4,0.5,1,0.8,1.5,0.8c0.3,0,0.6-0.1,0.9-0.3l5.6-4.6
						c0.3-0.2,0.4-0.6,0.5-0.9c0-0.5-0.2-1-0.6-1.5C159,27.3,158.4,27.1,157.9,27.1L157.9,27.1z"/>
				</g>
			</g>
			<g>
				<path class="st3" d="M152.2,33.8c-0.4,0-0.8-0.2-1.1-0.5c-0.6-0.6-0.7-1.3-0.4-1.8l4.6-5.7c0.2-0.2,0.4-0.3,0.7-0.3
					c0.4,0,0.8,0.2,1.1,0.5c0.6,0.6,0.7,1.3,0.4,1.8l-4.6,5.7C152.7,33.6,152.4,33.8,152.2,33.8L152.2,33.8z"/>
				<g>
					<path class="st1" d="M156,26c0.2,0,0.5,0.1,0.8,0.4v0c0.4,0.4,0.6,0.9,0.3,1.2l-4.6,5.7c-0.1,0.1-0.2,0.1-0.3,0.1
						c-0.2,0-0.5-0.1-0.8-0.4v0c-0.4-0.4-0.6-0.9-0.3-1.2l4.6-5.7C155.7,26,155.8,26,156,26 M156,25.1c-0.4,0-0.8,0.2-1,0.5
						l-4.6,5.7c-0.5,0.6-0.3,1.7,0.4,2.4c0.4,0.4,0.9,0.6,1.4,0.6c0.4,0,0.8-0.2,1-0.5l4.6-5.7c0.5-0.6,0.3-1.7-0.4-2.4
						C157,25.3,156.5,25.1,156,25.1L156,25.1z"/>
				</g>
			</g>
			<g>
				<path class="st5" d="M150.3,31.8c-0.4,0-0.8-0.2-1.2-0.6c-0.3-0.4-0.5-0.8-0.5-1.2c0-0.3,0.1-0.5,0.3-0.6l5.6-4.6
					c0.2-0.1,0.4-0.2,0.6-0.2c0.4,0,0.8,0.2,1.2,0.6c0.3,0.4,0.5,0.8,0.5,1.2c0,0.3-0.1,0.5-0.3,0.6l-5.6,4.6
					C150.7,31.7,150.5,31.8,150.3,31.8z"/>
				<g>
					<path class="st1" d="M155.1,25c0.3,0,0.6,0.2,0.9,0.5c0.4,0.4,0.5,0.9,0.2,1.1l-5.6,4.6c-0.1,0.1-0.2,0.1-0.3,0.1
						c-0.3,0-0.6-0.2-0.9-0.5c-0.4-0.4-0.5-0.9-0.2-1.1l5.6-4.6C154.9,25.1,155,25,155.1,25 M155.1,24.1c-0.3,0-0.6,0.1-0.9,0.3
						l-5.6,4.6c-0.3,0.2-0.4,0.6-0.5,0.9c0,0.5,0.2,1,0.6,1.5c0.4,0.5,1,0.8,1.5,0.8c0.3,0,0.6-0.1,0.9-0.3l5.6-4.6
						c0.3-0.2,0.4-0.6,0.5-0.9c0-0.5-0.2-1-0.6-1.5C156.2,24.4,155.6,24.1,155.1,24.1L155.1,24.1z"/>
				</g>
			</g>
			<g>
				<path class="st6" d="M149.3,30.8c-0.4,0-0.8-0.2-1.1-0.5c-0.6-0.6-0.7-1.3-0.3-1.8l4.7-5.5c0.2-0.2,0.4-0.3,0.7-0.3
					c0.4,0,0.8,0.2,1.1,0.5c0.6,0.6,0.7,1.3,0.3,1.8l-4.7,5.5C149.8,30.7,149.6,30.8,149.3,30.8C149.3,30.8,149.3,30.8,149.3,30.8z"
					/>
				<g>
					<path class="st1" d="M153.3,23.1c0.2,0,0.5,0.1,0.8,0.4c0.4,0.4,0.5,0.9,0.3,1.2l-4.7,5.5c-0.1,0.1-0.2,0.1-0.3,0.1
						c-0.2,0-0.5-0.1-0.8-0.4c-0.4-0.4-0.5-0.9-0.3-1.2l4.7-5.5C153,23.1,153.1,23.1,153.3,23.1 M153.3,22.2c-0.4,0-0.8,0.2-1,0.5
						l-4.7,5.5c-0.5,0.6-0.4,1.7,0.4,2.4c0.4,0.4,0.9,0.6,1.4,0.6c0.4,0,0.8-0.2,1-0.5l4.7-5.5c0.5-0.6,0.4-1.7-0.4-2.4
						C154.3,22.4,153.8,22.2,153.3,22.2L153.3,22.2z"/>
				</g>
			</g>
			<g>
				<path class="st5" d="M149.6,27c-0.4,0-0.9-0.4-1.1-0.9c-0.2-0.4-0.2-0.8-0.1-1.1c0.1-0.2,0.2-0.3,0.4-0.4l6.8-2.5
					c0.1,0,0.2,0,0.2,0c0.4,0,0.9,0.4,1.1,0.9c0.2,0.4,0.2,0.8,0.1,1.1c-0.1,0.2-0.2,0.3-0.4,0.4l-6.8,2.5
					C149.8,27,149.7,27,149.6,27z"/>
				<g>
					<path class="st1" d="M156,22.3c0.3,0,0.6,0.3,0.8,0.7c0.2,0.5,0.1,1-0.2,1.1l-6.8,2.5c0,0-0.1,0-0.1,0c-0.3,0-0.6-0.3-0.8-0.7
						c-0.2-0.5-0.1-1,0.2-1.1l6.8-2.5C155.9,22.3,155.9,22.3,156,22.3 M156,21.7c-0.1,0-0.2,0-0.4,0.1l-6.8,2.5
						c-0.3,0.1-0.5,0.3-0.6,0.6c-0.2,0.4-0.2,0.9,0.1,1.4c0.3,0.7,0.8,1.1,1.4,1.1c0.1,0,0.2,0,0.4-0.1l6.8-2.5
						c0.3-0.1,0.5-0.3,0.6-0.6c0.2-0.4,0.2-0.9-0.1-1.4C157.1,22.1,156.5,21.7,156,21.7L156,21.7z"/>
				</g>
			</g>
		</g>
		<g>
			<g>
				<g>
					<path class="st1" d="M142.6,31.2c-3.5,0-6.6-1.3-7.9-1.9c-2.8-1.2-5.8-5.3-7-7.7c-0.3-0.6-0.6-1.2-0.8-1.8
						c-0.6-1.7-0.7-4.3,0.5-6.4c0.9-1.5,2.5-2.4,4.5-2.7c1.4-0.2,3.4-0.4,5.8-0.7c6.1-0.6,14.4-1.4,19-3.1c0.7-0.3,1.6-0.6,2.6-1
						c4.6-1.8,10.8-4.2,15.7-4.2c5.5,0,7.1,3.1,7.5,5.7l0,0.1v0.1c0,4.2-4,5.8-9.9,8.2c-5.8,2.3-13.7,5.5-22.3,12.7
						C148,30.3,145.5,31.2,142.6,31.2z"/>
					<path class="st1" d="M174.9,2.7c3.4,0,6,1.3,6.6,5v0.1c0,7.2-14.7,5.8-31.9,20.2c-2.2,1.8-4.7,2.5-7,2.5
						c-3.2,0-6.1-1.2-7.6-1.8c-2.4-1-5.2-4.6-6.6-7.3c-0.3-0.6-0.6-1.1-0.7-1.6c-0.9-2.6-0.6-7.2,4.3-7.9c4.9-0.7,18.5-1.5,24.9-3.8
						C161,6.4,169.1,2.7,174.9,2.7 M174.9,0.9L174.9,0.9c-5.1,0-11.4,2.5-16.1,4.3c-1,0.4-1.8,0.7-2.6,1c-4.5,1.6-12.7,2.5-18.7,3.1
						c-2.4,0.2-4.4,0.4-5.9,0.7c-2.9,0.4-4.4,2-5.1,3.2c-1.4,2.3-1.2,5.2-0.6,7.1c0.2,0.6,0.5,1.2,0.8,1.9c1.1,2.2,4.2,6.7,7.5,8.1
						c1.4,0.6,4.6,1.9,8.3,1.9c3.1,0,5.9-1,8.1-2.9c8.5-7,16.3-10.2,22.1-12.5c6.1-2.5,10.5-4.2,10.5-9l0-0.1V7.5l0-0.1
						C182.4,1.7,177.7,0.9,174.9,0.9L174.9,0.9z"/>
				</g>
				<g>
					<path class="st7" d="M181.5,7.7c0,7.2-14.7,5.8-31.9,20.2c-0.1,0.1-0.2,0.1-0.2,0.2c-1.3,1-2.7,1.6-4,2
						c-0.7,0.2-1.4,0.3-2.2,0.3c-1.3,0.1-2.5-0.1-3.6-0.3c-1.9-0.4-3.5-1-4.5-1.5c-2.2-0.9-4.6-3.9-6.1-6.5c0.7-1.4,1.1-2.4,3.5-3.2
						c2-0.5,5.6-0.4,9.4-0.4c1.2,0,2.5,0,3.7,0c0.7,0,1.4,0,2.1-0.1c1.3-0.1,2.6-0.2,3.7-0.4c0.7-0.1,1.4-0.3,2-0.5
						C157.9,15.7,174.9,8.3,181.5,7.7z"/>
				</g>
			</g>
			<path class="st8" d="M145.5,18.3l-2.3,12c-1.3,0.1-2.5-0.1-3.6-0.3l2.2-11.6C143,18.4,144.2,18.4,145.5,18.3z"/>
			<path class="st8" d="M151.3,17.8l-2,10.2c-1.3,1-2.7,1.6-4,2l2.3-11.8C148.9,18.2,150.2,18,151.3,17.8z"/>
			<g class="st9">
				<path class="st1" d="M181.5,7.9c-0.3,7-14.8,5.8-31.9,20c-0.1,0.1-0.2,0.1-0.2,0.2c-1.3,1-2.7,1.6-4,2c-0.7,0.2-1.4,0.3-2.2,0.3
					c-1.3,0.1-2.5-0.1-3.6-0.3c-1.9-0.4-3.5-1-4.5-1.5c-1.5-0.6-3.2-2.3-4.5-4.1c0.6,0.4,1.1,0.7,1.7,0.9c1.1,0.4,2.9,1.1,5,1.5
					c1.2,0.2,2.6,0.4,4,0.3c0.8,0,1.6-0.1,2.4-0.3c1.5-0.3,3-0.9,4.4-2c0.1-0.1,0.2-0.1,0.3-0.2C163.4,13.1,176.9,11.8,181.5,7.9z"
					/>
			</g>
			<path class="st8" d="M171.5,3c-4.2,1.7-12,5.4-17.2,6.7c-6.7,1.7-17.2,2.4-22.1,3.2c-4.6,0.7-4.6,5.4-3.9,8
				c-0.2-0.5-0.4-0.9-0.5-1.3c-0.9-2.6-0.6-7.2,4.3-7.9c4.9-0.7,18.5-1.5,24.9-3.8C160.2,6.6,166.2,4,171.5,3z"/>
		</g>
	</g>
	<path class="st10" d="M163,23.9"/>
</g>
<g id="wagonSeat_00000077305946903041416400000010725338019019541377_">
	<g>
		<g>
			<path class="st11" d="M228.4,59.9c-1.4,0-2.6-0.9-3-2.2l-2.4-7.4c-0.5-1.6,0.4-3.4,2-4c0.3-0.1,0.6-0.2,1-0.2
				c1.4,0,2.6,0.9,3,2.2l2.4,7.4c0.3,0.8,0.2,1.7-0.2,2.4c-0.4,0.8-1,1.3-1.8,1.6C229.1,59.9,228.7,59.9,228.4,59.9z"/>
			<path class="st1" d="M226,47.2c0.9,0,1.8,0.6,2.1,1.6l2.4,7.4c0.4,1.2-0.3,2.4-1.4,2.8c-0.2,0.1-0.5,0.1-0.7,0.1
				c-0.9,0-1.8-0.6-2.1-1.6l-2.4-7.4c-0.4-1.2,0.3-2.4,1.4-2.8C225.5,47.2,225.8,47.2,226,47.2 M226,45.4L226,45.4
				c-0.4,0-0.8,0.1-1.3,0.2c-2.1,0.7-3.3,3-2.6,5.1l2.4,7.4c0.5,1.7,2.1,2.8,3.8,2.8c0.4,0,0.8-0.1,1.3-0.2c2.1-0.7,3.3-3,2.6-5.1
				l-2.4-7.4C229.3,46.5,227.7,45.4,226,45.4L226,45.4z"/>
		</g>
	</g>
	<g>
		<g>
			<g>
				<path class="st11" d="M202.5,41.8c-4.5,0-8.2-3.7-8.2-8.2V23.3h4.9v10.3c0,1.8,1.4,3.2,3.2,3.2h3v4.9H202.5z"/>
				<path class="st1" d="M198.4,24.2v9.4c0,2.3,1.9,4.1,4.1,4.1h2.1v3.1h-2.1c-4,0-7.3-3.3-7.3-7.3v-9.4H198.4 M200.2,22.4h-1.8
					h-3.1h-1.8v1.8v9.4c0,5,4.1,9.1,9.1,9.1h2.1h1.8v-1.8v-3.1v-1.8h-1.8h-2.1c-1.3,0-2.3-1-2.3-2.3v-9.4V22.4L200.2,22.4z"/>
			</g>
		</g>
		<g>
			<path class="st7" d="M193.4,30.3c-2.7,0-5-2.2-5-5V6.2c0-2.3,1.9-4.2,4.2-4.2h3.6c3,0,5.5,2.2,5.8,5.2l2.3,18.7
				c0.1,1.1-0.2,2.3-1,3.2c-0.8,0.9-1.9,1.4-3,1.4H193.4z"/>
			<g>
				<path class="st1" d="M196.3,2.9c2.5,0,4.6,1.9,4.9,4.4l2.3,18.7c0.2,1.9-1.2,3.5-3.1,3.5h-7c-2.2,0-4.1-1.8-4.1-4.1V6.2
					c0-1.8,1.5-3.3,3.3-3.3H196.3 M196.3,1.1h-3.6c-2.8,0-5.1,2.3-5.1,5.1v19.1c0,3.2,2.6,5.9,5.9,5.9h7c1.4,0,2.7-0.6,3.7-1.7
					c0.9-1.1,1.4-2.5,1.2-3.9L203,7C202.6,3.7,199.7,1.1,196.3,1.1L196.3,1.1z"/>
			</g>
		</g>
		<g class="st12">
			<path d="M200.4,29.4h-7c-1.4,0-2.7-0.7-3.4-1.8c0.1,0,0.2,0,0.2,0h7c1.9,0,3.3-1.6,3.1-3.5l-2.3-18.7c-0.1-1-0.5-1.8-1.1-2.5
				c2.2,0.3,3.9,2.1,4.2,4.3l2.3,18.7C203.8,27.8,202.3,29.4,200.4,29.4z"/>
		</g>
		<g class="st13">
			<path class="st14" d="M199.2,3.8c-0.1,0-0.3,0-0.4,0H195c-1.9,0-3.4,1.5-3.4,3.4V27c0,0.8,0.2,1.6,0.6,2.2
				c-1.7-0.5-2.9-2.1-2.9-3.9V6.2c0-1.8,1.5-3.3,3.3-3.3h3.6C197.4,2.9,198.4,3.2,199.2,3.8z"/>
		</g>
		<g>
			<path class="st7" d="M218.1,53.7c-4.8,0-8.8-3-10.3-4.1c-2.7-2-5-8-5.2-11.1c-0.1-1.7,0.3-4.2,1.9-5.8c1.1-1.2,2.6-1.8,4.4-1.8
				c0.3,0,0.5,0,0.8,0c1.3,0.1,2.5,0.3,3.7,0.5c2.2,0.3,4.2,0.6,6.8,0.6c1.4,0,2.8-0.1,4.3-0.2l0.8-0.1c2.2-0.2,5.3-0.5,8.3-0.5
				c5.5,0,9.2,1.1,11.2,3.3c1.3,1.5,1.9,3.4,1.7,5.7l0,0.1l0,0.1c-1.1,4.3-2,4.7-6.2,5.8c-3.1,0.8-8.2,2.3-17.1,6.5
				C221.4,53.3,219.8,53.7,218.1,53.7C218.1,53.7,218.1,53.7,218.1,53.7z"/>
			<g>
				<path class="st1" d="M208.8,31.7c0.2,0,0.5,0,0.7,0c3.7,0.4,6.5,1,10.5,1c1.3,0,2.7-0.1,4.4-0.2c2.3-0.2,5.7-0.6,9-0.6
					c6.3,0,12.6,1.4,12,8c-1.7,7-2.6,2.1-22.8,11.8c-1.5,0.7-3.1,1-4.5,1c-4.4,0-8.1-2.7-9.8-4c-2.5-1.9-4.7-7.7-4.9-10.4
					C203.3,35.8,204.4,31.7,208.8,31.7 M208.8,29.9C208.8,29.9,208.8,29.9,208.8,29.9c-2,0-3.8,0.7-5,2.1c-1.8,1.9-2.2,4.6-2.1,6.5
					c0.2,3.2,2.6,9.5,5.6,11.7c1.6,1.2,5.8,4.3,10.8,4.3c1.8,0,3.6-0.4,5.3-1.2c8.8-4.2,13.9-5.6,16.9-6.5c4.4-1.2,5.7-1.8,6.9-6.5
					l0-0.1l0-0.1c0.3-2.6-0.4-4.8-1.9-6.4c-2.2-2.4-6.1-3.6-11.9-3.6c-3,0-6.1,0.3-8.4,0.6l-0.8,0.1c-1.5,0.2-2.9,0.2-4.2,0.2
					c-2.5,0-4.6-0.3-6.7-0.6c-1.2-0.2-2.4-0.3-3.7-0.5C209.4,29.9,209.1,29.9,208.8,29.9L208.8,29.9L208.8,29.9z"/>
			</g>
		</g>
		<g class="st13">
			<path class="st14" d="M243.3,34.4c-5.7-1.4-13.7-0.7-18.5-0.4c-8.1,0.6-11.9-0.5-17.8-1.1c-0.6-0.1-1.1-0.1-1.6,0
				c0.9-0.8,2.2-1.3,4-1.1c4.9,0.5,8.1,1.5,14.9,0.8C229.5,32,239.1,30.8,243.3,34.4z"/>
		</g>
		<g class="st12">
			<path d="M245.4,40c-1.7,7-2.6,2.1-22.8,11.8c-6.2,3-12-1.3-14.3-2.9c-2.3-1.7-4.3-6.6-4.8-9.5c0.8,1.7,1.9,3.3,3,4.1
				c2.2,1.7,8.1,5.9,14.3,2.9c20.2-9.7,21.1-4.7,22.8-11.8c0,0,0,0,0,0C244.9,35.8,245.6,37.5,245.4,40z"/>
		</g>
	</g>
</g>
<g id="triSeat_00000178163565147610292710000015424833377724614837_">
	<g>
		<path class="st7" d="M9.1,14.9c-2.5,0-3.2-1.7-3.5-2.5l-3-7.3C2.3,4.4,2.4,3.6,2.8,2.9c0.4-0.6,1.2-1,1.9-1H14
			c2.9,0,5,0.2,7.3,0.4C24,2.6,26.7,2.8,31,2.8c4.6,0,10.6,0,14.9-0.1c3.7,0,7.1,2,8.9,5.1c0.5,0.8,0.5,1.7,0,2.6
			c-0.4,0.8-1.2,1.3-2.1,1.4c-1.4,0-2.6,0-3.8,0c-17.9,0-29.1,0.8-37.6,2.8C10.4,14.8,9.7,14.9,9.1,14.9z"/>
		<path class="st1" d="M14,2.8c6.1,0,8.9,0.9,17,0.9c4.6,0,10.6,0,14.9-0.1c0,0,0,0,0.1,0c3.4,0,6.5,1.8,8.2,4.7h0
			c0.7,1.1-0.1,2.6-1.4,2.7c-1.3,0-2.6,0-3.8,0c-17,0-28.9,0.7-37.8,2.8c-0.8,0.2-1.4,0.3-1.9,0.3c-1.8,0-2.3-1-2.7-1.9l-3-7.3
			C3,3.8,3.7,2.8,4.8,2.8H14 M14,1.1H4.8c-1.1,0-2.1,0.5-2.6,1.4c-0.6,0.9-0.7,2-0.3,3l3,7.3c0.3,0.8,1.2,3,4.3,3
			c0.7,0,1.5-0.1,2.3-0.3c8.4-1.9,19.6-2.7,37.4-2.7c1.2,0,2.5,0,3.8,0l0.1,0l0.1,0c1.2-0.1,2.3-0.8,2.8-1.8
			c0.6-1.1,0.5-2.3-0.1-3.4c-2-3.4-5.7-5.5-9.6-5.5l-0.1,0C41.6,2,35.6,2,31,2c-4.2,0-6.9-0.3-9.6-0.5C19.1,1.3,16.9,1.1,14,1.1
			L14,1.1z"/>
	</g>
	<g>
		<path class="st1" d="M12,7.9c0.5,0.5,1,0.7,1.5,0.7c0.6,0,0.9-0.2,0.9-0.6c0-0.3-0.2-0.5-0.7-0.6l-0.9-0.2
			c-0.8-0.1-1.2-0.5-1.2-1.2c0-0.8,0.7-1.4,1.8-1.4c0.7,0,1.4,0.2,1.9,0.6L14.8,6c-0.5-0.4-0.9-0.5-1.4-0.5c-0.5,0-0.8,0.2-0.8,0.5
			c0,0.3,0.2,0.4,0.6,0.5L14,6.6c0.9,0.1,1.3,0.6,1.3,1.3c0,0.9-0.7,1.4-1.9,1.4c-0.7,0-1.5-0.3-2-0.8L12,7.9z"/>
		<path class="st1" d="M15.6,8.3c0-0.6,0.5-1,1.4-1c0.3,0,0.6,0,0.8,0.1V7.2c0-0.4-0.2-0.6-0.7-0.6c-0.3,0-0.6,0.1-1,0.3l-0.3-0.6
			c0.5-0.2,1-0.4,1.5-0.4c0.9,0,1.4,0.5,1.4,1.2v2.2h-0.9V9c-0.3,0.2-0.6,0.3-1,0.3C16.1,9.3,15.6,8.9,15.6,8.3z M17,8.7
			c0.3,0,0.5-0.1,0.7-0.2V8c-0.2-0.1-0.5-0.1-0.7-0.1c-0.4,0-0.6,0.2-0.6,0.4C16.4,8.5,16.7,8.7,17,8.7z"/>
		<path class="st1" d="M21.6,9c-0.3,0.2-0.6,0.3-1,0.3c-1,0-1.7-0.8-1.7-1.7c0-1,0.8-1.7,1.7-1.7c0.3,0,0.6,0.1,0.9,0.3V4.8l0.9-0.2
			v4.7h-0.9V9z M20.7,8.6c0.3,0,0.6-0.1,0.8-0.3V6.9c-0.2-0.2-0.5-0.3-0.8-0.3c-0.6,0-1,0.4-1,1C19.8,8.1,20.2,8.6,20.7,8.6z"/>
		<path class="st1" d="M25.4,9c-0.3,0.2-0.6,0.3-1,0.3c-1,0-1.7-0.8-1.7-1.7c0-1,0.8-1.7,1.7-1.7c0.3,0,0.7,0.1,0.9,0.3V4.8l0.9-0.2
			v4.7h-0.9V9z M24.6,8.6c0.3,0,0.6-0.1,0.8-0.3V6.9c-0.2-0.2-0.5-0.3-0.8-0.3c-0.6,0-1,0.4-1,1C23.6,8.1,24,8.6,24.6,8.6z"/>
		<path class="st1" d="M27.7,9.3h-0.9V4.8l0.9-0.2V9.3z"/>
		<path class="st1" d="M29.9,9.3c-1,0-1.8-0.8-1.8-1.7c0-1,0.8-1.7,1.7-1.7c1,0,1.7,0.8,1.7,1.8v0.2H29c0.1,0.4,0.5,0.7,1,0.7
			c0.3,0,0.6-0.1,0.7-0.3l0.6,0.5C30.8,9.2,30.4,9.3,29.9,9.3z M29,7.3h1.6c-0.1-0.4-0.4-0.7-0.8-0.7C29.4,6.6,29.1,6.8,29,7.3z"/>
		<path class="st1" d="M33.7,7.9c0,0.4,0.3,0.7,0.7,0.7c0.3,0,0.5-0.1,0.7-0.3V5.9h0.9v3.4H35V9c-0.3,0.2-0.6,0.3-0.9,0.3
			c-0.8,0-1.3-0.6-1.3-1.3V5.9h0.9V7.9z"/>
		<path class="st1" d="M36.4,5.9h0.9v0.3c0.3-0.2,0.6-0.3,1-0.3c1,0,1.7,0.8,1.7,1.7c0,1-0.8,1.7-1.7,1.7c-0.3,0-0.7-0.1-0.9-0.3
			v1.6h-0.9V5.9z M37.2,6.9v1.3c0.2,0.2,0.5,0.3,0.8,0.3c0.6,0,1-0.4,1-1c0-0.6-0.4-1-1-1C37.7,6.6,37.4,6.7,37.2,6.9z"/>
	</g>
	<g class="st13">
		<path class="st14" d="M50.7,4.9c-0.2,0-0.4,0-0.6,0C45.4,4.9,38.8,5,33.7,5C24.9,5,21.8,4,15.1,4H4.9C4.2,4,3.7,4.4,3.4,4.9l0-0.1
			C3,3.8,3.7,2.8,4.8,2.8H14c6.1,0,8.9,0.9,17,0.9c4.6,0,10.6,0,14.9-0.1C47.6,3.6,49.2,4.1,50.7,4.9z"/>
	</g>
	<g class="st12">
		<path d="M54.3,9.2c0,0.9-0.7,1.7-1.7,1.8c-19-0.1-32,0.6-41.6,2.8c-3.4,0.8-4.2-0.4-4.7-1.7L5.5,9.9c0.6,0.9,1.6,1.6,4.3,0.9
			C19.4,8.6,32.4,7.9,51.4,8C52.2,8,52.8,7.5,53,6.8c0.4,0.5,0.8,1,1.1,1.5C54.2,8.6,54.3,8.9,54.3,9.2z"/>
	</g>
	<g>
		<path class="st1" d="M9.8,7.7L9.8,7.7L9,6.6c-0.3-0.4-1-0.5-1.3,0L7.4,6.9L6.9,6.7C6.6,6.6,6.5,6.2,6.7,6l0.9-1.1
			c0.3-0.4,1-0.4,1.3,0l1.5,2C10.7,7.3,10.3,7.9,9.8,7.7z"/>
		<path class="st1" d="M9.8,9.8L7,8.8C6.7,8.7,6.6,8.3,6.8,8.1l0.5-0.7L7.6,7C8,6.6,8.6,6.6,9,7l0.8,1.1L10.4,9
			C10.7,9.4,10.3,10,9.8,9.8z"/>
	</g>
</g>
<g id="eBikeSaddle_00000080171392748912851520000004430867237086799550_">
	<g>
		<g>
			<g>
				<path class="st15" d="M261.7,21.5c-0.7,0-1.3-0.6-1.3-1.3s0.6-1.3,1.3-1.3h5.2l5.1-4c0.2-0.2,0.5-0.3,0.8-0.3
					c0.4,0,0.8,0.2,1,0.5c0.2,0.3,0.3,0.6,0.3,1c0,0.3-0.2,0.7-0.5,0.9l-5.5,4.3c-0.2,0.2-0.5,0.3-0.8,0.3H261.7z"/>
				<path class="st1" d="M272.7,15c0.3,0,0.5,0.1,0.7,0.3c0.3,0.4,0.2,0.9-0.1,1.2l-5.5,4.3c-0.2,0.1-0.3,0.2-0.5,0.2h-5.6
					c-0.5,0-0.9-0.4-0.9-0.9s0.4-0.9,0.9-0.9h5.3l5.2-4.1C272.4,15.1,272.5,15,272.7,15 M272.7,14.2c-0.4,0-0.8,0.1-1.1,0.4l-5,3.9
					h-5c-1,0-1.7,0.8-1.7,1.7s0.8,1.7,1.7,1.7h5.6c0.4,0,0.8-0.1,1.1-0.4l5.5-4.3c0.4-0.3,0.6-0.7,0.6-1.2c0.1-0.5-0.1-0.9-0.4-1.3
					C273.8,14.4,273.3,14.2,272.7,14.2L272.7,14.2z"/>
			</g>
		</g>
		<g>
			<g>
				<path class="st5" d="M263.4,23.2c-0.7,0-1.3-0.6-1.3-1.3s0.6-1.3,1.3-1.3h4.9l5.1-8c0.2-0.4,0.7-0.6,1.1-0.6
					c0.2,0,0.5,0.1,0.7,0.2c0.6,0.4,0.8,1.2,0.4,1.8l-5.5,8.6c-0.2,0.4-0.6,0.6-1.1,0.6H263.4z"/>
				<path class="st1" d="M274.5,12.4c0.2,0,0.3,0,0.5,0.1c0.4,0.3,0.5,0.8,0.3,1.2l-5.5,8.6c-0.2,0.3-0.4,0.4-0.7,0.4h-5.6
					c-0.5,0-0.9-0.4-0.9-0.9c0-0.5,0.4-0.9,0.9-0.9h5.1l5.2-8.2C273.9,12.5,274.2,12.4,274.5,12.4 M274.5,11.5L274.5,11.5
					c-0.6,0-1.1,0.3-1.5,0.8l-4.9,7.8h-4.7c-1,0-1.7,0.8-1.7,1.7c0,1,0.8,1.7,1.7,1.7h5.6c0.6,0,1.1-0.3,1.5-0.8l5.5-8.6
					c0.2-0.4,0.3-0.9,0.2-1.3c-0.1-0.5-0.4-0.8-0.8-1.1C275.1,11.6,274.8,11.5,274.5,11.5L274.5,11.5z"/>
			</g>
		</g>
		<g>
			<path class="st15" d="M275.3,13.3c0,0,0,0.1,0,0.1c0,0.1-0.1,0.2-0.1,0.3l-2.5,4l-3,4.7c-0.2,0.3-0.4,0.4-0.7,0.4h-5.6
				c0,0-0.1,0-0.1,0c0,0-0.1,0-0.1,0c-0.1,0-0.1,0-0.2-0.1c0.1-0.4,0.4-0.8,0.9-0.8h5.1l2.4-3.7l0.2-0.4l-1,0.1l2.9-4.6l0.3-0.5
				c0.3-0.4,0.8-0.5,1.2-0.3c0.1,0,0.1,0.1,0.2,0.2C275.2,12.8,275.3,13.1,275.3,13.3z"/>
		</g>
		<g>
			<path class="st7" d="M262.1,27.6c-1.7,0-3.1-1.4-3.1-3.1v-5.6c0-1.7,1.4-3.1,3.1-3.1c0.5,0,1,0.4,1,1v9.9
				C263.1,27.2,262.6,27.6,262.1,27.6z"/>
			<g>
				<path class="st1" d="M262.1,16.7v9.9c-1.2,0-2.2-1-2.2-2.2v-5.6C259.9,17.7,260.9,16.7,262.1,16.7 M262.1,14.8
					c-2.3,0-4.1,1.8-4.1,4.1v5.6c0,2.3,1.8,4.1,4.1,4.1c1.1,0,1.9-0.9,1.9-1.9v-9.9C264,15.7,263.2,14.8,262.1,14.8L262.1,14.8z"/>
			</g>
		</g>
		<g class="st13">
			<path class="st14" d="M262.1,25.8v0.9h-0.2c-1.1,0-1.9-0.9-1.9-1.9v-6.1c0-0.5,0.2-0.9,0.5-1.3c0,0.1,0,0.3,0,0.4v6.1
				C260.4,24.9,261.1,25.7,262.1,25.8z"/>
		</g>
	</g>
	<g>
		<path class="st16" d="M282.2,11.8l0.1,0.2c-1.4,0.2-2.8,0.5-4.2,0.8c-0.2-1,0.4-2,1.5-2.4C280.6,10.1,281.8,10.7,282.2,11.8z"/>
	</g>
	<g>
		<path class="st5" d="M280.8,25.7c-4-12.6-4-12.7-4-12.8l-0.1-0.8l0.8-0.2c1.4-0.3,2.8-0.6,4.3-0.8l0.7-0.1l4.4,13.7l-5.8,1.8
			L280.8,25.7z"/>
		<path class="st1" d="M281.9,12l3.9,12.2l-4.1,1.3c0,0-4-12.5-4-12.7C279.1,12.5,280.5,12.2,281.9,12 M283.1,10l-1.5,0.2
			c-1.5,0.2-2.9,0.5-4.3,0.8l-1.6,0.3l0.2,1.6c0,0.2,0,0.3,4.1,12.9l0.5,1.6l1.6-0.5l4.1-1.3l1.7-0.5l-0.5-1.7l-3.9-12.2L283.1,10
			L283.1,10z"/>
	</g>
	<g>
		<path class="st15" d="M283.6,17.3l-3.9,2c-1-3.2-2-6.4-2-6.5c1.5-0.3,2.9-0.6,4.3-0.8L283.6,17.3z"/>
	</g>
	<g>
		<g>
			<g>
				<path class="st8" d="M267.4,15.9c-4.4,0-8.3-1.6-9.8-2.1c-2-0.8-3.8-2.7-4.8-4.1c-0.4-0.6-0.9-1.4-1.1-2.1c-0.2-1,0-2.1,0.7-2.9
					c0.7-0.8,2.1-1.8,5-1.8c0.2,0,0.4,0,0.6,0c1.3,0.1,3.3,0.2,5.6,0.4c4.8,0.4,10.8,0.8,15.4,0.8c1.2,0,2.2,0,3.1-0.1
					c0.7-0.1,1.6-0.1,2.6-0.2c3.1-0.3,6.9-0.6,10.5-0.6c6,0,9.3,0.9,10.6,2.8c0.4,0.6,0.5,1.2,0.5,1.9l0,0.1l0,0.1
					c-0.8,2.5-4.6,2.8-10.9,3.4c-3.5,0.3-7.9,0.7-12.9,1.6c-1.4,0.2-2.8,0.5-4.2,0.8c-2.1,0.5-4.1,1-6.2,1.6
					C270.6,15.7,269,15.9,267.4,15.9z"/>
				<path class="st1" d="M257.3,3.6c0.2,0,0.4,0,0.6,0c4.1,0.2,14.1,1.2,21,1.2c1.2,0,2.2,0,3.2-0.1c3-0.2,8.3-0.8,13-0.8
					c4.5,0,8.6,0.5,9.8,2.4c0.3,0.4,0.4,0.8,0.4,1.4c-1,3.1-9.9,2.1-23.1,4.4c-1.4,0.2-2.8,0.5-4.2,0.8c-2,0.4-4.1,1-6.2,1.6
					c-1.5,0.4-3,0.6-4.4,0.6c-4.1,0-7.8-1.4-9.5-2.1c-1.7-0.7-3.4-2.4-4.4-3.8c-0.5-0.7-0.8-1.4-0.9-1.8
					C252.2,5.9,253.1,3.6,257.3,3.6 M257.3,1.8c-3.3,0-4.9,1.2-5.6,2.2c-0.8,1.1-1.1,2.4-0.8,3.7c0.2,0.7,0.6,1.5,1.2,2.4
					c1.1,1.6,3,3.6,5.2,4.4c1.5,0.6,5.6,2.2,10.1,2.2c1.7,0,3.4-0.2,4.9-0.7c2-0.6,4.1-1.1,6.1-1.6c1.4-0.3,2.8-0.6,4.2-0.8
					c4.9-0.9,9.3-1.3,12.8-1.6c6.7-0.6,10.7-0.9,11.6-4l0.1-0.2l0-0.2c0-0.9-0.2-1.7-0.6-2.4c-1.4-2.2-4.9-3.1-11.3-3.1
					c-3.6,0-7.5,0.3-10.6,0.6c-1,0.1-1.9,0.2-2.6,0.2c-0.9,0.1-1.9,0.1-3,0.1c-4.6,0-10.5-0.4-15.3-0.8c-2.3-0.2-4.3-0.3-5.6-0.4
					C257.8,1.8,257.5,1.8,257.3,1.8L257.3,1.8z"/>
			</g>
			<path class="st17" d="M305.3,7.6c-1,3.1-9.9,2.1-23.1,4.4c-1.4,0.2-2.8,0.5-4.2,0.8c-2,0.4-4.1,1-6.2,1.6
				c-5.7,1.7-11.6-0.6-13.9-1.5c-1.7-0.7-3.4-2.4-4.4-3.8c0.1-1.6,1.6-3.5,6.1-3.3c5.3,0.2,19.9,1.7,27.2,1.2
				c4.2-0.3,12.1-1.2,18.2-0.8C305.2,6.6,305.3,7.1,305.3,7.6z"/>
		</g>
	</g>
</g>
<g id="streetSaddle_00000111887634898553672040000018104788031862160021_">
	<g>
		<g>
			<g>
				<path class="st18" d="M81.9,20.3c-1.7,0-3.3-0.7-4.5-1.9L73,13.8l2.5-2.4l4.4,4.5c0.5,0.5,1.3,0.8,2,0.8h11c0.5,0,1-0.1,1.4-0.4
					l12.8-7.7l1.8,3l-12.8,7.7c-1,0.6-2.1,0.9-3.3,0.9H81.9z"/>
				<path class="st1" d="M106.9,9.7l1,1.7l-12.1,7.3c-0.9,0.5-1.9,0.8-2.9,0.8h-11c-1.5,0-2.9-0.6-4-1.7l-3.9-4l1.4-1.4l3.9,4
					c0.7,0.7,1.6,1.1,2.5,1.1h11c0.6,0,1.3-0.2,1.8-0.5L106.9,9.7 M107.4,7.6l-1.3,0.8L94,15.8c-0.3,0.2-0.7,0.3-1.1,0.3h-11
					c-0.5,0-1.1-0.2-1.5-0.6l-3.9-4l-1-1.1l-1.1,1L73,12.8l-1.1,1l1,1.1l3.9,4c1.3,1.4,3.2,2.1,5.1,2.1h11c1.3,0,2.5-0.4,3.6-1
					l12.1-7.3l1.3-0.8l-0.8-1.3l-1-1.7L107.4,7.6L107.4,7.6z"/>
			</g>
			<g class="st2">
				<path d="M82.4,17.6l-3.2,1.3c-0.5-0.3-0.9-0.6-1.3-1l-3.9-4l1.4-1.4l3.9,4c0.7,0.7,1.6,1.1,2.5,1.1H82.4z"/>
			</g>
			<g class="st2">
				<polygon points="107.9,11.4 101.4,15.3 97.9,15.1 106.9,9.7 				"/>
			</g>
		</g>
		<g>
			<path class="st19" d="M77.3,15.5c-3,0-5.5-1.2-7.3-3.6c-1.8-2.4-3.8-3.5-5.4-4.4c-0.4-0.3-0.9-0.5-1.2-0.7
				c-0.8-0.5-1.2-1.5-0.9-2.5c0.3-1,1.1-1.6,2.1-1.6c0.1,0,0.2,0,0.3,0C70.2,3.3,83.6,4.9,90,4.9c0.6,0,1.2,0,1.8,0l4.5,0
				c17.7,0,23.4,0.9,23.4,3.7c0,1.5-1.4,2.3-14,2.3c-1.7,0-3.2,0-4.6,0c-1,0-2,0-2.7,0c-5.1,0-12,1.9-14.3,2.9
				C82.9,14.4,80.2,15.5,77.3,15.5z"/>
			<path class="st1" d="M64.5,3.7c0,0,0.1,0,0.1,0C70.1,4.3,83.5,5.9,90,6c0.6,0,1.2,0,1.9,0c1.3,0,2.9,0,4.5,0
				c9.5,0,22.4,0.2,22.4,2.7c0,1.1-6.9,1.2-13,1.2c-2.9,0-5.6,0-7.3,0c-5.2,0-12.2,2-14.7,3c-1.3,0.6-3.9,1.6-6.5,1.6
				c-2.3,0-4.6-0.7-6.5-3.2C68.3,8,65.6,7,63.9,5.9C62.9,5.2,63.4,3.7,64.5,3.7 M64.5,1.6L64.5,1.6c-1.4,0-2.6,0.9-3.1,2.3
				c-0.4,1.4,0.1,2.9,1.3,3.7c0.4,0.3,0.8,0.5,1.3,0.8c1.6,0.9,3.3,1.9,5.1,4.2c2,2.6,4.8,4,8.1,4c3.1,0,6.1-1.2,7.3-1.8
				c2.4-1,9.2-2.9,13.9-2.9c0.7,0,1.6,0,2.7,0c1.4,0,3,0,4.6,0c3.9,0,6.8-0.1,8.9-0.2c2.7-0.2,6.1-0.4,6.1-3.1
				c0-3.7-5.2-4.7-24.4-4.7l-2.5,0l-2,0c-0.7,0-1.3,0-1.8,0c-6.4,0-19.7-1.6-25.1-2.3C64.8,1.6,64.6,1.6,64.5,1.6L64.5,1.6z"/>
		</g>
	</g>
	<path class="st14" d="M118.8,8.6L118.8,8.6l-24-0.5c-7,0-11.4,1.5-16.2,1.5S68.8,9.2,67.3,8C66,7,64.8,6.5,63.9,5.9
		c-1-0.7-0.4-2.4,0.7-2.2C70.1,4.3,83.5,5.9,90,6C98.3,6,118.8,5.5,118.8,8.6z"/>
</g>
</svg>
