<?xml version="1.0" encoding="utf-8"?>
<!-- Generator: Adobe Illustrator 26.0.2, SVG Export Plug-In . SVG Version: 6.00 Build 0)  -->
<svg version="1.1" id="bikeFrames" xmlns="http://www.w3.org/2000/svg" xmlns:xlink="http://www.w3.org/1999/xlink" x="0px" y="0px"
	 width="1800px" height="280px" viewBox="0 0 1800 280" style="enable-background:new 0 0 1800 280;" xml:space="preserve">
<style type="text/css">
	.st0{fill:#27579A;}
	.st1{fill:#142C4D;}
	.st2{fill:#AEDCDD;}
	.st3{opacity:0.2;enable-background:new    ;}
	.st4{fill:#FAFA4F;}
	.st5{opacity:0.6;}
	.st6{fill:#FFFFFF;}
	.st7{fill:#FAAA4F;}
	.st8{opacity:0.8;}
	.st9{opacity:0.4;}
	.st10{fill:#4F4646;}
	.st11{fill:#9E9298;}
	.st12{fill:#231E1E;stroke:#142C4D;stroke-width:1.2963;stroke-miterlimit:10;}
	.st13{fill:none;stroke:#FF0066;stroke-width:0.8642;stroke-miterlimit:10;}
	.st14{opacity:0.28;}
	.st15{fill:#EE0000;}
</style>
<g id="loRiderFrame">
	<g>
		<path class="st0" d="M786.2,196.2c-1.7,0-3.2-1-3.9-2.5c-0.8-1.8-0.3-3.8,1.2-5.1l67.1-55.3l-4.2-12.2c-0.2-0.5-0.1-1.1,0.3-1.7
			c1-1.4,3.7-2.4,5.5-2.4c1.6,0,2.1,0.8,2.3,1.3l3.8,10.9l111.1-39.8l-1.8-4.4c-0.1-0.3-0.3-1,0.2-1.7c1-1.5,3.9-2.6,5.6-2.6
			c1.4,0,1.9,0.7,2.1,1.1l43.9,106.1c0.9,2.2-0.1,4.7-2.3,5.6c-0.5,0.2-1.1,0.3-1.6,0.3c-1.7,0-3.3-1-4-2.6l-33.3-80.5l-104.7,71.8
			c-0.5,0.4-1.1,0.6-1.8,0.7L787,196.3C786.6,196.2,786.4,196.2,786.2,196.2z M800.9,185.3l64.1-9.9L853.5,142L800.9,185.3z
			 M873,172.2l101.7-69.7l-2.1-5.2l-111.6,40L873,172.2z"/>
		<path class="st1" d="M973.3,81.5c0.6,0,1.1,0.2,1.2,0.6l43.9,106.1c0.7,1.7-0.1,3.7-1.8,4.4c-0.4,0.2-0.9,0.3-1.3,0.3
			c-1.3,0-2.6-0.8-3.1-2.1l-33.7-81.5l-105.6,72.4c-0.4,0.3-0.9,0.5-1.4,0.5l-84.7,13.1c-0.2,0-0.3,0-0.5,0c-1.3,0-2.5-0.8-3.1-2
			c-0.6-1.4-0.2-3,0.9-4l67.6-55.7l-4.4-12.8c-0.4-1.3,2.9-2.8,5-2.8c0.7,0,1.3,0.2,1.4,0.7l4.1,11.8L970.5,90l-2.2-5.3
			C967.8,83.4,971.3,81.5,973.3,81.5 M872.5,173.7l103.3-70.8l-2.7-6.6l-113.2,40.6L872.5,173.7 M797.8,186.7l68.4-10.6L854,140.4
			L797.8,186.7 M973.3,79.7c-2,0-5.2,1.3-6.3,3c-0.8,1.1-0.5,2.1-0.3,2.6l1.5,3.5L858.9,128l-3.5-10c-0.2-0.6-0.9-1.9-3.1-1.9
			c-2,0-5.1,1.1-6.2,2.8c-0.6,0.8-0.7,1.7-0.4,2.5l4,11.6l-66.6,54.9c-1.8,1.5-2.4,4-1.4,6.1c0.8,1.9,2.7,3.1,4.7,3.1
			c0.3,0,0.5,0,0.8-0.1l84.7-13.1c0.8-0.1,1.5-0.4,2.1-0.8L977.6,112l32.9,79.5c0.8,1.9,2.7,3.2,4.8,3.2c0.7,0,1.4-0.1,2-0.4
			c2.6-1.1,3.9-4.1,2.8-6.8L976.2,81.4C976,80.9,975.3,79.7,973.3,79.7L973.3,79.7z M862.1,137.9L972,98.5l1.5,3.7l-100.1,68.6
			L862.1,137.9L862.1,137.9z M804.1,183.9l49.1-40.5l10.7,31.2L804.1,183.9L804.1,183.9z"/>
	</g>
	<g>
		<circle cx="788" cy="190.6" r="2.7"/>
	</g>
	<g>
		<circle cx="1015.1" cy="187.9" r="2.7"/>
	</g>
</g>
<g id="wagonFrame">
	<g id="wagonLight">
		<g>
			<g>
				<path class="st2" d="M1344.3,107.2c-1.7,0-3.1-1.4-3.1-3.1s1.4-3.2,3.1-3.2l7.8-0.1c1.8,0,3.2,1.4,3.2,3.1c0,0.3,0,0.7-0.1,1
					c-0.4,1.3-1.6,2.2-3,2.2L1344.3,107.2z"/>
				<path class="st1" d="M1352,101.7c1.2,0,2.2,1,2.2,2.2c0,0.2,0,0.5-0.1,0.7c-0.3,0.9-1.1,1.6-2.1,1.6l-7.8,0.1l0,0
					c-1.2,0-2.2-1-2.2-2.2s1-2.3,2.2-2.3L1352,101.7L1352,101.7 M1352,99.9L1352,99.9L1352,99.9l-7.8,0.1c-2.2,0-4,1.9-4,4.1
					s1.8,4,4,4l7.8-0.1c1.8,0,3.3-1.2,3.8-2.8c0.1-0.4,0.2-0.8,0.2-1.3C1356.1,101.7,1354.2,99.9,1352,99.9L1352,99.9z"/>
			</g>
		</g>
		<path class="st3" d="M1354.3,104c0,0.2,0,0.5-0.1,0.7c-0.3,0.9-1.1,1.6-2.1,1.6l-7.8,0.1c-1.2,0-2.3-1-2.3-2.2c0-0.1,0-0.3,0-0.4
			h12.2C1354.3,103.8,1354.3,103.9,1354.3,104z"/>
		<g>
			<path class="st4" d="M1358.7,111.8c-2.5,0-4.6-2.1-4.6-4.6v-6.1c0-2.5,2.1-4.6,4.6-4.6h1.1c2.5,0,4.6,2.1,4.6,4.6v6.1
				c0,2.5-2.1,4.6-4.6,4.6H1358.7z"/>
			<path class="st1" d="M1359.9,97.4c2,0,3.7,1.7,3.7,3.7v6.1c0,2-1.7,3.7-3.7,3.7h-1.1c-2,0-3.7-1.7-3.7-3.7v-6.1
				c0-2,1.7-3.7,3.7-3.7H1359.9 M1359.9,95.6h-1.1c-3,0-5.5,2.5-5.5,5.5v6.1c0,3,2.5,5.5,5.5,5.5h1.1c3,0,5.5-2.5,5.5-5.5v-6.1
				C1365.4,98.1,1362.9,95.6,1359.9,95.6L1359.9,95.6z"/>
		</g>
		<path class="st3" d="M1363.6,106.1v2.1c0,1.5-1.2,2.7-2.7,2.7h-3.2c-1.5,0-2.7-1.2-2.7-2.7v-8.1c0-0.4,0.1-0.7,0.2-1.1v6
			c0,1.5,1.2,2.7,2.7,2.7h3.2C1362.2,107.8,1363.2,107.1,1363.6,106.1z"/>
		<g>
			<path class="st2" d="M1355.3,115.9c-2,0-3.6-1.6-3.6-3.6V96.1c0-2,1.6-3.6,3.6-3.6s3.6,1.6,3.6,3.6v16.2
				C1358.9,114.2,1357.3,115.9,1355.3,115.9z"/>
			<path class="st1" d="M1355.3,93.4c1.5,0,2.7,1.2,2.7,2.7v16.2c0,1.5-1.2,2.7-2.7,2.7s-2.7-1.2-2.7-2.7V96.1
				C1352.6,94.6,1353.8,93.4,1355.3,93.4 M1355.3,91.6c-2.5,0-4.5,2-4.5,4.5v16.2c0,2.5,2,4.5,4.5,4.5s4.5-2,4.5-4.5V96.1
				C1359.8,93.6,1357.8,91.6,1355.3,91.6L1355.3,91.6z"/>
		</g>
		<path class="st3" d="M1358,103.3v9c0,1.5-1.2,2.7-2.7,2.7s-2.7-1.2-2.7-2.7v-9c0,1.5,1.2,1.8,2.7,1.8
			C1356.8,105.1,1358,104.7,1358,103.3z"/>
		<g class="st5">
			<path class="st6" d="M1352.6,98.8v-2.7c0-1.5,1.2-2.7,2.7-2.7s2.7,1.2,2.7,2.7v2.7c0-1.5-1.2-2.7-2.7-2.7
				C1353.8,96.1,1352.6,97.3,1352.6,98.8z"/>
		</g>
		<circle class="st6" cx="1361.6" cy="99.7" r="1.8"/>
	</g>
	<g id="wagonBikeframe">
		<g>
			<path class="st7" d="M1120.8,204.4c-1.8,0-3.4-1.1-4-2.8l-22.9-64.3c-0.5-1.3-0.3-2.8,0.5-3.9c0.8-1.1,2.1-1.8,3.5-1.8h94.7
				c1.3,0,2.5,0.6,3.4,1.6c6,7.7,23.2,12.8,49.7,14.9c1.5,0.1,3.1,0.2,4.6,0.3l-15-45.8c-0.7-2.2,0.5-4.7,2.7-5.4
				c0.4-0.1,0.9-0.2,1.3-0.2c1.9,0,3.5,1.2,4.1,2.9l16,48.9c3.8,0.1,7.7,0.2,11.6,0.2c7.3,0,12.5-0.2,14-0.3
				c4.1-3.5,8.6-7.3,13.3-11.5c19.4-17.4,36.2-35.1,36.9-35.8c0.2-0.2,0.4-0.3,0.5-0.5l-1.4-3.4c-0.4-1.1-0.4-2.2,0-3.3
				c0.4-1.1,1.3-1.9,2.3-2.3c0.5-0.2,1.1-0.3,1.6-0.3c1.7,0,3.3,1,4,2.7l42.7,104.3c0.4,1.1,0.4,2.2,0,3.3s-1.3,1.9-2.3,2.3
				c-0.5,0.2-1.1,0.3-1.6,0.3c-1.7,0-3.3-1-4-2.7l-27-65.8l-75.6,67.3c-0.5,0.5-1.2,0.8-1.9,1h-0.1c-0.1,0-0.2,0-0.2,0
				c-0.1,0-0.2,0-0.3,0c0,0-0.1,0-0.2,0L1120.8,204.4z M1136,195.9l-16.2-55.8h-15.9l19.9,55.8H1136z M1148.2,195.9
				c0.3-0.5,0.7-1,1.2-1.4c4.7-3.6,10.3-7,16.6-10.1l-12.9-44.2h-24.5l16.2,55.8h3.4L1148.2,195.9L1148.2,195.9z M1212.7,180.6
				c-3.5,0-7.5,0.4-11.7,1.1c-12.8,2.2-27.2,7.6-38.4,14.2h103l-6.2-19c-5.1,2.5-9.5,3.8-13,3.8h-33.7L1212.7,180.6L1212.7,180.6z
				 M1273.6,192.7l73-65l-7.5-18.2c-5.2,5.4-19.3,19.7-35.2,34c-14.9,13.4-27,23-36.9,29.1L1273.6,192.7z M1173.9,180.8
				c6.9-2.9,14.2-5.1,21.1-6.7l-9.9-34h-23L1173.9,180.8z M1203.4,172.7c3.3-0.4,6.4-0.6,9.3-0.6h33.7c1.7,0,4.9-0.6,10.3-3.4
				l-3.8-11.5c-2.7-0.1-5.4-0.3-8.1-0.5c-23.5-1.8-40.2-6.1-49.9-12.7L1203.4,172.7z M1264.3,164.2c2.9-1.9,6.1-4.1,9.5-6.7
				c-1,0-1.9,0-3,0c-2.9,0-5.9,0-8.7-0.1L1264.3,164.2z"/>
			<path class="st1" d="M1338.2,92.5c1.3,0,2.6,0.8,3.1,2.1l42.7,104.3c0.7,1.7-0.1,3.7-1.8,4.4c-0.4,0.2-0.8,0.3-1.3,0.3
				c-1.3,0-2.6-0.8-3.1-2.1l-27.4-66.9l-76.5,68.1c-0.4,0.4-1,0.6-1.5,0.8h-0.1h-0.1c-0.1,0-0.2,0-0.3,0c-0.1,0-0.1,0-0.2,0h-0.1
				h-150.8c-1.4,0-2.7-0.9-3.2-2.2l-22.9-64.3c-0.4-1-0.2-2.2,0.4-3.1c0.6-0.9,1.7-1.4,2.8-1.4h94.7c1,0,2,0.5,2.6,1.3
				c6.2,7.9,23.6,13.1,50.4,15.2c2,0.2,4,0.3,5.9,0.4l-15.4-47.1c-0.6-1.8,0.4-3.7,2.2-4.3c0.3-0.1,0.7-0.2,1-0.2
				c1.4,0,2.7,0.9,3.2,2.3l16.2,49.5c4.5,0.1,8.6,0.2,12.3,0.2c7.9,0,13.4-0.2,14.3-0.3c4.1-3.4,8.6-7.3,13.6-11.8
				c19.7-17.7,36.8-35.7,36.9-35.9c0.3-0.3,0.6-0.6,1-0.7l-1.7-4.1c-0.7-1.7,0.1-3.7,1.8-4.4C1337.3,92.6,1337.7,92.5,1338.2,92.5
				 M1273.2,194.2l74.4-66.3l0,0l-8.2-20.1c-4.2,4.4-19.2,19.8-36.1,35c-15.1,13.6-27.5,23.3-37.4,29.4L1273.2,194.2 M1173.3,182
				c7.5-3.1,15.3-5.6,22.8-7.2l-10.4-35.6h-24.9L1173.3,182 M1144.2,196.8h4.7c0.2-0.6,0.6-1.1,1.1-1.6c4.9-3.8,10.8-7.3,17.1-10.4
				l-13.3-45.6h-26.4L1144.2,196.8 M1123.1,196.8h14l-16.7-57.6h-17.8L1123.1,196.8 M1202.8,173.7c3.5-0.5,6.8-0.7,9.9-0.7h33.7
				c2.1,0,5.6-0.8,11.4-3.9l-4.2-12.8c-2.8-0.1-5.7-0.3-8.7-0.5c-25.2-1.9-42.5-6.7-51.6-14.1L1202.8,173.7 M1263.8,165.6
				c3.6-2.3,7.8-5.2,12.7-9c-1.7,0-3.6,0-5.7,0c-3,0-6.4,0-10-0.1L1263.8,165.6 M1159.5,196.8h107.4l-6.9-21.2
				c-5.4,2.8-9.9,4.1-13.5,4.1h-33.7c-3.7,0-7.7,0.4-11.8,1.1c0,0,0,0-0.1,0C1187,183.2,1171.3,189.2,1159.5,196.8 M1338.2,90.7
				c-0.7,0-1.3,0.1-2,0.4c-1.3,0.5-2.3,1.5-2.8,2.8s-0.5,2.7,0,4l1.2,2.8l-0.1,0.1c-0.2,0.2-17.3,18.2-36.8,35.8
				c-4.6,4.1-9,7.9-13,11.3c-1.8,0.1-6.8,0.3-13.7,0.3c-3.7,0-7.4-0.1-10.9-0.2l-15.8-48.3c-0.7-2.1-2.7-3.6-4.9-3.6
				c-0.5,0-1.1,0.1-1.6,0.3c-1.3,0.4-2.4,1.3-3,2.6c-0.6,1.2-0.7,2.6-0.3,3.9l14.6,44.6c-1.1-0.1-2.2-0.1-3.2-0.2
				c-25.9-2-43.3-7.1-49.1-14.5c-1-1.3-2.5-2-4.1-2H1098c-1.7,0-3.3,0.8-4.2,2.2c-1,1.4-1.2,3.1-0.6,4.7l22.9,64.3
				c0.7,2.1,2.7,3.4,4.9,3.4h150.8h0.1c0.1,0,0.2,0,0.4,0c0.1,0,0.2,0,0.3,0c0.1,0,0.2,0,0.2,0c0.1,0,0.1,0,0.2,0
				c0.9-0.2,1.6-0.6,2.3-1.2l74.6-66.5l26.4,64.6c0.8,2,2.7,3.2,4.8,3.2c0.7,0,1.3-0.1,2-0.4c1.3-0.5,2.3-1.5,2.8-2.8s0.5-2.7,0-4
				L1343,93.9C1342.2,91.9,1340.3,90.7,1338.2,90.7L1338.2,90.7z M1268.1,173c9.8-6.2,21.7-15.6,36.4-28.8
				c15-13.5,28.5-27.1,34.3-33.1l6.7,16.3l-71.5,63.7L1268.1,173L1268.1,173z M1163.2,141h21.2l9.4,32.5c-6.4,1.5-13,3.5-19.4,6.1
				L1163.2,141L1163.2,141z M1129.8,141h22.6l12.5,42.9c-6.1,3-11.5,6.4-16.1,9.9c-0.4,0.3-0.8,0.7-1.1,1.2h-2.2L1129.8,141
				L1129.8,141z M1105.2,141h13.9l15.7,54h-10.4L1105.2,141L1105.2,141z M1204.1,171.7l-7.5-25.8c10,6,26.2,9.8,48.3,11.5
				c2.4,0.2,4.9,0.3,7.5,0.5l3.3,10.2c-4.9,2.4-7.7,3-9.2,3h-33.7C1210,171.2,1207.1,171.3,1204.1,171.7L1204.1,171.7z
				 M1264.8,162.8l-1.5-4.4c2.5,0,5,0.1,7.5,0.1c0.1,0,0.2,0,0.2,0C1268.9,160,1266.8,161.5,1264.8,162.8L1264.8,162.8z
				 M1201.1,182.6L1201.1,182.6c4.2-0.7,8.1-1.1,11.6-1.1h33.7c3.5,0,7.6-1.1,12.5-3.4l5.5,16.9H1166
				C1176.7,189.2,1189.6,184.6,1201.1,182.6L1201.1,182.6z"/>
		</g>
	</g>
</g>
<g id="triFrame_00000069360486775067907790000014405921538337096594_">
	<g>
		<g>
			<path class="st1" d="M124.9,121c-2.1,0-4.2-0.5-6-1.4l-13.8-6.6c-0.6-0.3-1.1-0.6-1.6-1c-0.6-0.4-1.1-0.8-1.6-1.3
				c-0.8-0.8-1.5-1.7-2-2.7c-0.2-0.3-0.3-0.6-0.5-1l-4.7-10.4c-0.8-1.7-0.6-3.7,0.4-5.3c1-1.6,2.8-2.5,4.6-2.5h26.1l6.6,32h-7.5
				C124.9,120.8,124.9,121,124.9,121z"/>
			<path class="st1" d="M125,89.8l6.3,30.3h-6.4c-2,0-3.9-0.4-5.7-1.3l-10.9-5.2l-2.9-1.4c-0.5-0.3-1-0.6-1.5-0.9
				c-0.5-0.4-1-0.8-1.5-1.2c-0.7-0.7-1.4-1.6-1.9-2.5c-0.2-0.3-0.3-0.6-0.5-0.9l-1.1-2.4l-0.6-1.4l-1.1-2.5l-0.3-0.6l-1.6-3.4
				c-1.4-3.1,0.9-6.6,4.3-6.6H125 M126.3,88.1H125H99.6c-2.2,0-4.2,1.1-5.4,2.9c-1.2,1.8-1.3,4.1-0.4,6.1l1.6,3.4l0.3,0.6l1.1,2.5
				l0.6,1.4l1.1,2.4c0.2,0.4,0.4,0.7,0.5,1.1c0.6,1,1.3,2,2.2,2.8c0.5,0.5,1.1,1,1.7,1.4c0.5,0.4,1.1,0.7,1.7,1l2.9,1.4l10.8,5.2
				c2,0.9,4.2,1.5,6.4,1.5h6.4h2.1l-0.4-2l-6.3-30.3L126.3,88.1L126.3,88.1z"/>
		</g>
		<g class="st8">
			<path class="st2" d="M116.5,89.8l-14.1,20.3c-0.7-0.7-1.4-1.6-1.9-2.5l12.4-17.9L116.5,89.8L116.5,89.8z"/>
		</g>
		<g class="st5">
			<polygon class="st2" points="109,89.8 98.9,104.3 98.3,103 107.5,89.8 			"/>
		</g>
		<g class="st9">
			<polygon class="st2" points="104.6,89.8 97.2,100.5 96.9,99.8 103.9,89.8 			"/>
		</g>
		<g>
			<path class="st2" d="M124.9,89.8l-16.6,23.8l-2.9-1.4c-0.5-0.3,15.1-22.5,15.1-22.5L124.9,89.8L124.9,89.8z"/>
		</g>
	</g>
	<g id="triFrame">
		<path class="st2" d="M156.9,212.9c-11.9,0-23.9-5.2-31.1-8.4l-0.8-0.4c-4.2-1.8-15.8-3.7-27-5.6c-21.1-3.4-29.7-5.1-29.7-7.9
			c0-0.1-1.3-15.1,15.4-18.2c14.7-2.7,48.5-18.2,53.4-20.5L117,55.1c-0.3-1.4,0.1-2.8,0.9-3.9c0.9-1.1,2.2-1.7,3.6-1.7h13.8
			c2.2,0,4.1,1.6,4.6,3.7l7.6,36.6h114.1l29.1,95.5c0.1,0.5,0.2,0.9,0.2,1.4c0,2.7-2.2,4.8-4.8,4.8c-1.9,0-3.6-1.1-4.4-2.8L253,127
			c-1.1-2.1-2.5-3.1-4.4-3.1c-3.1,0-7.6,2.8-13,8.2c-6.2,6.2-11.5,13.8-11.5,13.8L224,146l0,0l-51.8,62.3c-1,1.2-2.3,2.1-3.8,2.7
			C164.9,212.3,161,212.9,156.9,212.9z M140.4,160.9c-24.1,9.9-59.1,18.7-59.4,18.8c-2.3,0.6-3.3,2.5-3.2,4.1c0.1,1.9,1.6,3.3,4,3.6
			c0.4,0,46.3,3.4,53.4,4.2c0.7,0.1,1.4,0.1,2,0.1c3.6,0,6.6-1.2,8.1-3.2c1.2-1.6,1.5-3.6,0.8-6.1L140.4,160.9z M157.1,136.1
			c2.2,9.9,10.3,23.7,18.8,23.7c2.7,0,5.2-1.4,7.5-4.2l38.7-46.5c-0.3-6.3-11.3-12.1-23.4-12.1h-49.8L157.1,136.1z"/>
		<path class="st1" d="M135.3,50.4c1.8,0,3.4,1.3,3.7,3l7.7,37.2h114.2l29,94.9c0.1,0.4,0.2,0.8,0.2,1.2c0,2.1-1.7,4-4,4
			c-1.5,0-3-0.9-3.6-2.3l-28.8-61.7c-1.3-2.6-3.1-3.6-5.2-3.6c-4,0-9.1,3.9-13.6,8.5c-6.2,6.2-11.4,13.6-11.6,14l0,0l-51.9,62.3
			c-0.9,1.1-2.1,1.9-3.4,2.4c-3.6,1.3-7.4,1.8-11.2,1.8c-12.2,0-24.5-5.6-31.6-8.7c-9.8-4.2-56.2-8.5-56.2-12.7
			c0,0-1.4-14.4,14.7-17.4s54.2-20.9,54.2-20.9l-6.7-32.3L125,89.8L117.8,55c-0.5-2.4,1.3-4.6,3.7-4.6H135.3 M175.8,160.6
			c2.7,0,5.5-1.3,8.2-4.5l38.9-46.8c0-7.2-11.6-13.2-24.2-13.2h-50.8l8.3,40l0,0C158.5,146.7,167,160.6,175.8,160.6 M137.2,192.5
			c6.3,0,11.6-3.4,9.7-10.3l-5.9-22.5c-22.5,9.3-55.1,17.8-60.2,19.1s-5.5,8.5,0.8,9.3c0,0,46.2,3.4,53.4,4.2
			C135.7,192.5,136.5,192.5,137.2,192.5 M135.3,48.7h-13.8c-1.7,0-3.2,0.7-4.3,2c-1.1,1.3-1.5,3-1.1,4.6l7.2,34.8l6.3,30.3l6.4,31
			c-6.6,3.1-38.5,17.6-52.6,20.2c-13.9,2.6-16.6,13.6-16.1,19.2c0.1,3.3,6.4,4.7,30.4,8.7c11.2,1.8,22.7,3.7,26.8,5.5l0.8,0.4
			c7.2,3.2,19.4,8.4,31.5,8.4c4.2,0,8.2-0.7,11.8-1.9c1.6-0.6,3-1.6,4.2-2.9l51.8-62.3l0.1-0.1l0.1-0.2c0,0,5.2-7.5,11.4-13.7
			c6.6-6.6,10.4-8,12.4-8c1,0,2.4,0.3,3.6,2.7l28.7,61.7c0.9,2,2.9,3.3,5.1,3.3c3.1,0,5.7-2.5,5.7-5.7c0-0.6-0.1-1.1-0.3-1.7
			l-29-94.9l-0.4-1.2h-1.3H148.1L140.7,53C140.2,50.5,137.9,48.7,135.3,48.7L135.3,48.7z M150,97.8h48.7c11.4,0,21.8,5.1,22.5,10.9
			L182.7,155c-2.2,2.6-4.5,3.9-6.9,3.9c-3.5,0-7.3-2.7-10.9-7.6c-3.3-4.5-5.9-10.2-7-15.5v-0.1L150,97.8L150,97.8z M81.8,186.5
			c-1.9-0.3-3.1-1.3-3.2-2.8c-0.1-1.2,0.7-2.8,2.6-3.2c0.4-0.1,34.5-8.7,58.7-18.4l5.4,20.6c0.6,2.2,0.4,4-0.6,5.4
			c-1.3,1.8-4.1,2.8-7.4,2.8c-0.6,0-1.3,0-1.9-0.1C128.1,189.9,84.3,186.7,81.8,186.5L81.8,186.5z"/>
	</g>
	<g>
		<circle class="st1" cx="73.5" cy="187.3" r="3"/>
	</g>
	<g>
		<circle class="st1" cx="286" cy="186" r="3"/>
	</g>
</g>
<g id="eBikeFrame_00000065057586240151479720000016445949659876729772_">
	<g>
		<g>
			<path class="st10" d="M1612,166.6c-2.8-2.8-3.2-7.2-0.8-10.5l26.5-36.2c1.1-1.5,2.7-2.6,4.4-3l7.1-1.9c0.4-0.1,0.8-0.2,1.2-0.2
				c0.3,0,0.6-0.1,0.9-0.1c1.7,0,3.3,0.5,4.6,1.5l5.1,3.6l-40.1,55.6L1612,166.6z"/>
			<path class="st1" d="M1651.2,115.4c1.5,0,3,0.5,4.3,1.4l4.5,3.2l-39.3,54.4l-8.3-8.2c-2.6-2.6-2.9-6.7-0.8-9.6l25.5-34.9l1-1.3
				c1-1.4,2.4-2.3,4.1-2.8l7.1-1.9c0.4-0.1,0.7-0.2,1.1-0.2C1650.7,115.4,1650.9,115.4,1651.2,115.4 M1651.2,114.1
				c-0.3,0-0.7,0-1,0.1c-0.4,0-0.8,0.1-1.3,0.2l-7.1,1.9c-1.9,0.5-3.6,1.7-4.8,3.3l-1,1.3l-25.5,34.9c-2.6,3.5-2.2,8.2,0.9,11.3
				l8.3,8.2l1.1,1.1l0.9-1.2l39.3-54.4l0.8-1.1l-1.1-0.8l-4.5-3.2C1654.8,114.6,1653,114.1,1651.2,114.1L1651.2,114.1z"/>
		</g>
		<polygon class="st11" points="1636.8,125.9 1635.7,127.4 1634,126 1635.3,124.3 		"/>
		<polygon class="st11" points="1634.6,129.8 1634.2,130.2 1633.9,129.9 1632.1,128.6 1632.6,127.9 1634.2,129.4 		"/>
		<path class="st11" d="M1652.7,121.6l-12.5,4.8l-2.9-4.9l1-1.3c1-1.4,2.4-2.3,4.1-2.8l7.1-1.9c0.4-0.1,0.7-0.2,1.1-0.2
			L1652.7,121.6z"/>
		<path class="st12" d="M1621.5,177l-8.3-8.2c-2.6-2.6-2.9-6.7-0.8-9.6l26.5-36.2c1-1.4,2.4-2.3,4.1-2.8l7.1-1.9
			c2.1-0.6,4.4-0.2,6.2,1.1l4.5,3.2L1621.5,177z"/>
		<path class="st13" d="M1638.4,117.3"/>
		<path class="st13" d="M1640.1,120.8"/>
		<g>
			<path class="st10" d="M1612,166.6c-2.8-2.8-3.2-7.2-0.8-10.5l26.5-36.2c1.1-1.5,2.7-2.6,4.4-3l7.1-1.9c0.4-0.1,0.8-0.2,1.2-0.2
				c0.3,0,0.6-0.1,0.9-0.1c1.7,0,3.3,0.5,4.6,1.5l5.1,3.6l-40.1,55.6L1612,166.6z"/>
			<path class="st1" d="M1651.2,115.4c1.5,0,3,0.5,4.3,1.4l4.5,3.2l-39.3,54.4l-8.3-8.2c-2.6-2.6-2.9-6.7-0.8-9.6l25.5-34.9l1-1.3
				c1-1.4,2.4-2.3,4.1-2.8l7.1-1.9c0.4-0.1,0.7-0.2,1.1-0.2C1650.7,115.4,1650.9,115.4,1651.2,115.4 M1651.2,114.1
				c-0.3,0-0.7,0-1,0.1c-0.4,0-0.8,0.1-1.3,0.2l-7.1,1.9c-1.9,0.5-3.6,1.7-4.8,3.3l-1,1.3l-25.5,34.9c-2.6,3.5-2.2,8.2,0.9,11.3
				l8.3,8.2l1.1,1.1l0.9-1.2l39.3-54.4l0.8-1.1l-1.1-0.8l-4.5-3.2C1654.8,114.6,1653,114.1,1651.2,114.1L1651.2,114.1z"/>
		</g>
		<polygon class="st11" points="1636.8,125.9 1635.7,127.4 1634,126 1635.3,124.3 		"/>
		<polygon class="st11" points="1634.6,129.8 1634.2,130.2 1633.9,129.9 1632.1,128.6 1632.6,127.9 1634.2,129.4 		"/>
		<path class="st11" d="M1652.7,121.6l-12.5,4.8l-2.9-4.9l1-1.3c1-1.4,2.4-2.3,4.1-2.8l7.1-1.9c0.4-0.1,0.7-0.2,1.1-0.2
			L1652.7,121.6z"/>
		<path class="st12" d="M1621.5,177l-8.3-8.2c-2.6-2.6-2.9-6.7-0.8-9.6l26.5-36.2c1-1.4,2.4-2.3,4.1-2.8l7.1-1.9
			c2.1-0.6,4.4-0.2,6.2,1.1l4.5,3.2L1621.5,177z"/>
		<path class="st13" d="M1638.4,117.3"/>
		<path class="st13" d="M1640.1,120.8"/>
		<g>
			<path class="st6" d="M1621.8,167.3l-7.5-5.2l2.9-4.1l0.8,0.6l-1.7,2.5l2.5,1.7l1.2-1.7l0.8,0.6l-1.2,1.7l2.5,1.7l1.7-2.5l0.8,0.6
				L1621.8,167.3z"/>
			<path class="st6" d="M1621.9,160l-0.8-0.6l2.9-4.1l0.8,0.6L1621.9,160z"/>
			<path class="st6" d="M1629,156.9l-7.5-5.2l2.3-3.3c0.3-0.5,0.7-0.7,1.3-0.8c0.6-0.1,1.1,0,1.5,0.3l0.5,0.3
				c0.4,0.3,0.6,0.6,0.8,1.1c0.2,0.5,0,1-0.4,1.6l0.6-0.8c0.2-0.2,0.4-0.4,0.7-0.4c0.3,0,0.5,0,0.8,0.2l2.9,2l-1.2,1.7l-2.5-1.7
				c-0.2-0.2-0.5-0.2-0.8-0.2c-0.3,0.1-0.5,0.2-0.7,0.4l-0.6,0.8l3.3,2.3L1629,156.9z M1626,152.3l0.6-0.8c0.2-0.2,0.2-0.5,0.2-0.8
				c-0.1-0.3-0.2-0.5-0.4-0.7l-0.8-0.6c-0.2-0.2-0.5-0.2-0.8-0.2c-0.3,0.1-0.5,0.2-0.6,0.4l-0.6,0.8L1626,152.3z"/>
			<path class="st6" d="M1633.9,149.8l-5.8-4l-0.6,0.8l-0.8-0.6l0.3-2.2l0.6-0.8l7.5,5.2L1633.9,149.8z"/>
			<path class="st6" d="M1636.4,146.2l-7.5-5.2l2.3-3.3c0.3-0.5,0.7-0.7,1.3-0.8c0.6-0.1,1.1,0,1.5,0.3l4.1,2.9
				c0.4,0.3,0.7,0.7,0.8,1.3c0.1,0.6,0,1.1-0.3,1.5L1636.4,146.2z M1636.7,144l0.6-0.8c0.2-0.2,0.2-0.5,0.2-0.8
				c-0.1-0.3-0.2-0.5-0.4-0.6l-4.1-2.9c-0.2-0.2-0.5-0.2-0.8-0.2c-0.3,0.1-0.5,0.2-0.6,0.4l-0.6,0.8L1636.7,144z"/>
			<path class="st6" d="M1641,139.6l-7.5-5.2l2.3-3.3c0.3-0.5,0.7-0.7,1.3-0.8c0.6-0.1,1.1,0,1.5,0.3l0.5,0.3
				c0.4,0.3,0.6,0.6,0.8,1.1c0.2,0.5,0,1-0.4,1.6l0.6-0.8c0.2-0.2,0.4-0.4,0.7-0.4c0.3,0,0.5,0,0.8,0.2l2.9,2l-1.2,1.7l-2.5-1.7
				c-0.2-0.2-0.5-0.2-0.8-0.2c-0.3,0.1-0.5,0.2-0.7,0.4l-0.6,0.8l3.3,2.3L1641,139.6z M1638,135.1l0.6-0.8c0.2-0.2,0.2-0.5,0.2-0.8
				c-0.1-0.3-0.2-0.5-0.4-0.7l-0.8-0.6c-0.2-0.2-0.5-0.2-0.8-0.2c-0.3,0.1-0.5,0.2-0.6,0.4l-0.6,0.8L1638,135.1z"/>
		</g>
		<path class="st6" d="M1608.9,167.3"/>
		<g class="st14">
			<polygon class="st10" points="1624.6,163.2 1621.8,167.3 1614.3,162.1 1615.3,160.7 1617.6,158.3 1618,158.5 1616.3,161 
				1618.8,162.8 1619.9,161.1 1620.7,161.7 1619.6,163.3 1622.1,165.1 1623.8,162.6 			"/>
		</g>
		<g class="st14">
			<polygon class="st10" points="1624.8,155.8 1621.9,160 1621.1,159.4 1624,155.3 			"/>
		</g>
		<g class="st14">
			<path class="st10" d="M1644.5,134.6l-1.2,1.7l-2.5-1.7c0,0-0.1,0-0.1-0.1l1.4-1.5L1644.5,134.6z"/>
		</g>
		<g class="st14">
			<polygon class="st10" points="1642.2,137.9 1641,139.6 1637.9,137.4 1639.3,136 			"/>
		</g>
		<g class="st14">
			<path class="st10" d="M1638.7,142.9l-2.3,3.3l-4.2-2.9l1.4-1.5l3.1,2.2l0.6-0.8c0.2-0.2,0.2-0.5,0.2-0.8
				c-0.1-0.3-0.2-0.5-0.4-0.6l-2-1.4l1.4-1.5l1.7,1.2c0.4,0.3,0.7,0.7,0.8,1.3C1639.1,141.9,1639,142.4,1638.7,142.9z"/>
		</g>
		<g class="st14">
			<polygon class="st10" points="1635.1,148.1 1633.9,149.8 1629.1,146.4 1630.5,145 			"/>
		</g>
		<g class="st14">
			<path class="st10" d="M1627.4,152.1l-0.6,0.8l3.3,2.3l-1.1,1.7l-6-4.2l1.4-1.5l1.6,1.1l0.6-0.8c0.2-0.2,0.2-0.5,0.2-0.8
				c-0.1-0.3-0.2-0.5-0.4-0.7l-0.4-0.3l1.4-1.5c0.3,0.2,0.5,0.6,0.6,1c0.2,0.5,0,1-0.4,1.6l0.6-0.8c0.2-0.2,0.4-0.4,0.7-0.4
				c0.3,0,0.5,0,0.8,0.2l2.9,2l-1.1,1.7l-2.5-1.7c-0.2-0.2-0.5-0.2-0.8-0.2C1627.8,151.7,1627.6,151.9,1627.4,152.1z"/>
		</g>
	</g>
	<g>
		<path class="st15" d="M1610.3,202.2c-0.2,0-0.4,0-0.6,0l-94.2-14.3c-1.4-0.2-2.6-1.1-3.1-2.4c-0.3-0.7-0.4-1.4-0.3-2.2
			c0.1-0.6,0.3-1.2,0.6-1.8c0.6-0.8,13.8-20.9,31.5-35.1c15.8-12.6,33.3-23.3,38-26.1l-8.7-28.2c-0.2-0.5,0-1.1,0.3-1.6
			c0.9-1.3,3.5-2.1,5.2-2.1s2.2,0.8,2.3,1.3l9.5,30.8c1.8,0.3,3.8,0.5,5.8,0.5c4.2,0,8.4-0.7,12.4-2c5-1.7,15-9.6,25.5-17.9
			c17.6-14,37.6-29.8,50.5-29.8c1.7,0,3.2,1.1,3.8,2.6c4,10.6,34.4,84.2,43.7,106.5c0.4,1,0.4,2.1,0,3.1s-1.2,1.8-2.2,2.2
			c-0.5,0.2-1,0.3-1.6,0.3c-1.7,0-3.2-1-3.8-2.5c-10-24.1-28-67.7-37.7-91.6l-73.6,108.3c-0.1,0.1-0.1,0.2-0.2,0.2
			c0,0.1-0.1,0.1-0.2,0.2l0,0l0,0l-0.2,0.2v0.1h-0.1c-0.1,0.1-0.2,0.2-0.2,0.2l-0.2,0.1c-0.1,0.1-0.2,0.1-0.3,0.2
			c-0.1,0.1-0.2,0.1-0.4,0.2c-0.1,0.1-0.3,0.1-0.4,0.2l-0.2,0.1c-0.1,0-0.2,0-0.2,0.1C1610.9,202.2,1610.6,202.2,1610.3,202.2z
			 M1604.5,193.1l-19.8-64.6c-5.7,3.5-21.3,13.3-35.3,24.4c-11.2,9-20.8,20.9-26,27.9L1604.5,193.1z M1611.7,188.7l71.9-105.8
			c-0.5-1.1-0.9-2.2-1.2-3.1c-10.6,2.3-28.4,16.3-42.7,27.7c-11.7,9.2-21.7,17.2-28.1,19.3c-4.9,1.6-9.9,2.4-14.8,2.4
			c-1.1,0-2.2,0-3.3-0.1L1611.7,188.7z"/>
		<path class="st1" d="M1685.1,72.2c1.3,0,2.6,0.8,3,2.1c4.2,11.1,37.1,90.7,43.7,106.6c0.7,1.7-0.1,3.6-1.8,4.2
			c-0.4,0.2-0.8,0.2-1.2,0.2c-1.3,0-2.5-0.8-3-2c-7.3-17.7-28-67.7-38.3-93l0,0L1614,198.5l-0.9,1.4v0.1c0,0.1-0.1,0.1-0.1,0.2
			c0,0.1-0.1,0.1-0.1,0.2c-0.1,0.1-0.1,0.2-0.2,0.2l0,0c-0.1,0.1-0.1,0.1-0.2,0.2l0,0c0,0-0.1,0-0.1,0.1c-0.1,0.1-0.2,0.1-0.2,0.2
			c-0.1,0.1-0.2,0.1-0.3,0.2c-0.1,0.1-0.2,0.1-0.3,0.1c-0.1,0-0.1,0-0.2,0.1c-0.1,0-0.1,0-0.2,0c-0.2,0.1-0.5,0.1-0.7,0.1
			s-0.3,0-0.5,0l-2.8-0.4l-91.4-13.8c-1.1-0.2-2-0.9-2.5-1.9c-0.2-0.5-0.3-1.1-0.3-1.7c0.1-0.5,0.2-1,0.5-1.4
			c0.6-0.8,13.9-20.9,31.4-34.9c16.8-13.4,35.5-24.7,38.5-26.4l-8.9-28.9c-0.4-1.2,2.8-2.6,4.7-2.6c0.8,0,1.3,0.2,1.5,0.7l9.6,31.3
			c1.8,0.3,4,0.6,6.5,0.6c3.7,0,8.1-0.5,12.7-2.1c5.1-1.7,15.2-9.7,25.8-18.1C1652.6,87.9,1672.5,72.2,1685.1,72.2 M1596.8,128.4
			c-1.6,0-3.1-0.1-4.5-0.2l19.2,62.5L1684.6,83c-0.7-1.6-1.2-3-1.7-4.2c-10.8,1.8-29,16.3-43.8,28c-11.6,9.2-21.5,17.1-27.8,19.1
			C1605.9,127.8,1600.9,128.4,1596.8,128.4 M1605.7,194.2l-20.5-67c-5.2,3.1-21.6,13.3-36.4,25.1c-12,9.6-22.2,22.6-27,29.2
			L1605.7,194.2 M1685.1,70.4c-13.2,0-33.3,15.9-51.1,30c-10,7.9-20.4,16.2-25.3,17.8c-3.9,1.3-8,2-12.1,2c-1.7,0-3.5-0.1-5.1-0.4
			l-9.3-30.3c-0.2-0.6-0.8-1.9-3.1-1.9c-2,0-4.8,1-5.9,2.5c-0.5,0.7-0.7,1.5-0.5,2.3l8.5,27.6c-5.4,3.2-22.2,13.6-37.5,25.8
			c-17.8,14.2-31.2,34.4-31.7,35.3c-0.4,0.6-0.7,1.4-0.8,2.2c-0.1,0.9,0,1.8,0.4,2.6c0.7,1.6,2.1,2.6,3.8,2.9l91.4,13.8l2.8,0.4
			c0.3,0,0.5,0.1,0.7,0.1c0.3,0,0.7,0,1-0.1c0.1,0,0.2,0,0.2-0.1l0,0h0.1l0.2-0.1c0.2,0,0.4-0.1,0.5-0.2c0.2-0.1,0.3-0.1,0.4-0.2
			c0.1-0.1,0.2-0.1,0.3-0.2l0.1-0.1l0.1-0.1l0,0l0.1-0.1l0,0l0.1-0.1l0.5-0.5v-0.1c0,0,0,0,0-0.1c0,0,0.1-0.1,0.1-0.2l0,0l0.9-1.4
			l71.7-105.6c9.8,24.1,27.3,66.4,37.1,90.1c0.8,1.9,2.6,3.1,4.6,3.1c0.7,0,1.3-0.1,1.9-0.4c1.2-0.5,2.2-1.5,2.7-2.7s0.5-2.6,0-3.8
			c-11.8-28.6-39.8-96.3-43.7-106.5C1689,71.7,1687.1,70.4,1685.1,70.4L1685.1,70.4z M1596.8,130.1c5.1,0,10.2-0.8,15.1-2.5
			c6.5-2.2,16.6-10.2,28.3-19.4l0,0c13.9-11,31.2-24.7,41.6-27.4c0.2,0.6,0.5,1.3,0.8,2l-70.6,104l-17.4-56.7
			C1595.4,130.1,1596.1,130.1,1596.8,130.1L1596.8,130.1z M1524.9,180.2c5.3-7.1,14.5-18.1,25-26.6c13.2-10.6,27.9-19.9,34.3-23.8
			l19.1,62.2L1524.9,180.2L1524.9,180.2z"/>
	</g>
</g>
<g id="streetFrame">
	<g>
		<path class="st7" d="M519.2,205.2c-0.1,0-0.2,0-0.3,0s-0.2,0-0.2,0l-86.8-12.8c-1.6-0.2-3-1.3-3.7-2.8c-0.6-1.5-0.5-3.3,0.5-4.6
			l61.6-86.4l-4.8-20.2c-0.1-0.4-0.1-1,0.4-1.7c1.1-1.3,3.8-2.2,5.8-2.2c2.3,0,2.8,1,3,1.7l4.3,18.2l101.7-11
			c-1.2-3.7-2.3-7.3-3.4-10.7l-0.1-0.2c-0.2-0.6-0.1-1.2,0.4-1.8c1.1-1.5,4.1-2.5,6.1-2.5c1.9,0,2.5,0.9,2.7,1.5
			c0.3,1,31.3,101,47.4,119.2c0.8,1,1.3,2.2,1.2,3.4c-0.1,1.3-0.7,2.4-1.6,3.3c-0.9,0.8-2,1.2-3.1,1.2c-1.4,0-2.7-0.6-3.6-1.6
			c-10.7-12.2-26.4-54.1-37.9-87.7l-86,96.2l-0.1,0.1c-0.1,0.1-0.2,0.2-0.3,0.3s-0.2,0.2-0.4,0.3c-0.1,0.1-0.3,0.2-0.4,0.3
			c-0.1,0-0.2,0.1-0.3,0.1s-0.1,0.1-0.2,0.1c-0.1,0-0.2,0.1-0.3,0.1s-0.2,0.1-0.3,0.1s-0.2,0.1-0.3,0.1c-0.2,0-0.5,0.1-0.8,0.1
			C519.5,205.2,519.4,205.2,519.2,205.2L519.2,205.2z M513,194.7l-19.8-83.9l-52.3,73.3L513,194.7z M521.7,190.5L605.2,97
			c-0.5-1.4-0.9-2.8-1.4-4.1l-0.1-0.4l-102.5,11.1L521.7,190.5z"/>
		<path class="st1" d="M603.7,69.1c0.9,0,1.5,0.2,1.7,0.8c0.3,1,31.4,101.2,47.6,119.6c1.4,1.6,1.2,3.9-0.3,5.3
			c-0.7,0.6-1.6,0.9-2.5,0.9c-1,0-2.1-0.4-2.8-1.3c-11-12.5-27.5-57.2-38.2-89L522,202.9l0,0c-0.1,0.1-0.1,0.2-0.2,0.2l0,0
			c-0.1,0.1-0.2,0.2-0.3,0.2c-0.1,0.1-0.2,0.1-0.3,0.2c-0.1,0-0.1,0.1-0.2,0.1c0,0-0.1,0-0.1,0.1c-0.1,0-0.2,0.1-0.2,0.1
			c-0.1,0-0.2,0.1-0.2,0.1c-0.1,0-0.2,0-0.2,0.1c-0.2,0-0.4,0.1-0.6,0.1c-0.1,0-0.2,0-0.3,0l0,0c-0.1,0-0.2,0-0.3,0s-0.1,0-0.2,0
			c0,0,0,0-0.1,0l-86.7-12.7c-1.3-0.2-2.4-1-2.9-2.2s-0.4-2.6,0.4-3.6l61.9-86.8l-4.9-20.6c-0.3-1.4,3-2.6,5.3-2.6
			c1,0,1.9,0.3,2,0.9l4.5,19.1l103.8-11.3c-2.2-6.8-3.6-11.2-3.8-12.1C597.8,70.7,601.4,69.1,603.7,69.1 M521.2,192.6l85.1-95.3
			c-0.7-2-1.3-4-1.9-5.8L500,102.8L521.2,192.6 M514.3,195.9l-20.7-87.5l-54.5,76.4L514.3,195.9 M603.7,67.1c-2.3,0-5.6,1.2-6.9,2.9
			c-0.6,0.8-0.8,1.8-0.5,2.7l0.1,0.2c0.9,3,1.9,6.2,3,9.6l-99.6,10.8L495.7,76c-0.2-0.7-0.9-2.4-4-2.4c-1.9,0-5.2,0.8-6.6,2.5
			c-0.6,0.8-0.8,1.7-0.6,2.5l4.7,19.7l-61.3,86c-1.2,1.6-1.4,3.8-0.6,5.6s2.5,3.1,4.5,3.4l86.7,12.7c0.1,0,0.1,0,0.2,0
			c0.1,0,0.2,0,0.2,0c0.2,0,0.3,0,0.4,0c0.2,0,0.3,0,0.5,0c0.3,0,0.6-0.1,0.9-0.1c0.1,0,0.3-0.1,0.4-0.1c0.1,0,0.2-0.1,0.4-0.1
			c0.1,0,0.2-0.1,0.3-0.2c0.1,0,0.1-0.1,0.2-0.1c0.1-0.1,0.2-0.1,0.4-0.2c0.1-0.1,0.3-0.2,0.4-0.3c0.2-0.1,0.3-0.2,0.4-0.4l0,0l0,0
			c0.1-0.1,0.2-0.2,0.3-0.3l0,0l0,0l0,0l84.8-94.9c11.4,33.4,26.9,74.3,37.5,86.5c1.1,1.2,2.7,2,4.3,2c1.4,0,2.8-0.5,3.8-1.4
			c1.1-1,1.8-2.4,1.9-3.9c0.1-1.5-0.4-3-1.4-4.2c-6.5-7.4-16.6-30.1-29.4-65.7c-9.9-27.7-17.7-52.9-17.8-53.2
			C607.1,68.7,606.4,67.1,603.7,67.1L603.7,67.1z M502.4,104.5L603,93.6c0.3,1,0.7,2.1,1,3.2l-81.8,91.6L502.4,104.5L502.4,104.5z
			 M442.6,183.4l50-70.2l19,80.3L442.6,183.4L442.6,183.4z"/>
	</g>
	<circle cx="433.8" cy="186.5" r="3"/>
	<circle cx="645.8" cy="186.5" r="3"/>
</g>
</svg>
