<?xml version="1.0" encoding="utf-8"?>
<!-- Generator: Adobe Illustrator 26.0.2, SVG Export Plug-In . SVG Version: 6.00 Build 0)  -->
<svg version="1.1" id="bikeFrames" xmlns="http://www.w3.org/2000/svg" xmlns:xlink="http://www.w3.org/1999/xlink" x="0px" y="0px"
	 width="2050px" height="183px" viewBox="0 0 2050 183" style="enable-background:new 0 0 2050 183;" xml:space="preserve">
<style type="text/css">
	.st0{fill:#27579A;}
	.st1{fill:#142C4D;}
	.st2{fill:#AEDCDD;}
	.st3{opacity:0.2;enable-background:new    ;}
	.st4{fill:#FAFA4F;}
	.st5{opacity:0.6;}
	.st6{fill:#FFFFFF;}
	.st7{fill:#FAAA4F;}
	.st8{opacity:0.8;}
	.st9{opacity:0.4;}
	.st10{fill:#4F4646;}
	.st11{fill:#9E9298;}
	.st12{fill:#231E1E;stroke:#142C4D;stroke-width:1.4259;stroke-miterlimit:10;}
	.st13{fill:none;stroke:#FF0066;stroke-width:0.9506;stroke-miterlimit:10;}
	.st14{opacity:0.28;}
	.st15{fill:#EE0000;}
</style>
<g id="loRiderFrame">
	<g>
		<path class="st0" d="M898.7,129.7c-1.9,0-3.5-1.1-4.3-2.8c-0.9-2-0.3-4.2,1.3-5.6l73.8-60.8l-4.6-13.4c-0.2-0.5-0.1-1.2,0.3-1.9
			c1.1-1.5,4.1-2.6,6-2.6c1.8,0,2.3,0.9,2.5,1.4l4.2,12l122.2-43.8l-2-4.8c-0.1-0.3-0.3-1.1,0.2-1.9c1.1-1.7,4.3-2.9,6.2-2.9
			c1.5,0,2.1,0.8,2.3,1.2l48.3,116.7c1,2.4-0.1,5.2-2.5,6.2c-0.6,0.2-1.2,0.3-1.8,0.3c-1.9,0-3.6-1.1-4.4-2.9l-36.6-88.6l-115.2,79
			c-0.5,0.4-1.2,0.7-2,0.8l-93.2,14.4C899.2,129.7,899,129.7,898.7,129.7z M914.9,117.7l70.5-10.9l-12.7-36.7L914.9,117.7z
			 M994.2,103.3l111.9-76.7l-2.3-5.7L981,64.9L994.2,103.3z"/>
		<path class="st1" d="M1104.5,3.5c0.7,0,1.2,0.2,1.3,0.7l48.3,116.7c0.8,1.9-0.1,4.1-2,4.8c-0.4,0.2-1,0.3-1.4,0.3
			c-1.4,0-2.9-0.9-3.4-2.3L1110.2,34l-116.1,79.7c-0.4,0.3-1,0.6-1.5,0.6l-93.2,14.4c-0.2,0-0.3,0-0.5,0c-1.4,0-2.8-0.9-3.4-2.2
			c-0.7-1.5-0.2-3.3,1-4.4l74.4-61.3l-4.8-14.1c-0.4-1.4,3.2-3.1,5.5-3.1c0.8,0,1.4,0.2,1.5,0.8l4.5,13l124-44.5l-2.4-5.8
			C1098.5,5.6,1102.3,3.5,1104.5,3.5 M993.7,104.9L1107.3,27l-3-7.3L979.8,64.4L993.7,104.9 M911.5,119.2l75.2-11.7l-13.4-39.3
			L911.5,119.2 M1104.5,1.5c-2.2,0-5.7,1.4-6.9,3.3c-0.9,1.2-0.5,2.3-0.3,2.9l1.6,3.8L978.7,54.7l-3.8-11c-0.2-0.7-1-2.1-3.4-2.1
			c-2.2,0-5.6,1.2-6.8,3.1c-0.7,0.9-0.8,1.9-0.4,2.8l4.4,12.8l-73.3,60.4c-2,1.7-2.6,4.4-1.5,6.7c0.9,2.1,3,3.4,5.2,3.4
			c0.3,0,0.6,0,0.9-0.1l93.2-14.4c0.9-0.1,1.6-0.4,2.3-0.9l114-78.2l36.2,87.4c0.9,2.1,3,3.5,5.3,3.5c0.8,0,1.5-0.1,2.2-0.4
			c2.9-1.2,4.3-4.5,3.1-7.5L1107.7,3.4C1107.5,2.9,1106.7,1.5,1104.5,1.5L1104.5,1.5z M982.2,65.5l120.9-43.3l1.7,4.1l-110.1,75.4
			L982.2,65.5L982.2,65.5z M918.4,116.1l54-44.6l11.8,34.3L918.4,116.1L918.4,116.1z"/>
	</g>
	<g>
		<circle cx="900.7" cy="123.5" r="3"/>
	</g>
	<g>
		<circle cx="1150.5" cy="120.5" r="3"/>
	</g>
</g>
<g id="wagonFrame">
	<g id="wagonLight">
		<g>
			<g>
				<path class="st2" d="M1552.8,19.8c-1.9,0-3.4-1.5-3.4-3.4s1.5-3.5,3.4-3.5l8.6-0.1c2,0,3.5,1.5,3.5,3.4c0,0.3,0,0.8-0.1,1.1
					c-0.4,1.4-1.8,2.4-3.3,2.4L1552.8,19.8z"/>
				<path class="st1" d="M1561.3,13.8c1.3,0,2.4,1.1,2.4,2.4c0,0.2,0,0.5-0.1,0.8c-0.3,1-1.2,1.8-2.3,1.8l-8.6,0.1l0,0
					c-1.3,0-2.4-1.1-2.4-2.4s1.1-2.5,2.4-2.5L1561.3,13.8L1561.3,13.8 M1561.3,11.8L1561.3,11.8L1561.3,11.8l-8.6,0.1
					c-2.4,0-4.4,2.1-4.4,4.5s2,4.4,4.4,4.4l8.6-0.1c2,0,3.6-1.3,4.2-3.1c0.1-0.4,0.2-0.9,0.2-1.4
					C1565.8,13.8,1563.7,11.8,1561.3,11.8L1561.3,11.8z"/>
			</g>
		</g>
		<path class="st3" d="M1563.8,16.3c0,0.2,0,0.6-0.1,0.8c-0.3,1-1.2,1.8-2.3,1.8l-8.6,0.1c-1.3,0-2.5-1.1-2.5-2.4c0-0.1,0-0.3,0-0.4
			L1563.8,16.3C1563.8,16.1,1563.8,16.2,1563.8,16.3z"/>
		<g>
			<path class="st4" d="M1568.7,24.9c-2.8,0-5.1-2.3-5.1-5.1v-6.7c0-2.8,2.3-5.1,5.1-5.1h1.2c2.8,0,5.1,2.3,5.1,5.1v6.7
				c0,2.8-2.3,5.1-5.1,5.1H1568.7z"/>
			<path class="st1" d="M1570,9c2.2,0,4.1,1.9,4.1,4.1v6.7c0,2.2-1.9,4.1-4.1,4.1h-1.2c-2.2,0-4.1-1.9-4.1-4.1v-6.7
				c0-2.2,1.9-4.1,4.1-4.1H1570 M1570,7h-1.2c-3.3,0-6.1,2.8-6.1,6v6.7c0,3.3,2.8,6.1,6.1,6.1h1.2c3.3,0,6.1-2.8,6.1-6.1V13
				C1576,9.8,1573.3,7,1570,7L1570,7z"/>
		</g>
		<path class="st3" d="M1574.1,18.6v2.3c0,1.6-1.3,3-3,3h-3.5c-1.7,0-3-1.3-3-3V12c0-0.4,0.1-0.8,0.2-1.2v6.6c0,1.6,1.3,3,3,3h3.5
			C1572.5,20.5,1573.6,19.7,1574.1,18.6z"/>
		<g>
			<path class="st2" d="M1564.9,29.4c-2.2,0-4-1.8-4-4V7.6c0-2.2,1.8-4,4-4s4,1.8,4,4v17.8C1568.9,27.5,1567.1,29.4,1564.9,29.4z"/>
			<path class="st1" d="M1564.9,4.6c1.6,0,3,1.3,3,3v17.8c0,1.7-1.3,3-3,3s-3-1.3-3-3V7.6C1562,5.9,1563.3,4.6,1564.9,4.6
				 M1564.9,2.6c-2.8,0-5,2.2-5,4.9v17.8c0,2.8,2.2,5,5,5s4.9-2.2,4.9-5V7.6C1569.9,4.8,1567.7,2.6,1564.9,2.6L1564.9,2.6z"/>
		</g>
		<path class="st3" d="M1567.9,15.5v9.9c0,1.7-1.3,3-3,3s-3-1.3-3-3v-9.9c0,1.7,1.3,2,3,2S1567.9,17.1,1567.9,15.5z"/>
		<g class="st5">
			<path class="st6" d="M1562,10.6v-3c0-1.7,1.3-3,3-3c1.6,0,3,1.3,3,3v3c0-1.7-1.3-3-3-3S1562,8.9,1562,10.6z"/>
		</g>
		<circle class="st6" cx="1571.9" cy="11.6" r="2"/>
	</g>
	<g id="wagonBikeframe">
		<g>
			<path class="st7" d="M1301.9,126.7c-2,0-3.7-1.2-4.4-3.1l-25.2-70.7c-0.6-1.4-0.3-3.1,0.5-4.3c0.9-1.2,2.3-2,3.8-2h109.3
				c1.4,0,2.8,0.7,3.7,1.8c6.6,8.5,25.5,14.1,54.7,16.4c1.7,0.1,3.4,0.2,5.1,0.3l-16.5-50.4c-0.8-2.4,0.5-5.2,3-5.9
				c0.4-0.1,1-0.2,1.4-0.2c2.1,0,3.9,1.3,4.5,3.2l17.6,53.8c4.2,0.1,8.5,0.2,12.8,0.2c8,0,13.8-0.2,15.4-0.3
				c4.5-3.9,9.5-8,14.6-12.6c21.3-19.1,39.8-38.6,40.6-39.4c0.2-0.2,0.4-0.3,0.5-0.5l-1.5-3.7c-0.4-1.2-0.4-2.4,0-3.6
				s1.4-2.1,2.5-2.5c0.5-0.2,1.2-0.3,1.8-0.3c1.9,0,3.6,1.1,4.4,3l47,114.7c0.4,1.2,0.4,2.4,0,3.6c-0.4,1.2-1.4,2.1-2.5,2.5
				c-0.6,0.2-1.2,0.3-1.8,0.3c-1.9,0-3.6-1.1-4.4-3l-29.7-72.4l-83.2,74c-0.5,0.5-1.3,0.9-2.1,1.1h-0.1c-0.1,0-0.2,0-0.2,0
				c-0.1,0-0.2,0-0.3,0c0,0-0.1,0-0.2,0H1301.9z M1321.1,117.4L1303.3,56h-20l21.9,61.4L1321.1,117.4L1321.1,117.4z M1337.1,117.4
				c0.3-0.6,0.8-1.1,1.3-1.5c5.2-4,11.3-7.7,18.3-11.1l-14.2-48.6H1313l17.8,61.4h6.3L1337.1,117.4L1337.1,117.4z M1408.1,100.6
				c-3.9,0-8.2,0.4-12.9,1.2c-14.1,2.4-29.9,8.4-42.2,15.6h113.3l-6.8-20.9c-5.6,2.8-10.4,4.2-14.3,4.2h-37.1V100.6z M1475.1,113.9
				l80.3-71.5l-8.2-20c-5.7,5.9-21.2,21.7-38.7,37.4c-16.4,14.7-29.7,25.3-40.6,32L1475.1,113.9z M1365.4,100.8
				c7.6-3.2,15.6-5.6,23.2-7.4L1377.7,56h-25.3L1365.4,100.8z M1397.8,91.9c3.6-0.4,7-0.7,10.2-0.7h37.1c1.9,0,5.4-0.7,11.3-3.7
				l-4.2-12.6c-3-0.1-5.9-0.3-8.9-0.6c-25.8-2-44.2-6.7-54.9-14L1397.8,91.9z M1464.8,82.5c3.2-2.1,6.7-4.5,10.5-7.4
				c-1.1,0-2.1,0-3.3,0c-3.2,0-6.5,0-9.6-0.1L1464.8,82.5z"/>
			<path class="st1" d="M1546.1,3.6c1.4,0,2.9,0.9,3.4,2.3l47,114.7c0.8,1.9-0.1,4.1-2,4.8c-0.4,0.2-0.9,0.3-1.4,0.3
				c-1.4,0-2.9-0.9-3.4-2.3l-30.1-73.6l-84.1,74.9c-0.4,0.4-1.1,0.7-1.7,0.9h-0.1h-0.1c-0.1,0-0.2,0-0.3,0c-0.1,0-0.1,0-0.2,0h-0.1
				h-171c-1.5,0-3-1-3.5-2.4l-25.2-70.7c-0.4-1.1-0.2-2.4,0.4-3.4c0.7-1,1.9-1.5,3.1-1.5h109.3c1.1,0,2.2,0.6,2.9,1.4
				c6.8,8.7,26,14.4,55.4,16.7c2.2,0.2,4.4,0.3,6.5,0.4L1434,14.3c-0.7-2,0.4-4.1,2.4-4.7c0.3-0.1,0.8-0.2,1.1-0.2
				c1.5,0,3,1,3.5,2.5l17.8,54.4c4.9,0.1,9.5,0.2,13.5,0.2c8.7,0,14.7-0.2,15.7-0.3c4.5-3.7,9.5-8,15-13
				c21.7-19.5,40.5-39.3,40.6-39.5c0.3-0.3,0.7-0.7,1.1-0.8l-1.9-4.5c-0.8-1.9,0.1-4.1,2-4.8C1545.1,3.7,1545.6,3.6,1546.1,3.6
				 M1474.6,115.5l81.8-72.9l0,0l-9-22.1c-4.6,4.8-21.1,21.8-39.7,38.5c-16.6,15-30.2,25.6-41.1,32.3L1474.6,115.5 M1364.7,102.1
				c8.2-3.4,16.8-6.2,25.1-7.9L1378.4,55H1351L1364.7,102.1 M1330.1,118.4h7.8c0.2-0.7,0.7-1.2,1.2-1.8c5.4-4.2,11.9-8,18.8-11.4
				L1343.3,55h-31.6L1330.1,118.4 M1304.4,118.4h17.9L1303.9,55h-22.1L1304.4,118.4 M1397.2,93c3.8-0.6,7.5-0.8,10.9-0.8h37.1
				c2.3,0,6.2-0.9,12.5-4.3l-4.6-14.1c-3.1-0.1-6.3-0.3-9.6-0.5c-27.7-2.1-46.8-7.4-56.8-15.5L1397.2,93 M1464.3,84.1
				c4-2.5,8.6-5.7,14-9.9c-1.9,0-4,0-6.3,0c-3.3,0-7,0-11-0.1L1464.3,84.1 M1349.5,118.4h118.1l-7.6-23.3
				c-5.9,3.1-10.9,4.5-14.8,4.5h-37.1c-4.1,0-8.5,0.4-13,1.2c0,0,0,0-0.1,0C1379.8,103.4,1362.5,110,1349.5,118.4 M1546.1,1.7
				c-0.8,0-1.4,0.1-2.2,0.4c-1.4,0.6-2.5,1.7-3.1,3.1s-0.6,3,0,4.4l1.3,3.1l-0.1,0.1c-0.2,0.2-19,20-40.5,39.4
				c-5.1,4.5-9.9,8.7-14.3,12.4c-2,0.1-7.5,0.3-15.1,0.3c-4.1,0-8.1-0.1-12-0.2l-17.4-53.1c-0.8-2.3-3-4-5.4-4
				c-0.5,0-1.2,0.1-1.8,0.3c-1.4,0.4-2.6,1.4-3.3,2.9c-0.7,1.3-0.8,2.9-0.3,4.3l16.1,49.1c-1.2-0.1-2.4-0.1-3.5-0.2
				c-28.5-2.2-47.6-7.8-54-15.9c-1.1-1.4-2.8-2.2-4.5-2.2h-109.3c-1.9,0-3.6,0.9-4.6,2.4c-1.1,1.5-1.3,3.4-0.7,5.2l25.2,70.7
				c0.8,2.3,3,3.7,5.4,3.7h171h0.1c0.1,0,0.2,0,0.4,0c0.1,0,0.2,0,0.3,0c0.1,0,0.2,0,0.2,0c0.1,0,0.1,0,0.2,0c1-0.2,1.8-0.7,2.5-1.3
				l82.1-73.1l29,71.1c0.9,2.2,3,3.5,5.3,3.5c0.8,0,1.4-0.1,2.2-0.4c1.4-0.5,2.5-1.6,3.1-3.1c0.6-1.4,0.6-3,0-4.4L1551.2,5.4
				C1550.5,3,1548.4,1.7,1546.1,1.7L1546.1,1.7z M1469,92.2c10.8-6.8,23.9-17.2,40-31.7c16.5-14.9,31.3-29.8,37.7-36.4l7.4,17.9
				l-78.6,70.1L1469,92.2L1469,92.2z M1353.6,57h23.3l10.3,35.8c-7,1.7-14.3,3.9-21.3,6.7L1353.6,57L1353.6,57z M1314.3,57h27.5
				l13.8,47.2c-6.7,3.3-12.7,7-17.7,10.9c-0.4,0.3-0.9,0.8-1.2,1.3h-5L1314.3,57L1314.3,57z M1284.7,57h17.8l17.3,59.4h-13.9
				L1284.7,57L1284.7,57z M1398.6,90.8l-8.2-28.4c11,6.6,28.8,10.8,53.1,12.6c2.6,0.2,5.4,0.3,8.2,0.6l3.6,11.2
				c-5.4,2.6-8.5,3.3-10.1,3.3h-37.1C1405.1,90.2,1401.9,90.3,1398.6,90.8L1398.6,90.8z M1465.4,81l-1.7-4.8c2.8,0,5.5,0.1,8.2,0.1
				c0.1,0,0.2,0,0.2,0C1469.9,77.9,1467.6,79.5,1465.4,81L1465.4,81z M1395.3,102.8L1395.3,102.8c4.6-0.8,8.9-1.2,12.8-1.2h37.1
				c3.8,0,8.4-1.2,13.8-3.7l6,18.6h-108.2C1368.5,110,1382.7,104.9,1395.3,102.8L1395.3,102.8z"/>
		</g>
	</g>
</g>
<g id="triFrame_00000069360486775067907790000014405921538337096594_">
	<g>
		<g>
			<path class="st1" d="M145,80.3c-2.3,0-4.6-0.5-6.6-1.5l-15.2-7.3c-0.7-0.3-1.2-0.7-1.8-1.1c-0.7-0.4-1.2-0.9-1.8-1.4
				c-0.9-0.9-1.6-1.9-2.2-3c-0.2-0.3-0.3-0.7-0.6-1.1l-5.2-11.4c-0.9-1.9-0.7-4.1,0.4-5.8c1.1-1.8,3.1-2.8,5.1-2.8h28.7l7.3,35.2
				h-8.3v0.2H145z"/>
			<path class="st1" d="M145.2,46l6.9,33.3h-7c-2.2,0-4.3-0.4-6.3-1.4l-12-5.7l-3.2-1.5c-0.6-0.3-1.1-0.7-1.7-1
				c-0.6-0.4-1.1-0.9-1.7-1.3c-0.8-0.8-1.5-1.8-2.1-2.8c-0.2-0.3-0.3-0.7-0.5-1l-1.2-2.6l-0.7-1.5l-1.1-2.9l-0.3-0.7l-1.8-3.7
				c-1.5-3.4,1-7.3,4.7-7.3L145.2,46 M146.6,44.1h-1.4h-28c-2.4,0-4.6,1.2-5.9,3.2s-1.4,4.5-0.4,6.7l1.8,3.7l0.3,0.7l1.2,2.8
				l0.7,1.5l1.2,2.6c0.2,0.4,0.4,0.8,0.5,1.2c0.7,1.1,1.4,2.2,2.4,3.1c0.6,0.5,1.2,1.1,1.9,1.5c0.6,0.4,1.2,0.8,1.9,1.1l3.2,1.5
				l11.9,5.7c2.2,1,4.6,1.7,7,1.7h7h2.3l-0.4-2.2l-6.9-33.3L146.6,44.1L146.6,44.1z"/>
		</g>
		<g class="st8">
			<path class="st2" d="M135.8,46l-15.5,22.3c-0.8-0.8-1.5-1.8-2.1-2.8l13.6-19.7h4V46z"/>
		</g>
		<g class="st5">
			<polygon class="st2" points="127.6,46 116.4,61.9 115.8,60.5 125.9,46 			"/>
		</g>
		<g class="st9">
			<polygon class="st2" points="122.7,46 114.6,57.7 114.2,57 121.9,46 			"/>
		</g>
		<g>
			<path class="st2" d="M145,46l-18.3,26.2l-3.2-1.5c-0.6-0.3,16.6-24.8,16.6-24.8h4.8L145,46L145,46z"/>
		</g>
	</g>
	<g id="triFrame">
		<path class="st2" d="M180.2,181.4c-13.1,0-26.3-5.7-34.2-9.2l-0.9-0.4c-4.6-2-17.4-4.1-29.7-6.2c-23.2-3.7-32.7-5.6-32.7-8.7
			c0-0.1-1.4-16.6,16.9-20c16.2-3,53.3-20,58.7-22.6L136.4,7.8c-0.3-1.5,0.1-3.1,1-4.3c1-1.2,2.4-1.9,4-1.9h15.2
			c2.4,0,4.5,1.8,5.1,4.1l8.4,40.3h125.5l32,105c0.1,0.6,0.2,1,0.2,1.5c0,3-2.4,5.3-5.3,5.3c-2.1,0-4-1.2-4.8-3.1l-31.6-67.9
			c-1.2-2.3-2.8-3.4-4.8-3.4c-3.4,0-8.4,3.1-14.3,9c-6.8,6.8-12.6,15.2-12.6,15.2l-0.1,0.1l0,0l-57,68.5c-1.1,1.3-2.5,2.3-4.2,3
			C189,180.7,184.8,181.4,180.2,181.4z M162.1,124.2c-26.5,10.9-65,20.6-65.3,20.7c-2.5,0.7-3.6,2.8-3.5,4.5c0.1,2.1,1.8,3.6,4.4,4
			c0.4,0,50.9,3.7,58.7,4.6c0.8,0.1,1.5,0.1,2.2,0.1c4,0,7.3-1.3,8.9-3.5c1.3-1.8,1.6-4,0.9-6.7L162.1,124.2z M180.5,96.9
			c2.4,10.9,11.3,26.1,20.7,26.1c3,0,5.7-1.5,8.2-4.6L252,67.3c-0.3-6.9-12.4-13.3-25.7-13.3h-54.8L180.5,96.9z"/>
		<path class="st1" d="M156.5,2.6c2,0,3.7,1.4,4.1,3.3l8.5,40.9h125.5l31.9,104.4c0.1,0.4,0.2,0.9,0.2,1.3c0,2.3-1.9,4.4-4.4,4.4
			c-1.6,0-3.3-1-4-2.5l-31.7-67.9c-1.4-2.9-3.4-4-5.7-4c-4.4,0-10,4.3-15,9.4c-6.8,6.8-12.5,15-12.8,15.4l0,0L196,175.8
			c-1,1.2-2.3,2.1-3.7,2.6c-4,1.4-8.1,2-12.3,2c-13.4,0-26.9-6.2-34.8-9.6c-10.6-4.5-61.6-9.2-61.6-13.9c0,0-1.5-15.8,16.2-19.1
			s59.6-23,59.6-23L152,79.3L145.2,46l-7.9-38.3c-0.6-2.6,1.4-5.1,4.1-5.1H156.5 M201,123.8c3,0,6.1-1.4,9-4.9l42.8-51.5
			c0-7.9-12.8-14.5-26.6-14.5h-55.9l9.1,44l0,0C182,108.5,191.4,123.8,201,123.8 M158.6,158.9c6.9,0,12.8-3.7,10.7-11.3l-6.5-24.8
			c-24.7,10.2-60.6,19.6-66.2,21s-6,9.3,0.9,10.2c0,0,50.8,3.7,58.7,4.6C156.9,158.9,157.8,158.9,158.6,158.9 M156.5,0.7h-15.2
			c-1.9,0-3.5,0.8-4.7,2.2S135,6.2,135.4,8l7.9,38.3l6.9,33.3l7,34.1c-7.3,3.4-42.3,19.4-57.9,22.2C84,138.8,81,150.9,81.6,157
			c0.1,3.6,7,5.2,33.4,9.6c12.3,2,25,4.1,29.5,6.1l0.9,0.4c7.9,3.5,21.3,9.2,34.6,9.2c4.6,0,9-0.8,13-2.1c1.8-0.7,3.3-1.8,4.6-3.2
			l57-68.5l0.1-0.1l0.1-0.2c0,0,5.7-8.2,12.5-15.1c7.3-7.3,11.4-8.8,13.6-8.8c1.1,0,2.6,0.3,4,3l31.6,67.9c1,2.2,3.2,3.6,5.6,3.6
			c3.4,0,6.3-2.8,6.3-6.3c0-0.7-0.1-1.2-0.3-1.9L296.3,46.3l-0.4-1.3h-1.4H170.6l-8.1-39.5C161.9,2.7,159.3,0.7,156.5,0.7L156.5,0.7
			z M172.7,54.8h53.6c12.5,0,24,5.6,24.8,12l-42.5,50.9c-2.4,2.9-5,4.3-7.6,4.3c-3.9,0-8-3-12-8.4c-3.6-5-6.5-11.2-7.7-17.1v-0.1
			L172.7,54.8L172.7,54.8z M97.6,152.3c-2.1-0.3-3.4-1.4-3.5-3.1c-0.1-1.3,0.8-3.1,2.9-3.5c0.4-0.1,38-9.6,64.6-20.2l5.9,22.7
			c0.7,2.4,0.4,4.4-0.7,5.9c-1.4,2-4.5,3.1-8.1,3.1c-0.7,0-1.4,0-2.1-0.1C148.6,156.1,100.4,152.5,97.6,152.3L97.6,152.3z"/>
	</g>
	<g>
		<circle class="st1" cx="88.5" cy="153.2" r="3.3"/>
	</g>
	<g>
		<circle class="st1" cx="322.3" cy="151.8" r="3.3"/>
	</g>
</g>
<g id="eBikeFrame_00000065057586240151479720000016445949659876729772_">
	<g>
		<g>
			<path class="st10" d="M1833.7,108.3c-3.1-3.1-3.5-7.9-0.9-11.6l29.2-39.8c1.2-1.7,3-2.9,4.8-3.3l7.8-2.1c0.4-0.1,0.9-0.2,1.3-0.2
				c0.3,0,0.7-0.1,1-0.1c1.9,0,3.6,0.6,5.1,1.7l5.6,4l-44.1,61.2L1833.7,108.3z"/>
			<path class="st1" d="M1876.8,52c1.7,0,3.3,0.6,4.7,1.5l4.9,3.5l-43.2,59.8l-9.1-9c-2.9-2.9-3.2-7.4-0.9-10.6l28-38.4l1.1-1.4
				c1.1-1.5,2.6-2.5,4.5-3.1l7.8-2.1c0.4-0.1,0.8-0.2,1.2-0.2C1876.2,52,1876.5,52,1876.8,52 M1876.8,50.5c-0.3,0-0.8,0-1.1,0.1
				c-0.4,0-0.9,0.1-1.4,0.2l-7.8,2.1c-2.1,0.5-4,1.9-5.3,3.6l-1.1,1.4L1832,96.3c-2.9,3.9-2.4,9,1,12.4l9.1,9l1.2,1.2l1-1.3
				l43.2-59.8l0.9-1.2l-1.2-0.9l-4.9-3.5C1880.8,51.1,1878.8,50.5,1876.8,50.5L1876.8,50.5z"/>
		</g>
		<polygon class="st11" points="1861,63.5 1859.7,65.2 1857.9,63.6 1859.3,61.8 		"/>
		<polygon class="st11" points="1858.5,67.8 1858.1,68.2 1857.8,67.9 1855.8,66.5 1856.3,65.7 1858.1,67.4 		"/>
		<path class="st11" d="M1878.4,58.8l-13.8,5.3l-3.2-5.4l1.1-1.4c1.1-1.5,2.6-2.5,4.5-3.1l7.8-2.1c0.4-0.1,0.8-0.2,1.2-0.2
			L1878.4,58.8z"/>
		<path class="st12" d="M1844.1,119.7l-9.1-9c-2.9-2.9-3.2-7.4-0.9-10.6l29.2-39.8c1.1-1.5,2.6-2.5,4.5-3.1l7.8-2.1
			c2.3-0.7,4.8-0.2,6.8,1.2l4.9,3.5L1844.1,119.7z"/>
		<path class="st13" d="M1862.7,54.1"/>
		<path class="st13" d="M1864.6,57.9"/>
		<g>
			<path class="st10" d="M1833.7,108.3c-3.1-3.1-3.5-7.9-0.9-11.6l29.2-39.8c1.2-1.7,3-2.9,4.8-3.3l7.8-2.1c0.4-0.1,0.9-0.2,1.3-0.2
				c0.3,0,0.7-0.1,1-0.1c1.9,0,3.6,0.6,5.1,1.7l5.6,4l-44.1,61.2L1833.7,108.3z"/>
			<path class="st1" d="M1876.8,52c1.7,0,3.3,0.6,4.7,1.5l4.9,3.5l-43.2,59.8l-9.1-9c-2.9-2.9-3.2-7.4-0.9-10.6l28-38.4l1.1-1.4
				c1.1-1.5,2.6-2.5,4.5-3.1l7.8-2.1c0.4-0.1,0.8-0.2,1.2-0.2C1876.2,52,1876.5,52,1876.8,52 M1876.8,50.5c-0.3,0-0.8,0-1.1,0.1
				c-0.4,0-0.9,0.1-1.4,0.2l-7.8,2.1c-2.1,0.5-4,1.9-5.3,3.6l-1.1,1.4L1832,96.3c-2.9,3.9-2.4,9,1,12.4l9.1,9l1.2,1.2l1-1.3
				l43.2-59.8l0.9-1.2l-1.2-0.9l-4.9-3.5C1880.8,51.1,1878.8,50.5,1876.8,50.5L1876.8,50.5z"/>
		</g>
		<polygon class="st11" points="1861,63.5 1859.7,65.2 1857.9,63.6 1859.3,61.8 		"/>
		<polygon class="st11" points="1858.5,67.8 1858.1,68.2 1857.8,67.9 1855.8,66.5 1856.3,65.7 1858.1,67.4 		"/>
		<path class="st11" d="M1878.4,58.8l-13.8,5.3l-3.2-5.4l1.1-1.4c1.1-1.5,2.6-2.5,4.5-3.1l7.8-2.1c0.4-0.1,0.8-0.2,1.2-0.2
			L1878.4,58.8z"/>
		<path class="st12" d="M1844.1,119.7l-9.1-9c-2.9-2.9-3.2-7.4-0.9-10.6l29.2-39.8c1.1-1.5,2.6-2.5,4.5-3.1l7.8-2.1
			c2.3-0.7,4.8-0.2,6.8,1.2l4.9,3.5L1844.1,119.7z"/>
		<path class="st13" d="M1862.7,54.1"/>
		<path class="st13" d="M1864.6,57.9"/>
		<g>
			<path class="st6" d="M1844.5,109.1l-8.2-5.7l3.2-4.5l0.9,0.7l-1.9,2.8l2.8,1.9l1.3-1.9l0.9,0.7l-1.3,1.9l2.8,1.9l1.9-2.8l0.9,0.7
				L1844.5,109.1z"/>
			<path class="st6" d="M1844.6,101l-0.9-0.7l3.2-4.5l0.9,0.7L1844.6,101z"/>
			<path class="st6" d="M1852.4,97.6l-8.2-5.7l2.5-3.6c0.3-0.5,0.8-0.8,1.4-0.9c0.7-0.1,1.2,0,1.7,0.3l0.5,0.3
				c0.4,0.3,0.7,0.7,0.9,1.2c0.2,0.5,0,1.1-0.4,1.8l0.7-0.9c0.2-0.2,0.4-0.4,0.8-0.4c0.3,0,0.6,0,0.9,0.2l3.2,2.2l-1.3,1.9l-2.8-1.9
				c-0.2-0.2-0.6-0.2-0.9-0.2c-0.3,0.1-0.6,0.2-0.8,0.4l-0.7,0.9l3.6,2.5L1852.4,97.6z M1849.1,92.6l0.7-0.9
				c0.2-0.2,0.2-0.6,0.2-0.9c-0.1-0.3-0.2-0.6-0.4-0.8l-0.9-0.7c-0.2-0.2-0.5-0.2-0.9-0.2c-0.3,0.1-0.6,0.2-0.7,0.4l-0.7,0.9
				L1849.1,92.6z"/>
			<path class="st6" d="M1857.8,89.8l-6.4-4.4l-0.7,0.9l-0.9-0.7l0.3-2.4l0.7-0.9l8.2,5.7L1857.8,89.8z"/>
			<path class="st6" d="M1860.5,85.8l-8.2-5.7l2.5-3.6c0.3-0.6,0.8-0.8,1.4-0.9c0.7-0.1,1.2,0,1.7,0.3l4.5,3.2
				c0.4,0.3,0.8,0.8,0.9,1.4c0.1,0.7,0,1.2-0.3,1.7L1860.5,85.8z M1860.8,83.4l0.7-0.9c0.2-0.2,0.2-0.6,0.2-0.9
				c-0.1-0.3-0.2-0.6-0.4-0.7l-4.5-3.2c-0.2-0.2-0.5-0.2-0.9-0.2c-0.3,0.1-0.6,0.2-0.7,0.4l-0.7,0.9L1860.8,83.4z"/>
			<path class="st6" d="M1865.6,78.6l-8.2-5.7l2.5-3.6c0.3-0.6,0.8-0.8,1.4-0.9c0.7-0.1,1.2,0,1.7,0.3l0.6,0.3
				c0.4,0.3,0.7,0.7,0.9,1.2c0.2,0.6,0,1.1-0.4,1.8l0.7-0.9c0.2-0.2,0.4-0.4,0.8-0.4c0.3,0,0.6,0,0.9,0.2l3.2,2.2l-1.3,1.9l-2.8-1.9
				c-0.2-0.2-0.5-0.2-0.9-0.2c-0.3,0.1-0.6,0.2-0.8,0.4l-0.7,0.9l3.6,2.5L1865.6,78.6z M1862.3,73.6l0.7-0.9
				c0.2-0.2,0.2-0.6,0.2-0.9c-0.1-0.3-0.2-0.6-0.4-0.8l-0.9-0.7c-0.2-0.2-0.6-0.2-0.9-0.2c-0.3,0.1-0.5,0.2-0.7,0.4l-0.7,0.9
				L1862.3,73.6z"/>
		</g>
		<path class="st6" d="M1830.3,109.1"/>
		<g class="st14">
			<polygon class="st10" points="1847.5,104.5 1844.5,109.1 1836.2,103.3 1837.3,101.8 1839.8,99.2 1840.3,99.4 1838.4,102.1 
				1841.2,104.1 1842.4,102.2 1843.2,102.9 1842,104.7 1844.8,106.6 1846.7,103.9 			"/>
		</g>
		<g class="st14">
			<polygon class="st10" points="1847.8,96.4 1844.6,101 1843.7,100.4 1846.9,95.9 			"/>
		</g>
		<g class="st14">
			<path class="st10" d="M1869.4,73.1l-1.3,1.9l-2.8-1.9c0,0-0.1,0-0.1-0.1l1.5-1.6L1869.4,73.1z"/>
		</g>
		<g class="st14">
			<polygon class="st10" points="1866.9,76.7 1865.6,78.6 1862.2,76.2 1863.7,74.6 			"/>
		</g>
		<g class="st14">
			<path class="st10" d="M1863,82.2l-2.5,3.6l-4.6-3.2l1.5-1.6l3.4,2.4l0.7-0.9c0.2-0.2,0.2-0.6,0.2-0.9c-0.1-0.3-0.2-0.6-0.4-0.7
				l-2.2-1.5l1.5-1.7l1.9,1.3c0.4,0.3,0.8,0.8,0.9,1.4C1863.5,81.1,1863.4,81.7,1863,82.2z"/>
		</g>
		<g class="st14">
			<polygon class="st10" points="1859.1,87.9 1857.8,89.8 1852.5,86.1 1854,84.5 			"/>
		</g>
		<g class="st14">
			<path class="st10" d="M1850.6,92.3l-0.7,0.9l3.6,2.5l-1.2,1.9l-6.6-4.6l1.5-1.6l1.8,1.2l0.7-0.9c0.2-0.2,0.2-0.6,0.2-0.9
				c-0.1-0.3-0.2-0.6-0.4-0.8l-0.4-0.3l1.5-1.6c0.3,0.2,0.6,0.7,0.7,1.1c0.2,0.6,0,1.1-0.4,1.8l0.7-0.9c0.2-0.2,0.4-0.4,0.8-0.4
				c0.3,0,0.5,0,0.9,0.2l3.2,2.2l-1.2,1.9l-2.8-1.9c-0.2-0.2-0.6-0.2-0.9-0.2C1851.1,91.9,1850.8,92.1,1850.6,92.3z"/>
		</g>
	</g>
	<g>
		<path class="st15" d="M1831.8,147.4c-0.2,0-0.4,0-0.7,0l-103.6-15.7c-1.5-0.2-2.9-1.2-3.4-2.6c-0.3-0.8-0.4-1.5-0.3-2.4
			c0.1-0.7,0.3-1.3,0.7-2c0.7-0.9,15.2-23,34.7-38.6c17.4-13.9,36.6-25.6,41.8-28.7l-9.6-31c-0.2-0.5,0-1.2,0.3-1.8
			c1-1.4,3.8-2.3,5.7-2.3c1.9,0,2.4,0.9,2.5,1.4l10.4,33.9c2,0.3,4.2,0.6,6.4,0.6c4.6,0,9.2-0.8,13.6-2.2
			c5.5-1.9,16.5-10.6,28.1-19.7c19.4-15.4,41.4-32.8,55.5-32.8c1.9,0,3.5,1.2,4.2,2.9c4.4,11.7,37.8,92.6,48.1,117.2
			c0.4,1.1,0.4,2.3,0,3.4c-0.4,1.1-1.3,2-2.4,2.4c-0.6,0.2-1.1,0.3-1.8,0.3c-1.9,0-3.5-1.1-4.2-2.8c-11-26.5-30.8-74.5-41.5-100.8
			l-81,119.1c-0.1,0.1-0.1,0.2-0.2,0.2c0,0.1-0.1,0.1-0.2,0.2l0,0l0,0l-0.2,0.2v0.1h-0.1c-0.1,0.1-0.2,0.2-0.2,0.2l-0.2,0.1
			c-0.1,0.1-0.2,0.1-0.3,0.2c-0.1,0.1-0.2,0.1-0.4,0.2c-0.1,0.1-0.3,0.1-0.4,0.2l-0.2,0.1c-0.1,0-0.2,0-0.2,0.1
			C1832.5,147.4,1832.1,147.4,1831.8,147.4z M1825.4,137.4l-21.8-71.1c-6.3,3.8-23.4,14.6-38.8,26.8c-12.3,9.9-22.9,23-28.6,30.7
			L1825.4,137.4z M1833.3,132.6l79.1-116.4c-0.6-1.2-1-2.4-1.3-3.4c-11.7,2.5-31.2,17.9-47,30.5c-12.9,10.1-23.9,18.9-30.9,21.2
			c-5.4,1.8-10.9,2.6-16.3,2.6c-1.2,0-2.4,0-3.6-0.1L1833.3,132.6z"/>
		<path class="st1" d="M1914.1,4.4c1.4,0,2.9,0.9,3.3,2.3c4.6,12.2,40.8,99.8,48.1,117.3c0.8,1.9-0.1,4-2,4.6
			c-0.4,0.2-0.9,0.2-1.3,0.2c-1.4,0-2.8-0.9-3.3-2.2c-8-19.5-30.8-74.5-42.1-102.3l0,0l-80.8,119l-1,1.5v0.1c0,0.1-0.1,0.1-0.1,0.2
			c0,0.1-0.1,0.1-0.1,0.2c-0.1,0.1-0.1,0.2-0.2,0.2l0,0c-0.1,0.1-0.1,0.1-0.2,0.2l0,0c0,0-0.1,0-0.1,0.1c-0.1,0.1-0.2,0.1-0.2,0.2
			c-0.1,0.1-0.2,0.1-0.3,0.2c-0.1,0.1-0.2,0.1-0.3,0.1c-0.1,0-0.1,0-0.2,0.1c-0.1,0-0.1,0-0.2,0c-0.2,0.1-0.5,0.1-0.8,0.1
			s-0.3,0-0.6,0l-3.1-0.4l-100.5-15.2c-1.2-0.2-2.2-1-2.8-2.1c-0.2-0.6-0.3-1.2-0.3-1.9c0.1-0.6,0.2-1.1,0.5-1.5
			c0.7-0.9,15.3-23,34.5-38.4c18.5-14.7,39.1-27.2,42.3-29l-9.8-31.8c-0.4-1.3,3.1-2.9,5.2-2.9c0.9,0,1.4,0.2,1.6,0.8l10.6,34.4
			c2,0.3,4.4,0.7,7.2,0.7c4.1,0,8.9-0.5,14-2.3c5.6-1.9,16.7-10.7,28.4-19.9C1878.3,21.7,1900.2,4.4,1914.1,4.4 M1817,66.3
			c-1.8,0-3.4-0.1-5-0.2l21.1,68.8l80.4-118.5c-0.8-1.8-1.3-3.3-1.9-4.6c-11.9,2-31.9,17.9-48.2,30.8c-12.8,10.1-23.7,18.8-30.6,21
			C1827,65.6,1821.5,66.3,1817,66.3 M1826.7,138.6l-22.5-73.7c-5.7,3.4-23.8,14.6-40,27.6c-13.2,10.6-24.4,24.9-29.7,32.1
			L1826.7,138.6 M1914.1,2.5c-14.5,0-36.6,17.5-56.2,33c-11,8.7-22.4,17.8-27.8,19.6c-4.3,1.4-8.8,2.2-13.3,2.2
			c-1.9,0-3.9-0.1-5.6-0.4L1801,23.6c-0.2-0.7-0.9-2.1-3.4-2.1c-2.2,0-5.3,1.1-6.5,2.8c-0.5,0.8-0.8,1.7-0.5,2.5l9.3,30.4
			c-5.9,3.5-24.4,15-41.2,28.4c-19.6,15.6-34.3,37.8-34.9,38.8c-0.4,0.7-0.8,1.5-0.9,2.4c-0.1,1,0,2,0.4,2.9
			c0.8,1.8,2.3,2.9,4.2,3.2l100.5,15.2l3.1,0.4c0.3,0,0.6,0.1,0.8,0.1c0.3,0,0.8,0,1.1-0.1c0.1,0,0.2,0,0.2-0.1l0,0h0.1l0.2-0.1
			c0.2,0,0.4-0.1,0.6-0.2c0.2-0.1,0.3-0.1,0.4-0.2c0.1-0.1,0.2-0.1,0.3-0.2l0.1-0.1l0.1-0.1l0,0l0.1-0.1l0,0l0.1-0.1l0.6-0.5v-0.1
			c0,0,0,0,0-0.1c0,0,0.1-0.1,0.1-0.2l0,0l1-1.5l78.8-116.6c10.8,26.5,30,73,40.8,99.1c0.9,2.1,2.9,3.4,5.1,3.4
			c0.8,0,1.4-0.1,2.1-0.4c1.3-0.6,2.4-1.6,3-3c0.6-1.3,0.6-2.9,0-4.2c-13-31.5-43.8-105.9-48.1-117.2
			C1918.4,3.9,1916.3,2.5,1914.1,2.5L1914.1,2.5z M1817,68.1c5.6,0,11.2-0.9,16.6-2.8c7.2-2.4,18.3-11.2,31.1-21.3l0,0
			c15.3-12.1,34.3-27.2,45.8-30.1c0.2,0.7,0.5,1.4,0.9,2.2l-77.7,114.4l-19.1-62.4C1815.4,68.1,1816.2,68.1,1817,68.1L1817,68.1z
			 M1737.9,123.2c5.8-7.8,15.9-19.9,27.5-29.3c14.5-11.7,30.7-21.9,37.7-26.2l21,68.4L1737.9,123.2L1737.9,123.2z"/>
	</g>
</g>
<g id="streetFrame">
	<g>
		<path class="st7" d="M590.7,153.8c-0.1,0-0.2,0-0.3,0s-0.2,0-0.2,0l-95.5-14.1c-1.8-0.2-3.3-1.4-4.1-3.1c-0.7-1.6-0.6-3.6,0.5-5.1
			l67.8-95l-5.3-22.2c-0.1-0.4-0.1-1.1,0.4-1.9c1.2-1.4,4.2-2.4,6.4-2.4c2.5,0,3.1,1.1,3.3,1.9l4.7,20l111.9-12.1
			c-1.3-4.1-2.5-8-3.7-11.8l-0.1-0.2c-0.2-0.7-0.1-1.3,0.4-2c1.2-1.7,4.5-2.8,6.7-2.8c2.1,0,2.8,1,3,1.7
			c0.3,1.1,34.4,111.1,52.1,131.1c0.9,1.1,1.4,2.4,1.3,3.7c-0.1,1.4-0.8,2.6-1.8,3.6c-1,0.9-2.2,1.3-3.4,1.3c-1.5,0-3-0.7-4-1.8
			c-11.8-13.4-29-59.5-41.7-96.5l-94.6,105.8l-0.1,0.1c-0.1,0.1-0.2,0.2-0.3,0.3s-0.2,0.2-0.4,0.3c-0.1,0.1-0.3,0.2-0.4,0.3
			c-0.1,0-0.2,0.1-0.3,0.1s-0.1,0.1-0.2,0.1c-0.1,0-0.2,0.1-0.3,0.1s-0.2,0.1-0.3,0.1s-0.2,0.1-0.3,0.1c-0.2,0-0.5,0.1-0.9,0.1
			C591,153.8,590.9,153.8,590.7,153.8L590.7,153.8z M583.9,142.2l-21.8-92.3l-57.5,80.6L583.9,142.2z M593.4,137.6l91.9-102.9
			c-0.5-1.5-1-3.1-1.5-4.5l-0.1-0.4L571,42L593.4,137.6z"/>
		<path class="st1" d="M683.6,4.1c1,0,1.7,0.2,1.9,0.9c0.3,1.1,34.5,111.3,52.4,131.6c1.5,1.8,1.3,4.3-0.3,5.8c-0.8,0.7-1.8,1-2.8,1
			c-1.1,0-2.3-0.4-3.1-1.4c-12.1-13.8-30.2-62.9-42-97.9l-95.9,107.2l0,0c-0.1,0.1-0.1,0.2-0.2,0.2l0,0c-0.1,0.1-0.2,0.2-0.3,0.2
			c-0.1,0.1-0.2,0.1-0.3,0.2c-0.1,0-0.1,0.1-0.2,0.1c0,0-0.1,0-0.1,0.1c-0.1,0-0.2,0.1-0.2,0.1c-0.1,0-0.2,0.1-0.2,0.1
			c-0.1,0-0.2,0-0.2,0.1c-0.2,0-0.4,0.1-0.7,0.1c-0.1,0-0.2,0-0.3,0l0,0c-0.1,0-0.2,0-0.3,0s-0.1,0-0.2,0c0,0,0,0-0.1,0l-95.4-14
			c-1.4-0.2-2.6-1.1-3.2-2.4c-0.5-1.3-0.4-2.9,0.4-4l67.9-95.4L554.8,14c-0.3-1.5,3.3-2.9,5.8-2.9c1.1,0,2.1,0.3,2.2,1l5,21
			L682,20.7c-2.4-7.5-4-12.3-4.2-13.3C677.1,5.8,681.1,4.1,683.6,4.1 M592.9,139.9l93.6-104.8c-0.8-2.2-1.4-4.4-2.1-6.4L569.6,41.1
			L592.9,139.9 M585.3,143.5l-22.8-96.2l-59.9,84L585.3,143.5 M683.6,1.9c-2.5,0-6.2,1.3-7.6,3.2c-0.7,0.9-0.9,2-0.5,3l0.1,0.2
			c1,3.3,2.1,6.8,3.3,10.6L569.3,30.7l-4.5-19c-0.2-0.8-1-2.6-4.4-2.6c-2.1,0-5.7,0.9-7.3,2.8c-0.7,0.9-0.9,1.9-0.7,2.8l5.2,21.7
			L490.2,131c-1.3,1.8-1.5,4.2-0.7,6.2c0.9,2,2.8,3.4,5,3.7l95.4,14c0.1,0,0.1,0,0.2,0c0.1,0,0.2,0,0.2,0c0.2,0,0.3,0,0.4,0
			c0.2,0,0.3,0,0.6,0s0.7-0.1,1-0.1c0.1,0,0.3-0.1,0.4-0.1c0.1,0,0.2-0.1,0.4-0.1c0.1,0,0.2-0.1,0.3-0.2c0.1,0,0.1-0.1,0.2-0.1
			c0.1-0.1,0.2-0.1,0.4-0.2c0.1-0.1,0.3-0.2,0.4-0.3c0.2-0.1,0.3-0.2,0.4-0.4l0,0l0,0c0.1-0.1,0.2-0.2,0.3-0.3l0,0l0,0l0,0
			l93.6-104.8c12.5,36.7,29.6,81.7,41.2,95.2c1.2,1.3,3,2.2,4.7,2.2c1.5,0,3.1-0.6,4.2-1.5c1.2-1.1,2-2.6,2.1-4.3
			c0.1-1.6-0.4-3.3-1.5-4.6c-7.1-8.1-18.3-33.1-32.3-72.3c-10.9-30.5-19.5-58.2-19.6-58.5C687.4,3.6,686.6,1.9,683.6,1.9L683.6,1.9z
			 M572.2,43l110.7-12c0.3,1.1,0.8,2.3,1.1,3.5l-90,100.8L572.2,43L572.2,43z M506.4,129.8l55-77.2l20.9,88.3L506.4,129.8
			L506.4,129.8z"/>
	</g>
	<circle cx="496.7" cy="133.2" r="3.3"/>
	<circle cx="729.9" cy="133.2" r="3.3"/>
</g>
</svg>
