<?xml version="1.0" encoding="utf-8"?>
<!-- Generator: Adobe Illustrator 26.0.2, SVG Export Plug-In . SVG Version: 6.00 Build 0)  -->
<svg version="1.1" id="eBike" xmlns="http://www.w3.org/2000/svg" xmlns:xlink="http://www.w3.org/1999/xlink" x="0px" y="0px"
	 viewBox="0 0 500 325" style="enable-background:new 0 0 500 325;" xml:space="preserve">
<style type="text/css">
	.st0{fill:#4F4249;}
	.st1{fill:#142C4D;}
	.st2{fill:#7C7679;}
	.st3{fill:#EE0000;}
	.st4{opacity:0.6;}
	.st5{fill:#FFFFFF;}
	.st6{fill:#585D68;}
	.st7{fill:#AEDCDD;}
	.st8{fill:#43ADAF;}
	.st9{fill:#5656C1;}
	.st10{opacity:0.3;fill:#FFFFFF;enable-background:new    ;}
	.st11{fill:#168989;}
	.st12{opacity:0.34;}
	.st13{fill:#3F3A3D;}
	.st14{opacity:0.41;}
	.st15{fill:none;stroke:#2B1010;stroke-width:1.2099;stroke-miterlimit:10;}
	.st16{fill:#272B33;}
	.st17{fill:#0C1726;}
	.st18{fill:#BAB1B5;}
	.st19{fill:#030B21;}
	.st20{opacity:0.65;fill:#BAB1B5;enable-background:new    ;}
	.st21{opacity:0.5;fill:#BAB1B5;enable-background:new    ;}
	.st22{fill:#4F4646;}
	.st23{fill:#9E9298;}
	.st24{fill:#231E1E;stroke:#142C4D;stroke-width:1.8148;stroke-miterlimit:10;}
	.st25{fill:none;stroke:#FF0066;stroke-width:1.2099;stroke-miterlimit:10;}
	.st26{fill:#231E1E;}
	.st27{opacity:0.3;}
	.st28{fill:#FAAA4F;stroke:#142C4D;stroke-width:2.4198;stroke-miterlimit:10;}
	.st29{fill:#FAAA4F;}
</style>
<g id="eBikeSeat">
	<g>
		<g>
			<g>
				<path class="st0" d="M158.7,77.9c-1,0-1.8-0.8-1.8-1.8s0.8-1.8,1.8-1.8h7.2l7.1-5.6c0.3-0.3,0.7-0.4,1.1-0.4
					c0.6,0,1.1,0.3,1.4,0.7c0.6,0.8,0.5,1.9-0.3,2.5l-7.6,6c-0.3,0.3-0.7,0.4-1.1,0.4L158.7,77.9L158.7,77.9z"/>
				<path class="st1" d="M174.2,68.9c0.4,0,0.7,0.2,1,0.5c0.4,0.5,0.3,1.3-0.2,1.7l-7.6,6c-0.2,0.2-0.5,0.3-0.7,0.3h-7.9
					c-0.7,0-1.2-0.5-1.2-1.2s0.5-1.2,1.2-1.2h7.4l7.3-5.7C173.7,68.9,173.9,68.9,174.2,68.9 M174.2,67.6L174.2,67.6
					c-0.5,0-1.1,0.2-1.5,0.5l-7,5.5h-7c-1.3,0-2.4,1.1-2.4,2.4s1.1,2.4,2.4,2.4h7.9c0.5,0,1.1-0.2,1.5-0.5l7.6-6
					c0.5-0.4,0.8-1,0.9-1.6c0.1-0.6-0.1-1.3-0.5-1.8C175.6,68,174.9,67.6,174.2,67.6L174.2,67.6z"/>
			</g>
		</g>
		<g>
			<g>
				<path class="st2" d="M161.1,80.3c-1,0-1.8-0.8-1.8-1.8s0.8-1.8,1.8-1.8h6.9l7.1-11.3c0.3-0.5,0.9-0.8,1.5-0.8
					c0.3,0,0.7,0.1,1,0.3c0.4,0.3,0.7,0.7,0.8,1.1s0,1-0.2,1.4l-7.6,12.1c-0.3,0.5-0.9,0.8-1.5,0.8H161.1z"/>
				<path class="st1" d="M176.6,65.2c0.2,0,0.4,0.1,0.6,0.2c0.6,0.4,0.7,1.1,0.4,1.7L170,79.2c-0.2,0.4-0.6,0.6-1,0.6h-7.9
					c-0.7,0-1.2-0.5-1.2-1.2s0.5-1.2,1.2-1.2h7.2l7.3-11.5C175.8,65.4,176.2,65.2,176.6,65.2 M176.6,64L176.6,64
					c-0.8,0-1.6,0.4-2,1.1l-6.9,11h-6.5c-1.3,0-2.4,1.1-2.4,2.4s1.1,2.4,2.4,2.4h7.9c0.8,0,1.6-0.4,2-1.1l7.6-12.1
					c0.3-0.5,0.5-1.2,0.3-1.8c-0.1-0.6-0.5-1.2-1.1-1.5C177.5,64.1,177.1,64,176.6,64L176.6,64z"/>
			</g>
		</g>
		<g>
			<path class="st0" d="M177.8,66.4c0,0.1,0,0.1,0,0.2c0,0.2-0.1,0.3-0.2,0.5l-3.5,5.6l-4.1,6.5c-0.2,0.4-0.6,0.6-1,0.6h-7.9
				c-0.1,0-0.1,0-0.2,0s-0.1,0-0.1,0c-0.1,0-0.2-0.1-0.3-0.1c0.1-0.6,0.6-1.1,1.2-1.1h7.2l3.3-5.2l0.3-0.5L171,73l4.1-6.4l0.4-0.7
				c0.4-0.6,1.1-0.7,1.7-0.4c0.1,0.1,0.2,0.1,0.3,0.2C177.7,65.8,177.8,66.1,177.8,66.4z"/>
		</g>
		<g>
			<path class="st3" d="M159,86.5c-2.2,0-4.1-1.8-4.1-4.1v-8.5c0-2.2,1.8-4.1,4.1-4.1h0.3c0.7,0,1.4,0.6,1.4,1.4v13.9
				c0,0.7-0.6,1.4-1.4,1.4L159,86.5L159,86.5z"/>
			<g>
				<path class="st1" d="M159.3,71.2v13.9H159c-1.5,0-2.7-1.2-2.7-2.7v-8.5c0-1.5,1.2-2.7,2.7-2.7H159.3 M159.3,68.5H159
					c-3,0-5.4,2.4-5.4,5.4v8.5c0,3,2.4,5.4,5.4,5.4h0.3c1.5,0,2.7-1.2,2.7-2.7V71.2C162,69.7,160.8,68.5,159.3,68.5L159.3,68.5z"/>
			</g>
		</g>
		<g class="st4">
			<path class="st5" d="M159.3,83.9v1.2H159c-1.5,0-2.7-1.2-2.7-2.7v-8.5c0-0.7,0.2-1.3,0.7-1.8c0,0.2-0.1,0.4-0.1,0.6v8.5
				C156.9,82.6,157.9,83.8,159.3,83.9z"/>
		</g>
	</g>
	<g>
		<path class="st6" d="M191.2,85.4c-0.3,0.1-0.6,0.2-0.9,0.2c-1.3,0-2.5-0.8-2.9-2.1l5.8-1.9C193.7,83.1,192.8,84.8,191.2,85.4z"/>
		<path class="st6" d="M187.5,64.4l0.1,0.2c-1.9,0.3-3.9,0.7-5.9,1.2c-0.2-1.4,0.6-2.9,2.1-3.3C185.2,61.9,187,62.8,187.5,64.4z"/>
	</g>
	<g>
		<path class="st2" d="M185.5,83.8c-5.6-17.7-5.6-17.8-5.6-17.9l-0.2-1.1l1.1-0.2c2-0.4,4-0.8,6-1.1l1-0.2l6.1,19.2l-8.1,2.5
			L185.5,83.8z"/>
		<path class="st1" d="M187,64.6l5.4,17l-5.8,1.8c0,0-5.6-17.6-5.6-17.7C183.1,65.3,185.1,64.9,187,64.6 M188.7,61.9l-2.1,0.3
			c-2.1,0.3-4.1,0.7-6.1,1.1l-2.2,0.5l0.3,2.2c0,0.3,0.1,0.4,5.7,18.1l0.7,2.3l2.3-0.7l5.8-1.8l2.3-0.7l-0.7-2.3l-5.4-17L188.7,61.9
			L188.7,61.9z"/>
	</g>
	<g>
		<path class="st0" d="M189.4,72l-5.5,2.7c-1.4-4.5-2.8-9-2.8-9c2-0.4,4-0.8,6-1.1L189.4,72z"/>
	</g>
	<g>
		<g>
			<g>
				<path class="st7" d="M166.7,70.1c-6.1,0-11.6-2.2-13.7-3c-2.8-1.1-5.3-3.7-6.8-5.8c-0.5-0.8-1.2-1.9-1.5-3
					c-0.3-1.4,0-2.9,0.9-4.1c0.9-1.2,2.9-2.6,7-2.6c0.3,0,0.6,0,0.9,0c1.9,0.1,4.6,0.3,7.8,0.5c6.7,0.5,15.1,1.1,21.5,1.1
					c1.7,0,3.1,0,4.3-0.1c1-0.1,2.3-0.2,3.7-0.3c4.3-0.4,9.6-0.8,14.7-0.8c8.4,0,13.1,1.2,14.8,3.9c0.5,0.8,0.7,1.7,0.7,2.6v0.2v0.1
					c-1.1,3.5-6.4,4-15.2,4.7c-4.9,0.4-11.1,1-18,2.2c-2,0.3-4,0.7-5.9,1.2c-2.9,0.6-5.8,1.4-8.6,2.2
					C171.2,69.8,169,70.1,166.7,70.1z"/>
				<path class="st1" d="M152.6,52.8c0.3,0,0.5,0,0.8,0c5.7,0.3,19.8,1.6,29.4,1.6c1.6,0,3.1,0,4.4-0.1c4.2-0.3,11.6-1.1,18.3-1.1
					c6.4,0,12.1,0.7,13.8,3.3c0.4,0.6,0.5,1.2,0.5,1.9c-1.3,4.4-13.9,2.9-32.3,6.1c-1.9,0.3-3.9,0.7-5.9,1.2
					c-2.8,0.6-5.7,1.4-8.7,2.2c-2.1,0.6-4.2,0.9-6.2,0.9c-5.8,0-10.9-2-13.2-2.9c-2.4-1-4.8-3.3-6.2-5.4c-0.7-1-1.2-1.9-1.3-2.6
					C145.5,56,146.7,52.8,152.6,52.8 M152.6,50.4c-4.6,0-6.8,1.7-7.9,3c-1.2,1.5-1.6,3.4-1.1,5.1c0.2,1,0.8,2.1,1.7,3.4
					c1.5,2.2,4.3,5,7.3,6.2c2.1,0.8,7.8,3.1,14.1,3.1c2.4,0,4.7-0.3,6.9-1c2.8-0.8,5.7-1.6,8.6-2.2c1.9-0.4,3.9-0.8,5.8-1.2
					c6.9-1.2,13-1.8,17.9-2.2c9.3-0.8,14.9-1.3,16.2-5.6l0.1-0.3v-0.3c0.1-1.2-0.3-2.4-0.9-3.3c-2-3-6.9-4.4-15.8-4.4
					c-5.1,0-10.5,0.4-14.8,0.8c-1.4,0.1-2.6,0.2-3.6,0.3c-1.2,0.1-2.6,0.1-4.3,0.1c-6.4,0-14.7-0.6-21.4-1.1c-3.2-0.2-6-0.4-7.9-0.5
					C153.2,50.4,152.9,50.4,152.6,50.4L152.6,50.4z"/>
			</g>
			<path class="st8" d="M219.8,58.5c-1.3,4.4-13.9,2.9-32.3,6.1c-1.9,0.3-3.9,0.7-5.9,1.2c-2.8,0.6-5.7,1.4-8.7,2.2
				c-8,2.4-16.3-0.8-19.4-2.1c-2.4-1-4.8-3.3-6.2-5.4c0.1-2.3,2.2-4.9,8.5-4.7c7.5,0.3,27.8,2.4,38.1,1.7c5.8-0.4,17-1.7,25.5-1.1
				C219.7,57.1,219.9,57.8,219.8,58.5z"/>
		</g>
	</g>
</g>
<g id="eBikeHandles">
	<g>
		<g>
			<path class="st8" d="M341,12.6c-0.4,0-0.7-0.1-1-0.4c0,0-0.2-0.1-0.3-0.1c-0.5-0.2-1.1-0.4-1.2-1c-0.1-0.3,0-0.6,0.2-0.9l0.5-0.5
				c-1.3,0.2-2.5,0.3-3.6,0.3c-1.6,0-3.2-0.2-4.9-0.7c-0.8-0.2-1.4-1.1-1.1-1.9c0.1-0.3,0.3-0.6,0.6-0.8c0.3-0.2,0.6-0.3,1-0.3
				c0.1,0,0.3,0,0.4,0.1C333,6.8,334.5,7,336,7c2.5,0,5.2-0.5,8.1-1.6c0.2-0.1,0.4-0.1,0.5-0.1c0.5,0,1,0.3,1.3,0.7
				c0.4,0.6,0.4,1.4-0.1,1.9l-3.4,4.3C341.9,12.4,341.5,12.6,341,12.6z"/>
			<path class="st1" d="M344.4,6c0.2,0,0.4,0.1,0.6,0.3c0.2,0.3,0.2,0.6,0,0.8l-3.4,4.3c-0.1,0.2-0.3,0.3-0.5,0.3s-0.3,0-0.4-0.2
				c-0.3-0.2-1.4-0.5-1.2-0.8l2.3-2.6c-2.3,0.7-4.3,1-6.2,1c-1.6,0-3.1-0.2-4.7-0.6c-0.4-0.1-0.6-0.5-0.5-0.8c0-0.1,0.1-0.3,0.2-0.4
				s0.3-0.1,0.4-0.1s0.1,0,0.2,0c1.5,0.4,3,0.6,4.6,0.6c2.6,0,5.4-0.5,8.4-1.6C344.3,6,344.3,6,344.4,6 M344.4,4.2L344.4,4.2
				L344.4,4.2c-0.3,0-0.6,0-0.8,0.1c-2.8,1-5.4,1.5-7.8,1.5c-1.4,0-2.8-0.2-4.2-0.5c-0.2-0.1-0.4-0.1-0.6-0.1
				c-0.6,0-1.1,0.2-1.6,0.5C329,6,328.7,6.5,328.5,7c-0.2,0.6-0.1,1.3,0.3,1.9c0.3,0.6,0.9,1,1.5,1.2c1.8,0.5,3.5,0.7,5.2,0.7
				c0.7,0,1.3,0,2-0.1c0,0.2,0,0.4,0.1,0.5c0.3,1,1.2,1.4,1.8,1.6c0.1,0,0.1,0.1,0.2,0.1c0.4,0.3,0.9,0.5,1.4,0.5
				c0.8,0,1.5-0.3,2-0.9l3.4-4.3c0.7-0.9,0.7-2.1,0.1-3C346,4.6,345.2,4.2,344.4,4.2L344.4,4.2L344.4,4.2z"/>
		</g>
	</g>
	<g>
		<path class="st9" d="M347.2,14.6c-0.1,0-0.1,0-0.2,0l-6.6-1.5c-0.2,0-0.3-0.1-0.5-0.3l-2.2-2.9c-0.2-0.2-0.2-0.6-0.1-0.9
			c0.1-0.2,0.4-0.4,0.7-0.4h0.1l5.8,0.7c0.2,0,0.4,0.1,0.5,0.3l2.9,3.7c0.2,0.3,0.2,0.6,0.1,0.9C347.7,14.5,347.5,14.6,347.2,14.6z"
			/>
		<path class="st1" d="M338.4,9.5l5.8,0.7l2.9,3.7l-6.6-1.5L338.4,9.5 M338.4,7.9c-0.5,0-1.1,0.3-1.3,0.8c-0.3,0.5-0.3,1.2,0.1,1.7
			l2.2,2.9c0.2,0.3,0.5,0.5,0.9,0.6l6.6,1.5c0.1,0,0.2,0,0.3,0c0.5,0,1-0.3,1.3-0.7c0.3-0.6,0.3-1.3-0.1-1.8l-2.9-3.7
			c-0.3-0.3-0.6-0.5-1-0.6l-5.8-0.7C338.6,7.9,338.5,7.9,338.4,7.9L338.4,7.9z"/>
	</g>
	<polygon class="st10" points="338.4,9.5 344.3,10.2 347.2,13.8 340.6,12.4 	"/>
	<g>
		<g>
			<path class="st2" d="M350.4,15.5c-1.2-1.7-3.6-2.1-5.3-0.9l-24.8,16.2c-1.5,1-2.1,2.8-1.6,4.4c0-0.1-0.1-0.1-0.1-0.2
				c-1.2-1.8-0.7-4.3,1.1-5.4l24.8-16.2c1.8-1.2,4.3-0.7,5.4,1.1C350.2,14.8,350.3,15.2,350.4,15.5z"/>
		</g>
		<path d="M348.8,19.9L324,36.1c-0.7,0.4-1.4,0.6-2.2,0.6c-1.2,0-2.4-0.6-3.2-1.6l0,0c-0.5-1.6,0.1-3.4,1.6-4.4L345,14.5
			c1.7-1.1,4.1-0.7,5.3,0.9C350.9,17.1,350.3,19,348.8,19.9z"/>
		<path d="M348.8,19.9L324,36.1c-0.7,0.4-1.4,0.6-2.2,0.6c-1.2,0-2.4-0.6-3.2-1.6l0,0c-0.5-1.6,0.1-3.4,1.6-4.4L345,14.5
			c1.7-1.1,4.1-0.7,5.3,0.9C350.9,17.1,350.3,19,348.8,19.9z"/>
		<g>
			<path class="st2" d="M331.4,49.4c-0.7-1.6-0.2-3.4,1.2-4.5l14.1-11.4l-3.1-12.8l-22.1,0.1c-2.2,0-3.9-1.8-4-3.9
				c0-1,0.4-2,1.1-2.8c0.7-0.7,1.7-1.2,2.8-1.2l25.3-0.1c1.8,0,3.4,1.2,3.8,3l4.4,18.3c0.4,1.5-0.2,3-1.3,4l-13.8,11.2l3.3,8
				l-7.6,2.2L331.4,49.4z"/>
			<path class="st1" d="M346.7,13.6c1.4,0,2.6,1,2.9,2.3l4.4,18.3c0.3,1.1-0.1,2.3-1,3.1l-14.3,11.6l3.2,7.7l-1.4,0.4l-4.4,1.3
				l-3.8-9.2c-0.5-1.2-0.1-2.6,0.9-3.5l14.5-11.8l-3.4-14.1l-22.9,0.1l0,0c-1.7,0-3-1.3-3-3s1.3-3,3-3L346.7,13.6L346.7,13.6
				 M346.7,11.8L346.7,11.8l-25.3,0.1c-2.7,0-4.8,2.2-4.8,4.9c0,2.7,2.2,4.8,4.8,4.8l21.4-0.1l2.8,11.6L332,44.2
				c-1.7,1.4-2.2,3.6-1.4,5.6l3.8,9.2l0.6,1.5l1.6-0.5l4.4-1.3l1.4-0.4l1.9-0.6l-0.8-1.9l-2.7-6.5L354,38.6c1.4-1.2,2.1-3.1,1.7-4.9
				l-4.4-18.3C350.9,13.3,348.9,11.8,346.7,11.8L346.7,11.8z"/>
		</g>
		<g>
			<path class="st8" d="M321,19.9c-0.8,0-1.6-0.2-2.2-0.7c-1.1-0.7-1.8-1.9-1.9-3.2v-0.3l0,0c0-1.1,0.4-2.1,1.2-2.8
				c0.8-0.8,1.8-1.2,2.9-1.2l24.9-0.1c2.3,0,4.1,1.8,4.1,4.1c0,0.4-0.1,0.8-0.2,1.2c-0.5,1.7-2.1,2.9-3.9,2.9L321,19.9z"/>
			<path class="st1" d="M346,12.4c1.8,0,3.3,1.5,3.3,3.3c0,0.3,0,0.6-0.1,0.9c-0.4,1.4-1.7,2.4-3.2,2.4l-24.9,0.1l0,0
				c-0.7,0-1.3-0.2-1.8-0.5c-0.9-0.6-1.4-1.5-1.5-2.6l0,0c0-0.1,0-0.1,0-0.2c0-1.8,1.5-3.3,3.3-3.3L346,12.4L346,12.4 M346,10.9
				L346,10.9L346,10.9L321,11c-1.3,0-2.5,0.5-3.4,1.4c-0.8,0.8-1.3,2-1.4,3.1l0,0V16c0.1,1.5,0.9,3,2.2,3.8c0.8,0.5,1.7,0.8,2.6,0.8
				l25-0.1c2.1,0,4-1.5,4.6-3.5c0.1-0.4,0.2-0.9,0.2-1.4C350.8,13.1,348.6,10.9,346,10.9L346,10.9z"/>
		</g>
		<path class="st11" d="M349.3,15.7c0,0.3,0,0.6-0.1,0.9c-0.4,1.4-1.7,2.4-3.2,2.4l-24.9,0.1c-0.7,0-1.3-0.2-1.8-0.5
			c-0.6-0.4-1.1-0.9-1.3-1.6c0.5,0.2,1,0.3,1.5,0.3l26.3-0.1c1.6,0,2.9-1,3.3-2.4l0,0C349.2,15.1,349.3,15.4,349.3,15.7z"/>
		<g>
			<path class="st7" d="M349.3,15.7c0,0.3,0,0.6-0.1,0.9c-0.4-1.4-1.7-2.4-3.2-2.4l-25,0.2c-1.5,0-2.8,1-3.2,2.4
				c-0.1-0.2-0.1-0.5-0.1-0.7l0,0c0-0.1,0-0.1,0-0.2c0-1.8,1.5-3.3,3.3-3.3l24.9-0.1C347.8,12.4,349.3,13.9,349.3,15.7z"/>
		</g>
		<g class="st12">
			<path class="st13" d="M353,37.3l-14.3,11.6l3.2,7.7l-1.4,0.4l-3.6-8.7l14.3-11.6c0.9-0.7,1.3-1.9,1-3.1l-4.4-18.3
				c-0.2-0.7-0.6-1.3-1.1-1.7c1.4,0,2.6,1,2.9,2.3l4.4,18.3C354.3,35.4,353.9,36.5,353,37.3z"/>
		</g>
		<g>
			<path class="st8" d="M321.9,37.7c-1.5,0-3-0.7-3.9-2l-0.2-0.2l0,0c-0.7-1.1-0.9-2.3-0.7-3.6c0.3-1.3,1-2.4,2.1-3.1L344,12.6
				c0.8-0.5,1.7-0.8,2.7-0.8c1.6,0,3.2,0.8,4,2.2c0.3,0.4,0.5,0.8,0.6,1.3c0.6,2-0.2,4.3-2,5.4L324.6,37
				C323.8,37.5,322.9,37.7,321.9,37.7z"/>
			<path class="st1" d="M346.7,12.7c1.3,0,2.5,0.6,3.3,1.8c0.2,0.3,0.4,0.7,0.5,1c0.5,1.6-0.1,3.4-1.6,4.4l-24.8,16.2
				c-0.7,0.4-1.4,0.6-2.2,0.6c-1.2,0-2.4-0.6-3.2-1.6l0,0c0-0.1-0.1-0.1-0.1-0.2c-1.2-1.8-0.7-4.3,1.1-5.4l24.8-16.2
				C345.2,12.9,345.9,12.7,346.7,12.7 M346.7,10.9L346.7,10.9c-1.1,0-2.2,0.3-3.2,0.9L318.7,28c-1.3,0.8-2.2,2.1-2.5,3.6
				c-0.3,1.4-0.1,2.8,0.6,4l0,0l0.3,0.5c1.1,1.5,2.8,2.4,4.6,2.4c1.1,0,2.2-0.3,3.1-0.9l24.8-16.2c2.1-1.4,3.1-4.1,2.3-6.5
				c-0.1-0.5-0.4-1-0.7-1.5C350.4,11.9,348.6,10.9,346.7,10.9L346.7,10.9z"/>
		</g>
		<g>
			<path class="st7" d="M349.6,14.1c-1.2-0.6-2.7-0.6-3.9,0.2l-24.8,16.2c-1.8,1.2-2.3,3.6-1.1,5.4c0,0.1,0.1,0.1,0.1,0.2l0,0
				c0.1,0.1,0.1,0.2,0.2,0.3c-0.5-0.3-1-0.7-1.4-1.2l0,0c0-0.1-0.1-0.1-0.1-0.2c-1.2-1.8-0.7-4.3,1.1-5.4l24.8-16.2
				C346.2,12.3,348.4,12.6,349.6,14.1z"/>
		</g>
		<path class="st11" d="M348.8,19.9L324,36.1c-0.7,0.4-1.4,0.6-2.2,0.6c-0.3,0-0.5,0-0.8-0.1c-0.5-1.6,0.1-3.4,1.6-4.4L347.4,16
			c0.9-0.6,2-0.8,2.9-0.6C350.9,17.1,350.3,19,348.8,19.9z"/>
		<g>
			<path class="st9" d="M343.6,24.6c-0.2,0-0.5-0.1-0.6-0.3c-0.2-0.2-0.3-0.4-0.3-0.7v-3.3c0-0.4,0.2-0.7,0.5-0.8l7.7-3.7
				c0.1-0.1,0.3-0.1,0.4-0.1c0.2,0,0.3,0,0.5,0.1c0.3,0.2,0.4,0.4,0.4,0.7l0.4,6.7c0,0.2-0.1,0.5-0.2,0.7c-0.2,0.2-0.4,0.3-0.6,0.3
				C351.7,24.3,343.6,24.6,343.6,24.6z"/>
			<g>
				<path class="st1" d="M351.3,16.8l0.4,6.7l-8.1,0.2v-3.3L351.3,16.8 M351.3,14.9c-0.3,0-0.5,0.1-0.8,0.2l-7.7,3.7
					c-0.6,0.3-1,0.9-1,1.6v3.3c0,0.5,0.2,1,0.6,1.3c0.3,0.3,0.8,0.5,1.3,0.5c0,0,0,0,0.1,0l8.1-0.2c0.5,0,1-0.2,1.3-0.6
					s0.5-0.8,0.5-1.3l-0.4-6.7c0-0.6-0.4-1.1-0.9-1.5C351.9,15,351.6,14.9,351.3,14.9L351.3,14.9z"/>
			</g>
		</g>
		<g class="st14">
			<polygon class="st13" points="343.6,20.4 343.6,23.7 350.8,23.7 351.3,21.6 			"/>
		</g>
		<g>
			<path class="st8" d="M321.9,37.5c-0.5,0-1-0.1-1.5-0.3c-2.1-0.9-3.3-3.3-2.8-5.5c0.4-1.7,1.8-2.8,3.4-2.8c0.5,0,1,0.1,1.5,0.3
				c2.1,0.9,3.3,3.3,2.8,5.5C324.9,36.3,323.5,37.5,321.9,37.5z"/>
			<path class="st1" d="M321,29.6c0.4,0,0.8,0.1,1.2,0.3c1.7,0.7,2.7,2.8,2.3,4.6c-0.3,1.4-1.4,2.2-2.6,2.2c-0.4,0-0.8-0.1-1.2-0.3
				c-1.7-0.7-2.7-2.8-2.3-4.6C318.7,30.4,319.7,29.6,321,29.6 M321,27.9L321,27.9c-2,0-3.7,1.4-4.2,3.5c-0.6,2.6,0.8,5.4,3.3,6.5
				c0.6,0.3,1.2,0.4,1.9,0.4c2,0,3.7-1.4,4.2-3.5c0.6-2.6-0.8-5.4-3.3-6.5C322.2,28.1,321.6,27.9,321,27.9L321,27.9z"/>
		</g>
		<ellipse transform="matrix(0.8924 -0.4513 0.4513 0.8924 19.6512 148.6073)" class="st11" cx="321.4" cy="33.1" rx="3" ry="3.6"/>
	</g>
	<g>
		<g>
			<path class="st8" d="M341.8,34.9c-0.4,0-0.8-0.1-1.1-0.3c-0.5-0.3-0.8-0.8-0.9-1.3s0-1.1,0.3-1.5c3-4.5,6.3-7.6,11.3-10.5
				l-2.8-0.3c-0.4-0.1-0.7-0.3-0.9-0.6c-0.3-0.6,0-1.3,0.4-2.1c0.1-0.2,0.3-0.5,0.3-0.7c0.2-1,1-1.7,2-1.7c0.1,0,0.2,0,0.3,0
				l8.8,1.4c0.9,0.1,1.6,0.9,1.7,1.8s-0.4,1.8-1.2,2.1c-7.5,3.1-12.9,7.3-16.5,12.8C343.2,34.5,342.6,34.9,341.8,34.9L341.8,34.9z"
				/>
			<path class="st1" d="M350.4,16.9c0.1,0,0.1,0,0.2,0l8.8,1.4c0.5,0.1,0.9,0.5,0.9,1c0.1,0.5-0.2,1-0.7,1.2
				c-7.7,3.2-13.2,7.5-16.9,13.1c-0.2,0.3-0.5,0.5-0.9,0.5h-0.1c-0.2,0-0.4-0.1-0.6-0.2c-0.5-0.3-0.7-1-0.3-1.6
				c3.3-5.1,7.1-8.4,13.5-11.6l-5.7-0.7c-0.6-0.1,0.5-1.6,0.6-2.3C349.4,17.3,349.9,16.9,350.4,16.9 M350.4,15L350.4,15
				c-1.4,0-2.6,1-2.9,2.4c0,0.1-0.1,0.3-0.2,0.5c-0.4,0.8-0.9,1.9-0.4,2.9c0.3,0.6,0.8,1,1.5,1.1l0,0l0,0h0.2
				c-3.9,2.6-6.7,5.5-9.3,9.4c-0.4,0.7-0.6,1.4-0.4,2.2c0.2,0.8,0.6,1.4,1.3,1.9c0.5,0.3,1,0.5,1.6,0.5c0.1,0,0.1,0,0.2,0
				c0.9-0.1,1.8-0.6,2.3-1.3c3.5-5.3,8.7-9.4,16.1-12.4c1.2-0.5,1.9-1.8,1.8-3.1c-0.2-1.3-1.2-2.4-2.5-2.6l-8.8-1.4
				C350.7,15.1,350.6,15,350.4,15L350.4,15z"/>
		</g>
	</g>
	<g>
		<path class="st9" d="M349.2,21.3l-5.4-0.6c-0.4,0-0.7-0.3-0.8-0.7s0.1-0.8,0.4-1l6.7-4.2c0.1-0.1,0.3-0.1,0.5-0.1h0.1l4.2,0.6
			c0.4,0.1,0.7,0.3,0.7,0.7s0,0.7-0.3,0.9l-5.4,4.2c-0.2,0.1-0.4,0.2-0.6,0.2C349.2,21.3,349.2,21.3,349.2,21.3z"/>
		<path class="st1" d="M350.5,15.6l4.2,0.6l-5.4,4.2l-5.4-0.6L350.5,15.6 M350.5,13.8c-0.3,0-0.7,0.1-1,0.3l-6.7,4.2
			c-0.6,0.4-1,1.2-0.8,1.9c0.2,0.7,0.8,1.3,1.6,1.4l5.4,0.6c0.1,0,0.1,0,0.2,0c0.4,0,0.8-0.1,1.1-0.4l5.4-4.2
			c0.6-0.4,0.8-1.2,0.6-1.9c-0.2-0.7-0.8-1.2-1.5-1.3l-4.2-0.6H350.5L350.5,13.8z"/>
	</g>
	<polygon class="st10" points="354.7,16.2 343.8,19.8 350.5,15.6 	"/>
</g>
<g id="eBikeTires">
	<g id="backTire">
		<g>
			<g>
				<line class="st15" x1="78.2" y1="208.6" x2="39.5" y2="188.6"/>
			</g>
			<line class="st15" x1="78.2" y1="208.6" x2="43.8" y2="180.7"/>
			<line class="st15" x1="81.9" y1="203.7" x2="45.6" y2="174.1"/>
			<line class="st15" x1="83.7" y1="199.5" x2="32.3" y2="203.7"/>
			<line class="st15" x1="84.3" y1="203.1" x2="34.1" y2="218.2"/>
			<line class="st15" x1="85.5" y1="197.1" x2="52.8" y2="168.6"/>
			<line class="st15" x1="99.4" y1="188" x2="52.8" y2="168.6"/>
			<line class="st15" x1="87.9" y1="194.6" x2="79.5" y2="149.3"/>
			<line class="st15" x1="87.9" y1="194.6" x2="71.6" y2="152.9"/>
			<line class="st15" x1="99.4" y1="188" x2="60.7" y2="162"/>
			<line class="st15" x1="81.9" y1="218.2" x2="43.2" y2="258.8"/>
			<line class="st15" x1="83.7" y1="223.1" x2="55.3" y2="269"/>
			<line class="st15" x1="85.5" y1="229.7" x2="35.9" y2="241.2"/>
			<line class="st15" x1="86.1" y1="226.1" x2="34.1" y2="227.3"/>
			<line class="st15" x1="92.2" y1="234" x2="90.9" y2="290.2"/>
			<line class="st15" x1="103.6" y1="235.2" x2="60.7" y2="275.1"/>
			<line class="st15" x1="106.1" y1="241.2" x2="71.6" y2="283.6"/>
			<line class="st15" x1="101.2" y1="238.2" x2="103.6" y2="290.8"/>
			<line class="st15" x1="107.9" y1="238.2" x2="141.8" y2="279.3"/>
			<line class="st15" x1="121.2" y1="233.4" x2="112.1" y2="289"/>
			<line class="st15" x1="124.8" y1="229.7" x2="128.5" y2="283.6"/>
			<line class="st15" x1="114.5" y1="234" x2="153.3" y2="269"/>
			<line class="st15" x1="158.1" y1="266.6" x2="132.7" y2="221.3"/>
			<line class="st15" x1="121.2" y1="229.7" x2="170.8" y2="240"/>
			<line class="st15" x1="168.4" y1="251.5" x2="132.1" y2="210.4"/>
			<line class="st15" x1="106.1" y1="185" x2="124.2" y2="150.5"/>
			<line class="st15" x1="103.6" y1="186.8" x2="115.1" y2="148.1"/>
			<line class="st15" x1="114.5" y1="188" x2="104.3" y2="146.8"/>
			<line class="st15" x1="114.5" y1="188" x2="94.6" y2="148.7"/>
			<line class="st15" x1="128.5" y1="198.9" x2="136.9" y2="155.3"/>
			<line class="st15" x1="116.4" y1="191" x2="158.7" y2="173.5"/>
			<line class="st15" x1="132.1" y1="208.6" x2="164.1" y2="185"/>
			<line class="st15" x1="170.8" y1="195.2" x2="131.5" y2="214.6"/>
			<line class="st15" x1="173.8" y1="203.7" x2="121.2" y2="197.7"/>
		</g>
		<g>
			<g>
				<g>
					<path class="st16" d="M103.6,317.7c-54.9,0-99.5-44.6-99.5-99.5s44.6-99.5,99.5-99.5s99.5,44.6,99.5,99.5
						C203.2,273.1,158.5,317.7,103.6,317.7z M103.6,147.1c-39.2,0-71.1,31.9-71.1,71.1s31.9,71.1,71.1,71.1s71.1-31.9,71.1-71.1
						S142.8,147.1,103.6,147.1z"/>
					<path d="M103.6,120.5c53.9,0,97.7,43.8,97.7,97.7s-43.8,97.7-97.7,97.7S6,272.1,6,218.2S49.8,120.5,103.6,120.5 M103.6,291.1
						c40.2,0,72.9-32.7,72.9-72.9s-32.7-72.9-72.9-72.9S30.8,178,30.8,218.2S63.5,291.1,103.6,291.1 M103.6,116.9
						c-55.9,0-101.3,45.5-101.3,101.3s45.5,101.3,101.3,101.3S205,274.1,205,218.2S159.5,116.9,103.6,116.9L103.6,116.9z
						 M103.6,287.5c-38.2,0-69.3-31.1-69.3-69.3S65.5,149,103.6,149s69.3,31.1,69.3,69.3S141.8,287.5,103.6,287.5L103.6,287.5z"/>
				</g>
			</g>
			<g>
				<g>
					<path class="st16" d="M103.6,316.5c-54.2,0-98.3-44.1-98.3-98.3s44.1-98.3,98.3-98.3S202,164,202,218.2
						S157.9,316.5,103.6,316.5z M103.6,145.9c-39.9,0-72.3,32.4-72.3,72.3s32.4,72.3,72.3,72.3s72.3-32.4,72.3-72.3
						C175.9,178.4,143.5,145.9,103.6,145.9z"/>
					<path class="st1" d="M103.6,120.5c53.9,0,97.7,43.8,97.7,97.7s-43.8,97.7-97.7,97.7S6,272.1,6,218.2S49.8,120.5,103.6,120.5
						 M103.6,291.1c40.2,0,72.9-32.7,72.9-72.9s-32.7-72.9-72.9-72.9S30.8,178,30.8,218.2S63.5,291.1,103.6,291.1 M103.6,119.3
						c-54.5,0-98.9,44.4-98.9,98.9s44.4,98.9,98.9,98.9s98.9-44.4,98.9-98.9S158.2,119.3,103.6,119.3L103.6,119.3z M103.6,289.9
						c-39.5,0-71.7-32.2-71.7-71.7s32.2-71.7,71.7-71.7s71.7,32.2,71.7,71.7S143.2,289.9,103.6,289.9L103.6,289.9z"/>
				</g>
			</g>
			<g>
				<path class="st17" d="M201.3,218.2c0,53.9-43.8,97.7-97.7,97.7c-28,0-53.3-11.9-71.1-30.8c17.5,16.5,41,26.6,66.9,26.6
					c53.9,0,97.7-43.8,97.7-97.7c0-25.9-10.1-49.4-26.6-66.9C189.5,164.9,201.3,190.2,201.3,218.2z"/>
			</g>
			<path class="st18" d="M183.6,162.2c-17.9-22.4-45.5-36.8-76.3-36.8c-53.9,0-97.7,43.8-97.7,97.7c0,20.8,6.6,40.2,17.7,56
				C13.9,262.4,6,241.2,6,218.2c0-53.9,43.8-97.7,97.7-97.7C136.7,120.5,165.9,137,183.6,162.2z"/>
			<path class="st18" d="M180.2,223.1c0,40.2-32.7,72.9-72.9,72.9c-24.9,0-47-12.6-60.1-31.7c13.4,16.4,33.7,26.9,56.5,26.9
				c40.2,0,72.9-32.7,72.9-72.9c0-15.3-4.7-29.5-12.8-41.2C174,189.6,180.2,205.6,180.2,223.1z"/>
			<g>
				<g>
					<path class="st19" d="M106,185c-15.5,0-28.1,12.6-28.1,28.1s12.6,28.1,28.1,28.1s28.1-12.6,28.1-28.1S121.5,185,106,185z
						 M124.1,213.1c0,3.5-1,6.8-2.8,9.6l-6.7-5.7c0.5-1.2,0.9-2.5,0.9-4c0-1-0.2-2-0.4-2.9l7.3-4.9
						C123.5,207.7,124.1,210.3,124.1,213.1z M103.5,214.2L103.5,214.2c0,0,0-0.1-0.1-0.1l0,0C103.5,214.1,103.5,214.1,103.5,214.2z
						 M103.8,214.6L103.8,214.6c-0.1-0.1-0.1-0.1-0.1-0.1C103.8,214.6,103.8,214.6,103.8,214.6z M107.6,211.1
						C107.6,211.1,107.7,211.1,107.6,211.1c0.1,0.1,0.1,0.1,0.1,0.1C107.7,211.1,107.7,211.1,107.6,211.1
						C107.6,211.1,107.6,211,107.6,211.1c-0.1-0.1-0.2-0.1-0.2-0.2l-0.1-0.1l0,0c0,0,0.1,0,0.1,0.1l0,0
						C107.5,210.9,107.5,211,107.6,211.1C107.6,211,107.6,211.1,107.6,211.1z M108.5,213.9v-0.1l0,0V213.9L108.5,213.9z
						 M106.6,215.7L106.6,215.7L106.6,215.7c-0.1,0-0.1,0-0.2,0C106.4,215.7,106.5,215.7,106.6,215.7z M107,215.6L107,215.6
						C107.1,215.5,107,215.5,107,215.6L107,215.6C106.9,215.6,106.9,215.6,107,215.6C106.9,215.6,106.9,215.6,107,215.6z
						 M107.1,215.5C107.2,215.5,107.2,215.5,107.1,215.5C107.2,215.4,107.2,215.5,107.1,215.5L107.1,215.5L107.1,215.5z
						 M107.5,215.3c0.1,0,0.1-0.1,0.2-0.2C107.6,215.2,107.6,215.2,107.5,215.3L107.5,215.3L107.5,215.3c-0.1,0.1-0.2,0.1-0.2,0.1
						S107.4,215.3,107.5,215.3z M105.7,210.5L105.7,210.5c-0.2,0-0.3,0-0.4,0.1c-0.1,0-0.1,0-0.2,0c-0.2,0.1-0.5,0.2-0.7,0.3
						c0,0-0.1,0-0.1,0.1c0,0,0,0,0.1,0l0,0l0.6-0.4L105.7,210.5z M106,194.9c5.3,0,10.2,2.3,13.5,6l-7.3,4.9
						c-1.7-1.4-3.8-2.3-6.2-2.3c-0.1,0-0.2,0-0.3,0l-2.7-8.4C104,195,105,194.9,106,194.9z M98,196.8l2.7,8.4
						c-1.9,1.3-3.4,3.3-4,5.6l-8.8,0.3C88.6,204.8,92.5,199.5,98,196.8z M88.1,216.3l8.8-0.3c0.7,2.3,2.3,4.2,4.3,5.4l-2.1,8.5
						C93.4,227.6,89.2,222.5,88.1,216.3z M106,231.3c-0.6,0-1.2,0-1.8-0.1l2.1-8.5c1.8-0.1,3.6-0.6,5-1.6l6.7,5.7
						C114.8,229.6,110.6,231.3,106,231.3z"/>
				</g>
			</g>
		</g>
		<g>
			<g>
				<g>
					<path class="st16" d="M103.6,317.7c-54.9,0-99.5-44.6-99.5-99.5s44.6-99.5,99.5-99.5s99.5,44.6,99.5,99.5
						C203.2,273.1,158.5,317.7,103.6,317.7z M103.6,147.1c-39.2,0-71.1,31.9-71.1,71.1s31.9,71.1,71.1,71.1s71.1-31.9,71.1-71.1
						S142.8,147.1,103.6,147.1z"/>
					<path d="M103.6,120.5c53.9,0,97.7,43.8,97.7,97.7s-43.8,97.7-97.7,97.7S6,272.1,6,218.2S49.8,120.5,103.6,120.5 M103.6,291.1
						c40.2,0,72.9-32.7,72.9-72.9s-32.7-72.9-72.9-72.9S30.8,178,30.8,218.2S63.5,291.1,103.6,291.1 M103.6,116.9
						c-55.9,0-101.3,45.5-101.3,101.3s45.5,101.3,101.3,101.3S205,274.1,205,218.2S159.5,116.9,103.6,116.9L103.6,116.9z
						 M103.6,287.5c-38.2,0-69.3-31.1-69.3-69.3S65.5,149,103.6,149s69.3,31.1,69.3,69.3S141.8,287.5,103.6,287.5L103.6,287.5z"/>
				</g>
			</g>
			<g>
				<g>
					<path class="st16" d="M103.6,316.5c-54.2,0-98.3-44.1-98.3-98.3s44.1-98.3,98.3-98.3S202,164,202,218.2
						S157.9,316.5,103.6,316.5z M103.6,145.9c-39.9,0-72.3,32.4-72.3,72.3s32.4,72.3,72.3,72.3s72.3-32.4,72.3-72.3
						C175.9,178.4,143.5,145.9,103.6,145.9z"/>
					<path class="st1" d="M103.6,120.5c53.9,0,97.7,43.8,97.7,97.7s-43.8,97.7-97.7,97.7S6,272.1,6,218.2S49.8,120.5,103.6,120.5
						 M103.6,291.1c40.2,0,72.9-32.7,72.9-72.9s-32.7-72.9-72.9-72.9S30.8,178,30.8,218.2S63.5,291.1,103.6,291.1 M103.6,119.3
						c-54.5,0-98.9,44.4-98.9,98.9s44.4,98.9,98.9,98.9s98.9-44.4,98.9-98.9S158.2,119.3,103.6,119.3L103.6,119.3z M103.6,289.9
						c-39.5,0-71.7-32.2-71.7-71.7s32.2-71.7,71.7-71.7s71.7,32.2,71.7,71.7S143.2,289.9,103.6,289.9L103.6,289.9z"/>
				</g>
			</g>
			<g>
				<path class="st17" d="M201.3,218.2c0,53.9-43.8,97.7-97.7,97.7c-28,0-53.3-11.9-71.1-30.8c17.5,16.5,41,26.6,66.9,26.6
					c53.9,0,97.7-43.8,97.7-97.7c0-25.9-10.1-49.4-26.6-66.9C189.5,164.9,201.3,190.2,201.3,218.2z"/>
			</g>
			<path class="st20" d="M183.6,162.2c-17.9-22.4-45.5-36.8-76.3-36.8c-53.9,0-97.7,43.8-97.7,97.7c0,20.8,6.6,40.2,17.7,56
				C13.9,262.4,6,241.2,6,218.2c0-53.9,43.8-97.7,97.7-97.7C136.7,120.5,165.9,137,183.6,162.2z"/>
			<path class="st21" d="M180.2,223.1c0,40.2-32.7,72.9-72.9,72.9c-24.9,0-47-12.6-60.1-31.7c13.4,16.4,33.7,26.9,56.5,26.9
				c40.2,0,72.9-32.7,72.9-72.9c0-15.3-4.7-29.5-12.8-41.2C174,189.6,180.2,205.6,180.2,223.1z"/>
			<g>
				<g>
					<path class="st19" d="M106,185c-15.5,0-28.1,12.6-28.1,28.1s12.6,28.1,28.1,28.1s28.1-12.6,28.1-28.1S121.5,185,106,185z
						 M124.1,213.1c0,3.5-1,6.8-2.8,9.6l-6.7-5.7c0.5-1.2,0.9-2.5,0.9-4c0-1-0.2-2-0.4-2.9l7.3-4.9
						C123.5,207.7,124.1,210.3,124.1,213.1z M103.5,214.2L103.5,214.2c0,0,0-0.1-0.1-0.1l0,0C103.5,214.1,103.5,214.1,103.5,214.2z
						 M103.8,214.6L103.8,214.6c-0.1-0.1-0.1-0.1-0.1-0.1C103.8,214.6,103.8,214.6,103.8,214.6z M107.6,211.1
						C107.6,211.1,107.7,211.1,107.6,211.1c0.1,0.1,0.1,0.1,0.1,0.1C107.7,211.1,107.7,211.1,107.6,211.1
						C107.6,211.1,107.6,211,107.6,211.1c-0.1-0.1-0.2-0.1-0.2-0.2l-0.1-0.1l0,0c0,0,0.1,0,0.1,0.1l0,0
						C107.5,210.9,107.5,211,107.6,211.1C107.6,211,107.6,211.1,107.6,211.1z M108.5,213.9v-0.1l0,0V213.9L108.5,213.9z
						 M106.6,215.7L106.6,215.7L106.6,215.7c-0.1,0-0.1,0-0.2,0C106.4,215.7,106.5,215.7,106.6,215.7z M107,215.6L107,215.6
						C107.1,215.5,107,215.5,107,215.6L107,215.6C106.9,215.6,106.9,215.6,107,215.6C106.9,215.6,106.9,215.6,107,215.6z
						 M107.1,215.5C107.2,215.5,107.2,215.5,107.1,215.5C107.2,215.4,107.2,215.5,107.1,215.5L107.1,215.5L107.1,215.5z
						 M107.5,215.3c0.1,0,0.1-0.1,0.2-0.2C107.6,215.2,107.6,215.2,107.5,215.3L107.5,215.3L107.5,215.3c-0.1,0.1-0.2,0.1-0.2,0.1
						S107.4,215.3,107.5,215.3z M105.7,210.5L105.7,210.5c-0.2,0-0.3,0-0.4,0.1c-0.1,0-0.1,0-0.2,0c-0.2,0.1-0.5,0.2-0.7,0.3
						c0,0-0.1,0-0.1,0.1c0,0,0,0,0.1,0l0,0l0.6-0.4L105.7,210.5z M106,194.9c5.3,0,10.2,2.3,13.5,6l-7.3,4.9
						c-1.7-1.4-3.8-2.3-6.2-2.3c-0.1,0-0.2,0-0.3,0l-2.7-8.4C104,195,105,194.9,106,194.9z M98,196.8l2.7,8.4
						c-1.9,1.3-3.4,3.3-4,5.6l-8.8,0.3C88.6,204.8,92.5,199.5,98,196.8z M88.1,216.3l8.8-0.3c0.7,2.3,2.3,4.2,4.3,5.4l-2.1,8.5
						C93.4,227.6,89.2,222.5,88.1,216.3z M106,231.3c-0.6,0-1.2,0-1.8-0.1l2.1-8.5c1.8-0.1,3.6-0.6,5-1.6l6.7,5.7
						C114.8,229.6,110.6,231.3,106,231.3z"/>
				</g>
			</g>
		</g>
	</g>
	<g id="frontTire">
		<g>
			<g>
				<line class="st15" x1="372.8" y1="208.8" x2="334.1" y2="188.8"/>
			</g>
			<line class="st15" x1="372.8" y1="208.8" x2="338.4" y2="180.9"/>
			<line class="st15" x1="376.5" y1="203.9" x2="340.2" y2="174.3"/>
			<line class="st15" x1="378.3" y1="199.7" x2="326.9" y2="203.9"/>
			<line class="st15" x1="378.9" y1="203.3" x2="328.7" y2="218.5"/>
			<line class="st15" x1="380.1" y1="197.3" x2="347.4" y2="168.9"/>
			<line class="st15" x1="394" y1="188.2" x2="347.4" y2="168.9"/>
			<line class="st15" x1="382.5" y1="194.9" x2="374.1" y2="149.5"/>
			<line class="st15" x1="382.5" y1="194.9" x2="366.2" y2="153.1"/>
			<line class="st15" x1="394" y1="188.2" x2="355.3" y2="162.2"/>
			<line class="st15" x1="376.5" y1="218.5" x2="337.8" y2="259"/>
			<line class="st15" x1="378.3" y1="223.3" x2="349.9" y2="269.3"/>
			<line class="st15" x1="380.1" y1="229.9" x2="330.5" y2="241.4"/>
			<line class="st15" x1="380.7" y1="226.3" x2="328.7" y2="227.5"/>
			<line class="st15" x1="386.8" y1="234.2" x2="385.5" y2="290.4"/>
			<line class="st15" x1="398.3" y1="235.4" x2="355.3" y2="275.3"/>
			<line class="st15" x1="400.7" y1="241.4" x2="366.2" y2="283.8"/>
			<line class="st15" x1="395.8" y1="238.4" x2="398.3" y2="291"/>
			<line class="st15" x1="402.5" y1="238.4" x2="436.4" y2="279.6"/>
			<line class="st15" x1="415.8" y1="233.6" x2="406.7" y2="289.2"/>
			<line class="st15" x1="419.4" y1="229.9" x2="423.1" y2="283.8"/>
			<line class="st15" x1="409.1" y1="234.2" x2="447.9" y2="269.3"/>
			<line class="st15" x1="452.7" y1="266.9" x2="427.3" y2="221.5"/>
			<line class="st15" x1="415.8" y1="229.9" x2="465.4" y2="240.2"/>
			<line class="st15" x1="463" y1="251.7" x2="426.7" y2="210.6"/>
			<line class="st15" x1="400.7" y1="185.2" x2="418.8" y2="150.7"/>
			<line class="st15" x1="398.3" y1="187" x2="409.7" y2="148.3"/>
			<line class="st15" x1="409.1" y1="188.2" x2="398.9" y2="147.1"/>
			<line class="st15" x1="409.1" y1="188.2" x2="389.2" y2="148.9"/>
			<line class="st15" x1="423.1" y1="199.1" x2="431.5" y2="155.5"/>
			<line class="st15" x1="411" y1="191.2" x2="453.3" y2="173.7"/>
			<line class="st15" x1="426.7" y1="208.8" x2="458.7" y2="185.2"/>
			<line class="st15" x1="465.4" y1="195.5" x2="426.1" y2="214.8"/>
			<line class="st15" x1="468.4" y1="203.9" x2="415.8" y2="197.9"/>
		</g>
		<g>
			<g>
				<g>
					<path class="st16" d="M398.3,318c-54.9,0-99.5-44.6-99.5-99.5s44.6-99.5,99.5-99.5s99.5,44.6,99.5,99.5
						C497.8,273.3,453.1,318,398.3,318z M398.3,147.4c-39.2,0-71.1,31.9-71.1,71.1s31.9,71.1,71.1,71.1s71.1-31.9,71.1-71.1
						S437.4,147.4,398.3,147.4z"/>
					<path class="st1" d="M398.3,120.8c53.9,0,97.7,43.8,97.7,97.7s-43.8,97.7-97.7,97.7s-97.7-43.8-97.7-97.7
						S344.4,120.8,398.3,120.8 M398.3,291.4c40.2,0,72.9-32.7,72.9-72.9s-32.7-72.9-72.9-72.9s-72.9,32.7-72.9,72.9
						C325.4,258.6,358.1,291.4,398.3,291.4 M398.3,117.1c-55.9,0-101.3,45.5-101.3,101.3s45.5,101.3,101.3,101.3
						s101.3-45.5,101.3-101.3S454.1,117.1,398.3,117.1L398.3,117.1z M398.3,287.7c-38.2,0-69.3-31.1-69.3-69.3s31.1-69.3,69.3-69.3
						s69.3,31.1,69.3,69.3S436.4,287.7,398.3,287.7L398.3,287.7z"/>
				</g>
			</g>
			<g>
				<path class="st17" d="M496,218.5c0,53.9-43.8,97.7-97.7,97.7c-28,0-53.3-11.9-71.1-30.8c17.5,16.5,41,26.6,66.9,26.6
					c53.9,0,97.7-43.8,97.7-97.7c0-25.9-10.1-49.4-26.6-66.9C484.1,165.2,496,190.4,496,218.5z"/>
			</g>
			<path class="st18" d="M478.2,162.4c-17.9-22.4-45.5-36.8-76.3-36.8c-53.9,0-97.7,43.8-97.7,97.7c0,20.8,6.6,40.2,17.7,56
				c-13.4-16.7-21.3-37.9-21.3-60.9c0-53.9,43.8-97.7,97.7-97.7C431.3,120.8,460.5,137.2,478.2,162.4z"/>
			<path class="st18" d="M474.8,223.3c0,40.2-32.7,72.9-72.9,72.9c-24.9,0-47-12.6-60.1-31.7c13.4,16.4,33.7,26.9,56.5,26.9
				c40.2,0,72.9-32.7,72.9-72.9c0-15.3-4.7-29.5-12.8-41.2C468.6,189.8,474.8,205.9,474.8,223.3z"/>
			<g>
				<g>
					<path class="st19" d="M400.6,185.2c-15.5,0-28.1,12.6-28.1,28.1s12.6,28.1,28.1,28.1s28.1-12.6,28.1-28.1
						C428.7,197.8,416.1,185.2,400.6,185.2z M418.8,213.3c0,3.5-1,6.8-2.8,9.6l-6.7-5.7c0.5-1.2,0.9-2.5,0.9-4c0-1-0.2-2-0.4-2.9
						l7.3-4.9C418.1,207.9,418.8,210.6,418.8,213.3z M398.1,214.4C398.1,214.4,398.2,214.4,398.1,214.4c0,0,0-0.1-0.1-0.1l0,0
						C398.1,214.3,398.1,214.3,398.1,214.4z M398.4,214.9C398.4,214.9,398.4,214.8,398.4,214.9c-0.1-0.1-0.1-0.1-0.1-0.1
						C398.4,214.8,398.4,214.8,398.4,214.9z M402.2,211.3C402.3,211.3,402.3,211.3,402.2,211.3c0.1,0.1,0.1,0.1,0.1,0.1
						C402.3,211.4,402.3,211.3,402.2,211.3L402.2,211.3c-0.1-0.1-0.2-0.1-0.2-0.2l-0.1-0.1l0,0c0,0,0.1,0,0.1,0.1l0,0
						C402.1,211.2,402.1,211.2,402.2,211.3L402.2,211.3z M403.1,214.2v-0.1l0,0V214.2C403.1,214.1,403.1,214.1,403.1,214.2z
						 M401.2,215.9h0.1C401.3,215.9,401.2,215.9,401.2,215.9c-0.1,0-0.1,0-0.2,0C401,215.9,401.1,215.9,401.2,215.9z M401.6,215.8
						h0.1H401.6L401.6,215.8C401.5,215.8,401.5,215.8,401.6,215.8C401.5,215.8,401.5,215.8,401.6,215.8z M401.7,215.7
						C401.8,215.7,401.8,215.7,401.7,215.7C401.8,215.7,401.8,215.7,401.7,215.7L401.7,215.7L401.7,215.7z M402.1,215.5
						c0.1,0,0.1-0.1,0.2-0.2C402.2,215.4,402.2,215.4,402.1,215.5L402.1,215.5L402.1,215.5c-0.1,0.1-0.2,0.1-0.2,0.1
						S402,215.5,402.1,215.5z M400.3,210.7L400.3,210.7c-0.2,0-0.3,0-0.4,0.1c-0.1,0-0.1,0-0.2,0c-0.2,0.1-0.5,0.2-0.7,0.3
						c0,0-0.1,0-0.1,0.1c0,0,0,0,0.1,0l0,0l0.6-0.4L400.3,210.7z M400.6,195.2c5.3,0,10.2,2.3,13.5,6l-7.3,4.9
						c-1.7-1.4-3.8-2.3-6.2-2.3c-0.1,0-0.2,0-0.3,0l-2.7-8.4C398.6,195.2,399.6,195.2,400.6,195.2z M392.6,197l2.7,8.4
						c-1.9,1.3-3.4,3.3-4,5.6l-8.8,0.3C383.2,205,387.1,199.7,392.6,197z M382.7,216.5l8.8-0.3c0.7,2.3,2.3,4.2,4.3,5.4l-2.1,8.5
						C388,227.8,383.8,222.7,382.7,216.5z M400.6,231.5c-0.6,0-1.2,0-1.8-0.1l2.1-8.5c1.8-0.1,3.6-0.6,5-1.6l6.7,5.7
						C409.4,229.8,405.2,231.5,400.6,231.5z"/>
				</g>
			</g>
		</g>
		<g>
			<g>
				<g>
					<path class="st16" d="M398.3,318c-54.9,0-99.5-44.6-99.5-99.5s44.6-99.5,99.5-99.5s99.5,44.6,99.5,99.5
						C497.8,273.3,453.1,318,398.3,318z M398.3,147.4c-39.2,0-71.1,31.9-71.1,71.1s31.9,71.1,71.1,71.1s71.1-31.9,71.1-71.1
						S437.4,147.4,398.3,147.4z"/>
					<path class="st1" d="M398.3,120.8c53.9,0,97.7,43.8,97.7,97.7s-43.8,97.7-97.7,97.7s-97.7-43.8-97.7-97.7
						S344.4,120.8,398.3,120.8 M398.3,291.4c40.2,0,72.9-32.7,72.9-72.9s-32.7-72.9-72.9-72.9s-72.9,32.7-72.9,72.9
						C325.4,258.6,358.1,291.4,398.3,291.4 M398.3,117.1c-55.9,0-101.3,45.5-101.3,101.3s45.5,101.3,101.3,101.3
						s101.3-45.5,101.3-101.3S454.1,117.1,398.3,117.1L398.3,117.1z M398.3,287.7c-38.2,0-69.3-31.1-69.3-69.3s31.1-69.3,69.3-69.3
						s69.3,31.1,69.3,69.3S436.4,287.7,398.3,287.7L398.3,287.7z"/>
				</g>
			</g>
			<g>
				<path class="st17" d="M496,218.5c0,53.9-43.8,97.7-97.7,97.7c-28,0-53.3-11.9-71.1-30.8c17.5,16.5,41,26.6,66.9,26.6
					c53.9,0,97.7-43.8,97.7-97.7c0-25.9-10.1-49.4-26.6-66.9C484.1,165.2,496,190.4,496,218.5z"/>
			</g>
			<path class="st20" d="M478.2,162.4c-17.9-22.4-45.5-36.8-76.3-36.8c-53.9,0-97.7,43.8-97.7,97.7c0,20.8,6.6,40.2,17.7,56
				c-13.4-16.7-21.3-37.9-21.3-60.9c0-53.9,43.8-97.7,97.7-97.7C431.3,120.8,460.5,137.2,478.2,162.4z"/>
			<path class="st21" d="M474.8,223.3c0,40.2-32.7,72.9-72.9,72.9c-24.9,0-47-12.6-60.1-31.7c13.4,16.4,33.7,26.9,56.5,26.9
				c40.2,0,72.9-32.7,72.9-72.9c0-15.3-4.7-29.5-12.8-41.2C468.6,189.8,474.8,205.9,474.8,223.3z"/>
			<g>
				<g>
					<path class="st19" d="M400.6,185.2c-15.5,0-28.1,12.6-28.1,28.1s12.6,28.1,28.1,28.1s28.1-12.6,28.1-28.1
						C428.7,197.8,416.1,185.2,400.6,185.2z M418.8,213.3c0,3.5-1,6.8-2.8,9.6l-6.7-5.7c0.5-1.2,0.9-2.5,0.9-4c0-1-0.2-2-0.4-2.9
						l7.3-4.9C418.1,207.9,418.8,210.6,418.8,213.3z M398.1,214.4C398.1,214.4,398.2,214.4,398.1,214.4c0,0,0-0.1-0.1-0.1l0,0
						C398.1,214.3,398.1,214.3,398.1,214.4z M398.4,214.9C398.4,214.9,398.4,214.8,398.4,214.9c-0.1-0.1-0.1-0.1-0.1-0.1
						C398.4,214.8,398.4,214.8,398.4,214.9z M402.2,211.3C402.3,211.3,402.3,211.3,402.2,211.3c0.1,0.1,0.1,0.1,0.1,0.1
						C402.3,211.4,402.3,211.3,402.2,211.3L402.2,211.3c-0.1-0.1-0.2-0.1-0.2-0.2l-0.1-0.1l0,0c0,0,0.1,0,0.1,0.1l0,0
						C402.1,211.2,402.1,211.2,402.2,211.3L402.2,211.3z M403.1,214.2v-0.1l0,0V214.2C403.1,214.1,403.1,214.1,403.1,214.2z
						 M401.2,215.9h0.1C401.3,215.9,401.2,215.9,401.2,215.9c-0.1,0-0.1,0-0.2,0C401,215.9,401.1,215.9,401.2,215.9z M401.6,215.8
						h0.1H401.6L401.6,215.8C401.5,215.8,401.5,215.8,401.6,215.8C401.5,215.8,401.5,215.8,401.6,215.8z M401.7,215.7
						C401.8,215.7,401.8,215.7,401.7,215.7C401.8,215.7,401.8,215.7,401.7,215.7L401.7,215.7L401.7,215.7z M402.1,215.5
						c0.1,0,0.1-0.1,0.2-0.2C402.2,215.4,402.2,215.4,402.1,215.5L402.1,215.5L402.1,215.5c-0.1,0.1-0.2,0.1-0.2,0.1
						S402,215.5,402.1,215.5z M400.3,210.7L400.3,210.7c-0.2,0-0.3,0-0.4,0.1c-0.1,0-0.1,0-0.2,0c-0.2,0.1-0.5,0.2-0.7,0.3
						c0,0-0.1,0-0.1,0.1c0,0,0,0,0.1,0l0,0l0.6-0.4L400.3,210.7z M400.6,195.2c5.3,0,10.2,2.3,13.5,6l-7.3,4.9
						c-1.7-1.4-3.8-2.3-6.2-2.3c-0.1,0-0.2,0-0.3,0l-2.7-8.4C398.6,195.2,399.6,195.2,400.6,195.2z M392.6,197l2.7,8.4
						c-1.9,1.3-3.4,3.3-4,5.6l-8.8,0.3C383.2,205,387.1,199.7,392.6,197z M382.7,216.5l8.8-0.3c0.7,2.3,2.3,4.2,4.3,5.4l-2.1,8.5
						C388,227.8,383.8,222.7,382.7,216.5z M400.6,231.5c-0.6,0-1.2,0-1.8-0.1l2.1-8.5c1.8-0.1,3.6-0.6,5-1.6l6.7,5.7
						C409.4,229.8,405.2,231.5,400.6,231.5z"/>
				</g>
			</g>
		</g>
	</g>
</g>
<g id="eBikeFrame">
	<path class="st22" d="M238.1,188.9c-4-4-4.5-10.1-1.1-14.6l37.1-50.7c1.5-2.1,3.7-3.6,6.2-4.2l9.9-2.6c0.5-0.1,1.1-0.2,1.6-0.3
		c0.4-0.1,0.9-0.1,1.3-0.1c2.3,0,4.6,0.7,6.5,2.1l7.1,5l-56.2,77.8L238.1,188.9z"/>
	<path class="st1" d="M293.1,117.2c2.1,0,4.2,0.7,6,1.9l6.3,4.5l-55,76.2l-11.6-11.5c-3.6-3.6-4.1-9.3-1.1-13.5l35.7-48.8l1.4-1.9
		c1.4-1.9,3.4-3.3,5.7-3.9l9.9-2.6c0.5-0.1,1-0.2,1.5-0.3C292.3,117.2,292.7,117.2,293.1,117.2 M293.1,115.4L293.1,115.4
		c-0.5,0-0.9,0-1.4,0.1c-0.6,0.1-1.2,0.2-1.8,0.3l-9.9,2.6c-2.7,0.7-5.1,2.3-6.7,4.6l-1.4,1.9l-35.7,48.8
		c-3.6,4.9-3.1,11.5,1.2,15.8L249,201l1.5,1.5l1.2-1.7l55-76.2l1.1-1.5l-1.5-1.1l-6.3-4.5C298.1,116.2,295.6,115.4,293.1,115.4
		L293.1,115.4z"/>
	<polygon class="st23" points="272.9,132 271.4,134.1 269,132 270.8,129.6 	"/>
	<polygon class="st23" points="269.9,137.3 269.3,138 268.8,137.6 266.3,135.8 267,134.7 269.3,136.8 	"/>
	<path class="st23" d="M295.1,126l-17.5,6.8l-4.1-6.8l1.4-1.9c1.4-1.9,3.4-3.3,5.7-3.9l9.9-2.6c0.5-0.1,1-0.2,1.5-0.3L295.1,126z"/>
	<path class="st24" d="M251.6,203.4L240,191.9c-3.6-3.6-4.1-9.3-1.1-13.5l37.1-50.7c1.4-1.9,3.4-3.3,5.7-3.9l9.9-2.6
		c3-0.8,6.1-0.2,8.6,1.5l6.3,4.5L251.6,203.4z"/>
	<path class="st25" d="M275.1,119.9"/>
	<path class="st25" d="M277.6,124.8"/>
	<path class="st22" d="M238.1,188.9c-4-4-4.5-10.1-1.1-14.6l37.1-50.7c1.5-2.1,3.7-3.6,6.2-4.2l9.9-2.6c0.5-0.1,1.1-0.2,1.6-0.3
		c0.4-0.1,0.9-0.1,1.3-0.1c2.3,0,4.6,0.7,6.5,2.1l7.1,5l-56.2,77.8L238.1,188.9z"/>
	<path class="st1" d="M293.1,117.2c2.1,0,4.2,0.7,6,1.9l6.3,4.5l-55,76.2l-11.6-11.5c-3.6-3.6-4.1-9.3-1.1-13.5l35.7-48.8l1.4-1.9
		c1.4-1.9,3.4-3.3,5.7-3.9l9.9-2.6c0.5-0.1,1-0.2,1.5-0.3C292.3,117.2,292.7,117.2,293.1,117.2 M293.1,115.4L293.1,115.4
		c-0.5,0-0.9,0-1.4,0.1c-0.6,0.1-1.2,0.2-1.8,0.3l-9.9,2.6c-2.7,0.7-5.1,2.3-6.7,4.6l-1.4,1.9l-35.7,48.8
		c-3.6,4.9-3.1,11.5,1.2,15.8L249,201l1.5,1.5l1.2-1.7l55-76.2l1.1-1.5l-1.5-1.1l-6.3-4.5C298.1,116.2,295.6,115.4,293.1,115.4
		L293.1,115.4z"/>
	<polygon class="st23" points="272.9,132 271.4,134.1 269,132 270.8,129.6 	"/>
	<polygon class="st23" points="269.9,137.3 269.3,138 268.8,137.6 266.3,135.8 267,134.7 269.3,136.8 	"/>
	<path class="st23" d="M295.1,126l-17.5,6.8l-4.1-6.8l1.4-1.9c1.4-1.9,3.4-3.3,5.7-3.9l9.9-2.6c0.5-0.1,1-0.2,1.5-0.3L295.1,126z"/>
	<path class="st26" d="M239.3,192.5c-4-4-4.5-10.1-1.1-14.6l37.1-50.7c1.5-2.1,3.7-3.6,6.2-4.2l9.9-2.6c0.9-0.3,1.9-0.4,2.9-0.4
		c2.3,0,4.6,0.7,6.5,2.1l7.1,5l-56.2,77.8L239.3,192.5z"/>
	<path class="st1" d="M294.3,120.8c2.1,0,4.2,0.7,6,1.9l6.3,4.5l-55,76.2L240,191.9c-3.6-3.6-4.1-9.3-1.1-13.5l37.1-50.7
		c1.4-1.9,3.4-3.3,5.7-3.9l9.9-2.6C292.5,120.9,293.4,120.8,294.3,120.8 M294.3,119L294.3,119c-1.1,0-2.1,0.1-3.1,0.4l-9.9,2.6
		c-2.7,0.7-5.1,2.3-6.7,4.6l-37.1,50.7c-3.6,4.9-3.1,11.5,1.2,15.8l11.6,11.5l1.5,1.5l1.2-1.7l55-76.2l1.1-1.5l-1.5-1.1l-6.3-4.5
		C299.3,119.8,296.8,119,294.3,119L294.3,119z"/>
	<path class="st25" d="M275.1,119.9"/>
	<path class="st25" d="M277.6,124.8"/>
	<path class="st5" d="M251.9,189.9l-10.4-7.3l4-5.8l1.2,0.8l-2.4,3.5l3.5,2.4l1.6-2.3l1.2,0.8l-1.6,2.3l3.5,2.4l2.4-3.5l1.2,0.8
		L251.9,189.9z"/>
	<path class="st5" d="M252.1,179.6l-1.2-0.8l4-5.8l1.2,0.8L252.1,179.6z"/>
	<path class="st5" d="M262,175.3l-10.4-7.3l3.2-4.6c0.4-0.6,1-1,1.8-1.2c0.8-0.1,1.5,0,2.1,0.5l0.6,0.4c0.5,0.4,0.9,0.9,1.1,1.6
		c0.2,0.7,0.1,1.5-0.5,2.3l0.8-1.2c0.2-0.3,0.5-0.5,0.9-0.6s0.7,0,1.1,0.2l4.1,2.9l-1.6,2.3l-3.5-2.4c-0.3-0.2-0.7-0.3-1.1-0.2
		s-0.7,0.3-0.9,0.6l-0.8,1.2l4.6,3.2L262,175.3z M257.8,169l0.8-1.2c0.2-0.3,0.3-0.7,0.2-1.1c-0.1-0.4-0.3-0.7-0.6-0.9L257,165
		c-0.3-0.2-0.7-0.3-1.1-0.2s-0.7,0.3-0.9,0.6l-0.8,1.2L257.8,169z"/>
	<path class="st5" d="M268.9,165.4l-8.1-5.6L260,161l-1.2-0.8l0.5-3.1l0.8-1.2l10.4,7.3L268.9,165.4z"/>
	<path class="st5" d="M272.4,160.4l-10.4-7.3l3.2-4.6c0.4-0.6,1-1,1.8-1.2c0.8-0.1,1.5,0,2.1,0.5l5.8,4c0.6,0.4,1,1,1.2,1.8
		c0.1,0.8,0,1.5-0.4,2.1L272.4,160.4z M272.8,157.2l0.8-1.2c0.2-0.3,0.3-0.7,0.2-1.1c-0.1-0.4-0.3-0.7-0.6-0.9l-5.8-4
		c-0.3-0.2-0.7-0.3-1.1-0.2s-0.7,0.3-0.9,0.6l-0.8,1.2L272.8,157.2z"/>
	<path class="st5" d="M278.8,151.1l-10.4-7.3l3.2-4.6c0.4-0.6,1-1,1.8-1.2c0.8-0.1,1.5,0,2.1,0.5l0.6,0.4c0.5,0.4,0.9,0.9,1.1,1.6
		c0.2,0.7,0.1,1.5-0.5,2.3l0.8-1.2c0.2-0.3,0.5-0.5,0.9-0.6s0.7,0,1.1,0.2l4.1,2.9l-1.6,2.3l-3.5-2.4c-0.3-0.2-0.7-0.3-1.1-0.2
		s-0.7,0.3-0.9,0.6l-0.8,1.2l4.6,3.2L278.8,151.1z M274.6,144.7l0.8-1.2c0.2-0.3,0.3-0.7,0.2-1.1c-0.1-0.4-0.3-0.7-0.6-0.9l-1.2-0.8
		c-0.3-0.2-0.7-0.3-1.1-0.2s-0.7,0.3-0.9,0.6l-0.8,1.2L274.6,144.7z"/>
	<path class="st5" d="M233.8,189.9"/>
	<polygon class="st22" points="255.9,184.1 251.9,189.9 241.4,182.6 242.8,180.7 246.1,177.3 246.6,177.6 244.2,181.1 247.7,183.5 
		249.3,181.2 250.4,182 248.8,184.3 252.3,186.7 254.7,183.3 	"/>
	<polygon class="st22" points="256.1,173.8 252.1,179.6 250.9,178.8 255,173 	"/>
	<path class="st22" d="M283.7,144.1l-1.6,2.3l-3.5-2.4l-0.1-0.1l2-2.1L283.7,144.1z"/>
	<polygon class="st22" points="280.4,148.8 278.8,151.1 274.5,148.1 276.5,146 	"/>
	<path class="st22" d="M275.6,155.7l-3.2,4.6l-5.9-4.1l2-2.1l4.3,3l0.8-1.2c0.2-0.3,0.3-0.7,0.2-1.1c-0.1-0.4-0.3-0.7-0.6-0.9
		l-2.8-2l2-2.1l2.4,1.7c0.6,0.4,1,1,1.2,1.8C276.2,154.4,276,155.1,275.6,155.7z"/>
	<polygon class="st22" points="270.5,163.1 268.9,165.4 262.2,160.7 264.2,158.7 	"/>
	<path class="st22" d="M259.8,168.6l-0.8,1.2l4.6,3.2l-1.6,2.3l-8.4-5.8l2-2.1l2.2,1.5l0.8-1.2c0.2-0.3,0.3-0.7,0.2-1.1
		c-0.1-0.4-0.3-0.7-0.6-0.9l-0.6-0.4l2-2c0.4,0.3,0.7,0.8,0.9,1.4c0.2,0.7,0.1,1.5-0.5,2.3l0.8-1.1c0.2-0.3,0.5-0.5,0.9-0.6
		s0.7,0,1.1,0.2l4.1,2.9l-1.6,2.3l-3.5-2.4c-0.3-0.2-0.7-0.3-1.1-0.2C260.3,168.1,260,168.3,259.8,168.6z"/>
	<path class="st3" d="M235.8,238.8c-0.3,0-0.6,0-0.8-0.1l-131.9-20c-2-0.3-3.6-1.6-4.4-3.3c-0.4-0.9-0.6-2-0.5-3
		c0.1-0.9,0.4-1.7,0.9-2.5c0.8-1.2,19.4-29.3,44.2-49.1c22.1-17.7,46.7-32.7,53.2-36.6l-12.1-39.5c-0.2-0.7-0.1-1.5,0.4-2.2
		c1.3-1.8,4.9-3,7.3-3c2.3,0,3,1.1,3.2,1.8l13.2,43.2c2.5,0.4,5.3,0.6,8.1,0.6c5.9,0,11.7-0.9,17.3-2.8c7-2.3,20.9-13.4,35.7-25.1
		c24.7-19.6,52.7-41.7,70.7-41.7c2.4,0,4.5,1.5,5.4,3.7c5.4,14.3,44.6,109.1,61.2,149.1c0.6,1.4,0.6,3,0,4.4s-1.7,2.5-3.1,3.1
		c-0.7,0.3-1.4,0.4-2.2,0.4l0,0c-2.3,0-4.4-1.4-5.3-3.5c-17.2-41.5-40-96.9-52.8-128.2L240.6,236.3c-0.1,0.1-0.1,0.2-0.2,0.3
		c-0.1,0.1-0.1,0.2-0.2,0.3l0,0l0,0l-0.5,0.4c-0.1,0.1-0.1,0.1-0.2,0.2l0,0l-0.1,0.1c-0.1,0.1-0.1,0.1-0.2,0.1
		c-0.1,0.1-0.2,0.1-0.4,0.2s-0.3,0.2-0.5,0.3c-0.2,0.1-0.4,0.2-0.6,0.2l-0.2,0.1h-0.1c-0.1,0-0.2,0-0.3,0.1
		C236.7,238.8,236.2,238.8,235.8,238.8z M227.7,226L200,135.6c-8,4.9-29.9,18.6-49.4,34.2c-15.7,12.6-29.2,29.2-36.4,39L227.7,226z
		 M237.8,219.9L338.4,71.7c-0.6-1.6-1.2-3.1-1.7-4.3c-14.9,3.2-39.7,22.9-59.8,38.8c-16.3,12.9-30.4,24.1-39.3,27
		c-6.8,2.3-13.8,3.4-20.8,3.4c-1.5,0-3.1-0.1-4.6-0.2L237.8,219.9z"/>
	<path class="st1" d="M340.5,56.7c1.9,0,3.6,1.2,4.2,2.9c5.9,15.5,52,127,61.2,149.2c1,2.3-0.1,5-2.5,5.9c-0.6,0.2-1.2,0.3-1.7,0.3
		c-1.8,0-3.5-1.1-4.2-2.8c-10.3-24.8-39.2-94.8-53.6-130.3l0,0l-103,151.6l-1.3,1.9l-0.1,0.1c0,0.1-0.1,0.1-0.2,0.2
		c-0.1,0.1-0.1,0.2-0.2,0.2c-0.1,0.1-0.2,0.2-0.3,0.3l0,0c-0.1,0.1-0.2,0.2-0.3,0.3l0,0l-0.1,0.1c-0.1,0.1-0.2,0.1-0.3,0.2
		s-0.3,0.2-0.4,0.2c-0.2,0.1-0.3,0.1-0.5,0.2c-0.1,0-0.2,0-0.2,0.1c-0.1,0-0.2,0-0.2,0.1c-0.3,0.1-0.6,0.1-1,0.1c-0.2,0-0.4,0-0.7,0
		l-3.9-0.6l-128-19.4c-1.5-0.2-2.8-1.2-3.5-2.6c-0.3-0.8-0.5-1.6-0.4-2.4c0.1-0.7,0.3-1.4,0.7-2c0.8-1.2,19.4-29.3,43.9-48.8
		c23.5-18.8,49.7-34.5,53.8-37l-12.4-40.4c-0.5-1.7,3.9-3.6,6.6-3.6c1.1,0,1.9,0.3,2.1,0.9l13.4,43.9c2.5,0.5,5.6,0.8,9,0.8
		c5.2,0,11.3-0.7,17.7-2.9c7.2-2.4,21.2-13.5,36.1-25.3C295,78.7,322.9,56.7,340.5,56.7 M216.9,135.5c-2.3,0-4.4-0.1-6.3-0.3
		l26.8,87.5L339.8,71.9c-0.9-2.3-1.7-4.2-2.3-5.8c-15.1,2.6-40.6,22.8-61.4,39.2c-16.2,12.8-30.2,23.9-38.9,26.8
		C229.7,134.6,222.7,135.5,216.9,135.5 M229.4,227.5l-28.7-93.8c-7.3,4.4-30.3,18.6-50.9,35.1c-16.8,13.4-31.1,31.6-37.9,40.9
		L229.4,227.5 M340.5,54.3c-18.5,0-46.6,22.3-71.5,42c-14.1,11.1-28.6,22.6-35.4,24.9c-5.5,1.8-11.2,2.8-17,2.8
		c-2.4,0-4.9-0.2-7.2-0.5l-13-42.4c-0.2-0.8-1.2-2.7-4.4-2.7c-2.8,0-6.7,1.4-8.3,3.5c-0.7,1-1,2.2-0.6,3.2l11.8,38.6
		c-7.6,4.5-31.1,19.1-52.5,36.2c-24.9,19.9-43.6,48.2-44.4,49.4c-0.6,0.9-1,1.9-1.1,3c-0.1,1.2,0,2.5,0.5,3.6c1,2.2,3,3.7,5.3,4.1
		l128,19.4l3.9,0.6c0.4,0.1,0.7,0.1,1,0.1c0.5,0,1-0.1,1.4-0.2c0.1,0,0.2,0,0.3-0.1h0.1h0.1l0.2-0.1c0.3-0.1,0.5-0.2,0.8-0.3
		c0.2-0.1,0.4-0.2,0.6-0.3c0.1-0.1,0.3-0.2,0.5-0.3c0.1,0,0.1-0.1,0.2-0.1l0.2-0.1v-0.1l0.1-0.1h0.1l0.2-0.2l0.7-0.7v-0.1
		c0,0,0,0,0-0.1c0.1-0.1,0.2-0.2,0.2-0.3l0,0l1.3-1.9L343,87.3c13.7,33.7,38.2,92.9,51.9,126.1c1.1,2.6,3.6,4.3,6.4,4.3
		c0.9,0,1.8-0.2,2.7-0.5c1.7-0.7,3.1-2,3.8-3.8c0.7-1.7,0.7-3.6,0-5.3C391.2,168,352.1,73.3,346.7,59
		C346,56.1,343.4,54.3,340.5,54.3L340.5,54.3z M216.9,137.9c7.1,0,14.2-1.2,21.2-3.5c9.1-3,23.2-14.2,39.6-27.2h0.1
		c19.5-15.5,43.6-34.5,58.3-38.3c0.3,0.8,0.7,1.8,1.1,2.8l-98.9,145.5L214,137.9C214.9,137.9,215.9,137.9,216.9,137.9L216.9,137.9z
		 M116.2,207.9c7.5-9.9,20.2-25.4,35-37.2c18.5-14.8,39.1-27.9,48-33.3l26.7,87.1L116.2,207.9L116.2,207.9z"/>
	<circle class="st19" cx="105.5" cy="212.8" r="2.7"/>
	<circle class="st19" cx="401.4" cy="210.4" r="2.7"/>
</g>
<g id="eBikePedals">
	<g>
		<path class="st1" d="M257.4,232.5c0-0.5,0.1-1,0.1-1.5c0-0.1,0-0.2,0-0.4c0.5-0.1,0.8-0.5,0.8-0.9s-0.1-0.8-0.1-1.3
			s-0.5-0.8-0.9-0.8c-0.1-0.6-0.2-1.2-0.4-1.8c0.4-0.1,0.7-0.6,0.6-1.1c-0.1-0.4-0.2-0.8-0.4-1.2c-0.2-0.5-0.7-0.7-1.1-0.6
			c-0.2-0.6-0.5-1.1-0.7-1.7l0,0c0.4-0.2,0.6-0.8,0.4-1.2c-0.2-0.4-0.4-0.7-0.6-1.1c-0.3-0.4-0.8-0.6-1.2-0.3c0,0,0,0-0.1,0
			c-0.3-0.5-0.7-1-1.1-1.5c0,0,0.1,0,0.1-0.1c0.4-0.3,0.4-0.9,0.1-1.3c-0.3-0.3-0.6-0.6-0.8-0.9c-0.3-0.4-0.9-0.4-1.3,0l-0.1,0.1
			c-0.4-0.4-0.9-0.8-1.4-1.2l0.1-0.1c0.3-0.4,0.2-1-0.2-1.3c-0.3-0.2-0.7-0.5-1-0.7c-0.4-0.3-1-0.2-1.3,0.3c0,0,0,0,0,0.1
			c-0.5-0.3-1-0.6-1.6-0.9l0,0c0.2-0.5,0-1-0.5-1.2c-0.4-0.2-0.8-0.3-1.2-0.5c-0.5-0.2-1,0.1-1.2,0.5c-0.6-0.2-1.2-0.4-1.8-0.5
			c0.1-0.5-0.2-0.9-0.7-1c-0.4-0.1-0.8-0.2-1.2-0.2c-0.5-0.1-0.9,0.2-1,0.7c-0.6-0.1-1.2-0.1-1.8-0.1l0,0c0-0.5-0.4-0.9-0.9-0.9
			c-0.4,0-0.8,0-1.3,0s-0.9,0.5-0.9,1l0,0c-0.6,0.1-1.2,0.1-1.8,0.2l0,0c-0.1-0.5-0.6-0.8-1.1-0.7c-0.4,0.1-0.8,0.2-1.2,0.3
			c-0.5,0.1-0.8,0.6-0.6,1.1l0,0c-0.6,0.2-1.1,0.4-1.7,0.6l0,0c-0.2-0.5-0.8-0.7-1.2-0.4c-0.4,0.2-0.8,0.4-1.1,0.6
			c-0.4,0.2-0.6,0.8-0.4,1.2l0,0c-0.5,0.3-1,0.6-1.5,1l0,0c-0.3-0.4-0.9-0.5-1.3-0.2c-0.3,0.3-0.7,0.5-1,0.8
			c-0.4,0.3-0.4,0.9-0.1,1.3l0,0c-0.4,0.4-0.9,0.8-1.3,1.3l0,0c-0.4-0.3-1-0.3-1.3,0.1c-0.3,0.3-0.5,0.6-0.8,1s-0.2,1,0.2,1.3l0,0
			c-0.4,0.5-0.7,1-1,1.5l0,0c-0.4-0.2-1-0.1-1.2,0.4c-0.2,0.4-0.4,0.8-0.6,1.1c-0.2,0.5,0,1,0.4,1.2l0,0c-0.2,0.6-0.4,1.1-0.6,1.7
			l0,0c-0.5-0.1-1,0.2-1.1,0.6s-0.2,0.8-0.3,1.2c-0.1,0.5,0.2,1,0.7,1.1l0,0c-0.1,0.6-0.2,1.2-0.2,1.8l0,0c-0.5,0-0.9,0.4-1,0.9
			c0,0.4,0,0.8,0,1.3v0.1c0,0.5,0.4,0.9,0.9,0.9l0,0c0,0.6,0.1,1.2,0.2,1.8l0,0c-0.5,0.1-0.8,0.6-0.7,1s0.2,0.8,0.2,1.2
			c0.1,0.4,0.5,0.7,0.9,0.7c0.1,0,0.1,0,0.2,0l0,0c0.2,0.6,0.3,1.2,0.5,1.7l0,0c-0.5,0.2-0.7,0.7-0.5,1.2c0.2,0.4,0.3,0.8,0.5,1.2
			c0.2,0.3,0.5,0.5,0.8,0.5c0.1,0,0.3,0,0.4-0.1l0,0c0.3,0.5,0.6,1.1,0.9,1.6l0,0c-0.4,0.3-0.5,0.8-0.2,1.3c0.2,0.3,0.5,0.7,0.7,1
			c0.2,0.2,0.4,0.4,0.7,0.4c0.2,0,0.4-0.1,0.6-0.2l0,0c0.4,0.5,0.8,0.9,1.2,1.3l0,0c-0.3,0.4-0.3,0.9,0,1.3c0.3,0.3,0.6,0.6,0.9,0.8
			c0.2,0.1,0.4,0.2,0.6,0.2c0.3,0,0.5-0.1,0.7-0.3l0,0c0.5,0.4,1,0.7,1.5,1.1l0,0c-0.3,0.4-0.1,1,0.3,1.2c0.4,0.2,0.7,0.4,1.1,0.6
			c0.1,0.1,0.3,0.1,0.4,0.1c0.3,0,0.6-0.2,0.8-0.5l0,0c0.5,0.3,1.1,0.5,1.7,0.7l0,0c-0.2,0.5,0.1,1,0.6,1.1c0.4,0.1,0.8,0.3,1.2,0.4
			c0.1,0,0.2,0,0.2,0c0.4,0,0.8-0.3,0.9-0.7l0,0c0.6,0.1,1.2,0.2,1.8,0.3l0,0c-0.1,0.5,0.3,0.9,0.8,1c0.4,0,0.8,0.1,1.3,0.1l0,0
			c0.5,0,0.9-0.4,0.9-0.9l0,0h0.2c0.5,0,1.1,0,1.6-0.1c0.1,0.4,0.5,0.8,0.9,0.8h0.1c0.4-0.1,0.8-0.1,1.2-0.2c0.5-0.1,0.8-0.5,0.8-1
			c0.6-0.1,1.2-0.3,1.8-0.4c0.1,0.4,0.5,0.6,0.8,0.6c0.1,0,0.2,0,0.3,0c0.4-0.1,0.8-0.3,1.2-0.4c0.5-0.2,0.7-0.7,0.5-1.2l0,0
			c0.6-0.2,1.1-0.5,1.6-0.8l0,0c0.2,0.3,0.5,0.5,0.8,0.5c0.2,0,0.3,0,0.5-0.1c0.4-0.2,0.7-0.4,1.1-0.7c0.4-0.3,0.5-0.8,0.3-1.3
			c0,0,0-0.1-0.1-0.1c0.5-0.4,1-0.7,1.4-1.1c0,0,0,0.1,0.1,0.1c0.2,0.2,0.4,0.3,0.7,0.3c0.2,0,0.4-0.1,0.6-0.2
			c0.3-0.3,0.6-0.6,0.9-0.9c0.3-0.4,0.3-0.9,0-1.3c0,0-0.1,0-0.1-0.1c0.4-0.5,0.8-0.9,1.1-1.4c0,0,0.1,0,0.1,0.1
			c0.2,0.1,0.3,0.2,0.5,0.2c0.3,0,0.6-0.1,0.8-0.4c0.2-0.4,0.5-0.7,0.7-1.1c0.3-0.4,0.1-1-0.3-1.2l0,0c0.3-0.5,0.6-1.1,0.8-1.6l0,0
			c0.1,0,0.2,0.1,0.3,0.1c0.4,0,0.7-0.2,0.9-0.6c0.1-0.4,0.3-0.8,0.4-1.2c0.1-0.5-0.1-1-0.6-1.1c0.2-0.6,0.3-1.2,0.4-1.8h0.1
			c0.4,0,0.8-0.3,0.9-0.8c0.1-0.4,0.1-0.8,0.2-1.2C258.2,233,257.9,232.6,257.4,232.5z M236.3,213.2c6.8,0.6,12.6,4.9,15.2,11
			l-1.7,0.5c-0.1-0.2-0.2-0.5-0.3-0.7l0,0c0.3-0.2,0.4-0.6,0.3-0.9c-0.1-0.3-0.3-0.5-0.4-0.8c-0.2-0.3-0.6-0.4-0.9-0.2l0,0
			c-0.2-0.4-0.5-0.7-0.8-1.1c0,0,0,0,0.1,0c0.3-0.2,0.3-0.6,0.1-0.9c-0.2-0.2-0.4-0.5-0.6-0.7c-0.2-0.3-0.7-0.3-0.9,0
			c0,0,0,0-0.1,0.1c-0.3-0.3-0.6-0.6-1-0.9c0,0,0,0,0.1-0.1c0.2-0.3,0.2-0.7-0.1-0.9c-0.2-0.2-0.5-0.4-0.7-0.5
			c-0.3-0.2-0.7-0.1-0.9,0.2l0,0c-0.4-0.2-0.7-0.4-1.1-0.6l0,0c0.1-0.3,0-0.7-0.3-0.9c-0.3-0.1-0.6-0.2-0.8-0.3
			c-0.3-0.1-0.7,0-0.8,0.4c-0.4-0.1-0.8-0.3-1.3-0.4c0.1-0.3-0.2-0.7-0.5-0.7c-0.3-0.1-0.6-0.1-0.9-0.2c-0.3-0.1-0.7,0.2-0.7,0.5
			c-0.2,0-0.5,0-0.7-0.1v-1.8H236.3z M236.3,218.4c4.5,0.5,8.4,3.4,10.3,7.3l-1.2,0.4c0.2-0.1,0.3-0.4,0.1-0.6
			c-0.1-0.2-0.2-0.4-0.3-0.6s-0.4-0.3-0.6-0.2l0,0c-0.2-0.3-0.4-0.5-0.5-0.8l0,0c0.2-0.2,0.2-0.5,0.1-0.6c-0.1-0.2-0.3-0.3-0.4-0.5
			c-0.2-0.2-0.5-0.2-0.6,0l0,0c-0.2-0.2-0.5-0.4-0.7-0.6l0,0c0.2-0.2,0.1-0.5-0.1-0.6c-0.2-0.1-0.3-0.2-0.5-0.4
			c-0.2-0.1-0.5-0.1-0.6,0.1l0,0c-0.3-0.2-0.5-0.3-0.8-0.5l0,0c0.1-0.2,0-0.5-0.2-0.6s-0.4-0.2-0.6-0.2c-0.2-0.1-0.5,0-0.6,0.3
			c-0.3-0.1-0.6-0.2-0.9-0.3c0-0.2-0.1-0.5-0.4-0.5c-0.2,0-0.4-0.1-0.6-0.1c-0.2,0-0.5,0.1-0.5,0.4h-0.1v-1.4L236.3,218.4
			L236.3,218.4z M222.2,228.6l1.7,0.5c0,0.3-0.1,0.6-0.1,0.9l0,0c-0.3,0-0.5,0.2-0.5,0.4c0,0.2,0,0.4,0,0.6l0,0
			c0,0.3,0.2,0.5,0.5,0.5l0,0c0,0.3,0,0.6,0.1,0.9l0,0c-0.2,0-0.4,0.3-0.4,0.5s0.1,0.4,0.1,0.6s0.2,0.4,0.4,0.4h0.1l0,0
			c0.1,0.3,0.2,0.6,0.3,0.9l0,0c-0.2,0.1-0.4,0.4-0.3,0.6c0.1,0.2,0.2,0.4,0.3,0.6s0.2,0.3,0.4,0.3c0.1,0,0.1,0,0.2,0l0,0
			c0.1,0.3,0.3,0.5,0.5,0.8l0,0c-0.2,0.1-0.3,0.4-0.1,0.6c0.1,0.2,0.2,0.3,0.4,0.5c0.1,0.1,0.2,0.2,0.4,0.2c0.1,0,0.2,0,0.3-0.1l0,0
			c0.1,0.1,0.1,0.2,0.2,0.2l-1.2,1.5c-2.1-2.3-3.4-5.4-3.4-8.8C221.9,230.3,222,229.4,222.2,228.6z M229,227.4l-2.2-0.6
			c1.3-2.4,3.7-4.2,6.5-4.7v2.1C231.5,224.7,229.9,225.8,229,227.4z M225.9,229.7l2.3,0.7c0,0.1,0,0.3,0,0.4c0,1.5,0.5,3,1.4,4.1
			l-1.8,2.2c-1.3-1.6-2.1-3.6-2.1-5.8C225.7,230.7,225.8,230.2,225.9,229.7z M233.1,219.9L233.1,219.9c-0.1-0.3-0.3-0.4-0.6-0.4
			c-0.2,0-0.4,0.1-0.6,0.2c-0.2,0.1-0.4,0.3-0.3,0.6l0,0c-0.3,0.1-0.6,0.2-0.9,0.3l0,0c-0.1-0.2-0.4-0.3-0.6-0.2
			c-0.2,0.1-0.4,0.2-0.6,0.3c-0.2,0.1-0.3,0.4-0.2,0.6l0,0c-0.3,0.2-0.5,0.3-0.8,0.5l0,0c-0.2-0.2-0.4-0.2-0.6-0.1
			c-0.2,0.1-0.3,0.3-0.5,0.4c-0.2,0.2-0.2,0.5,0,0.6l0,0c-0.2,0.2-0.4,0.4-0.6,0.7l0,0c-0.2-0.2-0.5-0.1-0.6,0
			c-0.1,0.2-0.3,0.3-0.4,0.5c-0.2,0.2-0.1,0.5,0.1,0.6l0,0c-0.2,0.3-0.3,0.5-0.5,0.8l0,0c-0.2-0.1-0.5,0-0.6,0.2s-0.2,0.4-0.3,0.6
			l0,0l-1.2-0.4c1.9-3.9,5.7-6.8,10.2-7.3v1.5C233.2,219.8,233.2,219.8,233.1,219.9z M228.8,240.5
			C228.9,240.5,228.9,240.5,228.8,240.5C228.9,240.5,228.9,240.5,228.8,240.5c-0.1,0.2,0,0.5,0.2,0.7c0.2,0.1,0.4,0.2,0.6,0.3
			c0.1,0,0.1,0.1,0.2,0.1c0.2,0,0.3-0.1,0.4-0.2l0,0c0.3,0.1,0.6,0.2,0.8,0.4l0,0c-0.1,0.2,0,0.5,0.3,0.6c0.2,0.1,0.4,0.1,0.6,0.2
			h0.1c0.2,0,0.4-0.1,0.4-0.3l0,0c0.3,0.1,0.6,0.1,0.9,0.2l0,0c0,0.3,0.2,0.5,0.4,0.5s0.4,0,0.6,0l0,0c0.2,0,0.4-0.2,0.5-0.4l0,0
			h0.1c0.3,0,0.5,0,0.8,0c0,0.2,0.2,0.4,0.5,0.4c0,0,0,0,0.1,0c0.2,0,0.4-0.1,0.6-0.1c0.2,0,0.4-0.3,0.4-0.5
			c0.3-0.1,0.6-0.1,0.9-0.2c0.1,0.2,0.2,0.3,0.4,0.3h0.1c0.2-0.1,0.4-0.1,0.6-0.2c0.2-0.1,0.4-0.4,0.3-0.6l0,0
			c0.3-0.1,0.6-0.3,0.8-0.4l0,0c0.1,0.2,0.2,0.2,0.4,0.2c0.1,0,0.2,0,0.2-0.1c0,0,0,0,0.1,0l0.8,1c-2.1,1.4-4.5,2.2-7.2,2.2
			s-5.2-0.8-7.2-2.2L228.8,240.5z M241.9,237.1l-1.9-2.3c0.9-1.1,1.4-2.5,1.4-4.1c0-0.1,0-0.3,0-0.4l2.5-0.7c0.1,0.5,0.1,1,0.1,1.6
			C244.1,233.4,243.3,235.5,241.9,237.1z M236.3,222.1c2.9,0.4,5.3,2.2,6.6,4.7l-2.4,0.7c-0.9-1.6-2.4-2.8-4.3-3.2L236.3,222.1
			L236.3,222.1z M237.7,236.7l1.9,2.4c-1.4,0.8-3,1.3-4.7,1.3c-1.8,0-3.4-0.5-4.9-1.4l1.8-2.3c0.9,0.4,1.9,0.7,2.9,0.7
			C235.9,237.4,236.8,237.1,237.7,236.7z M233.3,213.2v1.9c-0.3,0-0.7,0.1-1,0.1l0,0c-0.1-0.4-0.4-0.6-0.8-0.5
			c-0.3,0.1-0.6,0.1-0.9,0.2c-0.3,0.1-0.6,0.5-0.5,0.8l0,0c-0.4,0.1-0.8,0.3-1.2,0.4l0,0c-0.2-0.3-0.5-0.5-0.9-0.3
			c-0.3,0.1-0.5,0.3-0.8,0.4c-0.3,0.2-0.4,0.6-0.3,0.9l0,0c-0.4,0.2-0.7,0.4-1.1,0.7l0,0c-0.2-0.3-0.6-0.3-0.9-0.1
			c-0.2,0.2-0.5,0.4-0.7,0.6c-0.3,0.2-0.3,0.6-0.1,0.9l0,0c-0.3,0.3-0.6,0.6-0.9,0.9l0,0c-0.3-0.2-0.7-0.2-0.9,0.1
			c-0.2,0.2-0.4,0.5-0.6,0.7c-0.2,0.3-0.2,0.7,0.1,0.9l0,0c-0.3,0.4-0.5,0.7-0.7,1.1l0,0c-0.3-0.2-0.7,0-0.9,0.3
			c-0.1,0.3-0.3,0.5-0.4,0.8c-0.1,0.3,0,0.7,0.2,0.8l-2.1-0.6C220.7,218.2,226.4,213.8,233.3,213.2z M222,244.2
			c-3.3-3.3-5.3-7.8-5.3-12.8c0-1.5,0.2-2.9,0.5-4.2l1.7,0.5c0,0.3,0.2,0.6,0.5,0.6l0,0c-0.1,0.4-0.1,0.8-0.2,1.3l0,0
			c-0.4,0-0.7,0.3-0.7,0.6c0,0.3,0,0.6,0,0.9v0.1c0,0.4,0.3,0.6,0.6,0.6l0,0c0,0.4,0.1,0.9,0.1,1.3l0,0c-0.4,0.1-0.6,0.4-0.5,0.8
			c0,0.3,0.1,0.6,0.2,0.9c0.1,0.3,0.3,0.5,0.6,0.5h0.1l0,0c0.1,0.4,0.2,0.8,0.4,1.2l0,0c-0.3,0.1-0.5,0.5-0.4,0.8s0.2,0.6,0.4,0.8
			c0.1,0.2,0.3,0.4,0.6,0.4c0.1,0,0.2,0,0.3-0.1l0,0c0.2,0.4,0.4,0.8,0.6,1.1l0,0c-0.3,0.2-0.4,0.6-0.2,0.9c0.2,0.2,0.3,0.5,0.5,0.7
			c0.1,0.2,0.3,0.3,0.5,0.3c0.1,0,0.3,0,0.4-0.1l0,0c0.3,0.3,0.5,0.6,0.8,0.9L222,244.2z M234.8,249.5c-3.9,0-7.6-1.2-10.5-3.4
			l1.6-2c0.1,0.1,0.3,0.2,0.4,0.3l0,0c-0.2,0.3-0.1,0.7,0.2,0.9c0.3,0.2,0.5,0.3,0.8,0.4c0.1,0.1,0.2,0.1,0.3,0.1
			c0.2,0,0.5-0.1,0.6-0.3l0,0c0.4,0.2,0.8,0.4,1.2,0.5l0,0c-0.1,0.3,0.1,0.7,0.4,0.8c0.3,0.1,0.6,0.2,0.9,0.3c0.1,0,0.1,0,0.2,0
			c0.3,0,0.6-0.2,0.6-0.5l0,0c0.4,0.1,0.8,0.2,1.3,0.2l0,0c0,0.4,0.2,0.7,0.6,0.7c0.3,0,0.6,0.1,0.9,0.1l0,0c0.3,0,0.6-0.3,0.6-0.6
			l0,0h0.2c0.4,0,0.8,0,1.1,0c0.1,0.3,0.3,0.6,0.6,0.6h0.1c0.3,0,0.6-0.1,0.9-0.1c0.3-0.1,0.6-0.4,0.5-0.7c0.4-0.1,0.9-0.2,1.3-0.3
			c0.1,0.3,0.3,0.4,0.6,0.4c0.1,0,0.1,0,0.2,0c0.3-0.1,0.6-0.2,0.8-0.3c0.3-0.1,0.5-0.5,0.4-0.8l0,0c0.4-0.2,0.8-0.4,1.2-0.6l0,0
			c0.1,0.2,0.3,0.3,0.6,0.3c0.1,0,0.2,0,0.3-0.1c0.2-0.1,0.4-0.2,0.6-0.4l1,1.2C242.4,248.2,238.7,249.5,234.8,249.5z M244.3,240.1
			l-0.7-0.9c0,0,0,0,0.1-0.1c0.2-0.2,0.2-0.5,0-0.7l0,0c0.2-0.2,0.4-0.5,0.6-0.7l0,0c0.1,0.1,0.2,0.1,0.3,0.1c0.2,0,0.3-0.1,0.4-0.2
			c0.1-0.2,0.2-0.4,0.3-0.5c0.1-0.2,0-0.5-0.2-0.6l0,0c0.2-0.3,0.3-0.5,0.4-0.8l0,0c0.1,0,0.1,0,0.2,0c0.2,0,0.4-0.1,0.4-0.3
			c0.1-0.2,0.1-0.4,0.2-0.6c0.1-0.2,0-0.5-0.3-0.6c0.1-0.3,0.2-0.6,0.2-0.9l0,0c0.2,0,0.4-0.2,0.5-0.4c0-0.2,0.1-0.4,0.1-0.6
			s-0.1-0.4-0.4-0.5c0-0.2,0-0.5,0-0.8c0-0.1,0-0.1,0-0.2c0.2,0,0.4-0.2,0.4-0.5c0-0.2,0-0.4,0-0.6s-0.2-0.4-0.5-0.4
			c0-0.1,0-0.2-0.1-0.4l1.3-0.4c0.2,0.9,0.3,1.8,0.3,2.7C247.8,234.7,246.5,237.8,244.3,240.1z M247.6,244.2l-0.9-1.1
			c0.2-0.2,0.4-0.4,0.5-0.5c0.2-0.3,0.2-0.7,0-0.9c0,0,0,0-0.1,0c0.3-0.3,0.6-0.7,0.8-1c0,0,0,0,0.1,0c0.1,0.1,0.2,0.1,0.4,0.1
			s0.4-0.1,0.5-0.3c0.2-0.2,0.3-0.5,0.5-0.8s0.1-0.7-0.2-0.9l0,0c0.2-0.4,0.4-0.8,0.6-1.2l0,0c0.1,0,0.2,0,0.2,0
			c0.3,0,0.5-0.2,0.6-0.4c0.1-0.3,0.2-0.6,0.3-0.8c0.1-0.3-0.1-0.7-0.4-0.8c0.1-0.4,0.2-0.8,0.3-1.3l0,0c0.3,0,0.6-0.2,0.6-0.5
			s0.1-0.6,0.1-0.9s-0.2-0.6-0.5-0.7c0-0.4,0-0.7,0-1.1c0-0.1,0-0.2,0-0.3c0.3,0,0.6-0.3,0.5-0.7c0-0.3,0-0.6-0.1-0.9
			c0-0.3-0.3-0.6-0.6-0.6c0-0.3-0.1-0.7-0.2-1l1.7-0.5c0.3,1.4,0.5,2.8,0.5,4.2C253,236.3,250.9,240.9,247.6,244.2z"/>
	</g>
	<g class="st27">
		<path d="M257.4,232.5c0-0.5,0.1-1,0.1-1.5c0-0.1,0-0.2,0-0.4c0.5-0.1,0.8-0.5,0.8-0.9s-0.1-0.8-0.1-1.3s-0.5-0.8-0.9-0.8
			c-0.1-0.6-0.2-1.2-0.4-1.8c0.4-0.1,0.7-0.6,0.6-1.1c-0.1-0.4-0.2-0.8-0.4-1.2c-0.2-0.5-0.7-0.7-1.1-0.6c-0.2-0.6-0.5-1.1-0.7-1.7
			l0,0c0.4-0.2,0.6-0.8,0.4-1.2c-0.1-0.2-0.2-0.5-0.4-0.7l-5.3,2.1c0.6,0.9,1.1,1.8,1.5,2.8l-1.7,0.5c-0.1-0.2-0.2-0.5-0.3-0.7l0,0
			c0.3-0.2,0.4-0.6,0.3-0.9c-0.1-0.3-0.3-0.5-0.4-0.8c-0.2-0.3-0.6-0.4-0.9-0.2l0,0l-0.1-0.1l-3.2,1.2c0.6,0.7,1.1,1.5,1.5,2.4
			l-1.2,0.4c0.2-0.1,0.3-0.4,0.1-0.6c-0.1-0.2-0.2-0.4-0.3-0.6s-0.4-0.3-0.6-0.2l0,0c-0.2-0.3-0.4-0.5-0.5-0.8l0,0
			c0.1-0.1,0.2-0.2,0.2-0.3l-2.7,1.1c0.6,0.6,1.1,1.3,1.5,2l-2.4,0.7c-0.4-0.7-0.9-1.3-1.5-1.8l-11.6,4.5l0.7,0.2c0,0.1,0,0.3,0,0.4
			c0,1.5,0.5,3,1.4,4.1l-1.8,2.2c-1.3-1.6-2.1-3.6-2.1-5.8c0-0.1,0-0.2,0-0.4l-2,0.8c0,0.3,0,0.6,0.1,0.9l0,0
			c-0.2,0-0.4,0.3-0.4,0.5s0.1,0.4,0.1,0.6s0.2,0.4,0.4,0.4h0.1l0,0c0.1,0.3,0.2,0.6,0.3,0.9l0,0c-0.2,0.1-0.4,0.4-0.3,0.6
			c0.1,0.2,0.2,0.4,0.3,0.6s0.2,0.3,0.4,0.3c0.1,0,0.1,0,0.2,0l0,0c0.1,0.3,0.3,0.5,0.5,0.8l0,0c-0.2,0.1-0.3,0.4-0.1,0.6
			c0.1,0.2,0.2,0.3,0.4,0.5c0.1,0.1,0.2,0.2,0.4,0.2c0.1,0,0.2,0,0.3-0.1l0,0c0.1,0.1,0.1,0.2,0.2,0.2l-1.2,1.5
			c-1.9-2.1-3.1-4.8-3.4-7.7l-3.3,1.3c0,0.1,0,0.2,0,0.2c0,0.3,0.1,0.6,0.2,0.9c0.1,0.3,0.3,0.5,0.6,0.5h0.1l0,0
			c0.1,0.4,0.2,0.8,0.4,1.2l0,0c-0.3,0.1-0.5,0.5-0.4,0.8s0.2,0.6,0.4,0.8c0.1,0.2,0.3,0.4,0.6,0.4c0.1,0,0.2,0,0.3-0.1l0,0
			c0.2,0.4,0.4,0.8,0.6,1.1l0,0c-0.3,0.2-0.4,0.6-0.2,0.9c0.2,0.2,0.3,0.5,0.5,0.7c0.1,0.2,0.3,0.3,0.5,0.3c0.1,0,0.3,0,0.4-0.1l0,0
			c0.3,0.3,0.5,0.6,0.8,0.9l-1.6,2c-2.6-2.6-4.5-6.1-5.1-9.9l-4.5,1.8v0.1c0.1,0.4,0.5,0.7,0.9,0.7c0.1,0,0.1,0,0.2,0l0,0
			c0.2,0.6,0.3,1.2,0.5,1.7l0,0c-0.5,0.2-0.7,0.7-0.5,1.2c0.2,0.4,0.3,0.8,0.5,1.2c0.2,0.3,0.5,0.5,0.8,0.5c0.1,0,0.3,0,0.4-0.1l0,0
			c0.3,0.5,0.6,1.1,0.9,1.6l0,0c-0.4,0.3-0.5,0.8-0.2,1.3c0.2,0.3,0.5,0.7,0.7,1c0.2,0.2,0.4,0.4,0.7,0.4c0.2,0,0.4-0.1,0.6-0.2l0,0
			c0.4,0.5,0.8,0.9,1.2,1.3l0,0c-0.3,0.4-0.3,0.9,0,1.3c0.3,0.3,0.6,0.6,0.9,0.8c0.2,0.1,0.4,0.2,0.6,0.2c0.3,0,0.5-0.1,0.7-0.3l0,0
			c0.5,0.4,1,0.7,1.5,1.1l0,0c-0.3,0.4-0.1,1,0.3,1.2c0.4,0.2,0.7,0.4,1.1,0.6c0.1,0.1,0.3,0.1,0.4,0.1c0.3,0,0.6-0.2,0.8-0.5l0,0
			c0.5,0.3,1.1,0.5,1.7,0.7l0,0c-0.2,0.5,0.1,1,0.6,1.1c0.4,0.1,0.8,0.3,1.2,0.4c0.1,0,0.2,0,0.2,0c0.4,0,0.8-0.3,0.9-0.7l0,0
			c0.6,0.1,1.2,0.2,1.8,0.3l0,0c-0.1,0.5,0.3,0.9,0.8,1c0.4,0,0.8,0.1,1.3,0.1l0,0c0.5,0,0.9-0.4,0.9-0.9l0,0h0.2
			c0.5,0,1.1,0,1.6-0.1c0.1,0.4,0.5,0.8,0.9,0.8h0.1c0.4-0.1,0.8-0.1,1.2-0.2c0.5-0.1,0.8-0.5,0.8-1c0.6-0.1,1.2-0.3,1.8-0.4
			c0.1,0.4,0.5,0.6,0.8,0.6c0.1,0,0.2,0,0.3,0c0.4-0.1,0.8-0.3,1.2-0.4c0.5-0.2,0.7-0.7,0.5-1.2l0,0c0.6-0.2,1.1-0.5,1.6-0.8l0,0
			c0.2,0.3,0.5,0.5,0.8,0.5c0.2,0,0.3,0,0.5-0.1c0.4-0.2,0.7-0.4,1.1-0.7c0.4-0.3,0.5-0.8,0.3-1.3c0,0,0-0.1-0.1-0.1
			c0.5-0.4,1-0.7,1.4-1.1c0,0,0,0.1,0.1,0.1c0.2,0.2,0.4,0.3,0.7,0.3c0.2,0,0.4-0.1,0.6-0.2c0.3-0.3,0.6-0.6,0.9-0.9
			c0.3-0.4,0.3-0.9,0-1.3c0,0-0.1,0-0.1-0.1c0.4-0.5,0.8-0.9,1.1-1.4c0,0,0.1,0,0.1,0.1c0.2,0.1,0.3,0.2,0.5,0.2
			c0.3,0,0.6-0.1,0.8-0.4c0.2-0.4,0.5-0.7,0.7-1.1c0.3-0.4,0.1-1-0.3-1.2l0,0c0.3-0.5,0.6-1.1,0.8-1.6l0,0c0.1,0,0.2,0.1,0.3,0.1
			c0.4,0,0.7-0.2,0.9-0.6c0.1-0.4,0.3-0.8,0.4-1.2c0.1-0.5-0.1-1-0.6-1.1c0.2-0.6,0.3-1.2,0.4-1.8h0.1c0.4,0,0.8-0.3,0.9-0.8
			c0.1-0.4,0.1-0.8,0.2-1.2C258.2,233,257.9,232.6,257.4,232.5z M241.5,230.7c0-0.1,0-0.3,0-0.4l2.5-0.7c0.1,0.5,0.1,1,0.1,1.6
			c0,2.3-0.8,4.3-2.2,5.9l-1.9-2.3C240.9,233.7,241.5,232.3,241.5,230.7z M231.9,236.7c0.9,0.4,1.9,0.7,2.9,0.7s2-0.2,2.9-0.7
			l1.9,2.4c-1.4,0.8-3,1.3-4.7,1.3c-1.8,0-3.4-0.5-4.9-1.4L231.9,236.7z M228.8,240.5C228.9,240.5,228.9,240.5,228.8,240.5
			C228.9,240.5,228.9,240.5,228.8,240.5c-0.1,0.2,0,0.5,0.2,0.7c0.2,0.1,0.4,0.2,0.6,0.3c0.1,0,0.1,0.1,0.2,0.1
			c0.2,0,0.3-0.1,0.4-0.2l0,0c0.3,0.1,0.6,0.2,0.8,0.4l0,0c-0.1,0.2,0,0.5,0.3,0.6c0.2,0.1,0.4,0.1,0.6,0.2h0.1
			c0.2,0,0.4-0.1,0.4-0.3l0,0c0.3,0.1,0.6,0.1,0.9,0.2l0,0c0,0.3,0.2,0.5,0.4,0.5s0.4,0,0.6,0l0,0c0.2,0,0.4-0.2,0.5-0.4l0,0h0.1
			c0.3,0,0.5,0,0.8,0c0,0.2,0.2,0.4,0.5,0.4c0,0,0,0,0.1,0c0.2,0,0.4-0.1,0.6-0.1c0.2,0,0.4-0.3,0.4-0.5c0.3-0.1,0.6-0.1,0.9-0.2
			c0.1,0.2,0.2,0.3,0.4,0.3h0.1c0.2-0.1,0.4-0.1,0.6-0.2c0.2-0.1,0.4-0.4,0.3-0.6l0,0c0.3-0.1,0.6-0.3,0.8-0.4l0,0
			c0.1,0.2,0.2,0.2,0.4,0.2c0.1,0,0.2,0,0.2-0.1c0,0,0,0,0.1,0l0.8,1c-2.1,1.4-4.5,2.2-7.2,2.2s-5.2-0.8-7.2-2.2L228.8,240.5z
			 M234.8,249.5c-3.9,0-7.6-1.2-10.5-3.4l1.6-2c0.1,0.1,0.3,0.2,0.4,0.3l0,0c-0.2,0.3-0.1,0.7,0.2,0.9c0.3,0.2,0.5,0.3,0.8,0.4
			c0.1,0.1,0.2,0.1,0.3,0.1c0.2,0,0.5-0.1,0.6-0.3l0,0c0.4,0.2,0.8,0.4,1.2,0.5l0,0c-0.1,0.3,0.1,0.7,0.4,0.8
			c0.3,0.1,0.6,0.2,0.9,0.3c0.1,0,0.1,0,0.2,0c0.3,0,0.6-0.2,0.6-0.5l0,0c0.4,0.1,0.8,0.2,1.3,0.2l0,0c0,0.4,0.2,0.7,0.6,0.7
			c0.3,0,0.6,0.1,0.9,0.1l0,0c0.3,0,0.6-0.3,0.6-0.6l0,0h0.2c0.4,0,0.8,0,1.1,0c0.1,0.3,0.3,0.6,0.6,0.6h0.1c0.3,0,0.6-0.1,0.9-0.1
			c0.3-0.1,0.6-0.4,0.5-0.7c0.4-0.1,0.9-0.2,1.3-0.3c0.1,0.3,0.3,0.4,0.6,0.4c0.1,0,0.1,0,0.2,0c0.3-0.1,0.6-0.2,0.8-0.3
			c0.3-0.1,0.5-0.5,0.4-0.8l0,0c0.4-0.2,0.8-0.4,1.2-0.6l0,0c0.1,0.2,0.3,0.3,0.6,0.3c0.1,0,0.2,0,0.3-0.1c0.2-0.1,0.4-0.2,0.6-0.4
			l1,1.2C242.4,248.2,238.7,249.5,234.8,249.5z M244.3,240.1l-0.7-0.9c0,0,0,0,0.1-0.1c0.2-0.2,0.2-0.5,0-0.7l0,0
			c0.2-0.2,0.4-0.5,0.6-0.7l0,0c0.1,0.1,0.2,0.1,0.3,0.1c0.2,0,0.3-0.1,0.4-0.2c0.1-0.2,0.2-0.4,0.3-0.5c0.1-0.2,0-0.5-0.2-0.6l0,0
			c0.2-0.3,0.3-0.5,0.4-0.8l0,0c0.1,0,0.1,0,0.2,0c0.2,0,0.4-0.1,0.4-0.3c0.1-0.2,0.1-0.4,0.2-0.6c0.1-0.2,0-0.5-0.3-0.6
			c0.1-0.3,0.2-0.6,0.2-0.9l0,0c0.2,0,0.4-0.2,0.5-0.4c0-0.2,0.1-0.4,0.1-0.6s-0.1-0.4-0.4-0.5c0-0.2,0-0.5,0-0.8c0-0.1,0-0.1,0-0.2
			c0.2,0,0.4-0.2,0.4-0.5c0-0.2,0-0.4,0-0.6s-0.2-0.4-0.5-0.4c0-0.1,0-0.2-0.1-0.4l1.3-0.4c0.2,0.9,0.3,1.8,0.3,2.7
			C247.8,234.7,246.5,237.8,244.3,240.1z M247.6,244.2l-0.9-1.1c0.2-0.2,0.4-0.4,0.5-0.5c0.2-0.3,0.2-0.7,0-0.9c0,0,0,0-0.1,0
			c0.3-0.3,0.6-0.7,0.8-1c0,0,0,0,0.1,0c0.1,0.1,0.2,0.1,0.4,0.1s0.4-0.1,0.5-0.3c0.2-0.2,0.3-0.5,0.5-0.8s0.1-0.7-0.2-0.9l0,0
			c0.2-0.4,0.4-0.8,0.6-1.2l0,0c0.1,0,0.2,0,0.2,0c0.3,0,0.5-0.2,0.6-0.4c0.1-0.3,0.2-0.6,0.3-0.8c0.1-0.3-0.1-0.7-0.4-0.8
			c0.1-0.4,0.2-0.8,0.3-1.3l0,0c0.3,0,0.6-0.2,0.6-0.5s0.1-0.6,0.1-0.9s-0.2-0.6-0.5-0.7c0-0.4,0-0.7,0-1.1c0-0.1,0-0.2,0-0.3
			c0.3,0,0.6-0.3,0.5-0.7c0-0.3,0-0.6-0.1-0.9c0-0.3-0.3-0.6-0.6-0.6c0-0.3-0.1-0.7-0.2-1l1.7-0.5c0.3,1.4,0.5,2.8,0.5,4.2
			C253,236.3,250.9,240.9,247.6,244.2z"/>
	</g>
	<path class="st28" d="M243,250.4"/>
	<g>
		<g>
			<g>
				<path class="st2" d="M247.1,267.5c-1.7,0-3.2-1-3.8-2.5l-12.7-34.6c-0.8-2,0.4-4.4,2.6-5.2c0.5-0.2,1-0.3,1.6-0.3
					c1.7,0,3.2,1,3.8,2.5l12.7,34.6c0.4,1,0.3,2.1-0.2,3.1c-0.5,0.9-1.3,1.7-2.4,2.1C248.2,267.4,247.7,267.5,247.1,267.5z"/>
				<path class="st1" d="M234.8,226.1c1.2,0,2.3,0.7,2.6,1.7l12.7,34.6c0.5,1.4-0.3,3-1.9,3.6c-0.4,0.1-0.8,0.2-1.1,0.2
					c-1.2,0-2.3-0.7-2.6-1.7l-12.7-34.6c-0.5-1.4,0.3-3,1.9-3.6C234,226.2,234.4,226.1,234.8,226.1 M234.8,223.7L234.8,223.7
					c-0.7,0-1.3,0.1-2,0.4c-2.8,1-4.3,4-3.3,6.7l12.7,34.6c0.7,2,2.7,3.3,4.9,3.3c0.7,0,1.3-0.1,2-0.4c2.8-1,4.3-4,3.3-6.7
					L239.7,227C239,225,237.1,223.7,234.8,223.7L234.8,223.7z"/>
			</g>
		</g>
		<g class="st27">
			<path d="M247.3,254.6l2.9,7.8c0.5,1.4-0.3,3-1.9,3.6s-3.3-0.1-3.8-1.5l-2.8-7.7L247.3,254.6z"/>
		</g>
	</g>
	<circle cx="234.9" cy="229.7" r="2.4"/>
	<g>
		<path class="st16" d="M232.5,271.2c-0.5,0-0.9-0.4-0.9-0.9v-8.5c0-0.5,0.4-0.9,0.9-0.9h30.9c0.5,0,0.9,0.4,0.9,0.9v8.5
			c0,0.5-0.4,0.9-0.9,0.9H232.5z"/>
		<g>
			<path class="st1" d="M263.4,261.8v8.5h-30.9v-8.5H263.4 M263.4,260h-30.9c-1,0-1.8,0.8-1.8,1.8v8.5c0,1,0.8,1.8,1.8,1.8h30.9
				c1,0,1.8-0.8,1.8-1.8v-8.5C265.2,260.8,264.4,260,263.4,260L263.4,260z"/>
		</g>
	</g>
	<g>
		<rect x="234.3" y="264.2" class="st3" width="5.4" height="3.6"/>
	</g>
	<g>
		<rect x="256.1" y="264.2" class="st29" width="5.4" height="3.6"/>
	</g>
	<path class="st2" d="M247.5,269.8c-1.5,0-2.9-1-3.4-2.4c-0.7-1.9,0.3-4,2.2-4.7c0.4-0.1,0.8-0.2,1.3-0.2c1.5,0,2.9,1,3.4,2.4
		c0.3,0.9,0.3,1.9-0.1,2.8c-0.4,0.9-1.1,1.5-2,1.9C248.3,269.8,247.9,269.8,247.5,269.8z"/>
	<path class="st1" d="M247.5,263.8c1,0,1.9,0.6,2.3,1.6c0.5,1.3-0.2,2.6-1.4,3.1c-0.3,0.1-0.6,0.1-0.8,0.1c-1,0-1.9-0.6-2.3-1.6
		c-0.5-1.3,0.2-2.6,1.4-3.1C246.9,263.8,247.2,263.8,247.5,263.8 M247.5,261.4L247.5,261.4c-0.6,0-1.1,0.1-1.7,0.3
		c-2.5,0.9-3.8,3.7-2.9,6.2c0.7,1.9,2.5,3.2,4.5,3.2c0.6,0,1.1-0.1,1.7-0.3c2.5-0.9,3.8-3.7,2.9-6.2
		C251.3,262.7,249.5,261.4,247.5,261.4L247.5,261.4z"/>
</g>
</svg>
