<?xml version="1.0" encoding="utf-8"?>
<!-- Generator: Adobe Illustrator 26.0.2, SVG Export Plug-In . SVG Version: 6.00 Build 0)  -->
<svg version="1.1" id="eBikeFrame" xmlns="http://www.w3.org/2000/svg" xmlns:xlink="http://www.w3.org/1999/xlink" x="0px" y="0px"
	 viewBox="0 0 360 280" style="enable-background:new 0 0 360 280;" xml:space="preserve">
<style type="text/css">
	.st0{fill:#4F4646;}
	.st1{fill:#142C4D;}
	.st2{fill:#9E9298;}
	.st3{fill:#231E1E;stroke:#142C4D;stroke-width:1.2963;stroke-miterlimit:10;}
	.st4{fill:none;stroke:#FF0066;stroke-width:0.8642;stroke-miterlimit:10;}
	.st5{fill:#FFFFFF;}
	.st6{opacity:0.28;}
	.st7{fill:#EE0000;}
</style>
<g id="eBikeFrame_00000093147332921384522670000017214359761363205780_">
	<g id="chargePack">
		<g>
			<path class="st0" d="M170.3,169.9c-2.8-2.8-3.2-7.2-0.8-10.5l26.5-36.2c1.1-1.5,2.7-2.6,4.4-3l7.1-1.9c0.4-0.1,0.8-0.2,1.2-0.2
				c0.3,0,0.6-0.1,0.9-0.1c1.7,0,3.3,0.5,4.6,1.5l5.1,3.6l-40.1,55.6L170.3,169.9z"/>
			<path class="st1" d="M209.5,118.6c1.5,0,3,0.5,4.3,1.4l4.5,3.2L179,177.6l-8.3-8.2c-2.6-2.6-2.9-6.7-0.8-9.6l25.5-34.9l1-1.3
				c1-1.4,2.4-2.3,4.1-2.8l7.1-1.9c0.4-0.1,0.7-0.2,1.1-0.2C209,118.6,209.2,118.6,209.5,118.6 M209.5,117.3c-0.3,0-0.7,0-1,0.1
				c-0.4,0-0.8,0.1-1.3,0.2l-7.1,1.9c-1.9,0.5-3.6,1.7-4.8,3.3l-1,1.3l-25.5,34.9c-2.6,3.5-2.2,8.2,0.9,11.3l8.3,8.2l1.1,1.1
				l0.9-1.2l39.3-54.4l0.8-1.1l-1.1-0.8l-4.5-3.2C213.1,117.8,211.3,117.3,209.5,117.3L209.5,117.3z"/>
		</g>
		<polygon class="st2" points="195.1,129.1 194,130.6 192.3,129.2 193.6,127.6 		"/>
		<polygon class="st2" points="192.9,133.1 192.5,133.4 192.2,133.1 190.4,131.9 190.9,131.1 192.5,132.6 		"/>
		<path class="st2" d="M211,124.8l-12.5,4.8l-2.9-4.9l1-1.3c1-1.4,2.4-2.3,4.1-2.8l7.1-1.9c0.4-0.1,0.7-0.2,1.1-0.2L211,124.8z"/>
		<path class="st3" d="M179.8,180.2l-8.3-8.2c-2.6-2.6-2.9-6.7-0.8-9.6l26.5-36.2c1-1.4,2.4-2.3,4.1-2.8l7.1-1.9
			c2.1-0.6,4.4-0.2,6.2,1.1l4.5,3.2L179.8,180.2z"/>
		<path class="st4" d="M196.7,120.6"/>
		<path class="st4" d="M198.4,124.1"/>
		<g>
			<path class="st0" d="M170.3,169.9c-2.8-2.8-3.2-7.2-0.8-10.5l26.5-36.2c1.1-1.5,2.7-2.6,4.4-3l7.1-1.9c0.4-0.1,0.8-0.2,1.2-0.2
				c0.3,0,0.6-0.1,0.9-0.1c1.7,0,3.3,0.5,4.6,1.5l5.1,3.6l-40.1,55.6L170.3,169.9z"/>
			<path class="st1" d="M209.5,118.6c1.5,0,3,0.5,4.3,1.4l4.5,3.2L179,177.6l-8.3-8.2c-2.6-2.6-2.9-6.7-0.8-9.6l25.5-34.9l1-1.3
				c1-1.4,2.4-2.3,4.1-2.8l7.1-1.9c0.4-0.1,0.7-0.2,1.1-0.2C209,118.6,209.2,118.6,209.5,118.6 M209.5,117.3c-0.3,0-0.7,0-1,0.1
				c-0.4,0-0.8,0.1-1.3,0.2l-7.1,1.9c-1.9,0.5-3.6,1.7-4.8,3.3l-1,1.3l-25.5,34.9c-2.6,3.5-2.2,8.2,0.9,11.3l8.3,8.2l1.1,1.1
				l0.9-1.2l39.3-54.4l0.8-1.1l-1.1-0.8l-4.5-3.2C213.1,117.8,211.3,117.3,209.5,117.3L209.5,117.3z"/>
		</g>
		<polygon class="st2" points="195.1,129.1 194,130.6 192.3,129.2 193.6,127.6 		"/>
		<polygon class="st2" points="192.9,133.1 192.5,133.4 192.2,133.1 190.4,131.9 190.9,131.1 192.5,132.6 		"/>
		<path class="st2" d="M211,124.8l-12.5,4.8l-2.9-4.9l1-1.3c1-1.4,2.4-2.3,4.1-2.8l7.1-1.9c0.4-0.1,0.7-0.2,1.1-0.2L211,124.8z"/>
		<path class="st3" d="M179.8,180.2l-8.3-8.2c-2.6-2.6-2.9-6.7-0.8-9.6l26.5-36.2c1-1.4,2.4-2.3,4.1-2.8l7.1-1.9
			c2.1-0.6,4.4-0.2,6.2,1.1l4.5,3.2L179.8,180.2z"/>
		<path class="st4" d="M196.7,120.6"/>
		<path class="st4" d="M198.4,124.1"/>
		<g>
			<path class="st5" d="M180.1,170.6l-7.5-5.2l2.9-4.1l0.8,0.6l-1.7,2.5l2.5,1.7l1.2-1.7l0.8,0.6l-1.2,1.7l2.5,1.7l1.7-2.5l0.8,0.6
				L180.1,170.6z"/>
			<path class="st5" d="M180.2,163.2l-0.8-0.6l2.9-4.1l0.8,0.6L180.2,163.2z"/>
			<path class="st5" d="M187.3,160.1l-7.5-5.2l2.3-3.3c0.3-0.5,0.7-0.7,1.3-0.8c0.6-0.1,1.1,0,1.5,0.3l0.5,0.3
				c0.4,0.3,0.6,0.6,0.8,1.1c0.2,0.5,0,1-0.4,1.6l0.6-0.8c0.2-0.2,0.4-0.4,0.7-0.4c0.3,0,0.5,0,0.8,0.2l2.9,2l-1.2,1.7l-2.5-1.7
				c-0.2-0.2-0.5-0.2-0.8-0.2c-0.3,0.1-0.5,0.2-0.7,0.4l-0.6,0.8l3.3,2.3L187.3,160.1z M184.3,155.6l0.6-0.8
				c0.2-0.2,0.2-0.5,0.2-0.8c-0.1-0.3-0.2-0.5-0.4-0.7l-0.8-0.6c-0.2-0.2-0.5-0.2-0.8-0.2c-0.3,0.1-0.5,0.2-0.6,0.4l-0.6,0.8
				L184.3,155.6z"/>
			<path class="st5" d="M192.2,153.1l-5.8-4l-0.6,0.8l-0.8-0.6l0.3-2.2l0.6-0.8l7.5,5.2L192.2,153.1z"/>
			<path class="st5" d="M194.7,149.4l-7.5-5.2l2.3-3.3c0.3-0.5,0.7-0.7,1.3-0.8c0.6-0.1,1.1,0,1.5,0.3l4.1,2.9
				c0.4,0.3,0.7,0.7,0.8,1.3c0.1,0.6,0,1.1-0.3,1.5L194.7,149.4z M195,147.2l0.6-0.8c0.2-0.2,0.2-0.5,0.2-0.8
				c-0.1-0.3-0.2-0.5-0.4-0.6l-4.1-2.9c-0.2-0.2-0.5-0.2-0.8-0.2c-0.3,0.1-0.5,0.2-0.6,0.4l-0.6,0.8L195,147.2z"/>
			<path class="st5" d="M199.3,142.9l-7.5-5.2l2.3-3.3c0.3-0.5,0.7-0.7,1.3-0.8c0.6-0.1,1.1,0,1.5,0.3l0.5,0.3
				c0.4,0.3,0.6,0.6,0.8,1.1c0.2,0.5,0,1-0.4,1.6l0.6-0.8c0.2-0.2,0.4-0.4,0.7-0.4c0.3,0,0.5,0,0.8,0.2l2.9,2l-1.2,1.7l-2.5-1.7
				c-0.2-0.2-0.5-0.2-0.8-0.2c-0.3,0.1-0.5,0.2-0.7,0.4l-0.6,0.8l3.3,2.3L199.3,142.9z M196.3,138.4l0.6-0.8
				c0.2-0.2,0.2-0.5,0.2-0.8c-0.1-0.3-0.2-0.5-0.4-0.7l-0.8-0.6c-0.2-0.2-0.5-0.2-0.8-0.2c-0.3,0.1-0.5,0.2-0.6,0.4l-0.6,0.8
				L196.3,138.4z"/>
		</g>
		<path class="st5" d="M167.2,170.6"/>
		<g class="st6">
			<polygon class="st0" points="182.9,166.4 180.1,170.6 172.6,165.4 173.6,163.9 175.9,161.6 176.3,161.8 174.6,164.2 177.1,166.1 
				178.2,164.4 179,164.9 177.9,166.6 180.4,168.4 182.1,165.9 			"/>
		</g>
		<g class="st6">
			<polygon class="st0" points="183.1,159.1 180.2,163.2 179.4,162.6 182.3,158.6 			"/>
		</g>
		<g class="st6">
			<path class="st0" d="M202.8,137.9l-1.2,1.7l-2.5-1.7c0,0-0.1,0-0.1-0.1l1.4-1.5L202.8,137.9z"/>
		</g>
		<g class="st6">
			<polygon class="st0" points="200.5,141.1 199.3,142.9 196.2,140.6 197.6,139.2 			"/>
		</g>
		<g class="st6">
			<path class="st0" d="M197,146.1l-2.3,3.3l-4.2-2.9l1.4-1.5l3.1,2.2l0.6-0.8c0.2-0.2,0.2-0.5,0.2-0.8c-0.1-0.3-0.2-0.5-0.4-0.6
				l-2-1.4l1.4-1.5l1.7,1.2c0.4,0.3,0.7,0.7,0.8,1.3C197.4,145.1,197.3,145.6,197,146.1z"/>
		</g>
		<g class="st6">
			<polygon class="st0" points="193.4,151.4 192.2,153.1 187.4,149.6 188.8,148.2 			"/>
		</g>
		<g class="st6">
			<path class="st0" d="M185.7,155.4l-0.6,0.8l3.3,2.3l-1.1,1.7l-6-4.2l1.4-1.5l1.6,1.1l0.6-0.8c0.2-0.2,0.2-0.5,0.2-0.8
				c-0.1-0.3-0.2-0.5-0.4-0.7l-0.4-0.3l1.4-1.5c0.3,0.2,0.5,0.6,0.6,1c0.2,0.5,0,1-0.4,1.6l0.6-0.8c0.2-0.2,0.4-0.4,0.7-0.4
				c0.3,0,0.5,0,0.8,0.2l2.9,2l-1.1,1.7l-2.5-1.7c-0.2-0.2-0.5-0.2-0.8-0.2C186.1,154.9,185.9,155.1,185.7,155.4z"/>
		</g>
	</g>
	<path id="eBikeFill" class="st7" d="M168.6,205.4c-0.2,0-0.4,0-0.6,0l-94.2-14.3c-1.4-0.2-2.6-1.1-3.1-2.4
		c-0.3-0.7-0.4-1.4-0.3-2.2c0.1-0.6,0.3-1.2,0.6-1.8c0.6-0.8,13.8-20.9,31.5-35.1c15.8-12.6,33.3-23.3,38-26.1l-8.7-28.2
		c-0.2-0.5,0-1.1,0.3-1.6c0.9-1.3,3.5-2.1,5.2-2.1s2.2,0.8,2.3,1.3l9.5,30.8c1.8,0.3,3.8,0.5,5.8,0.5c4.2,0,8.4-0.7,12.4-2
		c5-1.7,15-9.6,25.5-17.9c17.6-14,37.6-29.8,50.5-29.8c1.7,0,3.2,1.1,3.8,2.6c4,10.6,34.4,84.2,43.7,106.5c0.4,1,0.4,2.1,0,3.1
		s-1.2,1.8-2.2,2.2c-0.5,0.2-1,0.3-1.6,0.3c-1.7,0-3.2-1-3.8-2.5c-10-24.1-28-67.7-37.7-91.6l-73.6,108.3c-0.1,0.1-0.1,0.2-0.2,0.2
		c0,0.1-0.1,0.1-0.2,0.2l0,0l0,0l-0.2,0.2v0.1h-0.1c-0.1,0.1-0.2,0.2-0.2,0.2l-0.2,0.1c-0.1,0.1-0.2,0.1-0.3,0.2
		c-0.1,0.1-0.2,0.1-0.4,0.2c-0.1,0.1-0.3,0.1-0.4,0.2l-0.2,0.1c-0.1,0-0.2,0-0.2,0.1C169.2,205.4,168.9,205.4,168.6,205.4z
		 M162.8,196.4L143,131.8c-5.7,3.5-21.3,13.3-35.3,24.4c-11.2,9-20.8,20.9-26,27.9L162.8,196.4z M170,191.9l71.9-105.8
		c-0.5-1.1-0.9-2.2-1.2-3.1c-10.6,2.3-28.4,16.3-42.7,27.7c-11.7,9.2-21.7,17.2-28.1,19.3c-4.9,1.6-9.9,2.4-14.8,2.4
		c-1.1,0-2.2,0-3.3-0.1L170,191.9z"/>
	<path id="eBikeBorder" class="st1" d="M243.4,75.4c1.3,0,2.6,0.8,3,2.1c4.2,11.1,37.1,90.7,43.7,106.6c0.7,1.7-0.1,3.6-1.8,4.2
		c-0.4,0.2-0.8,0.2-1.2,0.2c-1.3,0-2.5-0.8-3-2c-7.3-17.7-28-67.7-38.3-93l0,0l-73.5,108.2l-0.9,1.4v0.1c0,0.1-0.1,0.1-0.1,0.2
		c0,0.1-0.1,0.1-0.1,0.2c-0.1,0.1-0.1,0.2-0.2,0.2l0,0c-0.1,0.1-0.1,0.1-0.2,0.2l0,0c0,0-0.1,0-0.1,0.1c-0.1,0.1-0.2,0.1-0.2,0.2
		c-0.1,0.1-0.2,0.1-0.3,0.2c-0.1,0.1-0.2,0.1-0.3,0.1c-0.1,0-0.1,0-0.2,0.1c-0.1,0-0.1,0-0.2,0c-0.2,0.1-0.5,0.1-0.7,0.1
		s-0.3,0-0.5,0l-2.8-0.4l-91.4-13.8c-1.1-0.2-2-0.9-2.5-1.9c-0.2-0.5-0.3-1.1-0.3-1.7c0.1-0.5,0.2-1,0.5-1.4
		c0.6-0.8,13.9-20.9,31.4-34.9c16.8-13.4,35.5-24.7,38.5-26.4l-8.9-28.9c-0.4-1.2,2.8-2.6,4.7-2.6c0.8,0,1.3,0.2,1.5,0.7l9.6,31.3
		c1.8,0.3,4,0.6,6.5,0.6c3.7,0,8.1-0.5,12.7-2.1c5.1-1.7,15.2-9.7,25.8-18.1C210.9,91.1,230.8,75.4,243.4,75.4 M155.1,131.6
		c-1.6,0-3.1-0.1-4.5-0.2l19.2,62.5l73.1-107.7c-0.7-1.6-1.2-3-1.7-4.2c-10.8,1.8-29,16.3-43.8,28c-11.6,9.2-21.5,17.1-27.8,19.1
		C164.2,131.1,159.2,131.6,155.1,131.6 M164,197.4l-20.5-67c-5.2,3.1-21.6,13.3-36.4,25.1c-12,9.6-22.2,22.6-27,29.2L164,197.4
		 M243.4,73.6c-13.2,0-33.3,15.9-51.1,30c-10,7.9-20.4,16.2-25.3,17.8c-3.9,1.3-8,2-12.1,2c-1.7,0-3.5-0.1-5.1-0.4l-9.3-30.3
		c-0.2-0.6-0.8-1.9-3.1-1.9c-2,0-4.8,1-5.9,2.5c-0.5,0.7-0.7,1.5-0.5,2.3l8.5,27.6c-5.4,3.2-22.2,13.6-37.5,25.8
		c-17.8,14.2-31.2,34.4-31.7,35.3c-0.4,0.6-0.7,1.4-0.8,2.2c-0.1,0.9,0,1.8,0.4,2.6c0.7,1.6,2.1,2.6,3.8,2.9l91.4,13.8l2.8,0.4
		c0.3,0,0.5,0.1,0.7,0.1c0.3,0,0.7,0,1-0.1c0.1,0,0.2,0,0.2-0.1l0,0h0.1l0.2-0.1c0.2,0,0.4-0.1,0.5-0.2c0.2-0.1,0.3-0.1,0.4-0.2
		c0.1-0.1,0.2-0.1,0.3-0.2l0.1-0.1l0.1-0.1l0,0l0.1-0.1l0,0l0.1-0.1l0.5-0.5v-0.1c0,0,0,0,0-0.1c0,0,0.1-0.1,0.1-0.2l0,0l0.9-1.4
		l71.7-105.6c9.8,24.1,27.3,66.4,37.1,90.1c0.8,1.9,2.6,3.1,4.6,3.1c0.7,0,1.3-0.1,1.9-0.4c1.2-0.5,2.2-1.5,2.7-2.7s0.5-2.6,0-3.8
		c-11.8-28.6-39.8-96.3-43.7-106.5C247.3,74.9,245.4,73.6,243.4,73.6L243.4,73.6z M155.1,133.4c5.1,0,10.2-0.8,15.1-2.5
		c6.5-2.2,16.6-10.2,28.3-19.4l0,0c13.9-11,31.2-24.7,41.6-27.4c0.2,0.6,0.5,1.3,0.8,2l-70.6,104l-17.4-56.7
		C153.7,133.4,154.4,133.4,155.1,133.4L155.1,133.4z M83.2,183.4c5.3-7.1,14.5-18.1,25-26.6c13.2-10.6,27.9-19.9,34.3-23.8
		l19.1,62.2L83.2,183.4L83.2,183.4z"/>
</g>
</svg>
