<?xml version="1.0" encoding="utf-8"?>
<!-- Generator: Adobe Illustrator 26.0.2, SVG Export Plug-In . SVG Version: 6.00 Build 0)  -->
<svg version="1.1" id="footerBanner" xmlns="http://www.w3.org/2000/svg" xmlns:xlink="http://www.w3.org/1999/xlink" x="0px"
	 y="0px" viewBox="0 0 420 100" style="enable-background:new 0 0 420 100;" xml:space="preserve">
<style type="text/css">
	.st0{fill:#D2E2E9;}
	.st1{fill:#B6D2DF;}
	.st2{fill:#ACC2CB;}
	.st3{fill:#FCA249;}
	.st4{fill:#FDCE9D;}
	.st5{fill:#FDB866;}
	.st6{enable-background:new    ;}
	.st7{fill:#FFFFFF;}
	.st8{fill:#83CBCD;}
	.st9{fill:#88E1E3;}
	.st10{fill:#32A5A6;}
	.st11{fill:none;stroke:#142C4D;stroke-width:2.6867;stroke-miterlimit:10;}
	.st12{opacity:0.16;}
	.st13{fill:none;}
	.st14{font-family:'Repo-Black';}
	.st15{font-size:34px;}
</style>
<g id="footerBackground">
	<path class="st0" d="M419.7,100.2V14.1h-0.1c-0.3-2.2-2.2-3.9-4.5-3.9c-2.4,0-4.3-2.2-4.3-4.5V5.1c0-2.5-2-4.5-4.5-4.5L13,0.6
		c-2.5,0-4.5,2-4.5,4.5v0.2c0,2.7-2.1,4.7-4.8,4.9c-2.1,0.1-3.8,1.8-4,3.9l0,0v86.2L419.7,100.2L419.7,100.2z"/>
	<rect x="-0.3" y="60.2" class="st1" width="420" height="40.1"/>
</g>
<g id="nextButton">
	<path id="buttonShade" class="st2" d="M380.5,81.1c0,0,0.4,2-85.9,2s-82.2-2-82.2-2c-6.6,0-11.9-5.4-11.9-11.9l-1-31.2
		c0-6.6,5.4-11.9,11.9-11.9c0,0-6.5-2,84.3-2s85.8,2,85.8,2c6.6,0,11.9,5.4,11.9,11.9l-1,31.2C392.4,75.7,387.1,81.1,380.5,81.1z"/>
	<path id="buttonDark" class="st3" d="M388.5,39.6l-0.4,12.3l-0.5,15.5c0.1,5.9-4.7,10.7-10.6,10.7c0,0-4.3,1.8-81.4,1.8
		s-79.8-1.8-79.8-1.8c-5.9,0-10.7-4.8-10.7-10.7l-0.5-15.5l-0.4-12.3c0-5.9,4.8-10.7,10.7-10.7c0,0,0.6-1.8,81.7-1.8
		s81.2,1.8,81.2,1.8C383.7,28.9,388.5,33.7,388.5,39.6z"/>
	<path id="buttonLight" class="st4" d="M388.1,51.9l-0.5,15.5c0.1,5.9-4.7,10.7-10.6,10.7c0,0-4.3,1.8-81.4,1.8s-79.8-1.8-79.8-1.8
		c-5.9,0-10.7-4.8-10.7-10.7l-0.5-15.5H388.1z"/>
	<path id="buttonMain" class="st5" d="M373.6,74.5c0,0-6.8,1.6-77.9,1.6s-75.6-1.6-75.6-1.6c-5.4,0-9.8-4.4-9.8-9.8l-0.8-23
		c0-5.4,4.4-9.8,9.8-9.8c0,0,2.6-1.6,77.3-1.6s77.8,1.6,77.8,1.6c5.4,0,9.8,4.4,9.8,9.8l-0.8,23C383.4,70,379,74.5,373.6,74.5z"/>
	<g id="nextText" class="st6">
		<path class="st7" d="M249.5,59.7l-0.9-0.2c-1.4-2.4-3.1-5-4.7-7.4c-0.4-0.5-0.8-1.4-0.9-1.4c0,0.4,0,1.4,0,2.3v6.7h-4V44h3.5
			c1.5,1.9,3.1,4.2,4.6,6.5c0.4,0.6,0.7,1.2,0.9,1.4c0-0.7,0-1.9,0-3V44h4v15.8H249.5z"/>
		<path class="st7" d="M255.7,59.7V44h9.7v3.4h-5.3v2.7h4.6v3.3h-4.6v2.9h5.5v3.4H255.7z"/>
		<path class="st7" d="M278.4,59.7c-0.4-0.1-0.7-0.1-1-0.2c-0.6-1.4-1.4-3-2.2-4.5c-0.8,1.4-1.8,3.4-2.4,4.6h-4.7
			c1.5-2.8,3-5.4,4.7-8.1c-1.4-2.4-3.1-5.3-4.4-7.7h4.9l2.1,4.1h0c0.7-1.4,1.5-2.8,2.2-4.1h4.6l-4.5,7.4c1.8,2.9,3.4,5.8,4.7,8.4
			H278.4z"/>
		<path class="st7" d="M291.1,47.4v12.4h-4.4V47.4h-3.5V44h11.4v3.4H291.1z"/>
		<path class="st7" d="M308.2,60c-2.4,0-4-0.6-5-1.2c0.4-1.1,0.7-2.2,1.1-3.3c0.8,0.5,2,1,3.4,1c1.3,0,1.8-0.5,1.8-1.2
			c0-0.9-0.8-1.3-2.9-2.1c-2-0.9-3.1-2.3-3.1-4.2c0-0.4,0-0.8,0.1-1.2c0.4-2.3,2.5-3.9,5.5-3.9c1.9,0,3.5,0.5,4.5,1.1l-1.1,3.1
			c-0.8-0.4-1.8-0.8-2.9-0.8c-1.1,0-1.7,0.4-1.7,1.1c0,0.9,1,1.3,2.8,2c2.6,1.2,3.5,2.6,3.5,4.8C314.2,58,312,60,308.2,60z"/>
		<path class="st7" d="M323.7,47.4v12.4h-4.4V47.4h-3.5V44h11.4v3.4H323.7z"/>
		<path class="st7" d="M330.1,59.7V44h9.7v3.4h-5.3v2.7h4.6v3.3h-4.6v2.9h5.5v3.4H330.1z"/>
		<path class="st7" d="M348.1,54.5c-0.2,0-0.4,0-0.5,0v5.3h-4.3V44.5c1.5-0.5,3.4-0.7,5-0.7c4.7,0,6.9,2,6.9,5.3
			C355.1,52.6,352.8,54.5,348.1,54.5z M348.4,46.9c-0.3,0-0.6,0-0.8,0.1v4.3h0.5c1.9,0,2.8-0.5,2.8-2.2
			C350.8,47.5,350,46.9,348.4,46.9z"/>
	</g>
</g>
<g id="timerIcon">
	<g>
		<path class="st8" d="M90.4,51.9c0-19.9-14.1-36.1-34-36.1s-34,16.1-34,36s14.1,33.9,34,33.9S90.4,71.8,90.4,51.9z"/>
	</g>
	<path class="st9" d="M90.4,51.9c0,19.9-14.1,33.8-34,33.8s-34-14-34-33.9c0-1.1,0-2.1,0.1-3.2h67.8C90.4,49.8,90.4,50.8,90.4,51.9z
		"/>
	<g class="st6">
		<path class="st10" d="M56.5,19.8c17.1,0,30,13.8,30,32.1c0,17.6-12.3,29.9-30,29.9S26.4,69.5,26.4,51.9
			C26.4,33.6,39.3,19.8,56.5,19.8 M56.5,15.9c-19.9,0-34,16.1-34,36s14.1,33.9,34,33.9s34-13.9,34-33.9S76.4,15.9,56.5,15.9
			L56.5,15.9z"/>
	</g>
	<path class="st11" d="M90.5,51.9c0-19.9-14.1-36.1-34-36.1S22.4,32,22.4,51.9s14.1,33.9,34.1,33.9S90.5,71.8,90.5,51.9z"/>
	<g class="st12">
		<path class="st7" d="M83.9,51.2c3.7-14.3-3.7-27.3-18-31S39.5,23.6,35.8,38s10,3.2,24.4,6.9S80.2,65.5,83.9,51.2z"/>
	</g>
</g>
<rect x="34.6" y="35.7" class="st13" width="43.7" height="29.3"/>
<text transform="matrix(1 0 0 1 37.1653 62.236)" class="st7 st14 st15">55</text>
</svg>
