<?xml version="1.0" encoding="utf-8"?>
<!-- Generator: Adobe Illustrator 26.0.2, SVG Export Plug-In . SVG Version: 6.00 Build 0)  -->
<svg version="1.1" id="Layer_1" xmlns="http://www.w3.org/2000/svg" xmlns:xlink="http://www.w3.org/1999/xlink" x="0px" y="0px"
	 viewBox="0 0 420 100" style="enable-background:new 0 0 420 100;" xml:space="preserve">
<style type="text/css">
	.st0{fill:#D2E2E9;}
	.st1{fill:#B6D2DF;}
	.st2{fill:url(#SVGID_1_);}
</style>
<path class="st0" d="M419.7000122,100.1999969V14.1000004h-0.1000061c-0.2999878-2.1999998-2.2000122-3.8999996-4.5-3.8999996
	c-2.3999939,0-4.2999878-2.1999998-4.2999878-4.5V5.0999999c0-2.5-2-4.5-4.5-4.5L13,0.6c-2.5,0-4.5,1.9999999-4.5,4.5v0.1999998
	C8.5,8,6.4000001,10,3.6999998,10.1999998c-2.0999999,0.1000004-3.8,1.8000002-4,3.9000006l0,0v86.1999969h420V100.1999969z"/>
<rect x="-0.3" y="60.2000008" class="st1" width="420" height="40.1000023"/>
<linearGradient id="SVGID_1_" gradientUnits="userSpaceOnUse" x1="-17.3999996" y1="41.9000015" x2="-17.3999996" y2="41.9000015" gradientTransform="matrix(1 0 0 -1 0 102)">
	<stop  offset="0.5063" style="stop-color:#D4E4EB"/>
	<stop  offset="0.5084" style="stop-color:#B8D4E1"/>
</linearGradient>
<path class="st2" d="M-17.3999996,60.0999985"/>
</svg>
