<?xml version="1.0" encoding="utf-8"?>
<!-- Generator: Adobe Illustrator 26.0.2, SVG Export Plug-In . SVG Version: 6.00 Build 0)  -->
<svg version="1.1" id="gauge" xmlns="http://www.w3.org/2000/svg" xmlns:xlink="http://www.w3.org/1999/xlink" x="0px" y="0px"
	 viewBox="0 0 70 70" style="enable-background:new 0 0 70 70;" xml:space="preserve">
<style type="text/css">
	.st0{fill:#83CBCD;}
	.st1{fill:#88E1E3;}
	.st2{enable-background:new    ;}
	.st3{fill:#32A5A6;}
	.st4{fill:#142C4D;}
	.st5{opacity:0.16;}
	.st6{fill:#FFFFFF;}
	.st7{fill:#F3400B;}
	.st8{fill:#F9B466;}
</style>
<g id="badgeBackground">
	<g id="lowLights">
		<path class="st0" d="M67.3,36C67.3,17.1,53.9,1.8,35,1.8S2.7,17.1,2.7,36S16.1,68.2,35,68.2S67.3,55,67.3,36z"/>
	</g>
	<path id="highlights" class="st1" d="M67.3,36C67.3,55,53.9,68.2,35,68.2C16.1,68.2,2.7,54.9,2.7,36c0-1,0-2,0.1-3h64.3
		C67.2,34,67.3,35,67.3,36z"/>
	<g id="dropShadow" class="st2">
		<path class="st3" d="M35,5.6c16.3,0,28.5,13.1,28.5,30.5c0,16.7-11.7,28.4-28.5,28.4C18.2,64.4,6.5,52.8,6.5,36
			C6.5,18.7,18.7,5.6,35,5.6 M35,1.8C16.1,1.8,2.7,17.1,2.7,36S16.1,68.2,35,68.2S67.3,55,67.3,36S53.9,1.8,35,1.8L35,1.8z"/>
	</g>
	<g id="border" class="st2">
		<path class="st4" d="M35,69.5C15.2,69.5,1.4,55.7,1.4,36C1.4,15.8,15.9,0.5,35,0.5c19.1,0,33.6,15.3,33.6,35.5
			C68.6,55.7,54.8,69.5,35,69.5z M35,3.1C17.3,3.1,4,17.2,4,36C4,54.2,16.7,66.9,35,66.9c18.3,0,31-12.7,31-30.9
			C66,17.2,52.7,3.1,35,3.1z"/>
	</g>
	<g id="shine" class="st5">
		<path class="st6" d="M61.1,35.4C64.7,21.7,57.6,9.4,44,5.9s-25,3.3-28.6,16.9s9.5,3,23.1,6.6S57.6,49,61.1,35.4z"/>
	</g>
</g>
<path id="dagerGauge" class="st7" d="M21.3,15.8h27.5c1.3,0,2.3,1,2.3,2.3v0c0,1.3-1,2.3-2.3,2.3H21.3c-1.3,0-2.3-1-2.3-2.3v0
	C19,16.8,20,15.8,21.3,15.8z"/>
<path id="warningGauge" class="st8" d="M21.3,24.2h27.5c1.3,0,2.3,1,2.3,2.3v0c0,1.3-1,2.3-2.3,2.3H21.3c-1.3,0-2.3-1-2.3-2.3v0
	C19,25.3,20,24.2,21.3,24.2z"/>
<path id="highGauge" class="st6" d="M21.3,32.7h27.5c1.3,0,2.3,1,2.3,2.3v0c0,1.3-1,2.3-2.3,2.3H21.3c-1.3,0-2.3-1-2.3-2.3v0
	C19,33.7,20,32.7,21.3,32.7z"/>
<path id="mediumGauge" class="st6" d="M21.3,41.2h27.5c1.3,0,2.3,1,2.3,2.3v0c0,1.3-1,2.3-2.3,2.3H21.3c-1.3,0-2.3-1-2.3-2.3v0
	C19,42.2,20,41.2,21.3,41.2z"/>
<path id="lowGauge" class="st6" d="M21.3,49.7h27.5c1.3,0,2.3,1,2.3,2.3v0c0,1.3-1,2.3-2.3,2.3H21.3c-1.3,0-2.3-1-2.3-2.3v0
	C19,50.7,20,49.7,21.3,49.7z"/>
</svg>
