<?xml version="1.0" encoding="utf-8"?>
<!-- Generator: Adobe Illustrator 26.0.2, SVG Export Plug-In . SVG Version: 6.00 Build 0)  -->
<svg version="1.1" id="header" xmlns="http://www.w3.org/2000/svg" xmlns:xlink="http://www.w3.org/1999/xlink" x="0px" y="0px"
	 viewBox="0 0 420 150" style="enable-background:new 0 0 420 150;" xml:space="preserve">
<style type="text/css">
	.st0{fill:#82C9CB;}
	.st1{opacity:0.15;fill:#FAFFFF;enable-background:new    ;}
	.st2{fill:#45B8BB;}
	.st3{fill:#B6D2DF;}
	.st4{fill:#D2E2E9;}
	.st5{fill:#C5D9E5;}
	.st6{enable-background:new    ;}
	.st7{fill:url(#SVGID_1_);}
	.st8{fill:#08C632;}
	.st9{opacity:0.15;}
	.st10{fill:#D5EAEF;}
	.st11{fill:url(#SVGID_00000150825509254573645790000002735709789427921321_);}
	.st12{fill:url(#SVGID_00000068636537606303623930000017812859548828328844_);}
	.st13{fill:#CAB924;}
	.st14{fill:url(#SVGID_00000070819946668165544960000012155527397859708042_);}
	.st15{fill:none;stroke:#FFFFFF;stroke-width:2.1995;stroke-miterlimit:10;}
	.st16{fill:#CECECE;stroke:#FFFFFF;stroke-width:2.1995;stroke-miterlimit:10;}
	.st17{fill:#52BDD7;stroke:#9AD5E5;stroke-width:2.1995;stroke-miterlimit:10;}
	.st18{fill:#FFFFFF;}
	.st19{fill:none;}
	.st20{font-family:'Repo-Black';}
	.st21{font-size:18px;}
	.st22{font-size:15px;}
	.st23{font-size:14px;}
	.st24{fill:#596464;}
	.st25{fill:#515656;}
	.st26{fill:#434949;}
	.st27{fill:#ABC0C9;}
	.st28{fill:#5A5A5B;}
	.st29{fill:url(#SVGID_00000168097921535781296290000017970559734478580380_);}
	.st30{fill:#FBB666;}
</style>
<g>
	<path class="st0" d="M297.3,124.8H33c-6.3,0-11.4-6.3-11.4-14.2V30.1c0-7.6,5-13.8,11.1-13.8h355.8c6.1,0,11.1,6.2,11.1,13.8V96
		c0,5.9-3.8,10.7-8.6,10.7l-77.5,0.4c-4.5,0-8.1,4.5-8.1,10.1v-2.4C305.4,120.3,301.8,124.8,297.3,124.8z"/>
</g>
<path class="st1" d="M311.3,109.3v3.8c0,3.1-2.5,5.6-5.6,5.6l-277.1,0.9c-3.6,0-6.6-2.9-6.6-6.6V79c0-10.7,9.5-18.9,20.1-17.3
	L90.4,68c80.1,12.2,161.4,15.3,242.3,9.3l50.2-3.2c9.6-0.7,17.7,6.8,17.7,16.4v11.3c0,2.1-1.7,3.7-3.7,3.7c-15,0.1-67-0.5-81.6-0.2
	C313.1,105.4,311.3,107.1,311.3,109.3z"/>
<path class="st2" d="M301.8,118.4h-272c-6.1,0-11.1-5-11.1-11.1V29.5c0-6.9,5.6-12.6,12.6-12.6h359.2c6.9,0,12.6,5.6,12.6,12.6v65.9
	c0,5.4-4.4,9.7-9.7,9.7h-81.1c-0.9,0-1.6,0.7-1.6,1.6v2.9C310.6,114.4,306.7,118.4,301.8,118.4z M31.3,24.1c-3,0-5.4,2.4-5.4,5.4
	v77.8c0,2.1,1.7,3.9,3.9,3.9h272c0.9,0,1.6-0.7,1.6-1.6v-2.9c0-4.8,3.9-8.8,8.8-8.8h81.1c1.4,0,2.5-1.1,2.5-2.5V29.5
	c0-3-2.4-5.4-5.4-5.4H31.3z"/>
<path class="st3" d="M416.3,16.1c-0.3-2.2-2.1-3.8-4.4-3.8s-4.2-2.1-4.2-4.5V7.3c0-2.5-2-4.5-4.5-4.5H16.7c-2.5,0-4.5,2-4.5,4.5v0.2
	c0,2.6-2.1,4.6-4.7,4.8c-2.1,0.1-3.7,1.8-3.9,3.8l0,0v0.4v116.8v0.6h0.1c0.3,2.2,2.1,3.8,4.4,3.8s4.2,2.1,4.2,4.5v0.5
	c0,2.5,2,4.5,4.5,4.5h386.5c2.5,0,4.5-2,4.5-4.5v-0.2c0-2.6,2.1-4.6,4.7-4.8c2.1-0.1,3.7-1.8,3.9-3.8l0,0v-0.4V16.7L416.3,16.1
	L416.3,16.1z M22.3,107.3V29.4c0-5,4-9,9-9h359.2c5,0,9,4,9,9v65.9c0,3.4-2.7,6.1-6.1,6.1h-81.1c-2.9,0-5.2,2.3-5.2,5.2v2.9
	c0,2.9-2.3,5.2-5.2,5.2h-272C25.6,114.8,22.3,111.4,22.3,107.3z"/>
<path class="st4" d="M416.4,73.9v60l0,0c-0.2,2.1-1.8,3.7-3.9,3.8c-2.6,0.2-4.7,2.2-4.7,4.8v0.2c0,2.5-2,4.5-4.5,4.5H16.8
	c-2.5,0-4.5-2-4.5-4.5v-0.5c0-2.3-1.9-4.5-4.2-4.5c-2.2,0-4.1-1.7-4.4-3.8H3.6V50.6l18.7,1v55.6c0,4.1,3.4,7.5,7.5,7.5h272
	c2.9,0,5.2-2.3,5.2-5.2v-2.9c0-2.9,2.3-5.2,5.2-5.2h81.1c3.4,0,6.1-2.7,6.1-6.1V72.9L416.4,73.9z"/>
<g id="greenLigh">
	<g>
		<path class="st5" d="M49.4,116.9c0-2.4-1.7-4.4-4.1-4.4c-2.4,0-4.2,2-4.2,4.4s1.7,4.1,4.2,4.1C47.6,121,49.4,119.3,49.4,116.9z"/>
	</g>
	<g class="st6">
		
			<linearGradient id="SVGID_1_" gradientUnits="userSpaceOnUse" x1="45.2" y1="216.1636" x2="45.2" y2="209.5974" gradientTransform="matrix(1 0 0 1 0 -96)">
			<stop  offset="2.700576e-02" style="stop-color:#05C66B"/>
			<stop  offset="0.1059" style="stop-color:#19CA73"/>
			<stop  offset="0.2339" style="stop-color:#35CF7D"/>
			<stop  offset="0.3472" style="stop-color:#45D284"/>
			<stop  offset="0.4333" style="stop-color:#4BD386"/>
			<stop  offset="0.5456" style="stop-color:#53D58C"/>
			<stop  offset="0.7227" style="stop-color:#6AD99E"/>
			<stop  offset="0.9414" style="stop-color:#8FE1BA"/>
			<stop  offset="0.9911" style="stop-color:#98E3C1"/>
		</linearGradient>
		<path class="st7" d="M48.6,116.8c0-2-1.4-3.6-3.4-3.6s-3.4,1.6-3.4,3.6s1.4,3.4,3.4,3.4S48.6,118.8,48.6,116.8z"/>
	</g>
	<g class="st6">
		<path class="st8" d="M45.2,113.6c1.7,0,3,1.4,3,3.2c0,1.8-1.2,3-3,3s-3-1.2-3-3C42.2,115,43.5,113.6,45.2,113.6 M45.2,113.2
			c-2,0-3.4,1.6-3.4,3.6s1.4,3.4,3.4,3.4s3.4-1.4,3.4-3.4S47.2,113.2,45.2,113.2L45.2,113.2z"/>
	</g>
	<g class="st9">
		<path class="st10" d="M48,116.8c0.4-1.4-0.4-2.7-1.8-3.1c-1.4-0.4-2.6,0.3-3,1.8c-0.4,1.4,1,0.3,2.4,0.7
			C47,116.5,47.6,118.2,48,116.8z"/>
	</g>
	<g class="st6">
		
			<linearGradient id="SVGID_00000120527147182977359180000007506229695953579944_" gradientUnits="userSpaceOnUse" x1="45.1492" y1="215.7459" x2="45.1967" y2="213.5046" gradientTransform="matrix(1 0 0 1 0 -96)">
			<stop  offset="0" style="stop-color:#02A651"/>
			<stop  offset="1" style="stop-color:#49D5E9;stop-opacity:0"/>
		</linearGradient>
		<path style="fill:url(#SVGID_00000120527147182977359180000007506229695953579944_);" d="M42.4,117.3c0.2,1.4,1.3,2.4,2.8,2.4
			s2.6-0.9,2.8-2.3L42.4,117.3z"/>
	</g>
</g>
<g id="yellowLight">
	<g>
		<path class="st5" d="M58.8,116.9c0-2.4-1.7-4.4-4.1-4.4s-4.2,2-4.2,4.4s1.7,4.1,4.2,4.1S58.8,119.3,58.8,116.9z"/>
	</g>
	<g class="st6">
		
			<linearGradient id="SVGID_00000067947324593587828710000008719787973591191452_" gradientUnits="userSpaceOnUse" x1="54.6" y1="216.1636" x2="54.6" y2="209.5974" gradientTransform="matrix(1 0 0 1 0 -96)">
			<stop  offset="2.700576e-02" style="stop-color:#CABD25"/>
			<stop  offset="8.705438e-02" style="stop-color:#CDC233"/>
			<stop  offset="0.2224" style="stop-color:#D2CD4F"/>
			<stop  offset="0.3422" style="stop-color:#D5D35F"/>
			<stop  offset="0.4333" style="stop-color:#D6D565"/>
			<stop  offset="0.566" style="stop-color:#D8D76D"/>
			<stop  offset="0.7754" style="stop-color:#DEDB84"/>
			<stop  offset="0.9911" style="stop-color:#E5E1A2"/>
		</linearGradient>
		<path style="fill:url(#SVGID_00000067947324593587828710000008719787973591191452_);" d="M58,116.8c0-2-1.4-3.6-3.4-3.6
			s-3.4,1.6-3.4,3.6s1.4,3.4,3.4,3.4S58,118.8,58,116.8z"/>
	</g>
	<g class="st6">
		<path class="st13" d="M54.6,113.6c1.7,0,3,1.4,3,3.2c0,1.8-1.2,3-3,3s-3-1.2-3-3C51.6,115,52.9,113.6,54.6,113.6 M54.6,113.2
			c-2,0-3.4,1.6-3.4,3.6s1.4,3.4,3.4,3.4s3.4-1.4,3.4-3.4S56.6,113.2,54.6,113.2L54.6,113.2z"/>
	</g>
	<g class="st9">
		<path class="st10" d="M57.4,116.8c0.4-1.4-0.4-2.7-1.8-3.1c-1.4-0.4-2.6,0.3-3,1.8c-0.4,1.4,1,0.3,2.4,0.7
			C56.4,116.5,57,118.2,57.4,116.8z"/>
	</g>
	<g class="st6">
		
			<linearGradient id="SVGID_00000166659508102088035970000002774727646647431321_" gradientUnits="userSpaceOnUse" x1="54.5492" y1="215.7456" x2="54.5967" y2="213.5043" gradientTransform="matrix(1 0 0 1 0 -96)">
			<stop  offset="0" style="stop-color:#A9A225"/>
			<stop  offset="1" style="stop-color:#E8E066;stop-opacity:0"/>
		</linearGradient>
		<path style="fill:url(#SVGID_00000166659508102088035970000002774727646647431321_);" d="M51.8,117.3c0.2,1.4,1.3,2.4,2.8,2.4
			s2.6-0.9,2.8-2.3L51.8,117.3z"/>
	</g>
</g>
<g id="progressBar">
	<line id="connector" class="st15" x1="308.8" y1="75.1" x2="375" y2="75.1"/>
	<circle id="BikeThree" class="st16" cx="376.4" cy="75" r="5.8"/>
	<circle id="bikeTwo" class="st16" cx="341.5" cy="75" r="5.8"/>
	<circle id="bikeOne" class="st17" cx="303.8" cy="75" r="5.8"/>
</g>
<path id="starIcon" class="st18" d="M54.1,73c-4.5,0-8.1,3.6-8.1,8.1s3.6,8.1,8.1,8.1s8.1-3.6,8.1-8.1C62.2,76.6,58.6,73,54.1,73z
	 M58.2,80.4l-1.5,1.1c-0.2,0.2-0.3,0.5-0.2,0.7l0.6,1.7c0.2,0.6-0.5,1.1-1,0.7l-1.5-1.1c-0.2-0.2-0.5-0.2-0.8,0l-1.5,1.1
	c-0.5,0.4-1.2-0.1-1-0.7l0.6-1.7c0.1-0.3,0-0.6-0.2-0.7l-1.5-1.1c-0.5-0.4-0.3-1.2,0.4-1.2h1.8c0.3,0,0.5-0.2,0.6-0.5l0.6-1.7
	c0.2-0.6,1.1-0.6,1.3,0l0.6,1.7c0.1,0.3,0.3,0.5,0.6,0.5h1.8C58.4,79.2,58.7,80,58.2,80.4z"/>
<rect x="44.5" y="35.4" class="st19" width="193.5" height="21.9"/>
<text transform="matrix(1 0 0 1 44.5454 49.4644)" class="st18 st20 st21">Snazzy Mushroom</text>
<rect x="66.5" y="74.4" class="st19" width="132.5" height="14.6"/>
<text transform="matrix(1 0 0 1 66.5454 86.1245)" class="st18 st20 st22">1257530</text>
<rect x="295.5" y="39.4" class="st19" width="96.5" height="14.6"/>
<text transform="matrix(1 0 0 1 295.5449 50.3442)" class="st18 st20 st23">Your orders</text>
<g id="ticketFeed">
	<g>
		<path class="st24" d="M296.4,136.5H30.5c-3.1,0-5.6-2.5-5.6-5.6l0,0c0-3.1,2.5-5.6,5.6-5.6h265.9c3.1,0,5.6,2.5,5.6,5.6l0,0
			C302,134,299.5,136.5,296.4,136.5z"/>
	</g>
	<g>
		<path class="st25" d="M295.4,127.6c2.2,0,4.1,1.5,4.1,3.3c0,1.8-1.8,3.3-4.1,3.3h-264c-2.2,0-4.1-1.5-4.1-3.3s1.8-3.3,4.1-3.3
			L295.4,127.6 M295.4,126.4h-264c-3.1,0-5.6,2-5.6,4.5s2.5,4.5,5.6,4.5h264c3.1,0,5.6-2,5.6-4.5S298.5,126.4,295.4,126.4
			L295.4,126.4z"/>
	</g>
	<g>
		<path class="st26" d="M296.4,126.8c2.3,0,4.1,1.8,4.1,4.1s-1.8,4.1-4.1,4.1H30.5c-2.3,0-4.1-1.8-4.1-4.1s1.8-4.1,4.1-4.1
			L296.4,126.8 M296.4,125.3H30.5c-3.1,0-5.6,2.5-5.6,5.6s2.5,5.6,5.6,5.6h265.9c3.1,0,5.6-2.5,5.6-5.6S299.5,125.3,296.4,125.3
			L296.4,125.3z"/>
	</g>
</g>
<g id="BUTTON">
	<g>
		<g>
			<path class="st27" d="M400.5,135.9c0,0,0.2,1-41.1,1s-39.3-1-39.3-1c-3.1,0-5.7-2.6-5.7-5.7l-0.5-14.9c0-3.1,2.6-5.7,5.7-5.7
				c0,0-3.1-1,40.3-1s41,1,41,1c3.1,0,5.7,2.6,5.7,5.7l-0.5,14.9C406.2,133.4,403.6,135.9,400.5,135.9z"/>
		</g>
		<g class="st9">
			<path class="st28" d="M400.5,135.9c0,0,0.2,1-41.1,1s-39.3-1-39.3-1c-3.1,0-5.7-2.6-5.7-5.7l-0.5-14.9c0-3.1,2.6-5.7,5.7-5.7
				c0,0-3.1-1,40.3-1s41,1,41,1c3.1,0,5.7,2.6,5.7,5.7l-0.5,14.9C406.2,133.4,403.6,135.9,400.5,135.9z"/>
		</g>
	</g>
	
		<linearGradient id="SVGID_00000030465020700253791030000004832542113134012339_" gradientUnits="userSpaceOnUse" x1="360.3511" y1="229.7744" x2="360.285" y2="206.9105" gradientTransform="matrix(1 0 0 1 0 -96)">
		<stop  offset="0.522" style="stop-color:#FBCC9B"/>
		<stop  offset="0.5226" style="stop-color:#FBBD80"/>
		<stop  offset="0.5232" style="stop-color:#FAB068"/>
		<stop  offset="0.5239" style="stop-color:#FAA757"/>
		<stop  offset="0.5246" style="stop-color:#FAA24C"/>
		<stop  offset="0.5255" style="stop-color:#FAA049"/>
	</linearGradient>
	<path style="fill:url(#SVGID_00000030465020700253791030000004832542113134012339_);" d="M398.8,134.5c0,0-2,0.8-38.9,0.8
		s-38.1-0.8-38.1-0.8c-2.8,0-5.1-2.3-5.1-5.1l-0.4-13.3c0-2.8,2.3-5.1,5.1-5.1c0,0,0.3-0.8,39-0.8s38.8,0.8,38.8,0.8
		c2.8,0,5.1,2.3,5.1,5.1l-0.4,13.3C403.9,132.2,401.6,134.5,398.8,134.5z"/>
	<path class="st30" d="M397.2,132.7c0,0-3.3,0.8-37.2,0.8s-36.1-0.8-36.1-0.8c-2.6,0-4.7-2.1-4.7-4.7l-0.4-11c0-2.6,2.1-4.7,4.7-4.7
		c0,0,1.2-0.8,37-0.8s37.2,0.8,37.2,0.8c2.6,0,4.7,2.1,4.7,4.7l-0.4,11C401.9,130.6,399.8,132.7,397.2,132.7z"/>
	<g class="st6">
		<path class="st18" d="M333.4,125.4h-1.2l-0.6-0.1c-0.9-2.2-1.8-4.8-2.5-7.1h2.1c0.3,1.1,0.6,2.3,1,3.4c0.1,0.5,0.2,0.9,0.4,1.2
			c0.1-0.2,0.2-0.8,0.4-1.2c0.3-1.1,0.7-2.3,1-3.3h2C335.2,120.5,334.3,123.1,333.4,125.4z"/>
		<path class="st18" d="M337,125.4v-7.2h2v7.2H337z"/>
		<path class="st18" d="M340,125.4v-7.2h4.4v1.5H342v1.2h2.1v1.5H342v1.3h2.5v1.5H340V125.4z"/>
		<path class="st18" d="M352.7,125.4H351c-0.3-0.9-0.6-1.9-0.9-2.9c-0.1-0.3-0.1-0.6-0.2-0.7c0,0.1-0.1,0.4-0.2,0.7
			c-0.3,1-0.6,2-0.9,2.9h-1.7c-0.6-2.3-1.2-4.7-1.7-7.2h2c0.2,1.2,0.4,2.2,0.6,3.3c0.1,0.4,0.1,0.8,0.2,1c0-0.1,0.1-0.5,0.2-0.8
			c0.3-1,0.5-2.1,0.8-3.2h1.5c0.2,1,0.5,2.1,0.8,3.1c0.1,0.3,0.2,0.7,0.2,0.8c0-0.1,0.1-0.4,0.1-0.7c0.2-1.1,0.4-2.4,0.6-3.6h1.9
			C353.9,120.7,353.3,123.1,352.7,125.4z"/>
		<path class="st18" d="M361.5,125.5c-2,0-3.2-1.5-3.2-3.7s1.2-3.7,3.2-3.7s3.2,1.5,3.2,3.7C364.7,124.1,363.5,125.5,361.5,125.5z
			 M361.5,119.7c-0.8,0-1.2,1-1.2,2.1s0.4,2.1,1.2,2.1s1.2-1,1.2-2.1S362.4,119.7,361.5,119.7z"/>
		<path class="st18" d="M369.4,125.4c-0.5-0.9-0.9-1.9-1.4-2.7h-0.3v2.7h-2v-6.9c0.7-0.2,1.5-0.3,2.3-0.3c2.1,0,3.2,0.8,3.2,2.3
			c0,0.8-0.5,1.5-1.2,1.8l0,0c0.6,0.8,1.2,2,1.7,3L369.4,125.4L369.4,125.4z M368.2,119.6c-0.2,0-0.4,0-0.5,0.1v2h0.5
			c0.5,0,1-0.4,1-1C369.1,119.8,368.6,119.6,368.2,119.6z"/>
		<path class="st18" d="M374.6,125.5c-0.7,0-1.5-0.1-2.2-0.3v-6.7c0.7-0.2,1.5-0.3,2.2-0.3c2.5,0,3.7,1.4,3.7,3.7
			C378.3,124,377.1,125.5,374.6,125.5z M374.7,119.7c-0.2,0-0.3,0-0.3,0v4.2c0,0,0.1,0,0.3,0c1.1,0,1.6-0.6,1.6-2.1
			C376.3,120.3,375.8,119.7,374.7,119.7z"/>
		<path class="st18" d="M379.7,125.4v-7.2h4.4v1.5h-2.4v1.2h2.1v1.5h-2.1v1.3h2.5v1.5h-4.5V125.4z"/>
		<path class="st18" d="M389.4,125.4c-0.5-0.9-0.9-1.9-1.4-2.7h-0.3v2.7h-2v-6.9c0.7-0.2,1.5-0.3,2.3-0.3c2.1,0,3.2,0.8,3.2,2.3
			c0,0.8-0.5,1.5-1.2,1.8l0,0c0.6,0.8,1.2,2,1.7,3L389.4,125.4L389.4,125.4z M388.2,119.6c-0.2,0-0.4,0-0.5,0.1v2h0.5
			c0.5,0,1-0.4,1-1C389.1,119.8,388.7,119.6,388.2,119.6z"/>
	</g>
</g>
</svg>
