<?xml version="1.0" encoding="utf-8"?>
<!-- Generator: Adobe Illustrator 26.0.2, SVG Export Plug-In . SVG Version: 6.00 Build 0)  -->
<svg version="1.1" id="printScreen" xmlns="http://www.w3.org/2000/svg" xmlns:xlink="http://www.w3.org/1999/xlink" x="0px"
	 y="0px" viewBox="0 0 420 520" style="enable-background:new 0 0 420 520;" xml:space="preserve">
<style type="text/css">
	.st0{fill:#228585;}
	.st1{fill:#82C9CB;}
	.st2{opacity:0.3;}
	.st3{opacity:0.6;fill:none;stroke:#46B4B8;stroke-width:0.9129;stroke-miterlimit:10;enable-background:new    ;}
	.st4{fill:#45B8BB;}
	.st5{fill:#D2E2E9;}
	.st6{fill:#B6D2DF;}
	.st7{fill:#596464;}
	.st8{opacity:0.75;}
	.st9{filter:url(#Adobe_OpacityMaskFilter);}
	.st10{opacity:0.75;mask:url(#SVGID_00000085228391797589094400000013134621588724465842_);}
</style>
<g id="gridScreen">
	<path class="st0" d="M397.4,376.8H28c-5.1,0-9.2-4.4-9.2-9.9V37.2c0-6.4,4.8-11.5,10.7-11.5h366.3c5.9,0,10.7,5.2,10.7,11.5V367
		C406.5,372.4,402.4,376.8,397.4,376.8z"/>
	<path class="st1" d="M27.1,370.9c-6.5,0-11.8-5.3-11.8-11.8V21.2h392.1v342c0,4.9-4,8.9-8.9,8.9L27.1,370.9z"/>
	<g class="st2">
		<rect x="19.8" y="25.7" class="st3" width="25.4" height="22.7"/>
		<rect x="45.2" y="25.7" class="st3" width="25.4" height="22.7"/>
		<rect x="70.6" y="25.7" class="st3" width="25.4" height="22.7"/>
		<rect x="96" y="25.7" class="st3" width="25.4" height="22.7"/>
		<rect x="121.4" y="25.7" class="st3" width="25.4" height="22.7"/>
		<rect x="146.8" y="25.7" class="st3" width="25.4" height="22.7"/>
		<rect x="172.3" y="25.7" class="st3" width="25.4" height="22.7"/>
		<rect x="197.7" y="25.7" class="st3" width="25.4" height="22.7"/>
		<rect x="223.1" y="25.7" class="st3" width="25.4" height="22.7"/>
		<rect x="248.5" y="25.7" class="st3" width="25.4" height="22.7"/>
		<rect x="273.9" y="25.7" class="st3" width="25.4" height="22.7"/>
		<rect x="299.3" y="25.7" class="st3" width="25.4" height="22.7"/>
		<rect x="324.7" y="25.7" class="st3" width="25.4" height="22.7"/>
		<rect x="350.1" y="25.7" class="st3" width="25.4" height="22.7"/>
		<rect x="375.6" y="25.7" class="st3" width="25.4" height="22.7"/>
		<rect x="19.8" y="48.4" class="st3" width="25.4" height="22.7"/>
		<rect x="45.2" y="48.4" class="st3" width="25.4" height="22.7"/>
		<rect x="70.6" y="48.4" class="st3" width="25.4" height="22.7"/>
		<rect x="96" y="48.4" class="st3" width="25.4" height="22.7"/>
		<rect x="121.4" y="48.4" class="st3" width="25.4" height="22.7"/>
		<rect x="146.8" y="48.4" class="st3" width="25.4" height="22.7"/>
		<rect x="172.3" y="48.4" class="st3" width="25.4" height="22.7"/>
		<rect x="197.7" y="48.4" class="st3" width="25.4" height="22.7"/>
		<rect x="223.1" y="48.4" class="st3" width="25.4" height="22.7"/>
		<rect x="248.5" y="48.4" class="st3" width="25.4" height="22.7"/>
		<rect x="273.9" y="48.4" class="st3" width="25.4" height="22.7"/>
		<rect x="299.3" y="48.4" class="st3" width="25.4" height="22.7"/>
		<rect x="324.7" y="48.4" class="st3" width="25.4" height="22.7"/>
		<rect x="350.1" y="48.4" class="st3" width="25.4" height="22.7"/>
		<rect x="375.6" y="48.4" class="st3" width="25.4" height="22.7"/>
		<rect x="19.8" y="71.1" class="st3" width="25.4" height="22.7"/>
		<rect x="45.2" y="71.1" class="st3" width="25.4" height="22.7"/>
		<rect x="70.6" y="71.1" class="st3" width="25.4" height="22.7"/>
		<rect x="96" y="71.1" class="st3" width="25.4" height="22.7"/>
		<rect x="121.4" y="71.1" class="st3" width="25.4" height="22.7"/>
		<rect x="146.8" y="71.1" class="st3" width="25.4" height="22.7"/>
		<rect x="172.3" y="71.1" class="st3" width="25.4" height="22.7"/>
		<rect x="197.7" y="71.1" class="st3" width="25.4" height="22.7"/>
		<rect x="223.1" y="71.1" class="st3" width="25.4" height="22.7"/>
		<rect x="248.5" y="71.1" class="st3" width="25.4" height="22.7"/>
		<rect x="273.9" y="71.1" class="st3" width="25.4" height="22.7"/>
		<rect x="299.3" y="71.1" class="st3" width="25.4" height="22.7"/>
		<rect x="324.7" y="71.1" class="st3" width="25.4" height="22.7"/>
		<rect x="350.1" y="71.1" class="st3" width="25.4" height="22.7"/>
		<rect x="375.6" y="71.1" class="st3" width="25.4" height="22.7"/>
		<rect x="19.8" y="93.9" class="st3" width="25.4" height="22.7"/>
		<rect x="45.2" y="93.9" class="st3" width="25.4" height="22.7"/>
		<rect x="70.6" y="93.9" class="st3" width="25.4" height="22.7"/>
		<rect x="96" y="93.9" class="st3" width="25.4" height="22.7"/>
		<rect x="121.4" y="93.9" class="st3" width="25.4" height="22.7"/>
		<rect x="146.8" y="93.9" class="st3" width="25.4" height="22.7"/>
		<rect x="172.3" y="93.9" class="st3" width="25.4" height="22.7"/>
		<rect x="197.7" y="93.9" class="st3" width="25.4" height="22.7"/>
		<rect x="223.1" y="93.9" class="st3" width="25.4" height="22.7"/>
		<rect x="248.5" y="93.9" class="st3" width="25.4" height="22.7"/>
		<rect x="273.9" y="93.9" class="st3" width="25.4" height="22.7"/>
		<rect x="299.3" y="93.9" class="st3" width="25.4" height="22.7"/>
		<rect x="324.7" y="93.9" class="st3" width="25.4" height="22.7"/>
		<rect x="350.1" y="93.9" class="st3" width="25.4" height="22.7"/>
		<rect x="375.6" y="93.9" class="st3" width="25.4" height="22.7"/>
		<rect x="19.8" y="116.6" class="st3" width="25.4" height="22.7"/>
		<rect x="45.2" y="116.6" class="st3" width="25.4" height="22.7"/>
		<rect x="70.6" y="116.6" class="st3" width="25.4" height="22.7"/>
		<rect x="96" y="116.6" class="st3" width="25.4" height="22.7"/>
		<rect x="121.4" y="116.6" class="st3" width="25.4" height="22.7"/>
		<rect x="146.8" y="116.6" class="st3" width="25.4" height="22.7"/>
		<rect x="172.3" y="116.6" class="st3" width="25.4" height="22.7"/>
		<rect x="197.7" y="116.6" class="st3" width="25.4" height="22.7"/>
		<rect x="223.1" y="116.6" class="st3" width="25.4" height="22.7"/>
		<rect x="248.5" y="116.6" class="st3" width="25.4" height="22.7"/>
		<rect x="273.9" y="116.6" class="st3" width="25.4" height="22.7"/>
		<rect x="299.3" y="116.6" class="st3" width="25.4" height="22.7"/>
		<rect x="324.7" y="116.6" class="st3" width="25.4" height="22.7"/>
		<rect x="350.1" y="116.6" class="st3" width="25.4" height="22.7"/>
		<rect x="375.6" y="116.6" class="st3" width="25.4" height="22.7"/>
		<rect x="19.8" y="139.4" class="st3" width="25.4" height="22.7"/>
		<rect x="45.2" y="139.4" class="st3" width="25.4" height="22.7"/>
		<rect x="70.6" y="139.4" class="st3" width="25.4" height="22.7"/>
		<rect x="96" y="139.4" class="st3" width="25.4" height="22.7"/>
		<rect x="121.4" y="139.4" class="st3" width="25.4" height="22.7"/>
		<rect x="146.8" y="139.4" class="st3" width="25.4" height="22.7"/>
		<rect x="172.3" y="139.4" class="st3" width="25.4" height="22.7"/>
		<rect x="197.7" y="139.4" class="st3" width="25.4" height="22.7"/>
		<rect x="223.1" y="139.4" class="st3" width="25.4" height="22.7"/>
		<rect x="248.5" y="139.4" class="st3" width="25.4" height="22.7"/>
		<rect x="273.9" y="139.4" class="st3" width="25.4" height="22.7"/>
		<rect x="299.3" y="139.4" class="st3" width="25.4" height="22.7"/>
		<rect x="324.7" y="139.4" class="st3" width="25.4" height="22.7"/>
		<rect x="350.1" y="139.4" class="st3" width="25.4" height="22.7"/>
		<rect x="375.6" y="139.4" class="st3" width="25.4" height="22.7"/>
		<rect x="19.8" y="162.1" class="st3" width="25.4" height="22.7"/>
		<rect x="45.2" y="162.1" class="st3" width="25.4" height="22.7"/>
		<rect x="70.6" y="162.1" class="st3" width="25.4" height="22.7"/>
		<rect x="96" y="162.1" class="st3" width="25.4" height="22.7"/>
		<rect x="121.4" y="162.1" class="st3" width="25.4" height="22.7"/>
		<rect x="146.8" y="162.1" class="st3" width="25.4" height="22.7"/>
		<rect x="172.3" y="162.1" class="st3" width="25.4" height="22.7"/>
		<rect x="197.7" y="162.1" class="st3" width="25.4" height="22.7"/>
		<rect x="223.1" y="162.1" class="st3" width="25.4" height="22.7"/>
		<rect x="248.5" y="162.1" class="st3" width="25.4" height="22.7"/>
		<rect x="273.9" y="162.1" class="st3" width="25.4" height="22.7"/>
		<rect x="299.3" y="162.1" class="st3" width="25.4" height="22.7"/>
		<rect x="324.7" y="162.1" class="st3" width="25.4" height="22.7"/>
		<rect x="350.1" y="162.1" class="st3" width="25.4" height="22.7"/>
		<rect x="375.6" y="162.1" class="st3" width="25.4" height="22.7"/>
		<rect x="19.8" y="184.9" class="st3" width="25.4" height="22.7"/>
		<rect x="45.2" y="184.9" class="st3" width="25.4" height="22.7"/>
		<rect x="70.6" y="184.9" class="st3" width="25.4" height="22.7"/>
		<rect x="96" y="184.9" class="st3" width="25.4" height="22.7"/>
		<rect x="121.4" y="184.9" class="st3" width="25.4" height="22.7"/>
		<rect x="146.8" y="184.9" class="st3" width="25.4" height="22.7"/>
		<rect x="172.3" y="184.9" class="st3" width="25.4" height="22.7"/>
		<rect x="197.7" y="184.9" class="st3" width="25.4" height="22.7"/>
		<rect x="223.1" y="184.9" class="st3" width="25.4" height="22.7"/>
		<rect x="248.5" y="184.9" class="st3" width="25.4" height="22.7"/>
		<rect x="273.9" y="184.9" class="st3" width="25.4" height="22.7"/>
		<rect x="299.3" y="184.9" class="st3" width="25.4" height="22.7"/>
		<rect x="324.7" y="184.9" class="st3" width="25.4" height="22.7"/>
		<rect x="350.1" y="184.9" class="st3" width="25.4" height="22.7"/>
		<rect x="375.6" y="184.9" class="st3" width="25.4" height="22.7"/>
		<rect x="19.8" y="207.6" class="st3" width="25.4" height="22.7"/>
		<rect x="45.2" y="207.6" class="st3" width="25.4" height="22.7"/>
		<rect x="70.6" y="207.6" class="st3" width="25.4" height="22.7"/>
		<rect x="96" y="207.6" class="st3" width="25.4" height="22.7"/>
		<rect x="121.4" y="207.6" class="st3" width="25.4" height="22.7"/>
		<rect x="146.8" y="207.6" class="st3" width="25.4" height="22.7"/>
		<rect x="172.3" y="207.6" class="st3" width="25.4" height="22.7"/>
		<rect x="197.7" y="207.6" class="st3" width="25.4" height="22.7"/>
		<rect x="223.1" y="207.6" class="st3" width="25.4" height="22.7"/>
		<rect x="248.5" y="207.6" class="st3" width="25.4" height="22.7"/>
		<rect x="273.9" y="207.6" class="st3" width="25.4" height="22.7"/>
		<rect x="299.3" y="207.6" class="st3" width="25.4" height="22.7"/>
		<rect x="324.7" y="207.6" class="st3" width="25.4" height="22.7"/>
		<rect x="350.1" y="207.6" class="st3" width="25.4" height="22.7"/>
		<rect x="375.6" y="207.6" class="st3" width="25.4" height="22.7"/>
		<rect x="19.8" y="230.3" class="st3" width="25.4" height="22.7"/>
		<rect x="45.2" y="230.3" class="st3" width="25.4" height="22.7"/>
		<rect x="70.6" y="230.3" class="st3" width="25.4" height="22.7"/>
		<rect x="96" y="230.3" class="st3" width="25.4" height="22.7"/>
		<rect x="121.4" y="230.3" class="st3" width="25.4" height="22.7"/>
		<rect x="146.8" y="230.3" class="st3" width="25.4" height="22.7"/>
		<rect x="172.3" y="230.3" class="st3" width="25.4" height="22.7"/>
		<rect x="197.7" y="230.3" class="st3" width="25.4" height="22.7"/>
		<rect x="223.1" y="230.3" class="st3" width="25.4" height="22.7"/>
		<rect x="248.5" y="230.3" class="st3" width="25.4" height="22.7"/>
		<rect x="273.9" y="230.3" class="st3" width="25.4" height="22.7"/>
		<rect x="299.3" y="230.3" class="st3" width="25.4" height="22.7"/>
		<rect x="324.7" y="230.3" class="st3" width="25.4" height="22.7"/>
		<rect x="350.1" y="230.3" class="st3" width="25.4" height="22.7"/>
		<rect x="375.6" y="230.3" class="st3" width="25.4" height="22.7"/>
		<rect x="19.8" y="253.1" class="st3" width="25.4" height="22.7"/>
		<rect x="45.2" y="253.1" class="st3" width="25.4" height="22.7"/>
		<rect x="70.6" y="253.1" class="st3" width="25.4" height="22.7"/>
		<rect x="96" y="253.1" class="st3" width="25.4" height="22.7"/>
		<rect x="121.4" y="253.1" class="st3" width="25.4" height="22.7"/>
		<rect x="146.8" y="253.1" class="st3" width="25.4" height="22.7"/>
		<rect x="172.3" y="253.1" class="st3" width="25.4" height="22.7"/>
		<rect x="197.7" y="253.1" class="st3" width="25.4" height="22.7"/>
		<rect x="223.1" y="253.1" class="st3" width="25.4" height="22.7"/>
		<rect x="248.5" y="253.1" class="st3" width="25.4" height="22.7"/>
		<rect x="273.9" y="253.1" class="st3" width="25.4" height="22.7"/>
		<rect x="299.3" y="253.1" class="st3" width="25.4" height="22.7"/>
		<rect x="324.7" y="253.1" class="st3" width="25.4" height="22.7"/>
		<rect x="350.1" y="253.1" class="st3" width="25.4" height="22.7"/>
		<rect x="375.6" y="253.1" class="st3" width="25.4" height="22.7"/>
		<rect x="19.8" y="275.8" class="st3" width="25.4" height="22.7"/>
		<rect x="45.2" y="275.8" class="st3" width="25.4" height="22.7"/>
		<rect x="70.6" y="275.8" class="st3" width="25.4" height="22.7"/>
		<rect x="96" y="275.8" class="st3" width="25.4" height="22.7"/>
		<rect x="121.4" y="275.8" class="st3" width="25.4" height="22.7"/>
		<rect x="146.8" y="275.8" class="st3" width="25.4" height="22.7"/>
		<rect x="172.3" y="275.8" class="st3" width="25.4" height="22.7"/>
		<rect x="197.7" y="275.8" class="st3" width="25.4" height="22.7"/>
		<rect x="223.1" y="275.8" class="st3" width="25.4" height="22.7"/>
		<rect x="248.5" y="275.8" class="st3" width="25.4" height="22.7"/>
		<rect x="273.9" y="275.8" class="st3" width="25.4" height="22.7"/>
		<rect x="299.3" y="275.8" class="st3" width="25.4" height="22.7"/>
		<rect x="324.7" y="275.8" class="st3" width="25.4" height="22.7"/>
		<rect x="350.1" y="275.8" class="st3" width="25.4" height="22.7"/>
		<rect x="375.6" y="275.8" class="st3" width="25.4" height="22.7"/>
		<rect x="19.8" y="298.6" class="st3" width="25.4" height="22.7"/>
		<rect x="45.2" y="298.6" class="st3" width="25.4" height="22.7"/>
		<rect x="70.6" y="298.6" class="st3" width="25.4" height="22.7"/>
		<rect x="96" y="298.6" class="st3" width="25.4" height="22.7"/>
		<rect x="121.4" y="298.6" class="st3" width="25.4" height="22.7"/>
		<rect x="146.8" y="298.6" class="st3" width="25.4" height="22.7"/>
		<rect x="172.3" y="298.6" class="st3" width="25.4" height="22.7"/>
		<rect x="197.7" y="298.6" class="st3" width="25.4" height="22.7"/>
		<rect x="223.1" y="298.6" class="st3" width="25.4" height="22.7"/>
		<rect x="248.5" y="298.6" class="st3" width="25.4" height="22.7"/>
		<rect x="273.9" y="298.6" class="st3" width="25.4" height="22.7"/>
		<rect x="299.3" y="298.6" class="st3" width="25.4" height="22.7"/>
		<rect x="324.7" y="298.6" class="st3" width="25.4" height="22.7"/>
		<rect x="350.1" y="298.6" class="st3" width="25.4" height="22.7"/>
		<rect x="375.6" y="298.6" class="st3" width="25.4" height="22.7"/>
		<rect x="19.8" y="321.3" class="st3" width="25.4" height="22.7"/>
		<rect x="45.2" y="321.3" class="st3" width="25.4" height="22.7"/>
		<rect x="70.6" y="321.3" class="st3" width="25.4" height="22.7"/>
		<rect x="96" y="321.3" class="st3" width="25.4" height="22.7"/>
		<rect x="121.4" y="321.3" class="st3" width="25.4" height="22.7"/>
		<rect x="146.8" y="321.3" class="st3" width="25.4" height="22.7"/>
		<rect x="172.3" y="321.3" class="st3" width="25.4" height="22.7"/>
		<rect x="197.7" y="321.3" class="st3" width="25.4" height="22.7"/>
		<rect x="223.1" y="321.3" class="st3" width="25.4" height="22.7"/>
		<rect x="248.5" y="321.3" class="st3" width="25.4" height="22.7"/>
		<rect x="273.9" y="321.3" class="st3" width="25.4" height="22.7"/>
		<rect x="299.3" y="321.3" class="st3" width="25.4" height="22.7"/>
		<rect x="324.7" y="321.3" class="st3" width="25.4" height="22.7"/>
		<rect x="350.1" y="321.3" class="st3" width="25.4" height="22.7"/>
		<rect x="375.6" y="321.3" class="st3" width="25.4" height="22.7"/>
		<rect x="19.8" y="344.1" class="st3" width="25.4" height="22.7"/>
		<rect x="45.2" y="344.1" class="st3" width="25.4" height="22.7"/>
		<rect x="70.6" y="344.1" class="st3" width="25.4" height="22.7"/>
		<rect x="96" y="344.1" class="st3" width="25.4" height="22.7"/>
		<rect x="121.4" y="344.1" class="st3" width="25.4" height="22.7"/>
		<rect x="146.8" y="344.1" class="st3" width="25.4" height="22.7"/>
		<rect x="172.3" y="344.1" class="st3" width="25.4" height="22.7"/>
		<rect x="197.7" y="344.1" class="st3" width="25.4" height="22.7"/>
		<rect x="223.1" y="344.1" class="st3" width="25.4" height="22.7"/>
		<rect x="248.5" y="344.1" class="st3" width="25.4" height="22.7"/>
		<rect x="273.9" y="344.1" class="st3" width="25.4" height="22.7"/>
		<rect x="299.3" y="344.1" class="st3" width="25.4" height="22.7"/>
		<rect x="324.7" y="344.1" class="st3" width="25.4" height="22.7"/>
		<rect x="350.1" y="344.1" class="st3" width="25.4" height="22.7"/>
		<rect x="375.6" y="344.1" class="st3" width="25.4" height="22.7"/>
	</g>
	<path class="st4" d="M398.5,382.2L27.1,381c-12.1,0-21.9-9.8-21.9-21.9V21.2c0-5.6,4.5-10.1,10.1-10.1h392.1
		c5.6,0,10.1,4.5,10.1,10.1v342C417.4,373.6,409,382.1,398.5,382.2z M25.3,36.7v319.4c0,3.7,3,6.6,6.6,6.7l356.2,1.1
		c5.1,0,9.2-4.1,9.2-9.1v-318c0-3-2.5-5.5-5.5-5.5h-361C27.8,31.2,25.3,33.7,25.3,36.7z"/>
</g>
<path id="mainFrame" class="st5" d="M19.9,359.9V34.3c0-5,4.1-9.1,9.1-9.1h363.8c5,0,9.1,4.1,9.1,9.1v328.1c0,3.4-2.8,6.2-6.2,6.2
	l-368.1-1.2C23.3,367.5,19.9,364.1,19.9,359.9z M418.9,14.4c-0.3-2.2-2.2-3.9-4.4-3.9c-2.4,0-4.3-2.2-4.3-4.5V5.5
	c0-2.5-2-4.5-4.5-4.5H14.3c-2.5,0-4.5,2-4.5,4.5v0.2c0,2.6-2.1,4.7-4.8,4.8c-2.1,0.1-3.8,1.8-4,3.9l0,0v0.4V504v0.6h0.1
	c0.3,2.2,2.2,3.9,4.4,3.9c2.4,0,4.3,2.2,4.3,4.5v0.5c0,2.5,2,4.5,4.5,4.5h391.4c2.5,0,4.5-2,4.5-4.5v-0.2c0-2.6,2.1-4.7,4.8-4.8
	c2.1-0.1,3.8-1.8,4-3.9l0,0v-0.4V15L418.9,14.4L418.9,14.4z"/>
<path id="shadowFrame" class="st6" d="M419,269.1v235.4l0,0c-0.2,2.1-1.9,3.8-4,3.9c-2.7,0.2-4.8,2.2-4.8,4.8v0.2
	c0,2.5-2,4.5-4.5,4.5H14.3c-2.5,0-4.5-2-4.5-4.5V513c0-2.4-1.9-4.5-4.3-4.5c-2.3,0-4.1-1.7-4.4-3.9H1V269.1h18.9v90.7
	c0,4.2,3.4,7.6,7.6,7.6l368.2,1.2c3.4,0,6.2-2.8,6.2-6.2v-93.3L419,269.1L419,269.1z"/>
<g id="trackBottom">
	<g>
		<path class="st7" d="M26.6,377.9h371c1.8,0,3.3,1.5,3.3,3.3l0,0c0,1.8-1.5,3.3-3.3,3.3h-371c-1.8,0-3.3-1.5-3.3-3.3l0,0
			C23.3,379.4,24.8,377.9,26.6,377.9z"/>
	</g>
	<g class="st8">
		<path d="M26.6,377.9h371c1.8,0,3.3,1.5,3.3,3.3l0,0c0,1.8-1.5,3.3-3.3,3.3h-371c-1.8,0-3.3-1.5-3.3-3.3l0,0
			C23.3,379.4,24.8,377.9,26.6,377.9z"/>
	</g>
</g>
<g id="trackTop">
	<g>
		<path class="st7" d="M26.6,9.3h371c1.8,0,3.3,1.5,3.3,3.3l0,0c0,1.8-1.5,3.3-3.3,3.3h-371c-1.8,0-3.3-1.5-3.3-3.3l0,0
			C23.3,10.8,24.8,9.3,26.6,9.3z"/>
	</g>
	<defs>
		<filter id="Adobe_OpacityMaskFilter" filterUnits="userSpaceOnUse" x="23.3" y="9.3" width="377.6" height="6.6">
			<feColorMatrix  type="matrix" values="1 0 0 0 0  0 1 0 0 0  0 0 1 0 0  0 0 0 1 0"/>
		</filter>
	</defs>
	
		<mask maskUnits="userSpaceOnUse" x="23.3" y="9.3" width="377.6" height="6.6" id="SVGID_00000085228391797589094400000013134621588724465842_">
		<g class="st9">
			
				<image style="overflow:visible;enable-background:new    ;" width="382" height="12" xlink:href="C414F92EBF402710.jpg"  transform="matrix(1 0 0 1 21 6.869)">
			</image>
		</g>
	</mask>
	<g class="st10">
		<path d="M26.6,9.3h371c1.8,0,3.3,1.5,3.3,3.3l0,0c0,1.8-1.5,3.3-3.3,3.3h-371c-1.8,0-3.3-1.5-3.3-3.3l0,0
			C23.3,10.8,24.8,9.3,26.6,9.3z"/>
	</g>
</g>
</svg>
