<?xml version="1.0" encoding="utf-8"?>
<!-- Generator: Adobe Illustrator 26.0.2, SVG Export Plug-In . SVG Version: 6.00 Build 0)  -->
<svg version="1.1" id="printHead_00000127044431277366780500000003292409466999802539_"
	 xmlns="http://www.w3.org/2000/svg" xmlns:xlink="http://www.w3.org/1999/xlink" x="0px" y="0px" viewBox="0 0 420 520"
	 style="enable-background:new 0 0 420 520;" xml:space="preserve">
<style type="text/css">
	.st0{fill:url(#SVGID_1_);}
	.st1{fill:url(#SVGID_00000129200686695389203270000001768130528627252912_);}
	.st2{fill:#90A8B1;}
	.st3{opacity:0.2;fill:none;stroke:#90A8B1;stroke-width:0.7252;stroke-miterlimit:10;enable-background:new    ;}
	.st4{fill:url(#SVGID_00000183965842179351998460000011031628308105397907_);}
	.st5{fill:url(#SVGID_00000141418998164607841000000010820904402905203859_);}
	.st6{fill:url(#SVGID_00000183247871314650156640000007084411672072801679_);}
	.st7{enable-background:new    ;}
	.st8{fill:url(#SVGID_00000097477102696725547600000007599241671262206593_);}
	.st9{fill:#08C632;}
	.st10{opacity:0.15;}
	.st11{fill:#9AD5E5;}
	.st12{fill:url(#SVGID_00000163055899337381200000000016166238513597249946_);}
	.st13{fill:url(#SVGID_00000097487840237485326740000004226122991095911612_);}
	.st14{fill:#C51E03;}
	.st15{fill:url(#SVGID_00000033365920124436883810000009452867962516842680_);}
	.st16{fill:#87A9B3;}
	.st17{fill:#FFFFFF;}
	.st18{fill:#89A3AB;}
	.st19{fill:url(#SVGID_00000072982442294238344660000015925908860634698633_);}
	.st20{fill:url(#SVGID_00000142162550640654961800000006412665962097611958_);}
	.st21{fill:url(#SVGID_00000071540497000477426780000008987797916090827418_);}
	.st22{fill:url(#SVGID_00000029020326015430854060000017087722002998896311_);}
	.st23{fill:url(#SVGID_00000117675253684354507250000009454288321144780429_);}
</style>
<g id="printHead">
	
		<linearGradient id="SVGID_1_" gradientUnits="userSpaceOnUse" x1="219.7" y1="422.4976" x2="219.7" y2="501.0176" gradientTransform="matrix(1 0 0 -1 0 520)">
		<stop  offset="0" style="stop-color:#B6D2DF"/>
		<stop  offset="0.3235" style="stop-color:#B9D4E0"/>
		<stop  offset="0.6045" style="stop-color:#C4DAE4"/>
		<stop  offset="0.821" style="stop-color:#D2E2E9"/>
	</linearGradient>
	<path class="st0" d="M188.4,108.3h62.7c4.4,0,7.9-3.5,7.9-7.9V32c0-4.4-3.5-7.9-7.9-7.9h-62.7c-4.4,0-7.9,3.5-7.9,7.9v68.4
		C180.5,104.8,184,108.3,188.4,108.3z"/>
	
		<linearGradient id="SVGID_00000052091589760439182720000013032838779285186435_" gradientUnits="userSpaceOnUse" x1="185.65" y1="493.1648" x2="185.65" y2="488.2421" gradientTransform="matrix(1 0 0 -1 0 520)">
		<stop  offset="0" style="stop-color:#B6D2DF"/>
		<stop  offset="0.3235" style="stop-color:#B9D4E0"/>
		<stop  offset="0.6045" style="stop-color:#C4DAE4"/>
		<stop  offset="0.821" style="stop-color:#D2E2E9"/>
	</linearGradient>
	<circle style="fill:url(#SVGID_00000052091589760439182720000013032838779285186435_);" cx="185.7" cy="29.7" r="2.5"/>
	<path class="st2" d="M184,29.4h3.4c0.1,0,0.3,0.1,0.3,0.3l0,0c0,0.1-0.1,0.3-0.3,0.3H184c-0.1,0-0.3-0.1-0.3-0.3l0,0
		C183.7,29.5,183.8,29.4,184,29.4z"/>
	<circle class="st3" cx="185.7" cy="29.7" r="2.8"/>
	
		<linearGradient id="SVGID_00000040533841399832200590000000857689644414778282_" gradientUnits="userSpaceOnUse" x1="185.65" y1="419.9253" x2="185.65" y2="415.0027" gradientTransform="matrix(1 0 0 -1 0 520)">
		<stop  offset="0" style="stop-color:#B6D2DF"/>
		<stop  offset="0.3235" style="stop-color:#B9D4E0"/>
		<stop  offset="0.6045" style="stop-color:#C4DAE4"/>
		<stop  offset="0.821" style="stop-color:#D2E2E9"/>
	</linearGradient>
	<circle style="fill:url(#SVGID_00000040533841399832200590000000857689644414778282_);" cx="185.7" cy="102.9" r="2.5"/>
	<path class="st2" d="M184,102.6h3.4c0.1,0,0.3,0.1,0.3,0.3l0,0c0,0.1-0.1,0.3-0.3,0.3H184c-0.1,0-0.3-0.1-0.3-0.3l0,0
		C183.7,102.7,183.8,102.6,184,102.6z"/>
	<circle class="st3" cx="185.7" cy="102.9" r="2.8"/>
	
		<linearGradient id="SVGID_00000032624375120738967060000000348937826958994569_" gradientUnits="userSpaceOnUse" x1="253.75" y1="493.1648" x2="253.75" y2="488.2421" gradientTransform="matrix(1 0 0 -1 0 520)">
		<stop  offset="0" style="stop-color:#B6D2DF"/>
		<stop  offset="0.3235" style="stop-color:#B9D4E0"/>
		<stop  offset="0.6045" style="stop-color:#C4DAE4"/>
		<stop  offset="0.821" style="stop-color:#D2E2E9"/>
	</linearGradient>
	<circle style="fill:url(#SVGID_00000032624375120738967060000000348937826958994569_);" cx="253.8" cy="29.7" r="2.5"/>
	<path class="st2" d="M252.1,29.4h3.4c0.1,0,0.3,0.1,0.3,0.3l0,0c0,0.1-0.1,0.3-0.3,0.3h-3.4c-0.1,0-0.3-0.1-0.3-0.3l0,0
		C251.9,29.5,252,29.4,252.1,29.4z"/>
	<circle class="st3" cx="253.8" cy="29.7" r="2.8"/>
	
		<linearGradient id="SVGID_00000001626886107636977270000015280266494400779666_" gradientUnits="userSpaceOnUse" x1="253.75" y1="419.9253" x2="253.75" y2="415.0027" gradientTransform="matrix(1 0 0 -1 0 520)">
		<stop  offset="0" style="stop-color:#B6D2DF"/>
		<stop  offset="0.3235" style="stop-color:#B9D4E0"/>
		<stop  offset="0.6045" style="stop-color:#C4DAE4"/>
		<stop  offset="0.821" style="stop-color:#D2E2E9"/>
	</linearGradient>
	<circle style="fill:url(#SVGID_00000001626886107636977270000015280266494400779666_);" cx="253.8" cy="102.9" r="2.5"/>
	<path class="st2" d="M252.1,102.6h3.4c0.1,0,0.3,0.1,0.3,0.3l0,0c0,0.1-0.1,0.3-0.3,0.3h-3.4c-0.1,0-0.3-0.1-0.3-0.3l0,0
		C251.9,102.7,252,102.6,252.1,102.6z"/>
	<circle class="st3" cx="253.8" cy="102.9" r="2.8"/>
	<path class="st2" d="M191.4,104.3h56.7l-0.5-2h-55.7L191.4,104.3z"/>
	<path class="st2" d="M191.4,102h56.7l-0.5-2h-55.7L191.4,102z"/>
	<path class="st2" d="M191.4,99.6h56.7l-0.5-2h-55.7L191.4,99.6z"/>
	<path class="st2" d="M191.4,97.2h56.7l-0.5-2h-55.7L191.4,97.2z"/>
	<g class="st7">
		
			<linearGradient id="SVGID_00000080890198908119641980000001294396693682688937_" gradientUnits="userSpaceOnUse" x1="189.95" y1="478.8271" x2="189.95" y2="482.0678" gradientTransform="matrix(1 0 0 -1 0 520)">
			<stop  offset="2.700576e-02" style="stop-color:#05C66B"/>
			<stop  offset="0.1059" style="stop-color:#19CA73"/>
			<stop  offset="0.2339" style="stop-color:#35CF7D"/>
			<stop  offset="0.3472" style="stop-color:#45D284"/>
			<stop  offset="0.4333" style="stop-color:#4BD386"/>
			<stop  offset="0.5456" style="stop-color:#53D58C"/>
			<stop  offset="0.7227" style="stop-color:#6AD99E"/>
			<stop  offset="0.9414" style="stop-color:#8FE1BA"/>
			<stop  offset="0.9911" style="stop-color:#98E3C1"/>
		</linearGradient>
		<path style="fill:url(#SVGID_00000080890198908119641980000001294396693682688937_);" d="M191.7,39.5c0-1-0.7-1.8-1.7-1.8
			s-1.7,0.8-1.7,1.8s0.7,1.7,1.7,1.7C191,41.2,191.7,40.5,191.7,39.5z"/>
	</g>
	<g class="st7">
		<path class="st9" d="M190,37.9c0.8,0,1.5,0.7,1.5,1.6S190.9,41,190,41s-1.5-0.6-1.5-1.5S189.2,37.9,190,37.9 M190,37.8
			c-1,0-1.7,0.8-1.7,1.8s0.7,1.7,1.7,1.7s1.7-0.7,1.7-1.7C191.7,38.5,191,37.8,190,37.8L190,37.8z"/>
	</g>
	<g class="st10">
		<path class="st11" d="M191.4,39.5c0.2-0.7-0.2-1.3-0.9-1.5s-1.3,0.2-1.5,0.9c-0.2,0.7,0.5,0.2,1.2,0.3
			C190.9,39.4,191.2,40.2,191.4,39.5z"/>
	</g>
	<g class="st7">
		
			<linearGradient id="SVGID_00000105398264472269178650000009453148463253564295_" gradientUnits="userSpaceOnUse" x1="189.9264" y1="479.0336" x2="189.9498" y2="480.1398" gradientTransform="matrix(1 0 0 -1 0 520)">
			<stop  offset="0" style="stop-color:#02A651"/>
			<stop  offset="1" style="stop-color:#49D5E9;stop-opacity:0"/>
		</linearGradient>
		<path style="fill:url(#SVGID_00000105398264472269178650000009453148463253564295_);" d="M188.6,39.8c0.1,0.7,0.6,1.2,1.4,1.2
			c0.7,0,1.3-0.5,1.4-1.1"/>
	</g>
	<g class="st7">
		
			<linearGradient id="SVGID_00000163788434451821260000000001759367582444366750_" gradientUnits="userSpaceOnUse" x1="194.55" y1="478.8271" x2="194.55" y2="482.0678" gradientTransform="matrix(1 0 0 -1 0 520)">
			<stop  offset="2.700576e-02" style="stop-color:#C51E03"/>
			<stop  offset="0.1144" style="stop-color:#C92D1A"/>
			<stop  offset="0.239" style="stop-color:#CE3E36"/>
			<stop  offset="0.3494" style="stop-color:#D14846"/>
			<stop  offset="0.4333" style="stop-color:#D24C4C"/>
			<stop  offset="0.5466" style="stop-color:#D45454"/>
			<stop  offset="0.7255" style="stop-color:#D96B6B"/>
			<stop  offset="0.9463" style="stop-color:#E09090"/>
			<stop  offset="0.9911" style="stop-color:#E29898"/>
		</linearGradient>
		<path style="fill:url(#SVGID_00000163788434451821260000000001759367582444366750_);" d="M196.3,39.5c0-1-0.7-1.8-1.7-1.8
			s-1.7,0.8-1.7,1.8s0.7,1.7,1.7,1.7C195.6,41.2,196.3,40.5,196.3,39.5z"/>
	</g>
	<g class="st7">
		<path class="st14" d="M194.6,37.9c0.8,0,1.5,0.7,1.5,1.6s-0.6,1.5-1.5,1.5s-1.5-0.6-1.5-1.5S193.8,37.9,194.6,37.9 M194.6,37.8
			c-1,0-1.7,0.8-1.7,1.8s0.7,1.7,1.7,1.7s1.7-0.7,1.7-1.7C196.3,38.5,195.6,37.8,194.6,37.8L194.6,37.8z"/>
	</g>
	<g class="st10">
		<path class="st11" d="M196,39.5c0.2-0.7-0.2-1.3-0.9-1.5s-1.3,0.2-1.5,0.9c-0.2,0.7,0.5,0.2,1.2,0.3
			C195.5,39.4,195.8,40.2,196,39.5z"/>
	</g>
	<g class="st7">
		
			<linearGradient id="SVGID_00000021110518134044968590000006088369677291039899_" gradientUnits="userSpaceOnUse" x1="194.5263" y1="479.0337" x2="194.5498" y2="480.1399" gradientTransform="matrix(1 0 0 -1 0 520)">
			<stop  offset="0" style="stop-color:#A41702"/>
			<stop  offset="1" style="stop-color:#E64949;stop-opacity:0"/>
		</linearGradient>
		<path style="fill:url(#SVGID_00000021110518134044968590000006088369677291039899_);" d="M193.2,39.8c0.1,0.7,0.6,1.2,1.4,1.2
			c0.7,0,1.3-0.5,1.4-1.1"/>
	</g>
	<rect x="183.6" y="44.9" class="st16" width="71.8" height="46.5"/>
	<g>
		<g>
			<path class="st17" d="M188.6,67.3c-0.9,0-1.8-0.1-2.6-0.3v-6.8c0.7-0.2,1.6-0.3,2.5-0.3c2,0,3.2,0.7,3.2,2.1
				c0,0.7-0.4,1.1-0.8,1.4c0.6,0.3,1.1,0.9,1.1,1.7C191.9,66.5,190.8,67.3,188.6,67.3z M188.7,61.4L188.7,61.4c-0.2,0-0.3,0-0.4,0
				v1.3h0.3c0.7,0,0.9-0.2,0.9-0.7C189.5,61.6,189.2,61.4,188.7,61.4z M188.5,64.2c-0.1,0-0.2,0-0.3,0v1.5c0.1,0,0.2,0,0.4,0
				c0.7,0,1-0.2,1-0.7C189.7,64.4,189.3,64.2,188.5,64.2z"/>
			<path class="st17" d="M196.1,67.3c-1.6,0-2.7-0.8-2.9-2.2c0-0.3-0.1-0.6-0.1-1v-4.2h2.3v3.9c0,1.2,0,1.6,0.7,1.6
				c0.4,0,0.7-0.2,0.7-0.9v-0.8v-3.8h2.2v4.7C199,66.3,197.9,67.3,196.1,67.3z"/>
			<path class="st17" d="M204.5,67.2c-0.4-0.9-0.8-1.8-1.3-2.7H203v2.7h-2.3v-7c0.8-0.2,1.6-0.3,2.4-0.3c2.2,0,3.3,0.9,3.3,2.4
				c0,0.8-0.5,1.5-1.1,1.8l0,0c0.6,0.8,1.1,2.1,1.6,3.1H204.5z M203.5,61.5c-0.2,0-0.3,0-0.4,0v1.8h0.4c0.4,0,0.8-0.4,0.8-1
				C204.3,61.8,203.9,61.5,203.5,61.5z"/>
			<path class="st17" d="M211.8,67.2c-0.4-0.9-0.8-1.8-1.3-2.7h-0.2v2.7H208v-7c0.8-0.2,1.6-0.3,2.4-0.3c2.2,0,3.3,0.9,3.3,2.4
				c0,0.8-0.5,1.5-1.1,1.8l0,0c0.6,0.8,1.1,2.1,1.6,3.1H211.8z M210.8,61.5c-0.2,0-0.3,0-0.4,0v1.8h0.4c0.4,0,0.8-0.4,0.8-1
				C211.6,61.8,211.2,61.5,210.8,61.5z"/>
			<path class="st17" d="M215.3,64.7v-1.6h3.3v1.6H215.3z"/>
			<path class="st17" d="M225.6,67.2c-0.1-1.2-0.1-2.7-0.2-3.7c0,0.1-0.1,0.2-0.1,0.3s-0.6,1.8-1,2.9h-1.3c-0.4-1.1-1-2.9-1-2.9
				c-0.1-0.1-0.1-0.3-0.1-0.3c0,0.1-0.1,2.2-0.2,3.7h-2c0.2-2.3,0.4-5.1,0.6-7.3h2.1c0.3,0.8,0.7,1.9,1,2.8c0.1,0.3,0.2,0.6,0.3,0.8
				c0,0,0.2-0.5,0.3-0.7c0.4-1,0.8-2.1,1.1-2.9h2c0.3,2.2,0.5,5,0.6,7.3L225.6,67.2L225.6,67.2z"/>
			<path class="st17" d="M233.8,67.2c-0.2-0.9-0.3-1-0.3-1.2h-2c-0.1,0.4-0.3,0.8-0.4,1.2h-2.2c0.9-2.8,1.7-5.1,2.6-7.3h2.1
				c0.8,2.2,1.7,4.5,2.6,7.3H233.8z M232.6,62.9c-0.1-0.3-0.1-0.5-0.2-0.6c0,0.1-0.1,0.3-0.2,0.6c-0.1,0.5-0.3,1-0.4,1.5h1.2
				C232.9,63.9,232.7,63.4,232.6,62.9z"/>
			<path class="st17" d="M240.6,61.7v5.5h-2.3v-5.5h-1.6v-1.8h5.4v1.8H240.6z"/>
			<path class="st17" d="M243.8,67.2v-7.3h2.3v7.3H243.8z"/>
			<path class="st17" d="M250.5,67.3c-2.3,0-3.3-1.6-3.3-3.8c0-2.1,1.2-3.8,3.4-3.8c1,0,1.7,0.3,2.1,0.6l-0.6,1.6
				c-0.4-0.2-0.8-0.3-1.3-0.3c-0.7,0-1.3,0.5-1.3,1.6c0,0.2,0,0.5,0,0.7c0.1,0.8,0.5,1.5,1.3,1.5c0.1,0,0.3,0,0.4-0.1
				c0.4-0.1,0.7-0.2,0.9-0.3l0.6,1.7C252.2,67.1,251.5,67.3,250.5,67.3z"/>
			<path class="st17" d="M209.6,76.4c-0.9,0-1.8-0.2-2.4-0.5c0.2-0.6,0.3-1.1,0.5-1.7c0.4,0.2,0.9,0.4,1.6,0.4c0.6,0,1-0.3,1-0.7
				s-0.4-0.6-1-0.7c-0.2,0-0.5,0-0.7,0v-1.5c0.4,0,0.7-0.1,1-0.2c0.3-0.1,0.6-0.2,0.6-0.5s-0.3-0.5-0.7-0.5c-0.5,0-1,0.2-1.4,0.4
				l-0.7-1.5c0.5-0.3,1.4-0.6,2.3-0.6c1.8,0,2.6,0.8,2.6,2.1c0,0.5-0.3,1-0.7,1.3l0,0c0.7,0.4,1,0.9,1,1.7
				C212.6,75.4,211.6,76.4,209.6,76.4z"/>
			<path class="st17" d="M216.3,76.4c-1.9,0-2.8-1.7-2.8-3.8c0-2,0.8-3.8,2.8-3.8c1.9,0,2.7,1.7,2.7,3.8S218.2,76.4,216.3,76.4z
				 M216.3,70.6c-0.5,0-0.6,0.8-0.6,2.1s0.1,2.1,0.6,2.1s0.6-0.8,0.6-2.1C216.9,71.3,216.7,70.6,216.3,70.6z"/>
			<path class="st17" d="M222.4,76.4c-1.9,0-2.8-1.7-2.8-3.8c0-2,0.8-3.8,2.8-3.8c1.9,0,2.7,1.7,2.7,3.8
				C225.2,74.7,224.3,76.4,222.4,76.4z M222.4,70.6c-0.5,0-0.6,0.8-0.6,2.1s0.1,2.1,0.6,2.1s0.6-0.8,0.6-2.1
				C223,71.3,222.9,70.6,222.4,70.6z"/>
			<path class="st17" d="M228.6,76.4c-1.9,0-2.8-1.7-2.8-3.8c0-2,0.8-3.8,2.8-3.8c1.9,0,2.7,1.7,2.7,3.8
				C231.3,74.7,230.5,76.4,228.6,76.4z M228.6,70.6c-0.5,0-0.6,0.8-0.6,2.1s0.1,2.1,0.6,2.1s0.6-0.8,0.6-2.1
				C229.2,71.3,229,70.6,228.6,70.6z"/>
		</g>
	</g>
	<path class="st18" d="M179.4,94.4L179.4,94.4c0.6,0,1.1-0.4,1.1-1v-57c0-0.5-0.4-1-1-1h-0.1c-0.5,0-1,0.4-1,1v57
		C178.4,94,178.8,94.4,179.4,94.4z"/>
	<path class="st18" d="M162.1,94.4L162.1,94.4c0.6,0,1.1-0.4,1.1-1v-57c0-0.5-0.4-1-1-1h-0.1c-0.5,0-1,0.4-1,1v57
		C161.1,94,161.6,94.4,162.1,94.4z"/>
	
		<linearGradient id="SVGID_00000106146604023430108930000016222454336452596625_" gradientUnits="userSpaceOnUse" x1="174.5734" y1="455.65" x2="178.3637" y2="455.65" gradientTransform="matrix(1 0 0 -1 0 520)">
		<stop  offset="0" style="stop-color:#F69B46"/>
		<stop  offset="1" style="stop-color:#FAB566"/>
	</linearGradient>
	<path style="fill:url(#SVGID_00000106146604023430108930000016222454336452596625_);" d="M176.5,92.2c-1,0-1.9-0.8-1.9-1.9V38.4
		c0-1,0.8-1.9,1.9-1.9s1.9,0.8,1.9,1.9v51.9C178.4,91.4,177.6,92.2,176.5,92.2z"/>
	
		<linearGradient id="SVGID_00000141440806030541020820000004996389078231704464_" gradientUnits="userSpaceOnUse" x1="170.7938" y1="455.65" x2="174.584" y2="455.65" gradientTransform="matrix(1 0 0 -1 0 520)">
		<stop  offset="0" style="stop-color:#F69B46"/>
		<stop  offset="1" style="stop-color:#FAB566"/>
	</linearGradient>
	<path style="fill:url(#SVGID_00000141440806030541020820000004996389078231704464_);" d="M172.7,92.2c-1,0-1.9-0.8-1.9-1.9V38.4
		c0-1,0.8-1.9,1.9-1.9s1.9,0.8,1.9,1.9v51.9C174.6,91.4,173.8,92.2,172.7,92.2z"/>
	
		<linearGradient id="SVGID_00000132069799830561855890000005605729251708616064_" gradientUnits="userSpaceOnUse" x1="167.0141" y1="455.65" x2="170.8044" y2="455.65" gradientTransform="matrix(1 0 0 -1 0 520)">
		<stop  offset="0" style="stop-color:#F69B46"/>
		<stop  offset="1" style="stop-color:#FAB566"/>
	</linearGradient>
	<path style="fill:url(#SVGID_00000132069799830561855890000005605729251708616064_);" d="M169,92.2c-1,0-1.9-0.8-1.9-1.9V38.4
		c0-1,0.8-1.9,1.9-1.9c1,0,1.9,0.8,1.9,1.9v51.9C170.9,91.4,170,92.2,169,92.2z"/>
	
		<linearGradient id="SVGID_00000124852813549426739890000006375053977758627985_" gradientUnits="userSpaceOnUse" x1="163.0944" y1="455.65" x2="166.8847" y2="455.65" gradientTransform="matrix(1 0 0 -1 0 520)">
		<stop  offset="0" style="stop-color:#F69B46"/>
		<stop  offset="1" style="stop-color:#FAB566"/>
	</linearGradient>
	<path style="fill:url(#SVGID_00000124852813549426739890000006375053977758627985_);" d="M165,92.2c-1,0-1.9-0.8-1.9-1.9V38.4
		c0-1,0.8-1.9,1.9-1.9s1.9,0.8,1.9,1.9v51.9C166.9,91.4,166.1,92.2,165,92.2z"/>
	
		<linearGradient id="SVGID_00000171720160806504813750000008894857348105106564_" gradientUnits="userSpaceOnUse" x1="192.7726" y1="473.75" x2="153.0217" y2="473.75" gradientTransform="matrix(1 0 0 -1 0 520)">
		<stop  offset="0" style="stop-color:#F69B46"/>
		<stop  offset="1" style="stop-color:#FAB566"/>
	</linearGradient>
	<path style="fill:url(#SVGID_00000171720160806504813750000008894857348105106564_);" d="M169,91.5L169,91.5c-1,0-1.9-0.8-1.9-1.9
		V14.7c0-7.6,6.1-13.7,13.7-13.7h10.4c8.7,0,15.7,7,15.7,15.7v7.2h-3.8v-7.3c0-6.6-5.3-11.9-11.9-11.9h-10.4c-5.5,0-9.9,4.4-9.9,9.9
		v74.9C170.8,90.6,170,91.5,169,91.5z"/>
	<path class="st18" d="M200.9,19L200.9,19C201,19,201,19,200.9,19C201,19,201,19,200.9,19L200.9,19z"/>
	<path class="st18" d="M202.3,24.1h5.1c0.3,0,0.5-0.2,0.5-0.5l0,0c0-0.3-0.2-0.5-0.5-0.5h-5.1c-0.3,0-0.5,0.2-0.5,0.5l0,0
		C201.9,23.9,202.1,24.1,202.3,24.1z"/>
</g>
</svg>
