<?xml version="1.0" encoding="utf-8"?>
<!-- Generator: Adobe Illustrator 26.0.2, SVG Export Plug-In . SVG Version: 6.00 Build 0)  -->
<svg version="1.1" id="printArm" xmlns="http://www.w3.org/2000/svg" xmlns:xlink="http://www.w3.org/1999/xlink" x="0px" y="0px"
	 viewBox="0 0 420 520" style="enable-background:new 0 0 420 520;" xml:space="preserve">
<style type="text/css">
	.st0{fill:url(#Arm_00000124881843487923281840000000819571254176727736_);}
	.st1{fill:#CDE3E9;}
	.st2{fill:#3A6571;}
	.st3{fill:#4B8D95;}
	.st4{fill:#193035;}
</style>
<g id="ArmMechanism">
	
		<linearGradient id="Arm_00000178178107759694791350000017171398352572421297_" gradientUnits="userSpaceOnUse" x1="201.987" y1="323.85" x2="222.313" y2="323.85" gradientTransform="matrix(1 0 0 -1 0 520)">
		<stop  offset="0" style="stop-color:#C5D9E5"/>
		<stop  offset="0.3945" style="stop-color:#A5BCC3"/>
		<stop  offset="0.5118" style="stop-color:#9BB2B8"/>
		<stop  offset="1" style="stop-color:#CFE6EF"/>
	</linearGradient>
	<path id="Arm" style="fill:url(#Arm_00000178178107759694791350000017171398352572421297_);" d="M222.3,379.8
		c0,6-5.2,10.8-11.3,10.1c-4.5-0.5-8.3-4.1-8.9-8.7c-0.5-3.3,0.7-6.4,2.8-8.5c0.8-0.8,1.2-2,1.2-3.1V22.7c0-1.2-0.4-2.3-1.2-3.1
		c-1.8-1.8-2.9-4.3-2.9-7.1c0-6,5.2-10.8,11.3-10.1c4.5,0.5,8.3,4.1,8.9,8.7c0.5,3.3-0.7,6.4-2.8,8.5c-0.8,0.8-1.2,1.9-1.2,3.1
		v346.9c0,1.1,0.4,2.3,1.2,3.1C221.2,374.6,222.3,377.1,222.3,379.8z"/>
	<g id="armBottomBolt">
		<circle class="st1" cx="212.1" cy="379.8" r="8.1"/>
		<g>
			<polygon class="st2" points="216.4,376.4 211.3,374.4 207.1,377.9 207.9,383.2 213,385.2 217.2,381.8 			"/>
		</g>
		<g>
			<polyline class="st3" points="216.4,376.4 211.3,374.4 207.1,377.9 207.9,383.2 			"/>
		</g>
		<g>
			<polygon class="st4" points="215,377.5 211.6,376.2 208.7,378.5 209.3,382.2 212.7,383.5 215.6,381.1 			"/>
		</g>
	</g>
	<g id="armTopBolt">
		<circle class="st1" cx="212.1" cy="12.4" r="8.1"/>
		<g>
			<g>
				<polygon class="st2" points="215.5,16.6 217.5,11.6 214,7.3 208.7,8.2 206.7,13.3 210.2,17.5 				"/>
			</g>
			<g>
				<polyline class="st3" points="215.5,16.6 217.5,11.6 214,7.3 208.7,8.2 				"/>
			</g>
			<g>
				<polygon class="st4" points="214.4,15.3 215.8,11.8 213.4,9 209.8,9.5 208.4,13 210.8,15.9 				"/>
			</g>
		</g>
	</g>
</g>
</svg>
