<?xml version="1.0" encoding="utf-8"?>
<!-- Generator: Adobe Illustrator 26.0.2, SVG Export Plug-In . SVG Version: 6.00 Build 0)  -->
<svg version="1.1" id="Layer_1" xmlns="http://www.w3.org/2000/svg" xmlns:xlink="http://www.w3.org/1999/xlink" x="0px" y="0px"
	 viewBox="0 0 70 70" style="enable-background:new 0 0 70 70;" xml:space="preserve">
<style type="text/css">
	.st0{fill:#83CBCD;}
	.st1{fill:#88E1E3;}
	.st2{enable-background:new    ;}
	.st3{fill:#32A5A6;}
	.st4{fill:#142C4D;}
	.st5{opacity:0.16;}
	.st6{fill:#FFFFFF;}
</style>
<g>
	<g>
		<g>
			<path class="st0" d="M67.2878265,36.0435486c0-18.909647-13.3519287-34.238945-32.2615738-34.238945
				S2.7120972,17.1072254,2.7120972,36.0168724s13.4045105,32.1776695,32.3141556,32.1776695
				S67.2878265,54.9531937,67.2878265,36.0435486z"/>
		</g>
		<path class="st1" d="M67.2843018,36.0446434c0,18.9072876-13.3519211,32.1452599-32.2592697,32.1452599
			c-18.9072895,0-32.3161888-13.2664299-32.3161888-32.1737785c0-1.0161209,0.0379646-2.0132294,0.1139519-3.0008316h64.3475571
			C67.2463379,34.0124016,67.2843018,35.0190163,67.2843018,36.0446434z"/>
		<g class="st2">
			<path class="st3" d="M35.0262604,5.5542517c16.254467,0,28.5119286,13.1075373,28.5119286,30.489296
				c0,16.7222824-11.7245178,28.4013443-28.5119286,28.4013443c-16.8183708,0-28.5645256-11.6900215-28.5645256-28.4280205
				C6.4617357,18.6503258,18.7418118,5.5542517,35.0262604,5.5542517 M35.0262604,1.8045999
				c-18.9096451,0-32.314167,15.3026276-32.314167,34.2122726s13.40452,32.1776619,32.314167,32.1776619
				s32.2615738-13.241333,32.2615738-32.1509857S53.9358902,1.8045999,35.0262604,1.8045999L35.0262604,1.8045999z"/>
		</g>
		<g class="st2">
			<path class="st4" d="M35.026432,69.5c-19.7940426,0-33.6185265-13.7688408-33.6185265-33.4821968
				C1.4079069,15.7693443,15.8606911,0.5,35.026432,0.5c19.1355972,0,33.5656624,15.2809362,33.5656624,35.5446968
				C68.5920944,55.7422905,54.7889404,69.5,35.026432,69.5z M35.026432,3.0512278
				c-17.7111416,0-31.067297,14.1727142-31.067297,32.9665756c0,18.2109985,12.7756138,30.9300423,31.067297,30.9300423
				c18.2601509,0,31.0135078-12.7079163,31.0135078-30.9031487C66.0399399,17.2355347,52.7069664,3.0512278,35.026432,3.0512278z"/>
		</g>
		<g class="st5">
			<path class="st6" d="M61.1127625,35.3652153C64.655365,21.7467594,57.5926857,9.4304209,43.9742317,5.8878145
				S18.9256878,9.1765118,15.3830814,22.7949657s9.5207119,3.0226212,23.1391659,6.5652275
				S57.5701561,48.9836655,61.1127625,35.3652153z"/>
		</g>
	</g>
</g>
</svg>
