<?xml version="1.0" encoding="utf-8"?>
<!-- Generator: Adobe Illustrator 26.0.2, SVG Export Plug-In . SVG Version: 6.00 Build 0)  -->
<svg version="1.1" id="wagonaFrame" xmlns="http://www.w3.org/2000/svg" xmlns:xlink="http://www.w3.org/1999/xlink" x="0px"
	 y="0px" width="360px" height="280px" viewBox="0 0 360 280" style="enable-background:new 0 0 360 280;" xml:space="preserve">
<style type="text/css">
	.st0{fill:#AEDCDD;}
	.st1{fill:#142C4D;}
	.st2{opacity:0.2;enable-background:new    ;}
	.st3{fill:#FAFA4F;}
	.st4{opacity:0.6;}
	.st5{fill:#FFFFFF;}
</style>
<g id="wagonFrame">
	<g id="wagonLight">
		<g>
			<g>
				<path class="st0" d="M290,99.1c-1.7,0-3.1-1.4-3.1-3.1s1.4-3.2,3.1-3.2l5.8-0.1c1.8,0,3.2,1.4,3.2,3.1c0,0.3,0,0.7-0.1,1
					c-0.4,1.3-1.6,2.2-3,2.2L290,99.1z"/>
				<path class="st1" d="M295.7,93.6c1.2,0,2.2,1,2.2,2.2c0,0.2,0,0.5-0.1,0.7c-0.3,0.9-1.1,1.6-2.1,1.6l-5.8,0.1l0,0
					c-1.2,0-2.2-1-2.2-2.2s1-2.3,2.2-2.3L295.7,93.6L295.7,93.6 M295.7,91.8L295.7,91.8L295.7,91.8l-5.8,0.1c-2.2,0-4,1.9-4,4.1
					s1.8,4,4,4l5.8-0.1c1.8,0,3.3-1.2,3.8-2.8c0.1-0.4,0.2-0.8,0.2-1.3C299.8,93.6,297.9,91.8,295.7,91.8L295.7,91.8z"/>
			</g>
		</g>
		<path class="st2" d="M298,95.9c0,0.2,0,0.5-0.1,0.7c-0.3,0.9-1.1,1.6-2.1,1.6l-5.8,0.1c-1.2,0-2.3-1-2.3-2.2c0-0.1,0-0.3,0-0.4
			h10.2C298,95.7,298,95.8,298,95.9z"/>
		<g>
			<path class="st3" d="M302.4,103.7c-2.5,0-4.6-2.1-4.6-4.6V93c0-2.5,2.1-4.6,4.6-4.6h1.1c2.5,0,4.6,2.1,4.6,4.6v6.1
				c0,2.5-2.1,4.6-4.6,4.6H302.4z"/>
			<path class="st1" d="M303.6,89.3c2,0,3.7,1.7,3.7,3.7v6.1c0,2-1.7,3.7-3.7,3.7h-1.1c-2,0-3.7-1.7-3.7-3.7V93c0-2,1.7-3.7,3.7-3.7
				H303.6 M303.6,87.5h-1.1c-3,0-5.5,2.5-5.5,5.5v6.1c0,3,2.5,5.5,5.5,5.5h1.1c3,0,5.5-2.5,5.5-5.5V93
				C309.1,90,306.6,87.5,303.6,87.5L303.6,87.5z"/>
		</g>
		<path class="st2" d="M307.3,98v2.1c0,1.5-1.2,2.7-2.7,2.7h-3.2c-1.5,0-2.7-1.2-2.7-2.7V92c0-0.4,0.1-0.7,0.2-1.1v6
			c0,1.5,1.2,2.7,2.7,2.7h3.2C305.9,99.7,306.9,99,307.3,98z"/>
		<g>
			<path class="st0" d="M299,107.8c-2,0-3.6-1.6-3.6-3.6V88c0-2,1.6-3.6,3.6-3.6s3.6,1.6,3.6,3.6v16.2
				C302.6,106.1,301,107.8,299,107.8z"/>
			<path class="st1" d="M299,85.3c1.5,0,2.7,1.2,2.7,2.7v16.2c0,1.5-1.2,2.7-2.7,2.7s-2.7-1.2-2.7-2.7V88
				C296.3,86.5,297.5,85.3,299,85.3 M299,83.5c-2.5,0-4.5,2-4.5,4.5v16.2c0,2.5,2,4.5,4.5,4.5s4.5-2,4.5-4.5V88
				C303.5,85.5,301.5,83.5,299,83.5L299,83.5z"/>
		</g>
		<path class="st2" d="M301.7,95.2v9c0,1.5-1.2,2.7-2.7,2.7s-2.7-1.2-2.7-2.7v-9c0,1.5,1.2,1.8,2.7,1.8
			C300.5,97,301.7,96.6,301.7,95.2z"/>
		<g class="st4">
			<path class="st5" d="M296.3,90.7V88c0-1.5,1.2-2.7,2.7-2.7s2.7,1.2,2.7,2.7v2.7c0-1.5-1.2-2.7-2.7-2.7
				C297.5,88,296.3,89.2,296.3,90.7z"/>
		</g>
		<circle class="st5" cx="305.3" cy="91.6" r="1.8"/>
	</g>
	<path id="wagonFill" class="st5" d="M61.2,196.3c-1.8,0-3.4-1.1-4-2.8l-22.9-64.3c-0.5-1.3-0.3-2.8,0.5-3.9
		c0.8-1.1,2.1-1.8,3.5-1.8H133c1.3,0,2.5,0.6,3.4,1.6c6,7.7,23.2,12.8,49.7,14.9c1.5,0.1,3.1,0.2,4.6,0.3l-15-45.8
		c-0.7-2.2,0.5-4.7,2.7-5.4c0.4-0.1,0.9-0.2,1.3-0.2c1.9,0,3.5,1.2,4.1,2.9l16,48.9c3.8,0.1,7.7,0.2,11.6,0.2c7.3,0,12.5-0.2,14-0.3
		c4.1-3.5,8.6-7.3,13.3-11.5c19.4-17.4,36.2-35.1,36.9-35.8c0.2-0.2,0.4-0.3,0.5-0.5l-1.4-3.4c-0.4-1.1-0.4-2.2,0-3.3
		c0.4-1.1,1.3-1.9,2.3-2.3c0.5-0.2,1.1-0.3,1.6-0.3c1.7,0,3.3,1,4,2.7l42.7,104.3c0.4,1.1,0.4,2.2,0,3.3s-1.3,1.9-2.3,2.3
		c-0.5,0.2-1.1,0.3-1.6,0.3c-1.7,0-3.3-1-4-2.7l-27-65.8l-75.6,67.3c-0.5,0.5-1.2,0.8-1.9,1h-0.1c-0.1,0-0.2,0-0.2,0
		c-0.1,0-0.2,0-0.3,0c0,0-0.1,0-0.2,0L61.2,196.3z M76.4,187.8L60.2,132H44.3l19.9,55.8H76.4z M88.6,187.8c0.3-0.5,0.7-1,1.2-1.4
		c4.7-3.6,10.3-7,16.6-10.1l-12.9-44.2H69l16.2,55.8h3.4L88.6,187.8L88.6,187.8z M153.1,172.5c-3.5,0-7.5,0.4-11.7,1.1
		c-12.8,2.2-27.2,7.6-38.4,14.2h103l-6.2-19c-5.1,2.5-9.5,3.8-13,3.8h-33.7L153.1,172.5L153.1,172.5z M214,184.6l73-65l-7.5-18.2
		c-5.2,5.4-19.3,19.7-35.2,34c-14.9,13.4-27,23-36.9,29.1L214,184.6z M114.3,172.7c6.9-2.9,14.2-5.1,21.1-6.7l-9.9-34h-23
		L114.3,172.7z M143.8,164.6c3.3-0.4,6.4-0.6,9.3-0.6h33.7c1.7,0,4.9-0.6,10.3-3.4l-3.8-11.5c-2.7-0.1-5.4-0.3-8.1-0.5
		c-23.5-1.8-40.2-6.1-49.9-12.7L143.8,164.6z M204.7,156.1c2.9-1.9,6.1-4.1,9.5-6.7c-1,0-1.9,0-3,0c-2.9,0-5.9,0-8.7-0.1
		L204.7,156.1z"/>
	<path id="wagonBorder" class="st1" d="M278.6,84.4c1.3,0,2.6,0.8,3.1,2.1l42.7,104.3c0.7,1.7-0.1,3.7-1.8,4.4
		c-0.4,0.2-0.8,0.3-1.3,0.3c-1.3,0-2.6-0.8-3.1-2.1l-27.4-66.9l-76.5,68.1c-0.4,0.4-1,0.6-1.5,0.8h-0.1h-0.1c-0.1,0-0.2,0-0.3,0
		c-0.1,0-0.1,0-0.2,0H212H61.2c-1.4,0-2.7-0.9-3.2-2.2l-22.9-64.3c-0.4-1-0.2-2.2,0.4-3.1c0.6-0.9,1.7-1.4,2.8-1.4H133
		c1,0,2,0.5,2.6,1.3c6.2,7.9,23.6,13.1,50.4,15.2c2,0.2,4,0.3,5.9,0.4l-15.4-47.1c-0.6-1.8,0.4-3.7,2.2-4.3c0.3-0.1,0.7-0.2,1-0.2
		c1.4,0,2.7,0.9,3.2,2.3l16.2,49.5c4.5,0.1,8.6,0.2,12.3,0.2c7.9,0,13.4-0.2,14.3-0.3c4.1-3.4,8.6-7.3,13.6-11.8
		c19.7-17.7,36.8-35.7,36.9-35.9c0.3-0.3,0.6-0.6,1-0.7l-1.7-4.1c-0.7-1.7,0.1-3.7,1.8-4.4C277.7,84.5,278.1,84.4,278.6,84.4
		 M213.6,186.1l74.4-66.3l0,0l-8.2-20.1c-4.2,4.4-19.2,19.8-36.1,35c-15.1,13.6-27.5,23.3-37.4,29.4L213.6,186.1 M113.7,173.9
		c7.5-3.1,15.3-5.6,22.8-7.2l-10.4-35.6h-24.9L113.7,173.9 M84.6,188.7h4.7c0.2-0.6,0.6-1.1,1.1-1.6c4.9-3.8,10.8-7.3,17.1-10.4
		l-13.3-45.6H67.8L84.6,188.7 M63.5,188.7h14l-16.7-57.6H43L63.5,188.7 M143.2,165.6c3.5-0.5,6.8-0.7,9.9-0.7h33.7
		c2.1,0,5.6-0.8,11.4-3.9l-4.2-12.8c-2.8-0.1-5.7-0.3-8.7-0.5c-25.2-1.9-42.5-6.7-51.6-14.1L143.2,165.6 M204.2,157.5
		c3.6-2.3,7.8-5.2,12.7-9c-1.7,0-3.6,0-5.7,0c-3,0-6.4,0-10-0.1L204.2,157.5 M99.9,188.7h107.4l-6.9-21.2c-5.4,2.8-9.9,4.1-13.5,4.1
		h-33.7c-3.7,0-7.7,0.4-11.8,1.1c0,0,0,0-0.1,0C127.4,175.1,111.7,181.1,99.9,188.7 M278.6,82.6c-0.7,0-1.3,0.1-2,0.4
		c-1.3,0.5-2.3,1.5-2.8,2.8s-0.5,2.7,0,4l1.2,2.8l-0.1,0.1c-0.2,0.2-17.3,18.2-36.8,35.8c-4.6,4.1-9,7.9-13,11.3
		c-1.8,0.1-6.8,0.3-13.7,0.3c-3.7,0-7.4-0.1-10.9-0.2l-15.8-48.3c-0.7-2.1-2.7-3.6-4.9-3.6c-0.5,0-1.1,0.1-1.6,0.3
		c-1.3,0.4-2.4,1.3-3,2.6c-0.6,1.2-0.7,2.6-0.3,3.9l14.6,44.6c-1.1-0.1-2.2-0.1-3.2-0.2c-25.9-2-43.3-7.1-49.1-14.5
		c-1-1.3-2.5-2-4.1-2H38.4c-1.7,0-3.3,0.8-4.2,2.2c-1,1.4-1.2,3.1-0.6,4.7l22.9,64.3c0.7,2.1,2.7,3.4,4.9,3.4h150.8h0.1
		c0.1,0,0.2,0,0.4,0c0.1,0,0.2,0,0.3,0c0.1,0,0.2,0,0.2,0c0.1,0,0.1,0,0.2,0c0.9-0.2,1.6-0.6,2.3-1.2l74.6-66.5l26.4,64.6
		c0.8,2,2.7,3.2,4.8,3.2c0.7,0,1.3-0.1,2-0.4c1.3-0.5,2.3-1.5,2.8-2.8s0.5-2.7,0-4L283.4,85.8C282.6,83.8,280.7,82.6,278.6,82.6
		L278.6,82.6z M208.5,164.9c9.8-6.2,21.7-15.6,36.4-28.8c15-13.5,28.5-27.1,34.3-33.1l6.7,16.3L214.4,183L208.5,164.9L208.5,164.9z
		 M103.6,132.9h21.2l9.4,32.5c-6.4,1.5-13,3.5-19.4,6.1L103.6,132.9L103.6,132.9z M70.2,132.9h22.6l12.5,42.9
		c-6.1,3-11.5,6.4-16.1,9.9c-0.4,0.3-0.8,0.7-1.1,1.2h-2.2L70.2,132.9L70.2,132.9z M45.6,132.9h13.9l15.7,54H64.8L45.6,132.9
		L45.6,132.9z M144.5,163.6l-7.5-25.8c10,6,26.2,9.8,48.3,11.5c2.4,0.2,4.9,0.3,7.5,0.5l3.3,10.2c-4.9,2.4-7.7,3-9.2,3h-33.7
		C150.4,163.1,147.5,163.2,144.5,163.6L144.5,163.6z M205.2,154.7l-1.5-4.4c2.5,0,5,0.1,7.5,0.1c0.1,0,0.2,0,0.2,0
		C209.3,151.9,207.2,153.4,205.2,154.7L205.2,154.7z M141.5,174.5L141.5,174.5c4.2-0.7,8.1-1.1,11.6-1.1h33.7
		c3.5,0,7.6-1.1,12.5-3.4l5.5,16.9h-98.4C117.1,181.1,130,176.5,141.5,174.5L141.5,174.5z"/>
</g>
</svg>
