<?xml version="1.0" encoding="utf-8"?>
<!-- Generator: Adobe Illustrator 26.0.2, SVG Export Plug-In . SVG Version: 6.00 Build 0)  -->
<svg version="1.1" id="Layer_1" xmlns="http://www.w3.org/2000/svg" xmlns:xlink="http://www.w3.org/1999/xlink" x="0px" y="0px"
	 viewBox="0 0 100 100" style="enable-background:new 0 0 100 100;" xml:space="preserve">
<style type="text/css">
	.st0{enable-background:new    ;}
	.st1{fill:url(#SVGID_1_);}
	.st2{fill:#C9C5C7;}
	.st3{fill:#142C4D;}
	.st4{opacity:0.11;}
	.st5{opacity:0.3;}
	.st6{fill:#EE0000;}
	.st7{fill:#AEDCDD;}
	.st8{fill:#27579A;}
	.st9{fill:#030B21;}
	.st10{fill:none;stroke:#00A7CD;stroke-width:4.8936;stroke-miterlimit:10;}
	.st11{fill:none;stroke:#FAFCFF;stroke-width:2.5862;stroke-miterlimit:10;}
	.st12{opacity:0.16;fill:#FFFFFF;}
</style>
<g>
	<g class="st0">
		<linearGradient id="SVGID_1_" gradientUnits="userSpaceOnUse" x1="49.8643" y1="102.277" x2="49.8643" y2="4.4622">
			<stop  offset="0.4735" style="stop-color:#A3DFED"/>
			<stop  offset="0.4794" style="stop-color:#5DD1E8"/>
		</linearGradient>
		<path class="st1" d="M84.1,97.2H15.6c-3.8,0-6.9-3.1-6.9-6.9l-5.8-80c0-3.8,3.1-6.9,6.9-6.9h80c3.8,0,6.9,3.1,6.9,6.9l-5.8,80
			C91,94.1,87.9,97.2,84.1,97.2z"/>
	</g>
	<g id="lowRiderPedals">
		<g>
			<g>
				<path class="st2" d="M50,58.8c-11.2,0-20.3-9.1-20.3-20.3S38.9,18.2,50,18.2s20.3,9.1,20.3,20.3c0,9.2-6.2,17.2-15.1,19.5
					c-0.8,0.2-1.7,0.4-2.5,0.5C51.8,58.8,51,58.8,50,58.8z M50,50.2c0.7,0,1.6-0.1,2.3-0.3c0.7-0.2,1.5-0.4,2.2-0.7
					c0.8-0.4,1.6-0.8,2.3-1.3l-3.3-2.8c-0.3,0.1-0.5,0.3-0.7,0.4c-0.7,0.3-1.3,0.5-2,0.5l-1,4.3C50,50.2,50,50.2,50,50.2z
					 M38.8,41.7c0.8,3.2,3,5.8,5.9,7.3l1-4.3c-1.1-0.8-2-2-2.6-3.2L38.8,41.7z M60.5,43.9c0.8-1.7,1.3-3.4,1.3-5.3
					c0-1.4-0.3-2.8-0.7-4.1l-3.6,2.4c0.1,0.6,0.2,1.1,0.2,1.7c0,0.8-0.2,1.7-0.4,2.5L60.5,43.9z M44,28.6c-2.8,1.7-4.7,4.5-5.4,7.6
					l4.4-0.1c0.5-1.3,1.3-2.5,2.3-3.3L44,28.6z M50.5,31.2c1.4,0.1,2.7,0.6,3.9,1.4l3.6-2.4c-2.1-2-5-3.2-7.9-3.2
					c-0.3,0-0.6,0-0.9,0L50.5,31.2z"/>
				<path class="st3" d="M50,19.3c10.7,0,19.3,8.6,19.3,19.3c0,9-6.1,16.6-14.4,18.7c-0.7,0.2-1.6,0.4-2.4,0.5
					C51.7,57.9,50.9,58,50,58c-10.7,0-19.3-8.6-19.3-19.3S39.4,19.3,50,19.3 M49.9,32c0.1,0,0.1,0,0.2,0c1.6,0,3.2,0.6,4.3,1.6
					l5-3.3c-2.3-2.5-5.6-4.2-9.3-4.2c-0.7,0-1.4,0.1-2,0.2L49.9,32 M37.6,37.1l6-0.2c0.4-1.6,1.4-3,2.7-3.9l-1.9-5.8
					C40.8,29.2,38.1,32.8,37.6,37.1 M60.6,45.2c1.2-2,2-4.2,2-6.6c0-2-0.5-3.7-1.2-5.4l-5,3.3c0.2,0.7,0.3,1.3,0.3,2
					c0,0.9-0.2,1.9-0.6,2.7L60.6,45.2 M49.1,37c0.2-0.1,0.3-0.2,0.5-0.2h0.1c0.1,0,0.2,0,0.2,0l0,0h-0.5L49.1,37 M51.2,37.2
					C51.2,37.2,51.3,37.2,51.2,37.2C51.3,37.2,51.3,37.2,51.2,37.2C51.2,37.2,51.2,37.1,51.2,37.2C51.2,37.1,51.2,37.1,51.2,37.2
					C51.2,37.1,51.2,37.1,51.2,37.2L51.2,37.2 M51.8,39.2L51.8,39.2C51.8,39.1,51.8,39.1,51.8,39.2C51.8,39.1,51.8,39.1,51.8,39.2
					 M51.1,40.1L51.1,40.1C51.2,40.1,51.2,40,51.1,40.1C51.2,40,51.2,40.1,51.1,40.1 M50.9,40.2L50.9,40.2L50.9,40.2L50.9,40.2
					L50.9,40.2 M50.7,40.3C50.7,40.3,50.8,40.3,50.7,40.3C50.8,40.3,50.8,40.3,50.7,40.3L50.7,40.3 M45.3,50.1l1.5-5.9
					c-1.4-0.8-2.5-2.1-3-3.7l-6,0.2C38.5,45,41.4,48.6,45.3,50.1 M50,51.2c0.8,0,1.7-0.1,2.5-0.3c0.8-0.2,1.7-0.5,2.4-0.7
					c1.2-0.6,2.3-1.2,3.3-2.1L55,45.1L53.8,44c-0.4,0.3-0.7,0.5-1.1,0.7c-0.7,0.3-1.5,0.5-2.3,0.5L48.8,51
					C49.2,51.1,49.7,51.2,50,51.2 M50,17.5c-11.6,0-21.1,9.5-21.1,21.1S38.4,59.7,50,59.7c0.9,0,1.9-0.1,2.7-0.2
					c0.8-0.1,1.8-0.3,2.6-0.6c9.3-2.4,15.7-10.8,15.7-20.4C71.2,27,61.7,17.5,50,17.5L50,17.5z M51.2,30.3l-0.8-2.5
					c2.2,0.1,4.5,0.8,6.2,2.2l-2.2,1.5C53.4,30.9,52.3,30.5,51.2,30.3L51.2,30.3z M39.7,35.4c0.7-2.1,2-4,3.8-5.4l0.8,2.5
					c-0.8,0.7-1.5,1.8-2,2.8L39.7,35.4L39.7,35.4z M58.3,37.4l2.2-1.5c0.2,0.8,0.4,1.8,0.4,2.7c0,1.3-0.3,2.7-0.7,3.9l-2-1.7
					c0.2-0.7,0.3-1.4,0.3-2.1C58.4,38.1,58.4,37.8,58.3,37.4L58.3,37.4z M40,42.5l2.6-0.1c0.6,1,1.2,2,2.1,2.7l-0.7,2.6
					C42.2,46.3,40.8,44.6,40,42.5L40,42.5z M51.6,46.8c0.6-0.1,1-0.3,1.6-0.5c0.1,0,0.2-0.1,0.3-0.1l0.4,0.3l1.7,1.4
					c-0.4,0.3-0.8,0.5-1.2,0.7c-0.7,0.3-1.4,0.5-2,0.7c-0.4,0.1-0.8,0.2-1.2,0.2L51.6,46.8L51.6,46.8z"/>
			</g>
		</g>
		<g class="st4">
			<path class="st3" d="M69.4,38.6c0,9-6.1,16.6-14.4,18.7c-0.7,0.2-1.6,0.4-2.4,0.5C51.7,57.9,50.9,58,50,58
				c-8.5,0-15.7-5.5-18.3-13.1c3.5,4.7,9.1,7.7,15.4,7.7c0.8,0,1.7-0.1,2.5-0.2c0.8-0.1,1.7-0.3,2.4-0.5c8.3-2.1,14.4-9.8,14.4-18.7
				c0-2.1-0.4-4.3-1-6.2C68,30.1,69.4,34.2,69.4,38.6z"/>
		</g>
		<g>
			<g class="st5">
				<path class="st3" d="M55,37.4v7.7L53.8,44c-0.4,0.3-0.7,0.5-1.1,0.7v-7.3c0-0.7-0.3-1.2-0.8-1.6c0.4-0.3,0.7-0.4,1.2-0.4
					C54,35.5,55,36.3,55,37.4z"/>
			</g>
			<g class="st5">
				<path class="st3" d="M55,50.1v7.2c-0.7,0.2-1.6,0.4-2.4,0.5v-6.9C53.4,50.7,54.2,50.4,55,50.1z"/>
			</g>
			<g>
				<path class="st6" d="M50,77.3c-1.6,0-2.9-1.3-2.9-2.9v-37c0-0.7,0.3-1.5,0.8-2c0.6-0.6,1.3-0.8,2-0.8c1.6,0,2.9,1.3,2.9,2.9v37
					C52.8,76.1,51.5,77.3,50,77.3z"/>
				<path class="st3" d="M50,35.5c1.1,0,2,0.9,2,2v37c0,1.1-0.9,2-2,2c-1.1,0-2-0.9-2-2v-37c0-0.6,0.2-1,0.6-1.4
					C48.9,35.6,49.4,35.5,50,35.5 M50,33.7c-1,0-2,0.4-2.7,1.1c-0.7,0.7-1.1,1.7-1.1,2.6v37c0,2,1.7,3.7,3.7,3.7
					c2,0,3.7-1.7,3.7-3.7v-37C53.8,35.4,52,33.7,50,33.7L50,33.7z"/>
			</g>
			<g class="st5">
				<rect x="48" y="71.3" class="st3" width="4.1" height="2.9"/>
			</g>
			<polygon class="st7" points="47.9,44.3 47.9,47.4 52,44.4 52,41.4 			"/>
			<polygon class="st7" points="47.9,50.1 47.9,53.1 52,50.1 52,47.2 			"/>
			<polygon class="st7" points="47.9,55.9 47.9,58.9 52,56 52,52.9 			"/>
			<polygon class="st7" points="47.9,61.7 47.9,64.7 52,61.8 52,58.7 			"/>
			<polygon class="st7" points="47.9,67.4 47.9,70.4 52,67.5 52,64.5 			"/>
			<g>
				<path class="st8" d="M57.7,82.9c-0.5,0-0.9-0.3-1-0.7c-0.7-0.3-3-0.7-6.5-0.7c-3.5,0-5.9,0.4-6.5,0.7c-0.2,0.5-0.6,0.7-1,0.7
					c-0.6,0-7.7-1-7.7-4v-1.3c0-2.2,1.8-4,4-4c0.5,0,0.9,0.3,1,0.7c0.8,0.5,4.4,1,10.2,1s9.4-0.6,10.2-1c0.2-0.5,0.6-0.7,1-0.7
					c2.2,0,4,1.8,4,4v1.3C65.4,81.8,58.2,82.9,57.7,82.9z"/>
				<path class="st3" d="M61.4,74.7c1.6,0,2.8,1.3,2.8,2.8v1.3c0,1.6-5.5,2.8-6.6,2.8c0-0.9-3.8-1.5-7.6-1.5c-3.8,0-7.6,0.5-7.6,1.5
					c-1,0-6.6-1.3-6.6-2.8v-1.3c0-1.6,1.3-2.8,2.8-2.8c0,1.1,5.7,1.8,11.3,1.8S61.4,75.9,61.4,74.7 M61.4,72.5
					c-0.7,0-1.4,0.4-1.9,0.9c-1.1,0.4-4.5,0.8-9.5,0.8s-8.4-0.5-9.5-0.8c-0.5-0.6-1.1-0.9-1.9-0.9c-2.9,0-5.1,2.3-5.1,5.1v1.3
					c0,4.4,8.7,5.1,8.8,5.1c0.7,0,1.4-0.4,1.9-0.9c0.7-0.2,2.7-0.6,5.8-0.6c3.1,0,5,0.3,5.8,0.6c0.5,0.6,1.1,0.9,1.9,0.9
					c0.1,0,8.8-0.7,8.8-5.1v-1.3C66.5,74.7,64.3,72.5,61.4,72.5L61.4,72.5z"/>
			</g>
			<circle class="st9" cx="50" cy="38.3" r="1.1"/>
		</g>
		<circle class="st7" cx="49.8" cy="78.2" r="1.1"/>
		<circle class="st6" cx="39.4" cy="78.2" r="1.8"/>
		<circle class="st6" cx="61" cy="78.2" r="2"/>
	</g>
	<g>
		<path class="st10" d="M83.5,96.4H16.2c-3.7,0-6.8-3.1-6.8-6.8L3.8,11c0-3.7,3.1-6.8,6.8-6.8h78.6c3.7,0,6.8,3.1,6.8,6.8l-5.7,78.6
			C90.3,93.4,87.2,96.4,83.5,96.4z"/>
	</g>
	<g class="st0">
		<path class="st11" d="M84.7,97.2H15.3c-3.9,0-7-3.2-7-7L2.4,9.8c0-3.9,3.2-7,7-7h81.1c3.9,0,7,3.2,7,7l-5.8,80.4
			C91.7,94.1,88.6,97.2,84.7,97.2z"/>
	</g>
	<path class="st12" d="M78,38.2l-13.2-1.3c-10.3-1-20.7,0.4-30.3,4.1l-16,6.2c-4.4,1.7-9.2-1.4-9.5-6L7.4,16
		c-0.3-4.6,3.3-8.4,7.9-8.4h73.5c2,0,3.6,1.7,3.5,3.7l-1,15.6C90.8,33.8,84.8,38.9,78,38.2z"/>
</g>
</svg>
