<?xml version="1.0" encoding="utf-8"?>
<!-- Generator: Adobe Illustrator 26.0.2, SVG Export Plug-In . SVG Version: 6.00 Build 0)  -->
<svg version="1.1" id="Layer_1" xmlns="http://www.w3.org/2000/svg" xmlns:xlink="http://www.w3.org/1999/xlink" x="0px" y="0px"
	 viewBox="0 0 100 100" style="enable-background:new 0 0 100 100;" xml:space="preserve">
<style type="text/css">
	.st0{enable-background:new    ;}
	.st1{fill:url(#SVGID_1_);}
	.st2{fill:#AEDCDD;}
	.st3{fill:#142C4D;}
	.st4{opacity:0.2;enable-background:new    ;}
	.st5{fill:#EE0000;}
	.st6{opacity:0.3;}
	.st7{fill:#FAAA4F;}
	.st8{fill:#030B21;}
	.st9{fill:none;stroke:#00A7CD;stroke-width:4.8936;stroke-miterlimit:10;}
	.st10{fill:none;stroke:#FAFCFF;stroke-width:2.5862;stroke-miterlimit:10;}
	.st11{opacity:0.16;fill:#FFFFFF;}
</style>
<g>
	<g class="st0">
		<linearGradient id="SVGID_1_" gradientUnits="userSpaceOnUse" x1="49.8643" y1="102.277" x2="49.8643" y2="4.4622">
			<stop  offset="0.4735" style="stop-color:#A3DFED"/>
			<stop  offset="0.4794" style="stop-color:#5DD1E8"/>
		</linearGradient>
		<path class="st1" d="M84.1,97.2H15.6c-3.8,0-6.9-3.1-6.9-6.9l-5.8-80c0-3.8,3.1-6.9,6.9-6.9h80c3.8,0,6.9,3.1,6.9,6.9l-5.8,80
			C91,94.1,87.9,97.2,84.1,97.2z"/>
	</g>
	<g id="wagonPedals">
		<g>
			<circle class="st2" cx="50.4" cy="40.7" r="21.7"/>
			<path class="st3" d="M50.4,19.8c11.6,0,20.8,9.4,20.8,20.8c0,11.6-9.4,20.8-20.8,20.8c-11.6,0-20.8-9.4-20.8-20.8
				C29.6,29.1,38.8,19.8,50.4,19.8 M50.4,18.2c-12.4,0-22.5,10.1-22.5,22.5S38,63.2,50.4,63.2s22.5-10.1,22.5-22.5
				S62.8,18.2,50.4,18.2L50.4,18.2z"/>
		</g>
		<circle class="st4" cx="52.2" cy="43.3" r="18.5"/>
		<g>
			<g>
				<path class="st5" d="M50.4,59.6c-10.5,0-19-8.5-19-19s8.5-19,19-19s19,8.5,19,19c0,8.6-5.9,16.2-14.2,18.4
					c-0.8,0.2-1.6,0.4-2.4,0.4C52.1,59.6,51.3,59.6,50.4,59.6z M50.4,51.7c0.7,0,1.5-0.1,2.2-0.3c0.7-0.2,1.4-0.4,2.1-0.6
					c0.8-0.4,1.5-0.8,2.2-1.2l-3.2-2.6c-0.3,0.1-0.4,0.3-0.7,0.4c-0.6,0.3-1.2,0.4-1.8,0.4l-1,3.9C50.3,51.7,50.3,51.7,50.4,51.7z
					 M39.8,43.5c0.8,2.9,2.8,5.4,5.5,6.8l1-3.9c-1.1-0.8-1.9-1.8-2.5-3L39.8,43.5z M60.1,45.6c0.8-1.5,1.2-3.2,1.2-5
					c0-1.3-0.3-2.6-0.7-3.8l-3.4,2.3c0.1,0.5,0.2,1.1,0.2,1.5c0,0.8-0.2,1.6-0.4,2.3L60.1,45.6z M44.8,31.3
					c-2.6,1.6-4.5,4.2-5.1,7.2l4.1-0.1c0.4-1.2,1.2-2.4,2.2-3.2L44.8,31.3z M50.8,33.7c1.3,0.1,2.5,0.5,3.6,1.3l3.4-2.3
					c-2-1.8-4.7-3-7.4-3c-0.3,0-0.5,0-0.9,0L50.8,33.7z"/>
				<path class="st3" d="M50.4,22.5c10,0,18.2,8.1,18.2,18.2c0,8.4-5.8,15.5-13.6,17.6c-0.7,0.2-1.5,0.4-2.3,0.4
					c-0.8,0.1-1.6,0.2-2.4,0.2c-10,0-18.2-8.1-18.2-18.2S40.4,22.5,50.4,22.5 M50.2,34.5c0.1,0,0.1,0,0.2,0c1.5,0,2.9,0.5,4,1.5
					l4.7-3.2C57,30.5,53.9,29,50.4,29c-0.6,0-1.3,0.1-1.9,0.2L50.2,34.5 M38.8,39.3l5.7-0.2c0.4-1.5,1.3-2.8,2.5-3.7L45.2,30
					C41.7,31.9,39.2,35.3,38.8,39.3 M60.4,46.9c1.1-1.8,1.8-3.9,1.8-6.2c0-1.8-0.4-3.5-1.1-5l-4.7,3.2c0.2,0.6,0.3,1.2,0.3,1.8
					c0,0.9-0.2,1.8-0.5,2.5L60.4,46.9 M49.4,39.2c0.2-0.1,0.3-0.2,0.4-0.2H50c0.1,0,0.2,0,0.2,0l0,0h-0.4L49.4,39.2 M51.5,39.3
					L51.5,39.3L51.5,39.3L51.5,39.3L51.5,39.3L51.5,39.3L51.5,39.3 M52.1,41.1L52.1,41.1C52.1,41.1,52.1,41.1,52.1,41.1L52.1,41.1
					 M51.4,42.1L51.4,42.1C51.5,42.1,51.5,42,51.4,42.1C51.5,42,51.5,42,51.4,42.1 M51.2,42.2L51.2,42.2L51.2,42.2L51.2,42.2
					L51.2,42.2 M51,42.3L51,42.3L51,42.3L51,42.3 M45.9,51.6l1.4-5.5c-1.3-0.8-2.3-2-2.8-3.5l-5.7,0.2C39.5,46.7,42.3,50,45.9,51.6
					 M50.4,52.4c0.8,0,1.6-0.1,2.4-0.3c0.8-0.2,1.6-0.4,2.3-0.7c1.1-0.5,2.2-1.1,3.2-2L55,46.8l-1.1-1c-0.4,0.3-0.7,0.4-1.1,0.6
					c-0.7,0.3-1.4,0.4-2.2,0.4l-1.4,5.5C49.6,52.4,50,52.4,50.4,52.4 M50.4,20.9c-10.9,0-19.8,8.8-19.8,19.8s8.8,19.8,19.8,19.8
					c0.9,0,1.8-0.1,2.5-0.2s1.7-0.3,2.5-0.5c8.7-2.3,14.8-10.2,14.8-19.2C70.2,29.8,61.3,20.9,50.4,20.9L50.4,20.9z M51.5,32.9
					l-0.8-2.4c2.1,0.1,4.1,0.8,5.9,2L54.4,34C53.6,33.4,52.5,33.1,51.5,32.9L51.5,32.9z M40.8,37.6c0.6-2,1.8-3.8,3.6-5.1l0.8,2.4
					c-0.8,0.7-1.4,1.7-1.8,2.6L40.8,37.6L40.8,37.6z M58.1,39.5l2.1-1.4c0.2,0.8,0.4,1.7,0.4,2.5c0,1.2-0.3,2.5-0.7,3.7l-1.9-1.6
					c0.2-0.7,0.3-1.3,0.3-2C58.2,40.3,58.2,39.9,58.1,39.5L58.1,39.5z M40.9,44.3l2.5-0.1c0.5,1,1.1,1.8,2,2.5L44.8,49
					C43,48,41.7,46.2,40.9,44.3L40.9,44.3z M51.9,48.3c0.5-0.1,1-0.3,1.5-0.4c0.1,0,0.2-0.1,0.3-0.1l0.4,0.3l1.6,1.3
					c-0.4,0.2-0.8,0.4-1.1,0.6c-0.6,0.3-1.3,0.4-1.9,0.6c-0.4,0.1-0.8,0.2-1.1,0.2L51.9,48.3L51.9,48.3z"/>
			</g>
		</g>
		<g>
			<g class="st6">
				<path class="st3" d="M55,39.7v7.3l-1.1-1c-0.4,0.3-0.7,0.4-1.1,0.6v-6.8c0-0.6-0.3-1.1-0.8-1.5c0.4-0.3,0.7-0.4,1.1-0.4
					C54.2,37.7,55,38.6,55,39.7z"/>
			</g>
			<g class="st6">
				<path class="st3" d="M55,51.6v6.7c-0.7,0.2-1.5,0.4-2.3,0.4v-6.5C53.5,52.1,54.3,51.8,55,51.6z"/>
			</g>
			<g>
				<path class="st7" d="M50.3,81.4c-1.5,0-2.7-1.2-2.7-2.7V39.7c0-0.7,0.3-1.4,0.8-1.9c0.5-0.5,1.2-0.8,1.9-0.8
					c1.5,0,2.7,1.2,2.7,2.7v39.1C53,80.2,51.8,81.4,50.3,81.4z"/>
				<g>
					<path class="st3" d="M50.3,37.7c1.1,0,1.9,0.9,1.9,1.9v39.1c0,1.1-0.9,1.9-1.9,1.9c-1.1,0-1.9-0.9-1.9-1.9V39.7
						c0-0.5,0.2-1,0.5-1.3C49.3,37.9,49.8,37.7,50.3,37.7 M50.3,36.1c-1,0-1.8,0.4-2.5,1.1c-0.6,0.6-1.1,1.6-1.1,2.5v39.1
						c0,1.9,1.6,3.5,3.5,3.5c1.9,0,3.5-1.6,3.5-3.5V39.6C53.8,37.7,52.2,36.1,50.3,36.1L50.3,36.1z"/>
				</g>
			</g>
			<circle class="st8" cx="50.3" cy="40.4" r="1.1"/>
		</g>
		<g>
			<g>
				<path class="st7" d="M32.1,78.6v-2.5c0-1.1,0.9-1.9,1.9-1.9h32c1.1,0,1.9,0.9,1.9,1.9v2.5H32.1z"/>
				<g>
					<path class="st3" d="M66,75c0.6,0,1.1,0.5,1.1,1.1v1.7H32.9v-1.7c0-0.6,0.5-1.1,1.1-1.1H66 M66,73.5H34c-1.5,0-2.7,1.2-2.7,2.7
						v1.7v1.7H33h34.2h1.7v-1.7v-1.7C68.7,74.7,67.5,73.5,66,73.5L66,73.5z"/>
				</g>
			</g>
			<g>
				<path class="st5" d="M35.6,83.5c-1.9,0-3.5-1.6-3.5-3.5v-0.8h35.8V80c0,1.9-1.6,3.5-3.5,3.5H35.6z"/>
				<g>
					<path class="st3" d="M67.1,79.9c0,1.5-1.2,2.7-2.7,2.7H35.6c-1.5,0-2.7-1.2-2.7-2.7H67.1 M68.7,78.4h-1.6H33h-1.7V80
						c0,2.4,1.9,4.4,4.4,4.4h28.7c2.4,0,4.4-1.9,4.4-4.4L68.7,78.4L68.7,78.4z"/>
				</g>
			</g>
			<polygon class="st4" points="66.5,83.2 33.5,83.2 32.9,81.1 67.1,81.1 			"/>
		</g>
		<g>
			<path class="st2" d="M50.3,82.4c-1.9,0-3.5-1.6-3.5-3.5c0-1.9,1.6-3.5,3.5-3.5c1.9,0,3.5,1.6,3.5,3.5
				C53.8,80.8,52.2,82.4,50.3,82.4z"/>
			<path class="st3" d="M50.3,76.2c1.5,0,2.7,1.2,2.7,2.7c0,1.5-1.2,2.7-2.7,2.7c-1.5,0-2.7-1.2-2.7-2.7
				C47.6,77.4,48.8,76.2,50.3,76.2 M50.3,74.5c-2.4,0-4.4,1.9-4.4,4.4c0,2.4,1.9,4.4,4.4,4.4c2.5,0,4.4-1.9,4.4-4.4
				C54.6,76.5,52.7,74.5,50.3,74.5L50.3,74.5z"/>
		</g>
		<rect x="48.1" y="69.1" class="st4" width="4.4" height="4.4"/>
	</g>
	<g>
		<path class="st9" d="M83.5,96.4H16.2c-3.7,0-6.8-3.1-6.8-6.8L3.8,11c0-3.7,3.1-6.8,6.8-6.8h78.6c3.7,0,6.8,3.1,6.8,6.8l-5.7,78.6
			C90.3,93.4,87.2,96.4,83.5,96.4z"/>
	</g>
	<g class="st0">
		<path class="st10" d="M84.7,97.2H15.3c-3.9,0-7-3.2-7-7L2.4,9.8c0-3.9,3.2-7,7-7h81.1c3.9,0,7,3.2,7,7l-5.8,80.4
			C91.7,94.1,88.6,97.2,84.7,97.2z"/>
	</g>
	<path class="st11" d="M78,38.2l-13.2-1.3c-10.3-1-20.7,0.4-30.3,4.1l-16,6.2c-4.4,1.7-9.2-1.4-9.5-6L7.4,16
		c-0.3-4.6,3.3-8.4,7.9-8.4h73.5c2,0,3.6,1.7,3.5,3.7l-1,15.6C90.8,33.8,84.8,38.9,78,38.2z"/>
</g>
</svg>
