<?xml version="1.0" encoding="utf-8"?>
<!-- Generator: Adobe Illustrator 26.0.2, SVG Export Plug-In . SVG Version: 6.00 Build 0)  -->
<svg version="1.1" id="Layer_1" xmlns="http://www.w3.org/2000/svg" xmlns:xlink="http://www.w3.org/1999/xlink" x="0px" y="0px"
	 viewBox="0 0 100 100" style="enable-background:new 0 0 100 100;" xml:space="preserve">
<style type="text/css">
	.st0{enable-background:new    ;}
	.st1{fill:url(#SVGID_1_);}
	.st2{fill:#061423;stroke:#061423;stroke-width:1.7692;stroke-miterlimit:10;}
	.st3{fill:#7AC2C4;}
	.st4{fill:#061423;}
	.st5{opacity:0.3;}
	.st6{fill:#142C4D;}
	.st7{fill:#F8A84F;stroke:#142C4D;stroke-width:2.3589;stroke-miterlimit:10;}
	.st8{opacity:0.5;}
	.st9{fill:#EC2605;}
	.st10{opacity:0.4;}
	.st11{fill:#04152B;}
	.st12{fill:#E8DDDD;}
	.st13{fill:none;stroke:#00A7CD;stroke-width:4.8936;stroke-miterlimit:10;}
	.st14{fill:none;stroke:#FAFCFF;stroke-width:2.5862;stroke-miterlimit:10;}
	.st15{opacity:0.16;fill:#FFFFFF;}
</style>
<g>
	<g class="st0">
		<linearGradient id="SVGID_1_" gradientUnits="userSpaceOnUse" x1="49.8643" y1="102.277" x2="49.8643" y2="4.4622">
			<stop  offset="0.4735" style="stop-color:#A3DFED"/>
			<stop  offset="0.4794" style="stop-color:#5DD1E8"/>
		</linearGradient>
		<path class="st1" d="M84.1,97.2H15.6c-3.8,0-6.9-3.1-6.9-6.9l-5.8-80c0-3.8,3.1-6.9,6.9-6.9h80c3.8,0,6.9,3.1,6.9,6.9l-5.8,80
			C91,94.1,87.9,97.2,84.1,97.2z"/>
	</g>
	<g id="triPedals_00000013876609062461144150000011227016354887902087_">
		<path class="st2" d="M69.3,36.2c-0.1,8.2-4.7,13.5-10.4,15.8c-0.7,0.3-1.3,0.5-2,0.7c-9.9,2.7-22.2-2.8-22.4-16.5
			C34.9,13.2,68.9,13.4,69.3,36.2z"/>
		<g>
			<g>
				<path class="st3" d="M51.9,50.3c-7.8,0-14.2-6.3-14.2-14.2S44.1,22,51.9,22S66,28.4,66,36.2S59.7,50.3,51.9,50.3z M51.9,23.2
					c-7.2,0-13,5.8-13,13s5.8,13,13,13s13-5.8,13-13S59,23.2,51.9,23.2z"/>
			</g>
			<g>
				<path class="st3" d="M51.9,53c-9.3,0-16.8-7.5-16.8-16.8s7.5-16.8,16.8-16.8s16.8,7.5,16.8,16.8S61.1,53,51.9,53z M51.9,20.5
					c-8.6,0-15.6,7-15.6,15.6s7,15.6,15.6,15.6s15.6-7,15.6-15.6S60.5,20.5,51.9,20.5z"/>
			</g>
			<g>
				<path class="st3" d="M51.9,47.8c-6.4,0-11.6-5.2-11.6-11.6s5.2-11.6,11.6-11.6s11.6,5.2,11.6,11.6S58.3,47.8,51.9,47.8z
					 M51.9,25.7c-5.8,0-10.4,4.7-10.4,10.4s4.7,10.4,10.4,10.4s10.4-4.7,10.4-10.4S57.6,25.7,51.9,25.7z"/>
			</g>
			<g>
				<path class="st3" d="M51.9,45.4c-5.1,0-9.2-4.1-9.2-9.2s4.1-9.2,9.2-9.2s9.2,4.1,9.2,9.2S57,45.4,51.9,45.4z M51.9,28.1
					c-4.4,0-8.1,3.6-8.1,8.1s3.6,8.1,8.1,8.1s8.1-3.6,8.1-8.1S56.3,28.1,51.9,28.1z"/>
			</g>
			<path class="st4" d="M53.9,29.4h-3.5c1,0,1-10.6,0-10.6h3.5C53,18.8,53,29.4,53.9,29.4z"/>
			<path class="st4" d="M58.9,36.3l-0.7-3.5c0.2,1,10.6-1.2,10.4-2.2l0.7,3.5C69.1,33.2,58.7,35.3,58.9,36.3z"/>
			<path class="st4" d="M54.5,42.8l2.9-2c-0.8,0.6,5.3,9.2,6.1,8.7l-2.9,2C61.4,50.9,55.3,42.2,54.5,42.8z"/>
			<path class="st4" d="M47.3,41.1l3,1.8c-0.8-0.5-6.3,8.6-5.5,9.1l-3-1.8C42.6,50.7,48.1,41.6,47.3,41.1z"/>
			<path class="st4" d="M46,33.3l-0.5,3.5c0.1-1-10.4-2.4-10.5-1.4l0.5-3.5C35.3,32.8,45.8,34.2,46,33.3z"/>
		</g>
		<g class="st5">
			<path class="st6" d="M68.7,36.2c0,9.3-7.5,16.8-16.8,16.8c-9,0-16.3-7-16.8-15.8l31.3-9.6C67.8,30.1,68.7,33,68.7,36.2z"/>
		</g>
		<g>
			<path class="st7" d="M60,59"/>
			<g>
				<g class="st8">
					<g>
						<path d="M58.1,33.8v18.1c-0.6,0.2-1.2,0.4-1.8,0.6V33.8c0-1.2-0.9-2.2-2.1-2.5c0.3-0.1,0.6-0.1,0.9-0.1
							C56.7,31.2,58.1,32.4,58.1,33.8z"/>
					</g>
				</g>
				<g>
					<g>
						<path class="st9" d="M52.2,77.5c-2.1,0-3.8-1.6-3.8-3.6V34.4c0-2,1.7-3.6,3.8-3.6s3.8,1.6,3.8,3.6v39.5
							C56,75.9,54.3,77.5,52.2,77.5z"/>
						<path class="st6" d="M52.2,31.7c1.6,0,2.9,1.2,2.9,2.7v39.5c0,1.5-1.3,2.7-2.9,2.7s-2.9-1.2-2.9-2.7V34.4
							C49.2,32.9,50.5,31.7,52.2,31.7 M52.2,30c-2.6,0-4.7,2-4.7,4.4v39.5c0,2.4,2.1,4.4,4.7,4.4s4.7-2,4.7-4.4V34.4
							C56.9,32,54.8,30,52.2,30L52.2,30z"/>
					</g>
				</g>
				<g class="st5">
					<path class="st6" d="M55.1,65.8v8.1c0,1.5-1.3,2.7-2.9,2.7c-1.6,0-2.9-1.2-2.9-2.7V66L55.1,65.8z"/>
				</g>
			</g>
			<circle cx="52.2" cy="35.9" r="1.8"/>
			<g>
				<path class="st6" d="M65.9,83.1c-0.3,0-0.6,0-0.9-0.1l-23.6-7.5c-4.3-1-4.5-3.2-4.2-4.5c0.3-1.4,1.6-2.4,3-2.4
					c0.2,0,0.5,0,0.7,0.1L68,75.2c0.7,0.2,1.3,0.6,1.6,1.2c0.4,0.6,0.5,1.3,0.3,2l-0.4,1.7C69.2,81.9,67.7,83.1,65.9,83.1z"/>
				<g>
					<path class="st6" d="M40.2,69.6c0.2,0,0.3,0,0.5,0.1l27.1,6.5c0.9,0.2,1.5,1.2,1.3,2.1L68.7,80c-0.3,1.3-1.5,2.3-2.8,2.3
						c-0.2,0-0.5,0-0.7-0.1l-23.6-7.4c-2.3-0.5-4-1.6-3.6-3.4C38.3,70.2,39.2,69.6,40.2,69.6 M40.2,67.8L40.2,67.8
						c-1.9,0-3.4,1.3-3.9,3.1c-0.3,1.2-0.4,4.3,4.8,5.5l23.5,7.4h0.1h0.1c0.4,0.1,0.7,0.1,1.1,0.1c2.2,0,4.1-1.5,4.6-3.6l0.4-1.7
						c0.5-1.9-0.7-3.8-2.6-4.3l-27.1-6.5C40.8,67.8,40.5,67.8,40.2,67.8L40.2,67.8z"/>
				</g>
			</g>
			<g class="st10">
				<path d="M68.7,80c-0.4,1.6-2,2.5-3.5,2.2l-23.6-7.4c-2.1-0.5-3.7-1.4-3.6-2.9L68.7,80z"/>
			</g>
			<g>
				<circle class="st9" cx="52.2" cy="74.8" r="2.4"/>
				<path class="st11" d="M52.2,73c1,0,1.8,0.8,1.8,1.8s-0.8,1.8-1.8,1.8s-1.8-0.8-1.8-1.8S51.2,73,52.2,73 M52.2,71.9
					c-1.6,0-2.9,1.3-2.9,2.9s1.3,2.9,2.9,2.9s2.9-1.3,2.9-2.9S53.8,71.9,52.2,71.9L52.2,71.9z"/>
			</g>
			<path class="st12" d="M47,72c-1-0.1-1.9-0.2-2.9-0.4l-5.6-1.3c0.1-0.2,0.3-0.3,0.5-0.4c0.5-0.3,1.1-0.4,1.7-0.3l8.5,1.6L47,72z"
				/>
			<g>
				<path class="st9" d="M68.8,78.2c-0.4,0-0.7-0.1-1-0.3c-1.2-0.9-1.8-2.4-1.6-3.8c0.1-0.5,0.1-1,0.2-1.5c0.5-3,1-6.1-4.1-9
					c-0.7-0.4-1-1.1-0.8-1.8c0.2-0.8,0.9-1.3,1.7-1.3c0.2,0,0.3,0,0.5,0.1c5.1,1.6,7.6,4.6,7.2,8.6l-0.6,7.7
					C70.3,77.6,69.6,78.2,68.8,78.2L68.8,78.2z"/>
				<g>
					<path class="st6" d="M63.3,61.3c0.1,0,0.2,0,0.3,0c3.4,1.1,7,3.2,6.6,7.7l-0.6,7.7c0,0.4-0.3,0.6-0.7,0.6c-0.1,0-0.3,0-0.4-0.1
						l0,0c-0.9-0.7-1.4-1.9-1.3-3c0.4-3.4,2.2-7.7-4.3-11.4C62.1,62.4,62.5,61.3,63.3,61.3 M63.3,59.5c-1.2,0-2.2,0.8-2.5,2
						c-0.3,1.1,0.2,2.2,1.2,2.8c4.5,2.6,4.1,5.1,3.7,8.1c-0.1,0.5-0.2,1-0.2,1.5c-0.2,1.8,0.5,3.5,2,4.6c0.4,0.3,1,0.5,1.5,0.5
						c1.3,0,2.3-1,2.4-2.2l0.6-7.7c0.4-4.4-2.4-7.8-7.9-9.5C63.8,59.6,63.5,59.5,63.3,59.5L63.3,59.5z"/>
				</g>
			</g>
			<g class="st5">
				<path class="st6" d="M70.1,69l-0.6,7.7c-0.1,0.7-0.9,0.8-1.3,0.3l0,0c-0.5-0.5-0.9-1.1-1-1.8c1.3,0.1,1.4-1.8,1.4-1.8
					c0.1-1.9,1-6.9,0.4-8.7C69.9,66,70.3,67.5,70.1,69z"/>
			</g>
			<path class="st12" d="M66.2,62.5c-1.5-0.1-2.8,0-3.7,0c-0.3-0.6,0.3-1.4,1-1.2C64.4,61.6,65.3,62,66.2,62.5z"/>
		</g>
	</g>
	<g>
		<path class="st13" d="M83.5,96.4H16.2c-3.7,0-6.8-3.1-6.8-6.8L3.8,11c0-3.7,3.1-6.8,6.8-6.8h78.6c3.7,0,6.8,3.1,6.8,6.8l-5.7,78.6
			C90.3,93.4,87.2,96.4,83.5,96.4z"/>
	</g>
	<g class="st0">
		<path class="st14" d="M84.7,97.2H15.3c-3.9,0-7-3.2-7-7L2.4,9.8c0-3.9,3.2-7,7-7h81.1c3.9,0,7,3.2,7,7l-5.8,80.4
			C91.7,94.1,88.6,97.2,84.7,97.2z"/>
	</g>
	<path class="st15" d="M78,38.2l-13.2-1.3c-10.3-1-20.7,0.4-30.3,4.1l-16,6.2c-4.4,1.7-9.2-1.4-9.5-6L7.4,16
		c-0.3-4.6,3.3-8.4,7.9-8.4h73.5c2,0,3.6,1.7,3.5,3.7l-1,15.6C90.8,33.8,84.8,38.9,78,38.2z"/>
</g>
</svg>
