<?xml version="1.0" encoding="utf-8"?>
<!-- Generator: Adobe Illustrator 26.0.2, SVG Export Plug-In . SVG Version: 6.00 Build 0)  -->
<svg version="1.1" id="Layer_1" xmlns="http://www.w3.org/2000/svg" xmlns:xlink="http://www.w3.org/1999/xlink" x="0px" y="0px"
	 viewBox="0 0 100 100" style="enable-background:new 0 0 100 100;" xml:space="preserve">
<style type="text/css">
	.st0{enable-background:new    ;}
	.st1{fill:url(#SVGID_1_);}
	.st2{fill:#142C4D;}
	.st3{opacity:0.3;}
	.st4{fill:#FAAA4F;stroke:#142C4D;stroke-width:1.7284;stroke-miterlimit:10;}
	.st5{fill:#7C7679;}
	.st6{fill:#272B33;}
	.st7{fill:#EE0000;}
	.st8{fill:#FAAA4F;}
	.st9{fill:none;stroke:#00A7CD;stroke-width:4.8936;stroke-miterlimit:10;}
	.st10{fill:none;stroke:#FAFCFF;stroke-width:2.5862;stroke-miterlimit:10;}
	.st11{opacity:0.16;fill:#FFFFFF;}
</style>
<g>
	<g class="st0">
		<linearGradient id="SVGID_1_" gradientUnits="userSpaceOnUse" x1="49.8643" y1="102.277" x2="49.8643" y2="4.4622">
			<stop  offset="0.4735" style="stop-color:#A3DFED"/>
			<stop  offset="0.4794" style="stop-color:#5DD1E8"/>
		</linearGradient>
		<path class="st1" d="M84.1,97.2H15.6c-3.8,0-6.9-3.1-6.9-6.9l-5.8-80c0-3.8,3.1-6.9,6.9-6.9h80c3.8,0,6.9,3.1,6.9,6.9l-5.8,80
			C91,94.1,87.9,97.2,84.1,97.2z"/>
	</g>
	<g id="eBike_00000146491654461650898250000008875516547112535970_">
		<g id="eBikePedals_00000175324453512597224330000012235858698344693636_">
			<g>
				<g>
					<path class="st2" d="M67.6,44.3c0-0.4,0-0.9,0-1.3c0-0.1,0-0.2,0-0.3c0.4-0.1,0.7-0.4,0.7-0.8c0-0.4,0-0.7-0.1-1.1
						c0-0.4-0.4-0.7-0.8-0.7c-0.1-0.5-0.2-1.1-0.3-1.6c0.4-0.1,0.6-0.6,0.5-1c-0.1-0.4-0.2-0.7-0.3-1.1c-0.1-0.4-0.6-0.6-1-0.5
						c-0.2-0.5-0.4-1-0.6-1.5c0,0,0,0,0,0c0.4-0.2,0.6-0.7,0.3-1.1c-0.2-0.3-0.3-0.7-0.5-1c-0.2-0.4-0.7-0.5-1.1-0.3c0,0,0,0-0.1,0
						c-0.3-0.4-0.6-0.9-0.9-1.3c0,0,0.1,0,0.1-0.1c0.3-0.3,0.4-0.8,0.1-1.1c-0.2-0.3-0.5-0.6-0.7-0.8c-0.3-0.3-0.8-0.3-1.1,0
						c0,0-0.1,0.1-0.1,0.1c-0.4-0.4-0.8-0.7-1.2-1.1c0,0,0.1,0,0.1-0.1c0.3-0.4,0.2-0.9-0.2-1.1c-0.3-0.2-0.6-0.4-0.9-0.6
						c-0.4-0.2-0.9-0.1-1.1,0.2c0,0,0,0,0,0.1c-0.5-0.3-0.9-0.6-1.4-0.8c0,0,0,0,0,0c0.2-0.4,0-0.9-0.4-1.1c-0.3-0.1-0.7-0.3-1-0.4
						c-0.4-0.1-0.9,0-1,0.4c-0.5-0.2-1-0.3-1.6-0.5c0.1-0.4-0.2-0.8-0.6-0.9c-0.4-0.1-0.7-0.1-1.1-0.2c-0.4-0.1-0.8,0.2-0.9,0.6
						c-0.5-0.1-1.1-0.1-1.6-0.1v0c0-0.4-0.4-0.8-0.8-0.8c-0.4,0-0.7,0-1.1,0c-0.4,0-0.8,0.4-0.8,0.8v0c-0.5,0-1.1,0.1-1.6,0.2
						c0,0,0,0,0,0c-0.1-0.4-0.5-0.7-1-0.6c-0.4,0.1-0.7,0.2-1.1,0.3c-0.4,0.1-0.7,0.6-0.6,1c0,0,0,0,0,0c-0.5,0.2-1,0.4-1.5,0.6
						c0,0,0,0,0,0c-0.2-0.4-0.7-0.6-1.1-0.4c-0.3,0.2-0.7,0.3-1,0.5c-0.4,0.2-0.5,0.7-0.3,1.1c0,0,0,0,0,0c-0.5,0.3-0.9,0.6-1.4,0.9
						c0,0,0,0,0,0c-0.3-0.4-0.8-0.4-1.1-0.1c-0.3,0.2-0.6,0.5-0.9,0.7c-0.3,0.3-0.4,0.8-0.1,1.1c0,0,0,0,0,0
						c-0.4,0.4-0.8,0.7-1.1,1.1c0,0,0,0,0,0c-0.3-0.3-0.8-0.2-1.1,0.1c-0.2,0.3-0.5,0.6-0.7,0.9c-0.3,0.4-0.2,0.9,0.2,1.1
						c0,0,0,0,0,0c-0.3,0.4-0.6,0.9-0.9,1.4c0,0,0,0,0,0c-0.4-0.2-0.9-0.1-1.1,0.3c-0.2,0.3-0.3,0.7-0.5,1c-0.2,0.4,0,0.9,0.4,1.1
						c0,0,0,0,0,0c-0.2,0.5-0.4,1-0.6,1.5c0,0,0,0,0,0c-0.4-0.1-0.9,0.1-1,0.6c-0.1,0.4-0.2,0.7-0.3,1.1c-0.1,0.4,0.2,0.9,0.6,1h0
						c-0.1,0.5-0.2,1.1-0.2,1.6h0c-0.4,0-0.8,0.3-0.8,0.8c0,0.4,0,0.7,0,1.1V43c0,0.4,0.4,0.8,0.8,0.8h0c0,0.5,0.1,1.1,0.1,1.6h0
						c-0.4,0.1-0.7,0.5-0.7,0.9c0.1,0.4,0.1,0.7,0.2,1.1c0.1,0.4,0.4,0.6,0.8,0.6c0.1,0,0.1,0,0.2,0c0,0,0,0,0,0
						c0.1,0.5,0.3,1,0.5,1.5c0,0,0,0,0,0c-0.4,0.2-0.6,0.6-0.4,1c0.1,0.3,0.3,0.7,0.4,1c0.1,0.3,0.4,0.5,0.7,0.5
						c0.1,0,0.2,0,0.3-0.1c0,0,0,0,0,0c0.2,0.5,0.5,0.9,0.8,1.4c0,0,0,0,0,0c-0.4,0.3-0.5,0.7-0.2,1.1c0.2,0.3,0.4,0.6,0.7,0.9
						c0.2,0.2,0.4,0.3,0.6,0.3c0.2,0,0.3-0.1,0.5-0.2c0,0,0,0,0,0c0.3,0.4,0.7,0.8,1.1,1.2l0,0c-0.3,0.3-0.3,0.8,0,1.1
						c0.3,0.3,0.6,0.5,0.8,0.7c0.1,0.1,0.3,0.2,0.5,0.2c0.2,0,0.5-0.1,0.6-0.3c0,0,0,0,0,0c0.4,0.3,0.9,0.6,1.3,0.9c0,0,0,0,0,0
						c-0.2,0.4-0.1,0.9,0.3,1.1c0.3,0.2,0.6,0.4,1,0.5c0.1,0.1,0.2,0.1,0.4,0.1c0.3,0,0.6-0.2,0.7-0.4c0,0,0,0,0,0
						c0.5,0.2,1,0.4,1.5,0.6c0,0,0,0,0,0c-0.1,0.4,0.1,0.9,0.5,1c0.4,0.1,0.7,0.2,1.1,0.3c0.1,0,0.1,0,0.2,0c0.4,0,0.7-0.2,0.8-0.6
						c0,0,0,0,0,0c0.5,0.1,1,0.2,1.6,0.3c0,0,0,0,0,0c0,0.4,0.3,0.8,0.7,0.9c0.4,0,0.7,0.1,1.1,0.1h0c0.4,0,0.8-0.3,0.8-0.8v0h0.2
						c0.5,0,0.9,0,1.4-0.1c0.1,0.4,0.4,0.7,0.8,0.7c0,0,0.1,0,0.1,0c0.4,0,0.7-0.1,1.1-0.2c0.4-0.1,0.7-0.5,0.7-0.9
						c0.5-0.1,1.1-0.2,1.6-0.4c0.1,0.3,0.4,0.5,0.7,0.5c0.1,0,0.2,0,0.2,0c0.4-0.1,0.7-0.2,1.1-0.4c0.4-0.2,0.6-0.6,0.5-1
						c0,0,0,0,0,0c0.5-0.2,1-0.5,1.4-0.7c0,0,0,0,0,0c0.1,0.3,0.4,0.4,0.7,0.4c0.1,0,0.3,0,0.4-0.1c0.3-0.2,0.6-0.4,1-0.6
						c0.4-0.2,0.5-0.7,0.2-1.1c0,0,0-0.1-0.1-0.1c0.4-0.3,0.9-0.7,1.3-1c0,0,0,0.1,0.1,0.1c0.2,0.2,0.4,0.3,0.6,0.3
						c0.2,0,0.4-0.1,0.6-0.2c0.3-0.3,0.5-0.5,0.8-0.8c0.3-0.3,0.3-0.8,0-1.1c0,0-0.1,0-0.1-0.1c0.4-0.4,0.7-0.8,1-1.3
						c0,0,0,0,0.1,0.1c0.1,0.1,0.3,0.1,0.4,0.1c0.3,0,0.5-0.1,0.7-0.4c0.2-0.3,0.4-0.6,0.6-1c0.2-0.4,0.1-0.9-0.3-1.1c0,0,0,0,0,0
						c0.3-0.5,0.5-1,0.7-1.4c0,0,0,0,0,0c0.1,0,0.2,0.1,0.3,0.1c0.3,0,0.6-0.2,0.8-0.5c0.1-0.3,0.3-0.7,0.4-1c0.1-0.4-0.1-0.9-0.5-1
						c0.1-0.5,0.3-1,0.4-1.6h0.1c0.4,0,0.7-0.3,0.8-0.7c0.1-0.4,0.1-0.7,0.1-1.1C68.2,44.7,68,44.3,67.6,44.3z M48.9,27.2
						c6.1,0.5,11.2,4.4,13.4,9.7l-1.5,0.4c-0.1-0.2-0.2-0.4-0.3-0.6c0,0,0,0,0,0c0.3-0.1,0.4-0.5,0.2-0.8c-0.1-0.2-0.2-0.5-0.4-0.7
						c-0.2-0.3-0.5-0.4-0.8-0.2c0,0,0,0,0,0c-0.2-0.3-0.4-0.6-0.7-0.9c0,0,0,0,0.1,0c0.2-0.2,0.3-0.6,0.1-0.8
						c-0.2-0.2-0.3-0.4-0.5-0.6c-0.2-0.2-0.6-0.2-0.8,0c0,0,0,0-0.1,0.1c-0.3-0.3-0.6-0.5-0.9-0.8c0,0,0,0,0.1-0.1
						c0.2-0.3,0.1-0.6-0.1-0.8c-0.2-0.2-0.4-0.3-0.7-0.5c-0.3-0.2-0.6-0.1-0.8,0.2c0,0,0,0,0,0c-0.3-0.2-0.7-0.4-1-0.6c0,0,0,0,0,0
						c0.1-0.3,0-0.6-0.3-0.8c-0.2-0.1-0.5-0.2-0.7-0.3c-0.3-0.1-0.6,0-0.7,0.3c-0.4-0.1-0.7-0.2-1.1-0.3c0-0.3-0.1-0.6-0.4-0.6
						c-0.3-0.1-0.5-0.1-0.8-0.1c-0.3-0.1-0.6,0.1-0.7,0.4c-0.2,0-0.4,0-0.6-0.1V27.2z M48.9,31.7c4,0.4,7.4,3,9.1,6.5l-1.1,0.3
						c0.2-0.1,0.2-0.3,0.1-0.5c-0.1-0.2-0.2-0.3-0.3-0.5c-0.1-0.2-0.4-0.3-0.6-0.1c0,0,0,0,0,0c-0.1-0.2-0.3-0.4-0.5-0.7
						c0,0,0,0,0,0c0.2-0.1,0.2-0.4,0.1-0.6c-0.1-0.1-0.3-0.3-0.4-0.4c-0.2-0.2-0.4-0.2-0.6,0c0,0,0,0,0,0c-0.2-0.2-0.4-0.4-0.6-0.5
						c0,0,0,0,0,0c0.1-0.2,0.1-0.4-0.1-0.6c-0.1-0.1-0.3-0.2-0.5-0.3c-0.2-0.1-0.4-0.1-0.6,0.1c0,0,0,0,0,0
						c-0.2-0.1-0.5-0.3-0.7-0.4c0,0,0,0,0,0c0.1-0.2,0-0.4-0.2-0.5c-0.2-0.1-0.3-0.1-0.5-0.2c-0.2-0.1-0.4,0-0.5,0.2
						c-0.3-0.1-0.5-0.2-0.8-0.2c0-0.2-0.1-0.4-0.3-0.5c-0.2,0-0.4-0.1-0.5-0.1c-0.2,0-0.4,0.1-0.5,0.3c0,0-0.1,0-0.1,0V31.7z
						 M36.4,40.8l1.5,0.4c0,0.2-0.1,0.5-0.1,0.8h0c-0.2,0-0.4,0.2-0.4,0.4c0,0.2,0,0.4,0,0.6v0c0,0.2,0.2,0.4,0.4,0.4h0
						c0,0.3,0,0.5,0.1,0.8h0c-0.2,0-0.4,0.2-0.3,0.5c0,0.2,0.1,0.4,0.1,0.6c0,0.2,0.2,0.3,0.4,0.3c0,0,0.1,0,0.1,0h0
						c0.1,0.3,0.2,0.5,0.2,0.8l0,0c-0.2,0.1-0.3,0.3-0.2,0.5c0.1,0.2,0.1,0.3,0.2,0.5c0.1,0.1,0.2,0.2,0.4,0.2c0.1,0,0.1,0,0.2,0
						c0,0,0,0,0,0c0.1,0.2,0.3,0.5,0.4,0.7c0,0,0,0,0,0c-0.2,0.1-0.2,0.4-0.1,0.6c0.1,0.2,0.2,0.3,0.3,0.5c0.1,0.1,0.2,0.2,0.3,0.2
						c0.1,0,0.2,0,0.2-0.1c0,0,0,0,0,0c0.1,0.1,0.1,0.1,0.2,0.2l-1.1,1.3c-1.9-2-3-4.8-3-7.8C36.1,42.3,36.2,41.5,36.4,40.8z
						 M42.4,39.8l-1.9-0.6c1.2-2.1,3.2-3.7,5.7-4.1v1.9C44.6,37.3,43.2,38.4,42.4,39.8z M39.6,41.7l2,0.6c0,0.1,0,0.2,0,0.3
						c0,1.4,0.5,2.6,1.2,3.6l-1.6,1.9c-1.1-1.4-1.8-3.2-1.8-5.1C39.5,42.6,39.5,42.2,39.6,41.7z M46,33.1C46,33.1,46,33.1,46,33.1
						c0-0.2-0.3-0.4-0.5-0.3c-0.2,0-0.4,0.1-0.5,0.1c-0.2,0.1-0.3,0.3-0.3,0.5v0c-0.3,0.1-0.5,0.2-0.8,0.3c0,0,0,0,0,0
						c-0.1-0.2-0.3-0.3-0.5-0.2c-0.2,0.1-0.3,0.2-0.5,0.3c-0.2,0.1-0.3,0.4-0.2,0.6c0,0,0,0,0,0c-0.2,0.1-0.5,0.3-0.7,0.4
						c0,0,0,0,0,0c-0.1-0.2-0.4-0.2-0.6-0.1c-0.1,0.1-0.3,0.2-0.4,0.4c-0.2,0.1-0.2,0.4,0,0.6c0,0,0,0,0,0c-0.2,0.2-0.4,0.4-0.6,0.6
						c0,0,0,0,0,0c-0.2-0.1-0.4-0.1-0.6,0c-0.1,0.1-0.2,0.3-0.4,0.4c-0.1,0.2-0.1,0.4,0.1,0.6c0,0,0,0,0,0c-0.2,0.2-0.3,0.5-0.4,0.7
						c0,0,0,0,0,0c-0.2-0.1-0.4,0-0.6,0.2c-0.1,0.2-0.2,0.3-0.2,0.5v0l-1.1-0.3c1.6-3.5,5-6,9-6.5V33C46.1,33,46.1,33.1,46,33.1z
						 M42.3,51.3C42.3,51.3,42.3,51.3,42.3,51.3C42.3,51.3,42.3,51.3,42.3,51.3c-0.1,0.2,0,0.5,0.2,0.6c0.2,0.1,0.3,0.2,0.5,0.3
						c0.1,0,0.1,0,0.2,0c0.1,0,0.3-0.1,0.4-0.2v0c0.2,0.1,0.5,0.2,0.7,0.3v0c-0.1,0.2,0,0.4,0.3,0.5c0.2,0.1,0.4,0.1,0.5,0.2
						c0,0,0.1,0,0.1,0c0.2,0,0.3-0.1,0.4-0.3c0,0,0,0,0,0c0.3,0.1,0.5,0.1,0.8,0.1c0,0,0,0,0,0c0,0.2,0.1,0.4,0.4,0.4
						c0.2,0,0.4,0,0.6,0h0c0.2,0,0.4-0.2,0.4-0.4v0h0.1c0.2,0,0.5,0,0.7,0c0,0.2,0.2,0.3,0.4,0.3c0,0,0,0,0.1,0c0.2,0,0.4,0,0.6-0.1
						c0.2,0,0.4-0.2,0.3-0.4c0.3-0.1,0.5-0.1,0.8-0.2c0.1,0.2,0.2,0.3,0.4,0.3c0,0,0.1,0,0.1,0c0.2-0.1,0.4-0.1,0.5-0.2
						c0.2-0.1,0.3-0.3,0.2-0.5c0,0,0,0,0,0c0.3-0.1,0.5-0.2,0.7-0.4c0,0,0,0,0,0c0.1,0.1,0.2,0.2,0.4,0.2c0.1,0,0.1,0,0.2-0.1
						c0,0,0,0,0.1,0l0.7,0.8c-1.8,1.2-4,1.9-6.3,1.9c-2.4,0-4.6-0.7-6.4-2L42.3,51.3z M53.8,48.3l-1.7-2c0.8-1,1.2-2.2,1.2-3.6
						c0-0.1,0-0.2,0-0.3l2.2-0.7c0.1,0.4,0.1,0.9,0.1,1.4C55.8,45.1,55,46.9,53.8,48.3z M48.9,35c2.5,0.4,4.7,2,5.9,4.1l-2.1,0.6
						c-0.8-1.4-2.2-2.5-3.8-2.8V35z M50.1,48l1.7,2.1c-1.2,0.7-2.6,1.1-4.2,1.1c-1.6,0-3-0.4-4.3-1.2l1.6-2c0.8,0.4,1.6,0.6,2.6,0.6
						C48.5,48.6,49.3,48.4,50.1,48z M46.2,27.2v1.7c-0.3,0-0.6,0.1-0.9,0.1c0,0,0,0,0,0c-0.1-0.3-0.4-0.5-0.7-0.4
						c-0.3,0.1-0.5,0.1-0.8,0.2c-0.3,0.1-0.5,0.4-0.4,0.7c0,0,0,0,0,0c-0.4,0.1-0.7,0.3-1.1,0.4c0,0,0,0,0,0
						c-0.1-0.3-0.5-0.4-0.8-0.3c-0.2,0.1-0.5,0.2-0.7,0.4c-0.3,0.1-0.4,0.5-0.2,0.8c0,0,0,0,0,0c-0.3,0.2-0.7,0.4-1,0.6c0,0,0,0,0,0
						c-0.2-0.3-0.6-0.3-0.8-0.1c-0.2,0.2-0.4,0.3-0.6,0.5c-0.2,0.2-0.3,0.6-0.1,0.8c0,0,0,0,0,0c-0.3,0.3-0.6,0.5-0.8,0.8
						c0,0,0,0,0,0c-0.2-0.2-0.6-0.2-0.8,0.1c-0.2,0.2-0.3,0.4-0.5,0.6c-0.2,0.3-0.1,0.6,0.1,0.8c0,0,0,0,0,0c-0.2,0.3-0.4,0.6-0.6,1
						c0,0,0,0,0,0c-0.3-0.1-0.6,0-0.8,0.2c-0.1,0.2-0.2,0.5-0.3,0.7c-0.1,0.3,0,0.6,0.2,0.7l-1.9-0.6C35,31.6,40.1,27.7,46.2,27.2z
						 M36.2,54.6c-2.9-2.9-4.7-6.9-4.7-11.4c0-1.3,0.1-2.5,0.4-3.7l1.5,0.4c0,0.3,0.2,0.5,0.4,0.6h0c-0.1,0.4-0.1,0.7-0.2,1.1h0
						c-0.3,0-0.6,0.2-0.6,0.5c0,0.3,0,0.5,0,0.8V43c0,0.3,0.3,0.6,0.6,0.6h0c0,0.4,0,0.8,0.1,1.1h0c-0.3,0.1-0.5,0.3-0.5,0.7
						c0,0.3,0.1,0.5,0.2,0.8c0.1,0.3,0.3,0.4,0.6,0.4c0,0,0.1,0,0.1,0c0,0,0,0,0,0c0.1,0.4,0.2,0.7,0.3,1.1c0,0,0,0,0,0
						c-0.3,0.1-0.4,0.5-0.3,0.7c0.1,0.2,0.2,0.5,0.3,0.7c0.1,0.2,0.3,0.3,0.5,0.3c0.1,0,0.2,0,0.2-0.1c0,0,0,0,0,0
						c0.2,0.3,0.4,0.7,0.6,1c0,0,0,0,0,0c-0.3,0.2-0.3,0.5-0.1,0.8c0.1,0.2,0.3,0.4,0.5,0.6c0.1,0.1,0.3,0.2,0.5,0.2
						c0.1,0,0.2,0,0.3-0.1c0,0,0,0,0,0c0.2,0.3,0.5,0.5,0.7,0.8L36.2,54.6z M47.5,59.3c-3.5,0-6.7-1.1-9.3-3l1.4-1.8
						c0.1,0.1,0.3,0.2,0.4,0.3c0,0,0,0,0,0c-0.2,0.3-0.1,0.6,0.2,0.8c0.2,0.1,0.5,0.3,0.7,0.4c0.1,0,0.2,0.1,0.3,0.1
						c0.2,0,0.4-0.1,0.5-0.3c0,0,0,0,0,0c0.3,0.2,0.7,0.3,1.1,0.4c0,0,0,0,0,0c-0.1,0.3,0.1,0.6,0.4,0.7c0.3,0.1,0.5,0.2,0.8,0.2
						c0.1,0,0.1,0,0.1,0c0.3,0,0.5-0.2,0.6-0.4c0,0,0,0,0,0c0.4,0.1,0.7,0.2,1.1,0.2c0,0,0,0,0,0c0,0.3,0.2,0.6,0.5,0.6
						c0.3,0,0.5,0,0.8,0.1h0c0.3,0,0.6-0.2,0.6-0.5v0h0.1c0.3,0,0.7,0,1,0c0,0.3,0.3,0.5,0.6,0.5c0,0,0,0,0.1,0
						c0.3,0,0.5-0.1,0.8-0.1c0.3,0,0.5-0.3,0.5-0.6c0.4-0.1,0.8-0.2,1.1-0.3c0.1,0.2,0.3,0.4,0.5,0.4c0.1,0,0.1,0,0.2,0
						c0.3-0.1,0.5-0.2,0.7-0.3c0.3-0.1,0.4-0.4,0.3-0.7c0,0,0,0,0,0c0.4-0.2,0.7-0.3,1-0.5c0,0,0,0,0,0c0.1,0.2,0.3,0.3,0.5,0.3
						c0.1,0,0.2,0,0.3-0.1c0.2-0.1,0.4-0.2,0.6-0.3l0.9,1.1C54.2,58.2,51,59.3,47.5,59.3z M56,51l-0.6-0.8c0,0,0,0,0.1-0.1
						c0.2-0.2,0.1-0.4,0-0.6c0,0,0,0,0,0c0.2-0.2,0.3-0.4,0.5-0.6c0,0,0,0,0,0C56,49,56,49,56.1,49c0.1,0,0.3-0.1,0.3-0.2
						c0.1-0.2,0.2-0.3,0.3-0.5c0.1-0.2,0-0.4-0.1-0.6c0,0,0,0,0,0c0.1-0.2,0.3-0.5,0.4-0.7c0,0,0,0,0,0c0,0,0.1,0,0.1,0
						c0.2,0,0.3-0.1,0.4-0.3c0.1-0.2,0.1-0.4,0.2-0.5c0.1-0.2,0-0.4-0.2-0.5c0.1-0.3,0.1-0.5,0.2-0.8h0c0.2,0,0.4-0.1,0.4-0.3
						c0-0.2,0.1-0.4,0.1-0.6c0-0.2-0.1-0.4-0.3-0.4c0-0.2,0-0.4,0-0.7c0-0.1,0-0.1,0-0.2c0.2,0,0.4-0.2,0.3-0.4c0-0.2,0-0.4,0-0.6
						c0-0.2-0.2-0.4-0.4-0.4c0-0.1,0-0.2-0.1-0.3l1.2-0.3c0.2,0.8,0.3,1.6,0.3,2.4C59.1,46.2,57.9,48.9,56,51z M58.9,54.6l-0.8-1
						c0.2-0.1,0.3-0.3,0.5-0.5c0.2-0.2,0.2-0.6,0-0.8c0,0,0,0-0.1,0c0.3-0.3,0.5-0.6,0.7-0.9c0,0,0,0,0,0c0.1,0.1,0.2,0.1,0.3,0.1
						c0.2,0,0.4-0.1,0.5-0.3c0.1-0.2,0.3-0.4,0.4-0.7c0.2-0.3,0.1-0.6-0.2-0.8c0,0,0,0,0,0c0.2-0.3,0.4-0.7,0.5-1c0,0,0,0,0,0
						c0.1,0,0.1,0,0.2,0c0.2,0,0.5-0.1,0.5-0.4c0.1-0.3,0.2-0.5,0.3-0.7c0.1-0.3-0.1-0.6-0.3-0.7c0.1-0.4,0.2-0.7,0.3-1.1h0
						c0.3,0,0.5-0.2,0.6-0.5c0-0.3,0.1-0.5,0.1-0.8c0-0.3-0.2-0.6-0.5-0.6c0-0.3,0-0.6,0-0.9c0-0.1,0-0.1,0-0.2
						c0.3,0,0.5-0.3,0.5-0.6c0-0.3,0-0.5-0.1-0.8c0-0.3-0.3-0.5-0.6-0.5c0-0.3-0.1-0.6-0.2-0.9l1.5-0.5c0.3,1.2,0.4,2.5,0.4,3.7
						C63.6,47.6,61.8,51.7,58.9,54.6z"/>
				</g>
				<g class="st3">
					<path d="M67.6,44.3c0-0.4,0-0.9,0-1.3c0-0.1,0-0.2,0-0.3c0.4-0.1,0.7-0.4,0.7-0.8c0-0.4,0-0.7-0.1-1.1c0-0.4-0.4-0.7-0.8-0.7
						c-0.1-0.5-0.2-1.1-0.3-1.6c0.4-0.1,0.6-0.6,0.5-1c-0.1-0.4-0.2-0.7-0.3-1.1c-0.1-0.4-0.6-0.6-1-0.5c-0.2-0.5-0.4-1-0.6-1.5
						c0,0,0,0,0,0c0.4-0.2,0.6-0.7,0.3-1.1c-0.1-0.2-0.2-0.4-0.3-0.6L61,34.4c0.5,0.8,1,1.6,1.3,2.5l-1.5,0.4
						c-0.1-0.2-0.2-0.4-0.3-0.6c0,0,0,0,0,0c0.3-0.1,0.4-0.5,0.2-0.8c-0.1-0.2-0.2-0.5-0.4-0.7c-0.2-0.3-0.5-0.4-0.8-0.2
						c0,0,0,0,0,0c0,0-0.1-0.1-0.1-0.1l-2.8,1.1c0.5,0.7,0.9,1.4,1.3,2.1l-1.1,0.3c0.2-0.1,0.2-0.3,0.1-0.5
						c-0.1-0.2-0.2-0.3-0.3-0.5c-0.1-0.2-0.4-0.3-0.6-0.1c0,0,0,0,0,0c-0.1-0.2-0.3-0.4-0.5-0.7c0,0,0,0,0,0
						c0.1-0.1,0.1-0.2,0.1-0.3l-2.4,0.9c0.5,0.5,1,1.1,1.3,1.8l-2.1,0.6c-0.3-0.6-0.8-1.2-1.3-1.6l-10.3,4l0.6,0.2
						c0,0.1,0,0.2,0,0.3c0,1.4,0.5,2.6,1.2,3.6l-1.6,1.9c-1.1-1.4-1.8-3.2-1.8-5.1c0-0.1,0-0.2,0-0.3l-1.8,0.7c0,0.3,0,0.5,0.1,0.8
						h0c-0.2,0-0.4,0.2-0.3,0.5c0,0.2,0.1,0.4,0.1,0.6c0,0.2,0.2,0.3,0.4,0.3c0,0,0.1,0,0.1,0h0c0.1,0.3,0.2,0.5,0.2,0.8l0,0
						c-0.2,0.1-0.3,0.3-0.2,0.5c0.1,0.2,0.1,0.3,0.2,0.5c0.1,0.1,0.2,0.2,0.4,0.2c0.1,0,0.1,0,0.2,0c0,0,0,0,0,0
						c0.1,0.2,0.3,0.5,0.4,0.7c0,0,0,0,0,0c-0.2,0.1-0.2,0.4-0.1,0.6c0.1,0.2,0.2,0.3,0.3,0.5c0.1,0.1,0.2,0.2,0.3,0.2
						c0.1,0,0.2,0,0.2-0.1c0,0,0,0,0,0c0.1,0.1,0.1,0.1,0.2,0.2l-1.1,1.3c-1.7-1.8-2.8-4.2-3-6.8l-2.9,1.1c0,0.1,0,0.1,0,0.2
						c0,0.3,0.1,0.5,0.2,0.8c0.1,0.3,0.3,0.4,0.6,0.4c0,0,0.1,0,0.1,0c0,0,0,0,0,0c0.1,0.4,0.2,0.7,0.3,1.1c0,0,0,0,0,0
						c-0.3,0.1-0.4,0.5-0.3,0.7c0.1,0.2,0.2,0.5,0.3,0.7c0.1,0.2,0.3,0.3,0.5,0.3c0.1,0,0.2,0,0.2-0.1c0,0,0,0,0,0
						c0.2,0.3,0.4,0.7,0.6,1c0,0,0,0,0,0c-0.3,0.2-0.3,0.5-0.1,0.8c0.1,0.2,0.3,0.4,0.5,0.6c0.1,0.1,0.3,0.2,0.5,0.2
						c0.1,0,0.2,0,0.3-0.1c0,0,0,0,0,0c0.2,0.3,0.5,0.5,0.7,0.8l-1.5,1.8c-2.3-2.3-4-5.4-4.5-8.8l-4,1.6c0,0,0,0.1,0,0.1
						c0.1,0.4,0.4,0.6,0.8,0.6c0.1,0,0.1,0,0.2,0c0,0,0,0,0,0c0.1,0.5,0.3,1,0.5,1.5c0,0,0,0,0,0c-0.4,0.2-0.6,0.6-0.4,1
						c0.1,0.3,0.3,0.7,0.4,1c0.1,0.3,0.4,0.5,0.7,0.5c0.1,0,0.2,0,0.3-0.1c0,0,0,0,0,0c0.2,0.5,0.5,0.9,0.8,1.4c0,0,0,0,0,0
						c-0.4,0.3-0.5,0.7-0.2,1.1c0.2,0.3,0.4,0.6,0.7,0.9c0.2,0.2,0.4,0.3,0.6,0.3c0.2,0,0.3-0.1,0.5-0.2c0,0,0,0,0,0
						c0.3,0.4,0.7,0.8,1.1,1.2l0,0c-0.3,0.3-0.3,0.8,0,1.1c0.3,0.3,0.6,0.5,0.8,0.7c0.1,0.1,0.3,0.2,0.5,0.2c0.2,0,0.5-0.1,0.6-0.3
						c0,0,0,0,0,0c0.4,0.3,0.9,0.6,1.3,0.9c0,0,0,0,0,0c-0.2,0.4-0.1,0.9,0.3,1.1c0.3,0.2,0.6,0.4,1,0.5c0.1,0.1,0.2,0.1,0.4,0.1
						c0.3,0,0.6-0.2,0.7-0.4c0,0,0,0,0,0c0.5,0.2,1,0.4,1.5,0.6c0,0,0,0,0,0c-0.1,0.4,0.1,0.9,0.5,1c0.4,0.1,0.7,0.2,1.1,0.3
						c0.1,0,0.1,0,0.2,0c0.4,0,0.7-0.2,0.8-0.6c0,0,0,0,0,0c0.5,0.1,1,0.2,1.6,0.3c0,0,0,0,0,0c0,0.4,0.3,0.8,0.7,0.9
						c0.4,0,0.7,0.1,1.1,0.1h0c0.4,0,0.8-0.3,0.8-0.8v0h0.2c0.5,0,0.9,0,1.4-0.1c0.1,0.4,0.4,0.7,0.8,0.7c0,0,0.1,0,0.1,0
						c0.4,0,0.7-0.1,1.1-0.2c0.4-0.1,0.7-0.5,0.7-0.9c0.5-0.1,1.1-0.2,1.6-0.4c0.1,0.3,0.4,0.5,0.7,0.5c0.1,0,0.2,0,0.2,0
						c0.4-0.1,0.7-0.2,1.1-0.4c0.4-0.2,0.6-0.6,0.5-1c0,0,0,0,0,0c0.5-0.2,1-0.5,1.4-0.7c0,0,0,0,0,0c0.1,0.3,0.4,0.4,0.7,0.4
						c0.1,0,0.3,0,0.4-0.1c0.3-0.2,0.6-0.4,1-0.6c0.4-0.2,0.5-0.7,0.2-1.1c0,0,0-0.1-0.1-0.1c0.4-0.3,0.9-0.7,1.3-1
						c0,0,0,0.1,0.1,0.1c0.2,0.2,0.4,0.3,0.6,0.3c0.2,0,0.4-0.1,0.6-0.2c0.3-0.3,0.5-0.5,0.8-0.8c0.3-0.3,0.3-0.8,0-1.1
						c0,0-0.1,0-0.1-0.1c0.4-0.4,0.7-0.8,1-1.3c0,0,0,0,0.1,0.1c0.1,0.1,0.3,0.1,0.4,0.1c0.3,0,0.5-0.1,0.7-0.4
						c0.2-0.3,0.4-0.6,0.6-1c0.2-0.4,0.1-0.9-0.3-1.1c0,0,0,0,0,0c0.3-0.5,0.5-1,0.7-1.4c0,0,0,0,0,0c0.1,0,0.2,0.1,0.3,0.1
						c0.3,0,0.6-0.2,0.8-0.5c0.1-0.3,0.3-0.7,0.4-1c0.1-0.4-0.1-0.9-0.5-1c0.1-0.5,0.3-1,0.4-1.6h0.1c0.4,0,0.7-0.3,0.8-0.7
						c0.1-0.4,0.1-0.7,0.1-1.1C68.3,44.7,68,44.3,67.6,44.3z M53.4,42.7c0-0.1,0-0.2,0-0.3l2.2-0.7c0.1,0.4,0.1,0.9,0.1,1.4
						c0,2-0.7,3.8-1.9,5.3l-1.7-2C53,45.3,53.4,44,53.4,42.7z M45,48c0.8,0.4,1.6,0.6,2.6,0.6c0.9,0,1.8-0.2,2.6-0.6l1.7,2.1
						c-1.2,0.7-2.6,1.1-4.2,1.1c-1.6,0-3-0.4-4.3-1.2L45,48z M42.3,51.3C42.3,51.3,42.3,51.3,42.3,51.3
						C42.3,51.3,42.3,51.3,42.3,51.3c-0.1,0.2,0,0.5,0.2,0.6c0.2,0.1,0.3,0.2,0.5,0.3c0.1,0,0.1,0,0.2,0c0.1,0,0.3-0.1,0.4-0.2v0
						c0.2,0.1,0.5,0.2,0.7,0.3v0c-0.1,0.2,0,0.4,0.3,0.5c0.2,0.1,0.4,0.1,0.5,0.2c0,0,0.1,0,0.1,0c0.2,0,0.3-0.1,0.4-0.3
						c0,0,0,0,0,0c0.3,0.1,0.5,0.1,0.8,0.1c0,0,0,0,0,0c0,0.2,0.1,0.4,0.4,0.4c0.2,0,0.4,0,0.6,0h0c0.2,0,0.4-0.2,0.4-0.4v0h0.1
						c0.2,0,0.5,0,0.7,0c0,0.2,0.2,0.3,0.4,0.3c0,0,0,0,0.1,0c0.2,0,0.4,0,0.6-0.1c0.2,0,0.4-0.2,0.3-0.4c0.3-0.1,0.5-0.1,0.8-0.2
						c0.1,0.2,0.2,0.3,0.4,0.3c0,0,0.1,0,0.1,0c0.2-0.1,0.4-0.1,0.5-0.2c0.2-0.1,0.3-0.3,0.2-0.5c0,0,0,0,0,0
						c0.3-0.1,0.5-0.2,0.7-0.4c0,0,0,0,0,0c0.1,0.1,0.2,0.2,0.4,0.2c0.1,0,0.1,0,0.2-0.1c0,0,0,0,0.1,0l0.7,0.8
						c-1.8,1.2-4,1.9-6.3,1.9c-2.4,0-4.6-0.7-6.4-2L42.3,51.3z M47.5,59.3c-3.5,0-6.7-1.1-9.3-3l1.4-1.8c0.1,0.1,0.3,0.2,0.4,0.3
						c0,0,0,0,0,0c-0.2,0.3-0.1,0.6,0.2,0.8c0.2,0.1,0.5,0.3,0.7,0.4c0.1,0,0.2,0.1,0.3,0.1c0.2,0,0.4-0.1,0.5-0.3c0,0,0,0,0,0
						c0.3,0.2,0.7,0.3,1.1,0.4c0,0,0,0,0,0c-0.1,0.3,0.1,0.6,0.4,0.7c0.3,0.1,0.5,0.2,0.8,0.2c0.1,0,0.1,0,0.1,0
						c0.3,0,0.5-0.2,0.6-0.4c0,0,0,0,0,0c0.4,0.1,0.7,0.2,1.1,0.2c0,0,0,0,0,0c0,0.3,0.2,0.6,0.5,0.6c0.3,0,0.5,0,0.8,0.1h0
						c0.3,0,0.6-0.2,0.6-0.5v0h0.1c0.3,0,0.7,0,1,0c0,0.3,0.3,0.5,0.6,0.5c0,0,0,0,0.1,0c0.3,0,0.5-0.1,0.8-0.1
						c0.3,0,0.5-0.3,0.5-0.6c0.4-0.1,0.8-0.2,1.1-0.3c0.1,0.2,0.3,0.4,0.5,0.4c0.1,0,0.1,0,0.2,0c0.3-0.1,0.5-0.2,0.7-0.3
						c0.3-0.1,0.4-0.4,0.3-0.7c0,0,0,0,0,0c0.4-0.2,0.7-0.3,1-0.5c0,0,0,0,0,0c0.1,0.2,0.3,0.3,0.5,0.3c0.1,0,0.2,0,0.3-0.1
						c0.2-0.1,0.4-0.2,0.6-0.3l0.9,1.1C54.2,58.2,51,59.3,47.5,59.3z M56,51l-0.6-0.8c0,0,0,0,0.1-0.1c0.2-0.2,0.1-0.4,0-0.6
						c0,0,0,0,0,0c0.2-0.2,0.3-0.4,0.5-0.6c0,0,0,0,0,0C56,49,56,49,56.1,49c0.1,0,0.3-0.1,0.3-0.2c0.1-0.2,0.2-0.3,0.3-0.5
						c0.1-0.2,0-0.4-0.1-0.6c0,0,0,0,0,0c0.1-0.2,0.3-0.5,0.4-0.7c0,0,0,0,0,0c0,0,0.1,0,0.1,0c0.2,0,0.3-0.1,0.4-0.3
						c0.1-0.2,0.1-0.4,0.2-0.5c0.1-0.2,0-0.4-0.2-0.5c0.1-0.3,0.1-0.5,0.2-0.8h0c0.2,0,0.4-0.1,0.4-0.3c0-0.2,0.1-0.4,0.1-0.6
						c0-0.2-0.1-0.4-0.3-0.4c0-0.2,0-0.4,0-0.7c0-0.1,0-0.1,0-0.2c0.2,0,0.4-0.2,0.3-0.4c0-0.2,0-0.4,0-0.6c0-0.2-0.2-0.4-0.4-0.4
						c0-0.1,0-0.2-0.1-0.3l1.2-0.3c0.2,0.8,0.3,1.6,0.3,2.4C59.1,46.2,57.9,48.9,56,51z M58.9,54.6l-0.8-1c0.2-0.1,0.3-0.3,0.5-0.5
						c0.2-0.2,0.2-0.6,0-0.8c0,0,0,0-0.1,0c0.3-0.3,0.5-0.6,0.7-0.9c0,0,0,0,0,0c0.1,0.1,0.2,0.1,0.3,0.1c0.2,0,0.4-0.1,0.5-0.3
						c0.1-0.2,0.3-0.4,0.4-0.7c0.2-0.3,0.1-0.6-0.2-0.8c0,0,0,0,0,0c0.2-0.3,0.4-0.7,0.5-1c0,0,0,0,0,0c0.1,0,0.1,0,0.2,0
						c0.2,0,0.5-0.1,0.5-0.4c0.1-0.3,0.2-0.5,0.3-0.7c0.1-0.3-0.1-0.6-0.3-0.7c0.1-0.4,0.2-0.7,0.3-1.1h0c0.3,0,0.5-0.2,0.6-0.5
						c0-0.3,0.1-0.5,0.1-0.8c0-0.3-0.2-0.6-0.5-0.6c0-0.3,0-0.6,0-0.9c0-0.1,0-0.1,0-0.2c0.3,0,0.5-0.3,0.5-0.6c0-0.3,0-0.5-0.1-0.8
						c0-0.3-0.3-0.5-0.6-0.5c0-0.3-0.1-0.6-0.2-0.9l1.5-0.5c0.3,1.2,0.4,2.5,0.4,3.7C63.6,47.6,61.8,51.7,58.9,54.6z"/>
				</g>
				<path class="st4" d="M54.8,60.1"/>
				<g>
					<g>
						<g>
							<path class="st5" d="M58.4,75c-1.4,0-2.7-0.8-3.2-2.1L44,42.3c-0.6-1.7,0.4-3.6,2.2-4.3c0.4-0.2,0.9-0.2,1.3-0.2
								c1.4,0,2.7,0.8,3.2,2.1l11.3,30.6c0.6,1.7-0.4,3.6-2.2,4.3C59.3,74.9,58.9,75,58.4,75z"/>
							<path class="st2" d="M47.5,38.6c1,0,2,0.6,2.3,1.5l11.3,30.6c0.5,1.3-0.3,2.7-1.7,3.2c-0.3,0.1-0.7,0.2-1,0.2
								c-1,0-2-0.6-2.3-1.5L44.9,42c-0.5-1.3,0.3-2.7,1.7-3.2C46.9,38.7,47.2,38.6,47.5,38.6 M47.5,36.9L47.5,36.9
								c-0.5,0-1.1,0.1-1.6,0.3c-2.3,0.8-3.5,3.3-2.7,5.4l11.3,30.6c0.6,1.6,2.2,2.7,4,2.7c0.5,0,1.1-0.1,1.6-0.3
								c2.3-0.8,3.5-3.3,2.7-5.4L51.5,39.5C50.9,37.9,49.4,36.9,47.5,36.9L47.5,36.9z"/>
						</g>
					</g>
					<g class="st3">
						<path d="M58.6,63.8l2.5,6.9c0.5,1.3-0.3,2.7-1.7,3.2s-2.9-0.1-3.3-1.3l-2.5-6.8L58.6,63.8z"/>
					</g>
				</g>
				<circle cx="47.6" cy="41.8" r="2.1"/>
			</g>
			<g>
				<g>
					<path class="st6" d="M45.5,78.3c-0.4,0-0.6-0.3-0.6-0.6v-7.5c0-0.4,0.3-0.6,0.6-0.6h27.3c0.4,0,0.6,0.3,0.6,0.6v7.5
						c0,0.4-0.3,0.6-0.6,0.6H45.5z"/>
					<g>
						<path class="st2" d="M72.8,70.2v7.5H45.5v-7.5H72.8 M72.8,68.9H45.5c-0.7,0-1.3,0.6-1.3,1.3v7.5c0,0.7,0.6,1.3,1.3,1.3h27.3
							c0.7,0,1.3-0.6,1.3-1.3v-7.5C74.1,69.5,73.5,68.9,72.8,68.9L72.8,68.9z"/>
					</g>
				</g>
				<g>
					<rect x="47.1" y="72.3" class="st7" width="4.8" height="3.2"/>
				</g>
				<g>
					<rect x="66.4" y="72.3" class="st8" width="4.8" height="3.2"/>
				</g>
			</g>
			<g>
				<path class="st5" d="M58.8,77.1c-1.3,0-2.4-0.8-2.8-2c-0.6-1.6,0.2-3.3,1.8-3.9c0.3-0.1,0.7-0.2,1-0.2c1.3,0,2.4,0.8,2.8,2
					c0.6,1.6-0.2,3.3-1.8,3.9C59.5,77,59.1,77.1,58.8,77.1z"/>
				<path class="st2" d="M58.8,72c0.9,0,1.7,0.5,2,1.4c0.4,1.1-0.2,2.3-1.3,2.7c-0.2,0.1-0.5,0.1-0.7,0.1c-0.9,0-1.7-0.5-2-1.4
					c-0.4-1.1,0.2-2.3,1.3-2.7C58.3,72,58.5,72,58.8,72 M58.8,70.2L58.8,70.2c-0.5,0-0.9,0.1-1.3,0.2c-1,0.4-1.7,1.1-2.2,2
					c-0.4,0.9-0.5,2-0.1,3c0.6,1.5,2,2.5,3.6,2.5c0.5,0,0.9-0.1,1.3-0.2c2-0.7,3-3,2.3-5C61.8,71.2,60.4,70.2,58.8,70.2L58.8,70.2z"
					/>
			</g>
		</g>
	</g>
	<g>
		<path class="st9" d="M83.5,96.4H16.2c-3.7,0-6.8-3.1-6.8-6.8L3.8,11c0-3.7,3.1-6.8,6.8-6.8h78.6c3.7,0,6.8,3.1,6.8,6.8l-5.7,78.6
			C90.3,93.4,87.2,96.4,83.5,96.4z"/>
	</g>
	<g class="st0">
		<path class="st10" d="M84.7,97.2H15.3c-3.9,0-7-3.2-7-7L2.4,9.8c0-3.9,3.2-7,7-7h81.1c3.9,0,7,3.2,7,7l-5.8,80.4
			C91.7,94.1,88.6,97.2,84.7,97.2z"/>
	</g>
	<path class="st11" d="M78,38.2l-13.2-1.3c-10.3-1-20.7,0.4-30.3,4.1l-16,6.2c-4.4,1.7-9.2-1.4-9.5-6L7.4,16
		c-0.3-4.6,3.3-8.4,7.9-8.4h73.5c2,0,3.6,1.7,3.5,3.7l-1,15.6C90.8,33.8,84.8,38.9,78,38.2z"/>
</g>
</svg>
