<?xml version="1.0" encoding="utf-8"?>
<!-- Generator: Adobe Illustrator 26.0.2, SVG Export Plug-In . SVG Version: 6.00 Build 0)  -->
<svg version="1.1" id="Layer_1" xmlns="http://www.w3.org/2000/svg" xmlns:xlink="http://www.w3.org/1999/xlink" x="0px" y="0px"
	 viewBox="0 0 100 100" style="enable-background:new 0 0 100 100;" xml:space="preserve">
<style type="text/css">
	.st0{enable-background:new    ;}
	.st1{fill:url(#SVGID_1_);}
	.st2{fill:#142C4D;}
	.st3{opacity:0.3;}
	.st4{fill:#FAAA4F;stroke:#142C4D;stroke-width:2;stroke-miterlimit:10;}
	.st5{fill:#FAAA4F;}
	.st6{fill:#5656C1;}
	.st7{fill:none;stroke:#00A7CD;stroke-width:4.8936;stroke-miterlimit:10;}
	.st8{fill:none;stroke:#FAFCFF;stroke-width:2.5862;stroke-miterlimit:10;}
	.st9{opacity:0.16;fill:#FFFFFF;}
</style>
<g>
	<g class="st0">
		<linearGradient id="SVGID_1_" gradientUnits="userSpaceOnUse" x1="49.8643" y1="102.277" x2="49.8643" y2="4.4622">
			<stop  offset="0.4735" style="stop-color:#A3DFED"/>
			<stop  offset="0.4794" style="stop-color:#5DD1E8"/>
		</linearGradient>
		<path class="st1" d="M84.1,97.2H15.6c-3.8,0-6.9-3.1-6.9-6.9l-5.8-80c0-3.8,3.1-6.9,6.9-6.9h80c3.8,0,6.9,3.1,6.9,6.9l-5.8,80
			C91,94.1,87.9,97.2,84.1,97.2z"/>
	</g>
	<g id="streetBike_00000096739386362706501740000016973721196114051237_">
		<g id="streetPedals_00000067213695369734994300000012953231066720569767_">
			<g>
				<path class="st2" d="M67.6,43.1c0-0.4,0-0.8,0-1.2c0-0.1,0-0.2,0-0.3c0.4-0.1,0.6-0.4,0.6-0.8c0-0.3,0-0.7-0.1-1
					c0-0.4-0.4-0.7-0.8-0.7c-0.1-0.5-0.2-1-0.3-1.5c0.4-0.1,0.6-0.5,0.5-0.9c-0.1-0.3-0.2-0.7-0.3-1c-0.1-0.4-0.5-0.6-0.9-0.5
					c-0.2-0.5-0.4-0.9-0.6-1.4c0,0,0,0,0,0c0.4-0.2,0.5-0.6,0.3-1c-0.2-0.3-0.3-0.6-0.5-0.9c-0.2-0.4-0.7-0.5-1-0.3c0,0,0,0-0.1,0
					c-0.3-0.4-0.6-0.8-0.9-1.2c0,0,0,0,0.1-0.1c0.3-0.3,0.4-0.7,0.1-1.1c-0.2-0.3-0.5-0.5-0.7-0.8c-0.3-0.3-0.8-0.3-1.1,0
					c0,0-0.1,0-0.1,0.1c-0.4-0.3-0.7-0.7-1.1-1c0,0,0,0,0.1-0.1c0.2-0.3,0.2-0.8-0.2-1.1c-0.3-0.2-0.6-0.4-0.9-0.6
					c-0.3-0.2-0.8-0.1-1,0.2c0,0,0,0,0,0.1c-0.4-0.3-0.9-0.5-1.3-0.7c0,0,0,0,0,0c0.2-0.4,0-0.8-0.4-1c-0.3-0.1-0.6-0.3-1-0.4
					c-0.4-0.1-0.8,0-1,0.4c-0.5-0.2-1-0.3-1.5-0.4c0.1-0.4-0.2-0.8-0.6-0.8c-0.3-0.1-0.7-0.1-1-0.2c-0.4-0.1-0.8,0.2-0.9,0.6
					c-0.5-0.1-1-0.1-1.5-0.1v0c0-0.4-0.3-0.8-0.8-0.8c-0.4,0-0.7,0-1,0c-0.4,0-0.7,0.4-0.7,0.8v0c-0.5,0-1,0.1-1.5,0.2c0,0,0,0,0,0
					c-0.1-0.4-0.5-0.7-0.9-0.6c-0.3,0.1-0.7,0.2-1,0.2c-0.4,0.1-0.6,0.5-0.5,0.9c0,0,0,0,0,0c-0.5,0.2-1,0.3-1.4,0.5c0,0,0,0,0,0
					c-0.2-0.4-0.6-0.5-1-0.4c-0.3,0.1-0.6,0.3-0.9,0.5c-0.4,0.2-0.5,0.7-0.3,1c0,0,0,0,0,0c-0.4,0.2-0.9,0.5-1.3,0.8c0,0,0,0,0,0
					c-0.2-0.3-0.7-0.4-1-0.1c-0.3,0.2-0.5,0.4-0.8,0.7c-0.3,0.3-0.4,0.7-0.1,1.1c0,0,0,0,0,0c-0.4,0.3-0.7,0.7-1.1,1.1c0,0,0,0,0,0
					c-0.3-0.3-0.8-0.2-1.1,0.1c-0.2,0.3-0.4,0.5-0.7,0.8c-0.2,0.3-0.2,0.8,0.1,1.1c0,0,0,0,0,0c-0.3,0.4-0.6,0.8-0.8,1.3
					c0,0,0,0,0,0c-0.4-0.2-0.8-0.1-1,0.3c-0.2,0.3-0.3,0.6-0.5,0.9c-0.2,0.4,0,0.8,0.4,1c0,0,0,0,0,0c-0.2,0.5-0.4,0.9-0.5,1.4
					c0,0,0,0,0,0c-0.4-0.1-0.8,0.1-0.9,0.5c-0.1,0.3-0.2,0.7-0.2,1c-0.1,0.4,0.2,0.8,0.6,0.9h0c-0.1,0.5-0.2,1-0.2,1.5h0
					c-0.4,0-0.8,0.3-0.8,0.7c0,0.3,0,0.7,0,1V42c0,0.4,0.3,0.8,0.8,0.8h0c0,0.5,0.1,1,0.1,1.5h0c-0.4,0.1-0.7,0.5-0.6,0.9
					c0.1,0.3,0.1,0.7,0.2,1c0.1,0.3,0.4,0.6,0.7,0.6c0.1,0,0.1,0,0.2,0c0,0,0,0,0,0c0.1,0.5,0.3,1,0.4,1.4c0,0,0,0,0,0
					c-0.4,0.2-0.6,0.6-0.4,1c0.1,0.3,0.3,0.6,0.4,1c0.1,0.3,0.4,0.4,0.7,0.4c0.1,0,0.2,0,0.3-0.1c0,0,0,0,0,0
					c0.2,0.4,0.5,0.9,0.7,1.3c0,0,0,0,0,0c-0.3,0.2-0.4,0.7-0.2,1c0.2,0.3,0.4,0.6,0.6,0.8c0.1,0.2,0.4,0.3,0.6,0.3
					c0.2,0,0.3-0.1,0.5-0.2c0,0,0,0,0,0c0.3,0.4,0.7,0.8,1,1.1l0,0c-0.3,0.3-0.3,0.8,0,1.1c0.3,0.2,0.5,0.5,0.8,0.7
					c0.1,0.1,0.3,0.2,0.5,0.2c0.2,0,0.4-0.1,0.6-0.3c0,0,0,0,0,0c0.4,0.3,0.8,0.6,1.2,0.9c0,0,0,0,0,0c-0.2,0.4-0.1,0.8,0.3,1
					c0.3,0.2,0.6,0.3,0.9,0.5c0.1,0.1,0.2,0.1,0.4,0.1c0.3,0,0.5-0.1,0.7-0.4c0,0,0,0,0,0c0.5,0.2,0.9,0.4,1.4,0.6c0,0,0,0,0,0
					c-0.1,0.4,0.1,0.8,0.5,1c0.3,0.1,0.7,0.2,1,0.3c0.1,0,0.1,0,0.2,0c0.3,0,0.6-0.2,0.7-0.5c0,0,0,0,0,0c0.5,0.1,1,0.2,1.5,0.3
					c0,0,0,0,0,0c0,0.4,0.3,0.8,0.7,0.8c0.3,0,0.7,0.1,1,0.1h0c0.4,0,0.7-0.3,0.8-0.7v0h0.2c0.4,0,0.9,0,1.3-0.1
					c0.1,0.4,0.4,0.6,0.7,0.6c0,0,0.1,0,0.1,0c0.3,0,0.7-0.1,1-0.1c0.4-0.1,0.7-0.4,0.6-0.8c0.5-0.1,1-0.2,1.5-0.4
					c0.1,0.3,0.4,0.5,0.7,0.5c0.1,0,0.2,0,0.2,0c0.3-0.1,0.7-0.2,1-0.3c0.4-0.1,0.6-0.6,0.4-1c0,0,0,0,0,0c0.5-0.2,0.9-0.4,1.3-0.7
					c0,0,0,0,0,0c0.1,0.2,0.4,0.4,0.6,0.4c0.1,0,0.3,0,0.4-0.1c0.3-0.2,0.6-0.4,0.9-0.6c0.3-0.2,0.4-0.7,0.2-1c0,0,0,0-0.1-0.1
					c0.4-0.3,0.8-0.6,1.2-0.9c0,0,0,0.1,0.1,0.1c0.1,0.2,0.3,0.2,0.5,0.2c0.2,0,0.4-0.1,0.5-0.2c0.3-0.2,0.5-0.5,0.7-0.7
					c0.3-0.3,0.3-0.8,0-1.1c0,0,0,0-0.1-0.1c0.3-0.4,0.6-0.8,0.9-1.2c0,0,0,0,0.1,0.1c0.1,0.1,0.3,0.1,0.4,0.1
					c0.2,0,0.5-0.1,0.6-0.3c0.2-0.3,0.4-0.6,0.5-0.9c0.2-0.4,0.1-0.8-0.3-1c0,0,0,0,0,0c0.2-0.4,0.5-0.9,0.7-1.3c0,0,0,0,0,0
					c0.1,0,0.2,0,0.3,0c0.3,0,0.6-0.2,0.7-0.5c0.1-0.3,0.2-0.6,0.3-1c0.1-0.4-0.1-0.8-0.5-0.9c0.1-0.5,0.3-1,0.4-1.5h0
					c0.4,0,0.7-0.3,0.7-0.6c0.1-0.3,0.1-0.7,0.1-1C68.2,43.6,67.9,43.2,67.6,43.1z M50.1,27.2c5.7,0.5,10.4,4.1,12.6,9.1l-1.4,0.4
					c-0.1-0.2-0.2-0.4-0.3-0.6c0,0,0,0,0,0c0.3-0.1,0.4-0.5,0.2-0.7c-0.1-0.2-0.2-0.4-0.4-0.7c-0.1-0.3-0.5-0.3-0.7-0.2c0,0,0,0,0,0
					c-0.2-0.3-0.4-0.6-0.6-0.9c0,0,0,0,0.1,0c0.2-0.2,0.2-0.5,0.1-0.8c-0.2-0.2-0.3-0.4-0.5-0.6c-0.2-0.2-0.5-0.2-0.8,0
					c0,0,0,0-0.1,0.1c-0.3-0.2-0.5-0.5-0.8-0.7c0,0,0,0,0,0c0.2-0.2,0.1-0.6-0.1-0.8c-0.2-0.1-0.4-0.3-0.6-0.4
					c-0.2-0.2-0.6-0.1-0.7,0.2c0,0,0,0,0,0c-0.3-0.2-0.6-0.4-0.9-0.5c0,0,0,0,0,0c0.1-0.3,0-0.6-0.3-0.7c-0.2-0.1-0.5-0.2-0.7-0.3
					c-0.3-0.1-0.6,0-0.7,0.3c-0.3-0.1-0.7-0.2-1-0.3c0-0.3-0.1-0.5-0.4-0.6c-0.2,0-0.5-0.1-0.7-0.1c-0.3,0-0.5,0.1-0.6,0.4
					c-0.2,0-0.4,0-0.6-0.1V27.2z M50.1,31.4c3.8,0.4,6.9,2.8,8.5,6l-1,0.3c0.2-0.1,0.2-0.3,0.1-0.5c-0.1-0.2-0.2-0.3-0.2-0.5
					c-0.1-0.2-0.3-0.2-0.5-0.1c0,0,0,0,0,0c-0.1-0.2-0.3-0.4-0.4-0.6c0,0,0,0,0,0c0.2-0.1,0.2-0.4,0.1-0.5c-0.1-0.1-0.2-0.3-0.4-0.4
					c-0.1-0.2-0.4-0.2-0.5,0c0,0,0,0,0,0c-0.2-0.2-0.4-0.3-0.6-0.5c0,0,0,0,0,0c0.1-0.2,0.1-0.4-0.1-0.5c-0.1-0.1-0.3-0.2-0.4-0.3
					c-0.2-0.1-0.4-0.1-0.5,0.1c0,0,0,0,0,0c-0.2-0.1-0.4-0.3-0.7-0.4c0,0,0,0,0,0c0.1-0.2,0-0.4-0.2-0.5c-0.2-0.1-0.3-0.1-0.5-0.2
					c-0.2-0.1-0.4,0-0.5,0.2c-0.2-0.1-0.5-0.2-0.7-0.2c0-0.2-0.1-0.4-0.3-0.4c-0.2,0-0.3-0.1-0.5-0.1c-0.2,0-0.4,0.1-0.4,0.3
					c0,0-0.1,0-0.1,0V31.4z M38.4,39.9l1.4,0.4c0,0.2-0.1,0.5-0.1,0.7h0c-0.2,0-0.4,0.1-0.4,0.4c0,0.2,0,0.4,0,0.5v0
					c0,0.2,0.2,0.4,0.4,0.4h0c0,0.3,0,0.5,0.1,0.8h0c-0.2,0-0.3,0.2-0.3,0.4c0,0.2,0.1,0.3,0.1,0.5c0,0.2,0.2,0.3,0.4,0.3
					c0,0,0.1,0,0.1,0h0c0.1,0.2,0.1,0.5,0.2,0.7l0,0c-0.2,0.1-0.3,0.3-0.2,0.5c0.1,0.2,0.1,0.3,0.2,0.5c0.1,0.1,0.2,0.2,0.3,0.2
					c0.1,0,0.1,0,0.2,0c0,0,0,0,0,0c0.1,0.2,0.2,0.4,0.4,0.7c0,0,0,0,0,0C41,47,40.9,47.2,41,47.4c0.1,0.1,0.2,0.3,0.3,0.4
					c0.1,0.1,0.2,0.2,0.3,0.2c0.1,0,0.2,0,0.2-0.1c0,0,0,0,0,0C41.9,48,42,48,42,48.1l-1,1.3c-1.8-1.9-2.8-4.5-2.8-7.3
					C38.2,41.3,38.3,40.6,38.4,39.9z M44.1,39l-1.8-0.5c1.1-2,3-3.5,5.3-3.9v1.7C46.1,36.7,44.8,37.6,44.1,39z M41.5,40.8l1.9,0.6
					c0,0.1,0,0.2,0,0.3c0,1.3,0.4,2.4,1.2,3.4l-1.5,1.8c-1.1-1.3-1.7-3-1.7-4.8C41.4,41.6,41.4,41.2,41.5,40.8z M47.4,32.7
					C47.4,32.7,47.4,32.7,47.4,32.7c0-0.2-0.2-0.3-0.5-0.3c-0.2,0-0.3,0.1-0.5,0.1c-0.2,0.1-0.3,0.3-0.3,0.5v0
					c-0.2,0.1-0.5,0.2-0.7,0.3c0,0,0,0,0,0c-0.1-0.2-0.3-0.3-0.5-0.2c-0.2,0.1-0.3,0.2-0.5,0.2c-0.2,0.1-0.3,0.3-0.2,0.5
					c0,0,0,0,0,0c-0.2,0.1-0.4,0.3-0.6,0.4c0,0,0,0,0,0c-0.1-0.2-0.4-0.2-0.5-0.1c-0.1,0.1-0.3,0.2-0.4,0.3c-0.2,0.1-0.2,0.4,0,0.5
					c0,0,0,0,0,0c-0.2,0.2-0.4,0.4-0.5,0.5c0,0,0,0,0,0c-0.2-0.1-0.4-0.1-0.5,0c-0.1,0.1-0.2,0.3-0.3,0.4c-0.1,0.2-0.1,0.4,0.1,0.5
					c0,0,0,0,0,0c-0.1,0.2-0.3,0.4-0.4,0.6c0,0,0,0,0,0c-0.2-0.1-0.4,0-0.5,0.2c-0.1,0.2-0.2,0.3-0.2,0.5v0l-1-0.3
					c1.5-3.3,4.7-5.6,8.4-6.1v1.2C47.6,32.7,47.5,32.7,47.4,32.7z M43.9,49.7C43.9,49.7,43.9,49.7,43.9,49.7
					C44,49.7,44,49.7,43.9,49.7c-0.1,0.2,0,0.4,0.2,0.5c0.1,0.1,0.3,0.2,0.5,0.3c0.1,0,0.1,0,0.2,0c0.1,0,0.3-0.1,0.3-0.2v0
					c0.2,0.1,0.5,0.2,0.7,0.3v0c-0.1,0.2,0,0.4,0.2,0.5c0.2,0.1,0.3,0.1,0.5,0.2c0,0,0.1,0,0.1,0c0.2,0,0.3-0.1,0.4-0.3c0,0,0,0,0,0
					c0.2,0.1,0.5,0.1,0.8,0.1c0,0,0,0,0,0c0,0.2,0.1,0.4,0.3,0.4c0.2,0,0.3,0,0.5,0h0c0.2,0,0.4-0.2,0.4-0.4v0h0.1
					c0.2,0,0.4,0,0.7,0c0,0.2,0.2,0.3,0.4,0.3c0,0,0,0,0,0c0.2,0,0.3,0,0.5-0.1c0.2,0,0.3-0.2,0.3-0.4c0.2-0.1,0.5-0.1,0.7-0.2
					c0.1,0.2,0.2,0.2,0.4,0.2c0,0,0.1,0,0.1,0c0.2-0.1,0.3-0.1,0.5-0.2c0.2-0.1,0.3-0.3,0.2-0.5c0,0,0,0,0,0
					c0.2-0.1,0.5-0.2,0.7-0.3c0,0,0,0,0,0c0.1,0.1,0.2,0.2,0.3,0.2c0.1,0,0.1,0,0.2-0.1c0,0,0,0,0.1,0l0.6,0.8
					c-1.7,1.1-3.7,1.8-5.9,1.8c-2.2,0-4.3-0.7-6-1.8L43.9,49.7z M54.7,46.9L53.2,45c0.7-0.9,1.2-2.1,1.2-3.4c0-0.1,0-0.2,0-0.3
					l2.1-0.6c0.1,0.4,0.1,0.9,0.1,1.3C56.5,43.9,55.9,45.6,54.7,46.9z M50.1,34.5c2.4,0.4,4.4,1.8,5.5,3.8l-2,0.6
					c-0.7-1.3-2-2.3-3.5-2.6V34.5z M51.3,46.6l1.6,1.9c-1.1,0.7-2.5,1.1-3.9,1.1c-1.5,0-2.8-0.4-4-1.1l1.5-1.9
					c0.7,0.4,1.5,0.6,2.4,0.6S50.5,47,51.3,46.6z M47.6,27.2v1.6c-0.3,0-0.6,0.1-0.8,0.1c0,0,0,0,0,0c-0.1-0.3-0.4-0.5-0.6-0.4
					c-0.2,0.1-0.5,0.1-0.7,0.2C45.1,28.7,45,29,45,29.3c0,0,0,0,0,0c-0.3,0.1-0.7,0.2-1,0.4c0,0,0,0,0,0c-0.1-0.3-0.4-0.4-0.7-0.3
					c-0.2,0.1-0.5,0.2-0.7,0.3c-0.3,0.1-0.4,0.5-0.2,0.7c0,0,0,0,0,0c-0.3,0.2-0.6,0.4-0.9,0.6c0,0,0,0,0,0
					c-0.2-0.2-0.5-0.3-0.8-0.1c-0.2,0.1-0.4,0.3-0.6,0.5c-0.2,0.2-0.2,0.5-0.1,0.8c0,0,0,0,0,0c-0.3,0.2-0.5,0.5-0.8,0.8
					c0,0,0,0,0,0c-0.2-0.2-0.6-0.2-0.8,0.1c-0.2,0.2-0.3,0.4-0.5,0.6c-0.2,0.2-0.1,0.6,0.1,0.8c0,0,0,0,0,0
					c-0.2,0.3-0.4,0.6-0.6,0.9c0,0,0,0,0,0c-0.3-0.1-0.6,0-0.7,0.2c-0.1,0.2-0.2,0.4-0.3,0.7c-0.1,0.2,0,0.5,0.2,0.7l-1.8-0.5
					C37.2,31.3,42,27.7,47.6,27.2z M38.3,52.8c-2.7-2.7-4.4-6.5-4.4-10.6c0-1.2,0.1-2.4,0.4-3.5l1.4,0.4c0,0.2,0.2,0.5,0.4,0.5h0
					c-0.1,0.4-0.1,0.7-0.1,1.1h0c-0.3,0-0.6,0.2-0.6,0.5c0,0.2,0,0.5,0,0.7V42c0,0.3,0.2,0.5,0.5,0.5h0c0,0.4,0,0.7,0.1,1.1h0
					c-0.3,0-0.5,0.3-0.4,0.6c0,0.2,0.1,0.5,0.1,0.7c0,0.2,0.3,0.4,0.5,0.4c0,0,0.1,0,0.1,0c0,0,0,0,0,0c0.1,0.3,0.2,0.7,0.3,1
					c0,0,0,0,0,0c-0.3,0.1-0.4,0.4-0.3,0.7c0.1,0.2,0.2,0.5,0.3,0.7c0.1,0.2,0.3,0.3,0.5,0.3c0.1,0,0.2,0,0.2-0.1c0,0,0,0,0,0
					c0.2,0.3,0.3,0.6,0.5,0.9c0,0,0,0,0,0c-0.2,0.2-0.3,0.5-0.1,0.7c0.1,0.2,0.3,0.4,0.4,0.6c0.1,0.1,0.3,0.2,0.4,0.2
					c0.1,0,0.2,0,0.3-0.1c0,0,0,0,0,0c0.2,0.3,0.4,0.5,0.7,0.7L38.3,52.8z M48.9,57.2c-3.2,0-6.2-1-8.7-2.8l1.3-1.7
					c0.1,0.1,0.2,0.2,0.4,0.2c0,0,0,0,0,0c-0.1,0.3-0.1,0.6,0.2,0.7c0.2,0.1,0.4,0.2,0.6,0.4c0.1,0,0.2,0.1,0.2,0.1
					c0.2,0,0.4-0.1,0.5-0.3c0,0,0,0,0,0c0.3,0.1,0.7,0.3,1,0.4c0,0,0,0,0,0c-0.1,0.3,0.1,0.6,0.3,0.7c0.2,0.1,0.5,0.2,0.7,0.2
					c0,0,0.1,0,0.1,0c0.2,0,0.5-0.2,0.5-0.4c0,0,0,0,0,0c0.3,0.1,0.7,0.2,1.1,0.2c0,0,0,0,0,0c0,0.3,0.2,0.6,0.5,0.6
					c0.2,0,0.5,0,0.7,0.1h0c0.3,0,0.5-0.2,0.5-0.5v0h0.1c0.3,0,0.6,0,0.9,0c0,0.3,0.3,0.5,0.5,0.5c0,0,0,0,0.1,0
					c0.2,0,0.5-0.1,0.7-0.1c0.3,0,0.5-0.3,0.4-0.6c0.4-0.1,0.7-0.2,1-0.3c0.1,0.2,0.3,0.4,0.5,0.4c0.1,0,0.1,0,0.2,0
					c0.2-0.1,0.5-0.2,0.7-0.2c0.3-0.1,0.4-0.4,0.3-0.7c0,0,0,0,0,0c0.3-0.1,0.6-0.3,1-0.5c0,0,0,0,0,0c0.1,0.2,0.3,0.3,0.5,0.3
					c0.1,0,0.2,0,0.3-0.1c0.2-0.1,0.4-0.2,0.5-0.3l0.8,1C55.1,56.1,52.1,57.2,48.9,57.2z M56.7,49.4l-0.6-0.7c0,0,0,0,0-0.1
					c0.1-0.2,0.1-0.4,0-0.5c0,0,0,0,0,0c0.2-0.2,0.3-0.4,0.5-0.6c0,0,0,0,0,0c0.1,0,0.1,0.1,0.2,0.1c0.1,0,0.2-0.1,0.3-0.2
					c0.1-0.1,0.2-0.3,0.3-0.4c0.1-0.2,0-0.4-0.1-0.5c0,0,0,0,0,0c0.1-0.2,0.2-0.4,0.3-0.7c0,0,0,0,0,0c0,0,0.1,0,0.1,0
					c0.1,0,0.3-0.1,0.4-0.2c0.1-0.2,0.1-0.3,0.2-0.5c0.1-0.2,0-0.4-0.2-0.5c0.1-0.2,0.1-0.5,0.2-0.7h0c0.2,0,0.3-0.1,0.4-0.3
					c0-0.2,0-0.4,0.1-0.5c0-0.2-0.1-0.4-0.3-0.4c0-0.2,0-0.4,0-0.6c0,0,0-0.1,0-0.2c0.2,0,0.3-0.2,0.3-0.4c0-0.2,0-0.3,0-0.5
					c0-0.2-0.2-0.3-0.4-0.3c0-0.1,0-0.2-0.1-0.3l1.1-0.3c0.2,0.7,0.2,1.5,0.2,2.2C59.6,44.9,58.5,47.5,56.7,49.4z M59.5,52.8
					l-0.8-0.9c0.2-0.1,0.3-0.3,0.4-0.4c0.2-0.2,0.2-0.6,0-0.8c0,0,0,0,0,0c0.2-0.3,0.5-0.5,0.7-0.8c0,0,0,0,0,0
					c0.1,0.1,0.2,0.1,0.3,0.1c0.2,0,0.3-0.1,0.5-0.2c0.1-0.2,0.3-0.4,0.4-0.6c0.1-0.2,0.1-0.6-0.2-0.7c0,0,0,0,0,0
					c0.2-0.3,0.3-0.6,0.5-1c0,0,0,0,0,0c0.1,0,0.1,0,0.2,0c0.2,0,0.4-0.1,0.5-0.4c0.1-0.2,0.2-0.5,0.2-0.7c0.1-0.3-0.1-0.6-0.3-0.7
					c0.1-0.3,0.2-0.7,0.3-1.1h0c0.3,0,0.5-0.2,0.5-0.5c0-0.2,0.1-0.5,0.1-0.7c0-0.3-0.2-0.5-0.4-0.6c0-0.3,0-0.6,0-0.9
					c0-0.1,0-0.1,0-0.2c0.3,0,0.5-0.3,0.5-0.6c0-0.2,0-0.5-0.1-0.7c0-0.3-0.3-0.5-0.5-0.5c0-0.3-0.1-0.6-0.2-0.8l1.4-0.4
					c0.3,1.1,0.4,2.3,0.4,3.5C63.9,46.3,62.2,50.1,59.5,52.8z"/>
			</g>
			<g class="st3">
				<path d="M67.6,43.1c0-0.4,0-0.8,0-1.2c0-0.1,0-0.2,0-0.3c0.4-0.1,0.6-0.4,0.6-0.8c0-0.3,0-0.7-0.1-1c0-0.4-0.4-0.7-0.8-0.7
					c-0.1-0.5-0.2-1-0.3-1.5c0.4-0.1,0.6-0.5,0.5-0.9c-0.1-0.3-0.2-0.7-0.3-1c-0.1-0.4-0.5-0.6-0.9-0.5c-0.2-0.5-0.4-0.9-0.6-1.4
					c0,0,0,0,0,0c0.4-0.2,0.5-0.6,0.3-1c-0.1-0.2-0.2-0.4-0.3-0.6L61.4,34c0.5,0.7,0.9,1.5,1.3,2.3l-1.4,0.4
					c-0.1-0.2-0.2-0.4-0.3-0.6c0,0,0,0,0,0c0.3-0.1,0.4-0.5,0.2-0.7c-0.1-0.2-0.2-0.4-0.4-0.7c-0.1-0.3-0.5-0.3-0.7-0.2c0,0,0,0,0,0
					c0,0-0.1-0.1-0.1-0.1l-2.6,1c0.5,0.6,0.9,1.3,1.2,2l-1,0.3c0.2-0.1,0.2-0.3,0.1-0.5c-0.1-0.2-0.2-0.3-0.2-0.5
					c-0.1-0.2-0.3-0.2-0.5-0.1c0,0,0,0,0,0c-0.1-0.2-0.3-0.4-0.4-0.6c0,0,0,0,0,0c0.1-0.1,0.1-0.2,0.1-0.3l-2.3,0.9
					c0.5,0.5,0.9,1.1,1.3,1.7l-2,0.6c-0.3-0.6-0.7-1.1-1.2-1.5l-9.6,3.7l0.6,0.2c0,0.1,0,0.2,0,0.3c0,1.3,0.4,2.4,1.2,3.4l-1.5,1.8
					c-1.1-1.3-1.7-3-1.7-4.8c0-0.1,0-0.2,0-0.3l-1.6,0.6c0,0.2,0,0.5,0.1,0.7h0c-0.2,0-0.3,0.2-0.3,0.4c0,0.2,0.1,0.4,0.1,0.5
					c0,0.2,0.2,0.3,0.4,0.3c0,0,0.1,0,0.1,0h0c0.1,0.2,0.1,0.5,0.2,0.7l0,0c-0.2,0.1-0.3,0.3-0.2,0.5c0.1,0.2,0.1,0.3,0.2,0.5
					c0.1,0.1,0.2,0.2,0.3,0.2c0.1,0,0.1,0,0.2,0c0,0,0,0,0,0c0.1,0.2,0.2,0.4,0.4,0.7c0,0,0,0,0,0C41,47,40.9,47.2,41,47.4
					c0.1,0.1,0.2,0.3,0.3,0.4c0.1,0.1,0.2,0.1,0.3,0.1c0.1,0,0.2,0,0.2-0.1c0,0,0,0,0,0C41.9,48,42,48,42,48.1l-1,1.3
					c-1.6-1.7-2.6-3.9-2.8-6.4l-2.7,1c0,0.1,0,0.1,0,0.2c0,0.2,0.1,0.5,0.1,0.7c0.1,0.2,0.3,0.4,0.5,0.4c0,0,0.1,0,0.1,0
					c0,0,0,0,0,0c0.1,0.4,0.2,0.7,0.3,1c0,0,0,0,0,0c-0.3,0.1-0.4,0.4-0.3,0.7c0.1,0.2,0.2,0.5,0.3,0.7c0.1,0.2,0.3,0.3,0.5,0.3
					c0.1,0,0.2,0,0.2,0c0,0,0,0,0,0c0.2,0.3,0.3,0.6,0.5,0.9c0,0,0,0,0,0c-0.2,0.2-0.3,0.5-0.1,0.7c0.1,0.2,0.3,0.4,0.4,0.6
					c0.1,0.1,0.3,0.2,0.4,0.2c0.1,0,0.2,0,0.3-0.1c0,0,0,0,0,0c0.2,0.3,0.4,0.5,0.7,0.7l-1.4,1.7c-2.2-2.2-3.7-5-4.2-8.2L30.3,46
					c0,0,0,0.1,0,0.1c0.1,0.3,0.4,0.6,0.7,0.6c0.1,0,0.1,0,0.2,0c0,0,0,0,0,0c0.1,0.5,0.3,1,0.4,1.4c0,0,0,0,0,0
					c-0.4,0.2-0.6,0.6-0.4,1c0.1,0.3,0.3,0.6,0.4,1c0.1,0.3,0.4,0.4,0.7,0.4c0.1,0,0.2,0,0.3-0.1c0,0,0,0,0,0
					c0.2,0.4,0.5,0.9,0.7,1.3c0,0,0,0,0,0c-0.3,0.2-0.4,0.7-0.2,1c0.2,0.3,0.4,0.6,0.6,0.8c0.1,0.2,0.4,0.3,0.6,0.3
					c0.2,0,0.3,0,0.5-0.2c0,0,0,0,0,0c0.3,0.4,0.7,0.8,1,1.1l0,0c-0.3,0.3-0.3,0.8,0,1.1c0.3,0.2,0.5,0.5,0.8,0.7
					c0.1,0.1,0.3,0.2,0.5,0.2c0.2,0,0.4-0.1,0.6-0.3c0,0,0,0,0,0c0.4,0.3,0.8,0.6,1.2,0.9c0,0,0,0,0,0c-0.2,0.4-0.1,0.8,0.3,1
					c0.3,0.2,0.6,0.4,0.9,0.5c0.1,0.1,0.2,0.1,0.4,0.1c0.3,0,0.5-0.1,0.7-0.4c0,0,0,0,0,0c0.5,0.2,0.9,0.4,1.4,0.6c0,0,0,0,0,0
					c-0.1,0.4,0.1,0.8,0.5,1c0.3,0.1,0.7,0.2,1,0.3c0.1,0,0.1,0,0.2,0c0.3,0,0.6-0.2,0.7-0.5c0,0,0,0,0,0c0.5,0.1,1,0.2,1.5,0.3
					c0,0,0,0,0,0c0,0.4,0.3,0.8,0.7,0.8c0.3,0,0.7,0.1,1,0.1h0c0.4,0,0.7-0.3,0.8-0.7v0h0.2c0.4,0,0.9,0,1.3,0
					c0.1,0.4,0.4,0.6,0.7,0.6c0,0,0.1,0,0.1,0c0.3,0,0.7-0.1,1-0.1c0.4-0.1,0.7-0.4,0.6-0.8c0.5-0.1,1-0.2,1.5-0.4
					c0.1,0.3,0.4,0.5,0.7,0.5c0.1,0,0.2,0,0.2,0c0.3-0.1,0.7-0.2,1-0.3c0.4-0.1,0.6-0.6,0.4-1c0,0,0,0,0,0c0.5-0.2,0.9-0.4,1.3-0.7
					c0,0,0,0,0,0c0.1,0.2,0.4,0.4,0.7,0.4c0.1,0,0.3,0,0.4-0.1c0.3-0.2,0.6-0.4,0.9-0.6c0.3-0.2,0.4-0.7,0.2-1c0,0,0,0-0.1-0.1
					c0.4-0.3,0.8-0.6,1.2-0.9c0,0,0,0.1,0.1,0.1c0.1,0.2,0.3,0.2,0.5,0.2c0.2,0,0.4-0.1,0.5-0.2c0.3-0.2,0.5-0.5,0.7-0.7
					c0.3-0.3,0.3-0.8,0-1.1c0,0,0,0-0.1-0.1c0.3-0.4,0.6-0.8,0.9-1.2c0,0,0,0,0.1,0.1c0.1,0.1,0.3,0.1,0.4,0.1
					c0.2,0,0.5-0.1,0.6-0.3c0.2-0.3,0.4-0.6,0.5-0.9c0.2-0.4,0.1-0.8-0.3-1c0,0,0,0,0,0c0.2-0.4,0.5-0.9,0.7-1.3c0,0,0,0,0,0
					c0.1,0,0.2,0.1,0.3,0.1c0.3,0,0.6-0.2,0.7-0.5c0.1-0.3,0.2-0.6,0.3-1c0.1-0.4-0.1-0.8-0.5-0.9c0.1-0.5,0.3-1,0.4-1.5h0
					c0.4,0,0.7-0.3,0.7-0.6c0.1-0.3,0.1-0.7,0.1-1C68.2,43.6,67.9,43.2,67.6,43.1z M54.4,41.7c0-0.1,0-0.2,0-0.3l2.1-0.6
					c0.1,0.4,0.1,0.9,0.1,1.3c0,1.9-0.7,3.6-1.8,4.9L53.2,45C53.9,44.1,54.4,42.9,54.4,41.7z M46.5,46.6c0.7,0.4,1.5,0.5,2.4,0.5
					s1.7-0.2,2.4-0.5l1.6,1.9c-1.1,0.7-2.5,1.1-3.9,1.1c-1.5,0-2.8-0.4-4-1.1L46.5,46.6z M43.9,49.7C43.9,49.7,43.9,49.7,43.9,49.7
					C44,49.7,44,49.7,43.9,49.7c-0.1,0.2,0,0.4,0.2,0.5c0.2,0.1,0.3,0.2,0.5,0.3c0.1,0,0.1,0,0.2,0c0.1,0,0.3-0.1,0.3-0.2v0
					c0.2,0.1,0.5,0.2,0.7,0.3v0c-0.1,0.2,0,0.4,0.2,0.5c0.2,0.1,0.3,0.1,0.5,0.2c0,0,0.1,0,0.1,0c0.2,0,0.3-0.1,0.4-0.3c0,0,0,0,0,0
					c0.2,0.1,0.5,0.1,0.8,0.1c0,0,0,0,0,0c0,0.2,0.1,0.4,0.3,0.4c0.2,0,0.3,0,0.5,0h0c0.2,0,0.4-0.2,0.4-0.4v0h0.1
					c0.2,0,0.4,0,0.7,0c0,0.2,0.2,0.3,0.4,0.3c0,0,0,0,0,0c0.2,0,0.3,0,0.5-0.1c0.2,0,0.3-0.2,0.3-0.4c0.2,0,0.5-0.1,0.7-0.2
					c0.1,0.2,0.2,0.2,0.4,0.2c0,0,0.1,0,0.1,0c0.2-0.1,0.3-0.1,0.5-0.2c0.2-0.1,0.3-0.3,0.2-0.5c0,0,0,0,0,0
					c0.2-0.1,0.5-0.2,0.7-0.3c0,0,0,0,0,0c0.1,0.1,0.2,0.2,0.3,0.2c0.1,0,0.1,0,0.2-0.1c0,0,0,0,0.1,0l0.6,0.8
					c-1.7,1.1-3.7,1.8-5.9,1.8c-2.2,0-4.3-0.7-6-1.8L43.9,49.7z M48.9,57.2c-3.2,0-6.2-1-8.7-2.8l1.3-1.7c0.1,0.1,0.2,0.2,0.4,0.2
					c0,0,0,0,0,0c-0.2,0.3-0.1,0.6,0.2,0.7c0.2,0.1,0.4,0.2,0.7,0.4c0.1,0,0.2,0.1,0.2,0.1c0.2,0,0.4-0.1,0.5-0.3c0,0,0,0,0,0
					c0.3,0.2,0.7,0.3,1,0.4c0,0,0,0,0,0c-0.1,0.3,0.1,0.6,0.3,0.7c0.2,0.1,0.5,0.1,0.7,0.2c0.1,0,0.1,0,0.1,0c0.2,0,0.5-0.2,0.5-0.4
					c0,0,0,0,0,0c0.3,0.1,0.7,0.1,1.1,0.2c0,0,0,0,0,0c0,0.3,0.2,0.6,0.5,0.6c0.2,0,0.5,0,0.7,0.1h0c0.3,0,0.5-0.2,0.5-0.5v0h0.1
					c0.3,0,0.6,0,0.9,0c0,0.3,0.3,0.5,0.5,0.5c0,0,0,0,0.1,0c0.2,0,0.5-0.1,0.7-0.1c0.3,0,0.5-0.3,0.4-0.6c0.3-0.1,0.7-0.2,1.1-0.3
					c0.1,0.2,0.3,0.4,0.5,0.4c0.1,0,0.1,0,0.2,0c0.2-0.1,0.5-0.2,0.7-0.2c0.3-0.1,0.4-0.4,0.3-0.7c0,0,0,0,0,0
					c0.3-0.1,0.6-0.3,1-0.5c0,0,0,0,0,0c0.1,0.2,0.3,0.3,0.5,0.3c0.1,0,0.2,0,0.3-0.1c0.2-0.1,0.3-0.2,0.5-0.3l0.8,1
					C55.1,56.1,52.1,57.2,48.9,57.2z M56.7,49.4l-0.6-0.7c0,0,0,0,0.1,0c0.1-0.2,0.1-0.4,0-0.5c0,0,0,0,0,0c0.2-0.2,0.3-0.4,0.5-0.6
					c0,0,0,0,0,0c0.1,0,0.1,0.1,0.2,0.1c0.1,0,0.2-0.1,0.3-0.2c0.1-0.1,0.2-0.3,0.3-0.4c0.1-0.2,0-0.4-0.1-0.5c0,0,0,0,0,0
					c0.1-0.2,0.2-0.5,0.3-0.7c0,0,0,0,0,0c0,0,0.1,0,0.1,0c0.2,0,0.3-0.1,0.4-0.2c0.1-0.2,0.1-0.3,0.2-0.5c0.1-0.2,0-0.4-0.2-0.5
					c0.1-0.2,0.1-0.5,0.2-0.7h0c0.2,0,0.3-0.1,0.4-0.3c0-0.2,0.1-0.4,0.1-0.5c0-0.2-0.1-0.4-0.3-0.4c0-0.2,0-0.4,0-0.6
					c0-0.1,0-0.1,0-0.2c0.2,0,0.3-0.2,0.3-0.4c0-0.2,0-0.3,0-0.5c0-0.2-0.2-0.3-0.4-0.3c0-0.1,0-0.2-0.1-0.3l1.1-0.3
					c0.2,0.7,0.2,1.5,0.2,2.2C59.6,44.9,58.5,47.5,56.7,49.4z M59.5,52.8l-0.8-0.9c0.2-0.1,0.3-0.3,0.4-0.4c0.2-0.2,0.2-0.6,0-0.8
					c0,0,0,0-0.1,0c0.2-0.3,0.5-0.5,0.7-0.8c0,0,0,0,0,0c0.1,0.1,0.2,0.1,0.3,0.1c0.2,0,0.3-0.1,0.5-0.2c0.1-0.2,0.3-0.4,0.4-0.6
					c0.2-0.2,0.1-0.6-0.2-0.7c0,0,0,0,0,0c0.2-0.3,0.3-0.6,0.5-1c0,0,0,0,0,0c0.1,0,0.1,0,0.2,0c0.2,0,0.4-0.1,0.5-0.4
					c0.1-0.2,0.2-0.5,0.2-0.7c0.1-0.3-0.1-0.6-0.3-0.7c0.1-0.3,0.2-0.7,0.3-1.1h0c0.3,0,0.5-0.2,0.5-0.5c0-0.2,0.1-0.5,0.1-0.7
					c0-0.3-0.2-0.5-0.4-0.6c0-0.3,0-0.6,0-0.9c0-0.1,0-0.1,0-0.2c0.3,0,0.5-0.3,0.5-0.6c0-0.2,0-0.5-0.1-0.7c0-0.3-0.3-0.5-0.5-0.5
					c0-0.3-0.1-0.5-0.2-0.8l1.4-0.4c0.3,1.1,0.4,2.3,0.4,3.5C63.9,46.3,62.2,50.1,59.5,52.8z"/>
			</g>
			<path class="st4" d="M55.6,58"/>
			<g>
				<g>
					<g>
						<path class="st5" d="M49,73.8c-1.9,0-3.5-1.5-3.5-3.3V40.1c0-1.8,1.6-3.3,3.5-3.3s3.5,1.5,3.5,3.3v30.5
							C52.5,72.4,50.9,73.8,49,73.8z"/>
						<path class="st2" d="M49,37.8c1.4,0,2.5,1,2.5,2.3v30.5c0,1.2-1.1,2.3-2.5,2.3s-2.5-1-2.5-2.3V40.1
							C46.5,38.9,47.6,37.8,49,37.8 M49,35.8c-2.5,0-4.5,1.9-4.5,4.3v30.5c0,2.4,2,4.3,4.5,4.3s4.5-1.9,4.5-4.3V40.1
							C53.5,37.8,51.4,35.8,49,35.8L49,35.8z"/>
					</g>
				</g>
				<g class="st3">
					<path d="M51.5,63.7v6.9c0,1.2-1.1,2.3-2.5,2.3s-2.5-1-2.5-2.3v-6.7L51.5,63.7z"/>
				</g>
				<g>
					<path class="st6" d="M47,78.4c-3.3,0-6-2.7-6-6c0-1.4,1.1-2.5,2.5-2.5H55c1.4,0,2.5,1.1,2.5,2.5c0,3.3-2.7,6-6,6H47z"/>
					<path class="st2" d="M55,70.8c0.8,0,1.5,0.7,1.5,1.5v0c0,2.8-2.2,5-5,5H47c-2.8,0-5-2.2-5-5v0c0-0.8,0.7-1.5,1.5-1.5H55
						 M55,68.8H43.4c-2,0-3.5,1.6-3.5,3.5c0,3.9,3.2,7.1,7.1,7.1h4.5c3.9,0,7.1-3.2,7.1-7.1C58.5,70.4,56.9,68.8,55,68.8L55,68.8z"
						/>
				</g>
				<g class="st3">
					<path d="M56,74.3c-0.3,0.6-0.6,1.1-1.1,1.6c-0.9,0.9-2.2,1.5-3.5,1.5H47c-2.1,0-3.8-1.2-4.6-3l0,0c0.3-0.3,0.6-0.4,1.1-0.4H55
						C55.4,73.8,55.8,74,56,74.3z"/>
				</g>
			</g>
			<circle cx="49" cy="40.8" r="2"/>
		</g>
	</g>
	<g>
		<path class="st7" d="M83.5,96.4H16.2c-3.7,0-6.8-3.1-6.8-6.8L3.8,11c0-3.7,3.1-6.8,6.8-6.8h78.6c3.7,0,6.8,3.1,6.8,6.8l-5.7,78.6
			C90.3,93.4,87.2,96.4,83.5,96.4z"/>
	</g>
	<g class="st0">
		<path class="st8" d="M84.7,97.2H15.3c-3.9,0-7-3.2-7-7L2.4,9.8c0-3.9,3.2-7,7-7h81.1c3.9,0,7,3.2,7,7l-5.8,80.4
			C91.7,94.1,88.6,97.2,84.7,97.2z"/>
	</g>
	<path class="st9" d="M78,38.2l-13.2-1.3c-10.3-1-20.7,0.4-30.3,4.1l-16,6.2c-4.4,1.7-9.2-1.4-9.5-6L7.4,16
		c-0.3-4.6,3.3-8.4,7.9-8.4h73.5c2,0,3.6,1.7,3.5,3.7l-1,15.6C90.8,33.8,84.8,38.9,78,38.2z"/>
</g>
</svg>
