<?xml version="1.0" encoding="utf-8"?>
<!-- Generator: Adobe Illustrator 26.0.2, SVG Export Plug-In . SVG Version: 6.00 Build 0)  -->
<svg version="1.1" id="Layer_1" xmlns="http://www.w3.org/2000/svg" xmlns:xlink="http://www.w3.org/1999/xlink" x="0px" y="0px"
	 viewBox="0 0 100 100" style="enable-background:new 0 0 100 100;" xml:space="preserve">
<style type="text/css">
	.st0{enable-background:new    ;}
	.st1{fill:url(#SVGID_1_);}
	.st2{fill:none;stroke:#EE0000;stroke-width:1.7043;stroke-linecap:round;stroke-linejoin:round;stroke-miterlimit:10;}
	.st3{fill:none;stroke:#142C4D;stroke-width:1.7043;stroke-linecap:round;stroke-miterlimit:10;}
	.st4{fill:none;stroke:#FAAA4F;stroke-width:1.2783;stroke-linecap:round;stroke-linejoin:round;stroke-miterlimit:10;}
	.st5{fill:#7C7679;}
	.st6{fill:#142C4D;}
	.st7{opacity:0.2;enable-background:new    ;}
	.st8{fill:#EE0000;}
	.st9{opacity:0.6;}
	.st10{fill:#FFFFFF;}
	.st11{opacity:0.23;}
	.st12{opacity:0.2;}
	.st13{opacity:0.5;}
	.st14{fill:#EE0000;stroke:#142C4D;stroke-width:1.7043;stroke-miterlimit:10;}
	.st15{fill:none;stroke:#00A7CD;stroke-width:4.8936;stroke-miterlimit:10;}
	.st16{fill:none;stroke:#FAFCFF;stroke-width:2.5862;stroke-miterlimit:10;}
	.st17{opacity:0.16;fill:#FFFFFF;}
</style>
<g>
	<g class="st0">
		<linearGradient id="SVGID_1_" gradientUnits="userSpaceOnUse" x1="49.8643" y1="102.277" x2="49.8643" y2="4.4622">
			<stop  offset="0.4735" style="stop-color:#A3DFED"/>
			<stop  offset="0.4794" style="stop-color:#5DD1E8"/>
		</linearGradient>
		<path class="st1" d="M84.1,97.2H15.6c-3.8,0-6.9-3.1-6.9-6.9l-5.8-80c0-3.8,3.1-6.9,6.9-6.9h80c3.8,0,6.9,3.1,6.9,6.9l-5.8,80
			C91,94.1,87.9,97.2,84.1,97.2z"/>
	</g>
	<g id="wagonHandles_00000055707997246483192420000008454162380231624349_">
		<g>
			<path class="st2" d="M43.1,28c1.3,9.6-1.8,16.4-6.2,22.5"/>
			<path class="st3" d="M43.5,28.1c-4.9,8.3-11.6,11.8-18.8,13.7"/>
			<path class="st4" d="M43.6,28.1c-3.3,9.1-9.2,13.7-15.9,17"/>
			<path class="st3" d="M43.1,28c-0.9,9.6-5.3,15.6-10.9,20.6"/>
			<path class="st2" d="M43.3,28c-1.9,9.5-7,15-13.1,19.2"/>
			<path class="st4" d="M43.6,28c0.3,9.7-3.4,16.1-8.4,21.7"/>
		</g>
		<g>
			<g>
				<path class="st5" d="M60.1,74l-7.2-17.6c-0.5-1.1-0.1-2.4,0.9-3.2l14.1-11.6L62,35.4c-1-1.1-1-2.8,0.1-3.9
					c0.3-0.3,0.7-0.5,0.9-0.6c0.1,0,0.1,0,0.2-0.1c0.1,0,0.2-0.1,0.3-0.1c0.1,0,0.3,0,0.5,0c0.3,0,0.6,0,0.9,0.1
					c0.5,0.1,0.9,0.4,1.1,0.8l8,8.3c0.6,0.6,0.9,1.3,0.8,2.1c-0.1,0.8-0.4,1.5-1,2l-15,12L66,74H60.1z"/>
				<path class="st6" d="M63.8,31.3c0.2,0,0.4,0,0.7,0.1c0.4,0.1,0.7,0.3,0.9,0.6l8,8.3c0.4,0.5,0.7,1,0.6,1.6
					c0,0.6-0.3,1.1-0.8,1.5L58,55.9l7.1,17.4h-4.6l-7.1-17.2c-0.4-0.9-0.1-1.9,0.7-2.5l14.6-11.9l-6.3-6.7c-0.9-0.9-0.8-2.2,0.1-3
					c0.2-0.2,0.5-0.4,0.8-0.5c0.1,0,0.1,0,0.2-0.1c0.1,0,0.1,0,0.2,0C63.6,31.3,63.7,31.3,63.8,31.3 M63.8,30.1
					c-0.2,0-0.4,0-0.6,0.1c-0.1,0-0.2,0-0.3,0.1c-0.1,0-0.2,0.1-0.3,0.1c-0.4,0.1-0.9,0.4-1.1,0.8c-1.3,1.3-1.4,3.4-0.1,4.8l5.4,5.7
					L53.3,52.7c-1.1,0.9-1.6,2.6-1,3.9l7.1,17.2l0.3,0.8h0.9h4.6H67l-0.8-1.8l-6.7-16.6L74,44.4c0.8-0.6,1.1-1.5,1.2-2.5
					c0.1-0.9-0.3-1.9-0.9-2.6l-8-8.3c-0.4-0.4-0.9-0.8-1.4-0.9C64.5,30.1,64.2,30.1,63.8,30.1L63.8,30.1z"/>
			</g>
		</g>
		<path class="st7" d="M73.2,43.5L58,55.9l7.1,17.4h-2.2L55.4,55l15.2-12.4c0.5-0.4,0.8-0.9,0.8-1.5c0-0.6-0.2-1.1-0.6-1.6l-7.7-8.1
			c0.1,0,0.1,0,0.2-0.1c0.1,0,0.1,0,0.2,0c0.3-0.1,0.7,0,0.9,0.1c0.4,0.1,0.7,0.3,0.9,0.6l8,8.3c0.4,0.5,0.7,1,0.6,1.6
			C73.8,42.5,73.5,43.1,73.2,43.5z"/>
		<g>
			<g>
				<path class="st8" d="M63.7,36.3c-0.7,0-1.3-0.2-1.8-0.7l-17.2-3.5c-0.3-0.1-0.6-0.2-0.9-0.3c-1.1-0.7-1.7-1.9-1.5-3.2
					c0.3-1.4,1.5-2.4,2.9-2.4c0.2,0,0.4,0,0.6,0.1L64.2,30c1.1,0.2,2,1,2.3,2.2l0.1,0.4c0.4,1.6-0.6,3.2-2.2,3.6
					C64.2,36.2,63.9,36.3,63.7,36.3z"/>
				<path class="st6" d="M45.3,27.1c0.1,0,0.3,0,0.5,0l18.3,3.7c0.8,0.2,1.4,0.8,1.6,1.5l0.1,0.3c0.3,1.1-0.4,2.3-1.5,2.6
					c-0.2,0-0.4,0.1-0.6,0.1c-0.6,0-1-0.2-1.4-0.6l-17.3-3.5c-0.2,0-0.4-0.1-0.6-0.2c-0.8-0.5-1.2-1.3-1-2.3
					C43.4,27.7,44.3,27.1,45.3,27.1 M45.3,25.4L45.3,25.4c-1.8,0-3.4,1.3-3.8,3c-0.4,1.6,0.4,3.3,1.9,4.1c0.4,0.2,0.8,0.3,1.1,0.4
					l17,3.5c0.7,0.5,1.4,0.7,2.2,0.7c0.3,0,0.7,0,0.9-0.1c2.1-0.6,3.3-2.7,2.7-4.6L67.3,32c-0.4-1.4-1.5-2.5-2.9-2.8l-18.3-3.7
					C45.8,25.4,45.6,25.4,45.3,25.4L45.3,25.4z"/>
			</g>
		</g>
		<g class="st9">
			<g>
				<path class="st10" d="M64.6,35.1c0.3-0.5,0.4-1,0.2-1.5l-0.1-0.3c-0.2-0.8-0.9-1.4-1.6-1.5l-18.3-3.7c-0.5-0.1-1,0-1.4,0.2
					c0.5-0.8,1.3-1.2,2.3-1L64,31c0.8,0.2,1.4,0.8,1.6,1.5l0.1,0.3C66,33.7,65.5,34.6,64.6,35.1z"/>
			</g>
		</g>
		<g class="st11">
			<path d="M64.2,35.3c-0.8,0.2-1.4,0-2-0.5l-17.3-3.5c-0.2,0-0.4-0.1-0.6-0.2c-0.8-0.5-1.2-1.3-1-2.3c0-0.2,0.1-0.5,0.3-0.7
				c0.2,0.3,0.5,0.6,0.9,0.8c0.2,0.1,0.4,0.2,0.6,0.2l17.3,3.5c0.5,0.5,1.2,0.7,2,0.5c0.6-0.2,1-0.6,1.3-1c0,0.1,0.1,0.2,0.1,0.3
				l0.1,0.3C66.1,33.9,65.3,35,64.2,35.3z"/>
		</g>
		<g>
			<g>
				<path class="st8" d="M46.7,44.1c-1.1,0-2.2-0.7-2.7-1.7c-0.7-1.5-0.1-3.3,1.4-4l16.9-7.9c0.4-0.2,0.9-0.3,1.2-0.3
					c0.7,0,1.3,0.2,1.9,0.7l0.3,0.2c1.3,1,1.5,2.9,0.5,4.2c-0.6,0.7-1.4,1.1-2.3,1.1c0,0,0,0-0.1,0L48,43.8
					c-0.3,0.1-0.6,0.2-0.9,0.3C46.9,44.1,46.8,44.1,46.7,44.1z"/>
				<path class="st6" d="M63.6,31.1c0.5,0,0.9,0.2,1.3,0.5l0.3,0.2c0.9,0.8,1,2.1,0.3,3c-0.4,0.5-1,0.8-1.7,0.8c-0.1,0-0.2,0-0.2,0
					l-16,7.5c-0.2,0.1-0.4,0.2-0.7,0.2c-0.1,0-0.2,0-0.3,0c-0.8,0-1.6-0.5-1.9-1.2c-0.5-1,0-2.4,1-2.8l16.9-7.9
					C63,31.2,63.3,31.1,63.6,31.1 M63.6,29.4c-0.6,0-1.1,0.1-1.6,0.4l-16.9,7.9c-1.9,0.9-2.7,3.2-1.9,5.1c0.7,1.3,2,2.2,3.5,2.2
					c0.2,0,0.4,0,0.5,0c0.4-0.1,0.8-0.2,1.1-0.3L64,37.4c1.1,0,2.2-0.6,2.8-1.4c1.3-1.6,1-4.1-0.6-5.4L66,30.4
					C65.3,29.7,64.4,29.4,63.6,29.4L63.6,29.4z"/>
			</g>
		</g>
		<g class="st12">
			<path d="M65.5,34.8c-0.5,0.6-1.2,0.9-1.9,0.8l-16,7.5c-0.2,0.1-0.4,0.2-0.7,0.2c-0.9,0.1-1.8-0.4-2.2-1.2
				c-0.1-0.1-0.1-0.2-0.1-0.4c0.3,0.1,0.6,0.1,0.9,0.1c0.2,0,0.4-0.1,0.7-0.2l16-7.5c0.7,0.1,1.4-0.2,1.9-0.8c0.5-0.6,0.6-1.3,0.4-2
				c0.2,0.1,0.4,0.2,0.6,0.3l0.3,0.2C66.2,32.6,66.2,33.9,65.5,34.8z"/>
		</g>
		<g class="st13">
			<g>
				<path class="st10" d="M46.4,42c0.2,0.5,0.7,0.9,1,1c-0.2,0.1-0.4,0.1-0.6,0.2c-0.9,0.1-1.8-0.4-2.2-1.2c-0.5-1,0-2.4,1-2.8
					l16.9-7.9c0.6-0.3,1.2-0.3,1.8,0c0,0,0,0-0.1,0l-16.9,7.9C46.4,39.8,46,41,46.4,42z"/>
			</g>
		</g>
		<circle class="st14" cx="46.6" cy="41.4" r="2.6"/>
		<g>
			<path class="st2" d="M46.2,41.3c3.4,9,1.9,16.4-1,23.2"/>
			<path class="st3" d="M46.5,41.3c-2.9,9.2-8.7,14-15.3,17.6"/>
			<path class="st4" d="M46.5,41.3c-1.2,9.6-5.9,15.4-11.7,20.1"/>
			<path class="st3" d="M46.2,41.3c1.3,9.6-1.7,16.4-6.1,22.5"/>
			<path class="st2" d="M46.3,41.3c0.3,9.7-3.5,16.1-8.5,21.7"/>
			<path class="st4" d="M46.5,41.2c2.5,9.3,0.3,16.5-3.3,23"/>
		</g>
	</g>
	<g>
		<path class="st15" d="M83.5,96.4H16.2c-3.7,0-6.8-3.1-6.8-6.8L3.8,11c0-3.7,3.1-6.8,6.8-6.8h78.6c3.7,0,6.8,3.1,6.8,6.8l-5.7,78.6
			C90.3,93.4,87.2,96.4,83.5,96.4z"/>
	</g>
	<g class="st0">
		<path class="st16" d="M84.7,97.2H15.3c-3.9,0-7-3.2-7-7L2.4,9.8c0-3.9,3.2-7,7-7h81.1c3.9,0,7,3.2,7,7l-5.8,80.4
			C91.7,94.1,88.6,97.2,84.7,97.2z"/>
	</g>
	<path class="st17" d="M78,38.2l-13.2-1.3c-10.3-1-20.7,0.4-30.3,4.1l-16,6.2c-4.4,1.7-9.2-1.4-9.5-6L7.4,16
		c-0.3-4.6,3.3-8.4,7.9-8.4h73.5c2,0,3.6,1.7,3.5,3.7l-1,15.6C90.8,33.8,84.8,38.9,78,38.2z"/>
</g>
</svg>
