<?xml version="1.0" encoding="utf-8"?>
<!-- Generator: Adobe Illustrator 26.0.2, SVG Export Plug-In . SVG Version: 6.00 Build 0)  -->
<svg version="1.1" id="Layer_1" xmlns="http://www.w3.org/2000/svg" xmlns:xlink="http://www.w3.org/1999/xlink" x="0px" y="0px"
	 viewBox="0 0 100 100" style="enable-background:new 0 0 100 100;" xml:space="preserve">
<style type="text/css">
	.st0{enable-background:new    ;}
	.st1{fill:url(#SVGID_1_);}
	.st2{fill:#142C4D;}
	.st3{fill:#666666;}
	.st4{fill:#281D1D;}
	.st5{fill:#EADFDF;}
	.st6{fill:#79C4C6;}
	.st7{fill:#168989;}
	.st8{fill:#0C514F;}
	.st9{fill:#C3F4F4;}
	.st10{fill:#666666;stroke:#000000;stroke-width:1.4156;stroke-miterlimit:10;}
	.st11{opacity:0.51;}
	.st12{opacity:0.51;fill:#281D1D;enable-background:new    ;}
	.st13{fill:#37CCD3;}
	.st14{fill:none;stroke:#00A7CD;stroke-width:4.8936;stroke-miterlimit:10;}
	.st15{fill:none;stroke:#FAFCFF;stroke-width:2.5862;stroke-miterlimit:10;}
	.st16{opacity:0.16;fill:#FFFFFF;}
</style>
<g>
	<g class="st0">
		<linearGradient id="SVGID_1_" gradientUnits="userSpaceOnUse" x1="49.8643" y1="102.277" x2="49.8643" y2="4.4622">
			<stop  offset="0.4735" style="stop-color:#A3DFED"/>
			<stop  offset="0.4794" style="stop-color:#5DD1E8"/>
		</linearGradient>
		<path class="st1" d="M84.1,97.2H15.6c-3.8,0-6.9-3.1-6.9-6.9l-5.8-80c0-3.8,3.1-6.9,6.9-6.9h80c3.8,0,6.9,3.1,6.9,6.9l-5.8,80
			C91,94.1,87.9,97.2,84.1,97.2z"/>
	</g>
	<g id="streetHandles_00000177477447584132017640000010558410977298531482_">
		<g>
			<path class="st2" d="M67.5,52.1c-0.1,0.1-0.3,0.2-0.5,0.2c-0.1,0-0.2-0.1-0.4-0.1l0,0c-0.4-0.3-2.9-2.1-4.4-4.8
				c-0.6-1-0.8-2.1-1-2.9c-0.4-1.6-0.6-2.4-2.3-2.6c-0.4-0.1-0.5-0.4-0.5-0.6c0-0.1,0.1-0.4,0.3-0.4l1.6-1.1l0.2,0.1
				c2.5,0.6,2.6,2.3,2.8,3.9c0.1,0.8,0.2,1.8,0.6,2.7c1,2.5,3.1,4.5,3.4,4.9c0,0,0.1,0,0.1,0.1C67.7,51.5,67.7,51.8,67.5,52.1z"/>
			<g>
				<path class="st3" d="M49.4,38.8h4.2c1.4,0,2.6-0.8,3.1-2.2l0.2-0.6c0.2-0.6,0.7-0.8,1.3-0.8c0.4,0,0.8,0.2,1.1,0.6l1.9,2.9
					c0.6,1,0.5,2.3-0.4,3l-5.1,4.5L49.4,38.8z"/>
				<path class="st2" d="M58.3,35.8c0.2,0,0.4,0.1,0.6,0.3l1.9,2.9c0.4,0.7,0.4,1.6-0.3,2.1l-4.5,4L51,39.5h2.6
					c1.7,0,3.2-1.1,3.8-2.6l0.2-0.6C57.8,36,58,35.8,58.3,35.8 M58.3,34.4L58.3,34.4c-0.8,0-1.6,0.5-1.9,1.3l-0.2,0.6
					c-0.4,1-1.4,1.7-2.5,1.7H51h-3.1l2.1,2.3l4.9,5.7l0.9,1.1l1.1-0.9l4.5-4c1.1-1,1.3-2.7,0.6-4l-1.9-2.9
					C59.6,34.8,59,34.4,58.3,34.4L58.3,34.4z"/>
			</g>
			<path class="st4" d="M60.4,41.2l-4.5,4l-0.4-0.4l-0.3-1.1c2.5-1.3,4.5-2.8,5.4-4.6C61.2,39.7,61.1,40.7,60.4,41.2z"/>
			<path class="st5" d="M58.8,36.2c-0.1,0.1-0.3,0.2-0.4,0.4l-0.3,0.6c-0.6,1.7-2.3,2.8-4.2,2.8h-2.5l-0.5-0.6h2.6
				c1.7,0,3.2-1.1,3.8-2.6l0.2-0.6C57.8,35.8,58.5,35.7,58.8,36.2L58.8,36.2z"/>
			<g>
				<g>
					<path class="st3" d="M48.8,38.6h-9.2c-0.4,0-0.8,0.4-0.8,0.8v3.9c0,0.4,0.4,0.8,0.8,0.8h9.2c3.3,0,3.5,3.4,3.5,4.4
						c0,1.9-0.7,3.9-2,5.3c-1.5,1.6-3.6,2.5-6.2,2.5h-0.8c-1.1,0-1.8,0.8-1.8,1.8v1.8c0,1.1,0.8,1.8,1.8,1.8h0.8
						c5.2,0,8.5-2.3,10.3-4.4c2.1-2.4,3.4-5.7,3.4-8.9C57.8,42.7,54.1,38.6,48.8,38.6z M54,57.1c-1.7,1.9-4.7,4.2-9.8,4.2h-0.8
						c-0.7,0-1.3-0.6-1.3-1.3v-1.8c0-0.7,0.6-1.3,1.3-1.3h0.8c2.7,0,5-0.9,6.6-2.7c1.3-1.6,2.1-3.6,2.1-5.7c0-2.4-1.1-5-4.1-5h-9.2
						c-0.1,0-0.2-0.1-0.2-0.2v-3.9c0-0.1,0.1-0.2,0.2-0.2h9.2c5,0,8.4,3.8,8.4,9.3C57.2,51.6,56.1,54.7,54,57.1z"/>
					<path class="st2" d="M48.8,38h-9.2c-0.8,0-1.3,0.6-1.3,1.3v3.9c0,0.8,0.6,1.3,1.3,1.3h9.2c2.7,0,3,2.7,3,3.8
						c0,1.8-0.7,3.6-1.8,4.9c-1.3,1.6-3.3,2.3-5.7,2.3h-0.8c-1.3,0-2.5,1.1-2.5,2.5v1.8c0,1.3,1.1,2.5,2.5,2.5h0.8
						c5.4,0,8.8-2.5,10.7-4.5c2.3-2.5,3.5-5.9,3.5-9.3C58.4,42.4,54.4,38,48.8,38z M44.2,61.3h-0.8c-0.7,0-1.3-0.6-1.3-1.3v-1.8
						c0-0.7,0.6-1.3,1.3-1.3h0.8c2.7,0,5-0.9,6.6-2.7c1.3-1.6,2.1-3.6,2.1-5.7c0-2.4-1.1-5-4.1-5h-9.2c-0.1,0-0.2-0.1-0.2-0.2v-3.9
						c0-0.1,0.1-0.2,0.2-0.2h9.2c5,0,8.4,3.8,8.4,9.3c0,3.1-1.2,6.2-3.3,8.6C52.3,59,49.2,61.3,44.2,61.3z"/>
					<path class="st6" d="M57.2,48.5c0,0.2,0,0.4,0,0.6l0,0c-0.1,2.9-1.3,5.8-3.3,8c-1.7,1.9-4.7,4.2-9.8,4.2h-0.8
						c-0.7,0-1.3-0.6-1.3-1.3v-1.8c0-0.7,0.6-1.3,1.3-1.3h0.8c2.7,0,5-0.9,6.6-2.7c1.3-1.4,2-3.3,2.1-5.1c0-0.2,0-0.4,0-0.6
						c0-2.4-1.1-5-4.1-5h-9.2c-0.1,0-0.2-0.1-0.2-0.2v-3.9c0-0.1,0.1-0.2,0.2-0.2h9.2C53.8,39.2,57.2,43,57.2,48.5z"/>
					<path class="st7" d="M57.2,48.5c0,0.2,0,0.4,0,0.6l0,0c-0.1,1.9-0.6,3.8-1.5,5.4c-0.4,0-0.6-0.4-0.6-1.1c0.1-2-1-3.3-2.3-4.2
						c0,0,0-0.1,0-0.1c0-0.2,0-0.4,0-0.6c0-2.4-1.1-5-4.1-5h-0.1L48.3,42l5.6-1.2C56,42.5,57.2,45.2,57.2,48.5z"/>
					<path class="st7" d="M50.5,43.8c-0.5-0.2-1.1-0.4-1.8-0.4h-9.2c-0.1,0-0.2-0.1-0.2-0.2v-0.4h8.6C49,42.9,49.9,43.3,50.5,43.8z"
						/>
					<path class="st7" d="M57.2,48.5c0,0.2,0,0.4,0,0.6l0,0c-0.1,2.9-1.3,5.8-3.3,8c-1.7,1.9-4.7,4.2-9.8,4.2h-0.8
						c-0.4,0-0.8-0.2-1.1-0.6c0.1,0,0.1,0,0.2,0h0.8c5,0,8.1-2.3,9.8-4.2c1.9-2.2,3.1-5,3.3-8l0,0c0-0.2,0-0.4,0-0.6
						c0-3.3-1.3-6.1-3.4-7.7C55.6,41.7,57.2,44.8,57.2,48.5z"/>
					<path class="st8" d="M57.2,47.7l-4.4-0.5c-0.2-1.3-0.8-2.5-2-3.1h5.5C56.8,45,57.1,46.3,57.2,47.7z"/>
					<path class="st9" d="M51.8,52.6c-0.4,0.8-0.8,1.5-1.3,2.1c-1.6,1.8-3.8,2.7-6.6,2.7H43c-0.4,0-0.8,0.1-1,0.4
						c0.1-0.6,0.6-1.1,1.3-1.1h0.8c2.7,0,5-0.9,6.6-2.7C51.2,53.8,51.5,53.2,51.8,52.6z"/>
					<path class="st9" d="M52.5,40c-0.8-0.1-1.6-0.3-2.5-0.3H39.6c-0.1,0-0.2,0.1-0.2,0.2v-0.6c0-0.1,0.1-0.2,0.2-0.2h9.2
						C50.2,39.2,51.5,39.5,52.5,40z"/>
				</g>
			</g>
			<path class="st10" d="M60.7,38.5"/>
		</g>
		<g>
			<g>
				<path class="st3" d="M49.8,66.1c-1.8,0-3.2-1.4-3.2-3.2s1.4-3.2,3.2-3.2c3.2,0,5.8-1.1,7.6-3.2c1.6-1.8,2.5-4.2,2.5-6.7
					c0-1.3-0.4-5.6-4.5-5.6H29.4c0.4,1.1,0.8,2.3,1.2,3.8c0.2,0.7,0.1,1.5-0.4,2.1c-0.6,0.9-1.9,1.5-3.2,1.5S24.9,51,24.6,50
					c-1.5-4.7-2.4-7.6-2.5-8c-0.3-1-0.1-2.1,0.5-2.8c0.6-0.8,1.6-1.3,2.5-1.3h30.3c6.4,0,10.9,5,10.9,12c0,4-1.5,7.9-4.1,10.8
					C60.1,63.2,56.1,66.1,49.8,66.1z"/>
				<path class="st2" d="M55.4,38.5c6.1,0,10.3,4.7,10.3,11.5c0,3.8-1.4,7.6-4,10.5c-2.1,2.3-5.9,5.1-12,5.1c-1.5,0-2.7-1.2-2.7-2.7
					s1.2-2.7,2.7-2.7c3.3,0,6.2-1.1,8.1-3.3c1.7-1.9,2.6-4.4,2.6-7c0-1-0.2-6.2-5-6.2H28.8c0.4,1.2,0.8,2.7,1.4,4.5
					c0.5,1.6-1.4,2.9-3,2.9c-0.9,0-1.7-0.4-2-1.3c-1.6-4.9-2.5-7.9-2.5-8c-0.3-0.8-0.1-1.7,0.4-2.3c0.5-0.6,1.3-1.1,2.1-1.1h30.2
					 M55.4,37.5H25.1c-1.2,0-2.3,0.6-3,1.5s-0.9,2.2-0.6,3.3c0,0,0.9,3,2.5,8c0.4,1.3,1.6,2,3,2c1.4,0,2.9-0.7,3.6-1.7
					c0.6-0.8,0.7-1.7,0.4-2.5c-0.4-1.1-0.7-2.2-1-3h25.2c3.7,0,4,3.9,4,5.1c0,2.3-0.8,4.6-2.3,6.3c-1.7,1.9-4.2,3-7.3,3
					c-2.1,0-3.7,1.7-3.7,3.8s1.7,3.7,3.7,3.7c6.6,0,10.6-3,12.8-5.4c2.7-3,4.2-7.1,4.2-11.2C66.8,42.6,62.1,37.5,55.4,37.5
					L55.4,37.5z"/>
			</g>
		</g>
		<g>
			<path class="st5" d="M65.8,50c0,0.1,0,0.4,0,0.5c-0.1-6.5-4.4-11-10.3-11H25.1c-0.8,0-1.6,0.4-2.1,1.1c-0.3,0.4-0.4,0.7-0.5,1.1
				c-0.1-0.7,0.1-1.4,0.5-2c0.5-0.7,1.3-1.1,2.1-1.1h30.3C61.5,38.5,65.8,43.2,65.8,50z"/>
		</g>
		<g class="st11">
			<path class="st4" d="M55.4,43.8H28.8c0.4,1.2,0.8,2.8,1.4,4.5c0.8,2.4-3.8,4-4.9,2c1.7,0.3,4-1.1,3.5-2.9
				c-0.6-1.8-1.1-3.3-1.4-4.5H54c1.5,0,2.5,0.5,3.3,1.2C56.8,44,56.2,43.8,55.4,43.8z"/>
		</g>
		<g>
			<path class="st2" d="M78.4,54.3c-0.1,0.1-0.4,0.3-0.6,0.2c-0.1,0-0.3-0.1-0.4-0.1l0,0c-0.5-0.4-3.5-2.5-5.4-5.9
				c-0.7-1.3-1-2.5-1.2-3.5c-0.4-1.9-0.7-3-2.8-3.2c-0.4-0.1-0.6-0.4-0.6-0.8c0-0.2,0.1-0.4,0.4-0.6l2-1.3l0.3,0.1
				c3,0.7,3.2,2.8,3.4,4.7c0.1,1,0.2,2.1,0.7,3.3c1.2,3.2,3.8,5.6,4.2,5.9l0.1,0.1C78.6,53.6,78.6,54,78.4,54.3z"/>
			<g>
				<path class="st3" d="M56.6,38.2h4.7c1.8,0,3.4-1.1,4-2.8l0.3-0.7c0.2-0.6,0.8-1,1.4-1c0.5,0,1,0.3,1.3,0.7l2.3,3.5
					c0.8,1.1,0.6,2.6-0.5,3.5L64,46.8L56.6,38.2z"/>
				<path class="st2" d="M67,34.4c0.3,0,0.5,0.1,0.6,0.4l2.3,3.5c0.6,0.8,0.4,2-0.4,2.6l-5.6,4.9l-6-6.9h3.2c2.1,0,4-1.3,4.7-3.3
					l0.3-0.7C66.4,34.6,66.7,34.4,67,34.4 M67,33L67,33c-0.9,0-1.8,0.6-2.1,1.4l-0.3,0.7c-0.5,1.4-1.8,2.3-3.3,2.3h-3.2h-3.1
					l2.1,2.3l6,6.9l0.9,1.1l1.1-0.9l5.6-4.9c1.3-1.1,1.6-3,0.6-4.5L68.9,34C68.4,33.4,67.8,33,67,33L67,33z"/>
			</g>
			<path class="st12" d="M69.7,40.9l-5.6,4.9l-0.4-0.5L63.4,44c3.1-1.6,5.4-3.4,6.7-5.7C70.6,39.2,70.5,40.3,69.7,40.9z"/>
			<path class="st5" d="M67.7,34.9c-0.2,0.1-0.4,0.3-0.5,0.5L67,36.1c-0.8,2.1-2.9,3.5-5.2,3.5h-3l-0.6-0.7h3.2c2.1,0,4-1.3,4.7-3.3
				l0.3-0.7C66.5,34.4,67.4,34.3,67.7,34.9L67.7,34.9z"/>
			<g>
				<g>
					<path class="st3" d="M55.4,37.8H44.1c-0.5,0-1,0.4-1,1v4.8c0,0.5,0.4,1,1,1h11.3c4,0,4.3,4.2,4.3,5.4c0,2.4-0.9,4.7-2.5,6.5
						c-1.8,2.1-4.4,3.1-7.5,3.1h-1.1c-1.3,0-2.3,1.1-2.3,2.3v2.1c0,1.3,1.1,2.3,2.3,2.3h1.1c6.4,0,10.4-2.9,12.5-5.4
						c2.6-3,4.2-6.9,4.2-11C66.5,42.8,61.9,37.8,55.4,37.8z M61.8,60.5c-2.1,2.3-5.9,5.1-12,5.1h-1.1c-0.8,0-1.6-0.7-1.6-1.6v-2.1
						c0-0.8,0.7-1.6,1.6-1.6h1.1c3.3,0,6.2-1.1,8.1-3.3c1.7-1.8,2.6-4.4,2.6-7c0-3-1.3-6.2-5-6.2H44.1c-0.1,0-0.3-0.1-0.3-0.3v-4.8
						c0-0.1,0.1-0.3,0.3-0.3h11.3c6.1,0,10.3,4.7,10.3,11.5C65.8,53.8,64.3,57.6,61.8,60.5z"/>
					<path class="st2" d="M55.4,37.1H44.1c-0.9,0-1.7,0.8-1.7,1.7v4.8c0,0.9,0.8,1.7,1.7,1.7h11.3c3.3,0,3.6,3.3,3.6,4.7
						c0,2.2-0.8,4.4-2.3,6c-1.7,1.8-4.1,2.8-7,2.8h-1.1c-1.6,0-3,1.3-3,3V64c0,1.6,1.3,3,3,3h1.1c6.7,0,10.8-3,13.1-5.6
						c2.8-3.1,4.3-7.3,4.3-11.5C67.2,42.4,62.4,37.1,55.4,37.1z M49.8,65.6h-1.1c-0.8,0-1.6-0.7-1.6-1.6v-2.1c0-0.8,0.7-1.6,1.6-1.6
						h1.1c3.3,0,6.2-1.1,8.1-3.3c1.7-1.8,2.6-4.4,2.6-7c0-3-1.3-6.2-5-6.2H44.1c-0.1,0-0.3-0.1-0.3-0.3v-4.8c0-0.1,0.1-0.3,0.3-0.3
						h11.3c6.1,0,10.3,4.7,10.3,11.5c0,3.8-1.4,7.6-4,10.5C59.7,62.8,56,65.6,49.8,65.6z"/>
					<path class="st6" d="M65.8,50c0,0.2,0,0.5,0,0.7l0,0c-0.1,3.6-1.6,7.1-4,9.8c-2.1,2.3-5.9,5.1-12,5.1h-1.1
						c-0.8,0-1.6-0.7-1.6-1.6v-2.1c0-0.8,0.7-1.6,1.6-1.6h1.1c3.3,0,6.2-1.1,8.1-3.3c1.6-1.7,2.5-4,2.6-6.3c0-0.2,0-0.4,0-0.7
						c0-3-1.3-6.2-5-6.2H44.1c-0.1,0-0.3-0.1-0.3-0.3v-4.8c0-0.1,0.1-0.3,0.3-0.3h11.3C61.5,38.5,65.8,43.2,65.8,50z"/>
					<path class="st7" d="M57.6,44.3c-0.6-0.3-1.3-0.4-2.1-0.4H44.2c-0.1,0-0.3-0.1-0.3-0.3v-0.4h10.5
						C55.8,43.1,56.8,43.6,57.6,44.3z"/>
					<path class="st7" d="M65.8,50c0,0.2,0,0.5,0,0.7l0,0c-0.1,3.6-1.6,7.1-4,9.8c-2.1,2.3-5.9,5.1-12,5.1h-1.1
						c-0.6,0-1.1-0.3-1.3-0.7c0.1,0,0.2,0,0.3,0h1.1c6.2,0,10-2.8,12-5.1c2.3-2.7,3.8-6.2,4-9.8l0,0c0-0.2,0-0.5,0-0.7
						c0-4.1-1.6-7.4-4.2-9.4C63.8,41.6,65.8,45.3,65.8,50z"/>
					<path class="st9" d="M59.2,55c-0.4,0.9-1,1.8-1.7,2.6c-1.9,2.2-4.7,3.3-8.1,3.3h-1.1c-0.5,0-0.9,0.2-1.2,0.6
						c0.1-0.7,0.8-1.3,1.6-1.3h1.1c3.3,0,6.2-1.1,8.1-3.3C58.4,56.4,58.8,55.7,59.2,55z"/>
					<path class="st9" d="M60,39.6c-1-0.2-2-0.4-3-0.4H44.2c-0.1,0-0.3,0.1-0.3,0.3v-0.7c0-0.1,0.1-0.3,0.3-0.3h11.3
						C57.1,38.5,58.7,38.9,60,39.6z"/>
				</g>
			</g>
			<path class="st10" d="M70.1,37.6"/>
		</g>
		<path class="st13" d="M49.8,47.7"/>
	</g>
	<g>
		<path class="st14" d="M83.5,96.4H16.2c-3.7,0-6.8-3.1-6.8-6.8L3.8,11c0-3.7,3.1-6.8,6.8-6.8h78.6c3.7,0,6.8,3.1,6.8,6.8l-5.7,78.6
			C90.3,93.4,87.2,96.4,83.5,96.4z"/>
	</g>
	<g class="st0">
		<path class="st15" d="M84.7,97.2H15.3c-3.9,0-7-3.2-7-7L2.4,9.8c0-3.9,3.2-7,7-7h81.1c3.9,0,7,3.2,7,7l-5.8,80.4
			C91.7,94.1,88.6,97.2,84.7,97.2z"/>
	</g>
	<path class="st16" d="M78,38.2l-13.2-1.3c-10.3-1-20.7,0.4-30.3,4.1l-16,6.2c-4.4,1.7-9.2-1.4-9.5-6L7.4,16
		c-0.3-4.6,3.3-8.4,7.9-8.4h73.5c2,0,3.6,1.7,3.5,3.7l-1,15.6C90.8,33.8,84.8,38.9,78,38.2z"/>
</g>
</svg>
