<?xml version="1.0" encoding="utf-8"?>
<!-- Generator: Adobe Illustrator 26.0.2, SVG Export Plug-In . SVG Version: 6.00 Build 0)  -->
<svg version="1.1" id="Layer_1" xmlns="http://www.w3.org/2000/svg" xmlns:xlink="http://www.w3.org/1999/xlink" x="0px" y="0px"
	 viewBox="0 0 100 100" style="enable-background:new 0 0 100 100;" xml:space="preserve">
<style type="text/css">
	.st0{enable-background:new    ;}
	.st1{fill:url(#SVGID_1_);}
	.st2{fill:#EE0000;}
	.st3{fill:#8F0000;}
	.st4{fill:#FFFFFF;}
	.st5{fill:#142C4D;}
	.st6{fill:#93D3E6;}
	.st7{fill:#4CB6D6;}
	.st8{opacity:0.3;}
	.st9{fill:none;stroke:#4D4D4D;stroke-width:3.8222;stroke-linecap:round;stroke-linejoin:round;stroke-miterlimit:10;}
	.st10{fill:#DD00FF;}
	.st11{fill:none;stroke:#00A7CD;stroke-width:4.8936;stroke-miterlimit:10;}
	.st12{fill:none;stroke:#FAFCFF;stroke-width:2.5862;stroke-miterlimit:10;}
	.st13{opacity:0.16;fill:#FFFFFF;}
</style>
<g>
	<g class="st0">
		<linearGradient id="SVGID_1_" gradientUnits="userSpaceOnUse" x1="49.8643" y1="102.277" x2="49.8643" y2="4.4622">
			<stop  offset="0.4735" style="stop-color:#A3DFED"/>
			<stop  offset="0.4794" style="stop-color:#5DD1E8"/>
		</linearGradient>
		<path class="st1" d="M84.1,97.2H15.6c-3.8,0-6.9-3.1-6.9-6.9l-5.8-80c0-3.8,3.1-6.9,6.9-6.9h80c3.8,0,6.9,3.1,6.9,6.9l-5.8,80
			C91,94.1,87.9,97.2,84.1,97.2z"/>
	</g>
	<g id="lowRiderHandles_00000001623035948438096200000009237475482095423159_">
		<g>
			<g>
				<path class="st2" d="M33.2,35.5c-1.1,0.2-2.2-0.3-2.6-1.4c-0.6-1.3,0-2.7,1.2-3.3l5.7-2.6c1.3-0.6,2.7,0,3.3,1.2
					c0.6,1.3,0,2.7-1.2,3.3l-5.7,2.6C33.7,35.4,33.5,35.5,33.2,35.5z"/>
				<path class="st3" d="M39.6,32.7l-5.7,2.6c-0.2,0.1-0.4,0.2-0.7,0.2c-0.8,0.2-1.6-0.2-2.2-0.8c0.1,0,0.2,0,0.3,0
					c0.3,0,0.4-0.1,0.7-0.2l5.7-2.6c1.3-0.6,1.8-2,1.2-3.3c-0.1-0.3-0.3-0.5-0.4-0.7c1-0.1,2,0.5,2.4,1.4
					C41.4,30.7,40.9,32.1,39.6,32.7z"/>
				<path class="st4" d="M41.1,30.2c-0.7-1-2-1.4-3.1-0.9l-5.7,2.6c-0.9,0.4-1.5,1.4-1.4,2.5c-0.1-0.1-0.1-0.2-0.2-0.3
					c-0.6-1.3,0-2.7,1.2-3.3l5.7-2.6c1.3-0.6,2.7,0,3.3,1.2C41,29.6,41.1,30,41.1,30.2z"/>
				<path class="st5" d="M32.9,36.2c-1.2,0-2.3-0.7-2.8-1.8c-0.7-1.5,0-3.3,1.5-4.1l5.7-2.6c1.5-0.7,3.3,0,4.1,1.5
					c0.7,1.5,0,3.3-1.5,4.1l-5.7,2.6c-0.3,0.1-0.5,0.2-0.8,0.3C33.2,36.1,33.1,36.2,32.9,36.2z M38.6,28.5c-0.3,0-0.5,0.1-0.8,0.2
					l-5.7,2.6c-0.9,0.4-1.4,1.6-0.9,2.5c0.3,0.8,1.2,1.2,2,1.1l0,0c0.2,0,0.3-0.1,0.5-0.2l5.7-2.6c0.9-0.4,1.4-1.6,0.9-2.5
					C40,29,39.3,28.5,38.6,28.5z"/>
			</g>
		</g>
		<g>
			<g>
				<ellipse transform="matrix(0.9875 -0.1578 0.1578 0.9875 -4.2335 6.6406)" class="st2" cx="39.7" cy="30" rx="4.2" ry="4.7"/>
				<ellipse transform="matrix(0.9875 -0.1578 0.1578 0.9875 -4.347 6.7304)" class="st3" cx="40.2" cy="30.7" rx="3.8" ry="4.2"/>
				<path class="st5" d="M39.9,35.2c-1,0-2-0.3-2.9-1c-1-0.8-1.7-2-2-3.4c-0.3-1.4,0.1-2.7,0.8-3.8c0.8-1.1,1.9-1.9,3.1-2
					c2.6-0.4,5.1,1.5,5.6,4.4l0,0c0.3,1.4-0.1,2.7-0.8,3.8c-0.8,1.1-1.9,1.9-3.1,2C40.3,35.2,40,35.2,39.9,35.2z M39.6,25.9
					c-0.2,0-0.3,0-0.5,0c-0.9,0.2-1.8,0.7-2.4,1.5s-0.8,2-0.6,3.1c0.2,1.1,0.7,2,1.5,2.6c0.8,0.7,1.8,0.9,2.7,0.8
					c0.9-0.2,1.8-0.7,2.4-1.5c0.6-0.8,0.8-2,0.6-3.1C43,27.3,41.4,25.9,39.6,25.9z"/>
			</g>
		</g>
		<g>
			<g>
				<g>
					<path class="st6" d="M60.8,69.7c-1,0-2-0.6-2.3-1.5L43.3,31.3l-2.5,0.8c-0.3,0.1-0.5,0.1-0.7,0.1c-0.9,0-1.8-0.7-2.1-1.8v-0.1
						c-0.4-1.4,0.1-2.6,1.4-3l4.7-1.5c0.3-0.1,0.5-0.1,0.8-0.1c0.9,0,1.7,0.5,2.2,1.3c0.1,0.1,0.1,0.2,0.2,0.3l16.1,39
						c0.5,1.3-0.1,2.7-1.4,3.2c-0.3,0.1-0.5,0.2-0.8,0.2H60.8z"/>
					<path class="st5" d="M44.7,26.2c0.7,0,1.4,0.3,1.7,0.9c0,0.1,0.1,0.2,0.1,0.2l2.5,6.3l13.6,32.8c0.4,0.9-0.1,2.1-1,2.5
						c-0.2,0.1-0.4,0.2-0.7,0.2h-0.1c-0.8,0-1.4-0.4-1.8-1.2L45.3,34.6l-1.7-4.2l-3,1c-0.2,0.1-0.3,0.1-0.5,0.1
						c-0.8,0-1.3-0.5-1.6-1.4l0,0c-0.3-1-0.1-2,0.9-2.4l4.7-1.5C44.4,26.2,44.5,26.2,44.7,26.2 M44.7,25.1L44.7,25.1
						c-0.3,0-0.7,0.1-0.9,0.2l-4.7,1.5c-1.4,0.5-2.1,2-1.7,3.6v0.1l0.1,0.2c0.4,1.3,1.4,2,2.6,2c0.3,0,0.6-0.1,0.9-0.2l2-0.7
						l1.3,3.1L58,68.4c0.5,1.2,1.6,1.9,2.8,1.9c0.1,0,0.1,0,0.2,0c0.3,0,0.7-0.1,1-0.3c1.5-0.7,2.3-2.5,1.7-4L50.2,33.3L47.7,27
						c-0.1-0.1-0.1-0.3-0.2-0.3C46.8,25.7,45.8,25.1,44.7,25.1L44.7,25.1z"/>
				</g>
				<path class="st7" d="M61.6,69c-0.2,0.1-0.4,0.2-0.7,0.2c-0.8,0-1.5-0.4-1.9-1.2l-4.6-11.2l3.6-1.4l4.6,11
					C63,67.5,62.5,68.6,61.6,69z"/>
				<g class="st8">
					<path class="st5" d="M61.6,69c-0.2,0.1-0.4,0.2-0.7,0.2c-0.8,0-1.5-0.4-1.9-1.2l-2-4.9l3.3-2l2.2,5.4
						C63,67.5,62.5,68.6,61.6,69z"/>
				</g>
				<g>
					<path class="st7" d="M48.7,32.9L45,33.9l-1.4-3.4l-3,1c-1,0.3-1.8-0.3-2.1-1.3l0,0l7.9-3c0,0.1,0.1,0.2,0.1,0.2L48.7,32.9z"/>
					<g class="st8">
						<polygon class="st5" points="44.6,32.7 48.5,32.2 47.2,29 43.6,30.5 						"/>
					</g>
				</g>
			</g>
		</g>
		<g>
			<g>
				<g>
					<path class="st6" d="M50.2,72.9c-0.3-0.7-0.3-1.4,0.1-2c0.3-0.7,0.8-1.1,1.5-1.3L64,66.2L49.1,25.1c-0.3-0.6-0.2-1.3,0.1-1.9
						c0.3-0.6,0.8-1,1.4-1.3c0.3-0.1,0.6-0.2,0.8-0.2c1,0,2,0.7,2.4,1.6l15.8,43.6c0.3,0.7,0.2,1.4-0.2,2c-0.3,0.6-0.8,1.1-1.5,1.3
						l-12,3.3l2,4.9L53.2,80L50.2,72.9z"/>
					<path class="st5" d="M51.4,22.3c0.8,0,1.5,0.5,1.8,1.3l1.1,3.1L69,67.2c0.2,0.5,0.2,1-0.1,1.5c-0.3,0.5-0.7,0.8-1.2,0.9
						l-12.6,3.5l2,5l-1.9,0.6l-1.8,0.6l-2.7-6.7c-0.2-0.5-0.2-1.1,0.1-1.5c0.3-0.5,0.7-0.8,1.2-1l12.7-3.6l-12.6-35l-1.4-4l-1-2.7
						c-0.3-1,0.2-2.1,1.2-2.5C51,22.4,51.2,22.3,51.4,22.3 M51.4,21.2c-0.3,0-0.7,0.1-1,0.2c-1.6,0.6-2.4,2.3-1.9,3.9l0.9,2.7l1.4,4
						l12.2,33.9L51.7,69c-0.8,0.3-1.5,0.8-2,1.6c-0.4,0.8-0.4,1.7-0.1,2.5l2.7,6.7l0.4,1l1-0.3l1.8-0.6l1.9-0.6l1.2-0.4l-0.5-1.1
						L56.6,74l11.4-3.1c0.8-0.3,1.5-0.8,1.9-1.5c0.4-0.8,0.4-1.6,0.2-2.5L55.4,26.2l-1.1-3.1C53.9,22,52.8,21.2,51.4,21.2L51.4,21.2
						z"/>
				</g>
				<path class="st7" d="M68.9,68.7c-0.3,0.5-0.7,0.8-1.2,0.9l-12.6,3.5l2,5l-1.9,0.6l-2.5-6.4l15.3-4.6L55.2,32.5l-2.4,0.6
					l-2.2-5.5l3.7-0.9L69,67.2C69.2,67.7,69.1,68.2,68.9,68.7z"/>
				<g class="st8">
					<polygon class="st5" points="52.3,31.5 56.2,31 54.9,28.3 51.3,29.7 					"/>
				</g>
				<g class="st8">
					<path class="st5" d="M68.9,68.7c-0.3,0.5-0.7,0.8-1.2,0.9l-12.6,3.5l2,4.8l-2,0.3l-2.4-5.9l2.7-0.8l12.5-3.7l1.2-0.4
						C69.1,67.7,69.1,68.2,68.9,68.7z"/>
				</g>
			</g>
		</g>
		<path class="st9" d="M42.3,29.2"/>
		<g>
			<g>
				<circle class="st2" cx="50.8" cy="24.8" r="5.1"/>
				<path class="st3" d="M55.9,25.5c-0.4,2.8-3.1,4.8-5.9,4.3c-1.8-0.3-3.2-1.4-3.9-3c0.7,0.6,1.6,1.1,2.6,1.2
					c2.8,0.4,5.4-1.5,5.9-4.3c0.2-1,0-2-0.4-2.9C55.5,22,56.2,23.7,55.9,25.5z"/>
				<path class="st5" d="M50.8,30.5c-3.1,0-5.7-2.5-5.7-5.7s2.5-5.7,5.7-5.7s5.7,2.5,5.7,5.7S53.9,30.5,50.8,30.5z M50.8,20.2
					c-2.5,0-4.6,2-4.6,4.6s2,4.6,4.6,4.6c2.5,0,4.6-2,4.6-4.6S53.3,20.2,50.8,20.2z"/>
			</g>
		</g>
		<g>
			<path class="st10" d="M51.8,21.2l-0.8-0.3C51.3,21,51.6,21.1,51.8,21.2z"/>
		</g>
		<g>
			<g>
				<path class="st2" d="M52.6,25.7c-0.3,0.7-0.7,1.3-1.4,1.5l-4.9,2.5l-2.5-4.8l4.9-2.5c0.6-0.3,1.4-0.3,2-0.2
					c0.7,0.3,1.3,0.7,1.5,1.4C52.8,24.4,52.8,25.1,52.6,25.7z"/>
				<path class="st3" d="M52.8,24.9c0,0.3,0,0.6-0.2,0.8c-0.3,0.7-0.7,1.3-1.4,1.5l-4.9,2.5l-0.5-1l6.2-3.5
					C52.3,25.2,52.5,25.1,52.8,24.9z"/>
				<path class="st4" d="M51.3,22c-0.3-0.2-0.5-0.3-0.8-0.3c-0.7-0.2-1.4-0.1-2,0.3l-4.8,2.8l0.6,0.9l6.3-3.4
					C50.8,22.2,51.1,22,51.3,22z"/>
				<path class="st5" d="M53.4,23.2c-0.4-0.9-1.3-1.6-2.2-1.9c-0.9-0.3-2-0.3-2.9,0.3l-6,3.1l3.5,6.8l6-3.1c0.9-0.4,1.6-1.3,1.9-2.2
					C53.9,25.2,53.9,24.1,53.4,23.2z M46.3,29.8l-2.5-4.8l4.9-2.5c0.6-0.3,1.4-0.3,2-0.2c0.7,0.3,1.3,0.7,1.5,1.4
					c0.3,0.7,0.4,1.4,0.2,2s-0.7,1.3-1.4,1.5L46.3,29.8z"/>
			</g>
			<g>
				<ellipse transform="matrix(0.2076 -0.9782 0.9782 0.2076 8.2695 65.5822)" class="st2" cx="44.6" cy="27.7" rx="3.2" ry="3.2"/>
				<path class="st5" d="M44.6,31.5c-0.4,0-0.8-0.1-1.2-0.2c-0.9-0.3-1.8-1-2.2-1.9l0,0c-0.9-1.9-0.2-4.2,1.7-5.2
					c1.9-0.9,4.2-0.2,5.2,1.7c0.9,1.9,0.2,4.2-1.7,5.2C45.8,31.4,45.2,31.5,44.6,31.5z M42.2,29c0.3,0.7,0.8,1.1,1.5,1.4
					c0.7,0.3,1.4,0.2,2-0.2c1.3-0.7,1.9-2.3,1.2-3.6c-0.7-1.3-2.3-1.9-3.6-1.2C42.1,26,41.6,27.6,42.2,29L42.2,29z"/>
			</g>
		</g>
	</g>
	<g>
		<path class="st11" d="M83.5,96.4H16.2c-3.7,0-6.8-3.1-6.8-6.8L3.8,11c0-3.7,3.1-6.8,6.8-6.8h78.6c3.7,0,6.8,3.1,6.8,6.8l-5.7,78.6
			C90.3,93.4,87.2,96.4,83.5,96.4z"/>
	</g>
	<g class="st0">
		<path class="st12" d="M84.7,97.2H15.3c-3.9,0-7-3.2-7-7L2.4,9.8c0-3.9,3.2-7,7-7h81.1c3.9,0,7,3.2,7,7l-5.8,80.4
			C91.7,94.1,88.6,97.2,84.7,97.2z"/>
	</g>
	<path class="st13" d="M78,38.2l-13.2-1.3c-10.3-1-20.7,0.4-30.3,4.1l-16,6.2c-4.4,1.7-9.2-1.4-9.5-6L7.4,16
		c-0.3-4.6,3.3-8.4,7.9-8.4h73.5c2,0,3.6,1.7,3.5,3.7l-1,15.6C90.8,33.8,84.8,38.9,78,38.2z"/>
</g>
</svg>
