<?xml version="1.0" encoding="utf-8"?>
<!-- Generator: Adobe Illustrator 26.0.2, SVG Export Plug-In . SVG Version: 6.00 Build 0)  -->
<svg version="1.1" id="Layer_1" xmlns="http://www.w3.org/2000/svg" xmlns:xlink="http://www.w3.org/1999/xlink" x="0px" y="0px"
	 viewBox="0 0 100 100" style="enable-background:new 0 0 100 100;" xml:space="preserve">
<style type="text/css">
	.st0{enable-background:new    ;}
	.st1{fill:url(#SVGID_1_);}
	.st2{fill:#AEDCDD;stroke:#142C4D;stroke-width:1.0152;stroke-linecap:round;stroke-linejoin:round;stroke-miterlimit:10;}
	.st3{fill:#71AFAF;}
	.st4{fill:#EE0000;}
	.st5{fill:#142C4D;}
	.st6{fill:#27579A;}
	.st7{opacity:0.6;}
	.st8{fill:#AEDCDD;}
	.st9{opacity:0.57;}
	.st10{fill:#FFFFFF;}
	.st11{opacity:0.2;}
	.st12{fill:#142C4D;stroke:#142C4D;stroke-width:1.0152;stroke-miterlimit:10;}
	.st13{fill:#08192D;}
	.st14{fill:none;stroke:#00A7CD;stroke-width:4.8936;stroke-miterlimit:10;}
	.st15{fill:none;stroke:#FAFCFF;stroke-width:2.5862;stroke-miterlimit:10;}
	.st16{opacity:0.16;fill:#FFFFFF;}
</style>
<g>
	<g class="st0">
		<linearGradient id="SVGID_1_" gradientUnits="userSpaceOnUse" x1="49.8643" y1="102.277" x2="49.8643" y2="4.4622">
			<stop  offset="0.4735" style="stop-color:#A3DFED"/>
			<stop  offset="0.4794" style="stop-color:#5DD1E8"/>
		</linearGradient>
		<path class="st1" d="M84.1,97.2H15.6c-3.8,0-6.9-3.1-6.9-6.9l-5.8-80c0-3.8,3.1-6.9,6.9-6.9h80c3.8,0,6.9,3.1,6.9,6.9l-5.8,80
			C91,94.1,87.9,97.2,84.1,97.2z"/>
	</g>
	<g id="triHandles_00000052784437709885703770000007912044441334009239_">
		<g>
			<path class="st2" d="M65.1,49.4c-1.3,0-2.7-0.3-4.1-0.5c-3.2-0.7-10.8-1.1-21.5,0c-0.7,0.1-1.3-0.4-1.4-1.1
				c-0.1-0.7,0.4-1.3,1.1-1.4c11-1.1,18.9-0.7,22.3,0c3.6,0.7,5.7,1.2,8.6-2.3c3.4-4.1,10.8-10.3,11.1-10.6c0.5-0.4,1.3-0.4,1.8,0.2
				c0.4,0.5,0.4,1.3-0.2,1.8c-0.1,0.1-7.5,6.3-10.7,10.2C69.7,48.6,67.4,49.4,65.1,49.4z"/>
		</g>
		<path class="st3" d="M82.5,35c-0.1,0.1-7.6,6.3-10.8,10.3c-2,2.5-4.1,3.6-6.6,3.6c-1.3,0-2.6-0.2-4-0.5c-1.8-0.4-5-0.7-9.2-0.7
			c-3.5,0-7.6,0.2-12.5,0.7c-0.4,0.1-0.8-0.2-0.8-0.7c0-0.1,0-0.2,0-0.2c0.2,0.1,0.4,0.2,0.5,0.2c4.8-0.5,9-0.7,12.5-0.7
			c4.2,0,7.4,0.3,9.2,0.7c1.4,0.3,2.6,0.5,4,0.5c2.6,0,4.6-1.1,6.6-3.6c3.2-4,10.7-10.2,10.8-10.3c0.1-0.1,0.2-0.2,0.2-0.4
			c0.1,0.1,0.1,0.1,0.1,0.1C82.9,34.3,82.9,34.8,82.5,35z"/>
		<g>
			<g>
				<path class="st4" d="M24.6,50.8c-0.1,0-0.1,0-0.2-0.1c-0.1-0.1-0.2-0.1-0.3-0.3c-0.1-0.1-0.1-0.2,0-0.4c0.9-2.2,3.4-3.5,7.2-3.9
					c0.8-0.1,1.6-0.1,2.5-0.1c1.6,0,2.8,0.1,2.9,0.2c0.3,0.1,0.5,0.3,0.4,0.5s-0.2,0.4-0.5,0.4h-0.1c-0.1,0-1.3-0.1-2.8-0.1
					c-2.8,0-7.6,0.4-8.8,3.4C25,50.7,24.8,50.8,24.6,50.8z"/>
				<path class="st5" d="M33.8,46.3c1.7,0,2.9,0.1,2.9,0.2c0.1,0,0.2,0.1,0.2,0.3c0,0.1-0.1,0.2-0.2,0.2c0,0,0,0-0.1,0
					c-0.1,0-1.2-0.1-2.8-0.1c-3.1,0-7.8,0.5-9,3.5c-0.1,0.1-0.1,0.2-0.2,0.2c-0.1,0-0.1,0-0.1,0c-0.1-0.1-0.2-0.2-0.1-0.4
					c0.8-2,3.3-3.4,7-3.7C32.2,46.4,33.1,46.3,33.8,46.3 M33.8,45.8c-0.9,0-1.7,0.1-2.5,0.1c-4,0.4-6.5,1.8-7.4,4.1
					c-0.1,0.2-0.1,0.4,0,0.6c0.1,0.2,0.2,0.4,0.4,0.4c0.1,0.1,0.2,0.1,0.3,0.1c0.3,0,0.6-0.2,0.7-0.5c1.1-2.8,5.9-3.2,8.6-3.2
					c1.6,0,2.7,0.1,2.8,0.1c0,0,0.1,0,0.1,0c0.4,0,0.7-0.3,0.8-0.7c0-0.2-0.1-0.4-0.2-0.5c-0.1-0.2-0.3-0.2-0.5-0.3
					C36.8,45.9,35.5,45.8,33.8,45.8L33.8,45.8z"/>
			</g>
		</g>
		<g>
			<g>
				<path class="st4" d="M26.5,52.5c-0.1,0-0.1,0-0.1,0c-0.1-0.1-0.2-0.1-0.3-0.2c-0.1-0.1-0.1-0.2-0.1-0.4c0.5-2.3,2.8-4,6.6-4.9
					c2.8-0.7,5.4-0.8,5.4-0.8l0,0c0.3,0,0.5,0.2,0.5,0.5c0,0.1-0.1,0.2-0.1,0.4c-0.1,0.1-0.2,0.2-0.4,0.2c-0.1,0-9.9,0.4-11,4.9
					c-0.1,0.2-0.2,0.4-0.4,0.4H26.5z"/>
				<path class="st5" d="M38,46.5c0.1,0,0.2,0.1,0.2,0.2S38.1,47,38,47s-10.1,0.3-11.3,5.1c0,0.1-0.1,0.2-0.2,0.2c0,0,0,0-0.1,0
					h-0.1c-0.1-0.1-0.2-0.2-0.2-0.3c0.5-2.2,2.8-3.8,6.4-4.7C35.3,46.5,38,46.5,38,46.5L38,46.5 M38,46L38,46L38,46
					c-0.1,0-2.8,0.1-5.4,0.8c-3.8,1-6.2,2.8-6.8,5.1c-0.1,0.2,0,0.4,0.1,0.6c0.1,0.2,0.3,0.3,0.5,0.4c0.1,0,0.1,0,0.2,0
					c0.1,0,0.1,0,0.1,0c0.3-0.1,0.5-0.3,0.7-0.6c1.1-4.4,10.7-4.7,10.8-4.7c0.2,0,0.4-0.1,0.5-0.2c0.1-0.1,0.2-0.4,0.2-0.5
					C38.7,46.3,38.4,46,38,46L38,46z"/>
			</g>
		</g>
		<g>
			<path class="st6" d="M35,47.6c-0.3-0.2-0.4-0.5-0.4-0.8c0-0.5,0.4-0.9,0.8-1l2.4-0.5l-1,3.5L35,47.6z"/>
			<path class="st5" d="M37.4,45.6l-0.8,2.8l-1.5-1c-0.2-0.1-0.4-0.4-0.4-0.7c0-0.4,0.2-0.7,0.6-0.8L37.4,45.6 M38.1,44.9l-0.8,0.2
				l-2,0.4c-0.6,0.1-1,0.7-1,1.3c0,0.4,0.2,0.8,0.5,1.1l1.5,1l0.6,0.4l0.2-0.7l0.8-2.8L38.1,44.9L38.1,44.9z"/>
		</g>
		<g>
			<path class="st6" d="M36.9,50.7v-1c0-3.5,2.8-6.3,6.3-6.3H47c1.7,0,3.1,1.4,3.1,3.1v4.3C50,50.7,36.9,50.7,36.9,50.7z"/>
			<path class="st5" d="M47,43.8c1.4,0,2.6,1.1,2.6,2.6v3.8H37.4v-0.5c0-3.2,2.6-5.8,5.8-5.8L47,43.8 M47,42.8h-3.8
				c-3.8,0-6.8,3.1-6.8,6.8v0.5v1h1h12.2h1v-1v-3.8C50.6,44.4,49,42.8,47,42.8L47,42.8z"/>
		</g>
		<g class="st7">
			<path class="st8" d="M49.2,44.6c-0.1,0-0.1,0-0.2,0h-6.8c-2.6,0-4.8,1.9-4.8,4.2v0.8h-0.1V48c0-2.3,1.9-4.2,4.2-4.2h6
				C48.3,43.8,48.8,44.1,49.2,44.6z"/>
		</g>
		<g>
			<path class="st6" d="M17.7,55c0.1-0.2,1.6-4.2,5.3-4.5l9.8-0.8c0.1,0,0.2,0,0.2,0c3.1,0,3.4,5,3.4,5.3v0.5l-18.9,0.2L17.7,55z"/>
			<path class="st5" d="M32.9,50.3c2.7,0,2.8,4.7,2.8,4.7l-17.7,0.2c0,0,1.4-4,4.8-4.2l9.8-0.8C32.8,50.3,32.9,50.3,32.9,50.3
				 M32.9,49.2L32.9,49.2c-0.1,0-0.2,0-0.3,0L22.9,50c-4,0.3-5.6,4.7-5.7,4.8l-0.5,1.4h1.5l17.7-0.2h1l-0.1-1
				C36.7,52.9,35.8,49.2,32.9,49.2L32.9,49.2z"/>
		</g>
		<g class="st9">
			<path class="st5" d="M35.1,52.2c0.2,0.6,0.4,1.2,0.5,1.7c0.1,0.7,0.1,1.1,0.1,1.1L32,55l-7.1,0.1l-6.7-0.1
				c0.2-0.4,0.6-1.3,1.4-2.2L35.1,52.2"/>
		</g>
		<g>
			<path class="st6" d="M30.3,55.5v-3.8c0-0.1,0-0.9,0.7-1.7c0.7-0.7,1.7-1,3.1-1H51c0.9,0,1.7,0.4,2.3,1.1c0.6,0.7,0.6,1.7,0.1,2.5
				l-0.9,1.2l-5.6,2L30.3,55.5z"/>
			<path class="st5" d="M51,49.7c0.7,0,1.4,0.3,1.9,0.9c0.4,0.5,0.5,1.3,0.1,1.8l-0.8,1.1l-5.3,1.8L30.9,55v-3.2
				c0,0-0.1-2.2,3.2-2.2H51 M51,48.6H34.1c-1.5,0-2.6,0.4-3.4,1.2c-0.8,0.9-0.9,1.9-0.8,2v3.2v1h1l15.9,0.1h0.2l0.2-0.1l5.3-1.8
				l0.3-0.1l0.2-0.2l0.8-1.1c0.7-1,0.7-2.2-0.1-3.1C53,49.1,52,48.6,51,48.6L51,48.6z"/>
		</g>
		<g class="st9">
			<path class="st5" d="M50.9,52.2h-4.2L30.8,52V55l15.9,0.2l5.3-1.8l0.8-1.1c0.2-0.2,0.3-0.6,0.3-0.9c0-0.4-0.1-0.7-0.4-1
				C52.9,50.6,52.9,52.2,50.9,52.2z"/>
		</g>
		<g>
			<path class="st8" d="M47.4,55.3c-0.1,0-0.2,0-0.3-0.1l-5-3.3c-0.2-0.1-0.2-0.4-0.2-0.6c0.1-0.2,0.2-0.4,0.5-0.4h6.3
				c0.1,0,0.2,0,0.3,0.1l5,3.3c0.2,0.1,0.2,0.4,0.2,0.6c-0.1,0.2-0.2,0.4-0.5,0.4H47.4z"/>
			<g>
				<path class="st5" d="M48.8,51.6l5,3.3h-6.4l-4.9-3.3H48.8 M48.8,50.6h-6.3c-0.4,0-0.8,0.3-1,0.7c-0.1,0.4,0.1,0.9,0.4,1.1l5,3.3
					c0.2,0.1,0.4,0.2,0.5,0.2h6.3c0.4,0,0.8-0.3,1-0.7s-0.1-0.9-0.4-1.1l-5-3.3C49.2,50.6,49,50.6,48.8,50.6L48.8,50.6z"/>
			</g>
		</g>
		<g>
			<g>
				<path class="st4" d="M47.9,59.2c-1.3,0-2.4-1.1-2.4-2.4s1.1-2.4,2.4-2.4h13.3c1.3,0,2.4,1.1,2.4,2.4s-1.1,2.4-2.4,2.4H47.9z"/>
				<path class="st5" d="M61.4,54.9c1.1,0,1.9,0.8,1.9,1.9s-0.8,1.9-1.9,1.9H47.9c-1.1,0-1.9-0.8-1.9-1.9s0.8-1.9,1.9-1.9H61.4
					 M61.4,53.8H47.9c-1.6,0-2.9,1.3-2.9,2.9s1.3,2.9,2.9,2.9h13.3c1.6,0,2.9-1.3,2.9-2.9S62.9,53.8,61.4,53.8L61.4,53.8z"/>
			</g>
		</g>
		<g class="st7">
			<path class="st10" d="M59.2,54.9c-0.2,0.2-0.4,0.5-0.5,0.7H47.5c-0.4,0-0.8,0-1.1,0.1c0.3-0.5,0.9-0.8,1.5-0.8H59.2z"/>
		</g>
		<g class="st11">
			<path d="M63.2,56.8c0,1.1-0.8,1.9-1.9,1.9H47.9c-0.9,0-1.7-0.7-1.9-1.5h15c0.9,0,1.7-0.5,2-1.1C63.2,56.2,63.2,56.5,63.2,56.8z"
				/>
		</g>
		<g>
			<g>
				<path class="st5" d="M61.4,60.2c-1.9,0-3.4-1.6-3.4-3.4c0-0.5,0.1-0.9,0.3-1.4c0.5-1.3,1.8-2.1,3.2-2.1h13.4
					c1.9,0,3.4,1.6,3.4,3.4c0,0.1,0,0.1,0,0.2c0,0.1,0,0.1,0,0.2c0,0,0,0.1,0,0.1s0,0.1,0,0.2c0,0.1,0,0.1-0.1,0.2
					c-0.4,1.6-1.7,2.6-3.4,2.6H61.4z"/>
				<path class="st5" d="M74.8,53.8c1.6,0,2.9,1.3,2.9,2.9c0,0.1,0,0.1,0,0.2c0,0.1,0,0.1,0,0.1s0,0.1,0,0.1s0,0.1,0,0.1
					c0,0.1,0,0.1-0.1,0.2c-0.3,1.3-1.4,2.2-2.8,2.2H61.4c-1.6,0-2.9-1.3-2.9-2.9c0-0.4,0.1-0.8,0.2-1.1c0.5-1,1.5-1.7,2.7-1.7
					L74.8,53.8 M74.8,52.8H61.4c-1.6,0-3,1-3.6,2.4c-0.2,0.5-0.3,1-0.3,1.6c0,2.2,1.7,4,4,4h13.4c1.8,0,3.4-1.3,3.8-3
					c0-0.1,0.1-0.2,0.1-0.2s0-0.1,0-0.2c0-0.1,0-0.1,0-0.1c0-0.1,0-0.1,0-0.2l0,0l0,0c0-0.1,0-0.1,0-0.2
					C78.8,54.6,77,52.8,74.8,52.8L74.8,52.8z"/>
			</g>
		</g>
		<g class="st7">
			<path class="st8" d="M77.8,56.8c0,0.1,0,0.1,0,0.2c0,0.1,0,0.1,0,0.1s0,0.1,0,0.1s0,0.1,0,0.1c0,0.1,0,0.1-0.1,0.2
				c-0.3-1.3-1.4-2.2-2.8-2.2H60.2c-0.5,0-1,0.1-1.4,0.4c0.5-1,1.5-1.7,2.7-1.7h13.4C76.4,53.8,77.8,55.2,77.8,56.8z"/>
		</g>
		<g>
			<g>
				<path class="st8" d="M63.8,66.5c-0.3,0-0.6-0.1-0.8-0.3c-0.3-0.3-0.2-0.6-0.2-0.7c0.3-0.8,2.1-1.1,6.2-1.7
					c1.5-0.2,3-0.4,4.1-0.7c0.7-0.2,1.4-0.6,1.9-1.2l1.9-3.5l-2.3-3.2c-0.4-0.6-0.2-1.4,0.3-1.7c0.3-0.2,0.7-0.3,1-0.3
					c0.6,0,1.1,0.3,1.4,0.8l2.6,3.7c0.4,0.5,0.4,1.3-0.1,1.8l-3.8,5.1c-0.2,0.3-0.5,0.5-1,0.6C72.9,65.5,66,66.4,63.8,66.5
					C63.9,66.4,63.9,66.5,63.8,66.5z"/>
				<path class="st5" d="M76,53.4c0.4,0,0.9,0.2,1.1,0.6l2.6,3.7c0.3,0.4,0.3,1,0,1.3l-3.8,5.1c-0.2,0.2-0.4,0.4-0.7,0.4
					c-2.3,0.4-9.1,1.3-11.3,1.5h-0.1c-0.2,0-0.4-0.1-0.5-0.2c-1.1-1.3,6.3-1.7,10-2.5c0.8-0.2,1.6-0.7,2-1.3l2-3.8l-2.4-3.4
					c-0.3-0.4-0.2-1,0.2-1.3C75.4,53.5,75.7,53.4,76,53.4 M76,52.7L76,52.7c-0.4,0-0.9,0.1-1.3,0.4c-0.4,0.2-0.6,0.6-0.7,1.1
					c-0.1,0.4,0,0.9,0.2,1.3l2.1,3.1l-1.7,3.3c-0.4,0.5-1,0.8-1.6,1c-1.1,0.2-2.6,0.5-4.1,0.7c-4.5,0.7-6.2,1-6.5,2
					c-0.1,0.4-0.1,0.8,0.2,1.1c0.2,0.3,0.7,0.4,1,0.4c0.1,0,0.1,0,0.1,0c2.3-0.2,9.1-1.1,11.4-1.5c0.5-0.1,0.9-0.4,1.2-0.7l3.8-5.1
					c0.5-0.7,0.5-1.6,0.1-2.2l-2.6-3.7C77.4,53,76.7,52.7,76,52.7L76,52.7z"/>
			</g>
		</g>
		<path class="st12" d="M70.5,44.5l2.2,0.4c0.4,0.1,0.7,0,1-0.2l7.5-6.9c0.4-0.4,0.7-1,0.6-1.6l0,0c-0.1-0.8-0.8-1.4-1.6-1.3
			L79,35.1c-0.6,0.1-1.2,0.4-1.6,0.8l-7.3,7.7C69.8,43.9,70,44.5,70.5,44.5z"/>
		<path class="st13" d="M81.1,37.9l-7.5,6.8c-0.2,0.2-0.6,0.4-1,0.2l-2.2-0.4c-0.5-0.1-0.7-0.7-0.3-1l0.1-0.1l1.2,0.2
			c0.4,0.1,0.7-0.1,1-0.2l7.5-6.8c0.4-0.4,0.7-1,0.6-1.6l0,0c0.7,0.1,1.2,0.6,1.3,1.3C81.8,36.8,81.5,37.4,81.1,37.9z"/>
		<g>
			<circle class="st4" cx="76.2" cy="54.4" r="0.8"/>
			<path class="st5" d="M76.2,54c0.3,0,0.5,0.2,0.5,0.5s-0.2,0.5-0.5,0.5c-0.3,0-0.5-0.2-0.5-0.5S76,54,76.2,54 M76.2,53.4
				c-0.5,0-1,0.5-1,1s0.5,1,1,1c0.5,0,1-0.5,1-1S76.8,53.4,76.2,53.4L76.2,53.4z"/>
		</g>
	</g>
	<g>
		<path class="st14" d="M83.5,96.4H16.2c-3.7,0-6.8-3.1-6.8-6.8L3.8,11c0-3.7,3.1-6.8,6.8-6.8h78.6c3.7,0,6.8,3.1,6.8,6.8l-5.7,78.6
			C90.3,93.4,87.2,96.4,83.5,96.4z"/>
	</g>
	<g class="st0">
		<path class="st15" d="M84.7,97.2H15.3c-3.9,0-7-3.2-7-7L2.4,9.8c0-3.9,3.2-7,7-7h81.1c3.9,0,7,3.2,7,7l-5.8,80.4
			C91.7,94.1,88.6,97.2,84.7,97.2z"/>
	</g>
	<path class="st16" d="M78,38.2l-13.2-1.3c-10.3-1-20.7,0.4-30.3,4.1l-16,6.2c-4.4,1.7-9.2-1.4-9.5-6L7.4,16
		c-0.3-4.6,3.3-8.4,7.9-8.4h73.5c2,0,3.6,1.7,3.5,3.7l-1,15.6C90.8,33.8,84.8,38.9,78,38.2z"/>
</g>
</svg>
