<?xml version="1.0" encoding="utf-8"?>
<!-- Generator: Adobe Illustrator 26.0.2, SVG Export Plug-In . SVG Version: 6.00 Build 0)  -->
<svg version="1.1" id="Layer_1" xmlns="http://www.w3.org/2000/svg" xmlns:xlink="http://www.w3.org/1999/xlink" x="0px" y="0px"
	 viewBox="0 0 100 100" style="enable-background:new 0 0 100 100;" xml:space="preserve">
<style type="text/css">
	.st0{enable-background:new    ;}
	.st1{fill:url(#SVGID_1_);}
	.st2{fill:#43ADAF;}
	.st3{fill:#142C4D;}
	.st4{fill:#5656C1;}
	.st5{opacity:0.3;fill:#FFFFFF;enable-background:new    ;}
	.st6{fill:#7C7679;}
	.st7{fill:#168989;}
	.st8{fill:#AEDCDD;}
	.st9{opacity:0.34;}
	.st10{fill:#3F3A3D;}
	.st11{opacity:0.41;}
	.st12{fill:none;stroke:#00A7CD;stroke-width:4.8936;stroke-miterlimit:10;}
	.st13{fill:none;stroke:#FAFCFF;stroke-width:2.5862;stroke-miterlimit:10;}
	.st14{opacity:0.16;fill:#FFFFFF;}
</style>
<g>
	<g class="st0">
		<linearGradient id="SVGID_1_" gradientUnits="userSpaceOnUse" x1="49.8643" y1="102.277" x2="49.8643" y2="4.4622">
			<stop  offset="0.4735" style="stop-color:#A3DFED"/>
			<stop  offset="0.4794" style="stop-color:#5DD1E8"/>
		</linearGradient>
		<path class="st1" d="M84.1,97.2H15.6c-3.8,0-6.9-3.1-6.9-6.9l-5.8-80c0-3.8,3.1-6.9,6.9-6.9h80c3.8,0,6.9,3.1,6.9,6.9l-5.8,80
			C91,94.1,87.9,97.2,84.1,97.2z"/>
	</g>
	<g id="eBikeHandles_00000044899175088111284820000005264886752099291545_">
		<g>
			<g>
				<path class="st2" d="M51.8,33.7c-0.3,0-0.6-0.1-0.8-0.3c0,0-0.1-0.1-0.2-0.1c-0.5-0.1-0.9-0.3-1-0.8l-0.1-0.3l0.2-0.3l0.3-0.5
					c-1,0.2-2.1,0.2-3,0.2c-1.4,0-2.7-0.2-4-0.6c-0.3-0.1-0.6-0.3-0.8-0.6c-0.2-0.3-0.2-0.7-0.1-1c0.1-0.2,0.2-0.5,0.5-0.7
					c0.2-0.2,0.6-0.2,0.8-0.2c0.1,0,0.2,0,0.3,0c1.2,0.3,2.4,0.5,3.6,0.5c2.1,0,4.3-0.5,6.7-1.3c0.1,0,0.3-0.1,0.5-0.1
					c0.5,0,0.8,0.2,1,0.6c0.3,0.5,0.3,1.2,0,1.6l-2.8,3.5C52.5,33.6,52.1,33.7,51.8,33.7z"/>
				<path class="st3" d="M54.5,28.4c0.2,0,0.3,0.1,0.5,0.2c0.1,0.2,0.1,0.5,0,0.7l-2.8,3.5C52.1,32.9,52,33,51.8,33
					c-0.1,0-0.2,0-0.3-0.1c-0.2-0.2-1.2-0.3-1-0.7l1.8-2.2c-1.8,0.6-3.5,0.8-5.1,0.8c-1.3,0-2.5-0.2-3.9-0.6
					c-0.3-0.1-0.5-0.3-0.5-0.7c0-0.1,0.1-0.2,0.2-0.3s0.2-0.1,0.3-0.1h0.1c1.3,0.3,2.5,0.5,3.8,0.5c2.2,0,4.5-0.5,6.9-1.4
					C54.4,28.4,54.5,28.4,54.5,28.4 M54.5,26.9L54.5,26.9L54.5,26.9c-0.2,0-0.5,0-0.7,0.1c-2.3,0.8-4.4,1.3-6.5,1.3
					c-1.2,0-2.3-0.1-3.5-0.5c-0.1,0-0.3-0.1-0.6-0.1c-0.5,0-0.9,0.1-1.3,0.5c-0.3,0.2-0.6,0.7-0.7,1.2c-0.1,0.6-0.1,1,0.2,1.6
					c0.2,0.5,0.7,0.8,1.3,0.9c1.5,0.3,2.9,0.6,4.3,0.6c0.6,0,1.2,0,1.6-0.1c0,0.1,0,0.3,0,0.5c0.2,0.8,0.9,1.2,1.5,1.4
					c0,0,0.1,0,0.1,0.1c0.3,0.2,0.8,0.3,1.2,0.3c0.6,0,1.3-0.2,1.6-0.8l2.8-3.5c0.6-0.7,0.6-1.7,0.1-2.5
					C55.8,27.2,55.2,26.9,54.5,26.9L54.5,26.9L54.5,26.9z"/>
			</g>
		</g>
		<g>
			<path class="st4" d="M56.8,35.4h-0.1l-5.4-1.2c-0.1,0-0.2-0.1-0.3-0.2l-1.8-2.4c-0.1-0.2-0.1-0.5,0-0.7c0.1-0.2,0.3-0.3,0.6-0.3
				c0,0,0,0,0.1,0l4.8,0.6c0.1,0,0.3,0.1,0.5,0.2l2.4,3c0.1,0.2,0.2,0.5,0,0.7C57.3,35.3,57.1,35.4,56.8,35.4z"/>
			<path class="st3" d="M49.6,31.2l4.8,0.6l2.4,3l-5.4-1.2L49.6,31.2 M49.6,29.9c-0.5,0-0.9,0.2-1.2,0.7c-0.2,0.5-0.2,1,0.1,1.4
				l1.8,2.4c0.2,0.2,0.5,0.5,0.7,0.5l5.4,1.2c0.1,0,0.2,0,0.2,0c0.5,0,0.8-0.2,1-0.6c0.2-0.5,0.2-1-0.1-1.5l-2.4-3
				c-0.2-0.2-0.5-0.5-0.8-0.5L49.6,29.9C49.7,29.9,49.7,29.9,49.6,29.9L49.6,29.9z"/>
		</g>
		<polygon class="st5" points="49.6,31.2 54.4,31.7 56.8,34.8 51.4,33.6 		"/>
		<g>
			<g>
				<path class="st6" d="M59.5,36.2c-1-1.4-2.9-1.7-4.4-0.8L34.7,48.8c-1.3,0.8-1.7,2.3-1.4,3.6l-0.1-0.1c-1-1.5-0.6-3.5,0.9-4.5
					l20.4-13.4c1.5-1,3.5-0.6,4.5,0.9C59.3,35.7,59.5,35.9,59.5,36.2z"/>
			</g>
			<path d="M58.2,39.8L37.8,53.2c-0.6,0.3-1.2,0.6-1.7,0.6c-1,0-2-0.5-2.7-1.3l0,0c-0.3-1.4,0.1-2.8,1.4-3.6l20.3-13.5
				c1.4-0.9,3.3-0.6,4.4,0.8C59.9,37.5,59.5,39,58.2,39.8z"/>
			<path d="M58.2,39.8L37.8,53.2c-0.6,0.3-1.2,0.6-1.7,0.6c-1,0-2-0.5-2.7-1.3l0,0c-0.3-1.4,0.1-2.8,1.4-3.6l20.3-13.5
				c1.4-0.9,3.3-0.6,4.4,0.8C59.9,37.5,59.5,39,58.2,39.8z"/>
			<g>
				<path class="st6" d="M43.8,64.1c-0.6-1.4-0.1-2.9,0.9-3.7L56.4,51l-2.5-10.6l-18.2,0.1c-1.8,0-3.2-1.5-3.2-3.2
					c0-1.7,1.4-3.2,3.2-3.2l20.7-0.1c1.5,0,2.8,1,3.1,2.5l3.6,15.1c0.3,1.2-0.1,2.5-1.2,3.2L50.6,64l2.7,6.6L47,72.4L43.8,64.1z"/>
				<path class="st3" d="M56.4,34.6c1.2,0,2.2,0.8,2.4,2l3.6,15.1c0.2,0.9-0.1,2-0.8,2.5l-11.8,9.6l2.7,6.3l-1.2,0.3l-3.7,1
					l-3.1-7.6c-0.5-1-0.1-2.2,0.7-2.9l12-9.7l-2.8-11.6l-18.8,0.1l0,0c-1.4,0-2.5-1.2-2.5-2.5s1.2-2.5,2.4-2.5L56.4,34.6L56.4,34.6
					 M56.4,33.1L56.4,33.1l-20.9,0.1c-1,0-2.1,0.5-2.8,1.2c-0.7,0.8-1.2,1.7-1.2,2.8c0,2.2,1.8,3.9,4,3.9L53.3,41l2.3,9.6l-11.3,9.1
					c-1.4,1.2-1.8,3-1.2,4.6l3.1,7.6l0.5,1.3l1.3-0.3l3.7-1l1.2-0.3l1.6-0.5l-0.6-1.5l-2.2-5.3l10.9-8.9c1.2-0.9,1.7-2.5,1.4-4
					l-3.6-15.1C59.8,34.4,58.2,33.1,56.4,33.1L56.4,33.1z"/>
			</g>
			<g>
				<path class="st2" d="M35.3,39.8c-0.7,0-1.3-0.2-1.8-0.6c-0.9-0.6-1.5-1.6-1.5-2.7v-0.2l0,0c0-0.9,0.3-1.7,0.9-2.3
					c0.6-0.7,1.5-1,2.4-1l20.5-0.1c1.8,0,3.3,1.5,3.3,3.3c0,0.3,0,0.7-0.1,0.9c-0.3,1.4-1.7,2.4-3.2,2.4L35.3,39.8z"/>
				<path class="st3" d="M55.8,33.6c1.5,0,2.8,1.2,2.8,2.8c0,0.2,0,0.6-0.1,0.8c-0.3,1.2-1.4,2-2.7,2l-20.5,0.1l0,0
					c-0.6,0-1-0.1-1.5-0.5c-0.7-0.5-1.2-1.3-1.3-2.2l0,0v-0.1c0-1.5,1.2-2.8,2.8-2.8L55.8,33.6L55.8,33.6 M55.8,32.3L55.8,32.3
					L55.8,32.3l-20.5,0.1c-1,0-2.1,0.5-2.8,1.2c-0.7,0.7-1,1.6-1.2,2.5l0,0v0.5c0.1,1.3,0.7,2.4,1.8,3.1c0.7,0.5,1.4,0.7,2.2,0.7
					l20.5-0.1c1.7,0,3.3-1.2,3.8-2.9c0.1-0.3,0.1-0.7,0.1-1.2C59.8,34.2,58,32.3,55.8,32.3L55.8,32.3z"/>
			</g>
			<path class="st7" d="M58.6,36.3c0,0.2,0,0.6-0.1,0.8c-0.3,1.2-1.4,2-2.7,2l-20.5,0.1c-0.6,0-1-0.1-1.5-0.5
				c-0.5-0.3-0.9-0.8-1-1.4c0.3,0.2,0.8,0.2,1.3,0.2l21.7-0.1c1.3,0,2.4-0.8,2.8-2l0,0C58.6,35.9,58.6,36.1,58.6,36.3z"/>
			<g>
				<path class="st8" d="M58.6,36.3c0,0.2,0,0.5-0.1,0.8c-0.3-1.2-1.4-2-2.7-2l-20.5,0.1c-1.3,0-2.3,0.8-2.7,2
					c0-0.2-0.1-0.3-0.1-0.6l0,0v-0.1c0-1.5,1.2-2.8,2.8-2.8l20.5-0.1C57.3,33.6,58.6,34.8,58.6,36.3z"/>
			</g>
			<g class="st9">
				<path class="st10" d="M61.6,54.1l-11.8,9.6l2.7,6.3l-1.2,0.3l-3-7.1l11.8-9.6c0.7-0.6,1-1.6,0.8-2.5L57.3,36
					c-0.1-0.6-0.5-1-0.9-1.4c1.2,0,2.2,0.8,2.4,2l3.6,15.1C62.7,52.5,62.4,53.5,61.6,54.1z"/>
			</g>
			<g>
				<path class="st2" d="M36.1,54.4c-1.3,0-2.4-0.6-3.2-1.6l-0.1-0.2l0,0c-0.6-0.9-0.8-2-0.6-3c0.2-1,0.8-2,1.7-2.5l20.4-13.4
					c0.7-0.5,1.4-0.7,2.2-0.7c1.4,0,2.7,0.7,3.3,1.8c0.2,0.3,0.3,0.7,0.5,1c0.5,1.6-0.1,3.5-1.6,4.5L38.3,53.9
					C37.6,54.2,36.8,54.4,36.1,54.4z"/>
				<path class="st3" d="M56.4,33.9c1,0,2.1,0.5,2.7,1.5c0.2,0.2,0.3,0.6,0.3,0.8c0.5,1.4-0.1,2.9-1.3,3.7L37.7,53.3
					c-0.6,0.3-1.2,0.6-1.7,0.6c-1,0-2-0.5-2.7-1.3l0,0l-0.1-0.1c-1-1.5-0.6-3.5,0.9-4.5l20.4-13.4C55.2,34,55.8,33.9,56.4,33.9
					 M56.4,32.4L56.4,32.4c-0.9,0-1.8,0.2-2.7,0.8L33.3,46.6c-1,0.7-1.7,1.7-2.1,3c-0.2,1.2,0,2.3,0.6,3.3l0,0l0.2,0.3
					c0.9,1.3,2.3,2,3.8,2c0.9,0,1.8-0.2,2.5-0.8l20.4-13.4c1.7-1.2,2.5-3.3,2-5.3c-0.1-0.5-0.3-0.8-0.6-1.3
					C59.5,33.2,58,32.4,56.4,32.4L56.4,32.4z"/>
			</g>
			<g>
				<path class="st8" d="M58.8,35c-1-0.5-2.2-0.5-3.2,0.2L35.2,48.6c-1.5,1-2,3-0.9,4.5l0.1,0.1l0,0c0,0.1,0.1,0.1,0.2,0.2
					c-0.5-0.2-0.8-0.6-1.2-0.9l0,0l-0.1-0.1c-1-1.5-0.6-3.5,0.9-4.5l20.4-13.4C56,33.5,57.8,33.8,58.8,35z"/>
			</g>
			<path class="st7" d="M58.2,39.8L37.8,53.2c-0.6,0.3-1.2,0.6-1.7,0.6c-0.2,0-0.5,0-0.7-0.1c-0.3-1.4,0.1-2.9,1.4-3.7l20.4-13.4
				c0.7-0.5,1.6-0.6,2.4-0.5C59.9,37.5,59.4,39,58.2,39.8z"/>
			<g>
				<path class="st4" d="M53.8,43.6c-0.2,0-0.3-0.1-0.6-0.2C53.1,43.3,53,43,53,42.8v-2.7c0-0.3,0.1-0.6,0.5-0.7l6.3-3
					c0.1,0,0.2-0.1,0.3-0.1c0.1,0,0.2,0,0.3,0.1c0.2,0.1,0.3,0.3,0.3,0.6l0.3,5.5c0,0.2-0.1,0.3-0.2,0.6c-0.1,0.1-0.3,0.2-0.6,0.2
					C60.5,43.5,53.8,43.6,53.8,43.6z"/>
				<g>
					<path class="st3" d="M60.2,37.1l0.3,5.5l-6.7,0.2v-2.7L60.2,37.1 M60.2,35.7c-0.2,0-0.5,0-0.7,0.1l-6.3,3
						c-0.6,0.2-0.8,0.8-0.8,1.4v2.7c0,0.5,0.1,0.8,0.5,1c0.2,0.2,0.7,0.5,1,0.5l0,0l6.7-0.2c0.5,0,0.8-0.2,1-0.5
						c0.2-0.3,0.5-0.7,0.3-1.2l-0.3-5.5c0-0.5-0.3-0.9-0.7-1.2C60.8,35.8,60.5,35.7,60.2,35.7L60.2,35.7z"/>
				</g>
			</g>
			<g class="st11">
				<polygon class="st10" points="53.8,40.1 53.8,42.9 59.8,42.9 60.2,41.2 				"/>
			</g>
			<g>
				<path class="st2" d="M36,54.2c-0.5,0-0.8-0.1-1.3-0.2c-1.7-0.7-2.8-2.8-2.3-4.5c0.3-1.4,1.5-2.3,2.8-2.3c0.5,0,0.8,0.1,1.3,0.2
					c1.7,0.7,2.8,2.8,2.3,4.5C38.5,53.3,37.4,54.2,36,54.2z"/>
				<path class="st3" d="M35.3,47.8c0.3,0,0.7,0.1,1,0.2c1.4,0.6,2.3,2.3,2,3.8c-0.2,1.2-1.2,1.8-2.2,1.8c-0.3,0-0.7-0.1-1-0.2
					c-1.4-0.6-2.3-2.3-2-3.8C33.3,48.4,34.2,47.8,35.3,47.8 M35.3,46.4L35.3,46.4c-1.7,0-3.1,1.2-3.5,2.9c-0.5,2.1,0.7,4.5,2.7,5.3
					c0.5,0.2,1,0.3,1.5,0.3c1.7,0,3.1-1.2,3.5-2.9c0.5-2.1-0.7-4.5-2.7-5.3C36.3,46.5,35.7,46.4,35.3,46.4L35.3,46.4z"/>
			</g>
			<ellipse transform="matrix(0.8924 -0.4513 0.4513 0.8924 -19.018 21.5296)" class="st7" cx="35.6" cy="50.6" rx="2.5" ry="3"/>
		</g>
		<g>
			<g>
				<path class="st2" d="M52.5,52.1c-0.3,0-0.7-0.1-0.9-0.2c-0.3-0.2-0.6-0.6-0.7-1c-0.1-0.5,0-0.9,0.2-1.3c2.4-3.7,5.2-6.3,9.3-8.6
					l-2.3-0.2c-0.3,0-0.6-0.2-0.7-0.5c-0.2-0.5,0-1,0.3-1.7c0.1-0.2,0.2-0.5,0.2-0.6c0.1-0.8,0.8-1.4,1.6-1.4c0.1,0,0.2,0,0.2,0
					l7.3,1.2c0.7,0.1,1.3,0.7,1.4,1.5c0.1,0.7-0.3,1.5-1,1.7c-6.2,2.5-10.6,6-13.6,10.5C53.5,51.8,53,52.1,52.5,52.1L52.5,52.1z"/>
				<path class="st3" d="M59.5,37.3h0.1l7.3,1.2c0.5,0.1,0.7,0.3,0.8,0.8c0,0.5-0.2,0.8-0.6,0.9c-6.3,2.7-10.9,6.1-13.9,10.8
					c-0.1,0.2-0.5,0.3-0.7,0.5c0,0,0,0-0.1,0c-0.2,0-0.3,0-0.5-0.1c-0.5-0.2-0.6-0.8-0.2-1.3c2.8-4.3,5.9-6.9,11.2-9.6l-4.7-0.6
					c-0.5-0.1,0.5-1.4,0.5-1.8C58.7,37.6,59,37.3,59.5,37.3 M59.5,35.8L59.5,35.8c-1.2,0-2.2,0.8-2.4,2c0,0.1-0.1,0.2-0.2,0.3
					c-0.3,0.7-0.7,1.5-0.3,2.4c0.2,0.5,0.7,0.8,1.3,0.9l0,0l0,0h0.1c-3.2,2.1-5.5,4.5-7.7,7.7c-0.3,0.6-0.5,1.2-0.3,1.8
					c0.1,0.6,0.5,1.2,1,1.5c0.3,0.2,0.8,0.3,1.3,0.3h0.1c0.8,0,1.5-0.5,1.8-1c2.9-4.4,7.1-7.7,13.3-10.3c1-0.5,1.6-1.5,1.5-2.5
					c-0.1-1-0.9-2-2.1-2.1L59.5,35.8C59.7,35.8,59.6,35.8,59.5,35.8L59.5,35.8z"/>
			</g>
		</g>
		<g>
			<path class="st4" d="M58.5,41L54,40.5c-0.3,0-0.6-0.2-0.7-0.6s0.1-0.6,0.3-0.8l5.5-3.5c0.1-0.1,0.2-0.1,0.3-0.1h0.1l3.5,0.5
				c0.3,0,0.6,0.2,0.6,0.6s0,0.6-0.2,0.8l-4.5,3.5C58.9,40.8,58.7,41,58.5,41C58.6,41,58.5,41,58.5,41z"/>
			<path class="st3" d="M59.5,36.2l3.5,0.5l-4.5,3.5L54,39.7L59.5,36.2 M59.5,34.7c-0.2,0-0.6,0.1-0.8,0.2l-5.5,3.5
				c-0.6,0.3-0.8,1-0.7,1.6c0.1,0.6,0.7,1,1.3,1.2l4.5,0.5h0.1c0.3,0,0.7-0.1,0.9-0.3l4.5-3.5c0.5-0.3,0.7-1,0.6-1.6
				c-0.1-0.6-0.7-1-1.3-1.2l-3.5-0.5C59.7,34.7,59.6,34.7,59.5,34.7L59.5,34.7z"/>
		</g>
		<polygon class="st5" points="63.1,36.7 54.1,39.7 59.5,36.2 		"/>
	</g>
	<g>
		<path class="st12" d="M83.5,96.4H16.2c-3.7,0-6.8-3.1-6.8-6.8L3.8,11c0-3.7,3.1-6.8,6.8-6.8h78.6c3.7,0,6.8,3.1,6.8,6.8l-5.7,78.6
			C90.3,93.4,87.2,96.4,83.5,96.4z"/>
	</g>
	<g class="st0">
		<path class="st13" d="M84.7,97.2H15.3c-3.9,0-7-3.2-7-7L2.4,9.8c0-3.9,3.2-7,7-7h81.1c3.9,0,7,3.2,7,7l-5.8,80.4
			C91.7,94.1,88.6,97.2,84.7,97.2z"/>
	</g>
	<path class="st14" d="M78,38.2l-13.2-1.3c-10.3-1-20.7,0.4-30.3,4.1l-16,6.2c-4.4,1.7-9.2-1.4-9.5-6L7.4,16
		c-0.3-4.6,3.3-8.4,7.9-8.4h73.5c2,0,3.6,1.7,3.5,3.7l-1,15.6C90.8,33.8,84.8,38.9,78,38.2z"/>
</g>
</svg>
