<?xml version="1.0" encoding="utf-8"?>
<!-- Generator: Adobe Illustrator 26.0.2, SVG Export Plug-In . SVG Version: 6.00 Build 0)  -->
<svg version="1.1" id="Layer_1" xmlns="http://www.w3.org/2000/svg" xmlns:xlink="http://www.w3.org/1999/xlink" x="0px" y="0px"
	 viewBox="0 0 100 100" style="enable-background:new 0 0 100 100;" xml:space="preserve">
<style type="text/css">
	.st0{enable-background:new    ;}
	.st1{fill:url(#SVGID_1_);}
	.st2{fill:none;stroke:#333333;stroke-width:0.4505;stroke-miterlimit:10;}
	.st3{fill:#EE0000;stroke:#142C4D;stroke-width:0.6758;stroke-miterlimit:10;}
	.st4{opacity:0.3;}
	.st5{fill:#142C4D;}
	.st6{fill:#27579A;}
	.st7{fill:#EE0000;}
	.st8{fill:none;stroke:#00A7CD;stroke-width:4.8936;stroke-miterlimit:10;}
	.st9{fill:none;stroke:#FAFCFF;stroke-width:2.5862;stroke-miterlimit:10;}
	.st10{opacity:0.16;fill:#FFFFFF;}
</style>
<g>
	<g class="st0">
		<linearGradient id="SVGID_1_" gradientUnits="userSpaceOnUse" x1="49.8643" y1="102.277" x2="49.8643" y2="4.4622">
			<stop  offset="0.4735" style="stop-color:#A3DFED"/>
			<stop  offset="0.4794" style="stop-color:#5DD1E8"/>
		</linearGradient>
		<path class="st1" d="M84.1,97.2H15.6c-3.8,0-6.9-3.1-6.9-6.9l-5.8-80c0-3.8,3.1-6.9,6.9-6.9h80c3.8,0,6.9,3.1,6.9,6.9l-5.8,80
			C91,94.1,87.9,97.2,84.1,97.2z"/>
	</g>
	<g id="lowRiderWheels_00000097465788560843414110000006691510793729031080_">
		<g>
			<g>
				<line class="st2" x1="51.2" y1="41.6" x2="52.9" y2="18.8"/>
				<line class="st2" x1="53.7" y1="40.3" x2="67.2" y2="24.2"/>
				<polyline class="st2" points="72.9,29.4 54.6,42.1 60.5,20.6 				"/>
				<line class="st2" x1="76.3" y1="35.9" x2="56.9" y2="46.8"/>
				<line class="st2" x1="57.6" y1="49.1" x2="79" y2="43.2"/>
				<line class="st2" x1="77.7" y1="59.1" x2="57.6" y2="48.1"/>
				<polyline class="st2" points="73.8,65.2 55.4,53.2 61.7,74.7 				"/>
				<polyline class="st2" points="69.1,71.1 52.9,54.8 54.6,78 				"/>
				<polyline class="st2" points="47.2,76.8 48.4,54.4 32.8,71.3 				"/>
				<polyline class="st2" points="39.8,75.1 45.3,53.6 27.6,66.4 				"/>
				<polyline class="st2" points="23.1,59.8 42.8,49.1 20.9,44.7 				"/>
				<polyline class="st2" points="20.9,52.6 42.8,47.1 22.2,36.6 				"/>
				<polyline class="st2" points="26.2,30.5 45.9,42.1 38.4,21.3 				"/>
				<polyline class="st2" points="31.8,25 48.2,40.1 46.4,18.8 				"/>
			</g>
			<g>
				<g>
					<path d="M50,81.8c-17.6,0-31.9-14.3-31.9-31.8S32.4,18.2,50,18.2S81.9,32.5,81.9,50S67.6,81.8,50,81.8z M50,23.8
						c-14.4,0-26.2,11.8-26.2,26.2S35.5,76.2,50,76.2c14.4,0,26.2-11.8,26.2-26.2S64.5,23.8,50,23.8z"/>
				</g>
			</g>
			<g>
				<path class="st3" d="M50,76.6c-14.6,0-26.6-11.9-26.6-26.6S35.3,23.4,50,23.4S76.6,35.3,76.6,50S64.7,76.6,50,76.6z M50,28.1
					c-12.1,0-21.9,9.8-21.9,21.9S37.9,71.9,50,71.9c12.1,0,21.9-9.8,21.9-21.9S62.1,28.1,50,28.1z"/>
			</g>
			<g class="st4">
				<path class="st5" d="M76.2,50c0,14.5-11.8,26.3-26.2,26.3c-9.2,0-17.4-4.8-22-12l4.1-1.7c3.9,5.6,10.5,9.3,17.9,9.3
					c12.1,0,21.9-9.8,21.9-21.9c0-0.8-0.1-1.6-0.1-2.5l4.3-0.6C76.2,47.9,76.2,48.9,76.2,50z"/>
			</g>
			<g>
				<g>
					<path class="st6" d="M50.7,58.3c-5.6,0-10.1-4.5-10.1-10.1S45.1,38,50.7,38s10.1,4.5,10.1,10.2S56.2,58.3,50.7,58.3z"/>
					<path class="st5" d="M50.7,38.5c5.4,0,9.7,4.3,9.7,9.7s-4.3,9.7-9.7,9.7S41,53.6,41,48.2S45.4,38.5,50.7,38.5 M50.7,37.6
						c-5.9,0-10.6,4.8-10.6,10.6s4.8,10.6,10.6,10.6s10.6-4.8,10.6-10.6S56.5,37.6,50.7,37.6L50.7,37.6z"/>
				</g>
				<g>
					<path class="st7" d="M50.7,55.9c-4.2,0-7.6-3.5-7.6-7.6s3.4-7.7,7.6-7.7s7.6,3.5,7.6,7.7S54.9,55.9,50.7,55.9z"/>
					<path class="st5" d="M50.7,41c4,0,7.2,3.2,7.2,7.2s-3.2,7.2-7.2,7.2c-4,0-7.2-3.2-7.2-7.2S46.7,41,50.7,41 M50.7,40.1
						c-4.4,0-8.1,3.6-8.1,8.1s3.6,8.1,8.1,8.1s8.1-3.7,8.1-8.1S55.2,40.1,50.7,40.1L50.7,40.1z"/>
				</g>
				<g>
					<path class="st6" d="M50.7,53.8c-3.1,0-5.6-2.5-5.6-5.6c0-3.1,2.6-5.7,5.6-5.7s5.6,2.5,5.6,5.7C56.3,51.3,53.8,53.8,50.7,53.8z
						"/>
					<path class="st5" d="M50.7,43c2.9,0,5.2,2.3,5.2,5.2s-2.3,5.2-5.2,5.2s-5.2-2.3-5.2-5.2S47.8,43,50.7,43 M50.7,42.1
						c-3.4,0-6.1,2.8-6.1,6.1c0,3.3,2.8,6.1,6.1,6.1s6.1-2.8,6.1-6.1C56.8,44.9,54.1,42.1,50.7,42.1L50.7,42.1z"/>
				</g>
			</g>
		</g>
	</g>
	<g>
		<path class="st8" d="M83.5,96.4H16.2c-3.7,0-6.8-3.1-6.8-6.8L3.8,11c0-3.7,3.1-6.8,6.8-6.8h78.6c3.7,0,6.8,3.1,6.8,6.8l-5.7,78.6
			C90.3,93.4,87.2,96.4,83.5,96.4z"/>
	</g>
	<g class="st0">
		<path class="st9" d="M84.7,97.2H15.3c-3.9,0-7-3.2-7-7L2.4,9.8c0-3.9,3.2-7,7-7h81.1c3.9,0,7,3.2,7,7l-5.8,80.4
			C91.7,94.1,88.6,97.2,84.7,97.2z"/>
	</g>
	<path class="st10" d="M78,38.2l-13.2-1.3c-10.3-1-20.7,0.4-30.3,4.1l-16,6.2c-4.4,1.7-9.2-1.4-9.5-6L7.4,16
		c-0.3-4.6,3.3-8.4,7.9-8.4h73.5c2,0,3.6,1.7,3.5,3.7l-1,15.6C90.8,33.8,84.8,38.9,78,38.2z"/>
</g>
</svg>
