<?xml version="1.0" encoding="utf-8"?>
<!-- Generator: Adobe Illustrator 26.0.2, SVG Export Plug-In . SVG Version: 6.00 Build 0)  -->
<svg version="1.1" id="Layer_1" xmlns="http://www.w3.org/2000/svg" xmlns:xlink="http://www.w3.org/1999/xlink" x="0px" y="0px"
	 viewBox="0 0 100 100" style="enable-background:new 0 0 100 100;" xml:space="preserve">
<style type="text/css">
	.st0{enable-background:new    ;}
	.st1{fill:url(#SVGID_1_);}
	.st2{fill:none;stroke:#333333;stroke-width:0.4153;stroke-miterlimit:10;}
	.st3{fill:#AEDCDD;}
	.st4{fill:#142C4D;}
	.st5{opacity:0.2;enable-background:new    ;}
	.st6{opacity:0.8;}
	.st7{fill:none;stroke:#00A7CD;stroke-width:4.8936;stroke-miterlimit:10;}
	.st8{fill:none;stroke:#FAFCFF;stroke-width:2.5862;stroke-miterlimit:10;}
	.st9{opacity:0.16;fill:#FFFFFF;enable-background:new    ;}
</style>
<g>
	<g class="st0">
		
			<linearGradient id="SVGID_1_" gradientUnits="userSpaceOnUse" x1="49.8" y1="-0.277" x2="49.8" y2="97.5378" gradientTransform="matrix(1 0 0 -1 0 102)">
			<stop  offset="0.4735" style="stop-color:#A3DFED"/>
			<stop  offset="0.4794" style="stop-color:#5DD1E8"/>
		</linearGradient>
		<path class="st1" d="M84.1,97.2H15.6c-3.8,0-6.9-3.1-6.9-6.9l-5.8-80c0-3.8,3.1-6.9,6.9-6.9h80c3.8,0,6.9,3.1,6.9,6.9l-5.8,80
			C91,94.1,87.9,97.2,84.1,97.2z"/>
	</g>
	<g id="triWheels">
		<g>
			<line class="st2" x1="52.7" y1="42.8" x2="52.7" y2="23.3"/>
			<line class="st2" x1="53.4" y1="43.1" x2="65.9" y2="28.3"/>
			<polyline class="st2" points="71.1,33.1 54.3,44.8 59.6,24.9 			"/>
			<line class="st2" x1="74.2" y1="39.1" x2="56.4" y2="49.1"/>
			<line class="st2" x1="57" y1="51.3" x2="76.7" y2="45.7"/>
			<line class="st2" x1="75.5" y1="60.5" x2="57" y2="50.3"/>
			<polyline class="st2" points="71.9,66.1 54.9,55.1 60.7,74.8 			"/>
			<polyline class="st2" points="67.6,71.5 52.7,56.5 54.3,77.9 			"/>
			<polyline class="st2" points="47.4,76.8 48.5,56.1 34.1,71.7 			"/>
			<polyline class="st2" points="40.6,75.2 45.6,55.4 29.3,67.2 			"/>
			<polyline class="st2" points="25.2,61.1 43.3,51.3 23.1,47.2 			"/>
			<polyline class="st2" points="23.1,54.5 43.3,49.4 24.4,39.7 			"/>
			<polyline class="st2" points="28.1,34.1 46.2,44.8 39.3,25.6 			"/>
			<polyline class="st2" points="33.2,29 47.4,43.5 46.6,23.3 			"/>
			<g>
				<path class="st3" d="M49.9,82.7c-18.1,0-32.8-14.7-32.8-32.8s14.7-32.8,32.8-32.8s32.8,14.7,32.8,32.8S68,82.7,49.9,82.7z
					 M49.9,23.7c-14.4,0-26.2,11.8-26.2,26.2s11.8,26.2,26.2,26.2s26.2-11.8,26.2-26.2S64.4,23.7,49.9,23.7z"/>
				<path class="st4" d="M49.9,17.5c17.9,0,32.4,14.5,32.4,32.4S67.8,82.3,49.9,82.3S17.5,67.8,17.5,49.9S32,17.5,49.9,17.5
					 M49.9,76.5c14.7,0,26.6-11.9,26.6-26.6S64.6,23.3,49.9,23.3S23.3,35.2,23.3,49.9S35.3,76.5,49.9,76.5 M49.9,16.7
					c-18.3,0-33.2,14.9-33.2,33.2s14.9,33.2,33.2,33.2s33.2-14.9,33.2-33.2S68.2,16.7,49.9,16.7L49.9,16.7z M49.9,75.7
					c-14.2,0-25.8-11.6-25.8-25.8s11.6-25.8,25.8-25.8s25.8,11.6,25.8,25.8S64.1,75.7,49.9,75.7L49.9,75.7z"/>
			</g>
			<g>
				<path class="st4" d="M53.1,22.5l0.4-2.5l1.8,0.3l-0.1,0.5L54,20.6l-0.1,0.4l0.7,0.1l-0.1,0.5l-0.7-0.1l-0.2,1L53.1,22.5z"/>
				<path class="st4" d="M56.6,23.2l0-0.5l-0.9-0.2l-0.3,0.4l-0.6-0.1l1.6-2.2l0.5,0.1l0.3,2.7L56.6,23.2z M56.5,22.1l-0.1-0.6
					c0-0.1,0-0.1,0-0.2c0,0,0,0.1-0.1,0.2L55.9,22L56.5,22.1z"/>
				<path class="st4" d="M58.3,23.8c-0.2-0.1-0.4-0.2-0.5-0.4c-0.1-0.2-0.2-0.4-0.2-0.6h0.5c0,0.1,0,0.2,0.1,0.3s0.1,0.1,0.2,0.2
					c0.1,0,0.2,0,0.3,0c0.1,0,0.1,0,0.1-0.1c0,0,0-0.1,0-0.1c0,0,0-0.1-0.1-0.1c0,0-0.1-0.1-0.2-0.1c0,0-0.1-0.1-0.1-0.1
					c0,0-0.1,0-0.1-0.1s-0.1-0.1-0.1-0.1s0-0.1-0.1-0.1s0-0.1,0-0.1c0,0,0-0.1,0-0.2c0,0,0-0.1,0-0.2c0-0.2,0.2-0.3,0.4-0.4
					c0.2-0.1,0.4,0,0.7,0c0.2,0.1,0.4,0.2,0.5,0.3c0.1,0.1,0.1,0.3,0.1,0.5h-0.5c0-0.2-0.1-0.3-0.3-0.4s-0.3,0-0.3,0.1
					c0,0,0,0,0,0.1c0,0,0,0,0.1,0.1c0,0,0.1,0,0.1,0.1c0,0,0.1,0,0.1,0.1c0,0,0.1,0.1,0.1,0.1c0,0,0.1,0.1,0.1,0.1
					c0,0,0.1,0.1,0.1,0.1c0,0,0,0.1,0.1,0.2c0,0,0,0.1,0,0.2s0,0.1,0,0.2c-0.1,0.2-0.2,0.4-0.4,0.4C58.8,23.9,58.5,23.8,58.3,23.8z"
					/>
				<path class="st4" d="M61.5,22.8l-0.8,1.9l-0.5-0.2l0.8-1.9l-0.7-0.3l0.2-0.5l1.9,0.8l-0.2,0.5L61.5,22.8z"/>
				<path class="st4" d="M62.7,25.7l1.3-2.2l1.5,0.9l-0.2,0.4l-1-0.6l-0.2,0.4l0.6,0.4l-0.2,0.4l-0.6-0.4L63.3,26L62.7,25.7z"/>
				<path class="st4" d="M65.3,27.4c-0.1-0.1-0.2-0.2-0.3-0.3c-0.1-0.1-0.1-0.2-0.1-0.3s0-0.2,0-0.4s0-0.2,0.1-0.3s0.1-0.2,0.2-0.3
					c0.1-0.1,0.1-0.2,0.2-0.3c0.1-0.1,0.2-0.1,0.3-0.2c0.1,0,0.2-0.1,0.3-0.1c0.1,0,0.2,0,0.4,0c0.1,0,0.2,0.1,0.4,0.2
					c0.1,0.1,0.3,0.2,0.3,0.4c0.1,0.1,0.1,0.3,0.1,0.4c0,0.1,0,0.3-0.1,0.4c0,0.1-0.1,0.3-0.2,0.4c-0.1,0.1-0.2,0.2-0.3,0.3
					c-0.1,0.1-0.2,0.2-0.4,0.2c-0.1,0-0.3,0-0.5,0C65.7,27.6,65.5,27.6,65.3,27.4z M65.6,27c0.1,0.1,0.2,0.1,0.3,0.1
					c0.1,0,0.2,0,0.3-0.1c0.1,0,0.2-0.1,0.2-0.2c0.1-0.1,0.1-0.2,0.2-0.3c0-0.1,0-0.2,0-0.3c0-0.1-0.1-0.2-0.2-0.3
					c-0.1-0.1-0.2-0.1-0.3-0.1c-0.1,0-0.2,0-0.3,0.1c-0.1,0-0.2,0.1-0.2,0.2c0,0.1-0.1,0.1-0.1,0.2c0,0.1,0,0.1,0,0.2
					c0,0.1,0,0.2,0,0.2C65.5,26.9,65.6,26.9,65.6,27z"/>
				<path class="st4" d="M66.6,28.4l1.7-1.9l0.9,0.8c0.2,0.2,0.3,0.4,0.3,0.6s-0.1,0.4-0.2,0.6c-0.1,0.1-0.2,0.2-0.4,0.2
					c-0.1,0-0.3,0-0.4,0l-0.3,1.1l-0.5-0.4l0.2-1l-0.4-0.3l-0.6,0.7L66.6,28.4z M68,27.7l0.5,0.4c0.1,0.1,0.3,0.1,0.4,0
					c0,0,0.1-0.1,0.1-0.2c0,0,0-0.1-0.1-0.2l-0.5-0.4L68,27.7z"/>
				<path class="st4" d="M68.8,30.3l1.5-2.2l0.4,0.4l-0.8,1.1c0,0,0,0,0,0l0,0c0,0,0,0,0,0l0,0l1.2-0.7l0.3,0.3l-0.8,1.2l0,0
					c0,0,0,0,0,0s0,0,0,0c0,0,0,0,0,0h0l1.2-0.7l0.4,0.4L70,31.6l-0.3-0.4l0.8-1.2c0,0,0,0,0.1-0.1c0,0-0.1,0.1-0.1,0.1l-1.3,0.7
					L68.8,30.3z"/>
				<path class="st4" d="M71.5,33.5l0.3-0.4l-0.6-0.8l-0.5,0.1L70.4,32l2.6-0.7l0.3,0.4L71.9,34L71.5,33.5z M72.1,32.7l0.3-0.5
					c0-0.1,0.1-0.1,0.1-0.2c0,0-0.1,0-0.2,0l-0.6,0.1L72.1,32.7z"/>
				<path class="st4" d="M72,34.3l2.2-1.3l0.6,1.1c0.1,0.2,0.2,0.5,0.1,0.7c0,0.2-0.2,0.3-0.4,0.5c-0.1,0.1-0.3,0.1-0.4,0.1
					c-0.1,0-0.3,0-0.4-0.1l-0.6,0.9l-0.3-0.5l0.5-0.9l-0.2-0.4l-0.8,0.5L72,34.3z M73.6,34l0.3,0.6c0.1,0.1,0.2,0.2,0.4,0.1
					c0,0,0.1-0.1,0.1-0.1c0,0,0-0.1,0-0.2L74,33.7L73.6,34z"/>
				<path class="st4" d="M75.7,35.4l0.4,0.8c0.1,0.2,0.1,0.4,0.1,0.5c0,0.1,0,0.3-0.1,0.5c0,0.1-0.1,0.2-0.2,0.4
					c-0.1,0.1-0.2,0.2-0.4,0.3c-0.1,0-0.2,0.1-0.3,0.1c-0.1,0-0.2,0-0.3,0c-0.1,0-0.2,0-0.4-0.1c-0.1,0-0.2-0.1-0.3-0.2
					c-0.1-0.1-0.2-0.2-0.3-0.4l-0.4-0.8L75.7,35.4z M74.3,37.1c0.1,0.2,0.2,0.3,0.4,0.3c0.2,0,0.3,0,0.5-0.1
					c0.2-0.1,0.3-0.2,0.4-0.4c0.1-0.1,0.1-0.3,0-0.5L75.4,36l-1.3,0.7L74.3,37.1z"/>
			</g>
			<g>
				<path d="M50,84.3c-18.9,0-34.3-15.4-34.3-34.3S31.1,15.7,50,15.7S84.3,31.1,84.3,50S68.9,84.3,50,84.3z M50,18.8
					c-17.2,0-31.2,14-31.2,31.2s14,31.2,31.2,31.2s31.2-14,31.2-31.2S67.2,18.8,50,18.8z"/>
			</g>
			<g>
				<g>
					<path class="st3" d="M50,58.1c-4.5,0-8.1-3.6-8.1-8.1s3.6-8.1,8.1-8.1s8.1,3.6,8.1,8.1S54.5,58.1,50,58.1z"/>
					<path class="st4" d="M50,42.3c4.3,0,7.7,3.4,7.7,7.7s-3.4,7.7-7.7,7.7s-7.7-3.4-7.7-7.7C42.4,45.8,45.8,42.3,50,42.3 M50,41.5
						c-4.7,0-8.5,3.8-8.5,8.5s3.8,8.5,8.5,8.5s8.5-3.8,8.5-8.5S54.7,41.5,50,41.5L50,41.5z"/>
				</g>
				<g>
					<path class="st4" d="M50,56.7c-3.7,0-6.7-3-6.7-6.7s3-6.7,6.7-6.7c3.7,0,6.7,3,6.7,6.7S53.7,56.7,50,56.7z"/>
					<g>
						<path class="st4" d="M50,43.5c3.6,0,6.6,2.9,6.6,6.6c0,3.6-2.9,6.6-6.6,6.6s-6.6-2.9-6.6-6.6C43.4,46.4,46.4,43.5,50,43.5
							 M50,43.1c-3.8,0-6.9,3.1-6.9,6.9c0,3.8,3.1,6.9,6.9,6.9s6.9-3.1,6.9-6.9S53.8,43.1,50,43.1L50,43.1z"/>
					</g>
				</g>
				<g>
					<path class="st3" d="M50,55.9c-3.2,0-5.9-2.6-5.9-5.9s2.6-5.9,5.9-5.9s5.9,2.6,5.9,5.9S53.3,55.9,50,55.9z"/>
					<path class="st4" d="M50,44.5c3.1,0,5.6,2.5,5.6,5.6c0,3.1-2.5,5.6-5.6,5.6s-5.6-2.5-5.6-5.6C44.5,46.9,47,44.5,50,44.5
						 M50,43.8c-3.4,0-6.2,2.8-6.2,6.2s2.8,6.2,6.2,6.2s6.2-2.8,6.2-6.2S53.4,43.8,50,43.8L50,43.8z"/>
				</g>
				<g>
					<path class="st4" d="M50,54.8c-2.6,0-4.8-2.2-4.8-4.8s2.2-4.8,4.8-4.8s4.8,2.2,4.8,4.8S52.7,54.8,50,54.8z"/>
					<g>
						<path class="st4" d="M50,45.3c2.6,0,4.7,2.1,4.7,4.7s-2.1,4.7-4.7,4.7s-4.7-2.1-4.7-4.7S47.5,45.3,50,45.3 M50,45
							c-2.7,0-5,2.3-5,5s2.3,5,5,5s5-2.3,5-5S52.8,45,50,45L50,45z"/>
					</g>
				</g>
				<g>
					<path class="st3" d="M50,54.1c-2.3,0-4.1-1.8-4.1-4.1s1.8-4.1,4.1-4.1s4.1,1.8,4.1,4.1S52.3,54.1,50,54.1z"/>
					<path class="st4" d="M50,46.2c2.1,0,3.8,1.7,3.8,3.8s-1.7,3.8-3.8,3.8s-3.8-1.7-3.8-3.8S47.9,46.2,50,46.2 M50,45.7
						c-2.4,0-4.3,1.9-4.3,4.3s1.9,4.3,4.3,4.3s4.3-1.9,4.3-4.3S52.4,45.7,50,45.7L50,45.7z"/>
				</g>
				<g>
					<path class="st4" d="M50,53.2c-1.8,0-3.2-1.4-3.2-3.2s1.4-3.2,3.2-3.2s3.2,1.4,3.2,3.2S51.8,53.2,50,53.2z"/>
					<path class="st4" d="M50,47c1.7,0,3,1.4,3,3c0,1.7-1.4,3-3,3c-1.7,0-3-1.4-3-3C47,48.3,48.3,47,50,47 M50,46.7
						c-1.9,0-3.3,1.5-3.3,3.3s1.5,3.3,3.3,3.3s3.3-1.5,3.3-3.3S51.9,46.7,50,46.7L50,46.7z"/>
				</g>
			</g>
			<path class="st5" d="M42.9,53c1.7,3.9,6.2,5.7,10.1,4.1c3.6-1.6,5.5-5.6,4.4-9.3c-3.5,2.3-4,2.8-6.8,3.4c-2.2,0.5-3.6,0.7-8,0.7
				C42.7,52.3,42.8,52.6,42.9,53z"/>
			<path class="st5" d="M81.2,50c0,17.2-14,31.2-31.2,31.2c-16.4,0-29.9-12.7-31.1-28.8c0,0,4.4-0.7,4.5-0.2
				c1.1,13.6,12.5,24.3,26.5,24.3c14.7,0,26.6-11.9,26.6-26.6c0-5.6-1.7-10.7-4.7-15c-0.4-0.6,3.2-3.4,3.2-3.4
				C78.9,36.6,81.2,43,81.2,50z"/>
			<path class="st5" d="M81.3,52c-1,17.1-15.9,30.2-33,29.2c-7.6-0.5-14.4-3.7-19.6-8.6l4.2-2.4c4.2,3.6,9.6,5.9,15.5,6.2
				c14.6,0.9,27.3-10.2,28.2-24.9c0.1-1.8,0-3.6-0.2-5.3l4.3-2.4C81.2,46.4,81.4,49.2,81.3,52z"/>
			<g>
				<g class="st6">
					<path class="st3" d="M43.4,17.7c-0.1,0-0.3-0.1-0.3-0.2c0-0.1,0.1-0.3,0.2-0.4c2.2-0.4,4.5-0.7,6.8-0.7c0.2,0,0.3,0.1,0.3,0.3
						s-0.1,0.3-0.3,0.3C47.9,16.9,45.6,17.2,43.4,17.7C43.4,17.7,43.4,17.7,43.4,17.7z"/>
				</g>
				<g class="st6">
					<path class="st3" d="M16.9,46.5C16.9,46.5,16.9,46.5,16.9,46.5c-0.2,0-0.3-0.2-0.3-0.3c0.1-0.8,0.2-1.6,0.3-2.3
						C19.3,31.2,28.9,21,41.2,17.6c0.1,0,0.3,0,0.4,0.2c0,0.1,0,0.3-0.2,0.4C29.3,21.5,20,31.6,17.6,43.9c-0.1,0.7-0.2,1.5-0.3,2.3
						C17.2,46.4,17.1,46.5,16.9,46.5z"/>
				</g>
				<g class="st6">
					<path class="st3" d="M16.7,49.1L16.7,49.1c-0.2,0-0.3-0.1-0.3-0.3c0-0.4,0-0.9,0.1-1.4c0-0.2,0.1-0.3,0.3-0.3
						c0.2,0,0.3,0.1,0.3,0.3c0,0.4,0,0.9-0.1,1.4C17,49,16.9,49.1,16.7,49.1z"/>
				</g>
				<g class="st6">
					<path class="st3" d="M16.7,50.4c-0.2,0-0.3-0.1-0.3-0.3v-0.2c0-0.1,0.1-0.3,0.3-0.3l0,0c0.2,0,0.3,0.1,0.3,0.3v0.2
						C17,50.3,16.8,50.4,16.7,50.4z"/>
				</g>
			</g>
		</g>
	</g>
	<g>
		<path class="st7" d="M83.5,96.4H16.2c-3.7,0-6.8-3.1-6.8-6.8L3.8,11c0-3.7,3.1-6.8,6.8-6.8h78.6c3.7,0,6.8,3.1,6.8,6.8l-5.7,78.6
			C90.3,93.4,87.2,96.4,83.5,96.4z"/>
	</g>
	<g class="st0">
		<path class="st8" d="M84.7,97.2H15.3c-3.9,0-7-3.2-7-7L2.4,9.8c0-3.9,3.2-7,7-7h81.1c3.9,0,7,3.2,7,7l-5.8,80.4
			C91.7,94.1,88.6,97.2,84.7,97.2z"/>
	</g>
	<path class="st9" d="M78,38.2l-13.2-1.3c-10.3-1-20.7,0.4-30.3,4.1l-16,6.2c-4.4,1.7-9.2-1.4-9.5-6L7.4,16
		c-0.3-4.6,3.3-8.4,7.9-8.4h73.5c2,0,3.6,1.7,3.5,3.7l-1,15.6C90.8,33.8,84.8,38.9,78,38.2z"/>
</g>
</svg>
