<?xml version="1.0" encoding="utf-8"?>
<!-- Generator: Adobe Illustrator 26.0.2, SVG Export Plug-In . SVG Version: 6.00 Build 0)  -->
<svg version="1.1" id="Layer_1" xmlns="http://www.w3.org/2000/svg" xmlns:xlink="http://www.w3.org/1999/xlink" x="0px" y="0px"
	 viewBox="0 0 100 100" style="enable-background:new 0 0 100 100;" xml:space="preserve">
<style type="text/css">
	.st0{enable-background:new    ;}
	.st1{fill:url(#SVGID_1_);}
	.st2{fill:#79C4C6;}
	.st3{fill:#2B1010;}
	.st4{fill:#5656C1;stroke:#142C4D;stroke-width:0.9803;stroke-miterlimit:10;}
	.st5{fill:#666666;}
	.st6{fill:#142C4D;}
	.st7{opacity:0.3;}
	.st8{opacity:0.1;enable-background:new    ;}
	.st9{fill:none;stroke:#00A7CD;stroke-width:4.8936;stroke-miterlimit:10;}
	.st10{fill:none;stroke:#FAFCFF;stroke-width:2.5862;stroke-miterlimit:10;}
	.st11{opacity:0.16;fill:#FFFFFF;enable-background:new    ;}
</style>
<g>
	<g class="st0">
		
			<linearGradient id="SVGID_1_" gradientUnits="userSpaceOnUse" x1="49.8" y1="-0.277" x2="49.8" y2="97.5378" gradientTransform="matrix(1 0 0 -1 0 102)">
			<stop  offset="0.4735" style="stop-color:#A3DFED"/>
			<stop  offset="0.4794" style="stop-color:#5DD1E8"/>
		</linearGradient>
		<path class="st1" d="M84.1,97.2H15.6c-3.8,0-6.9-3.1-6.9-6.9l-5.8-80c0-3.8,3.1-6.9,6.9-6.9h80c3.8,0,6.9,3.1,6.9,6.9l-5.8,80
			C91,94.1,87.9,97.2,84.1,97.2z"/>
	</g>
	<g id="streetWheels">
		<g>
			<path class="st2" d="M80.8,50C80.8,67,67,80.8,50,80.8c-13.8,0-25.6-9.2-29.5-21.7c-0.9-2.9-1.3-5.9-1.3-9.1
				C19.2,33,33,19.2,50,19.2c12.7,0,23.6,7.7,28.3,18.6C79.9,41.5,80.8,45.7,80.8,50z"/>
			<g>
				<path d="M49.3,72.2c0.3,0.6,0.8,1.3,1.1,1.8h0.3l0-1.8h1l0.1,4.4c-0.4,0.1-0.9,0.2-1.3,0.2c-1.2,0-1.9-0.5-1.9-1.4
					c0-0.6,0.3-1.1,0.9-1.2l0,0c-0.4-0.5-0.9-1.3-1.2-1.9L49.3,72.2z M50.3,76c0.2,0,0.3,0,0.4,0l0-1.5h-0.4c-0.4,0-0.8,0.2-0.8,0.8
					C49.5,75.9,50,76.1,50.3,76z"/>
				<path d="M46.2,71.9c1,0.1,1.5,1,1.3,2.1c-0.1,1.1-0.9,1.7-1.9,1.5c-1-0.1-1.5-1-1.3-2.1C44.5,72.3,45.2,71.7,46.2,71.9z
					 M45.7,74.7c0.5,0.1,0.7-0.4,0.8-1c0.1-0.6,0-1.1-0.5-1.2c-0.5,0-0.7,0.3-0.8,1C45.2,74.2,45.3,74.7,45.7,74.7z"/>
				<path d="M42.7,71.1c0.9,0.3,1.3,0.8,1.1,1.5c-0.2,0.8-1.1,0.9-1.9,0.6c-0.1,0-0.2-0.1-0.3-0.1c-0.1,0.4,0,0.6,0.4,0.8
					c0.3,0.1,0.7,0.1,1,0.1l0,0.7c-0.2,0-0.7,0-1.2-0.2c-0.8-0.2-1.1-0.8-1-1.4c0-0.1,0-0.2,0.1-0.4l0.6-1.8
					C41.6,70.8,42.2,70.9,42.7,71.1z M41.7,72.5c0.1,0,0.2,0.1,0.3,0.1c0.4,0.1,0.7,0,0.8-0.3c0.1-0.3,0-0.5-0.4-0.7
					c-0.2,0-0.3-0.1-0.4-0.1L41.7,72.5z"/>
				<path d="M39.4,69.6c1,0.5,1.2,1.4,0.7,2.4s-1.4,1.3-2.2,0.9c-0.2-0.1-0.4-0.2-0.5-0.4L36.6,74l-0.8-0.4l2.2-4.3
					C38.3,69.2,38.9,69.3,39.4,69.6z M37.7,71.9c0,0.1,0.2,0.2,0.3,0.3c0.5,0.2,0.9,0,1.2-0.6c0.3-0.6,0.3-1.1-0.2-1.4
					c-0.1-0.1-0.3-0.1-0.4-0.1L37.7,71.9z"/>
				<path d="M33.4,65.1l0.6,0.6c-0.2,0.5-0.5,1.1-0.8,1.6c-0.1,0.1-0.2,0.3-0.2,0.3c0.6-0.3,1.3-0.8,1.9-1.1l0.6,0.6
					c-0.4,1-1,2.1-1.7,3.2L33,69.7c0.3-0.6,0.7-1.1,1-1.7c0.1-0.2,0.2-0.3,0.2-0.4L34,67.7c-0.6,0.4-1.3,0.8-1.9,1.1l-0.5-0.5
					c0.4-0.6,0.7-1.2,1.1-1.9c0-0.1,0.1-0.2,0.1-0.2c0,0-0.2,0.1-0.3,0.2c-0.6,0.3-1.2,0.7-1.7,1.1l-0.7-0.6
					C31.3,66.2,32.5,65.6,33.4,65.1z"/>
				<path d="M31.9,63c0.5,0.8,0.6,1.4-0.1,1.9c-0.7,0.5-1.3,0-1.9-0.6c-0.1-0.1-0.1-0.2-0.2-0.3c-0.3,0.2-0.4,0.5-0.1,0.9
					c0.2,0.3,0.5,0.5,0.7,0.6L29.7,66c-0.2-0.1-0.6-0.4-0.9-0.9c-0.5-0.7-0.4-1.2,0.1-1.7c0.1-0.1,0.2-0.2,0.3-0.2l1.6-1.1
					C31.1,62.2,31.5,62.5,31.9,63z M30.2,63.6c0,0.1,0.1,0.2,0.2,0.3c0.2,0.3,0.5,0.5,0.9,0.2c0.3-0.2,0.3-0.5,0-0.8
					c-0.1-0.1-0.2-0.2-0.3-0.3L30.2,63.6z"/>
				<path d="M27.3,60.9c0,0.2,0.1,0.3,0.1,0.4c0.1,0.2,0.2,0.3,0.3,0.4l2.5-1.3l0.4,0.9l-2.9,1.5c-0.2-0.2-0.5-0.5-0.8-1
					c-0.1-0.2-0.2-0.5-0.3-0.7C26.9,61,27.1,61,27.3,60.9z"/>
				<path d="M26.3,58.2c0,0.2,0,0.3,0.1,0.4c0.1,0.2,0.2,0.3,0.2,0.4l2.6-1l0.3,0.9l-3.1,1.1c-0.2-0.2-0.5-0.6-0.7-1.1
					c-0.1-0.2-0.1-0.5-0.2-0.7C25.8,58.3,26,58.3,26.3,58.2z"/>
				<path d="M24.8,57.1c0.1,0.3,0,0.6-0.3,0.7c-0.3,0.1-0.6-0.1-0.6-0.4c-0.1-0.3,0-0.6,0.3-0.7C24.5,56.6,24.7,56.8,24.8,57.1z
					 M28.7,56.5l-3.4,0.9l-0.2-0.9l3.4-0.9L28.7,56.5z"/>
				<path d="M28.1,53.5c0.1,1-0.5,1.7-1.6,1.8c-1.1,0.1-1.9-0.4-2-1.3c-0.1-1,0.5-1.7,1.6-1.8S28,52.5,28.1,53.5z M25.2,53.9
					c0,0.5,0.6,0.6,1.2,0.5c0.6-0.1,1.1-0.3,1-0.8c0-0.5-0.5-0.6-1.1-0.5C25.6,53.2,25.2,53.4,25.2,53.9z"/>
				<path d="M25.1,49.3c0,0.2,0,0.3,0,0.4c0,0.2,0,0.4,0,0.5l2.8,0v1l-3.3,0c-0.1-0.3-0.2-0.7-0.2-1.2c0-0.2,0-0.5,0.1-0.8
					C24.6,49.2,24.8,49.2,25.1,49.3z"/>
			</g>
			<path class="st3" d="M50,18.7c17.3,0,31.3,14,31.3,31.3S67.3,81.3,50,81.3S18.7,67.3,18.7,50S32.8,18.7,50,18.7 M50,16.1
				c-9.1,0-17.6,3.5-24,9.9s-9.9,14.9-9.9,24s3.5,17.6,9.9,24c6.4,6.4,14.9,9.9,24,9.9s17.6-3.5,24-9.9s9.9-14.9,9.9-24
				S80.4,32.4,74,26C67.6,19.6,59.1,16.1,50,16.1L50,16.1z"/>
			<path class="st4" d="M50,21.2c16,0,28.8,12.9,28.8,28.8S65.9,78.8,50,78.8S21.2,65.9,21.2,50S34.1,21.2,50,21.2 M50,18.7
				c-8.4,0-16.2,3.2-22.1,9.2S18.7,41.6,18.7,50s3.2,16.2,9.2,22.1s13.8,9.2,22.1,9.2s16.2-3.2,22.1-9.2s9.2-13.8,9.2-22.1
				S78,33.8,72.1,27.9C66.2,22,58.4,18.7,50,18.7L50,18.7z"/>
			<g>
				<circle class="st5" cx="50" cy="50" r="8.5"/>
				<path class="st6" d="M50,41.9c4.5,0,8.1,3.6,8.1,8.1s-3.6,8.1-8.1,8.1s-8.1-3.6-8.1-8.1S45.5,41.9,50,41.9 M50,41.2
					c-4.9,0-8.8,4-8.8,8.8s4,8.8,8.8,8.8s8.8-4,8.8-8.8S54.9,41.2,50,41.2L50,41.2z"/>
			</g>
			<g class="st7">
				<circle cx="50.6" cy="50.6" r="6.3"/>
			</g>
			<g>
				<circle class="st5" cx="50" cy="50" r="6.3"/>
				<path class="st6" d="M50,44c3.3,0,6,2.7,6,6s-2.7,6-6,6s-6-2.7-6-6S46.7,44,50,44 M50,43.3c-3.7,0-6.7,3-6.7,6.7s3,6.7,6.7,6.7
					s6.7-3,6.7-6.7S53.7,43.3,50,43.3L50,43.3z"/>
			</g>
			<g class="st7">
				<circle cx="50.4" cy="50.6" r="5.2"/>
			</g>
			<g>
				<circle class="st5" cx="50" cy="50" r="5"/>
				<path class="st6" d="M50,45.3c2.6,0,4.7,2.1,4.7,4.7s-2.1,4.7-4.7,4.7s-4.7-2.1-4.7-4.7C45.4,47.4,47.4,45.3,50,45.3 M50,44.6
					c-3,0-5.3,2.4-5.3,5.3c0,3,2.4,5.3,5.3,5.3s5.3-2.4,5.3-5.3C55.3,47,53,44.6,50,44.6L50,44.6z"/>
			</g>
			<path class="st8" d="M80.8,50C80.8,67,67,80.8,50,80.8c-13.8,0-25.6-9.2-29.5-21.7l57.8-21.3C79.9,41.5,80.8,45.7,80.8,50z"/>
		</g>
	</g>
	<g>
		<path class="st9" d="M83.5,96.4H16.2c-3.7,0-6.8-3.1-6.8-6.8L3.8,11c0-3.7,3.1-6.8,6.8-6.8h78.6c3.7,0,6.8,3.1,6.8,6.8l-5.7,78.6
			C90.3,93.4,87.2,96.4,83.5,96.4z"/>
	</g>
	<g class="st0">
		<path class="st10" d="M84.7,97.2H15.3c-3.9,0-7-3.2-7-7L2.4,9.8c0-3.9,3.2-7,7-7h81.1c3.9,0,7,3.2,7,7l-5.8,80.4
			C91.7,94.1,88.6,97.2,84.7,97.2z"/>
	</g>
	<path class="st11" d="M78,38.2l-13.2-1.3c-10.3-1-20.7,0.4-30.3,4.1l-16,6.2c-4.4,1.7-9.2-1.4-9.5-6L7.4,16
		c-0.3-4.6,3.3-8.4,7.9-8.4h73.5c2,0,3.6,1.7,3.5,3.7l-1,15.6C90.8,33.8,84.8,38.9,78,38.2z"/>
</g>
</svg>
