<?xml version="1.0" encoding="utf-8"?>
<!-- Generator: Adobe Illustrator 26.0.2, SVG Export Plug-In . SVG Version: 6.00 Build 0)  -->
<svg version="1.1" id="Layer_1" xmlns="http://www.w3.org/2000/svg" xmlns:xlink="http://www.w3.org/1999/xlink" x="0px" y="0px"
	 viewBox="0 0 100 100" style="enable-background:new 0 0 100 100;" xml:space="preserve">
<style type="text/css">
	.st0{enable-background:new    ;}
	.st1{fill:url(#SVGID_1_);}
	.st2{fill:none;stroke:#2B1010;stroke-width:0.3942;stroke-miterlimit:10;}
	.st3{fill:#272B33;}
	.st4{fill:#142C4D;}
	.st5{fill:#0C1726;}
	.st6{fill:#BAB1B5;}
	.st7{fill:#030B21;}
	.st8{opacity:0.65;fill:#BAB1B5;enable-background:new    ;}
	.st9{opacity:0.5;fill:#BAB1B5;enable-background:new    ;}
	.st10{fill:none;stroke:#00A7CD;stroke-width:4.8936;stroke-miterlimit:10;}
	.st11{fill:none;stroke:#FAFCFF;stroke-width:2.5862;stroke-miterlimit:10;}
	.st12{opacity:0.16;fill:#FFFFFF;}
</style>
<g>
	<g class="st0">
		<linearGradient id="SVGID_1_" gradientUnits="userSpaceOnUse" x1="49.8643" y1="102.277" x2="49.8643" y2="4.4622">
			<stop  offset="0.4735" style="stop-color:#A3DFED"/>
			<stop  offset="0.4794" style="stop-color:#5DD1E8"/>
		</linearGradient>
		<path class="st1" d="M84.1,97.2H15.6c-3.8,0-6.9-3.1-6.9-6.9l-5.8-80c0-3.8,3.1-6.9,6.9-6.9h80c3.8,0,6.9,3.1,6.9,6.9l-5.8,80
			C91,94.1,87.9,97.2,84.1,97.2z"/>
	</g>
	<g id="eBikeWheels_00000047033556651304084470000014373662460792936833_">
		<g>
			<g>
				<g>
					<line class="st2" x1="41.7" y1="46.8" x2="29.1" y2="40.3"/>
				</g>
				<line class="st2" x1="41.7" y1="46.8" x2="30.5" y2="37.8"/>
				<line class="st2" x1="42.9" y1="45.3" x2="31.1" y2="35.6"/>
				<line class="st2" x1="43.5" y1="43.8" x2="26.7" y2="45.3"/>
				<line class="st2" x1="43.7" y1="45" x2="27.3" y2="50"/>
				<line class="st2" x1="44.1" y1="43.1" x2="33.4" y2="33.8"/>
				<line class="st2" x1="48.6" y1="40.1" x2="33.4" y2="33.8"/>
				<line class="st2" x1="44.9" y1="42.3" x2="42.1" y2="27.5"/>
				<line class="st2" x1="44.9" y1="42.3" x2="39.6" y2="28.7"/>
				<line class="st2" x1="48.6" y1="40.1" x2="36" y2="31.7"/>
				<line class="st2" x1="42.9" y1="50" x2="30.3" y2="63.2"/>
				<line class="st2" x1="43.5" y1="51.6" x2="34.2" y2="66.5"/>
				<line class="st2" x1="44.1" y1="53.7" x2="27.9" y2="57.5"/>
				<line class="st2" x1="44.3" y1="52.6" x2="27.3" y2="52.9"/>
				<line class="st2" x1="46.3" y1="55.1" x2="45.8" y2="73.4"/>
				<line class="st2" x1="50" y1="55.5" x2="36" y2="68.5"/>
				<line class="st2" x1="50.8" y1="57.5" x2="39.6" y2="71.3"/>
				<line class="st2" x1="49.2" y1="56.5" x2="50" y2="73.6"/>
				<line class="st2" x1="51.4" y1="56.5" x2="62.4" y2="69.9"/>
				<line class="st2" x1="55.7" y1="54.9" x2="52.7" y2="73"/>
				<line class="st2" x1="56.9" y1="53.7" x2="58.1" y2="71.3"/>
				<line class="st2" x1="53.6" y1="55.1" x2="66.1" y2="66.5"/>
				<line class="st2" x1="67.7" y1="65.7" x2="59.4" y2="51"/>
				<line class="st2" x1="55.7" y1="53.7" x2="71.9" y2="57.1"/>
				<line class="st2" x1="71.1" y1="60.8" x2="59.3" y2="47.4"/>
				<line class="st2" x1="50.8" y1="39.1" x2="56.7" y2="27.9"/>
				<line class="st2" x1="50" y1="39.7" x2="53.7" y2="27.1"/>
				<line class="st2" x1="53.6" y1="40.1" x2="50.2" y2="26.7"/>
				<line class="st2" x1="53.6" y1="40.1" x2="47" y2="27.3"/>
				<line class="st2" x1="58.1" y1="43.7" x2="60.9" y2="29.5"/>
				<line class="st2" x1="54.2" y1="41.1" x2="67.9" y2="35.4"/>
				<line class="st2" x1="59.3" y1="46.8" x2="69.7" y2="39.1"/>
				<line class="st2" x1="71.9" y1="42.5" x2="59.1" y2="48.8"/>
				<line class="st2" x1="72.9" y1="45.3" x2="55.7" y2="43.3"/>
			</g>
			<g>
				<g>
					<g>
						<path class="st3" d="M50,82.4c-17.9,0-32.4-14.5-32.4-32.4S32.1,17.5,50,17.5S82.4,32.1,82.4,50S67.9,82.4,50,82.4z M50,26.8
							c-12.8,0-23.2,10.4-23.2,23.2S37.2,73.2,50,73.2S73.2,62.8,73.2,50C73.2,37.2,62.8,26.8,50,26.8z"/>
						<path d="M50,18.2c17.6,0,31.8,14.3,31.8,31.8S67.6,81.8,50,81.8S18.2,67.6,18.2,50S32.4,18.2,50,18.2 M50,73.7
							C63.1,73.7,73.8,63,73.8,50S63.1,26.2,50,26.2S26.2,36.9,26.2,50C26.2,63.1,36.9,73.7,50,73.7 M50,17c-18.2,0-33,14.8-33,33
							s14.8,33,33,33s33-14.8,33-33S68.2,17,50,17L50,17z M50,72.5c-12.5,0-22.6-10.1-22.6-22.6S37.5,27.4,50,27.4
							S72.6,37.5,72.6,50S62.5,72.5,50,72.5L50,72.5z"/>
					</g>
				</g>
				<g>
					<g>
						<path class="st3" d="M50,82c-17.7,0-32-14.4-32-32s14.4-32,32-32s32,14.4,32,32S67.7,82,50,82z M50,26.4
							C37,26.4,26.5,37,26.5,50C26.5,63,37,73.5,50,73.5c13,0,23.5-10.6,23.5-23.5S63,26.4,50,26.4z"/>
						<path class="st4" d="M50,18.2c17.6,0,31.8,14.3,31.8,31.8S67.6,81.8,50,81.8S18.2,67.6,18.2,50S32.4,18.2,50,18.2 M50,73.7
							C63.1,73.7,73.8,63,73.8,50S63.1,26.2,50,26.2S26.2,36.9,26.2,50C26.2,63.1,36.9,73.7,50,73.7 M50,17.8
							c-17.8,0-32.2,14.5-32.2,32.2S32.3,82.2,50,82.2S82.2,67.7,82.2,50S67.7,17.8,50,17.8L50,17.8z M50,73.3
							c-12.9,0-23.4-10.5-23.4-23.4S37.1,26.6,50,26.6S73.4,37.1,73.4,50S62.9,73.3,50,73.3L50,73.3z"/>
					</g>
				</g>
				<g>
					<path class="st5" d="M81.8,50c0,17.6-14.3,31.8-31.8,31.8c-9.1,0-17.4-3.9-23.2-10c5.7,5.4,13.4,8.7,21.8,8.7
						c17.6,0,31.8-14.3,31.8-31.8c0-8.4-3.3-16.1-8.7-21.8C78,32.6,81.8,40.8,81.8,50z"/>
				</g>
				<path class="st6" d="M76,31.7c-5.8-7.3-14.8-12-24.9-12c-17.6,0-31.8,14.3-31.8,31.8c0,6.8,2.1,13.1,5.8,18.2
					c-4.3-5.4-6.9-12.4-6.9-19.8c0-17.6,14.3-31.8,31.8-31.8C60.8,18.2,70.3,23.5,76,31.7z"/>
				<path class="st6" d="M74.9,51.6c0,13.1-10.7,23.8-23.8,23.8c-8.1,0-15.3-4.1-19.6-10.4c4.4,5.3,11,8.8,18.4,8.8
					C63.1,73.7,73.8,63,73.8,50c0-5-1.6-9.6-4.2-13.4C72.9,40.7,74.9,45.8,74.9,51.6z"/>
				<g>
					<g>
						<path class="st7" d="M50.7,39.1c-5.1,0-9.2,4.1-9.2,9.2s4.1,9.2,9.2,9.2s9.2-4.1,9.2-9.2S55.8,39.1,50.7,39.1z M56.7,48.3
							c0,1.1-0.3,2.2-0.9,3.1l-2.2-1.9c0.2-0.4,0.3-0.8,0.3-1.3c0-0.3,0-0.6-0.1-1l2.4-1.6C56.5,46.5,56.7,47.4,56.7,48.3z M50,48.6
							C50,48.7,50,48.7,50,48.6L50,48.6C50,48.6,50,48.6,50,48.6L50,48.6z M50,48.8L50,48.8C50,48.8,50,48.8,50,48.8
							C50,48.8,50,48.8,50,48.8z M51.3,47.6C51.3,47.6,51.3,47.6,51.3,47.6C51.3,47.7,51.3,47.7,51.3,47.6
							C51.3,47.7,51.3,47.7,51.3,47.6L51.3,47.6C51.2,47.6,51.2,47.6,51.3,47.6c-0.1,0-0.1,0-0.1-0.1l0,0
							C51.1,47.5,51.2,47.5,51.3,47.6L51.3,47.6C51.2,47.6,51.3,47.6,51.3,47.6L51.3,47.6z M51.6,48.6
							C51.6,48.5,51.6,48.5,51.6,48.6C51.6,48.5,51.6,48.5,51.6,48.6L51.6,48.6C51.6,48.5,51.6,48.6,51.6,48.6z M51,49.1L51,49.1
							L51,49.1L51,49.1C50.9,49.1,50.9,49.1,51,49.1z M51.1,49.1L51.1,49.1L51.1,49.1L51.1,49.1C51,49.1,51,49.1,51.1,49.1
							C51,49.1,51,49.1,51.1,49.1z M51.1,49.1L51.1,49.1L51.1,49.1L51.1,49.1L51.1,49.1z M51.2,49L51.2,49C51.3,49,51.3,49,51.2,49
							L51.2,49L51.2,49C51.2,49,51.2,49,51.2,49C51.2,49,51.2,49,51.2,49z M50.7,47.4L50.7,47.4c0,0-0.1,0-0.1,0h0
							c-0.1,0-0.1,0-0.2,0.1c0,0,0,0,0,0l0,0l0,0l0.2-0.1L50.7,47.4z M50.7,42.4c1.7,0,3.3,0.8,4.4,2l-2.4,1.6
							c-0.5-0.5-1.2-0.7-2-0.7c0,0,0,0-0.1,0l-0.9-2.7C50.1,42.4,50.4,42.4,50.7,42.4z M48.1,43l0.9,2.7c-0.6,0.4-1.1,1-1.3,1.8
							l-2.9,0.1C45.1,45.6,46.4,43.8,48.1,43z M44.9,49.4l2.9-0.1c0.2,0.7,0.7,1.4,1.4,1.7l-0.7,2.8C46.7,53,45.3,51.4,44.9,49.4z
							 M50.7,54.2c-0.2,0-0.4,0-0.6,0l0.7-2.8c0.6,0,1.1-0.2,1.6-0.5l2.2,1.9C53.6,53.7,52.2,54.2,50.7,54.2z"/>
					</g>
				</g>
			</g>
			<g>
				<g>
					<g>
						<path class="st3" d="M50,82.4c-17.9,0-32.4-14.5-32.4-32.4S32.1,17.5,50,17.5S82.4,32.1,82.4,50S67.9,82.4,50,82.4z M50,26.8
							c-12.8,0-23.2,10.4-23.2,23.2S37.2,73.2,50,73.2S73.2,62.8,73.2,50C73.2,37.2,62.8,26.8,50,26.8z"/>
						<path d="M50,18.2c17.6,0,31.8,14.3,31.8,31.8S67.6,81.8,50,81.8S18.2,67.6,18.2,50S32.4,18.2,50,18.2 M50,73.7
							C63.1,73.7,73.8,63,73.8,50S63.1,26.2,50,26.2S26.2,36.9,26.2,50C26.2,63.1,36.9,73.7,50,73.7 M50,17c-18.2,0-33,14.8-33,33
							s14.8,33,33,33s33-14.8,33-33S68.2,17,50,17L50,17z M50,72.5c-12.5,0-22.6-10.1-22.6-22.6S37.5,27.4,50,27.4
							S72.6,37.5,72.6,50S62.5,72.5,50,72.5L50,72.5z"/>
					</g>
				</g>
				<g>
					<g>
						<path class="st3" d="M50,82c-17.7,0-32-14.4-32-32s14.4-32,32-32s32,14.4,32,32S67.7,82,50,82z M50,26.4
							C37,26.4,26.5,37,26.5,50C26.5,63,37,73.5,50,73.5c13,0,23.5-10.6,23.5-23.5S63,26.4,50,26.4z"/>
						<path class="st4" d="M50,18.2c17.6,0,31.8,14.3,31.8,31.8S67.6,81.8,50,81.8S18.2,67.6,18.2,50S32.4,18.2,50,18.2 M50,73.7
							C63.1,73.7,73.8,63,73.8,50S63.1,26.2,50,26.2S26.2,36.9,26.2,50C26.2,63.1,36.9,73.7,50,73.7 M50,17.8
							c-17.8,0-32.2,14.5-32.2,32.2S32.3,82.2,50,82.2S82.2,67.7,82.2,50S67.7,17.8,50,17.8L50,17.8z M50,73.3
							c-12.9,0-23.4-10.5-23.4-23.4S37.1,26.6,50,26.6S73.4,37.1,73.4,50S62.9,73.3,50,73.3L50,73.3z"/>
					</g>
				</g>
				<g>
					<path class="st5" d="M81.8,50c0,17.6-14.3,31.8-31.8,31.8c-9.1,0-17.4-3.9-23.2-10c5.7,5.4,13.4,8.7,21.8,8.7
						c17.6,0,31.8-14.3,31.8-31.8c0-8.4-3.3-16.1-8.7-21.8C78,32.6,81.8,40.8,81.8,50z"/>
				</g>
				<path class="st8" d="M76,31.7c-5.8-7.3-14.8-12-24.9-12c-17.6,0-31.8,14.3-31.8,31.8c0,6.8,2.1,13.1,5.8,18.2
					c-4.3-5.4-6.9-12.4-6.9-19.8c0-17.6,14.3-31.8,31.8-31.8C60.8,18.2,70.3,23.5,76,31.7z"/>
				<path class="st9" d="M74.9,51.6c0,13.1-10.7,23.8-23.8,23.8c-8.1,0-15.3-4.1-19.6-10.4c4.4,5.3,11,8.8,18.4,8.8
					C63.1,73.7,73.8,63,73.8,50c0-5-1.6-9.6-4.2-13.4C72.9,40.7,74.9,45.8,74.9,51.6z"/>
				<g>
					<g>
						<path class="st7" d="M50.7,39.1c-5.1,0-9.2,4.1-9.2,9.2s4.1,9.2,9.2,9.2s9.2-4.1,9.2-9.2S55.8,39.1,50.7,39.1z M56.7,48.3
							c0,1.1-0.3,2.2-0.9,3.1l-2.2-1.9c0.2-0.4,0.3-0.8,0.3-1.3c0-0.3,0-0.6-0.1-1l2.4-1.6C56.5,46.5,56.7,47.4,56.7,48.3z M50,48.6
							C50,48.7,50,48.7,50,48.6L50,48.6C50,48.6,50,48.6,50,48.6L50,48.6z M50,48.8L50,48.8C50,48.8,50,48.8,50,48.8
							C50,48.8,50,48.8,50,48.8z M51.3,47.6C51.3,47.6,51.3,47.6,51.3,47.6C51.3,47.7,51.3,47.7,51.3,47.6
							C51.3,47.7,51.3,47.7,51.3,47.6L51.3,47.6C51.2,47.6,51.2,47.6,51.3,47.6c-0.1,0-0.1,0-0.1-0.1l0,0
							C51.1,47.5,51.2,47.5,51.3,47.6L51.3,47.6C51.2,47.6,51.3,47.6,51.3,47.6L51.3,47.6z M51.6,48.6
							C51.6,48.5,51.6,48.5,51.6,48.6C51.6,48.5,51.6,48.5,51.6,48.6L51.6,48.6C51.6,48.5,51.6,48.6,51.6,48.6z M51,49.1L51,49.1
							L51,49.1L51,49.1C50.9,49.1,50.9,49.1,51,49.1z M51.1,49.1L51.1,49.1L51.1,49.1L51.1,49.1C51,49.1,51,49.1,51.1,49.1
							C51,49.1,51,49.1,51.1,49.1z M51.1,49.1L51.1,49.1L51.1,49.1L51.1,49.1L51.1,49.1z M51.2,49L51.2,49C51.3,49,51.3,49,51.2,49
							L51.2,49L51.2,49C51.2,49,51.2,49,51.2,49C51.2,49,51.2,49,51.2,49z M50.7,47.4L50.7,47.4c0,0-0.1,0-0.1,0h0
							c-0.1,0-0.1,0-0.2,0.1c0,0,0,0,0,0l0,0l0,0l0.2-0.1L50.7,47.4z M50.7,42.4c1.7,0,3.3,0.8,4.4,2l-2.4,1.6
							c-0.5-0.5-1.2-0.7-2-0.7c0,0,0,0-0.1,0l-0.9-2.7C50.1,42.4,50.4,42.4,50.7,42.4z M48.1,43l0.9,2.7c-0.6,0.4-1.1,1-1.3,1.8
							l-2.9,0.1C45.1,45.6,46.4,43.8,48.1,43z M44.9,49.4l2.9-0.1c0.2,0.7,0.7,1.4,1.4,1.7l-0.7,2.8C46.7,53,45.3,51.4,44.9,49.4z
							 M50.7,54.2c-0.2,0-0.4,0-0.6,0l0.7-2.8c0.6,0,1.1-0.2,1.6-0.5l2.2,1.9C53.6,53.7,52.2,54.2,50.7,54.2z"/>
					</g>
				</g>
			</g>
		</g>
	</g>
	<g>
		<path class="st10" d="M83.5,96.4H16.2c-3.7,0-6.8-3.1-6.8-6.8L3.8,11c0-3.7,3.1-6.8,6.8-6.8h78.6c3.7,0,6.8,3.1,6.8,6.8l-5.7,78.6
			C90.3,93.4,87.2,96.4,83.5,96.4z"/>
	</g>
	<g class="st0">
		<path class="st11" d="M84.7,97.2H15.3c-3.9,0-7-3.2-7-7L2.4,9.8c0-3.9,3.2-7,7-7h81.1c3.9,0,7,3.2,7,7l-5.8,80.4
			C91.7,94.1,88.6,97.2,84.7,97.2z"/>
	</g>
	<path class="st12" d="M78,38.2l-13.2-1.3c-10.3-1-20.7,0.4-30.3,4.1l-16,6.2c-4.4,1.7-9.2-1.4-9.5-6L7.4,16
		c-0.3-4.6,3.3-8.4,7.9-8.4h73.5c2,0,3.6,1.7,3.5,3.7l-1,15.6C90.8,33.8,84.8,38.9,78,38.2z"/>
</g>
</svg>
