<?xml version="1.0" encoding="utf-8"?>
<!-- Generator: Adobe Illustrator 26.0.2, SVG Export Plug-In . SVG Version: 6.00 Build 0)  -->
<svg version="1.1" id="Layer_1" xmlns="http://www.w3.org/2000/svg" xmlns:xlink="http://www.w3.org/1999/xlink" x="0px" y="0px"
	 viewBox="0 0 100 100" style="enable-background:new 0 0 100 100;" xml:space="preserve">
<style type="text/css">
	.st0{enable-background:new    ;}
	.st1{fill:url(#SVGID_1_);}
	.st2{fill:none;stroke:#142C4D;stroke-width:0.4906;stroke-miterlimit:10;}
	.st3{fill:#AEDCDD;}
	.st4{fill:#142C4D;}
	.st5{fill:#EE0000;}
	.st6{fill:#FAAA4F;}
	.st7{opacity:0.3;}
	.st8{fill:none;stroke:#FCD4D4;stroke-width:0.4906;stroke-miterlimit:10;}
	.st9{fill:none;stroke:#FFE7BD;stroke-width:0.4906;stroke-miterlimit:10;}
	.st10{fill:none;stroke:#FCD4D4;stroke-width:0.7359;stroke-miterlimit:10;}
	.st11{fill:none;stroke:#00A7CD;stroke-width:4.8936;stroke-miterlimit:10;}
	.st12{fill:none;stroke:#FAFCFF;stroke-width:2.5862;stroke-miterlimit:10;}
	.st13{opacity:0.16;fill:#FFFFFF;enable-background:new    ;}
</style>
<g>
	<g class="st0">
		
			<linearGradient id="SVGID_1_" gradientUnits="userSpaceOnUse" x1="49.8" y1="-0.277" x2="49.8" y2="97.5378" gradientTransform="matrix(1 0 0 -1 0 102)">
			<stop  offset="0.4735" style="stop-color:#A3DFED"/>
			<stop  offset="0.4794" style="stop-color:#5DD1E8"/>
		</linearGradient>
		<path class="st1" d="M84.1,97.2H15.6c-3.8,0-6.9-3.1-6.9-6.9l-5.8-80c0-3.8,3.1-6.9,6.9-6.9h80c3.8,0,6.9,3.1,6.9,6.9l-5.8,80
			C91,94.1,87.9,97.2,84.1,97.2z"/>
	</g>
	<g id="wagonWheels_00000105384243931602524450000011939747136184735120_">
		<g>
			<line class="st2" x1="44.7" y1="44.7" x2="31.1" y2="31.2"/>
			<line class="st2" x1="48.3" y1="42.7" x2="44" y2="24"/>
			<line class="st2" x1="52.5" y1="42.9" x2="58.7" y2="24.8"/>
			<line class="st2" x1="55.8" y1="45.3" x2="70.7" y2="33.3"/>
			<line class="st2" x1="57.5" y1="49.1" x2="76.5" y2="46.8"/>
			<line class="st2" x1="57.4" y1="51.5" x2="76.1" y2="55.5"/>
			<line class="st2" x1="53.7" y1="56.6" x2="63" y2="73.3"/>
			<line class="st2" x1="49.4" y1="57.5" x2="47.9" y2="76.6"/>
			<line class="st2" x1="46" y1="56.4" x2="35.8" y2="72.6"/>
			<line class="st2" x1="56.8" y1="53.2" x2="74.1" y2="61.4"/>
			<line class="st2" x1="43.2" y1="53.4" x2="26.2" y2="61.9"/>
			<line class="st2" x1="42.6" y1="51.3" x2="23.7" y2="54.6"/>
			<line class="st2" x1="43.1" y1="47.1" x2="25.5" y2="39.6"/>
			<line class="st2" x1="46.2" y1="43.5" x2="36.6" y2="26.9"/>
			<line class="st2" x1="50.9" y1="42.5" x2="53.3" y2="23.5"/>
			<line class="st2" x1="54" y1="43.6" x2="64.1" y2="27.4"/>
			<line class="st2" x1="56.9" y1="47.1" x2="74.5" y2="39.5"/>
			<line class="st2" x1="42.5" y1="49.3" x2="23.4" y2="47.5"/>
			<line class="st2" x1="44" y1="45.4" x2="28.8" y2="33.8"/>
			<line class="st2" x1="55.3" y1="44.7" x2="68.9" y2="31.2"/>
			<line class="st2" x1="55.3" y1="55.3" x2="68.9" y2="68.9"/>
			<line class="st2" x1="51.7" y1="57.4" x2="56" y2="76"/>
			<line class="st2" x1="47.5" y1="57.1" x2="41.3" y2="75.2"/>
			<line class="st2" x1="44.1" y1="54.7" x2="29.2" y2="66.7"/>
			<line class="st2" x1="56" y1="54.6" x2="71.2" y2="66.3"/>
			<line class="st2" x1="44.7" y1="55.3" x2="31.1" y2="68.9"/>
			<g>
				<g>
					<circle class="st3" cx="50" cy="50" r="7.4"/>
					<g>
						<path class="st4" d="M50,43.1c3.8,0,6.9,3.1,6.9,6.9s-3.1,6.9-6.9,6.9s-6.9-3.1-6.9-6.9C43.1,46.2,46.2,43.1,50,43.1 M50,42.1
							c-4.3,0-7.9,3.5-7.9,7.9s3.5,7.9,7.9,7.9s7.9-3.5,7.9-7.9S54.3,42.1,50,42.1L50,42.1z"/>
					</g>
				</g>
				<g>
					<circle class="st4" cx="50" cy="50" r="5.4"/>
				</g>
				<g>
					<circle class="st3" cx="50" cy="50" r="4.2"/>
					<g>
						<path class="st4" d="M50,46.1c2.2,0,3.9,1.7,3.9,3.9s-1.7,3.9-3.9,3.9s-3.9-1.7-3.9-3.9C46.1,47.8,47.8,46.1,50,46.1 M50,45.5
							c-2.5,0-4.5,2-4.5,4.5s2,4.5,4.5,4.5s4.5-2,4.5-4.5C54.5,47.5,52.5,45.5,50,45.5L50,45.5z"/>
					</g>
				</g>
				<g>
					<g>
						<path d="M50,81.9c-17.6,0-31.9-14.3-31.9-31.9S32.4,18.1,50,18.1S81.9,32.4,81.9,50S67.6,81.9,50,81.9z M50,23.8
							c-14.5,0-26.2,11.8-26.2,26.2S35.5,76.2,50,76.2S76.2,64.5,76.2,50S64.5,23.8,50,23.8z"/>
					</g>
				</g>
				<g>
					<g>
						<g>
							<g>
								<path class="st5" d="M50,78c-15.4,0-28-12.5-28-28s12.5-28,28-28s28,12.5,28,28S65.4,78,50,78z M50,27
									c-12.7,0-23,10.4-23,23s10.4,23,23,23s23-10.4,23-23S62.7,27,50,27z"/>
								<path class="st4" d="M50,22.5c15.2,0,27.5,12.3,27.5,27.5S65.2,77.5,50,77.5S22.5,65.2,22.5,50S34.8,22.5,50,22.5 M50,73.6
									c13,0,23.5-10.6,23.5-23.5c0-13-10.6-23.5-23.5-23.5c-13,0-23.5,10.6-23.5,23.5C26.4,63,37,73.6,50,73.6 M50,21.5
									c-15.7,0-28.5,12.8-28.5,28.5S34.3,78.5,50,78.5S78.5,65.7,78.5,50S65.7,21.5,50,21.5L50,21.5z M50,72.6
									c-12.4,0-22.5-10.1-22.5-22.5S37.6,27.5,50,27.5s22.5,10.1,22.5,22.5S62.4,72.6,50,72.6L50,72.6z"/>
							</g>
						</g>
					</g>
				</g>
				<g>
					<path class="st6" d="M50,75.9c-14.4,0-26.1-11.7-26.1-26.1S35.6,23.6,50,23.6c14.4,0,26.1,11.7,26.1,26.1S64.4,75.9,50,75.9z
						 M50,24.9c-13.7,0-24.9,11.2-24.9,24.9S36.3,74.6,50,74.6c13.7,0,24.9-11.2,24.9-24.9S63.7,24.9,50,24.9z"/>
				</g>
				<g class="st7">
					<path class="st4" d="M77.5,50c0,15.2-12.3,27.5-27.5,27.5c-11.5,0-21.4-7.1-25.5-17.1l3.8-1.2c3.6,8.5,11.9,14.3,21.7,14.3
						c13,0,23.5-10.6,23.5-23.5c0-1.7-0.2-3.3-0.5-4.9l3.8-1.2C77.2,45.9,77.5,47.9,77.5,50z"/>
				</g>
				<g>
					<g>
						<path class="st5" d="M38.4,64.4c-0.7,0-1.3-0.3-1.6-0.8l-3.8-4.8c-0.3-0.4-0.5-1-0.4-1.5c0.1-0.5,0.3-1,0.8-1.4
							c0.4-0.3,0.8-0.4,1.3-0.4c0.7,0,1.3,0.3,1.6,0.8L40,61c0.3,0.4,0.5,1,0.4,1.5c-0.1,0.5-0.3,1-0.8,1.4
							C39.3,64.2,38.8,64.4,38.4,64.4z"/>
						<g>
							<path class="st4" d="M34.6,55.8c0.5,0,1,0.2,1.4,0.7l3.8,4.8c0.6,0.8,0.5,1.8-0.3,2.4l0,0c-0.3,0.3-0.7,0.4-1.1,0.4
								c-0.5,0-1-0.2-1.4-0.7l-3.8-4.8c-0.6-0.8-0.5-1.8,0.3-2.4C33.8,55.9,34.2,55.8,34.6,55.8 M34.6,55.1L34.6,55.1
								c-0.5,0-1.1,0.2-1.5,0.5c-0.5,0.4-0.8,1-0.9,1.6c-0.1,0.7,0.1,1.3,0.5,1.8l3.8,4.8c0.5,0.6,1.1,0.9,1.9,0.9
								c0.5,0,1.1-0.2,1.5-0.5c0.5-0.4,0.8-1,0.9-1.6c0.1-0.7-0.1-1.3-0.5-1.8L36.5,56C36,55.4,35.3,55.1,34.6,55.1L34.6,55.1z"/>
						</g>
					</g>
					<polyline class="st8" points="33.4,58.7 34.8,57.6 36,56.7 					"/>
					<polyline class="st8" points="37.9,58.9 36.6,59.9 35.2,61.1 					"/>
					<polyline class="st9" points="36.9,63.2 38.2,62 39.5,61 					"/>
					<polyline class="st10" points="39.5,63.6 38.2,62 36.6,59.9 34.8,57.6 33.6,56.1 					"/>
				</g>
			</g>
		</g>
	</g>
	<g>
		<path class="st11" d="M83.5,96.4H16.2c-3.7,0-6.8-3.1-6.8-6.8L3.8,11c0-3.7,3.1-6.8,6.8-6.8h78.6c3.7,0,6.8,3.1,6.8,6.8l-5.7,78.6
			C90.3,93.4,87.2,96.4,83.5,96.4z"/>
	</g>
	<g class="st0">
		<path class="st12" d="M84.7,97.2H15.3c-3.9,0-7-3.2-7-7L2.4,9.8c0-3.9,3.2-7,7-7h81.1c3.9,0,7,3.2,7,7l-5.8,80.4
			C91.7,94.1,88.6,97.2,84.7,97.2z"/>
	</g>
	<path class="st13" d="M78,38.2l-13.2-1.3c-10.3-1-20.7,0.4-30.3,4.1l-16,6.2c-4.4,1.7-9.2-1.4-9.5-6L7.4,16
		c-0.3-4.6,3.3-8.4,7.9-8.4h73.5c2,0,3.6,1.7,3.5,3.7l-1,15.6C90.8,33.8,84.8,38.9,78,38.2z"/>
</g>
</svg>
